<?xml version="1.0" standalone="no"?>
 <!DOCTYPE svg PUBLIC "-//W3C//DTD SVG 1.1//EN" 
 "http://www.w3.org/Graphics/SVG/1.1/DTD/svg11.dtd"> 
<svg
  xmlns:svg="http://www.w3.org/2000/svg"
  xmlns="http://www.w3.org/2000/svg"
  xmlns:xlink="http://www.w3.org/1999/xlink"
  version="1.1"
  width="297.0022mm" height="210.0072mm" viewBox="0.0000 0.0000 297.0022 210.0072">
<title>SVG Image created as ergo56-User_Comments.svg date 2023/12/21 13:30:10 </title>
  <desc>Image generated by PCBNEW </desc>
<g style="fill:#000000; fill-opacity:1.0000;stroke:#000000; stroke-opacity:1.0000;
stroke-linecap:round; stroke-linejoin:round;"
 transform="translate(0 0) scale(1 1)">
</g>
<g style="fill:#000000; fill-opacity:0.0; 
stroke:#000000; stroke-width:0.0000; stroke-opacity:1; 
stroke-linecap:round; stroke-linejoin:round;">
</g>
<g style="fill:#000000; fill-opacity:0.0; 
stroke:#000000; stroke-width:0.1500; stroke-opacity:1; 
stroke-linecap:round; stroke-linejoin:round;">
<g transform="rotate(75.000000 123.0158 39.4590)">
<text x="123.0158" y="39.4590"
textLength="3.2500" font-size="1.3333" lengthAdjust="spacingAndGlyphs"
text-anchor="middle" opacity="0">USB</text>
</g>
<g class="stroked-text"><desc>USB</desc>
<path d="M122.2507 37.9476
L123.0327 38.1571
" />
<path d="M123.0327 38.1571
L123.1123 38.2278
" />
<path d="M123.1123 38.2278
L123.1460 38.2861
" />
<path d="M123.1460 38.2861
L123.1673 38.3904
" />
<path d="M123.1673 38.3904
L123.1180 38.5744
" />
<path d="M123.1180 38.5744
L123.0474 38.6541
" />
<path d="M123.0474 38.6541
L122.9891 38.6878
" />
<path d="M122.9891 38.6878
L122.8848 38.7091
" />
<path d="M122.8848 38.7091
L122.1028 38.4996
" />
<path d="M122.9118 39.1600
L122.9209 39.3104
" />
<path d="M122.9209 39.3104
L122.8592 39.5403
" />
<path d="M122.8592 39.5403
L122.7886 39.6200
" />
<path d="M122.7886 39.6200
L122.7303 39.6537
" />
<path d="M122.7303 39.6537
L122.6259 39.6750
" />
<path d="M122.6259 39.6750
L122.5340 39.6504
" />
<path d="M122.5340 39.6504
L122.4543 39.5797
" />
<path d="M122.4543 39.5797
L122.4206 39.5214
" />
<path d="M122.4206 39.5214
L122.3993 39.4171
" />
<path d="M122.3993 39.4171
L122.4026 39.2208
" />
<path d="M122.4026 39.2208
L122.3812 39.1165
" />
<path d="M122.3812 39.1165
L122.3475 39.0581
" />
<path d="M122.3475 39.0581
L122.2679 38.9875
" />
<path d="M122.2679 38.9875
L122.1759 38.9629
" />
<path d="M122.1759 38.9629
L122.0716 38.9842
" />
<path d="M122.0716 38.9842
L122.0132 39.0179
" />
<path d="M122.0132 39.0179
L121.9426 39.0975
" />
<path d="M121.9426 39.0975
L121.8810 39.3275
" />
<path d="M121.8810 39.3275
L121.8900 39.4778
" />
<path d="M122.1068 40.3247
L122.1158 40.4750
" />
<path d="M122.1158 40.4750
L122.1495 40.5333
" />
<path d="M122.1495 40.5333
L122.2291 40.6040
" />
<path d="M122.2291 40.6040
L122.3671 40.6410
" />
<path d="M122.3671 40.6410
L122.4714 40.6196
" />
<path d="M122.4714 40.6196
L122.5298 40.5859
" />
<path d="M122.5298 40.5859
L122.6004 40.5063
" />
<path d="M122.6004 40.5063
L122.6990 40.1383
" />
<path d="M122.6990 40.1383
L121.7331 39.8795
" />
<path d="M121.7331 39.8795
L121.6468 40.2015
" />
<path d="M121.6468 40.2015
L121.6682 40.3058
" />
<path d="M121.6682 40.3058
L121.7018 40.3641
" />
<path d="M121.7018 40.3641
L121.7815 40.4347
" />
<path d="M121.7815 40.4347
L121.8735 40.4594
" />
<path d="M121.8735 40.4594
L121.9778 40.4380
" />
<path d="M121.9778 40.4380
L122.0361 40.4044
" />
<path d="M122.0361 40.4044
L122.1068 40.3247
" />
<path d="M122.1068 40.3247
L122.1930 40.0027
" />
</g><g transform="rotate(-15.000000 92.2302 96.7407)">
<text x="92.2302" y="97.2407"
textLength="2.9643" font-size="1.3333" lengthAdjust="spacingAndGlyphs"
text-anchor="middle" opacity="0">LED</text>
</g>
<g class="stroked-text"><desc>LED</desc>
<path d="M92.7334 97.3464
L93.1934 97.4696
" />
<path d="M93.1934 97.4696
L93.4522 96.5037
" />
<path d="M92.5470 96.7541
L92.2250 96.6679
" />
<path d="M91.9515 97.1368
L92.4114 97.2601
" />
<path d="M92.4114 97.2601
L92.6702 96.2942
" />
<path d="M92.6702 96.2942
L92.2103 96.1709
" />
<path d="M91.5375 97.0259
L91.7963 96.0600
" />
<path d="M91.7963 96.0600
L91.5663 95.9984
" />
<path d="M91.5663 95.9984
L91.4160 96.0074
" />
<path d="M91.4160 96.0074
L91.2994 96.0747
" />
<path d="M91.2994 96.0747
L91.2287 96.1544
" />
<path d="M91.2287 96.1544
L91.1334 96.3261
" />
<path d="M91.1334 96.3261
L91.0964 96.4641
" />
<path d="M91.0964 96.4641
L91.0931 96.6604
" />
<path d="M91.0931 96.6604
L91.1145 96.7647
" />
<path d="M91.1145 96.7647
L91.1818 96.8813
" />
<path d="M91.1818 96.8813
L91.3075 96.9643
" />
<path d="M91.3075 96.9643
L91.5375 97.0259
" />
</g><g transform="rotate(-15.000000 73.5694 96.8368)">
<text x="73.5694" y="97.3368"
textLength="2.9643" font-size="1.3333" lengthAdjust="spacingAndGlyphs"
text-anchor="middle" opacity="0">LED</text>
</g>
<g class="stroked-text"><desc>LED</desc>
<path d="M74.0727 97.4425
L74.5326 97.5658
" />
<path d="M74.5326 97.5658
L74.7914 96.5998
" />
<path d="M73.8863 96.8503
L73.5643 96.7640
" />
<path d="M73.2907 97.2330
L73.7507 97.3562
" />
<path d="M73.7507 97.3562
L74.0095 96.3903
" />
<path d="M74.0095 96.3903
L73.5495 96.2671
" />
<path d="M72.8768 97.1221
L73.1356 96.1561
" />
<path d="M73.1356 96.1561
L72.9056 96.0945
" />
<path d="M72.9056 96.0945
L72.7553 96.1035
" />
<path d="M72.7553 96.1035
L72.6386 96.1709
" />
<path d="M72.6386 96.1709
L72.5680 96.2506
" />
<path d="M72.5680 96.2506
L72.4727 96.4222
" />
<path d="M72.4727 96.4222
L72.4357 96.5602
" />
<path d="M72.4357 96.5602
L72.4324 96.7565
" />
<path d="M72.4324 96.7565
L72.4538 96.8608
" />
<path d="M72.4538 96.8608
L72.5211 96.9775
" />
<path d="M72.5211 96.9775
L72.6468 97.0604
" />
<path d="M72.6468 97.0604
L72.8768 97.1221
" />
</g><g transform="rotate(-15.000000 54.9326 96.8437)">
<text x="54.9326" y="97.3437"
textLength="2.9643" font-size="1.3333" lengthAdjust="spacingAndGlyphs"
text-anchor="middle" opacity="0">LED</text>
</g>
<g class="stroked-text"><desc>LED</desc>
<path d="M55.4358 97.4494
L55.8958 97.5727
" />
<path d="M55.8958 97.5727
L56.1546 96.6067
" />
<path d="M55.2494 96.8572
L54.9275 96.7709
" />
<path d="M54.6539 97.2399
L55.1139 97.3631
" />
<path d="M55.1139 97.3631
L55.3727 96.3972
" />
<path d="M55.3727 96.3972
L54.9127 96.2740
" />
<path d="M54.2399 97.1290
L54.4987 96.1630
" />
<path d="M54.4987 96.1630
L54.2688 96.1014
" />
<path d="M54.2688 96.1014
L54.1185 96.1104
" />
<path d="M54.1185 96.1104
L54.0018 96.1778
" />
<path d="M54.0018 96.1778
L53.9312 96.2575
" />
<path d="M53.9312 96.2575
L53.8359 96.4291
" />
<path d="M53.8359 96.4291
L53.7989 96.5671
" />
<path d="M53.7989 96.5671
L53.7956 96.7634
" />
<path d="M53.7956 96.7634
L53.8169 96.8677
" />
<path d="M53.8169 96.8677
L53.8843 96.9844
" />
<path d="M53.8843 96.9844
L54.0099 97.0673
" />
<path d="M54.0099 97.0673
L54.2399 97.1290
" />
</g><g transform="rotate(-15.000000 36.2719 96.9399)">
<text x="36.2719" y="97.4399"
textLength="2.9643" font-size="1.3333" lengthAdjust="spacingAndGlyphs"
text-anchor="middle" opacity="0">LED</text>
</g>
<g class="stroked-text"><desc>LED</desc>
<path d="M36.7751 97.5456
L37.2351 97.6688
" />
<path d="M37.2351 97.6688
L37.4939 96.7029
" />
<path d="M36.5887 96.9533
L36.2667 96.8671
" />
<path d="M35.9932 97.3360
L36.4531 97.4593
" />
<path d="M36.4531 97.4593
L36.7119 96.4934
" />
<path d="M36.7119 96.4934
L36.2520 96.3701
" />
<path d="M35.5792 97.2251
L35.8380 96.2592
" />
<path d="M35.8380 96.2592
L35.6080 96.1976
" />
<path d="M35.6080 96.1976
L35.4577 96.2066
" />
<path d="M35.4577 96.2066
L35.3411 96.2739
" />
<path d="M35.3411 96.2739
L35.2704 96.3536
" />
<path d="M35.2704 96.3536
L35.1751 96.5253
" />
<path d="M35.1751 96.5253
L35.1382 96.6633
" />
<path d="M35.1382 96.6633
L35.1349 96.8596
" />
<path d="M35.1349 96.8596
L35.1562 96.9639
" />
<path d="M35.1562 96.9639
L35.2235 97.0805
" />
<path d="M35.2235 97.0805
L35.3492 97.1635
" />
<path d="M35.3492 97.1635
L35.5792 97.2251
" />
</g><g transform="rotate(-345.000000 256.6425 80.5602)">
<text x="256.6425" y="81.0602"
textLength="2.9643" font-size="1.3333" lengthAdjust="spacingAndGlyphs"
text-anchor="middle" opacity="0">LED</text>
</g>
<g class="stroked-text"><desc>LED</desc>
<path d="M257.3812 80.8332
L257.8411 80.7099
" />
<path d="M257.8411 80.7099
L257.5823 79.7440
" />
<path d="M256.9236 80.4135
L256.6016 80.4998
" />
<path d="M256.5992 81.0427
L257.0592 80.9195
" />
<path d="M257.0592 80.9195
L256.8004 79.9535
" />
<path d="M256.8004 79.9535
L256.3404 80.0768
" />
<path d="M256.1853 81.1536
L255.9264 80.1877
" />
<path d="M255.9264 80.1877
L255.6965 80.2493
" />
<path d="M255.6965 80.2493
L255.5708 80.3323
" />
<path d="M255.5708 80.3323
L255.5034 80.4489
" />
<path d="M255.5034 80.4489
L255.4821 80.5533
" />
<path d="M255.4821 80.5533
L255.4854 80.7496
" />
<path d="M255.4854 80.7496
L255.5224 80.8876
" />
<path d="M255.5224 80.8876
L255.6177 81.0592
" />
<path d="M255.6177 81.0592
L255.6883 81.1389
" />
<path d="M255.6883 81.1389
L255.8050 81.2062
" />
<path d="M255.8050 81.2062
L255.9553 81.2153
" />
<path d="M255.9553 81.2153
L256.1853 81.1536
" />
</g><g transform="rotate(-345.000000 237.9706 80.4226)">
<text x="237.9706" y="80.9226"
textLength="2.9643" font-size="1.3333" lengthAdjust="spacingAndGlyphs"
text-anchor="middle" opacity="0">LED</text>
</g>
<g class="stroked-text"><desc>LED</desc>
<path d="M238.7093 80.6955
L239.1693 80.5722
" />
<path d="M239.1693 80.5722
L238.9104 79.6063
" />
<path d="M238.2518 80.2758
L237.9298 80.3621
" />
<path d="M237.9274 80.9050
L238.3873 80.7818
" />
<path d="M238.3873 80.7818
L238.1285 79.8158
" />
<path d="M238.1285 79.8158
L237.6685 79.9391
" />
<path d="M237.5134 81.0159
L237.2546 80.0500
" />
<path d="M237.2546 80.0500
L237.0246 80.1116
" />
<path d="M237.0246 80.1116
L236.8989 80.1946
" />
<path d="M236.8989 80.1946
L236.8316 80.3113
" />
<path d="M236.8316 80.3113
L236.8102 80.4156
" />
<path d="M236.8102 80.4156
L236.8135 80.6119
" />
<path d="M236.8135 80.6119
L236.8505 80.7499
" />
<path d="M236.8505 80.7499
L236.9458 80.9215
" />
<path d="M236.9458 80.9215
L237.0165 81.0012
" />
<path d="M237.0165 81.0012
L237.1331 81.0685
" />
<path d="M237.1331 81.0685
L237.2834 81.0776
" />
<path d="M237.2834 81.0776
L237.5134 81.0159
" />
</g><g transform="rotate(-345.000000 219.3339 80.4161)">
<text x="219.3339" y="80.9161"
textLength="2.9643" font-size="1.3333" lengthAdjust="spacingAndGlyphs"
text-anchor="middle" opacity="0">LED</text>
</g>
<g class="stroked-text"><desc>LED</desc>
<path d="M220.0726 80.6890
L220.5326 80.5657
" />
<path d="M220.5326 80.5657
L220.2737 79.5998
" />
<path d="M219.6150 80.2693
L219.2931 80.3556
" />
<path d="M219.2907 80.8985
L219.7506 80.7753
" />
<path d="M219.7506 80.7753
L219.4918 79.8093
" />
<path d="M219.4918 79.8093
L219.0318 79.9326
" />
<path d="M218.8767 81.0094
L218.6179 80.0435
" />
<path d="M218.6179 80.0435
L218.3879 80.1051
" />
<path d="M218.3879 80.1051
L218.2622 80.1881
" />
<path d="M218.2622 80.1881
L218.1949 80.3047
" />
<path d="M218.1949 80.3047
L218.1735 80.4091
" />
<path d="M218.1735 80.4091
L218.1768 80.6054
" />
<path d="M218.1768 80.6054
L218.2138 80.7434
" />
<path d="M218.2138 80.7434
L218.3091 80.9150
" />
<path d="M218.3091 80.9150
L218.3797 80.9947
" />
<path d="M218.3797 80.9947
L218.4964 81.0620
" />
<path d="M218.4964 81.0620
L218.6467 81.0711
" />
<path d="M218.6467 81.0711
L218.8767 81.0094
" />
</g><g transform="rotate(-345.000000 184.3621 88.9927)">
<text x="184.3621" y="89.4927"
textLength="2.9643" font-size="1.3333" lengthAdjust="spacingAndGlyphs"
text-anchor="middle" opacity="0">LED</text>
</g>
<g class="stroked-text"><desc>LED</desc>
<path d="M185.1008 89.2656
L185.5607 89.1424
" />
<path d="M185.5607 89.1424
L185.3019 88.1764
" />
<path d="M184.6432 88.8459
L184.3212 88.9322
" />
<path d="M184.3188 89.4751
L184.7788 89.3519
" />
<path d="M184.7788 89.3519
L184.5200 88.3860
" />
<path d="M184.5200 88.3860
L184.0600 88.5092
" />
<path d="M183.9048 89.5861
L183.6460 88.6201
" />
<path d="M183.6460 88.6201
L183.4160 88.6818
" />
<path d="M183.4160 88.6818
L183.2904 88.7647
" />
<path d="M183.2904 88.7647
L183.2230 88.8814
" />
<path d="M183.2230 88.8814
L183.2017 88.9857
" />
<path d="M183.2017 88.9857
L183.2050 89.1820
" />
<path d="M183.2050 89.1820
L183.2420 89.3200
" />
<path d="M183.2420 89.3200
L183.3373 89.4916
" />
<path d="M183.3373 89.4916
L183.4079 89.5713
" />
<path d="M183.4079 89.5713
L183.5245 89.6387
" />
<path d="M183.5245 89.6387
L183.6749 89.6477
" />
<path d="M183.6749 89.6477
L183.9048 89.5861
" />
</g><g transform="rotate(-345.000000 168.0510 97.6655)">
<text x="168.0510" y="98.1655"
textLength="2.9643" font-size="1.3333" lengthAdjust="spacingAndGlyphs"
text-anchor="middle" opacity="0">LED</text>
</g>
<g class="stroked-text"><desc>LED</desc>
<path d="M168.7896 97.9384
L169.2496 97.8151
" />
<path d="M169.2496 97.8151
L168.9908 96.8492
" />
<path d="M168.3321 97.5187
L168.0101 97.6050
" />
<path d="M168.0077 98.1479
L168.4677 98.0247
" />
<path d="M168.4677 98.0247
L168.2088 97.0587
" />
<path d="M168.2088 97.0587
L167.7489 97.1820
" />
<path d="M167.5937 98.2588
L167.3349 97.2929
" />
<path d="M167.3349 97.2929
L167.1049 97.3545
" />
<path d="M167.1049 97.3545
L166.9793 97.4375
" />
<path d="M166.9793 97.4375
L166.9119 97.5541
" />
<path d="M166.9119 97.5541
L166.8906 97.6585
" />
<path d="M166.8906 97.6585
L166.8939 97.8548
" />
<path d="M166.8939 97.8548
L166.9308 97.9928
" />
<path d="M166.9308 97.9928
L167.0261 98.1644
" />
<path d="M167.0261 98.1644
L167.0968 98.2441
" />
<path d="M167.0968 98.2441
L167.2134 98.3114
" />
<path d="M167.2134 98.3114
L167.3637 98.3205
" />
<path d="M167.3637 98.3205
L167.5937 98.2588
" />
</g><g transform="rotate(-15.000000 129.2523 97.6655)">
<text x="129.2523" y="98.1655"
textLength="2.9643" font-size="1.3333" lengthAdjust="spacingAndGlyphs"
text-anchor="middle" opacity="0">LED</text>
</g>
<g class="stroked-text"><desc>LED</desc>
<path d="M129.7555 98.2712
L130.2155 98.3944
" />
<path d="M130.2155 98.3944
L130.4743 97.4285
" />
<path d="M129.5691 97.6789
L129.2472 97.5927
" />
<path d="M128.9736 98.0616
L129.4336 98.1849
" />
<path d="M129.4336 98.1849
L129.6924 97.2190
" />
<path d="M129.6924 97.2190
L129.2324 97.0957
" />
<path d="M128.5596 97.9507
L128.8184 96.9848
" />
<path d="M128.8184 96.9848
L128.5885 96.9232
" />
<path d="M128.5885 96.9232
L128.4381 96.9322
" />
<path d="M128.4381 96.9322
L128.3215 96.9995
" />
<path d="M128.3215 96.9995
L128.2509 97.0792
" />
<path d="M128.2509 97.0792
L128.1556 97.2509
" />
<path d="M128.1556 97.2509
L128.1186 97.3889
" />
<path d="M128.1186 97.3889
L128.1153 97.5852
" />
<path d="M128.1153 97.5852
L128.1366 97.6895
" />
<path d="M128.1366 97.6895
L128.2040 97.8061
" />
<path d="M128.2040 97.8061
L128.3296 97.8891
" />
<path d="M128.3296 97.8891
L128.5596 97.9507
" />
</g><g transform="rotate(-345.000000 163.6510 81.2447)">
<text x="163.6510" y="81.7447"
textLength="2.9643" font-size="1.3333" lengthAdjust="spacingAndGlyphs"
text-anchor="middle" opacity="0">LED</text>
</g>
<g class="stroked-text"><desc>LED</desc>
<path d="M164.3897 81.5177
L164.8497 81.3944
" />
<path d="M164.8497 81.3944
L164.5909 80.4285
" />
<path d="M163.9322 81.0980
L163.6102 81.1842
" />
<path d="M163.6078 81.7272
L164.0677 81.6039
" />
<path d="M164.0677 81.6039
L163.8089 80.6380
" />
<path d="M163.8089 80.6380
L163.3490 80.7613
" />
<path d="M163.1938 81.8381
L162.9350 80.8722
" />
<path d="M162.9350 80.8722
L162.7050 80.9338
" />
<path d="M162.7050 80.9338
L162.5793 81.0168
" />
<path d="M162.5793 81.0168
L162.5120 81.1334
" />
<path d="M162.5120 81.1334
L162.4907 81.2377
" />
<path d="M162.4907 81.2377
L162.4940 81.4340
" />
<path d="M162.4940 81.4340
L162.5309 81.5720
" />
<path d="M162.5309 81.5720
L162.6262 81.7437
" />
<path d="M162.6262 81.7437
L162.6969 81.8234
" />
<path d="M162.6969 81.8234
L162.8135 81.8907
" />
<path d="M162.8135 81.8907
L162.9638 81.8997
" />
<path d="M162.9638 81.8997
L163.1938 81.8381
" />
</g><g transform="rotate(-345.000000 200.6732 80.3199)">
<text x="200.6732" y="80.8199"
textLength="2.9643" font-size="1.3333" lengthAdjust="spacingAndGlyphs"
text-anchor="middle" opacity="0">LED</text>
</g>
<g class="stroked-text"><desc>LED</desc>
<path d="M201.4119 80.5929
L201.8718 80.4696
" />
<path d="M201.8718 80.4696
L201.6130 79.5037
" />
<path d="M200.9543 80.1732
L200.6323 80.2594
" />
<path d="M200.6299 80.8024
L201.0899 80.6791
" />
<path d="M201.0899 80.6791
L200.8311 79.7132
" />
<path d="M200.8311 79.7132
L200.3711 79.8364
" />
<path d="M200.2159 80.9133
L199.9571 79.9474
" />
<path d="M199.9571 79.9474
L199.7271 80.0090
" />
<path d="M199.7271 80.0090
L199.6015 80.0920
" />
<path d="M199.6015 80.0920
L199.5341 80.2086
" />
<path d="M199.5341 80.2086
L199.5128 80.3129
" />
<path d="M199.5128 80.3129
L199.5161 80.5092
" />
<path d="M199.5161 80.5092
L199.5531 80.6472
" />
<path d="M199.5531 80.6472
L199.6484 80.8189
" />
<path d="M199.6484 80.8189
L199.7190 80.8986
" />
<path d="M199.7190 80.8986
L199.8357 80.9659
" />
<path d="M199.8357 80.9659
L199.9860 80.9749
" />
<path d="M199.9860 80.9749
L200.2159 80.9133
" />
</g><g transform="rotate(-15.000000 112.9412 88.9927)">
<text x="112.9412" y="89.4927"
textLength="2.9643" font-size="1.3333" lengthAdjust="spacingAndGlyphs"
text-anchor="middle" opacity="0">LED</text>
</g>
<g class="stroked-text"><desc>LED</desc>
<path d="M113.4444 89.5984
L113.9044 89.7216
" />
<path d="M113.9044 89.7216
L114.1632 88.7557
" />
<path d="M113.2580 89.0062
L112.9360 88.9199
" />
<path d="M112.6625 89.3889
L113.1225 89.5121
" />
<path d="M113.1225 89.5121
L113.3813 88.5462
" />
<path d="M113.3813 88.5462
L112.9213 88.4229
" />
<path d="M112.2485 89.2779
L112.5073 88.3120
" />
<path d="M112.5073 88.3120
L112.2774 88.2504
" />
<path d="M112.2774 88.2504
L112.1270 88.2594
" />
<path d="M112.1270 88.2594
L112.0104 88.3268
" />
<path d="M112.0104 88.3268
L111.9398 88.4064
" />
<path d="M111.9398 88.4064
L111.8445 88.5781
" />
<path d="M111.8445 88.5781
L111.8075 88.7161
" />
<path d="M111.8075 88.7161
L111.8042 88.9124
" />
<path d="M111.8042 88.9124
L111.8255 89.0167
" />
<path d="M111.8255 89.0167
L111.8929 89.1334
" />
<path d="M111.8929 89.1334
L112.0185 89.2163
" />
<path d="M112.0185 89.2163
L112.2485 89.2779
" />
</g><g transform="rotate(-15.000000 96.6301 80.3199)">
<text x="96.6301" y="80.8199"
textLength="2.9643" font-size="1.3333" lengthAdjust="spacingAndGlyphs"
text-anchor="middle" opacity="0">LED</text>
</g>
<g class="stroked-text"><desc>LED</desc>
<path d="M97.1333 80.9256
L97.5933 81.0489
" />
<path d="M97.5933 81.0489
L97.8521 80.0829
" />
<path d="M96.9469 80.3334
L96.6249 80.2471
" />
<path d="M96.3514 80.7161
L96.8113 80.8393
" />
<path d="M96.8113 80.8393
L97.0702 79.8734
" />
<path d="M97.0702 79.8734
L96.6102 79.7502
" />
<path d="M95.9374 80.6052
L96.1962 79.6393
" />
<path d="M96.1962 79.6393
L95.9662 79.5776
" />
<path d="M95.9662 79.5776
L95.8159 79.5866
" />
<path d="M95.8159 79.5866
L95.6993 79.6540
" />
<path d="M95.6993 79.6540
L95.6286 79.7337
" />
<path d="M95.6286 79.7337
L95.5333 79.9053
" />
<path d="M95.5333 79.9053
L95.4964 80.0433
" />
<path d="M95.4964 80.0433
L95.4931 80.2396
" />
<path d="M95.4931 80.2396
L95.5144 80.3439
" />
<path d="M95.5144 80.3439
L95.5818 80.4606
" />
<path d="M95.5818 80.4606
L95.7074 80.5436
" />
<path d="M95.7074 80.5436
L95.9374 80.6052
" />
</g><g transform="rotate(-15.000000 77.9693 80.4161)">
<text x="77.9693" y="80.9161"
textLength="2.9643" font-size="1.3333" lengthAdjust="spacingAndGlyphs"
text-anchor="middle" opacity="0">LED</text>
</g>
<g class="stroked-text"><desc>LED</desc>
<path d="M78.4726 81.0218
L78.9325 81.1450
" />
<path d="M78.9325 81.1450
L79.1914 80.1791
" />
<path d="M78.2862 80.4295
L77.9642 80.3433
" />
<path d="M77.6906 80.8122
L78.1506 80.9355
" />
<path d="M78.1506 80.9355
L78.4094 79.9696
" />
<path d="M78.4094 79.9696
L77.9495 79.8463
" />
<path d="M77.2767 80.7013
L77.5355 79.7354
" />
<path d="M77.5355 79.7354
L77.3055 79.6738
" />
<path d="M77.3055 79.6738
L77.1552 79.6828
" />
<path d="M77.1552 79.6828
L77.0385 79.7501
" />
<path d="M77.0385 79.7501
L76.9679 79.8298
" />
<path d="M76.9679 79.8298
L76.8726 80.0015
" />
<path d="M76.8726 80.0015
L76.8356 80.1395
" />
<path d="M76.8356 80.1395
L76.8323 80.3358
" />
<path d="M76.8323 80.3358
L76.8537 80.4401
" />
<path d="M76.8537 80.4401
L76.9210 80.5567
" />
<path d="M76.9210 80.5567
L77.0467 80.6397
" />
<path d="M77.0467 80.6397
L77.2767 80.7013
" />
</g><g transform="rotate(-15.000000 59.3325 80.4230)">
<text x="59.3325" y="80.9230"
textLength="2.9643" font-size="1.3333" lengthAdjust="spacingAndGlyphs"
text-anchor="middle" opacity="0">LED</text>
</g>
<g class="stroked-text"><desc>LED</desc>
<path d="M59.8358 81.0287
L60.2957 81.1519
" />
<path d="M60.2957 81.1519
L60.5545 80.1860
" />
<path d="M59.6494 80.4364
L59.3274 80.3502
" />
<path d="M59.0538 80.8192
L59.5138 80.9424
" />
<path d="M59.5138 80.9424
L59.7726 79.9765
" />
<path d="M59.7726 79.9765
L59.3126 79.8532
" />
<path d="M58.6399 80.7082
L58.8987 79.7423
" />
<path d="M58.8987 79.7423
L58.6687 79.6807
" />
<path d="M58.6687 79.6807
L58.5184 79.6897
" />
<path d="M58.5184 79.6897
L58.4017 79.7571
" />
<path d="M58.4017 79.7571
L58.3311 79.8367
" />
<path d="M58.3311 79.8367
L58.2358 80.0084
" />
<path d="M58.2358 80.0084
L58.1988 80.1464
" />
<path d="M58.1988 80.1464
L58.1955 80.3427
" />
<path d="M58.1955 80.3427
L58.2169 80.4470
" />
<path d="M58.2169 80.4470
L58.2842 80.5636
" />
<path d="M58.2842 80.5636
L58.4099 80.6466
" />
<path d="M58.4099 80.6466
L58.6399 80.7082
" />
</g><g transform="rotate(-15.000000 40.6718 80.5191)">
<text x="40.6718" y="81.0191"
textLength="2.9643" font-size="1.3333" lengthAdjust="spacingAndGlyphs"
text-anchor="middle" opacity="0">LED</text>
</g>
<g class="stroked-text"><desc>LED</desc>
<path d="M41.1750 81.1248
L41.6350 81.2481
" />
<path d="M41.6350 81.2481
L41.8938 80.2821
" />
<path d="M40.9886 80.5326
L40.6666 80.4463
" />
<path d="M40.3931 80.9153
L40.8530 81.0386
" />
<path d="M40.8530 81.0386
L41.1119 80.0726
" />
<path d="M41.1119 80.0726
L40.6519 79.9494
" />
<path d="M39.9791 80.8044
L40.2379 79.8385
" />
<path d="M40.2379 79.8385
L40.0079 79.7768
" />
<path d="M40.0079 79.7768
L39.8576 79.7859
" />
<path d="M39.8576 79.7859
L39.7410 79.8532
" />
<path d="M39.7410 79.8532
L39.6703 79.9329
" />
<path d="M39.6703 79.9329
L39.5751 80.1045
" />
<path d="M39.5751 80.1045
L39.5381 80.2425
" />
<path d="M39.5381 80.2425
L39.5348 80.4388
" />
<path d="M39.5348 80.4388
L39.5561 80.5431
" />
<path d="M39.5561 80.5431
L39.6235 80.6598
" />
<path d="M39.6235 80.6598
L39.7491 80.7428
" />
<path d="M39.7491 80.7428
L39.9791 80.8044
" />
</g><g transform="rotate(-345.000000 252.2426 64.1395)">
<text x="252.2426" y="64.6395"
textLength="2.9643" font-size="1.3333" lengthAdjust="spacingAndGlyphs"
text-anchor="middle" opacity="0">LED</text>
</g>
<g class="stroked-text"><desc>LED</desc>
<path d="M252.9812 64.4124
L253.4412 64.2892
" />
<path d="M253.4412 64.2892
L253.1824 63.3233
" />
<path d="M252.5237 63.9928
L252.2017 64.0790
" />
<path d="M252.1993 64.6220
L252.6593 64.4987
" />
<path d="M252.6593 64.4987
L252.4004 63.5328
" />
<path d="M252.4004 63.5328
L251.9405 63.6560
" />
<path d="M251.7853 64.7329
L251.5265 63.7670
" />
<path d="M251.5265 63.7670
L251.2965 63.8286
" />
<path d="M251.2965 63.8286
L251.1709 63.9115
" />
<path d="M251.1709 63.9115
L251.1035 64.0282
" />
<path d="M251.1035 64.0282
L251.0822 64.1325
" />
<path d="M251.0822 64.1325
L251.0855 64.3288
" />
<path d="M251.0855 64.3288
L251.1224 64.4668
" />
<path d="M251.1224 64.4668
L251.2177 64.6385
" />
<path d="M251.2177 64.6385
L251.2884 64.7181
" />
<path d="M251.2884 64.7181
L251.4050 64.7855
" />
<path d="M251.4050 64.7855
L251.5553 64.7945
" />
<path d="M251.5553 64.7945
L251.7853 64.7329
" />
</g><g transform="rotate(-15.000000 120.4524 130.5066)">
<text x="120.4524" y="131.0066"
textLength="2.9643" font-size="1.3333" lengthAdjust="spacingAndGlyphs"
text-anchor="middle" opacity="0">LED</text>
</g>
<g class="stroked-text"><desc>LED</desc>
<path d="M120.9557 131.1123
L121.4156 131.2356
" />
<path d="M121.4156 131.2356
L121.6745 130.2696
" />
<path d="M120.7693 130.5201
L120.4473 130.4338
" />
<path d="M120.1737 130.9028
L120.6337 131.0260
" />
<path d="M120.6337 131.0260
L120.8925 130.0601
" />
<path d="M120.8925 130.0601
L120.4325 129.9369
" />
<path d="M119.7598 130.7919
L120.0186 129.8260
" />
<path d="M120.0186 129.8260
L119.7886 129.7643
" />
<path d="M119.7886 129.7643
L119.6383 129.7734
" />
<path d="M119.6383 129.7734
L119.5216 129.8407
" />
<path d="M119.5216 129.8407
L119.4510 129.9204
" />
<path d="M119.4510 129.9204
L119.3557 130.0920
" />
<path d="M119.3557 130.0920
L119.3187 130.2300
" />
<path d="M119.3187 130.2300
L119.3154 130.4263
" />
<path d="M119.3154 130.4263
L119.3368 130.5306
" />
<path d="M119.3368 130.5306
L119.4041 130.6473
" />
<path d="M119.4041 130.6473
L119.5298 130.7303
" />
<path d="M119.5298 130.7303
L119.7598 130.7919
" />
</g><g transform="rotate(-345.000000 233.5707 64.0018)">
<text x="233.5707" y="64.5018"
textLength="2.9643" font-size="1.3333" lengthAdjust="spacingAndGlyphs"
text-anchor="middle" opacity="0">LED</text>
</g>
<g class="stroked-text"><desc>LED</desc>
<path d="M234.3094 64.2748
L234.7693 64.1515
" />
<path d="M234.7693 64.1515
L234.5105 63.1856
" />
<path d="M233.8518 63.8551
L233.5299 63.9413
" />
<path d="M233.5274 64.4843
L233.9874 64.3610
" />
<path d="M233.9874 64.3610
L233.7286 63.3951
" />
<path d="M233.7286 63.3951
L233.2686 63.5184
" />
<path d="M233.1135 64.5952
L232.8546 63.6293
" />
<path d="M232.8546 63.6293
L232.6247 63.6909
" />
<path d="M232.6247 63.6909
L232.4990 63.7739
" />
<path d="M232.4990 63.7739
L232.4317 63.8905
" />
<path d="M232.4317 63.8905
L232.4103 63.9948
" />
<path d="M232.4103 63.9948
L232.4136 64.1911
" />
<path d="M232.4136 64.1911
L232.4506 64.3291
" />
<path d="M232.4506 64.3291
L232.5459 64.5008
" />
<path d="M232.5459 64.5008
L232.6165 64.5805
" />
<path d="M232.6165 64.5805
L232.7332 64.6478
" />
<path d="M232.7332 64.6478
L232.8835 64.6568
" />
<path d="M232.8835 64.6568
L233.1135 64.5952
" />
</g><g transform="rotate(-15.000000 45.0717 64.0984)">
<text x="45.0717" y="64.5984"
textLength="2.9643" font-size="1.3333" lengthAdjust="spacingAndGlyphs"
text-anchor="middle" opacity="0">LED</text>
</g>
<g class="stroked-text"><desc>LED</desc>
<path d="M45.5750 64.7041
L46.0349 64.8273
" />
<path d="M46.0349 64.8273
L46.2937 63.8614
" />
<path d="M45.3886 64.1118
L45.0666 64.0256
" />
<path d="M44.7930 64.4946
L45.2530 64.6178
" />
<path d="M45.2530 64.6178
L45.5118 63.6519
" />
<path d="M45.5118 63.6519
L45.0518 63.5286
" />
<path d="M44.3791 64.3836
L44.6379 63.4177
" />
<path d="M44.6379 63.4177
L44.4079 63.3561
" />
<path d="M44.4079 63.3561
L44.2576 63.3651
" />
<path d="M44.2576 63.3651
L44.1409 63.4325
" />
<path d="M44.1409 63.4325
L44.0703 63.5121
" />
<path d="M44.0703 63.5121
L43.9750 63.6838
" />
<path d="M43.9750 63.6838
L43.9380 63.8218
" />
<path d="M43.9380 63.8218
L43.9347 64.0181
" />
<path d="M43.9347 64.0181
L43.9561 64.1224
" />
<path d="M43.9561 64.1224
L44.0234 64.2390
" />
<path d="M44.0234 64.2390
L44.1491 64.3220
" />
<path d="M44.1491 64.3220
L44.3791 64.3836
" />
</g><g transform="rotate(-15.000000 117.3411 72.5719)">
<text x="117.3411" y="73.0719"
textLength="2.9643" font-size="1.3333" lengthAdjust="spacingAndGlyphs"
text-anchor="middle" opacity="0">LED</text>
</g>
<g class="stroked-text"><desc>LED</desc>
<path d="M117.8443 73.1777
L118.3043 73.3009
" />
<path d="M118.3043 73.3009
L118.5631 72.3350
" />
<path d="M117.6579 72.5854
L117.3360 72.4991
" />
<path d="M117.0624 72.9681
L117.5224 73.0914
" />
<path d="M117.5224 73.0914
L117.7812 72.1255
" />
<path d="M117.7812 72.1255
L117.3212 72.0022
" />
<path d="M116.6484 72.8572
L116.9073 71.8913
" />
<path d="M116.9073 71.8913
L116.6773 71.8297
" />
<path d="M116.6773 71.8297
L116.5270 71.8387
" />
<path d="M116.5270 71.8387
L116.4103 71.9060
" />
<path d="M116.4103 71.9060
L116.3397 71.9857
" />
<path d="M116.3397 71.9857
L116.2444 72.1574
" />
<path d="M116.2444 72.1574
L116.2074 72.2953
" />
<path d="M116.2074 72.2953
L116.2041 72.4917
" />
<path d="M116.2041 72.4917
L116.2254 72.5960
" />
<path d="M116.2254 72.5960
L116.2928 72.7126
" />
<path d="M116.2928 72.7126
L116.4185 72.7956
" />
<path d="M116.4185 72.7956
L116.6484 72.8572
" />
</g><g transform="rotate(-15.000000 101.0300 63.8992)">
<text x="101.0300" y="64.3992"
textLength="2.9643" font-size="1.3333" lengthAdjust="spacingAndGlyphs"
text-anchor="middle" opacity="0">LED</text>
</g>
<g class="stroked-text"><desc>LED</desc>
<path d="M101.5332 64.5049
L101.9932 64.6281
" />
<path d="M101.9932 64.6281
L102.2520 63.6622
" />
<path d="M101.3468 63.9126
L101.0249 63.8264
" />
<path d="M100.7513 64.2954
L101.2113 64.4186
" />
<path d="M101.2113 64.4186
L101.4701 63.4527
" />
<path d="M101.4701 63.4527
L101.0101 63.3294
" />
<path d="M100.3373 64.1844
L100.5961 63.2185
" />
<path d="M100.5961 63.2185
L100.3662 63.1569
" />
<path d="M100.3662 63.1569
L100.2159 63.1659
" />
<path d="M100.2159 63.1659
L100.0992 63.2333
" />
<path d="M100.0992 63.2333
L100.0286 63.3129
" />
<path d="M100.0286 63.3129
L99.9333 63.4846
" />
<path d="M99.9333 63.4846
L99.8963 63.6226
" />
<path d="M99.8963 63.6226
L99.8930 63.8189
" />
<path d="M99.8930 63.8189
L99.9143 63.9232
" />
<path d="M99.9143 63.9232
L99.9817 64.0398
" />
<path d="M99.9817 64.0398
L100.1073 64.1228
" />
<path d="M100.1073 64.1228
L100.3373 64.1844
" />
</g><g transform="rotate(-345.000000 179.9622 72.5719)">
<text x="179.9622" y="73.0719"
textLength="2.9643" font-size="1.3333" lengthAdjust="spacingAndGlyphs"
text-anchor="middle" opacity="0">LED</text>
</g>
<g class="stroked-text"><desc>LED</desc>
<path d="M180.7008 72.8449
L181.1608 72.7216
" />
<path d="M181.1608 72.7216
L180.9020 71.7557
" />
<path d="M180.2433 72.4252
L179.9213 72.5115
" />
<path d="M179.9189 73.0544
L180.3788 72.9312
" />
<path d="M180.3788 72.9312
L180.1200 71.9652
" />
<path d="M180.1200 71.9652
L179.6601 72.0885
" />
<path d="M179.5049 73.1653
L179.2461 72.1994
" />
<path d="M179.2461 72.1994
L179.0161 72.2610
" />
<path d="M179.0161 72.2610
L178.8904 72.3440
" />
<path d="M178.8904 72.3440
L178.8231 72.4606
" />
<path d="M178.8231 72.4606
L178.8018 72.5650
" />
<path d="M178.8018 72.5650
L178.8051 72.7613
" />
<path d="M178.8051 72.7613
L178.8420 72.8993
" />
<path d="M178.8420 72.8993
L178.9373 73.0709
" />
<path d="M178.9373 73.0709
L179.0080 73.1506
" />
<path d="M179.0080 73.1506
L179.1246 73.2179
" />
<path d="M179.1246 73.2179
L179.2749 73.2269
" />
<path d="M179.2749 73.2269
L179.5049 73.1653
" />
</g><g transform="rotate(-345.000000 172.4509 114.0862)">
<text x="172.4509" y="114.5862"
textLength="2.9643" font-size="1.3333" lengthAdjust="spacingAndGlyphs"
text-anchor="middle" opacity="0">LED</text>
</g>
<g class="stroked-text"><desc>LED</desc>
<path d="M173.1896 114.3591
L173.6495 114.2359
" />
<path d="M173.6495 114.2359
L173.3907 113.2700
" />
<path d="M172.7320 113.9394
L172.4100 114.0257
" />
<path d="M172.4076 114.5687
L172.8676 114.4454
" />
<path d="M172.8676 114.4454
L172.6088 113.4795
" />
<path d="M172.6088 113.4795
L172.1488 113.6027
" />
<path d="M171.9937 114.6796
L171.7348 113.7136
" />
<path d="M171.7348 113.7136
L171.5049 113.7753
" />
<path d="M171.5049 113.7753
L171.3792 113.8582
" />
<path d="M171.3792 113.8582
L171.3118 113.9749
" />
<path d="M171.3118 113.9749
L171.2905 114.0792
" />
<path d="M171.2905 114.0792
L171.2938 114.2755
" />
<path d="M171.2938 114.2755
L171.3308 114.4135
" />
<path d="M171.3308 114.4135
L171.4261 114.5852
" />
<path d="M171.4261 114.5852
L171.4967 114.6648
" />
<path d="M171.4967 114.6648
L171.6134 114.7322
" />
<path d="M171.6134 114.7322
L171.7637 114.7412
" />
<path d="M171.7637 114.7412
L171.9937 114.6796
" />
</g><g transform="rotate(-15.000000 63.7324 64.0022)">
<text x="63.7324" y="64.5022"
textLength="2.9643" font-size="1.3333" lengthAdjust="spacingAndGlyphs"
text-anchor="middle" opacity="0">LED</text>
</g>
<g class="stroked-text"><desc>LED</desc>
<path d="M64.2357 64.6079
L64.6956 64.7312
" />
<path d="M64.6956 64.7312
L64.9545 63.7653
" />
<path d="M64.0493 64.0157
L63.7273 63.9294
" />
<path d="M63.4537 64.3984
L63.9137 64.5217
" />
<path d="M63.9137 64.5217
L64.1725 63.5557
" />
<path d="M64.1725 63.5557
L63.7126 63.4325
" />
<path d="M63.0398 64.2875
L63.2986 63.3216
" />
<path d="M63.2986 63.3216
L63.0686 63.2599
" />
<path d="M63.0686 63.2599
L62.9183 63.2690
" />
<path d="M62.9183 63.2690
L62.8016 63.3363
" />
<path d="M62.8016 63.3363
L62.7310 63.4160
" />
<path d="M62.7310 63.4160
L62.6357 63.5876
" />
<path d="M62.6357 63.5876
L62.5987 63.7256
" />
<path d="M62.5987 63.7256
L62.5954 63.9219
" />
<path d="M62.5954 63.9219
L62.6168 64.0263
" />
<path d="M62.6168 64.0263
L62.6841 64.1429
" />
<path d="M62.6841 64.1429
L62.8098 64.2259
" />
<path d="M62.8098 64.2259
L63.0398 64.2875
" />
</g><g transform="rotate(-345.000000 214.9340 63.9953)">
<text x="214.9340" y="64.4953"
textLength="2.9643" font-size="1.3333" lengthAdjust="spacingAndGlyphs"
text-anchor="middle" opacity="0">LED</text>
</g>
<g class="stroked-text"><desc>LED</desc>
<path d="M215.6727 64.2683
L216.1326 64.1450
" />
<path d="M216.1326 64.1450
L215.8738 63.1791
" />
<path d="M215.2151 63.8486
L214.8931 63.9348
" />
<path d="M214.8907 64.4778
L215.3507 64.3545
" />
<path d="M215.3507 64.3545
L215.0919 63.3886
" />
<path d="M215.0919 63.3886
L214.6319 63.5119
" />
<path d="M214.4768 64.5887
L214.2179 63.6228
" />
<path d="M214.2179 63.6228
L213.9880 63.6844
" />
<path d="M213.9880 63.6844
L213.8623 63.7674
" />
<path d="M213.8623 63.7674
L213.7950 63.8840
" />
<path d="M213.7950 63.8840
L213.7736 63.9883
" />
<path d="M213.7736 63.9883
L213.7769 64.1846
" />
<path d="M213.7769 64.1846
L213.8139 64.3226
" />
<path d="M213.8139 64.3226
L213.9092 64.4943
" />
<path d="M213.9092 64.4943
L213.9798 64.5740
" />
<path d="M213.9798 64.5740
L214.0965 64.6413
" />
<path d="M214.0965 64.6413
L214.2468 64.6503
" />
<path d="M214.2468 64.6503
L214.4768 64.5887
" />
</g><g transform="rotate(-345.000000 196.2733 63.8992)">
<text x="196.2733" y="64.3992"
textLength="2.9643" font-size="1.3333" lengthAdjust="spacingAndGlyphs"
text-anchor="middle" opacity="0">LED</text>
</g>
<g class="stroked-text"><desc>LED</desc>
<path d="M197.0119 64.1721
L197.4719 64.0489
" />
<path d="M197.4719 64.0489
L197.2131 63.0829
" />
<path d="M196.5544 63.7524
L196.2324 63.8387
" />
<path d="M196.2300 64.3816
L196.6900 64.2584
" />
<path d="M196.6900 64.2584
L196.4311 63.2925
" />
<path d="M196.4311 63.2925
L195.9712 63.4157
" />
<path d="M195.8160 64.4926
L195.5572 63.5266
" />
<path d="M195.5572 63.5266
L195.3272 63.5883
" />
<path d="M195.3272 63.5883
L195.2016 63.6712
" />
<path d="M195.2016 63.6712
L195.1342 63.7879
" />
<path d="M195.1342 63.7879
L195.1129 63.8922
" />
<path d="M195.1129 63.8922
L195.1162 64.0885
" />
<path d="M195.1162 64.0885
L195.1531 64.2265
" />
<path d="M195.1531 64.2265
L195.2484 64.3982
" />
<path d="M195.2484 64.3982
L195.3191 64.4778
" />
<path d="M195.3191 64.4778
L195.4357 64.5452
" />
<path d="M195.4357 64.5452
L195.5860 64.5542
" />
<path d="M195.5860 64.5542
L195.8160 64.4926
" />
</g><g transform="rotate(-345.000000 261.0424 96.9810)">
<text x="261.0424" y="97.4810"
textLength="2.9643" font-size="1.3333" lengthAdjust="spacingAndGlyphs"
text-anchor="middle" opacity="0">LED</text>
</g>
<g class="stroked-text"><desc>LED</desc>
<path d="M261.7811 97.2539
L262.2411 97.1307
" />
<path d="M262.2411 97.1307
L261.9822 96.1648
" />
<path d="M261.3235 96.8342
L261.0016 96.9205
" />
<path d="M260.9992 97.4634
L261.4591 97.3402
" />
<path d="M261.4591 97.3402
L261.2003 96.3743
" />
<path d="M261.2003 96.3743
L260.7403 96.4975
" />
<path d="M260.5852 97.5744
L260.3264 96.6084
" />
<path d="M260.3264 96.6084
L260.0964 96.6701
" />
<path d="M260.0964 96.6701
L259.9707 96.7530
" />
<path d="M259.9707 96.7530
L259.9034 96.8697
" />
<path d="M259.9034 96.8697
L259.8820 96.9740
" />
<path d="M259.8820 96.9740
L259.8853 97.1703
" />
<path d="M259.8853 97.1703
L259.9223 97.3083
" />
<path d="M259.9223 97.3083
L260.0176 97.4800
" />
<path d="M260.0176 97.4800
L260.0882 97.5596
" />
<path d="M260.0882 97.5596
L260.2049 97.6270
" />
<path d="M260.2049 97.6270
L260.3552 97.6360
" />
<path d="M260.3552 97.6360
L260.5852 97.5744
" />
</g><g transform="rotate(-345.000000 242.3706 96.8433)">
<text x="242.3706" y="97.3433"
textLength="2.9643" font-size="1.3333" lengthAdjust="spacingAndGlyphs"
text-anchor="middle" opacity="0">LED</text>
</g>
<g class="stroked-text"><desc>LED</desc>
<path d="M243.1092 97.1162
L243.5692 96.9930
" />
<path d="M243.5692 96.9930
L243.3104 96.0271
" />
<path d="M242.6517 96.6965
L242.3297 96.7828
" />
<path d="M242.3273 97.3258
L242.7873 97.2025
" />
<path d="M242.7873 97.2025
L242.5284 96.2366
" />
<path d="M242.5284 96.2366
L242.0685 96.3598
" />
<path d="M241.9133 97.4367
L241.6545 96.4708
" />
<path d="M241.6545 96.4708
L241.4245 96.5324
" />
<path d="M241.4245 96.5324
L241.2989 96.6153
" />
<path d="M241.2989 96.6153
L241.2315 96.7320
" />
<path d="M241.2315 96.7320
L241.2102 96.8363
" />
<path d="M241.2102 96.8363
L241.2135 97.0326
" />
<path d="M241.2135 97.0326
L241.2504 97.1706
" />
<path d="M241.2504 97.1706
L241.3457 97.3423
" />
<path d="M241.3457 97.3423
L241.4164 97.4219
" />
<path d="M241.4164 97.4219
L241.5330 97.4893
" />
<path d="M241.5330 97.4893
L241.6833 97.4983
" />
<path d="M241.6833 97.4983
L241.9133 97.4367
" />
</g><g transform="rotate(-345.000000 223.7338 96.8368)">
<text x="223.7338" y="97.3368"
textLength="2.9643" font-size="1.3333" lengthAdjust="spacingAndGlyphs"
text-anchor="middle" opacity="0">LED</text>
</g>
<g class="stroked-text"><desc>LED</desc>
<path d="M224.4725 97.1097
L224.9325 96.9865
" />
<path d="M224.9325 96.9865
L224.6737 96.0206
" />
<path d="M224.0150 96.6901
L223.6930 96.7763
" />
<path d="M223.6906 97.3193
L224.1505 97.1960
" />
<path d="M224.1505 97.1960
L223.8917 96.2301
" />
<path d="M223.8917 96.2301
L223.4318 96.3533
" />
<path d="M223.2766 97.4302
L223.0178 96.4643
" />
<path d="M223.0178 96.4643
L222.7878 96.5259
" />
<path d="M222.7878 96.5259
L222.6621 96.6089
" />
<path d="M222.6621 96.6089
L222.5948 96.7255
" />
<path d="M222.5948 96.7255
L222.5734 96.8298
" />
<path d="M222.5734 96.8298
L222.5767 97.0261
" />
<path d="M222.5767 97.0261
L222.6137 97.1641
" />
<path d="M222.6137 97.1641
L222.7090 97.3358
" />
<path d="M222.7090 97.3358
L222.7797 97.4154
" />
<path d="M222.7797 97.4154
L222.8963 97.4828
" />
<path d="M222.8963 97.4828
L223.0466 97.4918
" />
<path d="M223.0466 97.4918
L223.2766 97.4302
" />
</g><g transform="rotate(-345.000000 205.0731 96.7407)">
<text x="205.0731" y="97.2407"
textLength="2.9643" font-size="1.3333" lengthAdjust="spacingAndGlyphs"
text-anchor="middle" opacity="0">LED</text>
</g>
<g class="stroked-text"><desc>LED</desc>
<path d="M205.8118 97.0136
L206.2717 96.8904
" />
<path d="M206.2717 96.8904
L206.0129 95.9244
" />
<path d="M205.3542 96.5939
L205.0323 96.6802
" />
<path d="M205.0298 97.2231
L205.4898 97.0999
" />
<path d="M205.4898 97.0999
L205.2310 96.1339
" />
<path d="M205.2310 96.1339
L204.7710 96.2572
" />
<path d="M204.6159 97.3340
L204.3570 96.3681
" />
<path d="M204.3570 96.3681
L204.1271 96.4297
" />
<path d="M204.1271 96.4297
L204.0014 96.5127
" />
<path d="M204.0014 96.5127
L203.9341 96.6294
" />
<path d="M203.9341 96.6294
L203.9127 96.7337
" />
<path d="M203.9127 96.7337
L203.9160 96.9300
" />
<path d="M203.9160 96.9300
L203.9530 97.0680
" />
<path d="M203.9530 97.0680
L204.0483 97.2396
" />
<path d="M204.0483 97.2396
L204.1189 97.3193
" />
<path d="M204.1189 97.3193
L204.2356 97.3866
" />
<path d="M204.2356 97.3866
L204.3859 97.3957
" />
<path d="M204.3859 97.3957
L204.6159 97.3340
" />
</g><g transform="rotate(-345.000000 188.7620 105.4134)">
<text x="188.7620" y="105.9134"
textLength="2.9643" font-size="1.3333" lengthAdjust="spacingAndGlyphs"
text-anchor="middle" opacity="0">LED</text>
</g>
<g class="stroked-text"><desc>LED</desc>
<path d="M189.5007 105.6864
L189.9606 105.5631
" />
<path d="M189.9606 105.5631
L189.7018 104.5972
" />
<path d="M189.0431 105.2667
L188.7211 105.3529
" />
<path d="M188.7187 105.8959
L189.1787 105.7726
" />
<path d="M189.1787 105.7726
L188.9199 104.8067
" />
<path d="M188.9199 104.8067
L188.4599 104.9299
" />
<path d="M188.3048 106.0068
L188.0459 105.0409
" />
<path d="M188.0459 105.0409
L187.8160 105.1025
" />
<path d="M187.8160 105.1025
L187.6903 105.1855
" />
<path d="M187.6903 105.1855
L187.6229 105.3021
" />
<path d="M187.6229 105.3021
L187.6016 105.4064
" />
<path d="M187.6016 105.4064
L187.6049 105.6027
" />
<path d="M187.6049 105.6027
L187.6419 105.7407
" />
<path d="M187.6419 105.7407
L187.7372 105.9124
" />
<path d="M187.7372 105.9124
L187.8078 105.9921
" />
<path d="M187.8078 105.9921
L187.9245 106.0594
" />
<path d="M187.9245 106.0594
L188.0748 106.0684
" />
<path d="M188.0748 106.0684
L188.3048 106.0068
" />
</g><g transform="rotate(-15.000000 124.8524 114.0862)">
<text x="124.8524" y="114.5862"
textLength="2.9643" font-size="1.3333" lengthAdjust="spacingAndGlyphs"
text-anchor="middle" opacity="0">LED</text>
</g>
<g class="stroked-text"><desc>LED</desc>
<path d="M125.3556 114.6919
L125.8156 114.8152
" />
<path d="M125.8156 114.8152
L126.0744 113.8492
" />
<path d="M125.1692 114.0997
L124.8472 114.0134
" />
<path d="M124.5737 114.4824
L125.0336 114.6056
" />
<path d="M125.0336 114.6056
L125.2924 113.6397
" />
<path d="M125.2924 113.6397
L124.8325 113.5165
" />
<path d="M124.1597 114.3715
L124.4185 113.4055
" />
<path d="M124.4185 113.4055
L124.1885 113.3439
" />
<path d="M124.1885 113.3439
L124.0382 113.3529
" />
<path d="M124.0382 113.3529
L123.9216 113.4203
" />
<path d="M123.9216 113.4203
L123.8509 113.4999
" />
<path d="M123.8509 113.4999
L123.7556 113.6716
" />
<path d="M123.7556 113.6716
L123.7187 113.8096
" />
<path d="M123.7187 113.8096
L123.7154 114.0059
" />
<path d="M123.7154 114.0059
L123.7367 114.1102
" />
<path d="M123.7367 114.1102
L123.8040 114.2269
" />
<path d="M123.8040 114.2269
L123.9297 114.3098
" />
<path d="M123.9297 114.3098
L124.1597 114.3715
" />
</g><g transform="rotate(-15.000000 108.5413 105.4134)">
<text x="108.5413" y="105.9134"
textLength="2.9643" font-size="1.3333" lengthAdjust="spacingAndGlyphs"
text-anchor="middle" opacity="0">LED</text>
</g>
<g class="stroked-text"><desc>LED</desc>
<path d="M109.0445 106.0191
L109.5045 106.1424
" />
<path d="M109.5045 106.1424
L109.7633 105.1765
" />
<path d="M108.8581 105.4269
L108.5361 105.3406
" />
<path d="M108.2626 105.8096
L108.7225 105.9329
" />
<path d="M108.7225 105.9329
L108.9813 104.9669
" />
<path d="M108.9813 104.9669
L108.5214 104.8437
" />
<path d="M107.8486 105.6987
L108.1074 104.7328
" />
<path d="M108.1074 104.7328
L107.8774 104.6711
" />
<path d="M107.8774 104.6711
L107.7271 104.6802
" />
<path d="M107.7271 104.6802
L107.6105 104.7475
" />
<path d="M107.6105 104.7475
L107.5398 104.8272
" />
<path d="M107.5398 104.8272
L107.4445 104.9988
" />
<path d="M107.4445 104.9988
L107.4076 105.1368
" />
<path d="M107.4076 105.1368
L107.4043 105.3331
" />
<path d="M107.4043 105.3331
L107.4256 105.4375
" />
<path d="M107.4256 105.4375
L107.4929 105.5541
" />
<path d="M107.4929 105.5541
L107.6186 105.6371
" />
<path d="M107.6186 105.6371
L107.8486 105.6987
" />
</g><g transform="rotate(-15.000000 82.3693 63.9953)">
<text x="82.3693" y="64.4953"
textLength="2.9643" font-size="1.3333" lengthAdjust="spacingAndGlyphs"
text-anchor="middle" opacity="0">LED</text>
</g>
<g class="stroked-text"><desc>LED</desc>
<path d="M82.8725 64.6010
L83.3325 64.7243
" />
<path d="M83.3325 64.7243
L83.5913 63.7584
" />
<path d="M82.6861 64.0088
L82.3641 63.9225
" />
<path d="M82.0906 64.3915
L82.5505 64.5148
" />
<path d="M82.5505 64.5148
L82.8093 63.5488
" />
<path d="M82.8093 63.5488
L82.3494 63.4256
" />
<path d="M81.6766 64.2806
L81.9354 63.3147
" />
<path d="M81.9354 63.3147
L81.7054 63.2530
" />
<path d="M81.7054 63.2530
L81.5551 63.2621
" />
<path d="M81.5551 63.2621
L81.4385 63.3294
" />
<path d="M81.4385 63.3294
L81.3678 63.4091
" />
<path d="M81.3678 63.4091
L81.2725 63.5807
" />
<path d="M81.2725 63.5807
L81.2356 63.7187
" />
<path d="M81.2356 63.7187
L81.2323 63.9150
" />
<path d="M81.2323 63.9150
L81.2536 64.0194
" />
<path d="M81.2536 64.0194
L81.3209 64.1360
" />
<path d="M81.3209 64.1360
L81.4466 64.2190
" />
<path d="M81.4466 64.2190
L81.6766 64.2806
" />
</g><g transform="rotate(-15.000000 133.6522 81.2447)">
<text x="133.6522" y="81.7447"
textLength="2.9643" font-size="1.3333" lengthAdjust="spacingAndGlyphs"
text-anchor="middle" opacity="0">LED</text>
</g>
<g class="stroked-text"><desc>LED</desc>
<path d="M134.1555 81.8504
L134.6154 81.9737
" />
<path d="M134.6154 81.9737
L134.8742 81.0077
" />
<path d="M133.9690 81.2582
L133.6471 81.1719
" />
<path d="M133.3735 81.6409
L133.8335 81.7642
" />
<path d="M133.8335 81.7642
L134.0923 80.7982
" />
<path d="M134.0923 80.7982
L133.6323 80.6750
" />
<path d="M132.9595 81.5300
L133.2184 80.5641
" />
<path d="M133.2184 80.5641
L132.9884 80.5024
" />
<path d="M132.9884 80.5024
L132.8381 80.5115
" />
<path d="M132.8381 80.5115
L132.7214 80.5788
" />
<path d="M132.7214 80.5788
L132.6508 80.6585
" />
<path d="M132.6508 80.6585
L132.5555 80.8301
" />
<path d="M132.5555 80.8301
L132.5185 80.9681
" />
<path d="M132.5185 80.9681
L132.5152 81.1644
" />
<path d="M132.5152 81.1644
L132.5366 81.2687
" />
<path d="M132.5366 81.2687
L132.6039 81.3854
" />
<path d="M132.6039 81.3854
L132.7296 81.4684
" />
<path d="M132.7296 81.4684
L132.9595 81.5300
" />
</g><text x="100.5654" y="123.6507"
textLength="2.9643" font-size="1.3333" lengthAdjust="spacingAndGlyphs"
text-anchor="middle" opacity="0">LED</text>
<g class="stroked-text"><desc>LED</desc>
<path d="M101.2082 123.6055
L101.6844 123.6055
" />
<path d="M101.6844 123.6055
L101.6844 122.6055
" />
<path d="M100.8749 123.0817
L100.5416 123.0817
" />
<path d="M100.3987 123.6055
L100.8749 123.6055
" />
<path d="M100.8749 123.6055
L100.8749 122.6055
" />
<path d="M100.8749 122.6055
L100.3987 122.6055
" />
<path d="M99.9701 123.6055
L99.9701 122.6055
" />
<path d="M99.9701 122.6055
L99.7321 122.6055
" />
<path d="M99.7321 122.6055
L99.5892 122.6531
" />
<path d="M99.5892 122.6531
L99.4940 122.7483
" />
<path d="M99.4940 122.7483
L99.4463 122.8436
" />
<path d="M99.4463 122.8436
L99.3987 123.0341
" />
<path d="M99.3987 123.0341
L99.3987 123.1769
" />
<path d="M99.3987 123.1769
L99.4463 123.3674
" />
<path d="M99.4463 123.3674
L99.4940 123.4626
" />
<path d="M99.4940 123.4626
L99.5892 123.5579
" />
<path d="M99.5892 123.5579
L99.7321 123.6055
" />
<path d="M99.7321 123.6055
L99.9701 123.6055
" />
</g><g transform="rotate(-345.000000 176.8508 130.5069)">
<text x="176.8508" y="131.0069"
textLength="2.9643" font-size="1.3333" lengthAdjust="spacingAndGlyphs"
text-anchor="middle" opacity="0">LED</text>
</g>
<g class="stroked-text"><desc>LED</desc>
<path d="M177.5895 130.7799
L178.0494 130.6566
" />
<path d="M178.0494 130.6566
L177.7906 129.6907
" />
<path d="M177.1319 130.3602
L176.8100 130.4465
" />
<path d="M176.8075 130.9894
L177.2675 130.8661
" />
<path d="M177.2675 130.8661
L177.0087 129.9002
" />
<path d="M177.0087 129.9002
L176.5487 130.0235
" />
<path d="M176.3936 131.1003
L176.1348 130.1344
" />
<path d="M176.1348 130.1344
L175.9048 130.1960
" />
<path d="M175.9048 130.1960
L175.7791 130.2790
" />
<path d="M175.7791 130.2790
L175.7118 130.3956
" />
<path d="M175.7118 130.3956
L175.6904 130.4999
" />
<path d="M175.6904 130.4999
L175.6937 130.6963
" />
<path d="M175.6937 130.6963
L175.7307 130.8342
" />
<path d="M175.7307 130.8342
L175.8260 131.0059
" />
<path d="M175.8260 131.0059
L175.8966 131.0856
" />
<path d="M175.8966 131.0856
L176.0133 131.1529
" />
<path d="M176.0133 131.1529
L176.1636 131.1619
" />
<path d="M176.1636 131.1619
L176.3936 131.1003
" />
</g><text x="196.7376" y="123.6510"
textLength="2.9643" font-size="1.3333" lengthAdjust="spacingAndGlyphs"
text-anchor="middle" opacity="0">LED</text>
<g class="stroked-text"><desc>LED</desc>
<path d="M197.3805 123.6058
L197.8567 123.6058
" />
<path d="M197.8567 123.6058
L197.8567 122.6058
" />
<path d="M197.0472 123.0820
L196.7138 123.0820
" />
<path d="M196.5710 123.6058
L197.0472 123.6058
" />
<path d="M197.0472 123.6058
L197.0472 122.6058
" />
<path d="M197.0472 122.6058
L196.5710 122.6058
" />
<path d="M196.1424 123.6058
L196.1424 122.6058
" />
<path d="M196.1424 122.6058
L195.9043 122.6058
" />
<path d="M195.9043 122.6058
L195.7614 122.6534
" />
<path d="M195.7614 122.6534
L195.6662 122.7487
" />
<path d="M195.6662 122.7487
L195.6186 122.8439
" />
<path d="M195.6186 122.8439
L195.5710 123.0344
" />
<path d="M195.5710 123.0344
L195.5710 123.1772
" />
<path d="M195.5710 123.1772
L195.6186 123.3677
" />
<path d="M195.6186 123.3677
L195.6662 123.4630
" />
<path d="M195.6662 123.4630
L195.7614 123.5582
" />
<path d="M195.7614 123.5582
L195.9043 123.6058
" />
<path d="M195.9043 123.6058
L196.1424 123.6058
" />
</g><text x="157.6516" y="133.6245"
textLength="2.9643" font-size="1.3333" lengthAdjust="spacingAndGlyphs"
text-anchor="middle" opacity="0">LED</text>
<g class="stroked-text"><desc>LED</desc>
<path d="M158.2945 133.5793
L158.7707 133.5793
" />
<path d="M158.7707 133.5793
L158.7707 132.5793
" />
<path d="M157.9612 133.0555
L157.6278 133.0555
" />
<path d="M157.4850 133.5793
L157.9612 133.5793
" />
<path d="M157.9612 133.5793
L157.9612 132.5793
" />
<path d="M157.9612 132.5793
L157.4850 132.5793
" />
<path d="M157.0564 133.5793
L157.0564 132.5793
" />
<path d="M157.0564 132.5793
L156.8183 132.5793
" />
<path d="M156.8183 132.5793
L156.6754 132.6270
" />
<path d="M156.6754 132.6270
L156.5802 132.7222
" />
<path d="M156.5802 132.7222
L156.5326 132.8174
" />
<path d="M156.5326 132.8174
L156.4850 133.0079
" />
<path d="M156.4850 133.0079
L156.4850 133.1508
" />
<path d="M156.4850 133.1508
L156.5326 133.3413
" />
<path d="M156.5326 133.3413
L156.5802 133.4365
" />
<path d="M156.5802 133.4365
L156.6754 133.5317
" />
<path d="M156.6754 133.5317
L156.8183 133.5793
" />
<path d="M156.8183 133.5793
L157.0564 133.5793
" />
</g><text x="82.5650" y="118.1685"
textLength="2.9643" font-size="1.3333" lengthAdjust="spacingAndGlyphs"
text-anchor="middle" opacity="0">LED</text>
<g class="stroked-text"><desc>LED</desc>
<path d="M83.2079 118.1233
L83.6841 118.1233
" />
<path d="M83.6841 118.1233
L83.6841 117.1233
" />
<path d="M82.8746 117.5995
L82.5412 117.5995
" />
<path d="M82.3984 118.1233
L82.8746 118.1233
" />
<path d="M82.8746 118.1233
L82.8746 117.1233
" />
<path d="M82.8746 117.1233
L82.3984 117.1233
" />
<path d="M81.9698 118.1233
L81.9698 117.1233
" />
<path d="M81.9698 117.1233
L81.7317 117.1233
" />
<path d="M81.7317 117.1233
L81.5888 117.1709
" />
<path d="M81.5888 117.1709
L81.4936 117.2662
" />
<path d="M81.4936 117.2662
L81.4460 117.3614
" />
<path d="M81.4460 117.3614
L81.3984 117.5519
" />
<path d="M81.3984 117.5519
L81.3984 117.6947
" />
<path d="M81.3984 117.6947
L81.4460 117.8852
" />
<path d="M81.4460 117.8852
L81.4936 117.9805
" />
<path d="M81.4936 117.9805
L81.5888 118.0757
" />
<path d="M81.5888 118.0757
L81.7317 118.1233
" />
<path d="M81.7317 118.1233
L81.9698 118.1233
" />
</g><g transform="rotate(-15.000000 68.1324 47.5815)">
<text x="68.1324" y="48.0815"
textLength="2.9643" font-size="1.3333" lengthAdjust="spacingAndGlyphs"
text-anchor="middle" opacity="0">LED</text>
</g>
<g class="stroked-text"><desc>LED</desc>
<path d="M68.6356 48.1872
L69.0956 48.3104
" />
<path d="M69.0956 48.3104
L69.3544 47.3445
" />
<path d="M68.4492 47.5949
L68.1272 47.5087
" />
<path d="M67.8537 47.9777
L68.3136 48.1009
" />
<path d="M68.3136 48.1009
L68.5725 47.1350
" />
<path d="M68.5725 47.1350
L68.1125 47.0117
" />
<path d="M67.4397 47.8667
L67.6985 46.9008
" />
<path d="M67.6985 46.9008
L67.4685 46.8392
" />
<path d="M67.4685 46.8392
L67.3182 46.8482
" />
<path d="M67.3182 46.8482
L67.2016 46.9156
" />
<path d="M67.2016 46.9156
L67.1309 46.9952
" />
<path d="M67.1309 46.9952
L67.0356 47.1669
" />
<path d="M67.0356 47.1669
L66.9987 47.3049
" />
<path d="M66.9987 47.3049
L66.9954 47.5012
" />
<path d="M66.9954 47.5012
L67.0167 47.6055
" />
<path d="M67.0167 47.6055
L67.0841 47.7221
" />
<path d="M67.0841 47.7221
L67.2097 47.8051
" />
<path d="M67.2097 47.8051
L67.4397 47.8667
" />
</g><g transform="rotate(-15.000000 49.4716 47.6776)">
<text x="49.4716" y="48.1776"
textLength="2.9643" font-size="1.3333" lengthAdjust="spacingAndGlyphs"
text-anchor="middle" opacity="0">LED</text>
</g>
<g class="stroked-text"><desc>LED</desc>
<path d="M49.9748 48.2833
L50.4348 48.4066
" />
<path d="M50.4348 48.4066
L50.6936 47.4407
" />
<path d="M49.7884 47.6911
L49.4665 47.6048
" />
<path d="M49.1929 48.0738
L49.6529 48.1971
" />
<path d="M49.6529 48.1971
L49.9117 47.2311
" />
<path d="M49.9117 47.2311
L49.4517 47.1079
" />
<path d="M48.7789 47.9629
L49.0378 46.9970
" />
<path d="M49.0378 46.9970
L48.8078 46.9353
" />
<path d="M48.8078 46.9353
L48.6575 46.9444
" />
<path d="M48.6575 46.9444
L48.5408 47.0117
" />
<path d="M48.5408 47.0117
L48.4702 47.0914
" />
<path d="M48.4702 47.0914
L48.3749 47.2630
" />
<path d="M48.3749 47.2630
L48.3379 47.4010
" />
<path d="M48.3379 47.4010
L48.3346 47.5973
" />
<path d="M48.3346 47.5973
L48.3559 47.7017
" />
<path d="M48.3559 47.7017
L48.4233 47.8183
" />
<path d="M48.4233 47.8183
L48.5490 47.9013
" />
<path d="M48.5490 47.9013
L48.7789 47.9629
" />
</g><g transform="rotate(-345.000000 210.5341 47.5746)">
<text x="210.5341" y="48.0746"
textLength="2.9643" font-size="1.3333" lengthAdjust="spacingAndGlyphs"
text-anchor="middle" opacity="0">LED</text>
</g>
<g class="stroked-text"><desc>LED</desc>
<path d="M211.2727 47.8475
L211.7327 47.7242
" />
<path d="M211.7327 47.7242
L211.4739 46.7583
" />
<path d="M210.8152 47.4278
L210.4932 47.5141
" />
<path d="M210.4908 48.0570
L210.9508 47.9338
" />
<path d="M210.9508 47.9338
L210.6919 46.9678
" />
<path d="M210.6919 46.9678
L210.2320 47.0911
" />
<path d="M210.0768 48.1679
L209.8180 47.2020
" />
<path d="M209.8180 47.2020
L209.5880 47.2636
" />
<path d="M209.5880 47.2636
L209.4624 47.3466
" />
<path d="M209.4624 47.3466
L209.3950 47.4632
" />
<path d="M209.3950 47.4632
L209.3737 47.5676
" />
<path d="M209.3737 47.5676
L209.3770 47.7639
" />
<path d="M209.3770 47.7639
L209.4139 47.9019
" />
<path d="M209.4139 47.9019
L209.5092 48.0735
" />
<path d="M209.5092 48.0735
L209.5799 48.1532
" />
<path d="M209.5799 48.1532
L209.6965 48.2205
" />
<path d="M209.6965 48.2205
L209.8468 48.2296
" />
<path d="M209.8468 48.2296
L210.0768 48.1679
" />
</g><text x="214.7376" y="118.1690"
textLength="2.9643" font-size="1.3333" lengthAdjust="spacingAndGlyphs"
text-anchor="middle" opacity="0">LED</text>
<g class="stroked-text"><desc>LED</desc>
<path d="M215.3805 118.1238
L215.8567 118.1238
" />
<path d="M215.8567 118.1238
L215.8567 117.1238
" />
<path d="M215.0472 117.6000
L214.7138 117.6000
" />
<path d="M214.5710 118.1238
L215.0472 118.1238
" />
<path d="M215.0472 118.1238
L215.0472 117.1238
" />
<path d="M215.0472 117.1238
L214.5710 117.1238
" />
<path d="M214.1424 118.1238
L214.1424 117.1238
" />
<path d="M214.1424 117.1238
L213.9043 117.1238
" />
<path d="M213.9043 117.1238
L213.7614 117.1714
" />
<path d="M213.7614 117.1714
L213.6662 117.2667
" />
<path d="M213.6662 117.2667
L213.6186 117.3619
" />
<path d="M213.6186 117.3619
L213.5710 117.5524
" />
<path d="M213.5710 117.5524
L213.5710 117.6952
" />
<path d="M213.5710 117.6952
L213.6186 117.8857
" />
<path d="M213.6186 117.8857
L213.6662 117.9810
" />
<path d="M213.6662 117.9810
L213.7614 118.0762
" />
<path d="M213.7614 118.0762
L213.9043 118.1238
" />
<path d="M213.9043 118.1238
L214.1424 118.1238
" />
</g><g transform="rotate(-345.000000 247.8426 47.7187)">
<text x="247.8426" y="48.2187"
textLength="2.9643" font-size="1.3333" lengthAdjust="spacingAndGlyphs"
text-anchor="middle" opacity="0">LED</text>
</g>
<g class="stroked-text"><desc>LED</desc>
<path d="M248.5813 47.9917
L249.0412 47.8684
" />
<path d="M249.0412 47.8684
L248.7824 46.9025
" />
<path d="M248.1237 47.5720
L247.8018 47.6582
" />
<path d="M247.7993 48.2012
L248.2593 48.0779
" />
<path d="M248.2593 48.0779
L248.0005 47.1120
" />
<path d="M248.0005 47.1120
L247.5405 47.2352
" />
<path d="M247.3854 48.3121
L247.1265 47.3462
" />
<path d="M247.1265 47.3462
L246.8966 47.4078
" />
<path d="M246.8966 47.4078
L246.7709 47.4908
" />
<path d="M246.7709 47.4908
L246.7036 47.6074
" />
<path d="M246.7036 47.6074
L246.6822 47.7117
" />
<path d="M246.6822 47.7117
L246.6855 47.9080
" />
<path d="M246.6855 47.9080
L246.7225 48.0460
" />
<path d="M246.7225 48.0460
L246.8178 48.2177
" />
<path d="M246.8178 48.2177
L246.8884 48.2974
" />
<path d="M246.8884 48.2974
L247.0051 48.3647
" />
<path d="M247.0051 48.3647
L247.1554 48.3737
" />
<path d="M247.1554 48.3737
L247.3854 48.3121
" />
</g><g transform="rotate(-15.000000 105.4299 47.4784)">
<text x="105.4299" y="47.9784"
textLength="2.9643" font-size="1.3333" lengthAdjust="spacingAndGlyphs"
text-anchor="middle" opacity="0">LED</text>
</g>
<g class="stroked-text"><desc>LED</desc>
<path d="M105.9331 48.0841
L106.3931 48.2074
" />
<path d="M106.3931 48.2074
L106.6519 47.2414
" />
<path d="M105.7467 47.4919
L105.4247 47.4056
" />
<path d="M105.1512 47.8746
L105.6111 47.9978
" />
<path d="M105.6111 47.9978
L105.8700 47.0319
" />
<path d="M105.8700 47.0319
L105.4100 46.9087
" />
<path d="M104.7372 47.7637
L104.9960 46.7977
" />
<path d="M104.9960 46.7977
L104.7660 46.7361
" />
<path d="M104.7660 46.7361
L104.6157 46.7451
" />
<path d="M104.6157 46.7451
L104.4991 46.8125
" />
<path d="M104.4991 46.8125
L104.4284 46.8922
" />
<path d="M104.4284 46.8922
L104.3331 47.0638
" />
<path d="M104.3331 47.0638
L104.2962 47.2018
" />
<path d="M104.2962 47.2018
L104.2929 47.3981
" />
<path d="M104.2929 47.3981
L104.3142 47.5024
" />
<path d="M104.3142 47.5024
L104.3816 47.6191
" />
<path d="M104.3816 47.6191
L104.5072 47.7020
" />
<path d="M104.5072 47.7020
L104.7372 47.7637
" />
</g><g transform="rotate(-15.000000 138.0521 64.8240)">
<text x="138.0521" y="65.3240"
textLength="2.9643" font-size="1.3333" lengthAdjust="spacingAndGlyphs"
text-anchor="middle" opacity="0">LED</text>
</g>
<g class="stroked-text"><desc>LED</desc>
<path d="M138.5553 65.4297
L139.0153 65.5529
" />
<path d="M139.0153 65.5529
L139.2741 64.5870
" />
<path d="M138.3689 64.8375
L138.0470 64.7512
" />
<path d="M137.7734 65.2202
L138.2334 65.3434
" />
<path d="M138.2334 65.3434
L138.4922 64.3775
" />
<path d="M138.4922 64.3775
L138.0322 64.2542
" />
<path d="M137.3594 65.1092
L137.6182 64.1433
" />
<path d="M137.6182 64.1433
L137.3883 64.0817
" />
<path d="M137.3883 64.0817
L137.2380 64.0907
" />
<path d="M137.2380 64.0907
L137.1213 64.1581
" />
<path d="M137.1213 64.1581
L137.0507 64.2377
" />
<path d="M137.0507 64.2377
L136.9554 64.4094
" />
<path d="M136.9554 64.4094
L136.9184 64.5474
" />
<path d="M136.9184 64.5474
L136.9151 64.7437
" />
<path d="M136.9151 64.7437
L136.9364 64.8480
" />
<path d="M136.9364 64.8480
L137.0038 64.9646
" />
<path d="M137.0038 64.9646
L137.1294 65.0476
" />
<path d="M137.1294 65.0476
L137.3594 65.1092
" />
</g><g transform="rotate(-345.000000 175.5622 56.1512)">
<text x="175.5622" y="56.6512"
textLength="2.9643" font-size="1.3333" lengthAdjust="spacingAndGlyphs"
text-anchor="middle" opacity="0">LED</text>
</g>
<g class="stroked-text"><desc>LED</desc>
<path d="M176.3009 56.4242
L176.7609 56.3009
" />
<path d="M176.7609 56.3009
L176.5021 55.3350
" />
<path d="M175.8434 56.0045
L175.5214 56.0907
" />
<path d="M175.5190 56.6337
L175.9789 56.5104
" />
<path d="M175.9789 56.5104
L175.7201 55.5445
" />
<path d="M175.7201 55.5445
L175.2602 55.6678
" />
<path d="M175.1050 56.7446
L174.8462 55.7787
" />
<path d="M174.8462 55.7787
L174.6162 55.8403
" />
<path d="M174.6162 55.8403
L174.4905 55.9233
" />
<path d="M174.4905 55.9233
L174.4232 56.0399
" />
<path d="M174.4232 56.0399
L174.4018 56.1442
" />
<path d="M174.4018 56.1442
L174.4051 56.3405
" />
<path d="M174.4051 56.3405
L174.4421 56.4785
" />
<path d="M174.4421 56.4785
L174.5374 56.6502
" />
<path d="M174.5374 56.6502
L174.6081 56.7299
" />
<path d="M174.6081 56.7299
L174.7247 56.7972
" />
<path d="M174.7247 56.7972
L174.8750 56.8062
" />
<path d="M174.8750 56.8062
L175.1050 56.7446
" />
</g><g transform="rotate(-345.000000 229.1708 47.5810)">
<text x="229.1708" y="48.0810"
textLength="2.9643" font-size="1.3333" lengthAdjust="spacingAndGlyphs"
text-anchor="middle" opacity="0">LED</text>
</g>
<g class="stroked-text"><desc>LED</desc>
<path d="M229.9095 47.8540
L230.3694 47.7307
" />
<path d="M230.3694 47.7307
L230.1106 46.7648
" />
<path d="M229.4519 47.4343
L229.1299 47.5206
" />
<path d="M229.1275 48.0635
L229.5875 47.9402
" />
<path d="M229.5875 47.9402
L229.3287 46.9743
" />
<path d="M229.3287 46.9743
L228.8687 47.0976
" />
<path d="M228.7136 48.1744
L228.4547 47.2085
" />
<path d="M228.4547 47.2085
L228.2248 47.2701
" />
<path d="M228.2248 47.2701
L228.0991 47.3531
" />
<path d="M228.0991 47.3531
L228.0317 47.4697
" />
<path d="M228.0317 47.4697
L228.0104 47.5740
" />
<path d="M228.0104 47.5740
L228.0137 47.7704
" />
<path d="M228.0137 47.7704
L228.0507 47.9083
" />
<path d="M228.0507 47.9083
L228.1460 48.0800
" />
<path d="M228.1460 48.0800
L228.2166 48.1597
" />
<path d="M228.2166 48.1597
L228.3333 48.2270
" />
<path d="M228.3333 48.2270
L228.4836 48.2360
" />
<path d="M228.4836 48.2360
L228.7136 48.1744
" />
</g><g transform="rotate(-345.000000 191.8733 47.4784)">
<text x="191.8733" y="47.9784"
textLength="2.9643" font-size="1.3333" lengthAdjust="spacingAndGlyphs"
text-anchor="middle" opacity="0">LED</text>
</g>
<g class="stroked-text"><desc>LED</desc>
<path d="M192.6120 47.7513
L193.0719 47.6281
" />
<path d="M193.0719 47.6281
L192.8131 46.6622
" />
<path d="M192.1544 47.3317
L191.8325 47.4179
" />
<path d="M191.8300 47.9609
L192.2900 47.8376
" />
<path d="M192.2900 47.8376
L192.0312 46.8717
" />
<path d="M192.0312 46.8717
L191.5712 46.9949
" />
<path d="M191.4161 48.0718
L191.1573 47.1059
" />
<path d="M191.1573 47.1059
L190.9273 47.1675
" />
<path d="M190.9273 47.1675
L190.8016 47.2505
" />
<path d="M190.8016 47.2505
L190.7343 47.3671
" />
<path d="M190.7343 47.3671
L190.7129 47.4714
" />
<path d="M190.7129 47.4714
L190.7162 47.6677
" />
<path d="M190.7162 47.6677
L190.7532 47.8057
" />
<path d="M190.7532 47.8057
L190.8485 47.9774
" />
<path d="M190.8485 47.9774
L190.9191 48.0570
" />
<path d="M190.9191 48.0570
L191.0358 48.1244
" />
<path d="M191.0358 48.1244
L191.1861 48.1334
" />
<path d="M191.1861 48.1334
L191.4161 48.0718
" />
</g><g transform="rotate(-15.000000 86.7692 47.5746)">
<text x="86.7692" y="48.0746"
textLength="2.9643" font-size="1.3333" lengthAdjust="spacingAndGlyphs"
text-anchor="middle" opacity="0">LED</text>
</g>
<g class="stroked-text"><desc>LED</desc>
<path d="M87.2725 48.1803
L87.7324 48.3035
" />
<path d="M87.7324 48.3035
L87.9912 47.3376
" />
<path d="M87.0861 47.5880
L86.7641 47.5018
" />
<path d="M86.4905 47.9708
L86.9505 48.0940
" />
<path d="M86.9505 48.0940
L87.2093 47.1281
" />
<path d="M87.2093 47.1281
L86.7493 47.0048
" />
<path d="M86.0765 47.8598
L86.3354 46.8939
" />
<path d="M86.3354 46.8939
L86.1054 46.8323
" />
<path d="M86.1054 46.8323
L85.9551 46.8413
" />
<path d="M85.9551 46.8413
L85.8384 46.9086
" />
<path d="M85.8384 46.9086
L85.7678 46.9883
" />
<path d="M85.7678 46.9883
L85.6725 47.1600
" />
<path d="M85.6725 47.1600
L85.6355 47.2980
" />
<path d="M85.6355 47.2980
L85.6322 47.4943
" />
<path d="M85.6322 47.4943
L85.6536 47.5986
" />
<path d="M85.6536 47.5986
L85.7209 47.7152
" />
<path d="M85.7209 47.7152
L85.8466 47.7982
" />
<path d="M85.8466 47.7982
L86.0765 47.8598
" />
</g><g transform="rotate(-15.000000 121.7410 56.1512)">
<text x="121.7410" y="56.6512"
textLength="2.9643" font-size="1.3333" lengthAdjust="spacingAndGlyphs"
text-anchor="middle" opacity="0">LED</text>
</g>
<g class="stroked-text"><desc>LED</desc>
<path d="M122.2443 56.7570
L122.7042 56.8802
" />
<path d="M122.7042 56.8802
L122.9631 55.9143
" />
<path d="M122.0579 56.1647
L121.7359 56.0784
" />
<path d="M121.4623 56.5474
L121.9223 56.6707
" />
<path d="M121.9223 56.6707
L122.1811 55.7048
" />
<path d="M122.1811 55.7048
L121.7212 55.5815
" />
<path d="M121.0484 56.4365
L121.3072 55.4706
" />
<path d="M121.3072 55.4706
L121.0772 55.4090
" />
<path d="M121.0772 55.4090
L120.9269 55.4180
" />
<path d="M120.9269 55.4180
L120.8103 55.4853
" />
<path d="M120.8103 55.4853
L120.7396 55.5650
" />
<path d="M120.7396 55.5650
L120.6443 55.7367
" />
<path d="M120.6443 55.7367
L120.6073 55.8746
" />
<path d="M120.6073 55.8746
L120.6040 56.0710
" />
<path d="M120.6040 56.0710
L120.6254 56.1753
" />
<path d="M120.6254 56.1753
L120.6927 56.2919
" />
<path d="M120.6927 56.2919
L120.8184 56.3749
" />
<path d="M120.8184 56.3749
L121.0484 56.4365
" />
</g><text x="139.6516" y="133.6245"
textLength="2.9643" font-size="1.3333" lengthAdjust="spacingAndGlyphs"
text-anchor="middle" opacity="0">LED</text>
<g class="stroked-text"><desc>LED</desc>
<path d="M140.2945 133.5794
L140.7707 133.5794
" />
<path d="M140.7707 133.5794
L140.7707 132.5794
" />
<path d="M139.9612 133.0555
L139.6278 133.0555
" />
<path d="M139.4850 133.5794
L139.9612 133.5794
" />
<path d="M139.9612 133.5794
L139.9612 132.5794
" />
<path d="M139.9612 132.5794
L139.4850 132.5794
" />
<path d="M139.0564 133.5794
L139.0564 132.5794
" />
<path d="M139.0564 132.5794
L138.8183 132.5794
" />
<path d="M138.8183 132.5794
L138.6754 132.6270
" />
<path d="M138.6754 132.6270
L138.5802 132.7222
" />
<path d="M138.5802 132.7222
L138.5326 132.8174
" />
<path d="M138.5326 132.8174
L138.4850 133.0079
" />
<path d="M138.4850 133.0079
L138.4850 133.1508
" />
<path d="M138.4850 133.1508
L138.5326 133.3413
" />
<path d="M138.5326 133.3413
L138.5802 133.4365
" />
<path d="M138.5802 133.4365
L138.6754 133.5317
" />
<path d="M138.6754 133.5317
L138.8183 133.5794
" />
<path d="M138.8183 133.5794
L139.0564 133.5794
" />
</g><g transform="rotate(-345.000000 159.2511 64.8240)">
<text x="159.2511" y="65.3240"
textLength="2.9643" font-size="1.3333" lengthAdjust="spacingAndGlyphs"
text-anchor="middle" opacity="0">LED</text>
</g>
<g class="stroked-text"><desc>LED</desc>
<path d="M159.9898 65.0969
L160.4497 64.9737
" />
<path d="M160.4497 64.9737
L160.1909 64.0077
" />
<path d="M159.5322 64.6772
L159.2102 64.7635
" />
<path d="M159.2078 65.3064
L159.6678 65.1832
" />
<path d="M159.6678 65.1832
L159.4090 64.2172
" />
<path d="M159.4090 64.2172
L158.9490 64.3405
" />
<path d="M158.7938 65.4173
L158.5350 64.4514
" />
<path d="M158.5350 64.4514
L158.3050 64.5130
" />
<path d="M158.3050 64.5130
L158.1794 64.5960
" />
<path d="M158.1794 64.5960
L158.1120 64.7127
" />
<path d="M158.1120 64.7127
L158.0907 64.8170
" />
<path d="M158.0907 64.8170
L158.0940 65.0133
" />
<path d="M158.0940 65.0133
L158.1310 65.1513
" />
<path d="M158.1310 65.1513
L158.2263 65.3229
" />
<path d="M158.2263 65.3229
L158.2969 65.4026
" />
<path d="M158.2969 65.4026
L158.4135 65.4699
" />
<path d="M158.4135 65.4699
L158.5639 65.4790
" />
<path d="M158.5639 65.4790
L158.7938 65.4173
" />
</g><circle cx="45.7072" cy="95.5751" r="3.5000" /> 
<circle cx="184.3302" cy="124.5718" r="3.5000" /> 
<circle cx="54.5071" cy="62.7336" r="3.5000" /> 
<circle cx="109.8626" cy="66.6245" r="3.5000" /> 
<circle cx="242.8072" cy="62.6925" r="3.5000" /> 
<circle cx="187.4630" cy="66.6246" r="3.5000" /> 
<circle cx="112.9951" cy="124.5717" r="3.5000" /> 
</g>
<g style="fill:#000000; fill-opacity:0.0; 
stroke:#000000; stroke-width:0.2000; stroke-opacity:1; 
stroke-linecap:round; stroke-linejoin:round;">
<path d="M125.5219 30.9270
L120.9201 48.1011
" />
<path d="M120.9201 48.1011
L141.1152 53.5124
" />
<path d="M141.1152 53.5124
L145.7170 36.3382
" />
<path d="M145.7170 36.3382
L125.5219 30.9270
" />
</g>
<g style="fill:#000000; fill-opacity:0.0; 
stroke:#000000; stroke-width:0.1000; stroke-opacity:1; 
stroke-linecap:round; stroke-linejoin:round;">
<path d="M122.8827 34.7637
L120.5529 43.4588
" />
<path d="M120.5529 43.4588
L127.6532 45.3613
" />
<path d="M127.6532 45.3613
L129.9830 36.6663
" />
<path d="M129.9830 36.6663
L122.8827 34.7637
" />
</g>
<g style="fill:#000000; fill-opacity:0.0; 
stroke:#000000; stroke-width:0.1500; stroke-opacity:1; 
stroke-linecap:round; stroke-linejoin:round;">
<circle cx="251.6071" cy="95.5340" r="3.5000" /> 
</g>
<g style="fill:#000000; fill-opacity:0.0; 
stroke:#000000; stroke-width:0.1000; stroke-opacity:1; 
stroke-linecap:round; stroke-linejoin:round;">
<path d="M90.2230 94.5723
L95.0526 95.8664
" />
<path d="M95.0526 95.8664
L94.2373 98.9090
" />
<path d="M94.2373 98.9090
L89.4077 97.6149
" />
<path d="M89.4077 97.6149
L90.2230 94.5723
" />
<path d="M71.5623 94.6684
L76.3919 95.9625
" />
<path d="M76.3919 95.9625
L75.5766 99.0052
" />
<path d="M75.5766 99.0052
L70.7470 97.7111
" />
<path d="M70.7470 97.7111
L71.5623 94.6684
" />
<path d="M52.9254 94.6753
L57.7551 95.9694
" />
<path d="M57.7551 95.9694
L56.9398 99.0121
" />
<path d="M56.9398 99.0121
L52.1101 97.7180
" />
<path d="M52.1101 97.7180
L52.9254 94.6753
" />
<path d="M34.2647 94.7715
L39.0943 96.0656
" />
<path d="M39.0943 96.0656
L38.2790 99.1082
" />
<path d="M38.2790 99.1082
L33.4494 97.8141
" />
<path d="M33.4494 97.8141
L34.2647 94.7715
" />
<path d="M253.8200 79.6860
L258.6497 78.3919
" />
<path d="M258.6497 78.3919
L259.4649 81.4345
" />
<path d="M259.4649 81.4345
L254.6353 82.7286
" />
<path d="M254.6353 82.7286
L253.8200 79.6860
" />
<path d="M235.1482 79.5483
L239.9778 78.2542
" />
<path d="M239.9778 78.2542
L240.7931 81.2968
" />
<path d="M240.7931 81.2968
L235.9635 82.5909
" />
<path d="M235.9635 82.5909
L235.1482 79.5483
" />
<path d="M216.5115 79.5418
L221.3411 78.2477
" />
<path d="M221.3411 78.2477
L222.1564 81.2903
" />
<path d="M222.1564 81.2903
L217.3267 82.5844
" />
<path d="M217.3267 82.5844
L216.5115 79.5418
" />
<path d="M181.5396 88.1184
L186.3693 86.8243
" />
<path d="M186.3693 86.8243
L187.1845 89.8670
" />
<path d="M187.1845 89.8670
L182.3549 91.1611
" />
<path d="M182.3549 91.1611
L181.5396 88.1184
" />
<path d="M165.2285 96.7912
L170.0581 95.4971
" />
<path d="M170.0581 95.4971
L170.8734 98.5397
" />
<path d="M170.8734 98.5397
L166.0438 99.8338
" />
<path d="M166.0438 99.8338
L165.2285 96.7912
" />
<path d="M127.2451 95.4971
L132.0748 96.7912
" />
<path d="M132.0748 96.7912
L131.2595 99.8338
" />
<path d="M131.2595 99.8338
L126.4298 98.5397
" />
<path d="M126.4298 98.5397
L127.2451 95.4971
" />
<path d="M160.8286 80.3704
L165.6582 79.0763
" />
<path d="M165.6582 79.0763
L166.4735 82.1190
" />
<path d="M166.4735 82.1190
L161.6439 83.4131
" />
<path d="M161.6439 83.4131
L160.8286 80.3704
" />
<path d="M197.8507 79.4456
L202.6804 78.1515
" />
<path d="M202.6804 78.1515
L203.4956 81.1942
" />
<path d="M203.4956 81.1942
L198.6660 82.4883
" />
<path d="M198.6660 82.4883
L197.8507 79.4456
" />
<path d="M110.9340 86.8243
L115.7636 88.1184
" />
<path d="M115.7636 88.1184
L114.9484 91.1611
" />
<path d="M114.9484 91.1611
L110.1187 89.8670
" />
<path d="M110.1187 89.8670
L110.9340 86.8243
" />
<path d="M94.6229 78.1515
L99.4525 79.4456
" />
<path d="M99.4525 79.4456
L98.6372 82.4883
" />
<path d="M98.6372 82.4883
L93.8076 81.1942
" />
<path d="M93.8076 81.1942
L94.6229 78.1515
" />
<path d="M75.9622 78.2477
L80.7918 79.5418
" />
<path d="M80.7918 79.5418
L79.9765 82.5844
" />
<path d="M79.9765 82.5844
L75.1469 81.2903
" />
<path d="M75.1469 81.2903
L75.9622 78.2477
" />
<path d="M57.3254 78.2546
L62.1550 79.5487
" />
<path d="M62.1550 79.5487
L61.3397 82.5914
" />
<path d="M61.3397 82.5914
L56.5101 81.2973
" />
<path d="M56.5101 81.2973
L57.3254 78.2546
" />
<path d="M38.6646 78.3507
L43.4942 79.6448
" />
<path d="M43.4942 79.6448
L42.6790 82.6875
" />
<path d="M42.6790 82.6875
L37.8493 81.3934
" />
<path d="M37.8493 81.3934
L38.6646 78.3507
" />
<path d="M249.4201 63.2652
L254.2497 61.9711
" />
<path d="M254.2497 61.9711
L255.0650 65.0138
" />
<path d="M255.0650 65.0138
L250.2354 66.3079
" />
<path d="M250.2354 66.3079
L249.4201 63.2652
" />
<path d="M118.4453 128.3382
L123.2749 129.6323
" />
<path d="M123.2749 129.6323
L122.4596 132.6750
" />
<path d="M122.4596 132.6750
L117.6300 131.3809
" />
<path d="M117.6300 131.3809
L118.4453 128.3382
" />
<path d="M230.7483 63.1275
L235.5779 61.8334
" />
<path d="M235.5779 61.8334
L236.3932 64.8761
" />
<path d="M236.3932 64.8761
L231.5635 66.1702
" />
<path d="M231.5635 66.1702
L230.7483 63.1275
" />
<path d="M43.0645 61.9300
L47.8942 63.2241
" />
<path d="M47.8942 63.2241
L47.0789 66.2668
" />
<path d="M47.0789 66.2668
L42.2493 64.9727
" />
<path d="M42.2493 64.9727
L43.0645 61.9300
" />
<path d="M115.3339 70.4036
L120.1636 71.6977
" />
<path d="M120.1636 71.6977
L119.3483 74.7403
" />
<path d="M119.3483 74.7403
L114.5187 73.4462
" />
<path d="M114.5187 73.4462
L115.3339 70.4036
" />
<path d="M99.0228 61.7308
L103.8525 63.0249
" />
<path d="M103.8525 63.0249
L103.0372 66.0676
" />
<path d="M103.0372 66.0676
L98.2075 64.7735
" />
<path d="M98.2075 64.7735
L99.0228 61.7308
" />
<path d="M177.1397 71.6977
L181.9693 70.4036
" />
<path d="M181.9693 70.4036
L182.7846 73.4462
" />
<path d="M182.7846 73.4462
L177.9550 74.7403
" />
<path d="M177.9550 74.7403
L177.1397 71.6977
" />
<path d="M169.6284 113.2119
L174.4581 111.9178
" />
<path d="M174.4581 111.9178
L175.2733 114.9605
" />
<path d="M175.2733 114.9605
L170.4437 116.2546
" />
<path d="M170.4437 116.2546
L169.6284 113.2119
" />
<path d="M61.7253 61.8339
L66.5549 63.1279
" />
<path d="M66.5549 63.1279
L65.7396 66.1706
" />
<path d="M65.7396 66.1706
L60.9100 64.8765
" />
<path d="M60.9100 64.8765
L61.7253 61.8339
" />
<path d="M212.1115 63.1210
L216.9412 61.8269
" />
<path d="M216.9412 61.8269
L217.7565 64.8696
" />
<path d="M217.7565 64.8696
L212.9268 66.1637
" />
<path d="M212.9268 66.1637
L212.1115 63.1210
" />
<path d="M193.4508 63.0249
L198.2804 61.7308
" />
<path d="M198.2804 61.7308
L199.0957 64.7735
" />
<path d="M199.0957 64.7735
L194.2661 66.0676
" />
<path d="M194.2661 66.0676
L193.4508 63.0249
" />
<path d="M258.2200 96.1067
L263.0496 94.8126
" />
<path d="M263.0496 94.8126
L263.8649 97.8553
" />
<path d="M263.8649 97.8553
L259.0353 99.1494
" />
<path d="M259.0353 99.1494
L258.2200 96.1067
" />
<path d="M239.5481 95.9690
L244.3777 94.6749
" />
<path d="M244.3777 94.6749
L245.1930 97.7176
" />
<path d="M245.1930 97.7176
L240.3634 99.0117
" />
<path d="M240.3634 99.0117
L239.5481 95.9690
" />
<path d="M220.9114 95.9625
L225.7410 94.6684
" />
<path d="M225.7410 94.6684
L226.5563 97.7111
" />
<path d="M226.5563 97.7111
L221.7267 99.0052
" />
<path d="M221.7267 99.0052
L220.9114 95.9625
" />
<path d="M202.2507 95.8664
L207.0803 94.5723
" />
<path d="M207.0803 94.5723
L207.8956 97.6150
" />
<path d="M207.8956 97.6150
L203.0659 98.9090
" />
<path d="M203.0659 98.9090
L202.2507 95.8664
" />
<path d="M185.9395 104.5391
L190.7692 103.2450
" />
<path d="M190.7692 103.2450
L191.5845 106.2877
" />
<path d="M191.5845 106.2877
L186.7548 107.5818
" />
<path d="M186.7548 107.5818
L185.9395 104.5391
" />
<path d="M122.8452 111.9178
L127.6748 113.2119
" />
<path d="M127.6748 113.2119
L126.8595 116.2546
" />
<path d="M126.8595 116.2546
L122.0299 114.9605
" />
<path d="M122.0299 114.9605
L122.8452 111.9178
" />
<path d="M106.5341 103.2450
L111.3637 104.5391
" />
<path d="M111.3637 104.5391
L110.5484 107.5818
" />
<path d="M110.5484 107.5818
L105.7188 106.2877
" />
<path d="M105.7188 106.2877
L106.5341 103.2450
" />
<path d="M80.3621 61.8270
L85.1917 63.1210
" />
<path d="M85.1917 63.1210
L84.3764 66.1637
" />
<path d="M84.3764 66.1637
L79.5468 64.8696
" />
<path d="M79.5468 64.8696
L80.3621 61.8270
" />
<path d="M131.6450 79.0763
L136.4747 80.3704
" />
<path d="M136.4747 80.3704
L135.6594 83.4131
" />
<path d="M135.6594 83.4131
L130.8298 82.1190
" />
<path d="M130.8298 82.1190
L131.6450 79.0763
" />
<path d="M98.0654 121.5757
L103.0654 121.5757
" />
<path d="M103.0654 121.5757
L103.0654 124.7257
" />
<path d="M103.0654 124.7257
L98.0654 124.7257
" />
<path d="M98.0654 124.7257
L98.0654 121.5757
" />
<path d="M174.0284 129.6326
L178.8580 128.3386
" />
<path d="M178.8580 128.3386
L179.6733 131.3812
" />
<path d="M179.6733 131.3812
L174.8436 132.6753
" />
<path d="M174.8436 132.6753
L174.0284 129.6326
" />
<path d="M194.2376 121.5760
L199.2376 121.5760
" />
<path d="M199.2376 121.5760
L199.2376 124.7260
" />
<path d="M199.2376 124.7260
L194.2376 124.7260
" />
<path d="M194.2376 124.7260
L194.2376 121.5760
" />
<path d="M155.1516 131.5495
L160.1516 131.5495
" />
<path d="M160.1516 131.5495
L160.1516 134.6995
" />
<path d="M160.1516 134.6995
L155.1516 134.6995
" />
<path d="M155.1516 134.6995
L155.1516 131.5495
" />
<path d="M80.0650 116.0935
L85.0650 116.0935
" />
<path d="M85.0650 116.0935
L85.0650 119.2435
" />
<path d="M85.0650 119.2435
L80.0650 119.2435
" />
<path d="M80.0650 119.2435
L80.0650 116.0935
" />
<path d="M66.1252 45.4131
L70.9548 46.7072
" />
<path d="M70.9548 46.7072
L70.1395 49.7499
" />
<path d="M70.1395 49.7499
L65.3099 48.4558
" />
<path d="M65.3099 48.4558
L66.1252 45.4131
" />
<path d="M47.4644 45.5092
L52.2941 46.8033
" />
<path d="M52.2941 46.8033
L51.4788 49.8460
" />
<path d="M51.4788 49.8460
L46.6492 48.5519
" />
<path d="M46.6492 48.5519
L47.4644 45.5092
" />
<path d="M207.7116 46.7003
L212.5412 45.4062
" />
<path d="M212.5412 45.4062
L213.3565 48.4488
" />
<path d="M213.3565 48.4488
L208.5269 49.7429
" />
<path d="M208.5269 49.7429
L207.7116 46.7003
" />
<path d="M212.2376 116.0940
L217.2376 116.0940
" />
<path d="M217.2376 116.0940
L217.2376 119.2440
" />
<path d="M217.2376 119.2440
L212.2376 119.2440
" />
<path d="M212.2376 119.2440
L212.2376 116.0940
" />
<path d="M245.0202 46.8444
L249.8498 45.5503
" />
<path d="M249.8498 45.5503
L250.6651 48.5930
" />
<path d="M250.6651 48.5930
L245.8354 49.8871
" />
<path d="M245.8354 49.8871
L245.0202 46.8444
" />
<path d="M103.4227 45.3100
L108.2523 46.6041
" />
<path d="M108.2523 46.6041
L107.4371 49.6468
" />
<path d="M107.4371 49.6468
L102.6074 48.3527
" />
<path d="M102.6074 48.3527
L103.4227 45.3100
" />
<path d="M136.0449 62.6556
L140.8746 63.9497
" />
<path d="M140.8746 63.9497
L140.0593 66.9924
" />
<path d="M140.0593 66.9924
L135.2296 65.6983
" />
<path d="M135.2296 65.6983
L136.0449 62.6556
" />
<path d="M172.7398 55.2769
L177.5694 53.9828
" />
<path d="M177.5694 53.9828
L178.3847 57.0255
" />
<path d="M178.3847 57.0255
L173.5551 58.3196
" />
<path d="M173.5551 58.3196
L172.7398 55.2769
" />
<path d="M226.3483 46.7068
L231.1780 45.4127
" />
<path d="M231.1780 45.4127
L231.9932 48.4553
" />
<path d="M231.9932 48.4553
L227.1636 49.7494
" />
<path d="M227.1636 49.7494
L226.3483 46.7068
" />
<path d="M189.0509 46.6041
L193.8805 45.3100
" />
<path d="M193.8805 45.3100
L194.6958 48.3527
" />
<path d="M194.6958 48.3527
L189.8661 49.6468
" />
<path d="M189.8661 49.6468
L189.0509 46.6041
" />
<path d="M84.7620 45.4062
L89.5917 46.7003
" />
<path d="M89.5917 46.7003
L88.7764 49.7430
" />
<path d="M88.7764 49.7430
L83.9468 48.4489
" />
<path d="M83.9468 48.4489
L84.7620 45.4062
" />
<path d="M119.7339 53.9829
L124.5635 55.2770
" />
<path d="M124.5635 55.2770
L123.7482 58.3196
" />
<path d="M123.7482 58.3196
L118.9186 57.0255
" />
<path d="M118.9186 57.0255
L119.7339 53.9829
" />
<path d="M137.1516 131.5495
L142.1516 131.5495
" />
<path d="M142.1516 131.5495
L142.1516 134.6995
" />
<path d="M142.1516 134.6995
L137.1516 134.6995
" />
<path d="M137.1516 134.6995
L137.1516 131.5495
" />
<path d="M156.4286 63.9497
L161.2583 62.6556
" />
<path d="M161.2583 62.6556
L162.0735 65.6983
" />
<path d="M162.0735 65.6983
L157.2439 66.9923
" />
<path d="M157.2439 66.9923
L156.4286 63.9497
" />
<g >
</g>
<g >
</g>
<g >
</g>
<g >
</g>
<g >
</g>
<g >
</g>
<g >
</g>
<g >
</g>
<g >
</g>
<g >
</g>
<g >
</g>
<g >
</g>
<g >
</g>
<g >
</g>
<g >
</g>
<g >
</g>
<g >
</g>
<g >
</g>
<g >
</g>
<g >
</g>
<g >
</g>
<g >
</g>
<g >
</g>
<g >
</g>
<g >
</g>
<g >
</g>
<g >
</g>
<g >
</g>
<g >
</g>
<g >
</g>
<g >
</g>
<g >
</g>
<g >
</g>
<g >
</g>
<g >
</g>
<g >
</g>
<g >
</g>
<g >
</g>
<g >
</g>
<g >
</g>
<g >
</g>
<g >
</g>
<g >
</g>
<g >
</g>
<g >
</g>
<g >
</g>
<g >
</g>
<g >
</g>
<g >
</g>
<g >
</g>
<g >
</g>
<g >
</g>
<g >
</g>
<g >
</g>
<g >
</g>
<g >
</g>
<g >
</g>
<g >
</g>
<g >
</g>
<g >
</g>
<g >
</g>
<g >
</g>
<g >
</g>
<g >
</g>
<g >
</g>
<g >
</g>
<g >
</g>
<g >
</g>
<g >
</g>
<g >
</g>
<g >
</g>
<g >
</g>
<g >
</g>
<g >
</g>
<g >
</g>
<g >
</g>
<g >
</g>
<g >
</g>
<g >
</g>
<g >
</g>
<g >
</g>
<g >
</g>
<g >
</g>
<g >
</g>
<g >
</g>
<g >
</g>
<g >
</g>
<g >
</g>
<g >
</g>
<g >
</g>
<g >
</g>
<g >
</g>
<g >
</g>
<g >
</g>
<g >
</g>
<g >
</g>
<g >
</g>
<g >
</g>
<g >
</g>
<g >
</g>
<g >
</g>
<g >
</g>
<g >
</g>
<g >
</g>
<g >
</g>
<g >
</g>
<g >
</g>
<g >
</g>
<g >
</g>
<g >
</g>
<g >
</g>
<g >
</g>
<g >
</g>
<g >
</g>
<g >
</g>
<g >
</g>
<g >
</g>
<g >
</g>
<g >
</g>
<g >
</g>
<g >
</g>
<g >
</g>
<g >
</g>
<g >
</g>
<g >
</g>
<g >
</g>
<g >
</g>
<g >
</g>
<g >
</g>
<g >
</g>
<g >
</g>
<g >
</g>
<g >
</g>
<g >
</g>
</g> 
</svg>
