<?xml version="1.0" standalone="no"?>
 <!DOCTYPE svg PUBLIC "-//W3C//DTD SVG 1.1//EN" 
 "http://www.w3.org/Graphics/SVG/1.1/DTD/svg11.dtd"> 
<svg
  xmlns:svg="http://www.w3.org/2000/svg"
  xmlns="http://www.w3.org/2000/svg"
  xmlns:xlink="http://www.w3.org/1999/xlink"
  version="1.1"
  width="297.0022mm" height="210.0072mm" viewBox="0.0000 0.0000 297.0022 210.0072">
<title>SVG Image created as ergo56-Edge_Cuts.svg date 2024/01/04 14:14:53 </title>
  <desc>Image generated by PCBNEW </desc>
<g style="fill:#000000; fill-opacity:1.0000;stroke:#000000; stroke-opacity:1.0000;
stroke-linecap:round; stroke-linejoin:round;"
 transform="translate(0 0) scale(1 1)">
</g>
<g style="fill:#000000; fill-opacity:0.0; 
stroke:#000000; stroke-width:0.0000; stroke-opacity:1; 
stroke-linecap:round; stroke-linejoin:round;">
</g>
<g style="fill:#000000; fill-opacity:0.0; 
stroke:#000000; stroke-width:0.1890; stroke-opacity:1; 
stroke-linecap:round; stroke-linejoin:round;">
<path d="M225.6003 115.4992 A1.0001 1.0001 0.0 0 0 224.8592 116.4644" />
<path d="M42.7402 112.3860
L51.4077 110.0563
" />
<path d="M125.6138 145.9876
L130.6592 146.7563
" />
<path d="M72.4593 116.4641 A1.0000 1.0000 0.0 0 0 71.7181 115.4989" />
<path d="M271.9494 107.7325 A2.5000 2.5000 0.0 0 0 273.7172 104.6706" />
</g>
<g style="fill:#000000; fill-opacity:0.0; 
stroke:#000000; stroke-width:0.0500; stroke-opacity:1; 
stroke-linecap:round; stroke-linejoin:round;">
<path d="M144.5008 53.8305
L145.0214 53.9941
" />
<path d="M149.8940 70.7653 A2.6790 2.6790 0.0 0 0 147.1387 70.7885" />
<path d="M147.3134 110.1294
L147.1386 70.7885
" />
</g>
<g style="fill:#000000; fill-opacity:0.0; 
stroke:#000000; stroke-width:0.1890; stroke-opacity:1; 
stroke-linecap:round; stroke-linejoin:round;">
<path d="M40.0231 43.3127
L23.6013 104.6703
" />
</g>
<g style="fill:#000000; fill-opacity:0.0; 
stroke:#000000; stroke-width:0.0500; stroke-opacity:1; 
stroke-linecap:round; stroke-linejoin:round;">
<path d="M146.6865 37.6415 A4.5008 4.5008 0.0 0 0 143.4557 33.3235" />
<path d="M117.1483 46.9685 A3.0001 3.0001 0.0 0 0 120.8670 44.8475" />
<path d="M149.9326 61.7715
L149.8476 57.0106
" />
<path d="M143.1628 51.4272
L146.6865 37.6415
" />
<path d="M143.1628 51.4272 A2.0000 2.0000 0.0 0 0 144.5008 53.8305" />
<path d="M150.0597 119.5565
L150.0597 141.7411
" />
</g>
<g style="fill:#000000; fill-opacity:0.0; 
stroke:#000000; stroke-width:0.1890; stroke-opacity:1; 
stroke-linecap:round; stroke-linejoin:round;">
<path d="M152.0786 54.0571 A3.0000 3.0000 0.0 0 0 149.8476 57.0106" />
<path d="M171.7046 145.9876
L224.1181 131.9097
" />
<path d="M72.4594 130.9439 A0.9999 0.9999 0.0 0 0 73.2003 131.9097" />
</g>
<g style="fill:#000000; fill-opacity:0.0; 
stroke:#000000; stroke-width:0.0500; stroke-opacity:1; 
stroke-linecap:round; stroke-linejoin:round;">
<path d="M127.3267 29.2595
L143.4556 33.3235
" />
<path d="M142.3758 146.7563 A4.9999 4.9999 0.0 0 0 147.3757 141.7429" />
</g>
<g style="fill:#000000; fill-opacity:0.0; 
stroke:#000000; stroke-width:0.1890; stroke-opacity:1; 
stroke-linecap:round; stroke-linejoin:round;">
<path d="M224.8590 130.9439
L224.8592 116.4644
" />
<path d="M273.7172 104.6706
L257.2953 43.3130
" />
<path d="M224.1181 131.9097 A1.0000 1.0000 0.0 0 0 224.8590 130.9439" />
<path d="M23.6013 104.6703 A2.4999 2.4999 0.0 0 0 25.3690 107.7322" />
<path d="M117.1483 46.9685
L97.7282 41.4648
" />
</g>
<g style="fill:#000000; fill-opacity:0.0; 
stroke:#000000; stroke-width:0.0500; stroke-opacity:1; 
stroke-linecap:round; stroke-linejoin:round;">
<path d="M127.3267 29.2595 A2.6941 2.6941 0.0 0 0 124.6468 30.5217" />
</g>
<g style="fill:#000000; fill-opacity:0.0; 
stroke:#000000; stroke-width:0.1890; stroke-opacity:1; 
stroke-linecap:round; stroke-linejoin:round;">
<path d="M155.0531 146.7411
L166.6592 146.7563
" />
</g>
<g style="fill:#000000; fill-opacity:0.0; 
stroke:#000000; stroke-width:0.0500; stroke-opacity:1; 
stroke-linecap:round; stroke-linejoin:round;">
<path d="M150.0597 141.7411 A5.0000 5.0000 0.0 0 0 155.0531 146.7411" />
</g>
<g style="fill:#000000; fill-opacity:1.0000; 
stroke:#000000; stroke-width:0.0000; stroke-opacity:1; 
stroke-linecap:round; stroke-linejoin:round;">
<circle cx="199.5903" cy="41.4650" r="0.0945" /> 
</g>
<g style="fill:#000000; fill-opacity:0.0; 
stroke:#000000; stroke-width:0.1890; stroke-opacity:1; 
stroke-linecap:round; stroke-linejoin:round;">
<path d="M257.2953 43.3130 A2.5000 2.5000 0.0 0 0 254.8785 41.4600" />
</g>
<g style="fill:#000000; fill-opacity:0.0; 
stroke:#000000; stroke-width:0.0500; stroke-opacity:1; 
stroke-linecap:round; stroke-linejoin:round;">
<path d="M147.1218 56.8788 A3.0000 3.0000 0.0 0 0 145.0214 53.9941" />
<path d="M147.3757 141.7429
L147.3162 119.5307
" />
<path d="M120.8670 44.8475
L124.6468 30.5217
" />
<path d="M147.3134 110.1294 A1.3678 1.3678 0.0 0 0 149.9326 110.4125" />
</g>
<g style="fill:#000000; fill-opacity:0.0; 
stroke:#000000; stroke-width:0.1890; stroke-opacity:1; 
stroke-linecap:round; stroke-linejoin:round;">
<path d="M199.5903 41.4650
L152.0786 54.0571
" />
<path d="M130.6592 146.7563
L142.3758 146.7563
" />
</g>
<g style="fill:#000000; fill-opacity:0.0; 
stroke:#000000; stroke-width:0.0500; stroke-opacity:1; 
stroke-linecap:round; stroke-linejoin:round;">
<path d="M147.0853 61.7102 A1.8880 1.8880 0.0 0 0 149.9326 61.7715" />
</g>
<g style="fill:#000000; fill-opacity:0.0; 
stroke:#000000; stroke-width:0.1890; stroke-opacity:1; 
stroke-linecap:round; stroke-linejoin:round;">
<path d="M25.3690 107.7322
L42.7402 112.3860
" />
</g>
<g style="fill:#000000; fill-opacity:0.0; 
stroke:#000000; stroke-width:0.0500; stroke-opacity:1; 
stroke-linecap:round; stroke-linejoin:round;">
<path d="M147.0853 61.7102
L147.1218 56.8788
" />
</g>
<g style="fill:#000000; fill-opacity:0.0; 
stroke:#000000; stroke-width:0.1890; stroke-opacity:1; 
stroke-linecap:round; stroke-linejoin:round;">
<path d="M254.8785 41.4600
L199.5903 41.4650
" />
</g>
<g style="fill:#000000; fill-opacity:0.0; 
stroke:#000000; stroke-width:0.0500; stroke-opacity:1; 
stroke-linecap:round; stroke-linejoin:round;">
<path d="M149.9326 110.4125
L149.8940 70.7653
" />
</g>
<g style="fill:#000000; fill-opacity:0.0; 
stroke:#000000; stroke-width:0.1890; stroke-opacity:1; 
stroke-linecap:round; stroke-linejoin:round;">
<path d="M166.6592 146.7563
L171.7046 145.9876
" />
<path d="M225.6003 115.4992
L245.9107 110.0566
" />
<path d="M72.4593 116.4641
L72.4594 130.9439
" />
<path d="M51.4077 110.0563
L71.7181 115.4989
" />
</g>
<g style="fill:#000000; fill-opacity:1.0000; 
stroke:#000000; stroke-width:0.0000; stroke-opacity:1; 
stroke-linecap:round; stroke-linejoin:round;">
<circle cx="115.1118" cy="46.1179" r="0.0945" /> 
</g>
<g style="fill:#000000; fill-opacity:1.0000; 
stroke:#000000; stroke-width:0.1890; stroke-opacity:1; 
stroke-linecap:round; stroke-linejoin:round;">
</g>
<g style="fill:#000000; fill-opacity:0.0; 
stroke:#000000; stroke-width:0.1890; stroke-opacity:1; 
stroke-linecap:round; stroke-linejoin:round;">
<path d="M245.9107 110.0566
L254.5782 112.3863
" />
<path d="M254.5782 112.3863
L271.9494 107.7325
" />
<path d="M42.4400 41.4597 A2.5000 2.5000 0.0 0 0 40.0231 43.3127" />
<path d="M97.7282 41.4648
L42.4400 41.4597
" />
<path d="M73.2003 131.9097
L125.6138 145.9876
" />
</g>
<g style="fill:#000000; fill-opacity:0.0; 
stroke:#000000; stroke-width:0.0500; stroke-opacity:1; 
stroke-linecap:round; stroke-linejoin:round;">
<path d="M150.0597 119.5565 A3.0107 3.0107 0.0 0 0 147.3162 119.5307" />
<g >
</g>
<g >
</g>
<g >
</g>
<g >
</g>
<g >
</g>
<g >
</g>
<g >
</g>
<g >
</g>
<g >
</g>
<g >
</g>
<g >
</g>
<g >
</g>
<g >
</g>
<g >
</g>
<g >
</g>
<g >
</g>
<g >
</g>
<g >
</g>
<g >
</g>
<g >
</g>
<g >
</g>
<g >
</g>
<g >
</g>
<g >
</g>
<g >
</g>
<g >
</g>
<g >
</g>
<g >
</g>
<g >
</g>
<g >
</g>
<g >
</g>
<g >
</g>
<g >
</g>
<g >
</g>
<g >
</g>
<g >
</g>
<g >
</g>
<g >
</g>
<g >
</g>
<g >
</g>
<g >
</g>
<g >
</g>
<g >
</g>
<g >
</g>
<g >
</g>
<g >
</g>
<g >
</g>
<g >
</g>
<g >
</g>
<g >
</g>
<g >
</g>
<g >
</g>
<g >
</g>
<g >
</g>
<g >
</g>
<g >
</g>
<g >
</g>
<g >
</g>
<g >
</g>
<g >
</g>
<g >
</g>
<g >
</g>
<g >
</g>
<g >
</g>
<g >
</g>
<g >
</g>
<g >
</g>
<g >
</g>
<g >
</g>
<g >
</g>
<g >
</g>
<g >
</g>
<g >
</g>
<g >
</g>
<g >
</g>
<g >
</g>
<g >
</g>
<g >
</g>
<g >
</g>
<g >
</g>
<g >
</g>
<g >
</g>
<g >
</g>
<g >
</g>
<g >
</g>
<g >
</g>
<g >
</g>
<g >
</g>
<g >
</g>
<g >
</g>
<g >
</g>
<g >
</g>
<g >
</g>
<g >
</g>
<g >
</g>
<g >
</g>
<g >
</g>
<g >
</g>
<g >
</g>
<g >
</g>
<g >
</g>
<g >
</g>
<g >
</g>
<g >
</g>
<g >
</g>
<g >
</g>
<g >
</g>
<g >
</g>
<g >
</g>
<g >
</g>
<g >
</g>
<g >
</g>
<g >
</g>
<g >
</g>
<g >
</g>
<g >
</g>
<g >
</g>
<g >
</g>
<g >
</g>
<g >
</g>
<g >
</g>
<g >
</g>
<g >
</g>
<g >
</g>
<g >
</g>
<g >
</g>
<g >
</g>
<g >
</g>
<g >
</g>
<g >
</g>
<g >
</g>
<g >
</g>
<g >
</g>
<g >
</g>
</g> 
</svg>
