<?xml version="1.0" standalone="no"?>
 <!DOCTYPE svg PUBLIC "-//W3C//DTD SVG 1.1//EN" 
 "http://www.w3.org/Graphics/SVG/1.1/DTD/svg11.dtd"> 
<svg
  xmlns:svg="http://www.w3.org/2000/svg"
  xmlns="http://www.w3.org/2000/svg"
  xmlns:xlink="http://www.w3.org/1999/xlink"
  version="1.1"
  width="297.0022mm" height="210.0072mm" viewBox="0.0000 0.0000 297.0022 210.0072">
<title>SVG Image created as ergo56-F_Courtyard.svg date 2023/12/21 16:18:12 </title>
  <desc>Image generated by PCBNEW </desc>
<g style="fill:#000000; fill-opacity:1.0000;stroke:#000000; stroke-opacity:1.0000;
stroke-linecap:round; stroke-linejoin:round;"
 transform="translate(0 0) scale(1 1)">
</g>
<g style="fill:#000000; fill-opacity:0.0; 
stroke:#000000; stroke-width:0.0000; stroke-opacity:1; 
stroke-linecap:round; stroke-linejoin:round;">
</g>
<g style="fill:#000000; fill-opacity:0.0; 
stroke:#000000; stroke-width:0.0500; stroke-opacity:1; 
stroke-linecap:round; stroke-linejoin:round;">
<path d="M169.5546 113.4904
L170.1498 115.7120
" />
<path d="M169.5546 113.4904
L174.0944 112.2739
" />
<path d="M174.0944 112.2739
L174.6897 114.4956
" />
<path d="M174.6897 114.4956
L170.1498 115.7120
" />
<path d="M202.1768 96.1448
L202.7720 98.3665
" />
<path d="M202.1768 96.1448
L206.7166 94.9284
" />
<path d="M206.7166 94.9284
L207.3119 97.1500
" />
<path d="M207.3119 97.1500
L202.7720 98.3665
" />
<path d="M220.8375 96.2410
L221.4328 98.4626
" />
<path d="M220.8375 96.2410
L225.3774 95.0245
" />
<path d="M225.3774 95.0245
L225.9726 97.2462
" />
<path d="M225.9726 97.2462
L221.4328 98.4626
" />
<path d="M239.4743 96.2479
L240.0696 98.4695
" />
<path d="M239.4743 96.2479
L244.0142 95.0315
" />
<path d="M244.0142 95.0315
L244.6095 97.2531
" />
<path d="M244.6095 97.2531
L240.0696 98.4695
" />
<path d="M258.1351 96.3440
L258.7303 98.5657
" />
<path d="M258.1351 96.3440
L262.6749 95.1276
" />
<path d="M262.6749 95.1276
L263.2702 97.3492
" />
<path d="M263.2702 97.3492
L258.7303 98.5657
" />
<path d="M38.3950 78.8156
L37.7997 81.0372
" />
<path d="M38.3950 78.8156
L42.9349 80.0320
" />
<path d="M42.9349 80.0320
L42.3396 82.2537
" />
<path d="M42.3396 82.2537
L37.7997 81.0372
" />
<path d="M57.0669 78.6779
L56.4716 80.8995
" />
<path d="M57.0669 78.6779
L61.6067 79.8943
" />
<path d="M61.6067 79.8943
L61.0115 82.1160
" />
<path d="M61.0115 82.1160
L56.4716 80.8995
" />
<path d="M75.7036 78.6714
L75.1083 80.8930
" />
<path d="M75.7036 78.6714
L80.2435 79.8878
" />
<path d="M80.2435 79.8878
L79.6482 82.1095
" />
<path d="M79.6482 82.1095
L75.1083 80.8930
" />
<path d="M94.3644 78.5752
L93.7691 80.7969
" />
<path d="M94.3644 78.5752
L98.9042 79.7917
" />
<path d="M98.9042 79.7917
L98.3089 82.0133
" />
<path d="M98.3089 82.0133
L93.7691 80.7969
" />
<path d="M110.6755 87.2480
L110.0802 89.4696
" />
<path d="M110.6755 87.2480
L115.2153 88.4645
" />
<path d="M115.2153 88.4645
L114.6200 90.6861
" />
<path d="M114.6200 90.6861
L110.0802 89.4696
" />
<path d="M126.9866 95.9208
L126.3913 98.1424
" />
<path d="M126.9866 95.9208
L131.5264 97.1372
" />
<path d="M131.5264 97.1372
L130.9311 99.3589
" />
<path d="M130.9311 99.3589
L126.3913 98.1424
" />
<path d="M165.1546 97.0696
L165.7499 99.2913
" />
<path d="M165.1546 97.0696
L169.6945 95.8532
" />
<path d="M169.6945 95.8532
L170.2898 98.0748
" />
<path d="M170.2898 98.0748
L165.7499 99.2913
" />
<path d="M181.4657 88.3969
L182.0610 90.6185
" />
<path d="M181.4657 88.3969
L186.0056 87.1804
" />
<path d="M186.0056 87.1804
L186.6009 89.4021
" />
<path d="M186.6009 89.4021
L182.0610 90.6185
" />
<path d="M197.7768 79.7241
L198.3721 81.9457
" />
<path d="M197.7768 79.7241
L202.3167 78.5076
" />
<path d="M202.3167 78.5076
L202.9120 80.7293
" />
<path d="M202.9120 80.7293
L198.3721 81.9457
" />
<path d="M216.4376 79.8202
L217.0329 82.0419
" />
<path d="M216.4376 79.8202
L220.9774 78.6038
" />
<path d="M220.9774 78.6038
L221.5727 80.8254
" />
<path d="M221.5727 80.8254
L217.0329 82.0419
" />
<path d="M235.0744 79.8271
L235.6697 82.0488
" />
<path d="M235.0744 79.8271
L239.6143 78.6107
" />
<path d="M239.6143 78.6107
L240.2095 80.8323
" />
<path d="M240.2095 80.8323
L235.6697 82.0488
" />
<path d="M253.7351 79.9233
L254.3304 82.1449
" />
<path d="M253.7351 79.9233
L258.2750 78.7068
" />
<path d="M258.2750 78.7068
L258.8703 80.9285
" />
<path d="M258.8703 80.9285
L254.3304 82.1449
" />
<path d="M42.7950 62.3948
L42.1997 64.6165
" />
<path d="M42.7950 62.3948
L47.3348 63.6113
" />
<path d="M47.3348 63.6113
L46.7395 65.8329
" />
<path d="M46.7395 65.8329
L42.1997 64.6165
" />
<path d="M61.4668 62.2571
L60.8715 64.4788
" />
<path d="M61.4668 62.2571
L66.0067 63.4736
" />
<path d="M66.0067 63.4736
L65.4114 65.6952
" />
<path d="M65.4114 65.6952
L60.8715 64.4788
" />
<path d="M80.1035 62.2507
L79.5082 64.4723
" />
<path d="M80.1035 62.2507
L84.6434 63.4671
" />
<path d="M84.6434 63.4671
L84.0481 65.6887
" />
<path d="M84.0481 65.6887
L79.5082 64.4723
" />
<path d="M98.7643 62.1545
L98.1690 64.3761
" />
<path d="M98.7643 62.1545
L103.3041 63.3710
" />
<path d="M103.3041 63.3710
L102.7088 65.5926
" />
<path d="M102.7088 65.5926
L98.1690 64.3761
" />
<path d="M115.0754 70.8273
L114.4801 73.0489
" />
<path d="M115.0754 70.8273
L119.6152 72.0437
" />
<path d="M119.6152 72.0437
L119.0199 74.2654
" />
<path d="M119.0199 74.2654
L114.4801 73.0489
" />
<path d="M131.3865 79.5001
L130.7912 81.7217
" />
<path d="M131.3865 79.5001
L135.9263 80.7165
" />
<path d="M135.9263 80.7165
L135.3310 82.9381
" />
<path d="M135.3310 82.9381
L130.7912 81.7217
" />
<path d="M160.7547 80.6489
L161.3500 82.8705
" />
<path d="M160.7547 80.6489
L165.2945 79.4325
" />
<path d="M165.2945 79.4325
L165.8898 81.6541
" />
<path d="M165.8898 81.6541
L161.3500 82.8705
" />
<path d="M177.0658 71.9761
L177.6611 74.1978
" />
<path d="M177.0658 71.9761
L181.6057 70.7597
" />
<path d="M181.6057 70.7597
L182.2009 72.9813
" />
<path d="M182.2009 72.9813
L177.6611 74.1978
" />
<path d="M193.3769 63.3034
L193.9722 65.5250
" />
<path d="M193.3769 63.3034
L197.9168 62.0869
" />
<path d="M197.9168 62.0869
L198.5121 64.3085
" />
<path d="M198.5121 64.3085
L193.9722 65.5250
" />
<path d="M212.0377 63.3995
L212.6329 65.6211
" />
<path d="M212.0377 63.3995
L216.5775 62.1831
" />
<path d="M216.5775 62.1831
L217.1728 64.4047
" />
<path d="M217.1728 64.4047
L212.6329 65.6211
" />
<path d="M230.6745 63.4064
L231.2698 65.6281
" />
<path d="M230.6745 63.4064
L235.2143 62.1900
" />
<path d="M235.2143 62.1900
L235.8096 64.4116
" />
<path d="M235.8096 64.4116
L231.2698 65.6281
" />
<path d="M249.3352 63.5026
L249.9305 65.7242
" />
<path d="M249.3352 63.5026
L253.8751 62.2861
" />
<path d="M253.8751 62.2861
L254.4703 64.5077
" />
<path d="M254.4703 64.5077
L249.9305 65.7242
" />
<path d="M97.9146 122.0060
L97.9146 124.3060
" />
<path d="M97.9146 122.0060
L102.6146 122.0060
" />
<path d="M102.6146 122.0060
L102.6146 124.3060
" />
<path d="M102.6146 124.3060
L97.9146 124.3060
" />
<path d="M118.1778 128.7927
L117.5825 131.0144
" />
<path d="M118.1778 128.7927
L122.7177 130.0092
" />
<path d="M122.7177 130.0092
L122.1224 132.2308
" />
<path d="M122.1224 132.2308
L117.5825 131.0144
" />
<path d="M137.0006 132.0250
L137.0006 134.3250
" />
<path d="M137.0006 132.0250
L141.7006 132.0250
" />
<path d="M141.7006 132.0250
L141.7006 134.3250
" />
<path d="M141.7006 134.3250
L137.0006 134.3250
" />
<path d="M173.9580 129.9128
L174.5533 132.1344
" />
<path d="M173.9580 129.9128
L178.4979 128.6963
" />
<path d="M178.4979 128.6963
L179.0932 130.9180
" />
<path d="M179.0932 130.9180
L174.5533 132.1344
" />
<path d="M194.0868 122.0057
L194.0868 124.3057
" />
<path d="M194.0868 122.0057
L198.7868 122.0057
" />
<path d="M198.7868 122.0057
L198.7868 124.3057
" />
<path d="M198.7868 124.3057
L194.0868 124.3057
" />
<path d="M33.9951 95.2363
L33.3998 97.4579
" />
<path d="M33.9951 95.2363
L38.5350 96.4528
" />
<path d="M38.5350 96.4528
L37.9397 98.6744
" />
<path d="M37.9397 98.6744
L33.3998 97.4579
" />
<path d="M52.6670 95.0986
L52.0717 97.3203
" />
<path d="M52.6670 95.0986
L57.2068 96.3151
" />
<path d="M57.2068 96.3151
L56.6115 98.5367
" />
<path d="M56.6115 98.5367
L52.0717 97.3203
" />
<path d="M71.3037 95.0921
L70.7084 97.3138
" />
<path d="M71.3037 95.0921
L75.8435 96.3086
" />
<path d="M75.8435 96.3086
L75.2482 98.5302
" />
<path d="M75.2482 98.5302
L70.7084 97.3138
" />
<path d="M89.9644 94.9960
L89.3691 97.2176
" />
<path d="M89.9644 94.9960
L94.5043 96.2124
" />
<path d="M94.5043 96.2124
L93.9090 98.4341
" />
<path d="M93.9090 98.4341
L89.3691 97.2176
" />
<path d="M106.2755 103.6688
L105.6802 105.8904
" />
<path d="M106.2755 103.6688
L110.8154 104.8852
" />
<path d="M110.8154 104.8852
L110.2201 107.1068
" />
<path d="M110.2201 107.1068
L105.6802 105.8904
" />
<path d="M122.5866 112.3415
L121.9914 114.5632
" />
<path d="M122.5866 112.3415
L127.1265 113.5580
" />
<path d="M127.1265 113.5580
L126.5312 115.7796
" />
<path d="M126.5312 115.7796
L121.9914 114.5632
" />
<path d="M185.8657 104.8176
L186.4609 107.0392
" />
<path d="M185.8657 104.8176
L190.4055 103.6012
" />
<path d="M190.4055 103.6012
L191.0008 105.8228
" />
<path d="M191.0008 105.8228
L186.4609 107.0392
" />
<path d="M148.8247 100.8611
L144.9941 115.1568
" />
<path d="M139.1654 98.2729
L148.8247 100.8611
" />
<path d="M139.1654 98.2729
L135.3349 112.5686
" />
<path d="M135.3349 112.5686
L144.9941 115.1568
" />
<path d="M65.8667 45.8364
L65.2714 48.0580
" />
<path d="M65.8667 45.8364
L70.4066 47.0528
" />
<path d="M70.4066 47.0528
L69.8113 49.2745
" />
<path d="M69.8113 49.2745
L65.2714 48.0580
" />
<circle cx="251.2950" cy="95.5751" r="3.7500" /> 
<circle cx="112.6720" cy="124.5718" r="3.7500" /> 
<path d="M156.3548 64.2282
L156.9501 66.4498
" />
<path d="M156.3548 64.2282
L160.8947 63.0117
" />
<path d="M160.8947 63.0117
L161.4900 65.2333
" />
<path d="M161.4900 65.2333
L156.9501 66.4498
" />
<circle cx="242.4951" cy="62.7336" r="3.7500" /> 
<path d="M142.6200 118.7130
L139.3200 118.7130
" />
<path d="M142.6200 117.2530
L142.6200 118.7130
" />
<path d="M139.3200 118.7130
L139.3200 117.2530
" />
<path d="M139.3200 117.2530
L142.6200 117.2530
" />
<path d="M226.2745 46.9857
L226.8698 49.2073
" />
<path d="M226.2745 46.9857
L230.8144 45.7692
" />
<path d="M230.8144 45.7692
L231.4097 47.9908
" />
<path d="M231.4097 47.9908
L226.8698 49.2073
" />
<path d="M172.6659 55.5554
L173.2612 57.7771
" />
<path d="M172.6659 55.5554
L177.2057 54.3390
" />
<path d="M177.2057 54.3390
L177.8010 56.5606
" />
<path d="M177.8010 56.5606
L173.2612 57.7771
" />
<circle cx="187.1396" cy="66.6245" r="3.7500" /> 
<path d="M162.3143 116.7866
L159.1267 117.6407
" />
<path d="M161.9364 115.3764
L162.3143 116.7866
" />
<path d="M159.1267 117.6407
L158.7488 116.2305
" />
<path d="M158.7488 116.2305
L161.9364 115.3764
" />
<path d="M244.9348 47.0816
L245.5301 49.3032
" />
<path d="M244.9348 47.0816
L249.4747 45.8651
" />
<path d="M249.4747 45.8651
L250.0699 48.0867
" />
<path d="M250.0699 48.0867
L245.5301 49.3032
" />
<path d="M119.4753 54.4066
L118.8800 56.6282
" />
<path d="M119.4753 54.4066
L124.0151 55.6230
" />
<path d="M124.0151 55.6230
L123.4198 57.8446
" />
<path d="M123.4198 57.8446
L118.8800 56.6282
" />
<path d="M160.4215 118.8945
L153.0215 118.8945
" />
<path d="M153.0215 118.8945
L153.0215 127.4945
" />
<path d="M160.4215 127.4945
L160.4215 118.8945
" />
<path d="M153.0215 127.4945
L160.4215 127.4945
" />
<path d="M212.0872 116.5235
L212.0872 118.8235
" />
<path d="M212.0872 116.5235
L216.7872 116.5235
" />
<path d="M216.7872 116.5235
L216.7872 118.8235
" />
<path d="M216.7872 118.8235
L212.0872 118.8235
" />
<path d="M135.7864 63.0793
L135.1912 65.3009
" />
<path d="M135.7864 63.0793
L140.3263 64.2958
" />
<path d="M140.3263 64.2958
L139.7310 66.5174
" />
<path d="M139.7310 66.5174
L135.1912 65.3009
" />
<path d="M157.7309 98.2876
L161.5614 112.5833
" />
<path d="M148.0717 100.8758
L157.7309 98.2876
" />
<path d="M148.0717 100.8758
L151.9022 115.1715
" />
<path d="M151.9022 115.1715
L161.5614 112.5833
" />
<path d="M134.9646 119.0445
L134.9646 127.3445
" />
<path d="M134.9646 127.3445
L142.6645 127.3445
" />
<path d="M142.6645 119.0445
L134.9646 119.0445
" />
<path d="M142.6645 127.3445
L142.6645 119.0445
" />
<path d="M188.9770 46.8826
L189.5723 49.1042
" />
<path d="M188.9770 46.8826
L193.5169 45.6662
" />
<path d="M193.5169 45.6662
L194.1122 47.8878
" />
<path d="M194.1122 47.8878
L189.5723 49.1042
" />
<path d="M84.5035 45.8299
L83.9082 48.0515
" />
<path d="M84.5035 45.8299
L89.0433 47.0463
" />
<path d="M89.0433 47.0463
L88.4480 49.2680
" />
<path d="M88.4480 49.2680
L83.9082 48.0515
" />
<circle cx="54.1950" cy="62.6925" r="3.7500" /> 
<path d="M79.9146 116.5240
L79.9146 118.8240
" />
<path d="M79.9146 116.5240
L84.6146 116.5240
" />
<path d="M84.6146 116.5240
L84.6146 118.8240
" />
<path d="M84.6146 118.8240
L79.9146 118.8240
" />
<path d="M103.1642 45.7337
L102.5689 47.9554
" />
<path d="M103.1642 45.7337
L107.7041 46.9502
" />
<path d="M107.7041 46.9502
L107.1088 49.1718
" />
<path d="M107.1088 49.1718
L102.5689 47.9554
" />
<path d="M47.1949 45.9741
L46.5997 48.1957
" />
<path d="M47.1949 45.9741
L51.7348 47.1905
" />
<path d="M51.7348 47.1905
L51.1395 49.4121
" />
<path d="M51.1395 49.4121
L46.5997 48.1957
" />
<path d="M161.5487 114.4511
L158.3612 115.3052
" />
<path d="M161.1708 113.0408
L161.5487 114.4511
" />
<path d="M158.3612 115.3052
L157.9833 113.8949
" />
<path d="M157.9833 113.8949
L161.1708 113.0408
" />
<circle cx="109.5392" cy="66.6246" r="3.7500" /> 
<path d="M207.6377 46.9787
L208.2330 49.2004
" />
<path d="M207.6377 46.9787
L212.1776 45.7623
" />
<path d="M212.1776 45.7623
L212.7728 47.9839
" />
<path d="M212.7728 47.9839
L208.2330 49.2004
" />
<circle cx="184.0071" cy="124.5717" r="3.7500" /> 
<path d="M155.0006 132.0250
L155.0006 134.3250
" />
<path d="M155.0006 132.0250
L159.7006 132.0250
" />
<path d="M159.7006 132.0250
L159.7006 134.3250
" />
<path d="M159.7006 134.3250
L155.0006 134.3250
" />
<circle cx="45.3951" cy="95.5340" r="3.7500" /> 
<path d="M214.5617 106.2303
L201.0387 109.8537
" />
<path d="M210.9382 92.7073
L214.5617 106.2303
" />
<path d="M201.0387 109.8537
L197.4153 96.3308
" />
<path d="M197.4153 96.3308
L210.9382 92.7073
" />
<path d="M233.2224 106.3264
L219.6995 109.9499
" />
<path d="M229.5990 92.8034
L233.2224 106.3264
" />
<path d="M219.6995 109.9499
L216.0760 96.4269
" />
<path d="M216.0760 96.4269
L229.5990 92.8034
" />
<path d="M251.8593 106.3333
L238.3363 109.9568
" />
<path d="M248.2358 92.8103
L251.8593 106.3333
" />
<path d="M238.3363 109.9568
L234.7128 96.4338
" />
<path d="M234.7128 96.4338
L248.2358 92.8103
" />
<path d="M270.5200 106.4295
L256.9970 110.0529
" />
<path d="M266.8965 92.9065
L270.5200 106.4295
" />
<path d="M256.9970 110.0529
L253.3736 96.5300
" />
<path d="M253.3736 96.5300
L266.8965 92.9065
" />
<path d="M44.0930 93.6733
L30.5700 90.0498
" />
<path d="M47.7165 80.1504
L44.0930 93.6733
" />
<path d="M30.5700 90.0498
L34.1935 76.5269
" />
<path d="M34.1935 76.5269
L47.7165 80.1504
" />
<path d="M62.7649 93.5356
L49.2419 89.9122
" />
<path d="M66.3883 80.0127
L62.7649 93.5356
" />
<path d="M49.2419 89.9122
L52.8654 76.3892
" />
<path d="M52.8654 76.3892
L66.3883 80.0127
" />
<path d="M81.4016 93.5291
L67.8786 89.9057
" />
<path d="M85.0250 80.0062
L81.4016 93.5291
" />
<path d="M67.8786 89.9057
L71.5021 76.3827
" />
<path d="M71.5021 76.3827
L85.0250 80.0062
" />
<path d="M116.3734 102.1057
L102.8505 98.4823
" />
<path d="M119.9969 88.5828
L116.3734 102.1057
" />
<path d="M102.8505 98.4823
L106.4739 84.9593
" />
<path d="M106.4739 84.9593
L119.9969 88.5828
" />
<path d="M132.6845 110.7785
L119.1616 107.1551
" />
<path d="M136.3080 97.2556
L132.6845 110.7785
" />
<path d="M119.1616 107.1551
L122.7850 93.6321
" />
<path d="M122.7850 93.6321
L136.3080 97.2556
" />
<path d="M177.5396 107.1551
L164.0166 110.7785
" />
<path d="M173.9161 93.6321
L177.5396 107.1551
" />
<path d="M164.0166 110.7785
L160.3931 97.2556
" />
<path d="M160.3931 97.2556
L173.9161 93.6321
" />
<path d="M137.0844 94.3578
L123.5615 90.7343
" />
<path d="M140.7079 80.8348
L137.0844 94.3578
" />
<path d="M123.5615 90.7343
L127.1850 77.2114
" />
<path d="M127.1850 77.2114
L140.7079 80.8348
" />
<path d="M100.0623 93.4330
L86.5393 89.8095
" />
<path d="M103.6858 79.9100
L100.0623 93.4330
" />
<path d="M86.5393 89.8095
L90.1628 76.2866
" />
<path d="M90.1628 76.2866
L103.6858 79.9100
" />
<path d="M193.8507 98.4823
L180.3277 102.1058
" />
<path d="M190.2272 84.9593
L193.8507 98.4823
" />
<path d="M180.3277 102.1058
L176.7042 88.5828
" />
<path d="M176.7042 88.5828
L190.2272 84.9593
" />
<path d="M210.1618 89.8095
L196.6388 93.4330
" />
<path d="M206.5383 76.2866
L210.1618 89.8095
" />
<path d="M196.6388 93.4330
L193.0154 79.9100
" />
<path d="M193.0154 79.9100
L206.5383 76.2866
" />
<path d="M228.8225 89.9057
L215.2996 93.5291
" />
<path d="M225.1991 76.3827
L228.8225 89.9057
" />
<path d="M215.2996 93.5291
L211.6761 80.0062
" />
<path d="M211.6761 80.0062
L225.1991 76.3827
" />
<path d="M247.4593 89.9126
L233.9364 93.5360
" />
<path d="M243.8359 76.3896
L247.4593 89.9126
" />
<path d="M233.9364 93.5360
L230.3129 80.0131
" />
<path d="M230.3129 80.0131
L243.8359 76.3896
" />
<path d="M266.1201 90.0087
L252.5971 93.6322
" />
<path d="M262.4966 76.4858
L266.1201 90.0087
" />
<path d="M252.5971 93.6322
L248.9737 80.1092
" />
<path d="M248.9737 80.1092
L262.4966 76.4858
" />
<path d="M48.4929 77.2526
L34.9700 73.6291
" />
<path d="M52.1164 63.7296
L48.4929 77.2526
" />
<path d="M34.9700 73.6291
L38.5934 60.1061
" />
<path d="M38.5934 60.1061
L52.1164 63.7296
" />
<path d="M186.3394 139.9962
L172.8165 143.6197
" />
<path d="M182.7160 126.4733
L186.3394 139.9962
" />
<path d="M172.8165 143.6197
L169.1930 130.0967
" />
<path d="M169.1930 130.0967
L182.7160 126.4733
" />
<path d="M67.1648 77.1149
L53.6418 73.4914
" />
<path d="M70.7883 63.5919
L67.1648 77.1149
" />
<path d="M53.6418 73.4914
L57.2653 59.9685
" />
<path d="M57.2653 59.9685
L70.7883 63.5919
" />
<path d="M261.7201 73.5880
L248.1972 77.2114
" />
<path d="M258.0967 60.0650
L261.7201 73.5880
" />
<path d="M248.1972 77.2114
L244.5737 63.6885
" />
<path d="M244.5737 63.6885
L258.0967 60.0650
" />
<path d="M189.4508 82.0615
L175.9278 85.6850
" />
<path d="M185.8273 68.5386
L189.4508 82.0615
" />
<path d="M175.9278 85.6850
L172.3043 72.1621
" />
<path d="M172.3043 72.1621
L185.8273 68.5386
" />
<path d="M205.7619 73.3888
L192.2389 77.0122
" />
<path d="M202.1384 59.8658
L205.7619 73.3888
" />
<path d="M192.2389 77.0122
L188.6154 63.4893
" />
<path d="M188.6154 63.4893
L202.1384 59.8658
" />
<path d="M120.7733 85.6850
L107.2504 82.0615
" />
<path d="M124.3968 72.1620
L120.7733 85.6850
" />
<path d="M107.2504 82.0615
L110.8739 68.5386
" />
<path d="M110.8739 68.5386
L124.3968 72.1620
" />
<path d="M128.2846 127.1993
L114.7616 123.5758
" />
<path d="M131.9081 113.6763
L128.2846 127.1993
" />
<path d="M114.7616 123.5758
L118.3851 110.0528
" />
<path d="M118.3851 110.0528
L131.9081 113.6763
" />
<path d="M243.0594 73.4918
L229.5365 77.1153
" />
<path d="M239.4360 59.9689
L243.0594 73.4918
" />
<path d="M229.5365 77.1153
L225.9130 63.5923
" />
<path d="M225.9130 63.5923
L239.4360 59.9689
" />
<path d="M85.8015 77.1084
L72.2785 73.4849
" />
<path d="M89.4250 63.5854
L85.8015 77.1084
" />
<path d="M72.2785 73.4849
L75.9020 59.9620
" />
<path d="M75.9020 59.9620
L89.4250 63.5854
" />
<path d="M104.4622 77.0122
L90.9393 73.3888
" />
<path d="M108.0857 63.4893
L104.4622 77.0122
" />
<path d="M90.9393 73.3888
L94.5627 59.8658
" />
<path d="M94.5627 59.8658
L108.0857 63.4893
" />
<path d="M39.6931 110.0941
L26.1701 106.4706
" />
<path d="M43.3165 96.5711
L39.6931 110.0941
" />
<path d="M26.1701 106.4706
L29.7936 92.9476
" />
<path d="M29.7936 92.9476
L43.3165 96.5711
" />
<path d="M58.3649 109.9564
L44.8420 106.3329
" />
<path d="M61.9884 96.4334
L58.3649 109.9564
" />
<path d="M44.8420 106.3329
L48.4654 92.8099
" />
<path d="M48.4654 92.8099
L61.9884 96.4334
" />
<path d="M77.0017 109.9499
L63.4787 106.3264
" />
<path d="M80.6251 96.4269
L77.0017 109.9499
" />
<path d="M63.4787 106.3264
L67.1022 92.8034
" />
<path d="M67.1022 92.8034
L80.6251 96.4269
" />
<path d="M95.6624 109.8537
L82.1394 106.2303
" />
<path d="M99.2859 96.3308
L95.6624 109.8537
" />
<path d="M82.1394 106.2303
L85.7629 92.7073
" />
<path d="M85.7629 92.7073
L99.2859 96.3308
" />
<path d="M111.9735 118.5265
L98.4505 114.9030
" />
<path d="M115.5970 105.0035
L111.9735 118.5265
" />
<path d="M98.4505 114.9030
L102.0740 101.3801
" />
<path d="M102.0740 101.3801
L115.5970 105.0035
" />
<path d="M181.9395 123.5758
L168.4165 127.1993
" />
<path d="M178.3160 110.0528
L181.9395 123.5758
" />
<path d="M168.4165 127.1993
L164.7931 113.6763
" />
<path d="M164.7931 113.6763
L178.3160 110.0528
" />
<path d="M198.2506 114.9030
L184.7276 118.5265
" />
<path d="M194.6271 101.3801
L198.2506 114.9030
" />
<path d="M184.7276 118.5265
L181.1042 105.0035
" />
<path d="M181.1042 105.0035
L194.6271 101.3801
" />
<path d="M224.4226 73.4849
L210.8996 77.1084
" />
<path d="M220.7991 59.9620
L224.4226 73.4849
" />
<path d="M210.8996 77.1084
L207.2762 63.5854
" />
<path d="M207.2762 63.5854
L220.7991 59.9620
" />
<path d="M173.1396 90.7343
L159.6167 94.3578
" />
<path d="M169.5162 77.2114
L173.1396 90.7343
" />
<path d="M159.6167 94.3578
L155.9932 80.8348
" />
<path d="M155.9932 80.8348
L169.5162 77.2114
" />
<path d="M203.4368 134.8507
L189.4368 134.8507
" />
<path d="M203.4368 120.8507
L203.4368 134.8507
" />
<path d="M189.4368 134.8507
L189.4368 120.8507
" />
<path d="M189.4368 120.8507
L203.4368 120.8507
" />
<path d="M123.8847 143.6200
L110.3617 139.9965
" />
<path d="M127.5082 130.0970
L123.8847 143.6200
" />
<path d="M110.3617 139.9965
L113.9852 126.4736
" />
<path d="M113.9852 126.4736
L127.5082 130.0970
" />
<path d="M107.2646 134.8510
L93.2646 134.8510
" />
<path d="M107.2646 120.8510
L107.2646 134.8510
" />
<path d="M93.2646 134.8510
L93.2646 120.8510
" />
<path d="M93.2646 120.8510
L107.2646 120.8510
" />
<path d="M146.3506 144.8245
L132.3506 144.8245
" />
<path d="M146.3506 130.8245
L146.3506 144.8245
" />
<path d="M132.3506 144.8245
L132.3506 130.8245
" />
<path d="M132.3506 130.8245
L146.3506 130.8245
" />
<path d="M221.4372 129.3685
L207.4372 129.3685
" />
<path d="M221.4372 115.3685
L221.4372 129.3685
" />
<path d="M207.4372 129.3685
L207.4372 115.3685
" />
<path d="M207.4372 115.3685
L221.4372 115.3685
" />
<path d="M238.6595 57.0711
L225.1365 60.6945
" />
<path d="M235.0360 43.5481
L238.6595 57.0711
" />
<path d="M225.1365 60.6945
L221.5131 47.1716
" />
<path d="M221.5131 47.1716
L235.0360 43.5481
" />
<path d="M257.3203 57.1672
L243.7973 60.7907
" />
<path d="M253.6968 43.6443
L257.3203 57.1672
" />
<path d="M243.7973 60.7907
L240.1738 47.2677
" />
<path d="M240.1738 47.2677
L253.6968 43.6443
" />
<path d="M90.2014 60.6876
L76.6785 57.0641
" />
<path d="M93.8249 47.1647
L90.2014 60.6876
" />
<path d="M76.6785 57.0641
L80.3019 43.5412
" />
<path d="M80.3019 43.5412
L93.8249 47.1647
" />
<path d="M89.2646 129.3690
L75.2646 129.3690
" />
<path d="M89.2646 115.3690
L89.2646 129.3690
" />
<path d="M75.2646 129.3690
L75.2646 115.3690
" />
<path d="M75.2646 115.3690
L89.2646 115.3690
" />
<path d="M52.8929 60.8318
L39.3699 57.2083
" />
<path d="M56.5164 47.3088
L52.8929 60.8318
" />
<path d="M39.3699 57.2083
L42.9934 43.6854
" />
<path d="M42.9934 43.6854
L56.5164 47.3088
" />
<path d="M201.3620 56.9680
L187.8390 60.5915
" />
<path d="M197.7385 43.4450
L201.3620 56.9680
" />
<path d="M187.8390 60.5915
L184.2156 47.0685
" />
<path d="M184.2156 47.0685
L197.7385 43.4450
" />
<path d="M168.7398 74.3136
L155.2168 77.9370
" />
<path d="M165.1163 60.7906
L168.7398 74.3136
" />
<path d="M155.2168 77.9370
L151.5933 64.4141
" />
<path d="M151.5933 64.4141
L165.1163 60.7906
" />
<path d="M125.1733 69.2643
L111.6503 65.6408
" />
<path d="M128.7967 55.7413
L125.1733 69.2643
" />
<path d="M111.6503 65.6408
L115.2738 52.1179
" />
<path d="M115.2738 52.1179
L128.7967 55.7413
" />
<path d="M71.5647 60.6941
L58.0417 57.0706
" />
<path d="M75.1882 47.1711
L71.5647 60.6941
" />
<path d="M58.0417 57.0706
L61.6652 43.5477
" />
<path d="M61.6652 43.5477
L75.1882 47.1711
" />
<path d="M108.8622 60.5915
L95.3392 56.9680
" />
<path d="M112.4857 47.0685
L108.8622 60.5915
" />
<path d="M95.3392 56.9680
L98.9627 43.4450
" />
<path d="M98.9627 43.4450
L112.4857 47.0685
" />
<path d="M220.0226 57.0642
L206.4997 60.6876
" />
<path d="M216.3992 43.5412
L220.0226 57.0642
" />
<path d="M206.4997 60.6876
L202.8762 47.1647
" />
<path d="M202.8762 47.1647
L216.3992 43.5412
" />
<path d="M185.0508 65.6408
L171.5279 69.2643
" />
<path d="M181.4274 52.1179
L185.0508 65.6408
" />
<path d="M171.5279 69.2643
L167.9044 55.7414
" />
<path d="M167.9044 55.7414
L181.4274 52.1179
" />
<path d="M164.3506 144.8245
L150.3506 144.8245
" />
<path d="M164.3506 130.8245
L164.3506 144.8245
" />
<path d="M150.3506 144.8245
L150.3506 130.8245
" />
<path d="M150.3506 130.8245
L164.3506 130.8245
" />
<path d="M141.4844 77.9370
L127.9614 74.3136
" />
<path d="M145.1079 64.4141
L141.4844 77.9370
" />
<path d="M127.9614 74.3136
L131.5849 60.7906
" />
<path d="M131.5849 60.7906
L145.1079 64.4141
" />
<g >
</g>
<g >
</g>
<g >
</g>
<g >
</g>
<g >
</g>
<g >
</g>
<g >
</g>
<g >
</g>
<g >
</g>
<g >
</g>
<g >
</g>
<g >
</g>
<g >
</g>
<g >
</g>
<g >
</g>
<g >
</g>
<g >
</g>
<g >
</g>
<g >
</g>
<g >
</g>
<g >
</g>
<g >
</g>
<g >
</g>
<g >
</g>
<g >
</g>
<g >
</g>
<g >
</g>
<g >
</g>
<g >
</g>
<g >
</g>
<g >
</g>
<g >
</g>
<g >
</g>
<g >
</g>
<g >
</g>
<g >
</g>
<g >
</g>
<g >
</g>
<g >
</g>
<g >
</g>
<g >
</g>
<g >
</g>
<g >
</g>
<g >
</g>
<g >
</g>
<g >
</g>
<g >
</g>
<g >
</g>
<g >
</g>
<g >
</g>
<g >
</g>
<g >
</g>
<g >
</g>
<g >
</g>
<g >
</g>
<g >
</g>
<g >
</g>
<g >
</g>
<g >
</g>
<g >
</g>
<g >
</g>
<g >
</g>
<g >
</g>
<g >
</g>
<g >
</g>
<g >
</g>
<g >
</g>
<g >
</g>
<g >
</g>
<g >
</g>
<g >
</g>
<g >
</g>
<g >
</g>
<g >
</g>
<g >
</g>
<g >
</g>
<g >
</g>
<g >
</g>
<g >
</g>
<g >
</g>
<g >
</g>
<g >
</g>
<g >
</g>
<g >
</g>
<g >
</g>
<g >
</g>
<g >
</g>
<g >
</g>
<g >
</g>
<g >
</g>
<g >
</g>
<g >
</g>
<g >
</g>
<g >
</g>
<g >
</g>
<g >
</g>
<g >
</g>
<g >
</g>
<g >
</g>
<g >
</g>
<g >
</g>
<g >
</g>
<g >
</g>
<g >
</g>
<g >
</g>
<g >
</g>
<g >
</g>
<g >
</g>
<g >
</g>
<g >
</g>
<g >
</g>
<g >
</g>
<g >
</g>
<g >
</g>
<g >
</g>
<g >
</g>
<g >
</g>
<g >
</g>
<g >
</g>
<g >
</g>
<g >
</g>
<g >
</g>
<g >
</g>
<g >
</g>
<g >
</g>
<g >
</g>
<g >
</g>
<g >
</g>
<g >
</g>
<g >
</g>
<g >
</g>
<g >
</g>
<g >
</g>
<g >
</g>
</g> 
</svg>
