<?xml version="1.0" standalone="no"?>
 <!DOCTYPE svg PUBLIC "-//W3C//DTD SVG 1.1//EN" 
 "http://www.w3.org/Graphics/SVG/1.1/DTD/svg11.dtd"> 
<svg
  xmlns:svg="http://www.w3.org/2000/svg"
  xmlns="http://www.w3.org/2000/svg"
  xmlns:xlink="http://www.w3.org/1999/xlink"
  version="1.1"
  width="297.0022mm" height="210.0072mm" viewBox="0.0000 0.0000 297.0022 210.0072">
<title>SVG Image created as basic60-B_Paste.svg date 2023/12/21 23:37:39 </title>
  <desc>Image generated by PCBNEW </desc>
<g style="fill:#000000; fill-opacity:1.0000;stroke:#000000; stroke-opacity:1.0000;
stroke-linecap:round; stroke-linejoin:round;"
 transform="translate(0 0) scale(1 1)">
</g>
<g style="fill:#000000; fill-opacity:0.0; 
stroke:#000000; stroke-width:0.0000; stroke-opacity:1; 
stroke-linecap:round; stroke-linejoin:round;">
<g >
</g>
<g >
</g>
<g >
</g>
<g >
</g>
<g >
</g>
<g >
</g>
<g >
</g>
<g >
</g>
<g >
</g>
<g >
</g>
<g >
</g>
<g >
</g>
<g >
</g>
<g >
</g>
<g >
</g>
<g >
</g>
<g >
</g>
<g >
</g>
<g >
</g>
<g >
</g>
<g >
</g>
<g >
</g>
<g >
</g>
<g >
</g>
<g >
</g>
<g >
</g>
<g >
</g>
<g >
</g>
<g >
</g>
<g >
</g>
<g >
</g>
<g >
</g>
<g >
</g>
<g >
</g>
<g >
</g>
<g >
</g>
<g >
</g>
<g >
</g>
<g >
</g>
<g >
</g>
<g >
</g>
<g >
</g>
<g >
</g>
<g >
</g>
<g >
</g>
<g >
</g>
<g >
</g>
<g >
</g>
<g >
</g>
<g >
</g>
<g >
</g>
<g >
</g>
<g >
</g>
<g >
</g>
<g >
</g>
<g >
</g>
<g >
</g>
<g >
</g>
<g >
</g>
<g >
</g>
<g >
</g>
<g >
</g>
<g >
</g>
<g >
</g>
<g >
</g>
<g >
</g>
<g >
</g>
<g >
</g>
<g >
</g>
<g >
</g>
<g >
</g>
<g >
</g>
<g >
</g>
<g >
</g>
<g >
</g>
<g >
</g>
<g >
</g>
<g >
</g>
<g style="fill:#000000; fill-opacity:0.0; 
stroke:#000000; stroke-width:0.0000; stroke-opacity:1; 
stroke-linecap:round; stroke-linejoin:round;">
</g>
<g style="fill:#000000; fill-opacity:0.0; 
stroke:#000000; stroke-width:0.0000; stroke-opacity:1; 
stroke-linecap:round; stroke-linejoin:round;">
</g>
<g style="fill:#000000; fill-opacity:1.0000; 
stroke:#000000; stroke-width:0.0000; stroke-opacity:1; 
stroke-linecap:round; stroke-linejoin:round;">
<path style="fill:#000000; fill-opacity:1.0000; 
stroke:#000000; stroke-width:0.0000; stroke-opacity:1; 
stroke-linecap:round; stroke-linejoin:round;fill-rule:evenodd;"
d="M 184.8322,104.7745
184.8124,104.6750
184.7560,104.5906
184.6717,104.5343
184.5722,104.5145
182.4422,104.5145
182.3427,104.5343
182.2584,104.5906
182.2020,104.6750
182.1822,104.7745
182.1822,106.8545
182.2020,106.9540
182.2584,107.0383
182.3427,107.0947
182.4422,107.1145
184.5722,107.1145
184.6717,107.0947
184.7560,107.0383
184.8124,106.9540
184.8322,106.8545
Z" /> 
<path style="fill:#000000; fill-opacity:1.0000; 
stroke:#000000; stroke-width:0.0000; stroke-opacity:1; 
stroke-linecap:round; stroke-linejoin:round;fill-rule:evenodd;"
d="M 196.3222,102.5745
196.3024,102.4750
196.2460,102.3906
196.1617,102.3343
196.0622,102.3145
193.9322,102.3145
193.8327,102.3343
193.7484,102.3906
193.6920,102.4750
193.6722,102.5745
193.6722,104.6545
193.6920,104.7540
193.7484,104.8383
193.8327,104.8947
193.9322,104.9145
196.0622,104.9145
196.1617,104.8947
196.2460,104.8383
196.3024,104.7540
196.3222,104.6545
Z" /> 
</g>
<g >
</g>
<g style="fill:#000000; fill-opacity:1.0000; 
stroke:#000000; stroke-width:0.0000; stroke-opacity:1; 
stroke-linecap:round; stroke-linejoin:round;">
<path style="fill:#000000; fill-opacity:1.0000; 
stroke:#000000; stroke-width:0.0000; stroke-opacity:1; 
stroke-linecap:round; stroke-linejoin:round;fill-rule:evenodd;"
d="M 202.8322,104.7745
202.8124,104.6750
202.7560,104.5906
202.6717,104.5343
202.5722,104.5145
200.4422,104.5145
200.3427,104.5343
200.2584,104.5906
200.2020,104.6750
200.1822,104.7745
200.1822,106.8545
200.2020,106.9540
200.2584,107.0383
200.3427,107.0947
200.4422,107.1145
202.5722,107.1145
202.6717,107.0947
202.7560,107.0383
202.8124,106.9540
202.8322,106.8545
Z" /> 
<path style="fill:#000000; fill-opacity:1.0000; 
stroke:#000000; stroke-width:0.0000; stroke-opacity:1; 
stroke-linecap:round; stroke-linejoin:round;fill-rule:evenodd;"
d="M 214.3222,102.5745
214.3024,102.4750
214.2460,102.3906
214.1617,102.3343
214.0622,102.3145
211.9322,102.3145
211.8327,102.3343
211.7484,102.3906
211.6920,102.4750
211.6722,102.5745
211.6722,104.6545
211.6920,104.7540
211.7484,104.8383
211.8327,104.8947
211.9322,104.9145
214.0622,104.9145
214.1617,104.8947
214.2460,104.8383
214.3024,104.7540
214.3222,104.6545
Z" /> 
</g>
<g >
</g>
<g style="fill:#000000; fill-opacity:1.0000; 
stroke:#000000; stroke-width:0.0000; stroke-opacity:1; 
stroke-linecap:round; stroke-linejoin:round;">
<path style="fill:#000000; fill-opacity:1.0000; 
stroke:#000000; stroke-width:0.0000; stroke-opacity:1; 
stroke-linecap:round; stroke-linejoin:round;fill-rule:evenodd;"
d="M 220.8322,104.7745
220.8124,104.6750
220.7560,104.5906
220.6717,104.5343
220.5722,104.5145
218.4422,104.5145
218.3427,104.5343
218.2584,104.5906
218.2020,104.6750
218.1822,104.7745
218.1822,106.8545
218.2020,106.9540
218.2584,107.0383
218.3427,107.0947
218.4422,107.1145
220.5722,107.1145
220.6717,107.0947
220.7560,107.0383
220.8124,106.9540
220.8322,106.8545
Z" /> 
<path style="fill:#000000; fill-opacity:1.0000; 
stroke:#000000; stroke-width:0.0000; stroke-opacity:1; 
stroke-linecap:round; stroke-linejoin:round;fill-rule:evenodd;"
d="M 232.3222,102.5745
232.3024,102.4750
232.2460,102.3906
232.1617,102.3343
232.0622,102.3145
229.9322,102.3145
229.8327,102.3343
229.7484,102.3906
229.6920,102.4750
229.6722,102.5745
229.6722,104.6545
229.6920,104.7540
229.7484,104.8383
229.8327,104.8947
229.9322,104.9145
232.0622,104.9145
232.1617,104.8947
232.2460,104.8383
232.3024,104.7540
232.3222,104.6545
Z" /> 
</g>
<g >
</g>
<g style="fill:#000000; fill-opacity:1.0000; 
stroke:#000000; stroke-width:0.0000; stroke-opacity:1; 
stroke-linecap:round; stroke-linejoin:round;">
<path style="fill:#000000; fill-opacity:1.0000; 
stroke:#000000; stroke-width:0.0000; stroke-opacity:1; 
stroke-linecap:round; stroke-linejoin:round;fill-rule:evenodd;"
d="M 238.8322,104.7745
238.8124,104.6750
238.7560,104.5906
238.6717,104.5343
238.5722,104.5145
236.4422,104.5145
236.3427,104.5343
236.2584,104.5906
236.2020,104.6750
236.1822,104.7745
236.1822,106.8545
236.2020,106.9540
236.2584,107.0383
236.3427,107.0947
236.4422,107.1145
238.5722,107.1145
238.6717,107.0947
238.7560,107.0383
238.8124,106.9540
238.8322,106.8545
Z" /> 
<path style="fill:#000000; fill-opacity:1.0000; 
stroke:#000000; stroke-width:0.0000; stroke-opacity:1; 
stroke-linecap:round; stroke-linejoin:round;fill-rule:evenodd;"
d="M 250.3222,102.5745
250.3024,102.4750
250.2460,102.3906
250.1617,102.3343
250.0622,102.3145
247.9322,102.3145
247.8327,102.3343
247.7484,102.3906
247.6920,102.4750
247.6722,102.5745
247.6722,104.6545
247.6920,104.7540
247.7484,104.8383
247.8327,104.8947
247.9322,104.9145
250.0622,104.9145
250.1617,104.8947
250.2460,104.8383
250.3024,104.7540
250.3222,104.6545
Z" /> 
</g>
<g >
</g>
<g style="fill:#000000; fill-opacity:1.0000; 
stroke:#000000; stroke-width:0.0000; stroke-opacity:1; 
stroke-linecap:round; stroke-linejoin:round;">
<path style="fill:#000000; fill-opacity:1.0000; 
stroke:#000000; stroke-width:0.0000; stroke-opacity:1; 
stroke-linecap:round; stroke-linejoin:round;fill-rule:evenodd;"
d="M 40.8322,87.7745
40.8124,87.6750
40.7560,87.5906
40.6717,87.5343
40.5722,87.5145
38.4422,87.5145
38.3427,87.5343
38.2584,87.5906
38.2020,87.6750
38.1822,87.7745
38.1822,89.8545
38.2020,89.9540
38.2584,90.0383
38.3427,90.0947
38.4422,90.1145
40.5722,90.1145
40.6717,90.0947
40.7560,90.0383
40.8124,89.9540
40.8322,89.8545
Z" /> 
<path style="fill:#000000; fill-opacity:1.0000; 
stroke:#000000; stroke-width:0.0000; stroke-opacity:1; 
stroke-linecap:round; stroke-linejoin:round;fill-rule:evenodd;"
d="M 52.3222,85.5745
52.3024,85.4750
52.2460,85.3906
52.1617,85.3343
52.0622,85.3145
49.9322,85.3145
49.8327,85.3343
49.7484,85.3906
49.6920,85.4750
49.6722,85.5745
49.6722,87.6545
49.6920,87.7540
49.7484,87.8383
49.8327,87.8947
49.9322,87.9145
52.0622,87.9145
52.1617,87.8947
52.2460,87.8383
52.3024,87.7540
52.3222,87.6545
Z" /> 
</g>
<g >
</g>
<g style="fill:#000000; fill-opacity:1.0000; 
stroke:#000000; stroke-width:0.0000; stroke-opacity:1; 
stroke-linecap:round; stroke-linejoin:round;">
<path style="fill:#000000; fill-opacity:1.0000; 
stroke:#000000; stroke-width:0.0000; stroke-opacity:1; 
stroke-linecap:round; stroke-linejoin:round;fill-rule:evenodd;"
d="M 58.8322,87.7745
58.8124,87.6750
58.7560,87.5906
58.6717,87.5343
58.5722,87.5145
56.4422,87.5145
56.3427,87.5343
56.2584,87.5906
56.2020,87.6750
56.1822,87.7745
56.1822,89.8545
56.2020,89.9540
56.2584,90.0383
56.3427,90.0947
56.4422,90.1145
58.5722,90.1145
58.6717,90.0947
58.7560,90.0383
58.8124,89.9540
58.8322,89.8545
Z" /> 
<path style="fill:#000000; fill-opacity:1.0000; 
stroke:#000000; stroke-width:0.0000; stroke-opacity:1; 
stroke-linecap:round; stroke-linejoin:round;fill-rule:evenodd;"
d="M 70.3222,85.5745
70.3024,85.4750
70.2460,85.3906
70.1617,85.3343
70.0622,85.3145
67.9322,85.3145
67.8327,85.3343
67.7484,85.3906
67.6920,85.4750
67.6722,85.5745
67.6722,87.6545
67.6920,87.7540
67.7484,87.8383
67.8327,87.8947
67.9322,87.9145
70.0622,87.9145
70.1617,87.8947
70.2460,87.8383
70.3024,87.7540
70.3222,87.6545
Z" /> 
</g>
<g >
</g>
<g style="fill:#000000; fill-opacity:1.0000; 
stroke:#000000; stroke-width:0.0000; stroke-opacity:1; 
stroke-linecap:round; stroke-linejoin:round;">
<path style="fill:#000000; fill-opacity:1.0000; 
stroke:#000000; stroke-width:0.0000; stroke-opacity:1; 
stroke-linecap:round; stroke-linejoin:round;fill-rule:evenodd;"
d="M 76.8322,87.7745
76.8124,87.6750
76.7560,87.5906
76.6717,87.5343
76.5722,87.5145
74.4422,87.5145
74.3427,87.5343
74.2584,87.5906
74.2020,87.6750
74.1822,87.7745
74.1822,89.8545
74.2020,89.9540
74.2584,90.0383
74.3427,90.0947
74.4422,90.1145
76.5722,90.1145
76.6717,90.0947
76.7560,90.0383
76.8124,89.9540
76.8322,89.8545
Z" /> 
<path style="fill:#000000; fill-opacity:1.0000; 
stroke:#000000; stroke-width:0.0000; stroke-opacity:1; 
stroke-linecap:round; stroke-linejoin:round;fill-rule:evenodd;"
d="M 88.3222,85.5745
88.3024,85.4750
88.2460,85.3906
88.1617,85.3343
88.0622,85.3145
85.9322,85.3145
85.8327,85.3343
85.7484,85.3906
85.6920,85.4750
85.6722,85.5745
85.6722,87.6545
85.6920,87.7540
85.7484,87.8383
85.8327,87.8947
85.9322,87.9145
88.0622,87.9145
88.1617,87.8947
88.2460,87.8383
88.3024,87.7540
88.3222,87.6545
Z" /> 
</g>
<g >
</g>
<g style="fill:#000000; fill-opacity:1.0000; 
stroke:#000000; stroke-width:0.0000; stroke-opacity:1; 
stroke-linecap:round; stroke-linejoin:round;">
<path style="fill:#000000; fill-opacity:1.0000; 
stroke:#000000; stroke-width:0.0000; stroke-opacity:1; 
stroke-linecap:round; stroke-linejoin:round;fill-rule:evenodd;"
d="M 112.8322,87.7745
112.8124,87.6750
112.7560,87.5906
112.6717,87.5343
112.5722,87.5145
110.4422,87.5145
110.3427,87.5343
110.2584,87.5906
110.2020,87.6750
110.1822,87.7745
110.1822,89.8545
110.2020,89.9540
110.2584,90.0383
110.3427,90.0947
110.4422,90.1145
112.5722,90.1145
112.6717,90.0947
112.7560,90.0383
112.8124,89.9540
112.8322,89.8545
Z" /> 
<path style="fill:#000000; fill-opacity:1.0000; 
stroke:#000000; stroke-width:0.0000; stroke-opacity:1; 
stroke-linecap:round; stroke-linejoin:round;fill-rule:evenodd;"
d="M 124.3222,85.5745
124.3024,85.4750
124.2460,85.3906
124.1617,85.3343
124.0622,85.3145
121.9322,85.3145
121.8327,85.3343
121.7484,85.3906
121.6920,85.4750
121.6722,85.5745
121.6722,87.6545
121.6920,87.7540
121.7484,87.8383
121.8327,87.8947
121.9322,87.9145
124.0622,87.9145
124.1617,87.8947
124.2460,87.8383
124.3024,87.7540
124.3222,87.6545
Z" /> 
</g>
<g >
</g>
<g style="fill:#000000; fill-opacity:1.0000; 
stroke:#000000; stroke-width:0.0000; stroke-opacity:1; 
stroke-linecap:round; stroke-linejoin:round;">
<path style="fill:#000000; fill-opacity:1.0000; 
stroke:#000000; stroke-width:0.0000; stroke-opacity:1; 
stroke-linecap:round; stroke-linejoin:round;fill-rule:evenodd;"
d="M 130.8322,87.7745
130.8124,87.6750
130.7560,87.5906
130.6717,87.5343
130.5722,87.5145
128.4422,87.5145
128.3427,87.5343
128.2584,87.5906
128.2020,87.6750
128.1822,87.7745
128.1822,89.8545
128.2020,89.9540
128.2584,90.0383
128.3427,90.0947
128.4422,90.1145
130.5722,90.1145
130.6717,90.0947
130.7560,90.0383
130.8124,89.9540
130.8322,89.8545
Z" /> 
<path style="fill:#000000; fill-opacity:1.0000; 
stroke:#000000; stroke-width:0.0000; stroke-opacity:1; 
stroke-linecap:round; stroke-linejoin:round;fill-rule:evenodd;"
d="M 142.3222,85.5745
142.3024,85.4750
142.2460,85.3906
142.1617,85.3343
142.0622,85.3145
139.9322,85.3145
139.8327,85.3343
139.7484,85.3906
139.6920,85.4750
139.6722,85.5745
139.6722,87.6545
139.6920,87.7540
139.7484,87.8383
139.8327,87.8947
139.9322,87.9145
142.0622,87.9145
142.1617,87.8947
142.2460,87.8383
142.3024,87.7540
142.3222,87.6545
Z" /> 
</g>
<g >
</g>
<g style="fill:#000000; fill-opacity:1.0000; 
stroke:#000000; stroke-width:0.0000; stroke-opacity:1; 
stroke-linecap:round; stroke-linejoin:round;">
<path style="fill:#000000; fill-opacity:1.0000; 
stroke:#000000; stroke-width:0.0000; stroke-opacity:1; 
stroke-linecap:round; stroke-linejoin:round;fill-rule:evenodd;"
d="M 148.8322,87.7745
148.8124,87.6750
148.7560,87.5906
148.6717,87.5343
148.5722,87.5145
146.4422,87.5145
146.3427,87.5343
146.2584,87.5906
146.2020,87.6750
146.1822,87.7745
146.1822,89.8545
146.2020,89.9540
146.2584,90.0383
146.3427,90.0947
146.4422,90.1145
148.5722,90.1145
148.6717,90.0947
148.7560,90.0383
148.8124,89.9540
148.8322,89.8545
Z" /> 
<path style="fill:#000000; fill-opacity:1.0000; 
stroke:#000000; stroke-width:0.0000; stroke-opacity:1; 
stroke-linecap:round; stroke-linejoin:round;fill-rule:evenodd;"
d="M 160.3222,85.5745
160.3024,85.4750
160.2460,85.3906
160.1617,85.3343
160.0622,85.3145
157.9322,85.3145
157.8327,85.3343
157.7484,85.3906
157.6920,85.4750
157.6722,85.5745
157.6722,87.6545
157.6920,87.7540
157.7484,87.8383
157.8327,87.8947
157.9322,87.9145
160.0622,87.9145
160.1617,87.8947
160.2460,87.8383
160.3024,87.7540
160.3222,87.6545
Z" /> 
</g>
<g >
</g>
<g style="fill:#000000; fill-opacity:1.0000; 
stroke:#000000; stroke-width:0.0000; stroke-opacity:1; 
stroke-linecap:round; stroke-linejoin:round;">
<path style="fill:#000000; fill-opacity:1.0000; 
stroke:#000000; stroke-width:0.0000; stroke-opacity:1; 
stroke-linecap:round; stroke-linejoin:round;fill-rule:evenodd;"
d="M 130.8322,70.7745
130.8124,70.6750
130.7560,70.5906
130.6717,70.5343
130.5722,70.5145
128.4422,70.5145
128.3427,70.5343
128.2584,70.5906
128.2020,70.6750
128.1822,70.7745
128.1822,72.8545
128.2020,72.9540
128.2584,73.0383
128.3427,73.0947
128.4422,73.1145
130.5722,73.1145
130.6717,73.0947
130.7560,73.0383
130.8124,72.9540
130.8322,72.8545
Z" /> 
<path style="fill:#000000; fill-opacity:1.0000; 
stroke:#000000; stroke-width:0.0000; stroke-opacity:1; 
stroke-linecap:round; stroke-linejoin:round;fill-rule:evenodd;"
d="M 142.3222,68.5745
142.3024,68.4750
142.2460,68.3906
142.1617,68.3343
142.0622,68.3145
139.9322,68.3145
139.8327,68.3343
139.7484,68.3906
139.6920,68.4750
139.6722,68.5745
139.6722,70.6545
139.6920,70.7540
139.7484,70.8383
139.8327,70.8947
139.9322,70.9145
142.0622,70.9145
142.1617,70.8947
142.2460,70.8383
142.3024,70.7540
142.3222,70.6545
Z" /> 
</g>
<g >
</g>
<g style="fill:#000000; fill-opacity:1.0000; 
stroke:#000000; stroke-width:0.0000; stroke-opacity:1; 
stroke-linecap:round; stroke-linejoin:round;">
<path style="fill:#000000; fill-opacity:1.0000; 
stroke:#000000; stroke-width:0.0000; stroke-opacity:1; 
stroke-linecap:round; stroke-linejoin:round;fill-rule:evenodd;"
d="M 94.8322,87.7745
94.8124,87.6750
94.7560,87.5906
94.6717,87.5343
94.5722,87.5145
92.4422,87.5145
92.3427,87.5343
92.2584,87.5906
92.2020,87.6750
92.1822,87.7745
92.1822,89.8545
92.2020,89.9540
92.2584,90.0383
92.3427,90.0947
92.4422,90.1145
94.5722,90.1145
94.6717,90.0947
94.7560,90.0383
94.8124,89.9540
94.8322,89.8545
Z" /> 
<path style="fill:#000000; fill-opacity:1.0000; 
stroke:#000000; stroke-width:0.0000; stroke-opacity:1; 
stroke-linecap:round; stroke-linejoin:round;fill-rule:evenodd;"
d="M 106.3222,85.5745
106.3024,85.4750
106.2460,85.3906
106.1617,85.3343
106.0622,85.3145
103.9322,85.3145
103.8327,85.3343
103.7484,85.3906
103.6920,85.4750
103.6722,85.5745
103.6722,87.6545
103.6920,87.7540
103.7484,87.8383
103.8327,87.8947
103.9322,87.9145
106.0622,87.9145
106.1617,87.8947
106.2460,87.8383
106.3024,87.7540
106.3222,87.6545
Z" /> 
</g>
<g >
</g>
<g style="fill:#000000; fill-opacity:1.0000; 
stroke:#000000; stroke-width:0.0000; stroke-opacity:1; 
stroke-linecap:round; stroke-linejoin:round;">
<path style="fill:#000000; fill-opacity:1.0000; 
stroke:#000000; stroke-width:0.0000; stroke-opacity:1; 
stroke-linecap:round; stroke-linejoin:round;fill-rule:evenodd;"
d="M 166.8322,87.7745
166.8124,87.6750
166.7560,87.5906
166.6717,87.5343
166.5722,87.5145
164.4422,87.5145
164.3427,87.5343
164.2584,87.5906
164.2020,87.6750
164.1822,87.7745
164.1822,89.8545
164.2020,89.9540
164.2584,90.0383
164.3427,90.0947
164.4422,90.1145
166.5722,90.1145
166.6717,90.0947
166.7560,90.0383
166.8124,89.9540
166.8322,89.8545
Z" /> 
<path style="fill:#000000; fill-opacity:1.0000; 
stroke:#000000; stroke-width:0.0000; stroke-opacity:1; 
stroke-linecap:round; stroke-linejoin:round;fill-rule:evenodd;"
d="M 178.3222,85.5745
178.3024,85.4750
178.2460,85.3906
178.1617,85.3343
178.0622,85.3145
175.9322,85.3145
175.8327,85.3343
175.7484,85.3906
175.6920,85.4750
175.6722,85.5745
175.6722,87.6545
175.6920,87.7540
175.7484,87.8383
175.8327,87.8947
175.9322,87.9145
178.0622,87.9145
178.1617,87.8947
178.2460,87.8383
178.3024,87.7540
178.3222,87.6545
Z" /> 
</g>
<g >
</g>
<g style="fill:#000000; fill-opacity:1.0000; 
stroke:#000000; stroke-width:0.0000; stroke-opacity:1; 
stroke-linecap:round; stroke-linejoin:round;">
<path style="fill:#000000; fill-opacity:1.0000; 
stroke:#000000; stroke-width:0.0000; stroke-opacity:1; 
stroke-linecap:round; stroke-linejoin:round;fill-rule:evenodd;"
d="M 184.8322,87.7745
184.8124,87.6750
184.7560,87.5906
184.6717,87.5343
184.5722,87.5145
182.4422,87.5145
182.3427,87.5343
182.2584,87.5906
182.2020,87.6750
182.1822,87.7745
182.1822,89.8545
182.2020,89.9540
182.2584,90.0383
182.3427,90.0947
182.4422,90.1145
184.5722,90.1145
184.6717,90.0947
184.7560,90.0383
184.8124,89.9540
184.8322,89.8545
Z" /> 
<path style="fill:#000000; fill-opacity:1.0000; 
stroke:#000000; stroke-width:0.0000; stroke-opacity:1; 
stroke-linecap:round; stroke-linejoin:round;fill-rule:evenodd;"
d="M 196.3222,85.5745
196.3024,85.4750
196.2460,85.3906
196.1617,85.3343
196.0622,85.3145
193.9322,85.3145
193.8327,85.3343
193.7484,85.3906
193.6920,85.4750
193.6722,85.5745
193.6722,87.6545
193.6920,87.7540
193.7484,87.8383
193.8327,87.8947
193.9322,87.9145
196.0622,87.9145
196.1617,87.8947
196.2460,87.8383
196.3024,87.7540
196.3222,87.6545
Z" /> 
</g>
<g >
</g>
<g style="fill:#000000; fill-opacity:1.0000; 
stroke:#000000; stroke-width:0.0000; stroke-opacity:1; 
stroke-linecap:round; stroke-linejoin:round;">
<path style="fill:#000000; fill-opacity:1.0000; 
stroke:#000000; stroke-width:0.0000; stroke-opacity:1; 
stroke-linecap:round; stroke-linejoin:round;fill-rule:evenodd;"
d="M 202.8322,87.7745
202.8124,87.6750
202.7560,87.5906
202.6717,87.5343
202.5722,87.5145
200.4422,87.5145
200.3427,87.5343
200.2584,87.5906
200.2020,87.6750
200.1822,87.7745
200.1822,89.8545
200.2020,89.9540
200.2584,90.0383
200.3427,90.0947
200.4422,90.1145
202.5722,90.1145
202.6717,90.0947
202.7560,90.0383
202.8124,89.9540
202.8322,89.8545
Z" /> 
<path style="fill:#000000; fill-opacity:1.0000; 
stroke:#000000; stroke-width:0.0000; stroke-opacity:1; 
stroke-linecap:round; stroke-linejoin:round;fill-rule:evenodd;"
d="M 214.3222,85.5745
214.3024,85.4750
214.2460,85.3906
214.1617,85.3343
214.0622,85.3145
211.9322,85.3145
211.8327,85.3343
211.7484,85.3906
211.6920,85.4750
211.6722,85.5745
211.6722,87.6545
211.6920,87.7540
211.7484,87.8383
211.8327,87.8947
211.9322,87.9145
214.0622,87.9145
214.1617,87.8947
214.2460,87.8383
214.3024,87.7540
214.3222,87.6545
Z" /> 
</g>
<g >
</g>
<g style="fill:#000000; fill-opacity:1.0000; 
stroke:#000000; stroke-width:0.0000; stroke-opacity:1; 
stroke-linecap:round; stroke-linejoin:round;">
<path style="fill:#000000; fill-opacity:1.0000; 
stroke:#000000; stroke-width:0.0000; stroke-opacity:1; 
stroke-linecap:round; stroke-linejoin:round;fill-rule:evenodd;"
d="M 220.8322,87.7745
220.8124,87.6750
220.7560,87.5906
220.6717,87.5343
220.5722,87.5145
218.4422,87.5145
218.3427,87.5343
218.2584,87.5906
218.2020,87.6750
218.1822,87.7745
218.1822,89.8545
218.2020,89.9540
218.2584,90.0383
218.3427,90.0947
218.4422,90.1145
220.5722,90.1145
220.6717,90.0947
220.7560,90.0383
220.8124,89.9540
220.8322,89.8545
Z" /> 
<path style="fill:#000000; fill-opacity:1.0000; 
stroke:#000000; stroke-width:0.0000; stroke-opacity:1; 
stroke-linecap:round; stroke-linejoin:round;fill-rule:evenodd;"
d="M 232.3222,85.5745
232.3024,85.4750
232.2460,85.3906
232.1617,85.3343
232.0622,85.3145
229.9322,85.3145
229.8327,85.3343
229.7484,85.3906
229.6920,85.4750
229.6722,85.5745
229.6722,87.6545
229.6920,87.7540
229.7484,87.8383
229.8327,87.8947
229.9322,87.9145
232.0622,87.9145
232.1617,87.8947
232.2460,87.8383
232.3024,87.7540
232.3222,87.6545
Z" /> 
</g>
<g >
</g>
<g style="fill:#000000; fill-opacity:1.0000; 
stroke:#000000; stroke-width:0.0000; stroke-opacity:1; 
stroke-linecap:round; stroke-linejoin:round;">
<path style="fill:#000000; fill-opacity:1.0000; 
stroke:#000000; stroke-width:0.0000; stroke-opacity:1; 
stroke-linecap:round; stroke-linejoin:round;fill-rule:evenodd;"
d="M 238.8322,87.7745
238.8124,87.6750
238.7560,87.5906
238.6717,87.5343
238.5722,87.5145
236.4422,87.5145
236.3427,87.5343
236.2584,87.5906
236.2020,87.6750
236.1822,87.7745
236.1822,89.8545
236.2020,89.9540
236.2584,90.0383
236.3427,90.0947
236.4422,90.1145
238.5722,90.1145
238.6717,90.0947
238.7560,90.0383
238.8124,89.9540
238.8322,89.8545
Z" /> 
<path style="fill:#000000; fill-opacity:1.0000; 
stroke:#000000; stroke-width:0.0000; stroke-opacity:1; 
stroke-linecap:round; stroke-linejoin:round;fill-rule:evenodd;"
d="M 250.3222,85.5745
250.3024,85.4750
250.2460,85.3906
250.1617,85.3343
250.0622,85.3145
247.9322,85.3145
247.8327,85.3343
247.7484,85.3906
247.6920,85.4750
247.6722,85.5745
247.6722,87.6545
247.6920,87.7540
247.7484,87.8383
247.8327,87.8947
247.9322,87.9145
250.0622,87.9145
250.1617,87.8947
250.2460,87.8383
250.3024,87.7540
250.3222,87.6545
Z" /> 
</g>
<g >
</g>
<g style="fill:#000000; fill-opacity:1.0000; 
stroke:#000000; stroke-width:0.0000; stroke-opacity:1; 
stroke-linecap:round; stroke-linejoin:round;">
<path style="fill:#000000; fill-opacity:1.0000; 
stroke:#000000; stroke-width:0.0000; stroke-opacity:1; 
stroke-linecap:round; stroke-linejoin:round;fill-rule:evenodd;"
d="M 40.8322,70.7745
40.8124,70.6750
40.7560,70.5906
40.6717,70.5343
40.5722,70.5145
38.4422,70.5145
38.3427,70.5343
38.2584,70.5906
38.2020,70.6750
38.1822,70.7745
38.1822,72.8545
38.2020,72.9540
38.2584,73.0383
38.3427,73.0947
38.4422,73.1145
40.5722,73.1145
40.6717,73.0947
40.7560,73.0383
40.8124,72.9540
40.8322,72.8545
Z" /> 
<path style="fill:#000000; fill-opacity:1.0000; 
stroke:#000000; stroke-width:0.0000; stroke-opacity:1; 
stroke-linecap:round; stroke-linejoin:round;fill-rule:evenodd;"
d="M 52.3222,68.5745
52.3024,68.4750
52.2460,68.3906
52.1617,68.3343
52.0622,68.3145
49.9322,68.3145
49.8327,68.3343
49.7484,68.3906
49.6920,68.4750
49.6722,68.5745
49.6722,70.6545
49.6920,70.7540
49.7484,70.8383
49.8327,70.8947
49.9322,70.9145
52.0622,70.9145
52.1617,70.8947
52.2460,70.8383
52.3024,70.7540
52.3222,70.6545
Z" /> 
</g>
<g >
</g>
<g style="fill:#000000; fill-opacity:1.0000; 
stroke:#000000; stroke-width:0.0000; stroke-opacity:1; 
stroke-linecap:round; stroke-linejoin:round;">
<path style="fill:#000000; fill-opacity:1.0000; 
stroke:#000000; stroke-width:0.0000; stroke-opacity:1; 
stroke-linecap:round; stroke-linejoin:round;fill-rule:evenodd;"
d="M 166.8322,121.7745
166.8124,121.6750
166.7560,121.5906
166.6717,121.5343
166.5722,121.5145
164.4422,121.5145
164.3427,121.5343
164.2584,121.5906
164.2020,121.6750
164.1822,121.7745
164.1822,123.8545
164.2020,123.9540
164.2584,124.0383
164.3427,124.0947
164.4422,124.1145
166.5722,124.1145
166.6717,124.0947
166.7560,124.0383
166.8124,123.9540
166.8322,123.8545
Z" /> 
<path style="fill:#000000; fill-opacity:1.0000; 
stroke:#000000; stroke-width:0.0000; stroke-opacity:1; 
stroke-linecap:round; stroke-linejoin:round;fill-rule:evenodd;"
d="M 178.3222,119.5745
178.3024,119.4750
178.2460,119.3906
178.1617,119.3343
178.0622,119.3145
175.9322,119.3145
175.8327,119.3343
175.7484,119.3906
175.6920,119.4750
175.6722,119.5745
175.6722,121.6545
175.6920,121.7540
175.7484,121.8383
175.8327,121.8947
175.9322,121.9145
178.0622,121.9145
178.1617,121.8947
178.2460,121.8383
178.3024,121.7540
178.3222,121.6545
Z" /> 
</g>
<g >
</g>
<g style="fill:#000000; fill-opacity:1.0000; 
stroke:#000000; stroke-width:0.0000; stroke-opacity:1; 
stroke-linecap:round; stroke-linejoin:round;">
<path style="fill:#000000; fill-opacity:1.0000; 
stroke:#000000; stroke-width:0.0000; stroke-opacity:1; 
stroke-linecap:round; stroke-linejoin:round;fill-rule:evenodd;"
d="M 58.8322,70.7745
58.8124,70.6750
58.7560,70.5906
58.6717,70.5343
58.5722,70.5145
56.4422,70.5145
56.3427,70.5343
56.2584,70.5906
56.2020,70.6750
56.1822,70.7745
56.1822,72.8545
56.2020,72.9540
56.2584,73.0383
56.3427,73.0947
56.4422,73.1145
58.5722,73.1145
58.6717,73.0947
58.7560,73.0383
58.8124,72.9540
58.8322,72.8545
Z" /> 
<path style="fill:#000000; fill-opacity:1.0000; 
stroke:#000000; stroke-width:0.0000; stroke-opacity:1; 
stroke-linecap:round; stroke-linejoin:round;fill-rule:evenodd;"
d="M 70.3222,68.5745
70.3024,68.4750
70.2460,68.3906
70.1617,68.3343
70.0622,68.3145
67.9322,68.3145
67.8327,68.3343
67.7484,68.3906
67.6920,68.4750
67.6722,68.5745
67.6722,70.6545
67.6920,70.7540
67.7484,70.8383
67.8327,70.8947
67.9322,70.9145
70.0622,70.9145
70.1617,70.8947
70.2460,70.8383
70.3024,70.7540
70.3222,70.6545
Z" /> 
</g>
<g >
</g>
<g style="fill:#000000; fill-opacity:1.0000; 
stroke:#000000; stroke-width:0.0000; stroke-opacity:1; 
stroke-linecap:round; stroke-linejoin:round;">
<path style="fill:#000000; fill-opacity:1.0000; 
stroke:#000000; stroke-width:0.0000; stroke-opacity:1; 
stroke-linecap:round; stroke-linejoin:round;fill-rule:evenodd;"
d="M 238.8322,70.7745
238.8124,70.6750
238.7560,70.5906
238.6717,70.5343
238.5722,70.5145
236.4422,70.5145
236.3427,70.5343
236.2584,70.5906
236.2020,70.6750
236.1822,70.7745
236.1822,72.8545
236.2020,72.9540
236.2584,73.0383
236.3427,73.0947
236.4422,73.1145
238.5722,73.1145
238.6717,73.0947
238.7560,73.0383
238.8124,72.9540
238.8322,72.8545
Z" /> 
<path style="fill:#000000; fill-opacity:1.0000; 
stroke:#000000; stroke-width:0.0000; stroke-opacity:1; 
stroke-linecap:round; stroke-linejoin:round;fill-rule:evenodd;"
d="M 250.3222,68.5745
250.3024,68.4750
250.2460,68.3906
250.1617,68.3343
250.0622,68.3145
247.9322,68.3145
247.8327,68.3343
247.7484,68.3906
247.6920,68.4750
247.6722,68.5745
247.6722,70.6545
247.6920,70.7540
247.7484,70.8383
247.8327,70.8947
247.9322,70.9145
250.0622,70.9145
250.1617,70.8947
250.2460,70.8383
250.3024,70.7540
250.3222,70.6545
Z" /> 
</g>
<g >
</g>
<g style="fill:#000000; fill-opacity:1.0000; 
stroke:#000000; stroke-width:0.0000; stroke-opacity:1; 
stroke-linecap:round; stroke-linejoin:round;">
<path style="fill:#000000; fill-opacity:1.0000; 
stroke:#000000; stroke-width:0.0000; stroke-opacity:1; 
stroke-linecap:round; stroke-linejoin:round;fill-rule:evenodd;"
d="M 166.8322,70.7745
166.8124,70.6750
166.7560,70.5906
166.6717,70.5343
166.5722,70.5145
164.4422,70.5145
164.3427,70.5343
164.2584,70.5906
164.2020,70.6750
164.1822,70.7745
164.1822,72.8545
164.2020,72.9540
164.2584,73.0383
164.3427,73.0947
164.4422,73.1145
166.5722,73.1145
166.6717,73.0947
166.7560,73.0383
166.8124,72.9540
166.8322,72.8545
Z" /> 
<path style="fill:#000000; fill-opacity:1.0000; 
stroke:#000000; stroke-width:0.0000; stroke-opacity:1; 
stroke-linecap:round; stroke-linejoin:round;fill-rule:evenodd;"
d="M 178.3222,68.5745
178.3024,68.4750
178.2460,68.3906
178.1617,68.3343
178.0622,68.3145
175.9322,68.3145
175.8327,68.3343
175.7484,68.3906
175.6920,68.4750
175.6722,68.5745
175.6722,70.6545
175.6920,70.7540
175.7484,70.8383
175.8327,70.8947
175.9322,70.9145
178.0622,70.9145
178.1617,70.8947
178.2460,70.8383
178.3024,70.7540
178.3222,70.6545
Z" /> 
</g>
<g >
</g>
<g style="fill:#000000; fill-opacity:1.0000; 
stroke:#000000; stroke-width:0.0000; stroke-opacity:1; 
stroke-linecap:round; stroke-linejoin:round;">
<path style="fill:#000000; fill-opacity:1.0000; 
stroke:#000000; stroke-width:0.0000; stroke-opacity:1; 
stroke-linecap:round; stroke-linejoin:round;fill-rule:evenodd;"
d="M 184.8322,70.7745
184.8124,70.6750
184.7560,70.5906
184.6717,70.5343
184.5722,70.5145
182.4422,70.5145
182.3427,70.5343
182.2584,70.5906
182.2020,70.6750
182.1822,70.7745
182.1822,72.8545
182.2020,72.9540
182.2584,73.0383
182.3427,73.0947
182.4422,73.1145
184.5722,73.1145
184.6717,73.0947
184.7560,73.0383
184.8124,72.9540
184.8322,72.8545
Z" /> 
<path style="fill:#000000; fill-opacity:1.0000; 
stroke:#000000; stroke-width:0.0000; stroke-opacity:1; 
stroke-linecap:round; stroke-linejoin:round;fill-rule:evenodd;"
d="M 196.3222,68.5745
196.3024,68.4750
196.2460,68.3906
196.1617,68.3343
196.0622,68.3145
193.9322,68.3145
193.8327,68.3343
193.7484,68.3906
193.6920,68.4750
193.6722,68.5745
193.6722,70.6545
193.6920,70.7540
193.7484,70.8383
193.8327,70.8947
193.9322,70.9145
196.0622,70.9145
196.1617,70.8947
196.2460,70.8383
196.3024,70.7540
196.3222,70.6545
Z" /> 
</g>
<g >
</g>
<g style="fill:#000000; fill-opacity:1.0000; 
stroke:#000000; stroke-width:0.0000; stroke-opacity:1; 
stroke-linecap:round; stroke-linejoin:round;">
<path style="fill:#000000; fill-opacity:1.0000; 
stroke:#000000; stroke-width:0.0000; stroke-opacity:1; 
stroke-linecap:round; stroke-linejoin:round;fill-rule:evenodd;"
d="M 112.8322,70.7745
112.8124,70.6750
112.7560,70.5906
112.6717,70.5343
112.5722,70.5145
110.4422,70.5145
110.3427,70.5343
110.2584,70.5906
110.2020,70.6750
110.1822,70.7745
110.1822,72.8545
110.2020,72.9540
110.2584,73.0383
110.3427,73.0947
110.4422,73.1145
112.5722,73.1145
112.6717,73.0947
112.7560,73.0383
112.8124,72.9540
112.8322,72.8545
Z" /> 
<path style="fill:#000000; fill-opacity:1.0000; 
stroke:#000000; stroke-width:0.0000; stroke-opacity:1; 
stroke-linecap:round; stroke-linejoin:round;fill-rule:evenodd;"
d="M 124.3222,68.5745
124.3024,68.4750
124.2460,68.3906
124.1617,68.3343
124.0622,68.3145
121.9322,68.3145
121.8327,68.3343
121.7484,68.3906
121.6920,68.4750
121.6722,68.5745
121.6722,70.6545
121.6920,70.7540
121.7484,70.8383
121.8327,70.8947
121.9322,70.9145
124.0622,70.9145
124.1617,70.8947
124.2460,70.8383
124.3024,70.7540
124.3222,70.6545
Z" /> 
</g>
<g >
</g>
<g style="fill:#000000; fill-opacity:1.0000; 
stroke:#000000; stroke-width:0.0000; stroke-opacity:1; 
stroke-linecap:round; stroke-linejoin:round;">
<path style="fill:#000000; fill-opacity:1.0000; 
stroke:#000000; stroke-width:0.0000; stroke-opacity:1; 
stroke-linecap:round; stroke-linejoin:round;fill-rule:evenodd;"
d="M 130.8322,104.7745
130.8124,104.6750
130.7560,104.5906
130.6717,104.5343
130.5722,104.5145
128.4422,104.5145
128.3427,104.5343
128.2584,104.5906
128.2020,104.6750
128.1822,104.7745
128.1822,106.8545
128.2020,106.9540
128.2584,107.0383
128.3427,107.0947
128.4422,107.1145
130.5722,107.1145
130.6717,107.0947
130.7560,107.0383
130.8124,106.9540
130.8322,106.8545
Z" /> 
<path style="fill:#000000; fill-opacity:1.0000; 
stroke:#000000; stroke-width:0.0000; stroke-opacity:1; 
stroke-linecap:round; stroke-linejoin:round;fill-rule:evenodd;"
d="M 142.3222,102.5745
142.3024,102.4750
142.2460,102.3906
142.1617,102.3343
142.0622,102.3145
139.9322,102.3145
139.8327,102.3343
139.7484,102.3906
139.6920,102.4750
139.6722,102.5745
139.6722,104.6545
139.6920,104.7540
139.7484,104.8383
139.8327,104.8947
139.9322,104.9145
142.0622,104.9145
142.1617,104.8947
142.2460,104.8383
142.3024,104.7540
142.3222,104.6545
Z" /> 
</g>
<g >
</g>
<g style="fill:#000000; fill-opacity:1.0000; 
stroke:#000000; stroke-width:0.0000; stroke-opacity:1; 
stroke-linecap:round; stroke-linejoin:round;">
<path style="fill:#000000; fill-opacity:1.0000; 
stroke:#000000; stroke-width:0.0000; stroke-opacity:1; 
stroke-linecap:round; stroke-linejoin:round;fill-rule:evenodd;"
d="M 220.8322,70.7745
220.8124,70.6750
220.7560,70.5906
220.6717,70.5343
220.5722,70.5145
218.4422,70.5145
218.3427,70.5343
218.2584,70.5906
218.2020,70.6750
218.1822,70.7745
218.1822,72.8545
218.2020,72.9540
218.2584,73.0383
218.3427,73.0947
218.4422,73.1145
220.5722,73.1145
220.6717,73.0947
220.7560,73.0383
220.8124,72.9540
220.8322,72.8545
Z" /> 
<path style="fill:#000000; fill-opacity:1.0000; 
stroke:#000000; stroke-width:0.0000; stroke-opacity:1; 
stroke-linecap:round; stroke-linejoin:round;fill-rule:evenodd;"
d="M 232.3222,68.5745
232.3024,68.4750
232.2460,68.3906
232.1617,68.3343
232.0622,68.3145
229.9322,68.3145
229.8327,68.3343
229.7484,68.3906
229.6920,68.4750
229.6722,68.5745
229.6722,70.6545
229.6920,70.7540
229.7484,70.8383
229.8327,70.8947
229.9322,70.9145
232.0622,70.9145
232.1617,70.8947
232.2460,70.8383
232.3024,70.7540
232.3222,70.6545
Z" /> 
</g>
<g >
</g>
<g style="fill:#000000; fill-opacity:1.0000; 
stroke:#000000; stroke-width:0.0000; stroke-opacity:1; 
stroke-linecap:round; stroke-linejoin:round;">
<path style="fill:#000000; fill-opacity:1.0000; 
stroke:#000000; stroke-width:0.0000; stroke-opacity:1; 
stroke-linecap:round; stroke-linejoin:round;fill-rule:evenodd;"
d="M 76.8322,70.7745
76.8124,70.6750
76.7560,70.5906
76.6717,70.5343
76.5722,70.5145
74.4422,70.5145
74.3427,70.5343
74.2584,70.5906
74.2020,70.6750
74.1822,70.7745
74.1822,72.8545
74.2020,72.9540
74.2584,73.0383
74.3427,73.0947
74.4422,73.1145
76.5722,73.1145
76.6717,73.0947
76.7560,73.0383
76.8124,72.9540
76.8322,72.8545
Z" /> 
<path style="fill:#000000; fill-opacity:1.0000; 
stroke:#000000; stroke-width:0.0000; stroke-opacity:1; 
stroke-linecap:round; stroke-linejoin:round;fill-rule:evenodd;"
d="M 88.3222,68.5745
88.3024,68.4750
88.2460,68.3906
88.1617,68.3343
88.0622,68.3145
85.9322,68.3145
85.8327,68.3343
85.7484,68.3906
85.6920,68.4750
85.6722,68.5745
85.6722,70.6545
85.6920,70.7540
85.7484,70.8383
85.8327,70.8947
85.9322,70.9145
88.0622,70.9145
88.1617,70.8947
88.2460,70.8383
88.3024,70.7540
88.3222,70.6545
Z" /> 
</g>
<g >
</g>
<g style="fill:#000000; fill-opacity:1.0000; 
stroke:#000000; stroke-width:0.0000; stroke-opacity:1; 
stroke-linecap:round; stroke-linejoin:round;">
<path style="fill:#000000; fill-opacity:1.0000; 
stroke:#000000; stroke-width:0.0000; stroke-opacity:1; 
stroke-linecap:round; stroke-linejoin:round;fill-rule:evenodd;"
d="M 94.8322,70.7745
94.8124,70.6750
94.7560,70.5906
94.6717,70.5343
94.5722,70.5145
92.4422,70.5145
92.3427,70.5343
92.2584,70.5906
92.2020,70.6750
92.1822,70.7745
92.1822,72.8545
92.2020,72.9540
92.2584,73.0383
92.3427,73.0947
92.4422,73.1145
94.5722,73.1145
94.6717,73.0947
94.7560,73.0383
94.8124,72.9540
94.8322,72.8545
Z" /> 
<path style="fill:#000000; fill-opacity:1.0000; 
stroke:#000000; stroke-width:0.0000; stroke-opacity:1; 
stroke-linecap:round; stroke-linejoin:round;fill-rule:evenodd;"
d="M 106.3222,68.5745
106.3024,68.4750
106.2460,68.3906
106.1617,68.3343
106.0622,68.3145
103.9322,68.3145
103.8327,68.3343
103.7484,68.3906
103.6920,68.4750
103.6722,68.5745
103.6722,70.6545
103.6920,70.7540
103.7484,70.8383
103.8327,70.8947
103.9322,70.9145
106.0622,70.9145
106.1617,70.8947
106.2460,70.8383
106.3024,70.7540
106.3222,70.6545
Z" /> 
</g>
<g >
</g>
<g style="fill:#000000; fill-opacity:1.0000; 
stroke:#000000; stroke-width:0.0000; stroke-opacity:1; 
stroke-linecap:round; stroke-linejoin:round;">
<path style="fill:#000000; fill-opacity:1.0000; 
stroke:#000000; stroke-width:0.0000; stroke-opacity:1; 
stroke-linecap:round; stroke-linejoin:round;fill-rule:evenodd;"
d="M 40.8322,104.7745
40.8124,104.6750
40.7560,104.5906
40.6717,104.5343
40.5722,104.5145
38.4422,104.5145
38.3427,104.5343
38.2584,104.5906
38.2020,104.6750
38.1822,104.7745
38.1822,106.8545
38.2020,106.9540
38.2584,107.0383
38.3427,107.0947
38.4422,107.1145
40.5722,107.1145
40.6717,107.0947
40.7560,107.0383
40.8124,106.9540
40.8322,106.8545
Z" /> 
<path style="fill:#000000; fill-opacity:1.0000; 
stroke:#000000; stroke-width:0.0000; stroke-opacity:1; 
stroke-linecap:round; stroke-linejoin:round;fill-rule:evenodd;"
d="M 52.3222,102.5745
52.3024,102.4750
52.2460,102.3906
52.1617,102.3343
52.0622,102.3145
49.9322,102.3145
49.8327,102.3343
49.7484,102.3906
49.6920,102.4750
49.6722,102.5745
49.6722,104.6545
49.6920,104.7540
49.7484,104.8383
49.8327,104.8947
49.9322,104.9145
52.0622,104.9145
52.1617,104.8947
52.2460,104.8383
52.3024,104.7540
52.3222,104.6545
Z" /> 
</g>
<g >
</g>
<g style="fill:#000000; fill-opacity:1.0000; 
stroke:#000000; stroke-width:0.0000; stroke-opacity:1; 
stroke-linecap:round; stroke-linejoin:round;">
<path style="fill:#000000; fill-opacity:1.0000; 
stroke:#000000; stroke-width:0.0000; stroke-opacity:1; 
stroke-linecap:round; stroke-linejoin:round;fill-rule:evenodd;"
d="M 58.8322,104.7745
58.8124,104.6750
58.7560,104.5906
58.6717,104.5343
58.5722,104.5145
56.4422,104.5145
56.3427,104.5343
56.2584,104.5906
56.2020,104.6750
56.1822,104.7745
56.1822,106.8545
56.2020,106.9540
56.2584,107.0383
56.3427,107.0947
56.4422,107.1145
58.5722,107.1145
58.6717,107.0947
58.7560,107.0383
58.8124,106.9540
58.8322,106.8545
Z" /> 
<path style="fill:#000000; fill-opacity:1.0000; 
stroke:#000000; stroke-width:0.0000; stroke-opacity:1; 
stroke-linecap:round; stroke-linejoin:round;fill-rule:evenodd;"
d="M 70.3222,102.5745
70.3024,102.4750
70.2460,102.3906
70.1617,102.3343
70.0622,102.3145
67.9322,102.3145
67.8327,102.3343
67.7484,102.3906
67.6920,102.4750
67.6722,102.5745
67.6722,104.6545
67.6920,104.7540
67.7484,104.8383
67.8327,104.8947
67.9322,104.9145
70.0622,104.9145
70.1617,104.8947
70.2460,104.8383
70.3024,104.7540
70.3222,104.6545
Z" /> 
</g>
<g >
</g>
<g style="fill:#000000; fill-opacity:1.0000; 
stroke:#000000; stroke-width:0.0000; stroke-opacity:1; 
stroke-linecap:round; stroke-linejoin:round;">
<path style="fill:#000000; fill-opacity:1.0000; 
stroke:#000000; stroke-width:0.0000; stroke-opacity:1; 
stroke-linecap:round; stroke-linejoin:round;fill-rule:evenodd;"
d="M 76.8322,104.7745
76.8124,104.6750
76.7560,104.5906
76.6717,104.5343
76.5722,104.5145
74.4422,104.5145
74.3427,104.5343
74.2584,104.5906
74.2020,104.6750
74.1822,104.7745
74.1822,106.8545
74.2020,106.9540
74.2584,107.0383
74.3427,107.0947
74.4422,107.1145
76.5722,107.1145
76.6717,107.0947
76.7560,107.0383
76.8124,106.9540
76.8322,106.8545
Z" /> 
<path style="fill:#000000; fill-opacity:1.0000; 
stroke:#000000; stroke-width:0.0000; stroke-opacity:1; 
stroke-linecap:round; stroke-linejoin:round;fill-rule:evenodd;"
d="M 88.3222,102.5745
88.3024,102.4750
88.2460,102.3906
88.1617,102.3343
88.0622,102.3145
85.9322,102.3145
85.8327,102.3343
85.7484,102.3906
85.6920,102.4750
85.6722,102.5745
85.6722,104.6545
85.6920,104.7540
85.7484,104.8383
85.8327,104.8947
85.9322,104.9145
88.0622,104.9145
88.1617,104.8947
88.2460,104.8383
88.3024,104.7540
88.3222,104.6545
Z" /> 
</g>
<g >
</g>
<g style="fill:#000000; fill-opacity:1.0000; 
stroke:#000000; stroke-width:0.0000; stroke-opacity:1; 
stroke-linecap:round; stroke-linejoin:round;">
<path style="fill:#000000; fill-opacity:1.0000; 
stroke:#000000; stroke-width:0.0000; stroke-opacity:1; 
stroke-linecap:round; stroke-linejoin:round;fill-rule:evenodd;"
d="M 94.8322,104.7745
94.8124,104.6750
94.7560,104.5906
94.6717,104.5343
94.5722,104.5145
92.4422,104.5145
92.3427,104.5343
92.2584,104.5906
92.2020,104.6750
92.1822,104.7745
92.1822,106.8545
92.2020,106.9540
92.2584,107.0383
92.3427,107.0947
92.4422,107.1145
94.5722,107.1145
94.6717,107.0947
94.7560,107.0383
94.8124,106.9540
94.8322,106.8545
Z" /> 
<path style="fill:#000000; fill-opacity:1.0000; 
stroke:#000000; stroke-width:0.0000; stroke-opacity:1; 
stroke-linecap:round; stroke-linejoin:round;fill-rule:evenodd;"
d="M 106.3222,102.5745
106.3024,102.4750
106.2460,102.3906
106.1617,102.3343
106.0622,102.3145
103.9322,102.3145
103.8327,102.3343
103.7484,102.3906
103.6920,102.4750
103.6722,102.5745
103.6722,104.6545
103.6920,104.7540
103.7484,104.8383
103.8327,104.8947
103.9322,104.9145
106.0622,104.9145
106.1617,104.8947
106.2460,104.8383
106.3024,104.7540
106.3222,104.6545
Z" /> 
</g>
<g >
</g>
<g style="fill:#000000; fill-opacity:1.0000; 
stroke:#000000; stroke-width:0.0000; stroke-opacity:1; 
stroke-linecap:round; stroke-linejoin:round;">
<path style="fill:#000000; fill-opacity:1.0000; 
stroke:#000000; stroke-width:0.0000; stroke-opacity:1; 
stroke-linecap:round; stroke-linejoin:round;fill-rule:evenodd;"
d="M 112.8322,104.7745
112.8124,104.6750
112.7560,104.5906
112.6717,104.5343
112.5722,104.5145
110.4422,104.5145
110.3427,104.5343
110.2584,104.5906
110.2020,104.6750
110.1822,104.7745
110.1822,106.8545
110.2020,106.9540
110.2584,107.0383
110.3427,107.0947
110.4422,107.1145
112.5722,107.1145
112.6717,107.0947
112.7560,107.0383
112.8124,106.9540
112.8322,106.8545
Z" /> 
<path style="fill:#000000; fill-opacity:1.0000; 
stroke:#000000; stroke-width:0.0000; stroke-opacity:1; 
stroke-linecap:round; stroke-linejoin:round;fill-rule:evenodd;"
d="M 124.3222,102.5745
124.3024,102.4750
124.2460,102.3906
124.1617,102.3343
124.0622,102.3145
121.9322,102.3145
121.8327,102.3343
121.7484,102.3906
121.6920,102.4750
121.6722,102.5745
121.6722,104.6545
121.6920,104.7540
121.7484,104.8383
121.8327,104.8947
121.9322,104.9145
124.0622,104.9145
124.1617,104.8947
124.2460,104.8383
124.3024,104.7540
124.3222,104.6545
Z" /> 
</g>
<g >
</g>
<g style="fill:#000000; fill-opacity:1.0000; 
stroke:#000000; stroke-width:0.0000; stroke-opacity:1; 
stroke-linecap:round; stroke-linejoin:round;">
<path style="fill:#000000; fill-opacity:1.0000; 
stroke:#000000; stroke-width:0.0000; stroke-opacity:1; 
stroke-linecap:round; stroke-linejoin:round;fill-rule:evenodd;"
d="M 148.8322,104.7745
148.8124,104.6750
148.7560,104.5906
148.6717,104.5343
148.5722,104.5145
146.4422,104.5145
146.3427,104.5343
146.2584,104.5906
146.2020,104.6750
146.1822,104.7745
146.1822,106.8545
146.2020,106.9540
146.2584,107.0383
146.3427,107.0947
146.4422,107.1145
148.5722,107.1145
148.6717,107.0947
148.7560,107.0383
148.8124,106.9540
148.8322,106.8545
Z" /> 
<path style="fill:#000000; fill-opacity:1.0000; 
stroke:#000000; stroke-width:0.0000; stroke-opacity:1; 
stroke-linecap:round; stroke-linejoin:round;fill-rule:evenodd;"
d="M 160.3222,102.5745
160.3024,102.4750
160.2460,102.3906
160.1617,102.3343
160.0622,102.3145
157.9322,102.3145
157.8327,102.3343
157.7484,102.3906
157.6920,102.4750
157.6722,102.5745
157.6722,104.6545
157.6920,104.7540
157.7484,104.8383
157.8327,104.8947
157.9322,104.9145
160.0622,104.9145
160.1617,104.8947
160.2460,104.8383
160.3024,104.7540
160.3222,104.6545
Z" /> 
</g>
<g >
</g>
<g style="fill:#000000; fill-opacity:1.0000; 
stroke:#000000; stroke-width:0.0000; stroke-opacity:1; 
stroke-linecap:round; stroke-linejoin:round;">
<path style="fill:#000000; fill-opacity:1.0000; 
stroke:#000000; stroke-width:0.0000; stroke-opacity:1; 
stroke-linecap:round; stroke-linejoin:round;fill-rule:evenodd;"
d="M 166.8322,104.7745
166.8124,104.6750
166.7560,104.5906
166.6717,104.5343
166.5722,104.5145
164.4422,104.5145
164.3427,104.5343
164.2584,104.5906
164.2020,104.6750
164.1822,104.7745
164.1822,106.8545
164.2020,106.9540
164.2584,107.0383
164.3427,107.0947
164.4422,107.1145
166.5722,107.1145
166.6717,107.0947
166.7560,107.0383
166.8124,106.9540
166.8322,106.8545
Z" /> 
<path style="fill:#000000; fill-opacity:1.0000; 
stroke:#000000; stroke-width:0.0000; stroke-opacity:1; 
stroke-linecap:round; stroke-linejoin:round;fill-rule:evenodd;"
d="M 178.3222,102.5745
178.3024,102.4750
178.2460,102.3906
178.1617,102.3343
178.0622,102.3145
175.9322,102.3145
175.8327,102.3343
175.7484,102.3906
175.6920,102.4750
175.6722,102.5745
175.6722,104.6545
175.6920,104.7540
175.7484,104.8383
175.8327,104.8947
175.9322,104.9145
178.0622,104.9145
178.1617,104.8947
178.2460,104.8383
178.3024,104.7540
178.3222,104.6545
Z" /> 
</g>
<g >
</g>
<g style="fill:#000000; fill-opacity:1.0000; 
stroke:#000000; stroke-width:0.0000; stroke-opacity:1; 
stroke-linecap:round; stroke-linejoin:round;">
<path style="fill:#000000; fill-opacity:1.0000; 
stroke:#000000; stroke-width:0.0000; stroke-opacity:1; 
stroke-linecap:round; stroke-linejoin:round;fill-rule:evenodd;"
d="M 202.8322,70.7745
202.8124,70.6750
202.7560,70.5906
202.6717,70.5343
202.5722,70.5145
200.4422,70.5145
200.3427,70.5343
200.2584,70.5906
200.2020,70.6750
200.1822,70.7745
200.1822,72.8545
200.2020,72.9540
200.2584,73.0383
200.3427,73.0947
200.4422,73.1145
202.5722,73.1145
202.6717,73.0947
202.7560,73.0383
202.8124,72.9540
202.8322,72.8545
Z" /> 
<path style="fill:#000000; fill-opacity:1.0000; 
stroke:#000000; stroke-width:0.0000; stroke-opacity:1; 
stroke-linecap:round; stroke-linejoin:round;fill-rule:evenodd;"
d="M 214.3222,68.5745
214.3024,68.4750
214.2460,68.3906
214.1617,68.3343
214.0622,68.3145
211.9322,68.3145
211.8327,68.3343
211.7484,68.3906
211.6920,68.4750
211.6722,68.5745
211.6722,70.6545
211.6920,70.7540
211.7484,70.8383
211.8327,70.8947
211.9322,70.9145
214.0622,70.9145
214.1617,70.8947
214.2460,70.8383
214.3024,70.7540
214.3222,70.6545
Z" /> 
</g>
<g >
</g>
<g style="fill:#000000; fill-opacity:1.0000; 
stroke:#000000; stroke-width:0.0000; stroke-opacity:1; 
stroke-linecap:round; stroke-linejoin:round;">
<path style="fill:#000000; fill-opacity:1.0000; 
stroke:#000000; stroke-width:0.0000; stroke-opacity:1; 
stroke-linecap:round; stroke-linejoin:round;fill-rule:evenodd;"
d="M 148.8322,70.7745
148.8124,70.6750
148.7560,70.5906
148.6717,70.5343
148.5722,70.5145
146.4422,70.5145
146.3427,70.5343
146.2584,70.5906
146.2020,70.6750
146.1822,70.7745
146.1822,72.8545
146.2020,72.9540
146.2584,73.0383
146.3427,73.0947
146.4422,73.1145
148.5722,73.1145
148.6717,73.0947
148.7560,73.0383
148.8124,72.9540
148.8322,72.8545
Z" /> 
<path style="fill:#000000; fill-opacity:1.0000; 
stroke:#000000; stroke-width:0.0000; stroke-opacity:1; 
stroke-linecap:round; stroke-linejoin:round;fill-rule:evenodd;"
d="M 160.3222,68.5745
160.3024,68.4750
160.2460,68.3906
160.1617,68.3343
160.0622,68.3145
157.9322,68.3145
157.8327,68.3343
157.7484,68.3906
157.6920,68.4750
157.6722,68.5745
157.6722,70.6545
157.6920,70.7540
157.7484,70.8383
157.8327,70.8947
157.9322,70.9145
160.0622,70.9145
160.1617,70.8947
160.2460,70.8383
160.3024,70.7540
160.3222,70.6545
Z" /> 
</g>
<g >
</g>
<g style="fill:#000000; fill-opacity:1.0000; 
stroke:#000000; stroke-width:0.0000; stroke-opacity:1; 
stroke-linecap:round; stroke-linejoin:round;">
<path style="fill:#000000; fill-opacity:1.0000; 
stroke:#000000; stroke-width:0.0000; stroke-opacity:1; 
stroke-linecap:round; stroke-linejoin:round;fill-rule:evenodd;"
d="M 184.8322,121.7745
184.8124,121.6750
184.7560,121.5906
184.6717,121.5343
184.5722,121.5145
182.4422,121.5145
182.3427,121.5343
182.2584,121.5906
182.2020,121.6750
182.1822,121.7745
182.1822,123.8545
182.2020,123.9540
182.2584,124.0383
182.3427,124.0947
182.4422,124.1145
184.5722,124.1145
184.6717,124.0947
184.7560,124.0383
184.8124,123.9540
184.8322,123.8545
Z" /> 
<path style="fill:#000000; fill-opacity:1.0000; 
stroke:#000000; stroke-width:0.0000; stroke-opacity:1; 
stroke-linecap:round; stroke-linejoin:round;fill-rule:evenodd;"
d="M 196.3222,119.5745
196.3024,119.4750
196.2460,119.3906
196.1617,119.3343
196.0622,119.3145
193.9322,119.3145
193.8327,119.3343
193.7484,119.3906
193.6920,119.4750
193.6722,119.5745
193.6722,121.6545
193.6920,121.7540
193.7484,121.8383
193.8327,121.8947
193.9322,121.9145
196.0622,121.9145
196.1617,121.8947
196.2460,121.8383
196.3024,121.7540
196.3222,121.6545
Z" /> 
</g>
<g >
</g>
<g style="fill:#000000; fill-opacity:1.0000; 
stroke:#000000; stroke-width:0.0000; stroke-opacity:1; 
stroke-linecap:round; stroke-linejoin:round;">
<path style="fill:#000000; fill-opacity:1.0000; 
stroke:#000000; stroke-width:0.0000; stroke-opacity:1; 
stroke-linecap:round; stroke-linejoin:round;fill-rule:evenodd;"
d="M 112.8322,121.7745
112.8124,121.6750
112.7560,121.5906
112.6717,121.5343
112.5722,121.5145
110.4422,121.5145
110.3427,121.5343
110.2584,121.5906
110.2020,121.6750
110.1822,121.7745
110.1822,123.8545
110.2020,123.9540
110.2584,124.0383
110.3427,124.0947
110.4422,124.1145
112.5722,124.1145
112.6717,124.0947
112.7560,124.0383
112.8124,123.9540
112.8322,123.8545
Z" /> 
<path style="fill:#000000; fill-opacity:1.0000; 
stroke:#000000; stroke-width:0.0000; stroke-opacity:1; 
stroke-linecap:round; stroke-linejoin:round;fill-rule:evenodd;"
d="M 124.3222,119.5745
124.3024,119.4750
124.2460,119.3906
124.1617,119.3343
124.0622,119.3145
121.9322,119.3145
121.8327,119.3343
121.7484,119.3906
121.6920,119.4750
121.6722,119.5745
121.6722,121.6545
121.6920,121.7540
121.7484,121.8383
121.8327,121.8947
121.9322,121.9145
124.0622,121.9145
124.1617,121.8947
124.2460,121.8383
124.3024,121.7540
124.3222,121.6545
Z" /> 
</g>
<g >
</g>
<g style="fill:#000000; fill-opacity:1.0000; 
stroke:#000000; stroke-width:0.0000; stroke-opacity:1; 
stroke-linecap:round; stroke-linejoin:round;">
<path style="fill:#000000; fill-opacity:1.0000; 
stroke:#000000; stroke-width:0.0000; stroke-opacity:1; 
stroke-linecap:round; stroke-linejoin:round;fill-rule:evenodd;"
d="M 94.8322,121.7745
94.8124,121.6750
94.7560,121.5906
94.6717,121.5343
94.5722,121.5145
92.4422,121.5145
92.3427,121.5343
92.2584,121.5906
92.2020,121.6750
92.1822,121.7745
92.1822,123.8545
92.2020,123.9540
92.2584,124.0383
92.3427,124.0947
92.4422,124.1145
94.5722,124.1145
94.6717,124.0947
94.7560,124.0383
94.8124,123.9540
94.8322,123.8545
Z" /> 
<path style="fill:#000000; fill-opacity:1.0000; 
stroke:#000000; stroke-width:0.0000; stroke-opacity:1; 
stroke-linecap:round; stroke-linejoin:round;fill-rule:evenodd;"
d="M 106.3222,119.5745
106.3024,119.4750
106.2460,119.3906
106.1617,119.3343
106.0622,119.3145
103.9322,119.3145
103.8327,119.3343
103.7484,119.3906
103.6920,119.4750
103.6722,119.5745
103.6722,121.6545
103.6920,121.7540
103.7484,121.8383
103.8327,121.8947
103.9322,121.9145
106.0622,121.9145
106.1617,121.8947
106.2460,121.8383
106.3024,121.7540
106.3222,121.6545
Z" /> 
</g>
<g >
</g>
<g style="fill:#000000; fill-opacity:1.0000; 
stroke:#000000; stroke-width:0.0000; stroke-opacity:1; 
stroke-linecap:round; stroke-linejoin:round;">
<path style="fill:#000000; fill-opacity:1.0000; 
stroke:#000000; stroke-width:0.0000; stroke-opacity:1; 
stroke-linecap:round; stroke-linejoin:round;fill-rule:evenodd;"
d="M 130.8322,121.7745
130.8124,121.6750
130.7560,121.5906
130.6717,121.5343
130.5722,121.5145
128.4422,121.5145
128.3427,121.5343
128.2584,121.5906
128.2020,121.6750
128.1822,121.7745
128.1822,123.8545
128.2020,123.9540
128.2584,124.0383
128.3427,124.0947
128.4422,124.1145
130.5722,124.1145
130.6717,124.0947
130.7560,124.0383
130.8124,123.9540
130.8322,123.8545
Z" /> 
<path style="fill:#000000; fill-opacity:1.0000; 
stroke:#000000; stroke-width:0.0000; stroke-opacity:1; 
stroke-linecap:round; stroke-linejoin:round;fill-rule:evenodd;"
d="M 142.3222,119.5745
142.3024,119.4750
142.2460,119.3906
142.1617,119.3343
142.0622,119.3145
139.9322,119.3145
139.8327,119.3343
139.7484,119.3906
139.6920,119.4750
139.6722,119.5745
139.6722,121.6545
139.6920,121.7540
139.7484,121.8383
139.8327,121.8947
139.9322,121.9145
142.0622,121.9145
142.1617,121.8947
142.2460,121.8383
142.3024,121.7540
142.3222,121.6545
Z" /> 
</g>
<g >
</g>
<g style="fill:#000000; fill-opacity:1.0000; 
stroke:#000000; stroke-width:0.0000; stroke-opacity:1; 
stroke-linecap:round; stroke-linejoin:round;">
<path style="fill:#000000; fill-opacity:1.0000; 
stroke:#000000; stroke-width:0.0000; stroke-opacity:1; 
stroke-linecap:round; stroke-linejoin:round;fill-rule:evenodd;"
d="M 202.8322,121.7745
202.8124,121.6750
202.7560,121.5906
202.6717,121.5343
202.5722,121.5145
200.4422,121.5145
200.3427,121.5343
200.2584,121.5906
200.2020,121.6750
200.1822,121.7745
200.1822,123.8545
200.2020,123.9540
200.2584,124.0383
200.3427,124.0947
200.4422,124.1145
202.5722,124.1145
202.6717,124.0947
202.7560,124.0383
202.8124,123.9540
202.8322,123.8545
Z" /> 
<path style="fill:#000000; fill-opacity:1.0000; 
stroke:#000000; stroke-width:0.0000; stroke-opacity:1; 
stroke-linecap:round; stroke-linejoin:round;fill-rule:evenodd;"
d="M 214.3222,119.5745
214.3024,119.4750
214.2460,119.3906
214.1617,119.3343
214.0622,119.3145
211.9322,119.3145
211.8327,119.3343
211.7484,119.3906
211.6920,119.4750
211.6722,119.5745
211.6722,121.6545
211.6920,121.7540
211.7484,121.8383
211.8327,121.8947
211.9322,121.9145
214.0622,121.9145
214.1617,121.8947
214.2460,121.8383
214.3024,121.7540
214.3222,121.6545
Z" /> 
</g>
<g >
</g>
<g style="fill:#000000; fill-opacity:1.0000; 
stroke:#000000; stroke-width:0.0000; stroke-opacity:1; 
stroke-linecap:round; stroke-linejoin:round;">
<path style="fill:#000000; fill-opacity:1.0000; 
stroke:#000000; stroke-width:0.0000; stroke-opacity:1; 
stroke-linecap:round; stroke-linejoin:round;fill-rule:evenodd;"
d="M 220.8322,53.7745
220.8124,53.6750
220.7560,53.5906
220.6717,53.5343
220.5722,53.5145
218.4422,53.5145
218.3427,53.5343
218.2584,53.5906
218.2020,53.6750
218.1822,53.7745
218.1822,55.8545
218.2020,55.9540
218.2584,56.0383
218.3427,56.0947
218.4422,56.1145
220.5722,56.1145
220.6717,56.0947
220.7560,56.0383
220.8124,55.9540
220.8322,55.8545
Z" /> 
<path style="fill:#000000; fill-opacity:1.0000; 
stroke:#000000; stroke-width:0.0000; stroke-opacity:1; 
stroke-linecap:round; stroke-linejoin:round;fill-rule:evenodd;"
d="M 232.3222,51.5745
232.3024,51.4750
232.2460,51.3906
232.1617,51.3343
232.0622,51.3145
229.9322,51.3145
229.8327,51.3343
229.7484,51.3906
229.6920,51.4750
229.6722,51.5745
229.6722,53.6545
229.6920,53.7540
229.7484,53.8383
229.8327,53.8947
229.9322,53.9145
232.0622,53.9145
232.1617,53.8947
232.2460,53.8383
232.3024,53.7540
232.3222,53.6545
Z" /> 
</g>
<g >
</g>
<g style="fill:#000000; fill-opacity:1.0000; 
stroke:#000000; stroke-width:0.0000; stroke-opacity:1; 
stroke-linecap:round; stroke-linejoin:round;">
<path style="fill:#000000; fill-opacity:1.0000; 
stroke:#000000; stroke-width:0.0000; stroke-opacity:1; 
stroke-linecap:round; stroke-linejoin:round;fill-rule:evenodd;"
d="M 238.8322,53.7745
238.8124,53.6750
238.7560,53.5906
238.6717,53.5343
238.5722,53.5145
236.4422,53.5145
236.3427,53.5343
236.2584,53.5906
236.2020,53.6750
236.1822,53.7745
236.1822,55.8545
236.2020,55.9540
236.2584,56.0383
236.3427,56.0947
236.4422,56.1145
238.5722,56.1145
238.6717,56.0947
238.7560,56.0383
238.8124,55.9540
238.8322,55.8545
Z" /> 
<path style="fill:#000000; fill-opacity:1.0000; 
stroke:#000000; stroke-width:0.0000; stroke-opacity:1; 
stroke-linecap:round; stroke-linejoin:round;fill-rule:evenodd;"
d="M 250.3222,51.5745
250.3024,51.4750
250.2460,51.3906
250.1617,51.3343
250.0622,51.3145
247.9322,51.3145
247.8327,51.3343
247.7484,51.3906
247.6920,51.4750
247.6722,51.5745
247.6722,53.6545
247.6920,53.7540
247.7484,53.8383
247.8327,53.8947
247.9322,53.9145
250.0622,53.9145
250.1617,53.8947
250.2460,53.8383
250.3024,53.7540
250.3222,53.6545
Z" /> 
</g>
<g >
</g>
<g style="fill:#000000; fill-opacity:1.0000; 
stroke:#000000; stroke-width:0.0000; stroke-opacity:1; 
stroke-linecap:round; stroke-linejoin:round;">
<path style="fill:#000000; fill-opacity:1.0000; 
stroke:#000000; stroke-width:0.0000; stroke-opacity:1; 
stroke-linecap:round; stroke-linejoin:round;fill-rule:evenodd;"
d="M 238.8322,121.7745
238.8124,121.6750
238.7560,121.5906
238.6717,121.5343
238.5722,121.5145
236.4422,121.5145
236.3427,121.5343
236.2584,121.5906
236.2020,121.6750
236.1822,121.7745
236.1822,123.8545
236.2020,123.9540
236.2584,124.0383
236.3427,124.0947
236.4422,124.1145
238.5722,124.1145
238.6717,124.0947
238.7560,124.0383
238.8124,123.9540
238.8322,123.8545
Z" /> 
<path style="fill:#000000; fill-opacity:1.0000; 
stroke:#000000; stroke-width:0.0000; stroke-opacity:1; 
stroke-linecap:round; stroke-linejoin:round;fill-rule:evenodd;"
d="M 250.3222,119.5745
250.3024,119.4750
250.2460,119.3906
250.1617,119.3343
250.0622,119.3145
247.9322,119.3145
247.8327,119.3343
247.7484,119.3906
247.6920,119.4750
247.6722,119.5745
247.6722,121.6545
247.6920,121.7540
247.7484,121.8383
247.8327,121.8947
247.9322,121.9145
250.0622,121.9145
250.1617,121.8947
250.2460,121.8383
250.3024,121.7540
250.3222,121.6545
Z" /> 
</g>
<g >
</g>
<g style="fill:#000000; fill-opacity:1.0000; 
stroke:#000000; stroke-width:0.0000; stroke-opacity:1; 
stroke-linecap:round; stroke-linejoin:round;">
<path style="fill:#000000; fill-opacity:1.0000; 
stroke:#000000; stroke-width:0.0000; stroke-opacity:1; 
stroke-linecap:round; stroke-linejoin:round;fill-rule:evenodd;"
d="M 220.8322,121.7745
220.8124,121.6750
220.7560,121.5906
220.6717,121.5343
220.5722,121.5145
218.4422,121.5145
218.3427,121.5343
218.2584,121.5906
218.2020,121.6750
218.1822,121.7745
218.1822,123.8545
218.2020,123.9540
218.2584,124.0383
218.3427,124.0947
218.4422,124.1145
220.5722,124.1145
220.6717,124.0947
220.7560,124.0383
220.8124,123.9540
220.8322,123.8545
Z" /> 
<path style="fill:#000000; fill-opacity:1.0000; 
stroke:#000000; stroke-width:0.0000; stroke-opacity:1; 
stroke-linecap:round; stroke-linejoin:round;fill-rule:evenodd;"
d="M 232.3222,119.5745
232.3024,119.4750
232.2460,119.3906
232.1617,119.3343
232.0622,119.3145
229.9322,119.3145
229.8327,119.3343
229.7484,119.3906
229.6920,119.4750
229.6722,119.5745
229.6722,121.6545
229.6920,121.7540
229.7484,121.8383
229.8327,121.8947
229.9322,121.9145
232.0622,121.9145
232.1617,121.8947
232.2460,121.8383
232.3024,121.7540
232.3222,121.6545
Z" /> 
</g>
<g >
</g>
<g style="fill:#000000; fill-opacity:1.0000; 
stroke:#000000; stroke-width:0.0000; stroke-opacity:1; 
stroke-linecap:round; stroke-linejoin:round;">
<path style="fill:#000000; fill-opacity:1.0000; 
stroke:#000000; stroke-width:0.0000; stroke-opacity:1; 
stroke-linecap:round; stroke-linejoin:round;fill-rule:evenodd;"
d="M 76.8322,53.7745
76.8124,53.6750
76.7560,53.5906
76.6717,53.5343
76.5722,53.5145
74.4422,53.5145
74.3427,53.5343
74.2584,53.5906
74.2020,53.6750
74.1822,53.7745
74.1822,55.8545
74.2020,55.9540
74.2584,56.0383
74.3427,56.0947
74.4422,56.1145
76.5722,56.1145
76.6717,56.0947
76.7560,56.0383
76.8124,55.9540
76.8322,55.8545
Z" /> 
<path style="fill:#000000; fill-opacity:1.0000; 
stroke:#000000; stroke-width:0.0000; stroke-opacity:1; 
stroke-linecap:round; stroke-linejoin:round;fill-rule:evenodd;"
d="M 88.3222,51.5745
88.3024,51.4750
88.2460,51.3906
88.1617,51.3343
88.0622,51.3145
85.9322,51.3145
85.8327,51.3343
85.7484,51.3906
85.6920,51.4750
85.6722,51.5745
85.6722,53.6545
85.6920,53.7540
85.7484,53.8383
85.8327,53.8947
85.9322,53.9145
88.0622,53.9145
88.1617,53.8947
88.2460,53.8383
88.3024,53.7540
88.3222,53.6545
Z" /> 
</g>
<g >
</g>
<g style="fill:#000000; fill-opacity:1.0000; 
stroke:#000000; stroke-width:0.0000; stroke-opacity:1; 
stroke-linecap:round; stroke-linejoin:round;">
<path style="fill:#000000; fill-opacity:1.0000; 
stroke:#000000; stroke-width:0.0000; stroke-opacity:1; 
stroke-linecap:round; stroke-linejoin:round;fill-rule:evenodd;"
d="M 76.8322,121.7745
76.8124,121.6750
76.7560,121.5906
76.6717,121.5343
76.5722,121.5145
74.4422,121.5145
74.3427,121.5343
74.2584,121.5906
74.2020,121.6750
74.1822,121.7745
74.1822,123.8545
74.2020,123.9540
74.2584,124.0383
74.3427,124.0947
74.4422,124.1145
76.5722,124.1145
76.6717,124.0947
76.7560,124.0383
76.8124,123.9540
76.8322,123.8545
Z" /> 
<path style="fill:#000000; fill-opacity:1.0000; 
stroke:#000000; stroke-width:0.0000; stroke-opacity:1; 
stroke-linecap:round; stroke-linejoin:round;fill-rule:evenodd;"
d="M 88.3222,119.5745
88.3024,119.4750
88.2460,119.3906
88.1617,119.3343
88.0622,119.3145
85.9322,119.3145
85.8327,119.3343
85.7484,119.3906
85.6920,119.4750
85.6722,119.5745
85.6722,121.6545
85.6920,121.7540
85.7484,121.8383
85.8327,121.8947
85.9322,121.9145
88.0622,121.9145
88.1617,121.8947
88.2460,121.8383
88.3024,121.7540
88.3222,121.6545
Z" /> 
</g>
<g >
</g>
<g style="fill:#000000; fill-opacity:1.0000; 
stroke:#000000; stroke-width:0.0000; stroke-opacity:1; 
stroke-linecap:round; stroke-linejoin:round;">
<path style="fill:#000000; fill-opacity:1.0000; 
stroke:#000000; stroke-width:0.0000; stroke-opacity:1; 
stroke-linecap:round; stroke-linejoin:round;fill-rule:evenodd;"
d="M 135.8022,36.9550
135.8022,36.2150
133.4022,36.2150
133.4022,36.9550
Z" /> 
<path style="fill:#000000; fill-opacity:1.0000; 
stroke:#000000; stroke-width:0.0000; stroke-opacity:1; 
stroke-linecap:round; stroke-linejoin:round;fill-rule:evenodd;"
d="M 131.9022,36.9550
131.9022,36.2150
129.5022,36.2150
129.5022,36.9550
Z" /> 
<path style="fill:#000000; fill-opacity:1.0000; 
stroke:#000000; stroke-width:0.0000; stroke-opacity:1; 
stroke-linecap:round; stroke-linejoin:round;fill-rule:evenodd;"
d="M 135.8022,35.6850
135.8022,34.9450
133.4022,34.9450
133.4022,35.6850
Z" /> 
<path style="fill:#000000; fill-opacity:1.0000; 
stroke:#000000; stroke-width:0.0000; stroke-opacity:1; 
stroke-linecap:round; stroke-linejoin:round;fill-rule:evenodd;"
d="M 131.9022,35.6850
131.9022,34.9450
129.5022,34.9450
129.5022,35.6850
Z" /> 
<path style="fill:#000000; fill-opacity:1.0000; 
stroke:#000000; stroke-width:0.0000; stroke-opacity:1; 
stroke-linecap:round; stroke-linejoin:round;fill-rule:evenodd;"
d="M 135.8022,34.4150
135.8022,33.6750
133.4022,33.6750
133.4022,34.4150
Z" /> 
<path style="fill:#000000; fill-opacity:1.0000; 
stroke:#000000; stroke-width:0.0000; stroke-opacity:1; 
stroke-linecap:round; stroke-linejoin:round;fill-rule:evenodd;"
d="M 131.9022,34.4150
131.9022,33.6750
129.5022,33.6750
129.5022,34.4150
Z" /> 
<path style="fill:#000000; fill-opacity:1.0000; 
stroke:#000000; stroke-width:0.0000; stroke-opacity:1; 
stroke-linecap:round; stroke-linejoin:round;fill-rule:evenodd;"
d="M 135.8022,33.1450
135.8022,32.4050
133.4022,32.4050
133.4022,33.1450
Z" /> 
<path style="fill:#000000; fill-opacity:1.0000; 
stroke:#000000; stroke-width:0.0000; stroke-opacity:1; 
stroke-linecap:round; stroke-linejoin:round;fill-rule:evenodd;"
d="M 131.9022,33.1450
131.9022,32.4050
129.5022,32.4050
129.5022,33.1450
Z" /> 
<path style="fill:#000000; fill-opacity:1.0000; 
stroke:#000000; stroke-width:0.0000; stroke-opacity:1; 
stroke-linecap:round; stroke-linejoin:round;fill-rule:evenodd;"
d="M 135.8022,31.8750
135.8022,31.1350
133.4022,31.1350
133.4022,31.8750
Z" /> 
<path style="fill:#000000; fill-opacity:1.0000; 
stroke:#000000; stroke-width:0.0000; stroke-opacity:1; 
stroke-linecap:round; stroke-linejoin:round;fill-rule:evenodd;"
d="M 131.9022,31.8750
131.9022,31.1350
129.5022,31.1350
129.5022,31.8750
Z" /> 
</g>
<g >
</g>
<g style="fill:#000000; fill-opacity:1.0000; 
stroke:#000000; stroke-width:0.0000; stroke-opacity:1; 
stroke-linecap:round; stroke-linejoin:round;">
<path style="fill:#000000; fill-opacity:1.0000; 
stroke:#000000; stroke-width:0.0000; stroke-opacity:1; 
stroke-linecap:round; stroke-linejoin:round;fill-rule:evenodd;"
d="M 40.8322,53.7745
40.8124,53.6750
40.7560,53.5906
40.6717,53.5343
40.5722,53.5145
38.4422,53.5145
38.3427,53.5343
38.2584,53.5906
38.2020,53.6750
38.1822,53.7745
38.1822,55.8545
38.2020,55.9540
38.2584,56.0383
38.3427,56.0947
38.4422,56.1145
40.5722,56.1145
40.6717,56.0947
40.7560,56.0383
40.8124,55.9540
40.8322,55.8545
Z" /> 
<path style="fill:#000000; fill-opacity:1.0000; 
stroke:#000000; stroke-width:0.0000; stroke-opacity:1; 
stroke-linecap:round; stroke-linejoin:round;fill-rule:evenodd;"
d="M 52.3222,51.5745
52.3024,51.4750
52.2460,51.3906
52.1617,51.3343
52.0622,51.3145
49.9322,51.3145
49.8327,51.3343
49.7484,51.3906
49.6920,51.4750
49.6722,51.5745
49.6722,53.6545
49.6920,53.7540
49.7484,53.8383
49.8327,53.8947
49.9322,53.9145
52.0622,53.9145
52.1617,53.8947
52.2460,53.8383
52.3024,53.7540
52.3222,53.6545
Z" /> 
</g>
<g >
</g>
<g style="fill:#000000; fill-opacity:1.0000; 
stroke:#000000; stroke-width:0.0000; stroke-opacity:1; 
stroke-linecap:round; stroke-linejoin:round;">
<path style="fill:#000000; fill-opacity:1.0000; 
stroke:#000000; stroke-width:0.0000; stroke-opacity:1; 
stroke-linecap:round; stroke-linejoin:round;fill-rule:evenodd;"
d="M 184.8322,53.7745
184.8124,53.6750
184.7560,53.5906
184.6717,53.5343
184.5722,53.5145
182.4422,53.5145
182.3427,53.5343
182.2584,53.5906
182.2020,53.6750
182.1822,53.7745
182.1822,55.8545
182.2020,55.9540
182.2584,56.0383
182.3427,56.0947
182.4422,56.1145
184.5722,56.1145
184.6717,56.0947
184.7560,56.0383
184.8124,55.9540
184.8322,55.8545
Z" /> 
<path style="fill:#000000; fill-opacity:1.0000; 
stroke:#000000; stroke-width:0.0000; stroke-opacity:1; 
stroke-linecap:round; stroke-linejoin:round;fill-rule:evenodd;"
d="M 196.3222,51.5745
196.3024,51.4750
196.2460,51.3906
196.1617,51.3343
196.0622,51.3145
193.9322,51.3145
193.8327,51.3343
193.7484,51.3906
193.6920,51.4750
193.6722,51.5745
193.6722,53.6545
193.6920,53.7540
193.7484,53.8383
193.8327,53.8947
193.9322,53.9145
196.0622,53.9145
196.1617,53.8947
196.2460,53.8383
196.3024,53.7540
196.3222,53.6545
Z" /> 
</g>
<g >
</g>
<g style="fill:#000000; fill-opacity:1.0000; 
stroke:#000000; stroke-width:0.0000; stroke-opacity:1; 
stroke-linecap:round; stroke-linejoin:round;">
<path style="fill:#000000; fill-opacity:1.0000; 
stroke:#000000; stroke-width:0.0000; stroke-opacity:1; 
stroke-linecap:round; stroke-linejoin:round;fill-rule:evenodd;"
d="M 148.8322,53.7745
148.8124,53.6750
148.7560,53.5906
148.6717,53.5343
148.5722,53.5145
146.4422,53.5145
146.3427,53.5343
146.2584,53.5906
146.2020,53.6750
146.1822,53.7745
146.1822,55.8545
146.2020,55.9540
146.2584,56.0383
146.3427,56.0947
146.4422,56.1145
148.5722,56.1145
148.6717,56.0947
148.7560,56.0383
148.8124,55.9540
148.8322,55.8545
Z" /> 
<path style="fill:#000000; fill-opacity:1.0000; 
stroke:#000000; stroke-width:0.0000; stroke-opacity:1; 
stroke-linecap:round; stroke-linejoin:round;fill-rule:evenodd;"
d="M 160.3222,51.5745
160.3024,51.4750
160.2460,51.3906
160.1617,51.3343
160.0622,51.3145
157.9322,51.3145
157.8327,51.3343
157.7484,51.3906
157.6920,51.4750
157.6722,51.5745
157.6722,53.6545
157.6920,53.7540
157.7484,53.8383
157.8327,53.8947
157.9322,53.9145
160.0622,53.9145
160.1617,53.8947
160.2460,53.8383
160.3024,53.7540
160.3222,53.6545
Z" /> 
</g>
<g >
</g>
<g style="fill:#000000; fill-opacity:1.0000; 
stroke:#000000; stroke-width:0.0000; stroke-opacity:1; 
stroke-linecap:round; stroke-linejoin:round;">
<path style="fill:#000000; fill-opacity:1.0000; 
stroke:#000000; stroke-width:0.0000; stroke-opacity:1; 
stroke-linecap:round; stroke-linejoin:round;fill-rule:evenodd;"
d="M 112.8322,53.7745
112.8124,53.6750
112.7560,53.5906
112.6717,53.5343
112.5722,53.5145
110.4422,53.5145
110.3427,53.5343
110.2584,53.5906
110.2020,53.6750
110.1822,53.7745
110.1822,55.8545
110.2020,55.9540
110.2584,56.0383
110.3427,56.0947
110.4422,56.1145
112.5722,56.1145
112.6717,56.0947
112.7560,56.0383
112.8124,55.9540
112.8322,55.8545
Z" /> 
<path style="fill:#000000; fill-opacity:1.0000; 
stroke:#000000; stroke-width:0.0000; stroke-opacity:1; 
stroke-linecap:round; stroke-linejoin:round;fill-rule:evenodd;"
d="M 124.3222,51.5745
124.3024,51.4750
124.2460,51.3906
124.1617,51.3343
124.0622,51.3145
121.9322,51.3145
121.8327,51.3343
121.7484,51.3906
121.6920,51.4750
121.6722,51.5745
121.6722,53.6545
121.6920,53.7540
121.7484,53.8383
121.8327,53.8947
121.9322,53.9145
124.0622,53.9145
124.1617,53.8947
124.2460,53.8383
124.3024,53.7540
124.3222,53.6545
Z" /> 
</g>
<g >
</g>
<g style="fill:#000000; fill-opacity:1.0000; 
stroke:#000000; stroke-width:0.0000; stroke-opacity:1; 
stroke-linecap:round; stroke-linejoin:round;">
<path style="fill:#000000; fill-opacity:1.0000; 
stroke:#000000; stroke-width:0.0000; stroke-opacity:1; 
stroke-linecap:round; stroke-linejoin:round;fill-rule:evenodd;"
d="M 58.8322,53.7745
58.8124,53.6750
58.7560,53.5906
58.6717,53.5343
58.5722,53.5145
56.4422,53.5145
56.3427,53.5343
56.2584,53.5906
56.2020,53.6750
56.1822,53.7745
56.1822,55.8545
56.2020,55.9540
56.2584,56.0383
56.3427,56.0947
56.4422,56.1145
58.5722,56.1145
58.6717,56.0947
58.7560,56.0383
58.8124,55.9540
58.8322,55.8545
Z" /> 
<path style="fill:#000000; fill-opacity:1.0000; 
stroke:#000000; stroke-width:0.0000; stroke-opacity:1; 
stroke-linecap:round; stroke-linejoin:round;fill-rule:evenodd;"
d="M 70.3222,51.5745
70.3024,51.4750
70.2460,51.3906
70.1617,51.3343
70.0622,51.3145
67.9322,51.3145
67.8327,51.3343
67.7484,51.3906
67.6920,51.4750
67.6722,51.5745
67.6722,53.6545
67.6920,53.7540
67.7484,53.8383
67.8327,53.8947
67.9322,53.9145
70.0622,53.9145
70.1617,53.8947
70.2460,53.8383
70.3024,53.7540
70.3222,53.6545
Z" /> 
</g>
<g >
</g>
<g style="fill:#000000; fill-opacity:1.0000; 
stroke:#000000; stroke-width:0.0000; stroke-opacity:1; 
stroke-linecap:round; stroke-linejoin:round;">
<path style="fill:#000000; fill-opacity:1.0000; 
stroke:#000000; stroke-width:0.0000; stroke-opacity:1; 
stroke-linecap:round; stroke-linejoin:round;fill-rule:evenodd;"
d="M 94.8322,53.7745
94.8124,53.6750
94.7560,53.5906
94.6717,53.5343
94.5722,53.5145
92.4422,53.5145
92.3427,53.5343
92.2584,53.5906
92.2020,53.6750
92.1822,53.7745
92.1822,55.8545
92.2020,55.9540
92.2584,56.0383
92.3427,56.0947
92.4422,56.1145
94.5722,56.1145
94.6717,56.0947
94.7560,56.0383
94.8124,55.9540
94.8322,55.8545
Z" /> 
<path style="fill:#000000; fill-opacity:1.0000; 
stroke:#000000; stroke-width:0.0000; stroke-opacity:1; 
stroke-linecap:round; stroke-linejoin:round;fill-rule:evenodd;"
d="M 106.3222,51.5745
106.3024,51.4750
106.2460,51.3906
106.1617,51.3343
106.0622,51.3145
103.9322,51.3145
103.8327,51.3343
103.7484,51.3906
103.6920,51.4750
103.6722,51.5745
103.6722,53.6545
103.6920,53.7540
103.7484,53.8383
103.8327,53.8947
103.9322,53.9145
106.0622,53.9145
106.1617,53.8947
106.2460,53.8383
106.3024,53.7540
106.3222,53.6545
Z" /> 
</g>
<g >
</g>
<g style="fill:#000000; fill-opacity:1.0000; 
stroke:#000000; stroke-width:0.0000; stroke-opacity:1; 
stroke-linecap:round; stroke-linejoin:round;">
<path style="fill:#000000; fill-opacity:1.0000; 
stroke:#000000; stroke-width:0.0000; stroke-opacity:1; 
stroke-linecap:round; stroke-linejoin:round;fill-rule:evenodd;"
d="M 202.8322,53.7745
202.8124,53.6750
202.7560,53.5906
202.6717,53.5343
202.5722,53.5145
200.4422,53.5145
200.3427,53.5343
200.2584,53.5906
200.2020,53.6750
200.1822,53.7745
200.1822,55.8545
200.2020,55.9540
200.2584,56.0383
200.3427,56.0947
200.4422,56.1145
202.5722,56.1145
202.6717,56.0947
202.7560,56.0383
202.8124,55.9540
202.8322,55.8545
Z" /> 
<path style="fill:#000000; fill-opacity:1.0000; 
stroke:#000000; stroke-width:0.0000; stroke-opacity:1; 
stroke-linecap:round; stroke-linejoin:round;fill-rule:evenodd;"
d="M 214.3222,51.5745
214.3024,51.4750
214.2460,51.3906
214.1617,51.3343
214.0622,51.3145
211.9322,51.3145
211.8327,51.3343
211.7484,51.3906
211.6920,51.4750
211.6722,51.5745
211.6722,53.6545
211.6920,53.7540
211.7484,53.8383
211.8327,53.8947
211.9322,53.9145
214.0622,53.9145
214.1617,53.8947
214.2460,53.8383
214.3024,53.7540
214.3222,53.6545
Z" /> 
</g>
<g >
</g>
<g style="fill:#000000; fill-opacity:1.0000; 
stroke:#000000; stroke-width:0.0000; stroke-opacity:1; 
stroke-linecap:round; stroke-linejoin:round;">
<path style="fill:#000000; fill-opacity:1.0000; 
stroke:#000000; stroke-width:0.0000; stroke-opacity:1; 
stroke-linecap:round; stroke-linejoin:round;fill-rule:evenodd;"
d="M 166.8322,53.7745
166.8124,53.6750
166.7560,53.5906
166.6717,53.5343
166.5722,53.5145
164.4422,53.5145
164.3427,53.5343
164.2584,53.5906
164.2020,53.6750
164.1822,53.7745
164.1822,55.8545
164.2020,55.9540
164.2584,56.0383
164.3427,56.0947
164.4422,56.1145
166.5722,56.1145
166.6717,56.0947
166.7560,56.0383
166.8124,55.9540
166.8322,55.8545
Z" /> 
<path style="fill:#000000; fill-opacity:1.0000; 
stroke:#000000; stroke-width:0.0000; stroke-opacity:1; 
stroke-linecap:round; stroke-linejoin:round;fill-rule:evenodd;"
d="M 178.3222,51.5745
178.3024,51.4750
178.2460,51.3906
178.1617,51.3343
178.0622,51.3145
175.9322,51.3145
175.8327,51.3343
175.7484,51.3906
175.6920,51.4750
175.6722,51.5745
175.6722,53.6545
175.6920,53.7540
175.7484,53.8383
175.8327,53.8947
175.9322,53.9145
178.0622,53.9145
178.1617,53.8947
178.2460,53.8383
178.3024,53.7540
178.3222,53.6545
Z" /> 
</g>
<g >
</g>
<g style="fill:#000000; fill-opacity:1.0000; 
stroke:#000000; stroke-width:0.0000; stroke-opacity:1; 
stroke-linecap:round; stroke-linejoin:round;">
<path style="fill:#000000; fill-opacity:1.0000; 
stroke:#000000; stroke-width:0.0000; stroke-opacity:1; 
stroke-linecap:round; stroke-linejoin:round;fill-rule:evenodd;"
d="M 40.8322,121.7745
40.8124,121.6750
40.7560,121.5906
40.6717,121.5343
40.5722,121.5145
38.4422,121.5145
38.3427,121.5343
38.2584,121.5906
38.2020,121.6750
38.1822,121.7745
38.1822,123.8545
38.2020,123.9540
38.2584,124.0383
38.3427,124.0947
38.4422,124.1145
40.5722,124.1145
40.6717,124.0947
40.7560,124.0383
40.8124,123.9540
40.8322,123.8545
Z" /> 
<path style="fill:#000000; fill-opacity:1.0000; 
stroke:#000000; stroke-width:0.0000; stroke-opacity:1; 
stroke-linecap:round; stroke-linejoin:round;fill-rule:evenodd;"
d="M 52.3222,119.5745
52.3024,119.4750
52.2460,119.3906
52.1617,119.3343
52.0622,119.3145
49.9322,119.3145
49.8327,119.3343
49.7484,119.3906
49.6920,119.4750
49.6722,119.5745
49.6722,121.6545
49.6920,121.7540
49.7484,121.8383
49.8327,121.8947
49.9322,121.9145
52.0622,121.9145
52.1617,121.8947
52.2460,121.8383
52.3024,121.7540
52.3222,121.6545
Z" /> 
</g>
<g >
</g>
<g style="fill:#000000; fill-opacity:1.0000; 
stroke:#000000; stroke-width:0.0000; stroke-opacity:1; 
stroke-linecap:round; stroke-linejoin:round;">
<path style="fill:#000000; fill-opacity:1.0000; 
stroke:#000000; stroke-width:0.0000; stroke-opacity:1; 
stroke-linecap:round; stroke-linejoin:round;fill-rule:evenodd;"
d="M 148.8322,121.7745
148.8124,121.6750
148.7560,121.5906
148.6717,121.5343
148.5722,121.5145
146.4422,121.5145
146.3427,121.5343
146.2584,121.5906
146.2020,121.6750
146.1822,121.7745
146.1822,123.8545
146.2020,123.9540
146.2584,124.0383
146.3427,124.0947
146.4422,124.1145
148.5722,124.1145
148.6717,124.0947
148.7560,124.0383
148.8124,123.9540
148.8322,123.8545
Z" /> 
<path style="fill:#000000; fill-opacity:1.0000; 
stroke:#000000; stroke-width:0.0000; stroke-opacity:1; 
stroke-linecap:round; stroke-linejoin:round;fill-rule:evenodd;"
d="M 160.3222,119.5745
160.3024,119.4750
160.2460,119.3906
160.1617,119.3343
160.0622,119.3145
157.9322,119.3145
157.8327,119.3343
157.7484,119.3906
157.6920,119.4750
157.6722,119.5745
157.6722,121.6545
157.6920,121.7540
157.7484,121.8383
157.8327,121.8947
157.9322,121.9145
160.0622,121.9145
160.1617,121.8947
160.2460,121.8383
160.3024,121.7540
160.3222,121.6545
Z" /> 
</g>
<g >
</g>
<g style="fill:#000000; fill-opacity:1.0000; 
stroke:#000000; stroke-width:0.0000; stroke-opacity:1; 
stroke-linecap:round; stroke-linejoin:round;">
<path style="fill:#000000; fill-opacity:1.0000; 
stroke:#000000; stroke-width:0.0000; stroke-opacity:1; 
stroke-linecap:round; stroke-linejoin:round;fill-rule:evenodd;"
d="M 130.8322,53.7745
130.8124,53.6750
130.7560,53.5906
130.6717,53.5343
130.5722,53.5145
128.4422,53.5145
128.3427,53.5343
128.2584,53.5906
128.2020,53.6750
128.1822,53.7745
128.1822,55.8545
128.2020,55.9540
128.2584,56.0383
128.3427,56.0947
128.4422,56.1145
130.5722,56.1145
130.6717,56.0947
130.7560,56.0383
130.8124,55.9540
130.8322,55.8545
Z" /> 
<path style="fill:#000000; fill-opacity:1.0000; 
stroke:#000000; stroke-width:0.0000; stroke-opacity:1; 
stroke-linecap:round; stroke-linejoin:round;fill-rule:evenodd;"
d="M 142.3222,51.5745
142.3024,51.4750
142.2460,51.3906
142.1617,51.3343
142.0622,51.3145
139.9322,51.3145
139.8327,51.3343
139.7484,51.3906
139.6920,51.4750
139.6722,51.5745
139.6722,53.6545
139.6920,53.7540
139.7484,53.8383
139.8327,53.8947
139.9322,53.9145
142.0622,53.9145
142.1617,53.8947
142.2460,53.8383
142.3024,53.7540
142.3222,53.6545
Z" /> 
</g>
<g >
</g>
<g style="fill:#000000; fill-opacity:1.0000; 
stroke:#000000; stroke-width:0.0000; stroke-opacity:1; 
stroke-linecap:round; stroke-linejoin:round;">
<path style="fill:#000000; fill-opacity:1.0000; 
stroke:#000000; stroke-width:0.0000; stroke-opacity:1; 
stroke-linecap:round; stroke-linejoin:round;fill-rule:evenodd;"
d="M 58.8322,121.7745
58.8124,121.6750
58.7560,121.5906
58.6717,121.5343
58.5722,121.5145
56.4422,121.5145
56.3427,121.5343
56.2584,121.5906
56.2020,121.6750
56.1822,121.7745
56.1822,123.8545
56.2020,123.9540
56.2584,124.0383
56.3427,124.0947
56.4422,124.1145
58.5722,124.1145
58.6717,124.0947
58.7560,124.0383
58.8124,123.9540
58.8322,123.8545
Z" /> 
<path style="fill:#000000; fill-opacity:1.0000; 
stroke:#000000; stroke-width:0.0000; stroke-opacity:1; 
stroke-linecap:round; stroke-linejoin:round;fill-rule:evenodd;"
d="M 70.3222,119.5745
70.3024,119.4750
70.2460,119.3906
70.1617,119.3343
70.0622,119.3145
67.9322,119.3145
67.8327,119.3343
67.7484,119.3906
67.6920,119.4750
67.6722,119.5745
67.6722,121.6545
67.6920,121.7540
67.7484,121.8383
67.8327,121.8947
67.9322,121.9145
70.0622,121.9145
70.1617,121.8947
70.2460,121.8383
70.3024,121.7540
70.3222,121.6545
Z" /> 
</g>
<g >
</g>
<g style="fill:#000000; fill-opacity:1.0000; 
stroke:#000000; stroke-width:0.0000; stroke-opacity:1; 
stroke-linecap:round; stroke-linejoin:round;">
<path style="fill:#000000; fill-opacity:1.0000; 
stroke:#000000; stroke-width:0.0000; stroke-opacity:1; 
stroke-linecap:round; stroke-linejoin:round;fill-rule:evenodd;"
d="M 121.7272,31.3000
121.7462,31.3957
121.8004,31.4768
121.8815,31.5310
121.9772,31.5500
122.4772,31.5500
122.5729,31.5310
122.6540,31.4768
122.7082,31.3957
122.7272,31.3000
122.7272,28.3000
122.7082,28.2043
122.6540,28.1232
122.5729,28.0690
122.4772,28.0500
121.9772,28.0500
121.8815,28.0690
121.8004,28.1232
121.7462,28.2043
121.7272,28.3000
Z" /> 
<path style="fill:#000000; fill-opacity:1.0000; 
stroke:#000000; stroke-width:0.0000; stroke-opacity:1; 
stroke-linecap:round; stroke-linejoin:round;fill-rule:evenodd;"
d="M 123.7272,31.3000
123.7462,31.3957
123.8004,31.4768
123.8815,31.5310
123.9772,31.5500
124.4772,31.5500
124.5729,31.5310
124.6540,31.4768
124.7082,31.3957
124.7272,31.3000
124.7272,28.3000
124.7082,28.2043
124.6540,28.1232
124.5729,28.0690
124.4772,28.0500
123.9772,28.0500
123.8815,28.0690
123.8004,28.1232
123.7462,28.2043
123.7272,28.3000
Z" /> 
<path style="fill:#000000; fill-opacity:1.0000; 
stroke:#000000; stroke-width:0.0000; stroke-opacity:1; 
stroke-linecap:round; stroke-linejoin:round;fill-rule:evenodd;"
d="M 119.1272,37.0000
119.1462,37.0957
119.2004,37.1768
119.2815,37.2310
119.3772,37.2500
120.3772,37.2500
120.4729,37.2310
120.5540,37.1768
120.6082,37.0957
120.6272,37.0000
120.6272,34.1000
120.6082,34.0043
120.5540,33.9232
120.4729,33.8690
120.3772,33.8500
119.3772,33.8500
119.2815,33.8690
119.2004,33.9232
119.1462,34.0043
119.1272,34.1000
Z" /> 
<path style="fill:#000000; fill-opacity:1.0000; 
stroke:#000000; stroke-width:0.0000; stroke-opacity:1; 
stroke-linecap:round; stroke-linejoin:round;fill-rule:evenodd;"
d="M 125.8272,37.0000
125.8462,37.0957
125.9004,37.1768
125.9815,37.2310
126.0772,37.2500
127.0772,37.2500
127.1729,37.2310
127.2540,37.1768
127.3082,37.0957
127.3272,37.0000
127.3272,34.1000
127.3082,34.0043
127.2540,33.9232
127.1729,33.8690
127.0772,33.8500
126.0772,33.8500
125.9815,33.8690
125.9004,33.9232
125.8462,34.0043
125.8272,34.1000
Z" /> 
</g>
<g >
</g>
<g >
</g>
<g >
</g>
</g> 
</svg>
