<?xml version="1.0" standalone="no"?>
 <!DOCTYPE svg PUBLIC "-//W3C//DTD SVG 1.1//EN" 
 "http://www.w3.org/Graphics/SVG/1.1/DTD/svg11.dtd"> 
<svg
  xmlns:svg="http://www.w3.org/2000/svg"
  xmlns="http://www.w3.org/2000/svg"
  xmlns:xlink="http://www.w3.org/1999/xlink"
  version="1.1"
  width="297.0022mm" height="210.0072mm" viewBox="0.0000 0.0000 297.0022 210.0072">
<title>SVG Image created as ergo56-B_Courtyard.svg date 2023/12/21 16:18:33 </title>
  <desc>Image generated by PCBNEW </desc>
<g style="fill:#000000; fill-opacity:1.0000;stroke:#000000; stroke-opacity:1.0000;
stroke-linecap:round; stroke-linejoin:round;"
 transform="translate(0 0) scale(1 1)">
</g>
<g style="fill:#000000; fill-opacity:0.0; 
stroke:#000000; stroke-width:0.0000; stroke-opacity:1; 
stroke-linecap:round; stroke-linejoin:round;">
</g>
<g style="fill:#000000; fill-opacity:0.0; 
stroke:#000000; stroke-width:0.0500; stroke-opacity:1; 
stroke-linecap:round; stroke-linejoin:round;">
<path d="M85.2572 106.9073
L86.9998 107.3743
" />
<path d="M85.7619 105.0238
L85.2572 106.9073
" />
<path d="M85.7619 105.0238
L87.5045 105.4907
" />
<path d="M86.8574 107.9055
L86.9998 107.3743
" />
<path d="M86.8574 107.9055
L87.4231 108.8853
" />
<path d="M87.5045 105.4907
L87.6468 104.9594
" />
<path d="M87.4231 108.8853
L90.4658 109.7006
" />
<path d="M88.6266 104.3938
L87.6468 104.9594
" />
<path d="M88.6266 104.3938
L90.3653 104.8596
" />
<path d="M91.4456 109.1349
L90.4658 109.7006
" />
<path d="M91.4456 109.1349
L91.5361 108.7968
" />
<path d="M92.7609 108.0897
L95.6587 108.8662
" />
<path d="M96.6385 108.3005
L96.7937 107.7209
" />
<path d="M96.7937 107.7209
L98.5846 108.2008
" />
<path d="M97.6991 105.3236
L97.5438 105.9031
" />
<path d="M97.8803 104.6474
L93.9161 103.5852
" />
<path d="M97.8803 104.6474
L97.6991 105.3236
" />
<path d="M98.5846 108.2008
L99.0893 106.3172
" />
<path d="M99.0893 106.3172
L97.5438 105.9031
" />
<path d="M90.3653 104.8596 A2.6255 2.6255 0.0 0 0 92.8334 103.9763" />
<path d="M93.9161 103.5852 A1.0000 1.0000 0.0 0 0 92.8381 103.9776" />
<path d="M92.7609 108.0897 A1.0000 1.0000 0.0 0 0 91.5361 108.7968" />
<path d="M95.6587 108.8662 A0.8000 0.8000 0.0 0 0 96.6385 108.3005" />
<path d="M66.5965 107.0035
L68.3390 107.4704
" />
<path d="M67.1012 105.1199
L66.5965 107.0035
" />
<path d="M67.1012 105.1199
L68.8437 105.5869
" />
<path d="M68.1967 108.0017
L68.3390 107.4704
" />
<path d="M68.1967 108.0017
L68.7624 108.9815
" />
<path d="M68.8437 105.5869
L68.9861 105.0556
" />
<path d="M68.7624 108.9815
L71.8050 109.7967
" />
<path d="M69.9659 104.4899
L68.9861 105.0556
" />
<path d="M69.9659 104.4899
L71.7045 104.9558
" />
<path d="M72.7848 109.2311
L71.8050 109.7967
" />
<path d="M72.7848 109.2311
L72.8754 108.8930
" />
<path d="M74.1002 108.1859
L76.9979 108.9623
" />
<path d="M77.9777 108.3967
L78.1330 107.8171
" />
<path d="M78.1330 107.8171
L79.9238 108.2969
" />
<path d="M79.0384 105.4197
L78.8831 105.9993
" />
<path d="M79.2195 104.7436
L75.2554 103.6814
" />
<path d="M79.2195 104.7436
L79.0384 105.4197
" />
<path d="M79.9238 108.2969
L80.4285 106.4134
" />
<path d="M80.4285 106.4134
L78.8831 105.9993
" />
<path d="M71.7045 104.9558 A2.6255 2.6255 0.0 0 0 74.1727 104.0724" />
<path d="M75.2554 103.6814 A1.0000 1.0000 0.0 0 0 74.1774 104.0737" />
<path d="M74.1002 108.1859 A1.0000 1.0000 0.0 0 0 72.8754 108.8930" />
<path d="M76.9979 108.9623 A0.8000 0.8000 0.0 0 0 77.9777 108.3967" />
<path d="M47.9597 107.0104
L49.7022 107.4773
" />
<path d="M48.4644 105.1268
L47.9597 107.0104
" />
<path d="M48.4644 105.1268
L50.2069 105.5938
" />
<path d="M49.5598 108.0086
L49.7022 107.4773
" />
<path d="M49.5598 108.0086
L50.1255 108.9884
" />
<path d="M50.2069 105.5938
L50.3492 105.0625
" />
<path d="M50.1255 108.9884
L53.1682 109.8036
" />
<path d="M51.3290 104.4968
L50.3492 105.0625
" />
<path d="M51.3290 104.4968
L53.0677 104.9627
" />
<path d="M54.1480 109.2380
L53.1682 109.8036
" />
<path d="M54.1480 109.2380
L54.2386 108.8999
" />
<path d="M55.4633 108.1928
L58.3611 108.9692
" />
<path d="M59.3409 108.4036
L59.4962 107.8240
" />
<path d="M59.4962 107.8240
L61.2870 108.3038
" />
<path d="M60.4015 105.4266
L60.2462 106.0062
" />
<path d="M60.5827 104.7505
L56.6185 103.6883
" />
<path d="M60.5827 104.7505
L60.4015 105.4266
" />
<path d="M61.2870 108.3038
L61.7917 106.4203
" />
<path d="M61.7917 106.4203
L60.2462 106.0062
" />
<path d="M53.0677 104.9627 A2.6255 2.6255 0.0 0 0 55.5359 104.0793" />
<path d="M56.6185 103.6883 A1.0000 1.0000 0.0 0 0 55.5406 104.0806" />
<path d="M55.4633 108.1928 A1.0000 1.0000 0.0 0 0 54.2386 108.8999" />
<path d="M58.3611 108.9692 A0.8000 0.8000 0.0 0 0 59.3409 108.4036" />
<path d="M29.2989 107.1066
L31.0415 107.5735
" />
<path d="M29.8036 105.2230
L29.2989 107.1066
" />
<path d="M29.8036 105.2230
L31.5462 105.6899
" />
<path d="M30.8991 108.1047
L31.0415 107.5735
" />
<path d="M30.8991 108.1047
L31.4648 109.0845
" />
<path d="M31.5462 105.6899
L31.6885 105.1586
" />
<path d="M31.4648 109.0845
L34.5075 109.8998
" />
<path d="M32.6683 104.5930
L31.6885 105.1586
" />
<path d="M32.6683 104.5930
L34.4070 105.0588
" />
<path d="M35.4873 109.3341
L34.5075 109.8998
" />
<path d="M35.4873 109.3341
L35.5778 108.9960
" />
<path d="M36.8026 108.2889
L39.7004 109.0654
" />
<path d="M40.6802 108.4997
L40.8355 107.9201
" />
<path d="M40.8355 107.9201
L42.6263 108.4000
" />
<path d="M41.7408 105.5228
L41.5855 106.1023
" />
<path d="M41.9220 104.8466
L37.9578 103.7844
" />
<path d="M41.9220 104.8466
L41.7408 105.5228
" />
<path d="M42.6263 108.4000
L43.1310 106.5164
" />
<path d="M43.1310 106.5164
L41.5855 106.1023
" />
<path d="M34.4070 105.0588 A2.6255 2.6255 0.0 0 0 36.8751 104.1755" />
<path d="M37.9578 103.7844 A1.0000 1.0000 0.0 0 0 36.8798 104.1768" />
<path d="M36.8026 108.2889 A1.0000 1.0000 0.0 0 0 35.5778 108.9960" />
<path d="M39.7004 109.0654 A0.8000 0.8000 0.0 0 0 40.6802 108.4997" />
<path d="M255.6871 92.8513
L257.4296 92.3844
" />
<path d="M255.1824 90.9678
L255.6871 92.8513
" />
<path d="M255.1824 90.9678
L256.9249 90.5009
" />
<path d="M257.5720 92.9157
L257.4296 92.3844
" />
<path d="M257.5720 92.9157
L258.5518 93.4814
" />
<path d="M256.9249 90.5009
L256.7826 89.9696
" />
<path d="M258.5518 93.4814
L261.5944 92.6661
" />
<path d="M257.3483 88.9898
L256.7826 89.9696
" />
<path d="M257.3483 88.9898
L259.0869 88.5239
" />
<path d="M262.1601 91.6863
L261.5944 92.6661
" />
<path d="M262.1601 91.6863
L262.0695 91.3482
" />
<path d="M262.7767 90.1235
L265.6744 89.3470
" />
<path d="M266.2401 88.3672
L266.0848 87.7877
" />
<path d="M266.0848 87.7877
L267.8757 87.3078
" />
<path d="M265.6702 85.2588
L265.8255 85.8384
" />
<path d="M265.4890 84.5827
L261.5249 85.6449
" />
<path d="M265.4890 84.5827
L265.6702 85.2588
" />
<path d="M267.8757 87.3078
L267.3710 85.4243
" />
<path d="M267.3710 85.4243
L265.8255 85.8384
" />
<path d="M259.0869 88.5239 A2.6255 2.6255 0.0 0 0 260.7828 86.5248" />
<path d="M261.5249 85.6449 A1.0000 1.0000 0.0 0 0 260.7875 86.5236" />
<path d="M262.7767 90.1235 A1.0000 1.0000 0.0 0 0 262.0695 91.3482" />
<path d="M265.6744 89.3470 A0.8000 0.8000 0.0 0 0 266.2401 88.3672" />
<path d="M237.0152 92.7136
L238.7578 92.2467
" />
<path d="M236.5105 90.8301
L237.0152 92.7136
" />
<path d="M236.5105 90.8301
L238.2531 90.3632
" />
<path d="M238.9001 92.7780
L238.7578 92.2467
" />
<path d="M238.9001 92.7780
L239.8799 93.3437
" />
<path d="M238.2531 90.3632
L238.1107 89.8319
" />
<path d="M239.8799 93.3437
L242.9226 92.5284
" />
<path d="M238.6764 88.8521
L238.1107 89.8319
" />
<path d="M238.6764 88.8521
L240.4151 88.3862
" />
<path d="M243.4883 91.5486
L242.9226 92.5284
" />
<path d="M243.4883 91.5486
L243.3977 91.2105
" />
<path d="M244.1048 89.9858
L247.0026 89.2093
" />
<path d="M247.5683 88.2295
L247.4130 87.6500
" />
<path d="M247.4130 87.6500
L249.2038 87.1701
" />
<path d="M246.9983 85.1211
L247.1536 85.7007
" />
<path d="M246.8171 84.4450
L242.8530 85.5072
" />
<path d="M246.8171 84.4450
L246.9983 85.1211
" />
<path d="M249.2038 87.1701
L248.6991 85.2866
" />
<path d="M248.6991 85.2866
L247.1536 85.7007
" />
<path d="M240.4151 88.3862 A2.6255 2.6255 0.0 0 0 242.1109 86.3871" />
<path d="M242.8530 85.5072 A1.0000 1.0000 0.0 0 0 242.1156 86.3859" />
<path d="M244.1048 89.9858 A1.0000 1.0000 0.0 0 0 243.3977 91.2105" />
<path d="M247.0026 89.2093 A0.8000 0.8000 0.0 0 0 247.5683 88.2295" />
<path d="M218.3785 92.7071
L220.1211 92.2402
" />
<path d="M217.8738 90.8236
L218.3785 92.7071
" />
<path d="M217.8738 90.8236
L219.6164 90.3567
" />
<path d="M220.2634 92.7715
L220.1211 92.2402
" />
<path d="M220.2634 92.7715
L221.2432 93.3372
" />
<path d="M219.6164 90.3567
L219.4740 89.8254
" />
<path d="M221.2432 93.3372
L224.2859 92.5219
" />
<path d="M220.0397 88.8456
L219.4740 89.8254
" />
<path d="M220.0397 88.8456
L221.7784 88.3797
" />
<path d="M224.8516 91.5421
L224.2859 92.5219
" />
<path d="M224.8516 91.5421
L224.7610 91.2040
" />
<path d="M225.4681 89.9793
L228.3659 89.2028
" />
<path d="M228.9315 88.2230
L228.7763 87.6435
" />
<path d="M228.7763 87.6435
L230.5671 87.1636
" />
<path d="M228.3616 85.1146
L228.5169 85.6942
" />
<path d="M228.1804 84.4385
L224.2163 85.5007
" />
<path d="M228.1804 84.4385
L228.3616 85.1146
" />
<path d="M230.5671 87.1636
L230.0624 85.2801
" />
<path d="M230.0624 85.2801
L228.5169 85.6942
" />
<path d="M221.7784 88.3797 A2.6255 2.6255 0.0 0 0 223.4742 86.3806" />
<path d="M224.2163 85.5007 A1.0000 1.0000 0.0 0 0 223.4789 86.3794" />
<path d="M225.4681 89.9793 A1.0000 1.0000 0.0 0 0 224.7610 91.2040" />
<path d="M228.3659 89.2028 A0.8000 0.8000 0.0 0 0 228.9315 88.2230" />
<path d="M183.4067 101.2838
L185.1492 100.8169
" />
<path d="M182.9020 99.4002
L183.4067 101.2838
" />
<path d="M182.9020 99.4002
L184.6445 98.9333
" />
<path d="M185.2916 101.3481
L185.1492 100.8169
" />
<path d="M185.2916 101.3481
L186.2714 101.9138
" />
<path d="M184.6445 98.9333
L184.5022 98.4020
" />
<path d="M186.2714 101.9138
L189.3140 101.0985
" />
<path d="M185.0679 97.4222
L184.5022 98.4020
" />
<path d="M185.0679 97.4222
L186.8065 96.9564
" />
<path d="M189.8797 100.1187
L189.3140 101.0985
" />
<path d="M189.8797 100.1187
L189.7891 99.7806
" />
<path d="M190.4962 98.5559
L193.3940 97.7794
" />
<path d="M193.9597 96.7996
L193.8044 96.2201
" />
<path d="M193.8044 96.2201
L195.5952 95.7402
" />
<path d="M193.3898 93.6912
L193.5451 94.2708
" />
<path d="M193.2086 93.0151
L189.2444 94.0773
" />
<path d="M193.2086 93.0151
L193.3898 93.6912
" />
<path d="M195.5952 95.7402
L195.0905 93.8567
" />
<path d="M195.0905 93.8567
L193.5451 94.2708
" />
<path d="M186.8065 96.9564 A2.6255 2.6255 0.0 0 0 188.5024 94.9573" />
<path d="M189.2444 94.0773 A1.0000 1.0000 0.0 0 0 188.5071 94.9561" />
<path d="M190.4962 98.5559 A1.0000 1.0000 0.0 0 0 189.7891 99.7806" />
<path d="M193.3940 97.7794 A0.8000 0.8000 0.0 0 0 193.9597 96.7996" />
<path d="M167.0956 109.9565
L168.8381 109.4896
" />
<path d="M166.5909 108.0730
L167.0956 109.9565
" />
<path d="M166.5909 108.0730
L168.3334 107.6061
" />
<path d="M168.9805 110.0209
L168.8381 109.4896
" />
<path d="M168.9805 110.0209
L169.9603 110.5866
" />
<path d="M168.3334 107.6061
L168.1911 107.0748
" />
<path d="M169.9603 110.5866
L173.0029 109.7713
" />
<path d="M168.7567 106.0950
L168.1911 107.0748
" />
<path d="M168.7567 106.0950
L170.4954 105.6291
" />
<path d="M173.5686 108.7915
L173.0029 109.7713
" />
<path d="M173.5686 108.7915
L173.4780 108.4534
" />
<path d="M174.1851 107.2287
L177.0829 106.4522
" />
<path d="M177.6486 105.4724
L177.4933 104.8929
" />
<path d="M177.4933 104.8929
L179.2841 104.4130
" />
<path d="M177.0786 102.3640
L177.2339 102.9436
" />
<path d="M176.8975 101.6879
L172.9333 102.7501
" />
<path d="M176.8975 101.6879
L177.0786 102.3640
" />
<path d="M179.2841 104.4130
L178.7794 102.5295
" />
<path d="M178.7794 102.5295
L177.2339 102.9436
" />
<path d="M170.4954 105.6291 A2.6255 2.6255 0.0 0 0 172.1912 103.6300" />
<path d="M172.9333 102.7501 A1.0000 1.0000 0.0 0 0 172.1959 103.6288" />
<path d="M174.1851 107.2287 A1.0000 1.0000 0.0 0 0 173.4780 108.4534" />
<path d="M177.0829 106.4522 A0.8000 0.8000 0.0 0 0 177.6486 105.4724" />
<path d="M122.2794 107.8321
L124.0219 108.2991
" />
<path d="M122.7841 105.9486
L122.2794 107.8321
" />
<path d="M122.7841 105.9486
L124.5266 106.4155
" />
<path d="M123.8795 108.8303
L124.0219 108.2991
" />
<path d="M123.8795 108.8303
L124.4452 109.8101
" />
<path d="M124.5266 106.4155
L124.6689 105.8842
" />
<path d="M124.4452 109.8101
L127.4879 110.6254
" />
<path d="M125.6487 105.3186
L124.6689 105.8842
" />
<path d="M125.6487 105.3186
L127.3874 105.7844
" />
<path d="M128.4677 110.0597
L127.4879 110.6254
" />
<path d="M128.4677 110.0597
L128.5583 109.7216
" />
<path d="M129.7830 109.0145
L132.6808 109.7910
" />
<path d="M133.6606 109.2253
L133.8159 108.6457
" />
<path d="M133.8159 108.6457
L135.6067 109.1256
" />
<path d="M134.7212 106.2484
L134.5659 106.8279
" />
<path d="M134.9024 105.5722
L130.9382 104.5100
" />
<path d="M134.9024 105.5722
L134.7212 106.2484
" />
<path d="M135.6067 109.1256
L136.1114 107.2420
" />
<path d="M136.1114 107.2420
L134.5659 106.8279
" />
<path d="M127.3874 105.7844 A2.6255 2.6255 0.0 0 0 129.8556 104.9011" />
<path d="M130.9382 104.5100 A1.0000 1.0000 0.0 0 0 129.8603 104.9024" />
<path d="M129.7830 109.0145 A1.0000 1.0000 0.0 0 0 128.5583 109.7216" />
<path d="M132.6808 109.7910 A0.8000 0.8000 0.0 0 0 133.6606 109.2253" />
<path d="M162.6957 93.5358
L164.4382 93.0689
" />
<path d="M162.1910 91.6522
L162.6957 93.5358
" />
<path d="M162.1910 91.6522
L163.9335 91.1853
" />
<path d="M164.5805 93.6002
L164.4382 93.0689
" />
<path d="M164.5805 93.6002
L165.5603 94.1658
" />
<path d="M163.9335 91.1853
L163.7911 90.6541
" />
<path d="M165.5603 94.1658
L168.6030 93.3506
" />
<path d="M164.3568 89.6743
L163.7911 90.6541
" />
<path d="M164.3568 89.6743
L166.0955 89.2084
" />
<path d="M169.1687 92.3708
L168.6030 93.3506
" />
<path d="M169.1687 92.3708
L169.0781 92.0327
" />
<path d="M169.7852 90.8079
L172.6830 90.0315
" />
<path d="M173.2487 89.0517
L173.0934 88.4721
" />
<path d="M173.0934 88.4721
L174.8842 87.9923
" />
<path d="M172.6787 85.9433
L172.8340 86.5228
" />
<path d="M172.4976 85.2671
L168.5334 86.3293
" />
<path d="M172.4976 85.2671
L172.6787 85.9433
" />
<path d="M174.8842 87.9923
L174.3795 86.1087
" />
<path d="M174.3795 86.1087
L172.8340 86.5228
" />
<path d="M166.0955 89.2084 A2.6255 2.6255 0.0 0 0 167.7913 87.2093" />
<path d="M168.5334 86.3293 A1.0000 1.0000 0.0 0 0 167.7960 87.2081" />
<path d="M169.7852 90.8079 A1.0000 1.0000 0.0 0 0 169.0781 92.0327" />
<path d="M172.6830 90.0315 A0.8000 0.8000 0.0 0 0 173.2487 89.0517" />
<path d="M199.7178 92.6110
L201.4603 92.1441
" />
<path d="M199.2131 90.7274
L199.7178 92.6110
" />
<path d="M199.2131 90.7274
L200.9556 90.2605
" />
<path d="M201.6027 92.6753
L201.4603 92.1441
" />
<path d="M201.6027 92.6753
L202.5825 93.2410
" />
<path d="M200.9556 90.2605
L200.8133 89.7293
" />
<path d="M202.5825 93.2410
L205.6251 92.4258
" />
<path d="M201.3790 88.7495
L200.8133 89.7293
" />
<path d="M201.3790 88.7495
L203.1176 88.2836
" />
<path d="M206.1908 91.4460
L205.6251 92.4258
" />
<path d="M206.1908 91.4460
L206.1002 91.1079
" />
<path d="M206.8073 89.8831
L209.7051 89.1067
" />
<path d="M210.2708 88.1269
L210.1155 87.5473
" />
<path d="M210.1155 87.5473
L211.9063 87.0675
" />
<path d="M209.7009 85.0185
L209.8562 85.5980
" />
<path d="M209.5197 84.3423
L205.5555 85.4045
" />
<path d="M209.5197 84.3423
L209.7009 85.0185
" />
<path d="M211.9063 87.0675
L211.4016 85.1839
" />
<path d="M211.4016 85.1839
L209.8562 85.5980
" />
<path d="M203.1176 88.2836 A2.6255 2.6255 0.0 0 0 204.8135 86.2845" />
<path d="M205.5555 85.4045 A1.0000 1.0000 0.0 0 0 204.8182 86.2833" />
<path d="M206.8073 89.8831 A1.0000 1.0000 0.0 0 0 206.1002 91.1079" />
<path d="M209.7051 89.1067 A0.8000 0.8000 0.0 0 0 210.2708 88.1269" />
<path d="M105.9683 99.1594
L107.7108 99.6263
" />
<path d="M106.4730 97.2758
L105.9683 99.1594
" />
<path d="M106.4730 97.2758
L108.2155 97.7427
" />
<path d="M107.5684 100.1576
L107.7108 99.6263
" />
<path d="M107.5684 100.1576
L108.1341 101.1373
" />
<path d="M108.2155 97.7427
L108.3578 97.2115
" />
<path d="M108.1341 101.1373
L111.1768 101.9526
" />
<path d="M109.3376 96.6458
L108.3578 97.2115
" />
<path d="M109.3376 96.6458
L111.0763 97.1117
" />
<path d="M112.1566 101.3869
L111.1768 101.9526
" />
<path d="M112.1566 101.3869
L112.2472 101.0489
" />
<path d="M113.4719 100.3418
L116.3697 101.1182
" />
<path d="M117.3495 100.5525
L117.5048 99.9730
" />
<path d="M117.5048 99.9730
L119.2956 100.4528
" />
<path d="M118.4101 97.5756
L118.2548 98.1552
" />
<path d="M118.5913 96.8995
L114.6271 95.8373
" />
<path d="M118.5913 96.8995
L118.4101 97.5756
" />
<path d="M119.2956 100.4528
L119.8003 98.5693
" />
<path d="M119.8003 98.5693
L118.2548 98.1552
" />
<path d="M111.0763 97.1117 A2.6255 2.6255 0.0 0 0 113.5445 96.2283" />
<path d="M114.6271 95.8373 A1.0000 1.0000 0.0 0 0 113.5492 96.2296" />
<path d="M113.4719 100.3418 A1.0000 1.0000 0.0 0 0 112.2472 101.0489" />
<path d="M116.3697 101.1182 A0.8000 0.8000 0.0 0 0 117.3495 100.5525" />
<path d="M89.6571 90.4866
L91.3997 90.9535
" />
<path d="M90.1618 88.6031
L89.6571 90.4866
" />
<path d="M90.1618 88.6031
L91.9044 89.0700
" />
<path d="M91.2573 91.4848
L91.3997 90.9535
" />
<path d="M91.2573 91.4848
L91.8230 92.4646
" />
<path d="M91.9044 89.0700
L92.0467 88.5387
" />
<path d="M91.8230 92.4646
L94.8657 93.2799
" />
<path d="M93.0265 87.9730
L92.0467 88.5387
" />
<path d="M93.0265 87.9730
L94.7652 88.4389
" />
<path d="M95.8455 92.7142
L94.8657 93.2799
" />
<path d="M95.8455 92.7142
L95.9361 92.3761
" />
<path d="M97.1608 91.6690
L100.0586 92.4454
" />
<path d="M101.0384 91.8798
L101.1937 91.3002
" />
<path d="M101.1937 91.3002
L102.9845 91.7801
" />
<path d="M102.0990 88.9028
L101.9437 89.4824
" />
<path d="M102.2802 88.2267
L98.3160 87.1645
" />
<path d="M102.2802 88.2267
L102.0990 88.9028
" />
<path d="M102.9845 91.7801
L103.4892 89.8965
" />
<path d="M103.4892 89.8965
L101.9437 89.4824
" />
<path d="M94.7652 88.4389 A2.6255 2.6255 0.0 0 0 97.2334 87.5555" />
<path d="M98.3160 87.1645 A1.0000 1.0000 0.0 0 0 97.2380 87.5568" />
<path d="M97.1608 91.6690 A1.0000 1.0000 0.0 0 0 95.9361 92.3761" />
<path d="M100.0586 92.4454 A0.8000 0.8000 0.0 0 0 101.0384 91.8798" />
<path d="M70.9964 90.5828
L72.7389 91.0497
" />
<path d="M71.5011 88.6992
L70.9964 90.5828
" />
<path d="M71.5011 88.6992
L73.2436 89.1661
" />
<path d="M72.5966 91.5809
L72.7389 91.0497
" />
<path d="M72.5966 91.5809
L73.1623 92.5607
" />
<path d="M73.2436 89.1661
L73.3860 88.6349
" />
<path d="M73.1623 92.5607
L76.2049 93.3760
" />
<path d="M74.3658 88.0692
L73.3860 88.6349
" />
<path d="M74.3658 88.0692
L76.1044 88.5350
" />
<path d="M77.1847 92.8103
L76.2049 93.3760
" />
<path d="M77.1847 92.8103
L77.2753 92.4722
" />
<path d="M78.5001 91.7651
L81.3978 92.5416
" />
<path d="M82.3776 91.9759
L82.5329 91.3964
" />
<path d="M82.5329 91.3964
L84.3238 91.8762
" />
<path d="M83.4383 88.9990
L83.2830 89.5785
" />
<path d="M83.6194 88.3228
L79.6553 87.2606
" />
<path d="M83.6194 88.3228
L83.4383 88.9990
" />
<path d="M84.3238 91.8762
L84.8285 89.9926
" />
<path d="M84.8285 89.9926
L83.2830 89.5785
" />
<path d="M76.1044 88.5350 A2.6255 2.6255 0.0 0 0 78.5726 87.6517" />
<path d="M79.6553 87.2606 A1.0000 1.0000 0.0 0 0 78.5773 87.6530" />
<path d="M78.5001 91.7651 A1.0000 1.0000 0.0 0 0 77.2753 92.4722" />
<path d="M81.3978 92.5416 A0.8000 0.8000 0.0 0 0 82.3776 91.9759" />
<path d="M52.3596 90.5897
L54.1021 91.0566
" />
<path d="M52.8643 88.7061
L52.3596 90.5897
" />
<path d="M52.8643 88.7061
L54.6068 89.1730
" />
<path d="M53.9598 91.5878
L54.1021 91.0566
" />
<path d="M53.9598 91.5878
L54.5255 92.5676
" />
<path d="M54.6068 89.1730
L54.7492 88.6418
" />
<path d="M54.5255 92.5676
L57.5681 93.3829
" />
<path d="M55.7290 88.0761
L54.7492 88.6418
" />
<path d="M55.7290 88.0761
L57.4676 88.5420
" />
<path d="M58.5479 92.8172
L57.5681 93.3829
" />
<path d="M58.5479 92.8172
L58.6385 92.4792
" />
<path d="M59.8633 91.7720
L62.7610 92.5485
" />
<path d="M63.7408 91.9828
L63.8961 91.4033
" />
<path d="M63.8961 91.4033
L65.6869 91.8831
" />
<path d="M64.8015 89.0059
L64.6462 89.5854
" />
<path d="M64.9826 88.3297
L61.0185 87.2675
" />
<path d="M64.9826 88.3297
L64.8015 89.0059
" />
<path d="M65.6869 91.8831
L66.1916 89.9996
" />
<path d="M66.1916 89.9996
L64.6462 89.5854
" />
<path d="M57.4676 88.5419 A2.6255 2.6255 0.0 0 0 59.9358 87.6586" />
<path d="M61.0185 87.2675 A1.0000 1.0000 0.0 0 0 59.9405 87.6599" />
<path d="M59.8633 91.7720 A1.0000 1.0000 0.0 0 0 58.6385 92.4792" />
<path d="M62.7610 92.5485 A0.8000 0.8000 0.0 0 0 63.7408 91.9828" />
<path d="M33.6989 90.6858
L35.4414 91.1527
" />
<path d="M34.2035 88.8023
L33.6989 90.6858
" />
<path d="M34.2035 88.8023
L35.9461 89.2692
" />
<path d="M35.2990 91.6840
L35.4414 91.1527
" />
<path d="M35.2990 91.6840
L35.8647 92.6638
" />
<path d="M35.9461 89.2692
L36.0884 88.7379
" />
<path d="M35.8647 92.6638
L38.9074 93.4791
" />
<path d="M37.0682 88.1722
L36.0884 88.7379
" />
<path d="M37.0682 88.1722
L38.8069 88.6381
" />
<path d="M39.8872 92.9134
L38.9074 93.4791
" />
<path d="M39.8872 92.9134
L39.9778 92.5753
" />
<path d="M41.2025 91.8682
L44.1003 92.6447
" />
<path d="M45.0801 92.0790
L45.2354 91.4994
" />
<path d="M45.2354 91.4994
L47.0262 91.9793
" />
<path d="M46.1407 89.1020
L45.9854 89.6816
" />
<path d="M46.3219 88.4259
L42.3577 87.3637
" />
<path d="M46.3219 88.4259
L46.1407 89.1020
" />
<path d="M47.0262 91.9793
L47.5309 90.0957
" />
<path d="M47.5309 90.0957
L45.9854 89.6816
" />
<path d="M38.8069 88.6381 A2.6255 2.6255 0.0 0 0 41.2751 87.7547" />
<path d="M42.3577 87.3637 A1.0000 1.0000 0.0 0 0 41.2798 87.7560" />
<path d="M41.2025 91.8682 A1.0000 1.0000 0.0 0 0 39.9778 92.5753" />
<path d="M44.1003 92.6447 A0.8000 0.8000 0.0 0 0 45.0801 92.0790" />
<path d="M251.2872 76.4306
L253.0297 75.9637
" />
<path d="M250.7825 74.5470
L251.2872 76.4306
" />
<path d="M250.7825 74.5470
L252.5250 74.0801
" />
<path d="M253.1721 76.4949
L253.0297 75.9637
" />
<path d="M253.1721 76.4949
L254.1519 77.0606
" />
<path d="M252.5250 74.0801
L252.3827 73.5489
" />
<path d="M254.1519 77.0606
L257.1945 76.2453
" />
<path d="M252.9483 72.5691
L252.3827 73.5489
" />
<path d="M252.9483 72.5691
L254.6870 72.1032
" />
<path d="M257.7602 75.2655
L257.1945 76.2453
" />
<path d="M257.7602 75.2655
L257.6696 74.9275
" />
<path d="M258.3767 73.7027
L261.2745 72.9263
" />
<path d="M261.8402 71.9465
L261.6849 71.3669
" />
<path d="M261.6849 71.3669
L263.4757 70.8871
" />
<path d="M261.2703 68.8381
L261.4255 69.4176
" />
<path d="M261.0891 68.1619
L257.1249 69.2241
" />
<path d="M261.0891 68.1619
L261.2703 68.8381
" />
<path d="M263.4757 70.8871
L262.9710 69.0035
" />
<path d="M262.9710 69.0035
L261.4255 69.4176
" />
<path d="M254.6870 72.1032 A2.6255 2.6255 0.0 0 0 256.3828 70.1041" />
<path d="M257.1249 69.2241 A1.0000 1.0000 0.0 0 0 256.3876 70.1029" />
<path d="M258.3767 73.7027 A1.0000 1.0000 0.0 0 0 257.6696 74.9275" />
<path d="M261.2745 72.9263 A0.8000 0.8000 0.0 0 0 261.8402 71.9465" />
<path d="M113.4795 140.6733
L115.2220 141.1402
" />
<path d="M113.9842 138.7898
L113.4795 140.6733
" />
<path d="M113.9842 138.7898
L115.7267 139.2567
" />
<path d="M115.0797 141.6715
L115.2220 141.1402
" />
<path d="M115.0797 141.6715
L115.6454 142.6513
" />
<path d="M115.7267 139.2567
L115.8691 138.7254
" />
<path d="M115.6454 142.6513
L118.6880 143.4666
" />
<path d="M116.8489 138.1597
L115.8691 138.7254
" />
<path d="M116.8489 138.1597
L118.5875 138.6256
" />
<path d="M119.6678 142.9009
L118.6880 143.4666
" />
<path d="M119.6678 142.9009
L119.7584 142.5628
" />
<path d="M120.9832 141.8557
L123.8809 142.6321
" />
<path d="M124.8607 142.0665
L125.0160 141.4869
" />
<path d="M125.0160 141.4869
L126.8069 141.9668
" />
<path d="M125.9214 139.0895
L125.7661 139.6691
" />
<path d="M126.1025 138.4134
L122.1384 137.3512
" />
<path d="M126.1025 138.4134
L125.9214 139.0895
" />
<path d="M126.8069 141.9668
L127.3115 140.0832
" />
<path d="M127.3115 140.0832
L125.7661 139.6691
" />
<path d="M118.5875 138.6256 A2.6255 2.6255 0.0 0 0 121.0557 137.7422" />
<path d="M122.1384 137.3512 A1.0000 1.0000 0.0 0 0 121.0604 137.7435" />
<path d="M120.9832 141.8557 A1.0000 1.0000 0.0 0 0 119.7584 142.5628" />
<path d="M123.8809 142.6321 A0.8000 0.8000 0.0 0 0 124.8607 142.0665" />
<path d="M232.6153 76.2929
L234.3578 75.8260
" />
<path d="M232.1106 74.4094
L232.6153 76.2929
" />
<path d="M232.1106 74.4094
L233.8532 73.9424
" />
<path d="M234.5002 76.3573
L234.3578 75.8260
" />
<path d="M234.5002 76.3573
L235.4800 76.9229
" />
<path d="M233.8532 73.9424
L233.7108 73.4112
" />
<path d="M235.4800 76.9229
L238.5227 76.1077
" />
<path d="M234.2765 72.4314
L233.7108 73.4112
" />
<path d="M234.2765 72.4314
L236.0152 71.9655
" />
<path d="M239.0883 75.1279
L238.5227 76.1077
" />
<path d="M239.0883 75.1279
L238.9978 74.7898
" />
<path d="M239.7049 73.5650
L242.6026 72.7886
" />
<path d="M243.1683 71.8088
L243.0130 71.2292
" />
<path d="M243.0130 71.2292
L244.8039 70.7494
" />
<path d="M242.5984 68.7004
L242.7537 69.2799
" />
<path d="M242.4172 68.0242
L238.4531 69.0864
" />
<path d="M242.4172 68.0242
L242.5984 68.7004
" />
<path d="M244.8039 70.7494
L244.2992 68.8658
" />
<path d="M244.2992 68.8658
L242.7537 69.2799
" />
<path d="M236.0152 71.9655 A2.6255 2.6255 0.0 0 0 237.7110 69.9664" />
<path d="M238.4531 69.0864 A1.0000 1.0000 0.0 0 0 237.7157 69.9652" />
<path d="M239.7049 73.5650 A1.0000 1.0000 0.0 0 0 238.9978 74.7898" />
<path d="M242.6026 72.7886 A0.8000 0.8000 0.0 0 0 243.1683 71.8088" />
<path d="M38.0988 74.2651
L39.8413 74.7320
" />
<path d="M38.6035 72.3815
L38.0988 74.2651
" />
<path d="M38.6035 72.3815
L40.3460 72.8484
" />
<path d="M39.6990 75.2632
L39.8413 74.7320
" />
<path d="M39.6990 75.2632
L40.2647 76.2430
" />
<path d="M40.3460 72.8484
L40.4884 72.3172
" />
<path d="M40.2647 76.2430
L43.3073 77.0583
" />
<path d="M41.4682 71.7515
L40.4884 72.3172
" />
<path d="M41.4682 71.7515
L43.2068 72.2174
" />
<path d="M44.2871 76.4926
L43.3073 77.0583
" />
<path d="M44.2871 76.4926
L44.3777 76.1546
" />
<path d="M45.6024 75.4474
L48.5002 76.2239
" />
<path d="M49.4800 75.6582
L49.6353 75.0787
" />
<path d="M49.6353 75.0787
L51.4261 75.5585
" />
<path d="M50.5406 72.6813
L50.3854 73.2608
" />
<path d="M50.7218 72.0051
L46.7577 70.9429
" />
<path d="M50.7218 72.0051
L50.5406 72.6813
" />
<path d="M51.4261 75.5585
L51.9308 73.6750
" />
<path d="M51.9308 73.6750
L50.3854 73.2608
" />
<path d="M43.2068 72.2173 A2.6255 2.6255 0.0 0 0 45.6750 71.3340" />
<path d="M46.7577 70.9429 A1.0000 1.0000 0.0 0 0 45.6797 71.3353" />
<path d="M45.6025 75.4474 A1.0000 1.0000 0.0 0 0 44.3777 76.1546" />
<path d="M48.5002 76.2239 A0.8000 0.8000 0.0 0 0 49.4800 75.6582" />
<path d="M110.3682 82.7386
L112.1107 83.2056
" />
<path d="M110.8729 80.8551
L110.3682 82.7386
" />
<path d="M110.8729 80.8551
L112.6154 81.3220
" />
<path d="M111.9684 83.7368
L112.1107 83.2056
" />
<path d="M111.9684 83.7368
L112.5340 84.7166
" />
<path d="M112.6154 81.3220
L112.7578 80.7907
" />
<path d="M112.5340 84.7166
L115.5767 85.5319
" />
<path d="M113.7375 80.2251
L112.7578 80.7907
" />
<path d="M113.7375 80.2251
L115.4762 80.6909
" />
<path d="M116.5565 84.9662
L115.5767 85.5319
" />
<path d="M116.5565 84.9662
L116.6471 84.6281
" />
<path d="M117.8718 83.9210
L120.7696 84.6975
" />
<path d="M121.7494 84.1318
L121.9047 83.5522
" />
<path d="M121.9047 83.5522
L123.6955 84.0321
" />
<path d="M122.8100 81.1549
L122.6547 81.7344
" />
<path d="M122.9912 80.4787
L119.0270 79.4165
" />
<path d="M122.9912 80.4787
L122.8100 81.1549
" />
<path d="M123.6955 84.0321
L124.2002 82.1485
" />
<path d="M124.2002 82.1485
L122.6547 81.7344
" />
<path d="M115.4762 80.6909 A2.6255 2.6255 0.0 0 0 117.9444 79.8076" />
<path d="M119.0270 79.4165 A1.0000 1.0000 0.0 0 0 117.9491 79.8089" />
<path d="M117.8718 83.9210 A1.0000 1.0000 0.0 0 0 116.6471 84.6281" />
<path d="M120.7696 84.6975 A0.8000 0.8000 0.0 0 0 121.7494 84.1318" />
<path d="M94.0571 74.0659
L95.7996 74.5328
" />
<path d="M94.5618 72.1823
L94.0571 74.0659
" />
<path d="M94.5618 72.1823
L96.3043 72.6492
" />
<path d="M95.6572 75.0640
L95.7996 74.5328
" />
<path d="M95.6572 75.0640
L96.2229 76.0438
" />
<path d="M96.3043 72.6492
L96.4466 72.1180
" />
<path d="M96.2229 76.0438
L99.2656 76.8591
" />
<path d="M97.4264 71.5523
L96.4466 72.1180
" />
<path d="M97.4264 71.5523
L99.1651 72.0182
" />
<path d="M100.2454 76.2934
L99.2656 76.8591
" />
<path d="M100.2454 76.2934
L100.3360 75.9554
" />
<path d="M101.5607 75.2482
L104.4585 76.0247
" />
<path d="M105.4383 75.4590
L105.5936 74.8795
" />
<path d="M105.5936 74.8795
L107.3844 75.3593
" />
<path d="M106.4989 72.4821
L106.3436 73.0616
" />
<path d="M106.6801 71.8059
L102.7159 70.7438
" />
<path d="M106.6801 71.8059
L106.4989 72.4821
" />
<path d="M107.3844 75.3593
L107.8891 73.4758
" />
<path d="M107.8891 73.4758
L106.3436 73.0616
" />
<path d="M99.1651 72.0182 A2.6255 2.6255 0.0 0 0 101.6333 71.1348" />
<path d="M102.7159 70.7438 A1.0000 1.0000 0.0 0 0 101.6380 71.1361" />
<path d="M101.5607 75.2482 A1.0000 1.0000 0.0 0 0 100.3360 75.9554" />
<path d="M104.4585 76.0247 A0.8000 0.8000 0.0 0 0 105.4383 75.4590" />
<path d="M179.0068 84.8630
L180.7493 84.3961
" />
<path d="M178.5021 82.9795
L179.0068 84.8630
" />
<path d="M178.5021 82.9795
L180.2446 82.5126
" />
<path d="M180.8916 84.9274
L180.7493 84.3961
" />
<path d="M180.8916 84.9274
L181.8714 85.4931
" />
<path d="M180.2446 82.5126
L180.1022 81.9813
" />
<path d="M181.8714 85.4931
L184.9141 84.6778
" />
<path d="M180.6679 81.0015
L180.1022 81.9813
" />
<path d="M180.6679 81.0015
L182.4066 80.5356
" />
<path d="M185.4798 83.6980
L184.9141 84.6778
" />
<path d="M185.4798 83.6980
L185.3892 83.3599
" />
<path d="M186.0963 82.1352
L188.9941 81.3587
" />
<path d="M189.5598 80.3789
L189.4045 79.7994
" />
<path d="M189.4045 79.7994
L191.1953 79.3195
" />
<path d="M188.9898 77.2705
L189.1451 77.8501
" />
<path d="M188.8087 76.5944
L184.8445 77.6566
" />
<path d="M188.8087 76.5944
L188.9898 77.2705
" />
<path d="M191.1953 79.3195
L190.6906 77.4360
" />
<path d="M190.6906 77.4360
L189.1451 77.8501
" />
<path d="M182.4066 80.5356 A2.6255 2.6255 0.0 0 0 184.1024 78.5365" />
<path d="M184.8445 77.6566 A1.0000 1.0000 0.0 0 0 184.1071 78.5353" />
<path d="M186.0963 82.1352 A1.0000 1.0000 0.0 0 0 185.3892 83.3599" />
<path d="M188.9941 81.3587 A0.8000 0.8000 0.0 0 0 189.5598 80.3789" />
<path d="M171.4955 126.3773
L173.2380 125.9104
" />
<path d="M170.9908 124.4937
L171.4955 126.3773
" />
<path d="M170.9908 124.4937
L172.7333 124.0268
" />
<path d="M173.3804 126.4416
L173.2380 125.9104
" />
<path d="M173.3804 126.4416
L174.3602 127.0073
" />
<path d="M172.7333 124.0268
L172.5910 123.4956
" />
<path d="M174.3602 127.0073
L177.4028 126.1920
" />
<path d="M173.1567 122.5158
L172.5910 123.4956
" />
<path d="M173.1567 122.5158
L174.8953 122.0499
" />
<path d="M177.9685 125.2122
L177.4028 126.1920
" />
<path d="M177.9685 125.2122
L177.8779 124.8742
" />
<path d="M178.5851 123.6494
L181.4828 122.8730
" />
<path d="M182.0485 121.8932
L181.8932 121.3136
" />
<path d="M181.8932 121.3136
L183.6840 120.8338
" />
<path d="M181.4786 118.7848
L181.6339 119.3643
" />
<path d="M181.2974 118.1086
L177.3332 119.1708
" />
<path d="M181.2974 118.1086
L181.4786 118.7848
" />
<path d="M183.6840 120.8338
L183.1794 118.9502
" />
<path d="M183.1794 118.9502
L181.6339 119.3643
" />
<path d="M174.8953 122.0499 A2.6255 2.6255 0.0 0 0 176.5912 120.0508" />
<path d="M177.3332 119.1708 A1.0000 1.0000 0.0 0 0 176.5959 120.0496" />
<path d="M178.5851 123.6494 A1.0000 1.0000 0.0 0 0 177.8779 124.8742" />
<path d="M181.4828 122.8730 A0.8000 0.8000 0.0 0 0 182.0485 121.8932" />
<path d="M56.7595 74.1689
L58.5020 74.6358
" />
<path d="M57.2642 72.2854
L56.7595 74.1689
" />
<path d="M57.2642 72.2854
L59.0067 72.7523
" />
<path d="M58.3597 75.1671
L58.5020 74.6358
" />
<path d="M58.3597 75.1671
L58.9254 76.1469
" />
<path d="M59.0067 72.7523
L59.1491 72.2210
" />
<path d="M58.9254 76.1469
L61.9680 76.9622
" />
<path d="M60.1289 71.6553
L59.1491 72.2210
" />
<path d="M60.1289 71.6553
L61.8675 72.1212
" />
<path d="M62.9478 76.3965
L61.9680 76.9622
" />
<path d="M62.9478 76.3965
L63.0384 76.0584
" />
<path d="M64.2632 75.3513
L67.1609 76.1278
" />
<path d="M68.1407 75.5621
L68.2960 74.9825
" />
<path d="M68.2960 74.9825
L70.0869 75.4624
" />
<path d="M69.2014 72.5852
L69.0461 73.1647
" />
<path d="M69.3825 71.9090
L65.4184 70.8468
" />
<path d="M69.3825 71.9090
L69.2014 72.5852
" />
<path d="M70.0869 75.4624
L70.5916 73.5788
" />
<path d="M70.5916 73.5788
L69.0461 73.1647
" />
<path d="M61.8675 72.1212 A2.6255 2.6255 0.0 0 0 64.3357 71.2379" />
<path d="M65.4184 70.8468 A1.0000 1.0000 0.0 0 0 64.3404 71.2392" />
<path d="M64.2632 75.3513 A1.0000 1.0000 0.0 0 0 63.0384 76.0584" />
<path d="M67.1609 76.1278 A0.8000 0.8000 0.0 0 0 68.1407 75.5621" />
<path d="M213.9786 76.2864
L215.7211 75.8195
" />
<path d="M213.4739 74.4029
L213.9786 76.2864
" />
<path d="M213.4739 74.4029
L215.2164 73.9359
" />
<path d="M215.8635 76.3508
L215.7211 75.8195
" />
<path d="M215.8635 76.3508
L216.8433 76.9164
" />
<path d="M215.2164 73.9359
L215.0741 73.4047
" />
<path d="M216.8433 76.9164
L219.8860 76.1012
" />
<path d="M215.6398 72.4249
L215.0741 73.4047
" />
<path d="M215.6398 72.4249
L217.3784 71.9590
" />
<path d="M220.4516 75.1214
L219.8860 76.1012
" />
<path d="M220.4516 75.1214
L220.3611 74.7833
" />
<path d="M221.0682 73.5585
L223.9659 72.7821
" />
<path d="M224.5316 71.8023
L224.3763 71.2227
" />
<path d="M224.3763 71.2227
L226.1672 70.7429
" />
<path d="M223.9617 68.6939
L224.1170 69.2734
" />
<path d="M223.7805 68.0177
L219.8164 69.0799
" />
<path d="M223.7805 68.0177
L223.9617 68.6939
" />
<path d="M226.1672 70.7429
L225.6625 68.8593
" />
<path d="M225.6625 68.8593
L224.1170 69.2734
" />
<path d="M217.3784 71.9590 A2.6255 2.6255 0.0 0 0 219.0743 69.9599" />
<path d="M219.8164 69.0799 A1.0000 1.0000 0.0 0 0 219.0790 69.9587" />
<path d="M221.0682 73.5585 A1.0000 1.0000 0.0 0 0 220.3611 74.7833" />
<path d="M223.9659 72.7821 A0.8000 0.8000 0.0 0 0 224.5316 71.8023" />
<path d="M195.3179 76.1903
L197.0604 75.7234
" />
<path d="M194.8132 74.3067
L195.3179 76.1903
" />
<path d="M194.8132 74.3067
L196.5557 73.8398
" />
<path d="M197.2028 76.2546
L197.0604 75.7234
" />
<path d="M197.2028 76.2546
L198.1826 76.8203
" />
<path d="M196.5557 73.8398
L196.4134 73.3085
" />
<path d="M198.1826 76.8203
L201.2252 76.0050
" />
<path d="M196.9790 72.3287
L196.4134 73.3085
" />
<path d="M196.9790 72.3287
L198.7177 71.8629
" />
<path d="M201.7909 75.0252
L201.2252 76.0050
" />
<path d="M201.7909 75.0252
L201.7003 74.6872
" />
<path d="M202.4074 73.4624
L205.3052 72.6859
" />
<path d="M205.8709 71.7062
L205.7156 71.1266
" />
<path d="M205.7156 71.1266
L207.5064 70.6467
" />
<path d="M205.3010 68.5977
L205.4562 69.1773
" />
<path d="M205.1198 67.9216
L201.1556 68.9838
" />
<path d="M205.1198 67.9216
L205.3010 68.5977
" />
<path d="M207.5064 70.6467
L207.0017 68.7632
" />
<path d="M207.0017 68.7632
L205.4562 69.1773
" />
<path d="M198.7177 71.8629 A2.6255 2.6255 0.0 0 0 200.4135 69.8638" />
<path d="M201.1556 68.9838 A1.0000 1.0000 0.0 0 0 200.4182 69.8626" />
<path d="M202.4074 73.4624 A1.0000 1.0000 0.0 0 0 201.7003 74.6872" />
<path d="M205.3052 72.6859 A0.8000 0.8000 0.0 0 0 205.8709 71.7062" />
<path d="M260.0870 109.2721
L261.8296 108.8052
" />
<path d="M259.5823 107.3885
L260.0870 109.2721
" />
<path d="M259.5823 107.3885
L261.3249 106.9216
" />
<path d="M261.9719 109.3364
L261.8296 108.8052
" />
<path d="M261.9719 109.3364
L262.9517 109.9021
" />
<path d="M261.3249 106.9216
L261.1825 106.3903
" />
<path d="M262.9517 109.9021
L265.9944 109.0868
" />
<path d="M261.7482 105.4106
L261.1825 106.3903
" />
<path d="M261.7482 105.4106
L263.4869 104.9447
" />
<path d="M266.5601 108.1070
L265.9944 109.0868
" />
<path d="M266.5601 108.1070
L266.4695 107.7690
" />
<path d="M267.1766 106.5442
L270.0744 105.7678
" />
<path d="M270.6400 104.7880
L270.4848 104.2084
" />
<path d="M270.4848 104.2084
L272.2756 103.7286
" />
<path d="M270.0701 101.6796
L270.2254 102.2591
" />
<path d="M269.8889 101.0034
L265.9248 102.0656
" />
<path d="M269.8889 101.0034
L270.0701 101.6796
" />
<path d="M272.2756 103.7286
L271.7709 101.8450
" />
<path d="M271.7709 101.8450
L270.2254 102.2591
" />
<path d="M263.4869 104.9447 A2.6255 2.6255 0.0 0 0 265.1827 102.9456" />
<path d="M265.9248 102.0656 A1.0000 1.0000 0.0 0 0 265.1874 102.9444" />
<path d="M267.1766 106.5442 A1.0000 1.0000 0.0 0 0 266.4695 107.7690" />
<path d="M270.0744 105.7678 A0.8000 0.8000 0.0 0 0 270.6400 104.7880" />
<path d="M241.4152 109.1344
L243.1577 108.6675
" />
<path d="M240.9105 107.2508
L241.4152 109.1344
" />
<path d="M240.9105 107.2508
L242.6530 106.7839
" />
<path d="M243.3001 109.1987
L243.1577 108.6675
" />
<path d="M243.3001 109.1987
L244.2799 109.7644
" />
<path d="M242.6530 106.7839
L242.5107 106.2527
" />
<path d="M244.2799 109.7644
L247.3225 108.9491
" />
<path d="M243.0763 105.2729
L242.5107 106.2527
" />
<path d="M243.0763 105.2729
L244.8150 104.8070
" />
<path d="M247.8882 107.9693
L247.3225 108.9491
" />
<path d="M247.8882 107.9693
L247.7976 107.6313
" />
<path d="M248.5047 106.4065
L251.4025 105.6301
" />
<path d="M251.9682 104.6503
L251.8129 104.0707
" />
<path d="M251.8129 104.0707
L253.6037 103.5909
" />
<path d="M251.3983 101.5419
L251.5535 102.1214
" />
<path d="M251.2171 100.8657
L247.2529 101.9279
" />
<path d="M251.2171 100.8657
L251.3983 101.5419
" />
<path d="M253.6037 103.5909
L253.0990 101.7073
" />
<path d="M253.0990 101.7073
L251.5535 102.1214
" />
<path d="M244.8150 104.8070 A2.6255 2.6255 0.0 0 0 246.5108 102.8079" />
<path d="M247.2529 101.9279 A1.0000 1.0000 0.0 0 0 246.5155 102.8067" />
<path d="M248.5047 106.4065 A1.0000 1.0000 0.0 0 0 247.7976 107.6313" />
<path d="M251.4025 105.6301 A0.8000 0.8000 0.0 0 0 251.9682 104.6503" />
<path d="M222.7785 109.1279
L224.5210 108.6610
" />
<path d="M222.2738 107.2443
L222.7785 109.1279
" />
<path d="M222.2738 107.2443
L224.0163 106.7774
" />
<path d="M224.6633 109.1922
L224.5210 108.6610
" />
<path d="M224.6633 109.1922
L225.6431 109.7579
" />
<path d="M224.0163 106.7774
L223.8739 106.2462
" />
<path d="M225.6431 109.7579
L228.6858 108.9426
" />
<path d="M224.4396 105.2664
L223.8739 106.2462
" />
<path d="M224.4396 105.2664
L226.1783 104.8005
" />
<path d="M229.2515 107.9628
L228.6858 108.9426
" />
<path d="M229.2515 107.9628
L229.1609 107.6248
" />
<path d="M229.8680 106.4000
L232.7658 105.6236
" />
<path d="M233.3315 104.6438
L233.1762 104.0642
" />
<path d="M233.1762 104.0642
L234.9670 103.5844
" />
<path d="M232.7615 101.5354
L232.9168 102.1149
" />
<path d="M232.5804 100.8592
L228.6162 101.9214
" />
<path d="M232.5804 100.8592
L232.7615 101.5354
" />
<path d="M234.9670 103.5844
L234.4623 101.7008
" />
<path d="M234.4623 101.7008
L232.9168 102.1149
" />
<path d="M226.1783 104.8005 A2.6255 2.6255 0.0 0 0 227.8741 102.8014" />
<path d="M228.6162 101.9214 A1.0000 1.0000 0.0 0 0 227.8788 102.8002" />
<path d="M229.8680 106.4000 A1.0000 1.0000 0.0 0 0 229.1609 107.6248" />
<path d="M232.7658 105.6236 A0.8000 0.8000 0.0 0 0 233.3315 104.6438" />
<path d="M204.1177 109.0317
L205.8602 108.5648
" />
<path d="M203.6130 107.1482
L204.1177 109.0317
" />
<path d="M203.6130 107.1482
L205.3556 106.6813
" />
<path d="M206.0026 109.0961
L205.8602 108.5648
" />
<path d="M206.0026 109.0961
L206.9824 109.6618
" />
<path d="M205.3556 106.6813
L205.2132 106.1500
" />
<path d="M206.9824 109.6618
L210.0251 108.8465
" />
<path d="M205.7789 105.1702
L205.2132 106.1500
" />
<path d="M205.7789 105.1702
L207.5176 104.7044
" />
<path d="M210.5907 107.8667
L210.0251 108.8465
" />
<path d="M210.5907 107.8667
L210.5002 107.5286
" />
<path d="M211.2073 106.3039
L214.1050 105.5274
" />
<path d="M214.6707 104.5476
L214.5154 103.9681
" />
<path d="M214.5154 103.9681
L216.3063 103.4882
" />
<path d="M214.1008 101.4392
L214.2561 102.0188
" />
<path d="M213.9196 100.7631
L209.9555 101.8253
" />
<path d="M213.9196 100.7631
L214.1008 101.4392
" />
<path d="M216.3063 103.4882
L215.8016 101.6047
" />
<path d="M215.8016 101.6047
L214.2561 102.0188
" />
<path d="M207.5176 104.7044 A2.6255 2.6255 0.0 0 0 209.2134 102.7053" />
<path d="M209.9555 101.8253 A1.0000 1.0000 0.0 0 0 209.2181 102.7040" />
<path d="M211.2073 106.3039 A1.0000 1.0000 0.0 0 0 210.5002 107.5286" />
<path d="M214.1050 105.5274 A0.8000 0.8000 0.0 0 0 214.6707 104.5476" />
<path d="M187.8066 117.7045
L189.5491 117.2376
" />
<path d="M187.3019 115.8209
L187.8066 117.7045
" />
<path d="M187.3019 115.8209
L189.0444 115.3540
" />
<path d="M189.6915 117.7688
L189.5491 117.2376
" />
<path d="M189.6915 117.7688
L190.6713 118.3345
" />
<path d="M189.0444 115.3540
L188.9021 114.8228
" />
<path d="M190.6713 118.3345
L193.7140 117.5193
" />
<path d="M189.4678 113.8430
L188.9021 114.8228
" />
<path d="M189.4678 113.8430
L191.2064 113.3771
" />
<path d="M194.2796 116.5395
L193.7140 117.5193
" />
<path d="M194.2796 116.5395
L194.1890 116.2014
" />
<path d="M194.8962 114.9766
L197.7939 114.2002
" />
<path d="M198.3596 113.2204
L198.2043 112.6408
" />
<path d="M198.2043 112.6408
L199.9952 112.1610
" />
<path d="M197.7897 110.1120
L197.9450 110.6915
" />
<path d="M197.6085 109.4358
L193.6444 110.4980
" />
<path d="M197.6085 109.4358
L197.7897 110.1120
" />
<path d="M199.9952 112.1610
L199.4905 110.2774
" />
<path d="M199.4905 110.2774
L197.9450 110.6915
" />
<path d="M191.2064 113.3771 A2.6255 2.6255 0.0 0 0 192.9023 111.3780" />
<path d="M193.6444 110.4980 A1.0000 1.0000 0.0 0 0 192.9070 111.3768" />
<path d="M194.8962 114.9766 A1.0000 1.0000 0.0 0 0 194.1891 116.2014" />
<path d="M197.7939 114.2002 A0.8000 0.8000 0.0 0 0 198.3596 113.2204" />
<path d="M117.8794 124.2529
L119.6220 124.7198
" />
<path d="M118.3841 122.3693
L117.8794 124.2529
" />
<path d="M118.3841 122.3693
L120.1267 122.8363
" />
<path d="M119.4796 125.2511
L119.6220 124.7198
" />
<path d="M119.4796 125.2511
L120.0453 126.2309
" />
<path d="M120.1267 122.8363
L120.2690 122.3050
" />
<path d="M120.0453 126.2309
L123.0880 127.0461
" />
<path d="M121.2488 121.7393
L120.2690 122.3050
" />
<path d="M121.2488 121.7393
L122.9875 122.2052
" />
<path d="M124.0678 126.4805
L123.0880 127.0461
" />
<path d="M124.0678 126.4805
L124.1583 126.1424
" />
<path d="M125.3831 125.4353
L128.2809 126.2117
" />
<path d="M129.2607 125.6460
L129.4160 125.0665
" />
<path d="M129.4160 125.0665
L131.2068 125.5463
" />
<path d="M130.3213 122.6691
L130.1660 123.2487
" />
<path d="M130.5025 121.9930
L126.5383 120.9308
" />
<path d="M130.5025 121.9930
L130.3213 122.6691
" />
<path d="M131.2068 125.5463
L131.7115 123.6628
" />
<path d="M131.7115 123.6628
L130.1660 123.2487
" />
<path d="M122.9875 122.2052 A2.6255 2.6255 0.0 0 0 125.4556 121.3218" />
<path d="M126.5383 120.9308 A1.0000 1.0000 0.0 0 0 125.4603 121.3231" />
<path d="M125.3831 125.4353 A1.0000 1.0000 0.0 0 0 124.1583 126.1424" />
<path d="M128.2809 126.2117 A0.8000 0.8000 0.0 0 0 129.2607 125.6460" />
<path d="M101.5683 115.5801
L103.3109 116.0470
" />
<path d="M102.0730 113.6966
L101.5683 115.5801
" />
<path d="M102.0730 113.6966
L103.8156 114.1635
" />
<path d="M103.1685 116.5783
L103.3109 116.0470
" />
<path d="M103.1685 116.5783
L103.7342 117.5581
" />
<path d="M103.8156 114.1635
L103.9579 113.6322
" />
<path d="M103.7342 117.5581
L106.7769 118.3734
" />
<path d="M104.9377 113.0665
L103.9579 113.6322
" />
<path d="M104.9377 113.0665
L106.6764 113.5324
" />
<path d="M107.7567 117.8077
L106.7769 118.3734
" />
<path d="M107.7567 117.8077
L107.8472 117.4696
" />
<path d="M109.0720 116.7625
L111.9698 117.5390
" />
<path d="M112.9496 116.9733
L113.1049 116.3937
" />
<path d="M113.1049 116.3937
L114.8957 116.8736
" />
<path d="M114.0102 113.9963
L113.8549 114.5759
" />
<path d="M114.1914 113.3202
L110.2272 112.2580
" />
<path d="M114.1914 113.3202
L114.0102 113.9963
" />
<path d="M114.8957 116.8736
L115.4004 114.9900
" />
<path d="M115.4004 114.9900
L113.8549 114.5759
" />
<path d="M106.6764 113.5324 A2.6255 2.6255 0.0 0 0 109.1445 112.6490" />
<path d="M110.2272 112.2580 A1.0000 1.0000 0.0 0 0 109.1492 112.6504" />
<path d="M109.0720 116.7625 A1.0000 1.0000 0.0 0 0 107.8472 117.4696" />
<path d="M111.9698 117.5390 A0.8000 0.8000 0.0 0 0 112.9496 116.9733" />
<path d="M75.3963 74.1620
L77.1389 74.6289
" />
<path d="M75.9010 72.2785
L75.3963 74.1620
" />
<path d="M75.9010 72.2785
L77.6436 72.7454
" />
<path d="M76.9965 75.1602
L77.1389 74.6289
" />
<path d="M76.9965 75.1602
L77.5622 76.1400
" />
<path d="M77.6436 72.7454
L77.7859 72.2141
" />
<path d="M77.5622 76.1400
L80.6049 76.9553
" />
<path d="M78.7657 71.6484
L77.7859 72.2141
" />
<path d="M78.7657 71.6484
L80.5044 72.1143
" />
<path d="M81.5847 76.3896
L80.6049 76.9553
" />
<path d="M81.5847 76.3896
L81.6753 76.0515
" />
<path d="M82.9000 75.3444
L85.7978 76.1209
" />
<path d="M86.7776 75.5552
L86.9329 74.9756
" />
<path d="M86.9329 74.9756
L88.7237 75.4555
" />
<path d="M87.8382 72.5782
L87.6829 73.1578
" />
<path d="M88.0194 71.9021
L84.0552 70.8399
" />
<path d="M88.0194 71.9021
L87.8382 72.5782
" />
<path d="M88.7237 75.4555
L89.2284 73.5719
" />
<path d="M89.2284 73.5719
L87.6829 73.1578
" />
<path d="M80.5044 72.1143 A2.6255 2.6255 0.0 0 0 82.9726 71.2310" />
<path d="M84.0552 70.8399 A1.0000 1.0000 0.0 0 0 82.9772 71.2323" />
<path d="M82.9000 75.3444 A1.0000 1.0000 0.0 0 0 81.6753 76.0515" />
<path d="M85.7978 76.1209 A0.8000 0.8000 0.0 0 0 86.7776 75.5552" />
<path d="M126.6793 91.4114
L128.4218 91.8783
" />
<path d="M127.1840 89.5279
L126.6793 91.4114
" />
<path d="M127.1840 89.5279
L128.9265 89.9948
" />
<path d="M128.2795 92.4096
L128.4218 91.8783
" />
<path d="M128.2795 92.4096
L128.8451 93.3894
" />
<path d="M128.9265 89.9948
L129.0689 89.4635
" />
<path d="M128.8451 93.3894
L131.8878 94.2047
" />
<path d="M130.0487 88.8978
L129.0689 89.4635
" />
<path d="M130.0487 88.8978
L131.7873 89.3637
" />
<path d="M132.8676 93.6390
L131.8878 94.2047
" />
<path d="M132.8676 93.6390
L132.9582 93.3009
" />
<path d="M134.1829 92.5938
L137.0807 93.3702
" />
<path d="M138.0605 92.8046
L138.2158 92.2250
" />
<path d="M138.2158 92.2250
L140.0066 92.7049
" />
<path d="M139.1211 89.8276
L138.9658 90.4072
" />
<path d="M139.3023 89.1515
L135.3382 88.0893
" />
<path d="M139.3023 89.1515
L139.1211 89.8276
" />
<path d="M140.0066 92.7049
L140.5113 90.8213
" />
<path d="M140.5113 90.8213
L138.9658 90.4072
" />
<path d="M131.7873 89.3637 A2.6255 2.6255 0.0 0 0 134.2555 88.4803" />
<path d="M135.3382 88.0893 A1.0000 1.0000 0.0 0 0 134.2602 88.4816" />
<path d="M134.1829 92.5938 A1.0000 1.0000 0.0 0 0 132.9582 93.3009" />
<path d="M137.0807 93.3702 A0.8000 0.8000 0.0 0 0 138.0605 92.8046" />
<path d="M96.4614 134.7757
L98.2654 134.7757
" />
<path d="M96.4614 132.8257
L96.4614 134.7757
" />
<path d="M96.4614 132.8257
L98.2654 132.8257
" />
<path d="M98.2654 135.3257
L98.2654 134.7757
" />
<path d="M98.2654 135.3257
L99.0654 136.1257
" />
<path d="M98.2654 132.8257
L98.2654 132.2757
" />
<path d="M99.0654 136.1257
L102.2154 136.1257
" />
<path d="M99.0654 131.4757
L98.2654 132.2757
" />
<path d="M99.0654 131.4757
L100.8654 131.4757
" />
<path d="M103.0154 135.3257
L102.2154 136.1257
" />
<path d="M103.0154 135.3257
L103.0154 134.9757
" />
<path d="M104.0154 133.9757
L107.0154 133.9757
" />
<path d="M107.8154 133.1757
L107.8154 132.5757
" />
<path d="M107.8154 132.5757
L109.6694 132.5757
" />
<path d="M108.0694 130.0257
L108.0694 130.6257
" />
<path d="M108.0694 129.3257
L103.9654 129.3257
" />
<path d="M108.0694 129.3257
L108.0694 130.0257
" />
<path d="M109.6694 132.5757
L109.6694 130.6257
" />
<path d="M109.6694 130.6257
L108.0694 130.6257
" />
<path d="M100.8654 131.4757 A2.6255 2.6255 0.0 0 0 103.0208 129.9836" />
<path d="M103.9654 129.3257 A1.0000 1.0000 0.0 0 0 103.0257 129.9837" />
<path d="M104.0154 133.9757 A1.0000 1.0000 0.0 0 0 103.0154 134.9757" />
<path d="M107.0154 133.9757 A0.8000 0.8000 0.0 0 0 107.8154 133.1757" />
<path d="M175.8954 142.7980
L177.6380 142.3311
" />
<path d="M175.3907 140.9145
L175.8954 142.7980
" />
<path d="M175.3907 140.9145
L177.1333 140.4476
" />
<path d="M177.7803 142.8624
L177.6380 142.3311
" />
<path d="M177.7803 142.8624
L178.7601 143.4280
" />
<path d="M177.1333 140.4476
L176.9909 139.9163
" />
<path d="M178.7601 143.4280
L181.8028 142.6128
" />
<path d="M177.5566 138.9365
L176.9909 139.9163
" />
<path d="M177.5566 138.9365
L179.2953 138.4706
" />
<path d="M182.3685 141.6330
L181.8028 142.6128
" />
<path d="M182.3685 141.6330
L182.2779 141.2949
" />
<path d="M182.9850 140.0702
L185.8828 139.2937
" />
<path d="M186.4484 138.3139
L186.2931 137.7343
" />
<path d="M186.2931 137.7343
L188.0840 137.2545
" />
<path d="M185.8785 135.2055
L186.0338 135.7851
" />
<path d="M185.6973 134.5293
L181.7332 135.5915
" />
<path d="M185.6973 134.5293
L185.8785 135.2055
" />
<path d="M188.0840 137.2545
L187.5793 135.3709
" />
<path d="M187.5793 135.3709
L186.0338 135.7851
" />
<path d="M179.2953 138.4706 A2.6255 2.6255 0.0 0 0 180.9911 136.4715" />
<path d="M181.7332 135.5915 A1.0000 1.0000 0.0 0 0 180.9958 136.4703" />
<path d="M182.9850 140.0702 A1.0000 1.0000 0.0 0 0 182.2779 141.2949" />
<path d="M185.8828 139.2937 A0.8000 0.8000 0.0 0 0 186.4484 138.3139" />
<path d="M192.6336 134.7760
L194.4376 134.7760
" />
<path d="M192.6336 132.8260
L192.6336 134.7760
" />
<path d="M192.6336 132.8260
L194.4376 132.8260
" />
<path d="M194.4376 135.3260
L194.4376 134.7760
" />
<path d="M194.4376 135.3260
L195.2376 136.1260
" />
<path d="M194.4376 132.8260
L194.4376 132.2760
" />
<path d="M195.2376 136.1260
L198.3876 136.1260
" />
<path d="M195.2376 131.4760
L194.4376 132.2760
" />
<path d="M195.2376 131.4760
L197.0376 131.4760
" />
<path d="M199.1876 135.3260
L198.3876 136.1260
" />
<path d="M199.1876 135.3260
L199.1876 134.9760
" />
<path d="M200.1876 133.9760
L203.1876 133.9760
" />
<path d="M203.9876 133.1760
L203.9876 132.5760
" />
<path d="M203.9876 132.5760
L205.8416 132.5760
" />
<path d="M204.2416 130.0260
L204.2416 130.6260
" />
<path d="M204.2416 129.3260
L200.1376 129.3260
" />
<path d="M204.2416 129.3260
L204.2416 130.0260
" />
<path d="M205.8416 132.5760
L205.8416 130.6260
" />
<path d="M205.8416 130.6260
L204.2416 130.6260
" />
<path d="M197.0376 131.4760 A2.6255 2.6255 0.0 0 0 199.1931 129.9839" />
<path d="M200.1376 129.3260 A1.0000 1.0000 0.0 0 0 199.1979 129.9840" />
<path d="M200.1876 133.9760 A1.0000 1.0000 0.0 0 0 199.1876 134.9760" />
<path d="M203.1876 133.9760 A0.8000 0.8000 0.0 0 0 203.9876 133.1760" />
<path d="M153.5476 144.7495
L155.3516 144.7495
" />
<path d="M153.5476 142.7995
L153.5476 144.7495
" />
<path d="M153.5476 142.7995
L155.3516 142.7995
" />
<path d="M155.3516 145.2995
L155.3516 144.7495
" />
<path d="M155.3516 145.2995
L156.1516 146.0995
" />
<path d="M155.3516 142.7995
L155.3516 142.2495
" />
<path d="M156.1516 146.0995
L159.3016 146.0995
" />
<path d="M156.1516 141.4495
L155.3516 142.2495
" />
<path d="M156.1516 141.4495
L157.9516 141.4495
" />
<path d="M160.1016 145.2995
L159.3016 146.0995
" />
<path d="M160.1016 145.2995
L160.1016 144.9495
" />
<path d="M161.1016 143.9495
L164.1016 143.9495
" />
<path d="M164.9016 143.1495
L164.9016 142.5495
" />
<path d="M164.9016 142.5495
L166.7556 142.5495
" />
<path d="M165.1556 139.9995
L165.1556 140.5995
" />
<path d="M165.1556 139.2995
L161.0516 139.2995
" />
<path d="M165.1556 139.2995
L165.1556 139.9995
" />
<path d="M166.7556 142.5495
L166.7556 140.5995
" />
<path d="M166.7556 140.5995
L165.1556 140.5995
" />
<path d="M157.9516 141.4495 A2.6255 2.6255 0.0 0 0 160.1071 139.9575" />
<path d="M161.0516 139.2995 A1.0000 1.0000 0.0 0 0 160.1119 139.9575" />
<path d="M161.1016 143.9495 A1.0000 1.0000 0.0 0 0 160.1016 144.9495" />
<path d="M164.1016 143.9495 A0.8000 0.8000 0.0 0 0 164.9016 143.1495" />
<path d="M78.4610 129.2935
L80.2650 129.2935
" />
<path d="M78.4610 127.3435
L78.4610 129.2935
" />
<path d="M78.4610 127.3435
L80.2650 127.3435
" />
<path d="M80.2650 129.8435
L80.2650 129.2935
" />
<path d="M80.2650 129.8435
L81.0650 130.6435
" />
<path d="M80.2650 127.3435
L80.2650 126.7935
" />
<path d="M81.0650 130.6435
L84.2150 130.6435
" />
<path d="M81.0650 125.9935
L80.2650 126.7935
" />
<path d="M81.0650 125.9935
L82.8650 125.9935
" />
<path d="M85.0150 129.8435
L84.2150 130.6435
" />
<path d="M85.0150 129.8435
L85.0150 129.4935
" />
<path d="M86.0150 128.4935
L89.0150 128.4935
" />
<path d="M89.8150 127.6935
L89.8150 127.0935
" />
<path d="M89.8150 127.0935
L91.6690 127.0935
" />
<path d="M90.0690 124.5435
L90.0690 125.1435
" />
<path d="M90.0690 123.8435
L85.9650 123.8435
" />
<path d="M90.0690 123.8435
L90.0690 124.5435
" />
<path d="M91.6690 127.0935
L91.6690 125.1435
" />
<path d="M91.6690 125.1435
L90.0690 125.1435
" />
<path d="M82.8650 125.9935 A2.6255 2.6255 0.0 0 0 85.0205 124.5014" />
<path d="M85.9650 123.8435 A1.0000 1.0000 0.0 0 0 85.0253 124.5015" />
<path d="M86.0150 128.4935 A1.0000 1.0000 0.0 0 0 85.0150 129.4935" />
<path d="M89.0150 128.4935 A0.8000 0.8000 0.0 0 0 89.8150 127.6935" />
<path d="M61.1594 57.7482
L62.9020 58.2151
" />
<path d="M61.6641 55.8646
L61.1594 57.7482
" />
<path d="M61.6641 55.8646
L63.4067 56.3315
" />
<path d="M62.7596 58.7463
L62.9020 58.2151
" />
<path d="M62.7596 58.7463
L63.3253 59.7261
" />
<path d="M63.4067 56.3315
L63.5490 55.8003
" />
<path d="M63.3253 59.7261
L66.3680 60.5414
" />
<path d="M64.5288 55.2346
L63.5490 55.8003
" />
<path d="M64.5288 55.2346
L66.2675 55.7005
" />
<path d="M67.3478 59.9757
L66.3680 60.5414
" />
<path d="M67.3478 59.9757
L67.4384 59.6377
" />
<path d="M68.6631 58.9305
L71.5609 59.7070
" />
<path d="M72.5407 59.1413
L72.6960 58.5618
" />
<path d="M72.6960 58.5618
L74.4868 59.0416
" />
<path d="M73.6013 56.1644
L73.4460 56.7439
" />
<path d="M73.7825 55.4882
L69.8183 54.4261
" />
<path d="M73.7825 55.4882
L73.6013 56.1644
" />
<path d="M74.4868 59.0416
L74.9915 57.1581
" />
<path d="M74.9915 57.1581
L73.4460 56.7439
" />
<path d="M66.2675 55.7005 A2.6255 2.6255 0.0 0 0 68.7357 54.8171" />
<path d="M69.8183 54.4261 A1.0000 1.0000 0.0 0 0 68.7403 54.8184" />
<path d="M68.6631 58.9305 A1.0000 1.0000 0.0 0 0 67.4384 59.6377" />
<path d="M71.5609 59.7070 A0.8000 0.8000 0.0 0 0 72.5407 59.1413" />
<path d="M42.4987 57.8443
L44.2412 58.3112
" />
<path d="M43.0034 55.9608
L42.4987 57.8443
" />
<path d="M43.0034 55.9608
L44.7459 56.4277
" />
<path d="M44.0989 58.8425
L44.2412 58.3112
" />
<path d="M44.0989 58.8425
L44.6645 59.8223
" />
<path d="M44.7459 56.4277
L44.8883 55.8964
" />
<path d="M44.6645 59.8223
L47.7072 60.6376
" />
<path d="M45.8680 55.3307
L44.8883 55.8964
" />
<path d="M45.8680 55.3307
L47.6067 55.7966
" />
<path d="M48.6870 60.0719
L47.7072 60.6376
" />
<path d="M48.6870 60.0719
L48.7776 59.7338
" />
<path d="M50.0023 59.0267
L52.9001 59.8032
" />
<path d="M53.8799 59.2375
L54.0352 58.6579
" />
<path d="M54.0352 58.6579
L55.8260 59.1378
" />
<path d="M54.9405 56.2605
L54.7852 56.8401
" />
<path d="M55.1217 55.5844
L51.1575 54.5222
" />
<path d="M55.1217 55.5844
L54.9405 56.2605
" />
<path d="M55.8260 59.1378
L56.3307 57.2542
" />
<path d="M56.3307 57.2542
L54.7852 56.8401
" />
<path d="M47.6067 55.7966 A2.6255 2.6255 0.0 0 0 50.0749 54.9132" />
<path d="M51.1575 54.5222 A1.0000 1.0000 0.0 0 0 50.0796 54.9146" />
<path d="M50.0023 59.0267 A1.0000 1.0000 0.0 0 0 48.7776 59.7338" />
<path d="M52.9001 59.8032 A0.8000 0.8000 0.0 0 0 53.8799 59.2375" />
<path d="M209.5787 59.8656
L211.3212 59.3987
" />
<path d="M209.0740 57.9821
L209.5787 59.8656
" />
<path d="M209.0740 57.9821
L210.8165 57.5152
" />
<path d="M211.4636 59.9300
L211.3212 59.3987
" />
<path d="M211.4636 59.9300
L212.4434 60.4957
" />
<path d="M210.8165 57.5152
L210.6742 56.9839
" />
<path d="M212.4434 60.4957
L215.4860 59.6804
" />
<path d="M211.2398 56.0041
L210.6742 56.9839
" />
<path d="M211.2398 56.0041
L212.9785 55.5382
" />
<path d="M216.0517 58.7006
L215.4860 59.6804
" />
<path d="M216.0517 58.7006
L215.9611 58.3625
" />
<path d="M216.6682 57.1378
L219.5660 56.3613
" />
<path d="M220.1317 55.3815
L219.9764 54.8020
" />
<path d="M219.9764 54.8020
L221.7672 54.3221
" />
<path d="M219.5618 52.2731
L219.7170 52.8527
" />
<path d="M219.3806 51.5970
L215.4164 52.6592
" />
<path d="M219.3806 51.5970
L219.5618 52.2731
" />
<path d="M221.7672 54.3221
L221.2625 52.4386
" />
<path d="M221.2625 52.4386
L219.7170 52.8527
" />
<path d="M212.9785 55.5382 A2.6255 2.6255 0.0 0 0 214.6743 53.5391" />
<path d="M215.4164 52.6592 A1.0000 1.0000 0.0 0 0 214.6790 53.5379" />
<path d="M216.6682 57.1378 A1.0000 1.0000 0.0 0 0 215.9611 58.3625" />
<path d="M219.5660 56.3613 A0.8000 0.8000 0.0 0 0 220.1317 55.3815" />
<path d="M210.6336 129.2940
L212.4376 129.2940
" />
<path d="M210.6336 127.3440
L210.6336 129.2940
" />
<path d="M210.6336 127.3440
L212.4376 127.3440
" />
<path d="M212.4376 129.8440
L212.4376 129.2940
" />
<path d="M212.4376 129.8440
L213.2376 130.6440
" />
<path d="M212.4376 127.3440
L212.4376 126.7940
" />
<path d="M213.2376 130.6440
L216.3876 130.6440
" />
<path d="M213.2376 125.9940
L212.4376 126.7940
" />
<path d="M213.2376 125.9940
L215.0376 125.9940
" />
<path d="M217.1876 129.8440
L216.3876 130.6440
" />
<path d="M217.1876 129.8440
L217.1876 129.4940
" />
<path d="M218.1876 128.4940
L221.1876 128.4940
" />
<path d="M221.9876 127.6940
L221.9876 127.0940
" />
<path d="M221.9876 127.0940
L223.8416 127.0940
" />
<path d="M222.2416 124.5440
L222.2416 125.1440
" />
<path d="M222.2416 123.8440
L218.1376 123.8440
" />
<path d="M222.2416 123.8440
L222.2416 124.5440
" />
<path d="M223.8416 127.0940
L223.8416 125.1440
" />
<path d="M223.8416 125.1440
L222.2416 125.1440
" />
<path d="M215.0376 125.9940 A2.6255 2.6255 0.0 0 0 217.1931 124.5019" />
<path d="M218.1376 123.8440 A1.0000 1.0000 0.0 0 0 217.1979 124.5020" />
<path d="M218.1876 128.4940 A1.0000 1.0000 0.0 0 0 217.1876 129.4940" />
<path d="M221.1876 128.4940 A0.8000 0.8000 0.0 0 0 221.9876 127.6940" />
<path d="M246.8872 60.0098
L248.6297 59.5429
" />
<path d="M246.3825 58.1262
L246.8872 60.0098
" />
<path d="M246.3825 58.1262
L248.1251 57.6593
" />
<path d="M248.7721 60.0741
L248.6297 59.5429
" />
<path d="M248.7721 60.0741
L249.7519 60.6398
" />
<path d="M248.1251 57.6593
L247.9827 57.1281
" />
<path d="M249.7519 60.6398
L252.7946 59.8246
" />
<path d="M248.5484 56.1483
L247.9827 57.1281
" />
<path d="M248.5484 56.1483
L250.2871 55.6824
" />
<path d="M253.3602 58.8448
L252.7946 59.8246
" />
<path d="M253.3602 58.8448
L253.2697 58.5067
" />
<path d="M253.9768 57.2819
L256.8745 56.5055
" />
<path d="M257.4402 55.5257
L257.2849 54.9461
" />
<path d="M257.2849 54.9461
L259.0758 54.4663
" />
<path d="M256.8703 52.4173
L257.0256 52.9968
" />
<path d="M256.6891 51.7411
L252.7250 52.8033
" />
<path d="M256.6891 51.7411
L256.8703 52.4173
" />
<path d="M259.0758 54.4663
L258.5711 52.5827
" />
<path d="M258.5711 52.5827
L257.0256 52.9968
" />
<path d="M250.2871 55.6824 A2.6255 2.6255 0.0 0 0 251.9829 53.6833" />
<path d="M252.7250 52.8033 A1.0000 1.0000 0.0 0 0 251.9876 53.6821" />
<path d="M253.9768 57.2819 A1.0000 1.0000 0.0 0 0 253.2697 58.5067" />
<path d="M256.8745 56.5055 A0.8000 0.8000 0.0 0 0 257.4402 55.5257" />
<path d="M98.4569 57.6451
L100.1995 58.1120
" />
<path d="M98.9616 55.7616
L98.4569 57.6451
" />
<path d="M98.9616 55.7616
L100.7042 56.2285
" />
<path d="M100.0571 58.6433
L100.1995 58.1120
" />
<path d="M100.0571 58.6433
L100.6228 59.6231
" />
<path d="M100.7042 56.2285
L100.8465 55.6972
" />
<path d="M100.6228 59.6231
L103.6655 60.4384
" />
<path d="M101.8263 55.1315
L100.8465 55.6972
" />
<path d="M101.8263 55.1315
L103.5650 55.5974
" />
<path d="M104.6453 59.8727
L103.6655 60.4384
" />
<path d="M104.6453 59.8727
L104.7359 59.5346
" />
<path d="M105.9606 58.8275
L108.8584 59.6039
" />
<path d="M109.8382 59.0383
L109.9935 58.4587
" />
<path d="M109.9935 58.4587
L111.7843 58.9386
" />
<path d="M110.8988 56.0613
L110.7435 56.6409
" />
<path d="M111.0800 55.3852
L107.1158 54.3230
" />
<path d="M111.0800 55.3852
L110.8988 56.0613
" />
<path d="M111.7843 58.9386
L112.2890 57.0550
" />
<path d="M112.2890 57.0550
L110.7435 56.6409
" />
<path d="M103.5650 55.5974 A2.6255 2.6255 0.0 0 0 106.0332 54.7140" />
<path d="M107.1158 54.3230 A1.0000 1.0000 0.0 0 0 106.0378 54.7153" />
<path d="M105.9606 58.8275 A1.0000 1.0000 0.0 0 0 104.7359 59.5346" />
<path d="M108.8584 59.6039 A0.8000 0.8000 0.0 0 0 109.8382 59.0383" />
<path d="M131.0792 74.9907
L132.8217 75.4576
" />
<path d="M131.5839 73.1071
L131.0792 74.9907
" />
<path d="M131.5839 73.1071
L133.3264 73.5740
" />
<path d="M132.6793 75.9888
L132.8217 75.4576
" />
<path d="M132.6793 75.9888
L133.2450 76.9686
" />
<path d="M133.3264 73.5740
L133.4687 73.0428
" />
<path d="M133.2450 76.9686
L136.2877 77.7839
" />
<path d="M134.4485 72.4771
L133.4687 73.0428
" />
<path d="M134.4485 72.4771
L136.1872 72.9430
" />
<path d="M137.2675 77.2182
L136.2877 77.7839
" />
<path d="M137.2675 77.2182
L137.3581 76.8802
" />
<path d="M138.5828 76.1731
L141.4806 76.9495
" />
<path d="M142.4604 76.3838
L142.6157 75.8043
" />
<path d="M142.6157 75.8043
L144.4065 76.2841
" />
<path d="M143.5210 73.4069
L143.3657 73.9865
" />
<path d="M143.7022 72.7308
L139.7380 71.6686
" />
<path d="M143.7022 72.7308
L143.5210 73.4069
" />
<path d="M144.4065 76.2841
L144.9112 74.4006
" />
<path d="M144.9112 74.4006
L143.3657 73.9865
" />
<path d="M136.1872 72.9430 A2.6255 2.6255 0.0 0 0 138.6554 72.0596" />
<path d="M139.7380 71.6686 A1.0000 1.0000 0.0 0 0 138.6601 72.0609" />
<path d="M138.5828 76.1731 A1.0000 1.0000 0.0 0 0 137.3581 76.8802" />
<path d="M141.4806 76.9495 A0.8000 0.8000 0.0 0 0 142.4604 76.3838" />
<path d="M174.6069 68.4423
L176.3494 67.9754
" />
<path d="M174.1022 66.5588
L174.6069 68.4423
" />
<path d="M174.1022 66.5588
L175.8447 66.0918
" />
<path d="M176.4917 68.5067
L176.3494 67.9754
" />
<path d="M176.4917 68.5067
L177.4715 69.0723
" />
<path d="M175.8447 66.0918
L175.7023 65.5606
" />
<path d="M177.4715 69.0723
L180.5142 68.2571
" />
<path d="M176.2680 64.5808
L175.7023 65.5606
" />
<path d="M176.2680 64.5808
L178.0067 64.1149
" />
<path d="M181.0799 67.2773
L180.5142 68.2571
" />
<path d="M181.0799 67.2773
L180.9893 66.9392
" />
<path d="M181.6964 65.7144
L184.5942 64.9380
" />
<path d="M185.1599 63.9582
L185.0046 63.3786
" />
<path d="M185.0046 63.3786
L186.7954 62.8988
" />
<path d="M184.5899 60.8498
L184.7452 61.4293
" />
<path d="M184.4088 60.1736
L180.4446 61.2358
" />
<path d="M184.4088 60.1736
L184.5899 60.8498
" />
<path d="M186.7954 62.8988
L186.2907 61.0152
" />
<path d="M186.2907 61.0152
L184.7452 61.4293
" />
<path d="M178.0067 64.1149 A2.6255 2.6255 0.0 0 0 179.7025 62.1158" />
<path d="M180.4446 61.2358 A1.0000 1.0000 0.0 0 0 179.7072 62.1146" />
<path d="M181.6964 65.7144 A1.0000 1.0000 0.0 0 0 180.9893 66.9392" />
<path d="M184.5942 64.9380 A0.8000 0.8000 0.0 0 0 185.1599 63.9582" />
<path d="M228.2154 59.8721
L229.9579 59.4052
" />
<path d="M227.7107 57.9886
L228.2154 59.8721
" />
<path d="M227.7107 57.9886
L229.4532 57.5217
" />
<path d="M230.1003 59.9365
L229.9579 59.4052
" />
<path d="M230.1003 59.9365
L231.0801 60.5022
" />
<path d="M229.4532 57.5217
L229.3109 56.9904
" />
<path d="M231.0801 60.5022
L234.1227 59.6869
" />
<path d="M229.8766 56.0106
L229.3109 56.9904
" />
<path d="M229.8766 56.0106
L231.6152 55.5447
" />
<path d="M234.6884 58.7071
L234.1227 59.6869
" />
<path d="M234.6884 58.7071
L234.5978 58.3690
" />
<path d="M235.3050 57.1443
L238.2027 56.3678
" />
<path d="M238.7684 55.3880
L238.6131 54.8085
" />
<path d="M238.6131 54.8085
L240.4040 54.3286
" />
<path d="M238.1985 52.2796
L238.3538 52.8592
" />
<path d="M238.0173 51.6035
L234.0532 52.6656
" />
<path d="M238.0173 51.6035
L238.1985 52.2796
" />
<path d="M240.4040 54.3286
L239.8993 52.4450
" />
<path d="M239.8993 52.4450
L238.3538 52.8592
" />
<path d="M231.6152 55.5447 A2.6255 2.6255 0.0 0 0 233.3111 53.5456" />
<path d="M234.0532 52.6656 A1.0000 1.0000 0.0 0 0 233.3158 53.5444" />
<path d="M235.3050 57.1443 A1.0000 1.0000 0.0 0 0 234.5978 58.3690" />
<path d="M238.2027 56.3678 A0.8000 0.8000 0.0 0 0 238.7684 55.3880" />
<path d="M190.9179 59.7695
L192.6605 59.3026
" />
<path d="M190.4132 57.8859
L190.9179 59.7695
" />
<path d="M190.4132 57.8859
L192.1558 57.4190
" />
<path d="M192.8028 59.8338
L192.6605 59.3026
" />
<path d="M192.8028 59.8338
L193.7826 60.3995
" />
<path d="M192.1558 57.4190
L192.0134 56.8878
" />
<path d="M193.7826 60.3995
L196.8253 59.5842
" />
<path d="M192.5791 55.9080
L192.0134 56.8878
" />
<path d="M192.5791 55.9080
L194.3178 55.4421
" />
<path d="M197.3910 58.6044
L196.8253 59.5842
" />
<path d="M197.3910 58.6044
L197.3004 58.2664
" />
<path d="M198.0075 57.0416
L200.9052 56.2652
" />
<path d="M201.4709 55.2854
L201.3156 54.7058
" />
<path d="M201.3156 54.7058
L203.1065 54.2260
" />
<path d="M200.9010 52.1770
L201.0563 52.7565
" />
<path d="M200.7198 51.5008
L196.7557 52.5630
" />
<path d="M200.7198 51.5008
L200.9010 52.1770
" />
<path d="M203.1065 54.2260
L202.6018 52.3424
" />
<path d="M202.6018 52.3424
L201.0563 52.7565
" />
<path d="M194.3178 55.4421 A2.6255 2.6255 0.0 0 0 196.0136 53.4430" />
<path d="M196.7557 52.5630 A1.0000 1.0000 0.0 0 0 196.0183 53.4418" />
<path d="M198.0075 57.0416 A1.0000 1.0000 0.0 0 0 197.3004 58.2664" />
<path d="M200.9052 56.2652 A0.8000 0.8000 0.0 0 0 201.4709 55.2854" />
<path d="M79.7963 57.7413
L81.5388 58.2082
" />
<path d="M80.3010 55.8577
L79.7963 57.7413
" />
<path d="M80.3010 55.8577
L82.0435 56.3246
" />
<path d="M81.3965 58.7394
L81.5388 58.2082
" />
<path d="M81.3965 58.7394
L81.9622 59.7192
" />
<path d="M82.0435 56.3246
L82.1859 55.7934
" />
<path d="M81.9622 59.7192
L85.0048 60.5345
" />
<path d="M83.1657 55.2277
L82.1859 55.7934
" />
<path d="M83.1657 55.2277
L84.9043 55.6935
" />
<path d="M85.9846 59.9688
L85.0048 60.5345
" />
<path d="M85.9846 59.9688
L86.0752 59.6307
" />
<path d="M87.2999 58.9236
L90.1977 59.7001
" />
<path d="M91.1775 59.1344
L91.3328 58.5549
" />
<path d="M91.3328 58.5549
L93.1236 59.0347
" />
<path d="M92.2381 56.1575
L92.0829 56.7370
" />
<path d="M92.4193 55.4813
L88.4552 54.4191
" />
<path d="M92.4193 55.4813
L92.2381 56.1575
" />
<path d="M93.1236 59.0347
L93.6283 57.1512
" />
<path d="M93.6283 57.1512
L92.0829 56.7370
" />
<path d="M84.9043 55.6935 A2.6255 2.6255 0.0 0 0 87.3725 54.8102" />
<path d="M88.4552 54.4191 A1.0000 1.0000 0.0 0 0 87.3772 54.8115" />
<path d="M87.2999 58.9236 A1.0000 1.0000 0.0 0 0 86.0752 59.6307" />
<path d="M90.1977 59.7001 A0.8000 0.8000 0.0 0 0 91.1775 59.1344" />
<path d="M114.7681 66.3179
L116.5106 66.7849
" />
<path d="M115.2728 64.4344
L114.7681 66.3179
" />
<path d="M115.2728 64.4344
L117.0153 64.9013
" />
<path d="M116.3683 67.3161
L116.5106 66.7849
" />
<path d="M116.3683 67.3161
L116.9340 68.2959
" />
<path d="M117.0153 64.9013
L117.1577 64.3700
" />
<path d="M116.9340 68.2959
L119.9766 69.1112
" />
<path d="M118.1375 63.8044
L117.1577 64.3700
" />
<path d="M118.1375 63.8044
L119.8762 64.2702
" />
<path d="M120.9564 68.5455
L119.9766 69.1112
" />
<path d="M120.9564 68.5455
L121.0470 68.2074
" />
<path d="M122.2718 67.5003
L125.1695 68.2768
" />
<path d="M126.1493 67.7111
L126.3046 67.1315
" />
<path d="M126.3046 67.1315
L128.0955 67.6114
" />
<path d="M127.2100 64.7342
L127.0547 65.3137
" />
<path d="M127.3911 64.0580
L123.4270 62.9958
" />
<path d="M127.3911 64.0580
L127.2100 64.7342
" />
<path d="M128.0955 67.6114
L128.6002 65.7278
" />
<path d="M128.6002 65.7278
L127.0547 65.3137
" />
<path d="M119.8762 64.2702 A2.6255 2.6255 0.0 0 0 122.3443 63.3869" />
<path d="M123.4270 62.9958 A1.0000 1.0000 0.0 0 0 122.3490 63.3882" />
<path d="M122.2718 67.5003 A1.0000 1.0000 0.0 0 0 121.0470 68.2074" />
<path d="M125.1695 68.2768 A0.8000 0.8000 0.0 0 0 126.1493 67.7111" />
<path d="M135.5476 144.7495
L137.3516 144.7495
" />
<path d="M135.5476 142.7995
L135.5476 144.7495
" />
<path d="M135.5476 142.7995
L137.3516 142.7995
" />
<path d="M137.3516 145.2995
L137.3516 144.7495
" />
<path d="M137.3516 145.2995
L138.1516 146.0995
" />
<path d="M137.3516 142.7995
L137.3516 142.2495
" />
<path d="M138.1516 146.0995
L141.3016 146.0995
" />
<path d="M138.1516 141.4495
L137.3516 142.2495
" />
<path d="M138.1516 141.4495
L139.9516 141.4495
" />
<path d="M142.1016 145.2995
L141.3016 146.0995
" />
<path d="M142.1016 145.2995
L142.1016 144.9495
" />
<path d="M143.1016 143.9495
L146.1016 143.9495
" />
<path d="M146.9016 143.1495
L146.9016 142.5495
" />
<path d="M146.9016 142.5495
L148.7556 142.5495
" />
<path d="M147.1556 139.9995
L147.1556 140.5995
" />
<path d="M147.1556 139.2995
L143.0516 139.2995
" />
<path d="M147.1556 139.2995
L147.1556 139.9995
" />
<path d="M148.7556 142.5495
L148.7556 140.5995
" />
<path d="M148.7556 140.5995
L147.1556 140.5995
" />
<path d="M139.9516 141.4495 A2.6255 2.6255 0.0 0 0 142.1071 139.9575" />
<path d="M143.0516 139.2995 A1.0000 1.0000 0.0 0 0 142.1119 139.9575" />
<path d="M143.1016 143.9495 A1.0000 1.0000 0.0 0 0 142.1016 144.9495" />
<path d="M146.1016 143.9495 A0.8000 0.8000 0.0 0 0 146.9016 143.1495" />
<path d="M158.2957 77.1150
L160.0382 76.6481
" />
<path d="M157.7910 75.2315
L158.2957 77.1150
" />
<path d="M157.7910 75.2315
L159.5335 74.7646
" />
<path d="M160.1806 77.1794
L160.0382 76.6481
" />
<path d="M160.1806 77.1794
L161.1604 77.7451
" />
<path d="M159.5335 74.7646
L159.3912 74.2333
" />
<path d="M161.1604 77.7451
L164.2030 76.9298
" />
<path d="M159.9569 73.2535
L159.3912 74.2333
" />
<path d="M159.9569 73.2535
L161.6955 72.7877
" />
<path d="M164.7687 75.9500
L164.2030 76.9298
" />
<path d="M164.7687 75.9500
L164.6781 75.6119
" />
<path d="M165.3852 74.3872
L168.2830 73.6107
" />
<path d="M168.8487 72.6309
L168.6934 72.0514
" />
<path d="M168.6934 72.0514
L170.4842 71.5715
" />
<path d="M168.2788 69.5225
L168.4341 70.1021
" />
<path d="M168.0976 68.8464
L164.1334 69.9086
" />
<path d="M168.0976 68.8464
L168.2788 69.5225
" />
<path d="M170.4842 71.5715
L169.9795 69.6880
" />
<path d="M169.9795 69.6880
L168.4341 70.1021
" />
<path d="M161.6955 72.7877 A2.6255 2.6255 0.0 0 0 163.3914 70.7886" />
<path d="M164.1334 69.9086 A1.0000 1.0000 0.0 0 0 163.3961 70.7873" />
<path d="M165.3852 74.3872 A1.0000 1.0000 0.0 0 0 164.6781 75.6119" />
<path d="M168.2830 73.6107 A0.8000 0.8000 0.0 0 0 168.8487 72.6309" />
<path d="M144.7536 118.2665
L135.5537 118.2665
" />
<path d="M144.7536 128.4665
L144.7536 118.2665
" />
<path d="M135.5537 118.2665
L135.5537 128.4665
" />
<path d="M135.5537 128.4665
L144.7536 128.4665
" />
<g >
</g>
<g >
</g>
<g >
</g>
<g >
</g>
<g >
</g>
<g >
</g>
<g >
</g>
<g >
</g>
<g >
</g>
<g >
</g>
<g >
</g>
<g >
</g>
<g >
</g>
<g >
</g>
<g >
</g>
<g >
</g>
<g >
</g>
<g >
</g>
<g >
</g>
<g >
</g>
<g >
</g>
<g >
</g>
<g >
</g>
<g >
</g>
<g >
</g>
<g >
</g>
<g >
</g>
<g >
</g>
<g >
</g>
<g >
</g>
<g >
</g>
<g >
</g>
<g >
</g>
<g >
</g>
<g >
</g>
<g >
</g>
<g >
</g>
<g >
</g>
<g >
</g>
<g >
</g>
<g >
</g>
<g >
</g>
<g >
</g>
<g >
</g>
<g >
</g>
<g >
</g>
<g >
</g>
<g >
</g>
<g >
</g>
<g >
</g>
<g >
</g>
<g >
</g>
<g >
</g>
<g >
</g>
<g >
</g>
<g >
</g>
<g >
</g>
<g >
</g>
<g >
</g>
<g >
</g>
<g >
</g>
<g >
</g>
<g >
</g>
<g >
</g>
<g >
</g>
<g >
</g>
<g >
</g>
<g >
</g>
<g >
</g>
<g >
</g>
<g >
</g>
<g >
</g>
<g >
</g>
<g >
</g>
<g >
</g>
<g >
</g>
<g >
</g>
<g >
</g>
<g >
</g>
<g >
</g>
<g >
</g>
<g >
</g>
<g >
</g>
<g >
</g>
<g >
</g>
<g >
</g>
<g >
</g>
<g >
</g>
<g >
</g>
<g >
</g>
<g >
</g>
<g >
</g>
<g >
</g>
<g >
</g>
<g >
</g>
<g >
</g>
<g >
</g>
<g >
</g>
<g >
</g>
<g >
</g>
<g >
</g>
<g >
</g>
<g >
</g>
<g >
</g>
<g >
</g>
<g >
</g>
<g >
</g>
<g >
</g>
<g >
</g>
<g >
</g>
<g >
</g>
<g >
</g>
<g >
</g>
<g >
</g>
<g >
</g>
<g >
</g>
<g >
</g>
<g >
</g>
<g >
</g>
<g >
</g>
<g >
</g>
<g >
</g>
<g >
</g>
<g >
</g>
<g >
</g>
<g >
</g>
<g >
</g>
<g >
</g>
<g >
</g>
<g >
</g>
<g >
</g>
<g >
</g>
<g >
</g>
<g >
</g>
</g> 
</svg>
