G04 #@! TF.GenerationSoftware,KiCad,Pcbnew,7.0.9-7.0.9~ubuntu22.04.1*
G04 #@! TF.CreationDate,2023-12-21T23:36:55+01:00*
G04 #@! TF.ProjectId,basic60,62617369-6336-4302-9e6b-696361645f70,0.1*
G04 #@! TF.SameCoordinates,Original*
G04 #@! TF.FileFunction,Profile,NP*
%FSLAX46Y46*%
G04 Gerber Fmt 4.6, Leading zero omitted, Abs format (unit mm)*
G04 Created by KiCad (PCBNEW 7.0.9-7.0.9~ubuntu22.04.1) date 2023-12-21 23:36:55*
%MOMM*%
%LPD*%
G01*
G04 APERTURE LIST*
G04 #@! TA.AperFunction,Profile*
%ADD10C,0.100000*%
G04 #@! TD*
G04 #@! TA.AperFunction,Profile*
%ADD11C,0.050000*%
G04 #@! TD*
G04 APERTURE END LIST*
D10*
X120150000Y-26900000D02*
X146243485Y-26900000D01*
X149243493Y-29906508D02*
G75*
G03*
X146243485Y-26900000I-2999993J6508D01*
G01*
D11*
X148250000Y-135064400D02*
G75*
G03*
X149250000Y-134064466I100J999900D01*
G01*
D10*
X183300000Y-29867794D02*
X183300000Y-45064466D01*
D11*
X151262499Y-105761740D02*
G75*
G03*
X150512480Y-105012700I-749999J-960D01*
G01*
D10*
X183299934Y-45064466D02*
G75*
G03*
X188300000Y-50064466I5000066J66D01*
G01*
D11*
X112147458Y-50097459D02*
G75*
G03*
X117150000Y-45097458I2612J4999929D01*
G01*
X148250000Y-135064466D02*
X47250000Y-135064466D01*
X151262479Y-105761740D02*
X151298721Y-134065746D01*
X258250000Y-55064466D02*
X258250000Y-130064466D01*
X151298735Y-134065746D02*
G75*
G03*
X152298720Y-135064466I999965J1246D01*
G01*
D10*
X150512480Y-105012700D02*
X150000000Y-105012700D01*
D11*
X253250000Y-135064500D02*
G75*
G03*
X258250000Y-130064466I0J5000000D01*
G01*
X150476625Y-38425024D02*
G75*
G03*
X151226622Y-37676627I-25J750024D01*
G01*
X258250034Y-55064466D02*
G75*
G03*
X253250000Y-50064466I-5000034J-34D01*
G01*
X149243478Y-29906508D02*
X149226630Y-37673373D01*
D10*
X151225400Y-48899586D02*
G75*
G03*
X150475414Y-48150000I-750000J-414D01*
G01*
D11*
X183300005Y-29867794D02*
G75*
G03*
X180296674Y-26867797I-3000005J-6D01*
G01*
D10*
X150499586Y-93464466D02*
X149999586Y-93464466D01*
D11*
X42250000Y-55064466D02*
X42250000Y-130064466D01*
X149226602Y-37673373D02*
G75*
G03*
X149976629Y-38425000I749998J-1627D01*
G01*
D10*
X151225414Y-48899586D02*
X151249586Y-92714052D01*
D11*
X149250000Y-134064466D02*
X149250000Y-105762700D01*
X47250000Y-50064466D02*
X112147458Y-50097457D01*
D10*
X150499586Y-93464486D02*
G75*
G03*
X151249586Y-92714052I14J749986D01*
G01*
D11*
X42250034Y-130064466D02*
G75*
G03*
X47250000Y-135064466I4999966J-34D01*
G01*
D10*
X149249586Y-92714880D02*
X149225414Y-48900414D01*
D11*
X117150000Y-45097458D02*
X117150000Y-29900000D01*
D10*
X150000000Y-105012700D02*
G75*
G03*
X149250000Y-105762700I0J-750000D01*
G01*
D11*
X150475414Y-48150000D02*
X149975414Y-48150000D01*
D10*
X120150000Y-26900000D02*
G75*
G03*
X117150000Y-29900000I0J-3000000D01*
G01*
D11*
X154240181Y-26896709D02*
G75*
G03*
X151243514Y-29890175I3319J-2999991D01*
G01*
X149976629Y-38425000D02*
X150476625Y-38425000D01*
X151226623Y-37676627D02*
X151243514Y-29890175D01*
D10*
X149249534Y-92714880D02*
G75*
G03*
X149999586Y-93464466I750066J480D01*
G01*
D11*
X47250000Y-50064470D02*
G75*
G03*
X42250000Y-55064466I0J-5000000D01*
G01*
X253250000Y-135064466D02*
X152298720Y-135064466D01*
D10*
X149975414Y-48150014D02*
G75*
G03*
X149225414Y-48900414I-14J-749986D01*
G01*
D11*
X180296674Y-26867796D02*
X154240181Y-26896685D01*
D10*
X188300000Y-50064466D02*
X253250000Y-50064466D01*
M02*
