M48
INCH,TZ
T1C0.0591
T2C0.0669
T3C0.1339
T4C0.1378
%
G90
G05
T1
X56752Y-13780
X56752Y-16535
X61594Y-13740
X61594Y-16496
T2
X18012Y-23057
X18012Y-29750
X18012Y-36443
X18012Y-43136
X18012Y-49829
X22343Y-23057
X22343Y-29750
X22343Y-36443
X22343Y-43136
X22343Y-49829
X25098Y-23057
X25098Y-29750
X25098Y-36443
X25098Y-43136
X25098Y-49829
X29429Y-23057
X29429Y-29750
X29429Y-36443
X29429Y-43136
X29429Y-49829
X32185Y-23057
X32185Y-29750
X32185Y-36443
X32185Y-43136
X32185Y-49829
X36516Y-23057
X36516Y-29750
X36516Y-36443
X36516Y-43136
X36516Y-49829
X39272Y-23057
X39272Y-29750
X39272Y-36443
X39272Y-43136
X39272Y-49829
X43602Y-23057
X43602Y-29750
X43602Y-36443
X43602Y-43136
X43602Y-49829
X46358Y-23057
X46358Y-29750
X46358Y-36443
X46358Y-43136
X46358Y-49829
X50689Y-23057
X50689Y-29750
X50689Y-36443
X50689Y-43136
X50689Y-49829
X53445Y-23057
X53445Y-29750
X53445Y-36443
X53445Y-43136
X53445Y-49829
X57776Y-23057
X57776Y-29750
X57776Y-36443
X57776Y-43136
X57776Y-49829
X60531Y-23057
X60531Y-29750
X60531Y-36443
X60531Y-43136
X60531Y-49829
X64862Y-23057
X64862Y-29750
X64862Y-36443
X64862Y-43136
X64862Y-49829
X67618Y-23057
X67618Y-29750
X67618Y-36443
X67618Y-43136
X67618Y-49829
X71949Y-23057
X71949Y-29750
X71949Y-36443
X71949Y-43136
X71949Y-49829
X74705Y-23057
X74705Y-29750
X74705Y-36443
X74705Y-43136
X74705Y-49829
X79035Y-23057
X79035Y-29750
X79035Y-36443
X79035Y-43136
X79035Y-49829
X81791Y-23057
X81791Y-29750
X81791Y-36443
X81791Y-43136
X81791Y-49829
X86122Y-23057
X86122Y-29750
X86122Y-36443
X86122Y-43136
X86122Y-49829
X88878Y-23057
X88878Y-29750
X88878Y-36443
X88878Y-43136
X88878Y-49829
X93209Y-23057
X93209Y-29750
X93209Y-36443
X93209Y-43136
X93209Y-49829
X95965Y-23057
X95965Y-29750
X95965Y-36443
X95965Y-43136
X95965Y-49829
X100295Y-23057
X100295Y-29750
X100295Y-36443
X100295Y-43136
X100295Y-49829
T3
X20177Y-23057
X20177Y-29750
X20177Y-36443
X20177Y-43136
X20177Y-49829
X27264Y-23057
X27264Y-29750
X27264Y-36443
X27264Y-43136
X27264Y-49829
X34350Y-23057
X34350Y-29750
X34350Y-36443
X34350Y-43136
X34350Y-49829
X41437Y-23057
X41437Y-29750
X41437Y-36443
X41437Y-43136
X41437Y-49829
X48524Y-23057
X48524Y-29750
X48524Y-36443
X48524Y-43136
X48524Y-49829
X55610Y-23057
X55610Y-29750
X55610Y-36443
X55610Y-43136
X55610Y-49829
X62697Y-23057
X62697Y-29750
X62697Y-36443
X62697Y-43136
X62697Y-49829
X69783Y-23057
X69783Y-29750
X69783Y-36443
X69783Y-43136
X69783Y-49829
X76870Y-23057
X76870Y-29750
X76870Y-36443
X76870Y-43136
X76870Y-49829
X83957Y-23057
X83957Y-29750
X83957Y-36443
X83957Y-43136
X83957Y-49829
X91043Y-23057
X91043Y-29750
X91043Y-36443
X91043Y-43136
X91043Y-49829
X98130Y-23057
X98130Y-29750
X98130Y-36443
X98130Y-43136
X98130Y-49829
T4
X23720Y-46580
X23819Y-26305
X44980Y-26305
X44980Y-46482
X66240Y-46482
X66339Y-26305
X94587Y-26600
X94587Y-46482
T0
M30
