G04 #@! TF.GenerationSoftware,KiCad,Pcbnew,7.0.9-7.0.9~ubuntu22.04.1*
G04 #@! TF.CreationDate,2023-12-21T23:36:55+01:00*
G04 #@! TF.ProjectId,basic60,62617369-6336-4302-9e6b-696361645f70,0.1*
G04 #@! TF.SameCoordinates,Original*
G04 #@! TF.FileFunction,Soldermask,Top*
G04 #@! TF.FilePolarity,Negative*
%FSLAX46Y46*%
G04 Gerber Fmt 4.6, Leading zero omitted, Abs format (unit mm)*
G04 Created by KiCad (PCBNEW 7.0.9-7.0.9~ubuntu22.04.1) date 2023-12-21 23:36:55*
%MOMM*%
%LPD*%
G01*
G04 APERTURE LIST*
%ADD10C,1.500000*%
%ADD11R,2.500000X1.200000*%
%ADD12C,3.500000*%
%ADD13C,1.700000*%
%ADD14C,3.400000*%
G04 APERTURE END LIST*
G36*
G01*
X143350000Y-113689466D02*
X143350000Y-114439466D01*
G75*
G02*
X143125000Y-114664466I-225000J0D01*
G01*
X142675000Y-114664466D01*
G75*
G02*
X142450000Y-114439466I0J225000D01*
G01*
X142450000Y-113689466D01*
G75*
G02*
X142675000Y-113464466I225000J0D01*
G01*
X143125000Y-113464466D01*
G75*
G02*
X143350000Y-113689466I0J-225000D01*
G01*
G37*
G36*
G01*
X140050000Y-113689466D02*
X140050000Y-114439466D01*
G75*
G02*
X139825000Y-114664466I-225000J0D01*
G01*
X139375000Y-114664466D01*
G75*
G02*
X139150000Y-114439466I0J225000D01*
G01*
X139150000Y-113689466D01*
G75*
G02*
X139375000Y-113464466I225000J0D01*
G01*
X139825000Y-113464466D01*
G75*
G02*
X140050000Y-113689466I0J-225000D01*
G01*
G37*
G36*
G01*
X107350000Y-113689466D02*
X107350000Y-114439466D01*
G75*
G02*
X107125000Y-114664466I-225000J0D01*
G01*
X106675000Y-114664466D01*
G75*
G02*
X106450000Y-114439466I0J225000D01*
G01*
X106450000Y-113689466D01*
G75*
G02*
X106675000Y-113464466I225000J0D01*
G01*
X107125000Y-113464466D01*
G75*
G02*
X107350000Y-113689466I0J-225000D01*
G01*
G37*
G36*
G01*
X104050000Y-113689466D02*
X104050000Y-114439466D01*
G75*
G02*
X103825000Y-114664466I-225000J0D01*
G01*
X103375000Y-114664466D01*
G75*
G02*
X103150000Y-114439466I0J225000D01*
G01*
X103150000Y-113689466D01*
G75*
G02*
X103375000Y-113464466I225000J0D01*
G01*
X103825000Y-113464466D01*
G75*
G02*
X104050000Y-113689466I0J-225000D01*
G01*
G37*
G36*
G01*
X89350000Y-113689466D02*
X89350000Y-114439466D01*
G75*
G02*
X89125000Y-114664466I-225000J0D01*
G01*
X88675000Y-114664466D01*
G75*
G02*
X88450000Y-114439466I0J225000D01*
G01*
X88450000Y-113689466D01*
G75*
G02*
X88675000Y-113464466I225000J0D01*
G01*
X89125000Y-113464466D01*
G75*
G02*
X89350000Y-113689466I0J-225000D01*
G01*
G37*
G36*
G01*
X86050000Y-113689466D02*
X86050000Y-114439466D01*
G75*
G02*
X85825000Y-114664466I-225000J0D01*
G01*
X85375000Y-114664466D01*
G75*
G02*
X85150000Y-114439466I0J225000D01*
G01*
X85150000Y-113689466D01*
G75*
G02*
X85375000Y-113464466I225000J0D01*
G01*
X85825000Y-113464466D01*
G75*
G02*
X86050000Y-113689466I0J-225000D01*
G01*
G37*
G36*
G01*
X71350000Y-113689466D02*
X71350000Y-114439466D01*
G75*
G02*
X71125000Y-114664466I-225000J0D01*
G01*
X70675000Y-114664466D01*
G75*
G02*
X70450000Y-114439466I0J225000D01*
G01*
X70450000Y-113689466D01*
G75*
G02*
X70675000Y-113464466I225000J0D01*
G01*
X71125000Y-113464466D01*
G75*
G02*
X71350000Y-113689466I0J-225000D01*
G01*
G37*
G36*
G01*
X68050000Y-113689466D02*
X68050000Y-114439466D01*
G75*
G02*
X67825000Y-114664466I-225000J0D01*
G01*
X67375000Y-114664466D01*
G75*
G02*
X67150000Y-114439466I0J225000D01*
G01*
X67150000Y-113689466D01*
G75*
G02*
X67375000Y-113464466I225000J0D01*
G01*
X67825000Y-113464466D01*
G75*
G02*
X68050000Y-113689466I0J-225000D01*
G01*
G37*
G36*
G01*
X53350000Y-113689466D02*
X53350000Y-114439466D01*
G75*
G02*
X53125000Y-114664466I-225000J0D01*
G01*
X52675000Y-114664466D01*
G75*
G02*
X52450000Y-114439466I0J225000D01*
G01*
X52450000Y-113689466D01*
G75*
G02*
X52675000Y-113464466I225000J0D01*
G01*
X53125000Y-113464466D01*
G75*
G02*
X53350000Y-113689466I0J-225000D01*
G01*
G37*
G36*
G01*
X50050000Y-113689466D02*
X50050000Y-114439466D01*
G75*
G02*
X49825000Y-114664466I-225000J0D01*
G01*
X49375000Y-114664466D01*
G75*
G02*
X49150000Y-114439466I0J225000D01*
G01*
X49150000Y-113689466D01*
G75*
G02*
X49375000Y-113464466I225000J0D01*
G01*
X49825000Y-113464466D01*
G75*
G02*
X50050000Y-113689466I0J-225000D01*
G01*
G37*
G36*
G01*
X251350000Y-96689466D02*
X251350000Y-97439466D01*
G75*
G02*
X251125000Y-97664466I-225000J0D01*
G01*
X250675000Y-97664466D01*
G75*
G02*
X250450000Y-97439466I0J225000D01*
G01*
X250450000Y-96689466D01*
G75*
G02*
X250675000Y-96464466I225000J0D01*
G01*
X251125000Y-96464466D01*
G75*
G02*
X251350000Y-96689466I0J-225000D01*
G01*
G37*
G36*
G01*
X248050000Y-96689466D02*
X248050000Y-97439466D01*
G75*
G02*
X247825000Y-97664466I-225000J0D01*
G01*
X247375000Y-97664466D01*
G75*
G02*
X247150000Y-97439466I0J225000D01*
G01*
X247150000Y-96689466D01*
G75*
G02*
X247375000Y-96464466I225000J0D01*
G01*
X247825000Y-96464466D01*
G75*
G02*
X248050000Y-96689466I0J-225000D01*
G01*
G37*
G36*
G01*
X233350000Y-96689466D02*
X233350000Y-97439466D01*
G75*
G02*
X233125000Y-97664466I-225000J0D01*
G01*
X232675000Y-97664466D01*
G75*
G02*
X232450000Y-97439466I0J225000D01*
G01*
X232450000Y-96689466D01*
G75*
G02*
X232675000Y-96464466I225000J0D01*
G01*
X233125000Y-96464466D01*
G75*
G02*
X233350000Y-96689466I0J-225000D01*
G01*
G37*
G36*
G01*
X230050000Y-96689466D02*
X230050000Y-97439466D01*
G75*
G02*
X229825000Y-97664466I-225000J0D01*
G01*
X229375000Y-97664466D01*
G75*
G02*
X229150000Y-97439466I0J225000D01*
G01*
X229150000Y-96689466D01*
G75*
G02*
X229375000Y-96464466I225000J0D01*
G01*
X229825000Y-96464466D01*
G75*
G02*
X230050000Y-96689466I0J-225000D01*
G01*
G37*
G36*
G01*
X215350000Y-96689466D02*
X215350000Y-97439466D01*
G75*
G02*
X215125000Y-97664466I-225000J0D01*
G01*
X214675000Y-97664466D01*
G75*
G02*
X214450000Y-97439466I0J225000D01*
G01*
X214450000Y-96689466D01*
G75*
G02*
X214675000Y-96464466I225000J0D01*
G01*
X215125000Y-96464466D01*
G75*
G02*
X215350000Y-96689466I0J-225000D01*
G01*
G37*
G36*
G01*
X212050000Y-96689466D02*
X212050000Y-97439466D01*
G75*
G02*
X211825000Y-97664466I-225000J0D01*
G01*
X211375000Y-97664466D01*
G75*
G02*
X211150000Y-97439466I0J225000D01*
G01*
X211150000Y-96689466D01*
G75*
G02*
X211375000Y-96464466I225000J0D01*
G01*
X211825000Y-96464466D01*
G75*
G02*
X212050000Y-96689466I0J-225000D01*
G01*
G37*
G36*
G01*
X197350000Y-96689466D02*
X197350000Y-97439466D01*
G75*
G02*
X197125000Y-97664466I-225000J0D01*
G01*
X196675000Y-97664466D01*
G75*
G02*
X196450000Y-97439466I0J225000D01*
G01*
X196450000Y-96689466D01*
G75*
G02*
X196675000Y-96464466I225000J0D01*
G01*
X197125000Y-96464466D01*
G75*
G02*
X197350000Y-96689466I0J-225000D01*
G01*
G37*
G36*
G01*
X194050000Y-96689466D02*
X194050000Y-97439466D01*
G75*
G02*
X193825000Y-97664466I-225000J0D01*
G01*
X193375000Y-97664466D01*
G75*
G02*
X193150000Y-97439466I0J225000D01*
G01*
X193150000Y-96689466D01*
G75*
G02*
X193375000Y-96464466I225000J0D01*
G01*
X193825000Y-96464466D01*
G75*
G02*
X194050000Y-96689466I0J-225000D01*
G01*
G37*
G36*
G01*
X179350000Y-96689466D02*
X179350000Y-97439466D01*
G75*
G02*
X179125000Y-97664466I-225000J0D01*
G01*
X178675000Y-97664466D01*
G75*
G02*
X178450000Y-97439466I0J225000D01*
G01*
X178450000Y-96689466D01*
G75*
G02*
X178675000Y-96464466I225000J0D01*
G01*
X179125000Y-96464466D01*
G75*
G02*
X179350000Y-96689466I0J-225000D01*
G01*
G37*
G36*
G01*
X176050000Y-96689466D02*
X176050000Y-97439466D01*
G75*
G02*
X175825000Y-97664466I-225000J0D01*
G01*
X175375000Y-97664466D01*
G75*
G02*
X175150000Y-97439466I0J225000D01*
G01*
X175150000Y-96689466D01*
G75*
G02*
X175375000Y-96464466I225000J0D01*
G01*
X175825000Y-96464466D01*
G75*
G02*
X176050000Y-96689466I0J-225000D01*
G01*
G37*
G36*
G01*
X161350000Y-96689466D02*
X161350000Y-97439466D01*
G75*
G02*
X161125000Y-97664466I-225000J0D01*
G01*
X160675000Y-97664466D01*
G75*
G02*
X160450000Y-97439466I0J225000D01*
G01*
X160450000Y-96689466D01*
G75*
G02*
X160675000Y-96464466I225000J0D01*
G01*
X161125000Y-96464466D01*
G75*
G02*
X161350000Y-96689466I0J-225000D01*
G01*
G37*
G36*
G01*
X158050000Y-96689466D02*
X158050000Y-97439466D01*
G75*
G02*
X157825000Y-97664466I-225000J0D01*
G01*
X157375000Y-97664466D01*
G75*
G02*
X157150000Y-97439466I0J225000D01*
G01*
X157150000Y-96689466D01*
G75*
G02*
X157375000Y-96464466I225000J0D01*
G01*
X157825000Y-96464466D01*
G75*
G02*
X158050000Y-96689466I0J-225000D01*
G01*
G37*
G36*
G01*
X143350000Y-96689466D02*
X143350000Y-97439466D01*
G75*
G02*
X143125000Y-97664466I-225000J0D01*
G01*
X142675000Y-97664466D01*
G75*
G02*
X142450000Y-97439466I0J225000D01*
G01*
X142450000Y-96689466D01*
G75*
G02*
X142675000Y-96464466I225000J0D01*
G01*
X143125000Y-96464466D01*
G75*
G02*
X143350000Y-96689466I0J-225000D01*
G01*
G37*
G36*
G01*
X140050000Y-96689466D02*
X140050000Y-97439466D01*
G75*
G02*
X139825000Y-97664466I-225000J0D01*
G01*
X139375000Y-97664466D01*
G75*
G02*
X139150000Y-97439466I0J225000D01*
G01*
X139150000Y-96689466D01*
G75*
G02*
X139375000Y-96464466I225000J0D01*
G01*
X139825000Y-96464466D01*
G75*
G02*
X140050000Y-96689466I0J-225000D01*
G01*
G37*
G36*
G01*
X125350000Y-96689466D02*
X125350000Y-97439466D01*
G75*
G02*
X125125000Y-97664466I-225000J0D01*
G01*
X124675000Y-97664466D01*
G75*
G02*
X124450000Y-97439466I0J225000D01*
G01*
X124450000Y-96689466D01*
G75*
G02*
X124675000Y-96464466I225000J0D01*
G01*
X125125000Y-96464466D01*
G75*
G02*
X125350000Y-96689466I0J-225000D01*
G01*
G37*
G36*
G01*
X122050000Y-96689466D02*
X122050000Y-97439466D01*
G75*
G02*
X121825000Y-97664466I-225000J0D01*
G01*
X121375000Y-97664466D01*
G75*
G02*
X121150000Y-97439466I0J225000D01*
G01*
X121150000Y-96689466D01*
G75*
G02*
X121375000Y-96464466I225000J0D01*
G01*
X121825000Y-96464466D01*
G75*
G02*
X122050000Y-96689466I0J-225000D01*
G01*
G37*
G36*
G01*
X107350000Y-96689466D02*
X107350000Y-97439466D01*
G75*
G02*
X107125000Y-97664466I-225000J0D01*
G01*
X106675000Y-97664466D01*
G75*
G02*
X106450000Y-97439466I0J225000D01*
G01*
X106450000Y-96689466D01*
G75*
G02*
X106675000Y-96464466I225000J0D01*
G01*
X107125000Y-96464466D01*
G75*
G02*
X107350000Y-96689466I0J-225000D01*
G01*
G37*
G36*
G01*
X104050000Y-96689466D02*
X104050000Y-97439466D01*
G75*
G02*
X103825000Y-97664466I-225000J0D01*
G01*
X103375000Y-97664466D01*
G75*
G02*
X103150000Y-97439466I0J225000D01*
G01*
X103150000Y-96689466D01*
G75*
G02*
X103375000Y-96464466I225000J0D01*
G01*
X103825000Y-96464466D01*
G75*
G02*
X104050000Y-96689466I0J-225000D01*
G01*
G37*
G36*
G01*
X89350000Y-96689466D02*
X89350000Y-97439466D01*
G75*
G02*
X89125000Y-97664466I-225000J0D01*
G01*
X88675000Y-97664466D01*
G75*
G02*
X88450000Y-97439466I0J225000D01*
G01*
X88450000Y-96689466D01*
G75*
G02*
X88675000Y-96464466I225000J0D01*
G01*
X89125000Y-96464466D01*
G75*
G02*
X89350000Y-96689466I0J-225000D01*
G01*
G37*
G36*
G01*
X86050000Y-96689466D02*
X86050000Y-97439466D01*
G75*
G02*
X85825000Y-97664466I-225000J0D01*
G01*
X85375000Y-97664466D01*
G75*
G02*
X85150000Y-97439466I0J225000D01*
G01*
X85150000Y-96689466D01*
G75*
G02*
X85375000Y-96464466I225000J0D01*
G01*
X85825000Y-96464466D01*
G75*
G02*
X86050000Y-96689466I0J-225000D01*
G01*
G37*
G36*
G01*
X71350000Y-96689466D02*
X71350000Y-97439466D01*
G75*
G02*
X71125000Y-97664466I-225000J0D01*
G01*
X70675000Y-97664466D01*
G75*
G02*
X70450000Y-97439466I0J225000D01*
G01*
X70450000Y-96689466D01*
G75*
G02*
X70675000Y-96464466I225000J0D01*
G01*
X71125000Y-96464466D01*
G75*
G02*
X71350000Y-96689466I0J-225000D01*
G01*
G37*
G36*
G01*
X68050000Y-96689466D02*
X68050000Y-97439466D01*
G75*
G02*
X67825000Y-97664466I-225000J0D01*
G01*
X67375000Y-97664466D01*
G75*
G02*
X67150000Y-97439466I0J225000D01*
G01*
X67150000Y-96689466D01*
G75*
G02*
X67375000Y-96464466I225000J0D01*
G01*
X67825000Y-96464466D01*
G75*
G02*
X68050000Y-96689466I0J-225000D01*
G01*
G37*
G36*
G01*
X53350000Y-96689466D02*
X53350000Y-97439466D01*
G75*
G02*
X53125000Y-97664466I-225000J0D01*
G01*
X52675000Y-97664466D01*
G75*
G02*
X52450000Y-97439466I0J225000D01*
G01*
X52450000Y-96689466D01*
G75*
G02*
X52675000Y-96464466I225000J0D01*
G01*
X53125000Y-96464466D01*
G75*
G02*
X53350000Y-96689466I0J-225000D01*
G01*
G37*
G36*
G01*
X50050000Y-96689466D02*
X50050000Y-97439466D01*
G75*
G02*
X49825000Y-97664466I-225000J0D01*
G01*
X49375000Y-97664466D01*
G75*
G02*
X49150000Y-97439466I0J225000D01*
G01*
X49150000Y-96689466D01*
G75*
G02*
X49375000Y-96464466I225000J0D01*
G01*
X49825000Y-96464466D01*
G75*
G02*
X50050000Y-96689466I0J-225000D01*
G01*
G37*
G36*
G01*
X251350000Y-79689466D02*
X251350000Y-80439466D01*
G75*
G02*
X251125000Y-80664466I-225000J0D01*
G01*
X250675000Y-80664466D01*
G75*
G02*
X250450000Y-80439466I0J225000D01*
G01*
X250450000Y-79689466D01*
G75*
G02*
X250675000Y-79464466I225000J0D01*
G01*
X251125000Y-79464466D01*
G75*
G02*
X251350000Y-79689466I0J-225000D01*
G01*
G37*
G36*
G01*
X248050000Y-79689466D02*
X248050000Y-80439466D01*
G75*
G02*
X247825000Y-80664466I-225000J0D01*
G01*
X247375000Y-80664466D01*
G75*
G02*
X247150000Y-80439466I0J225000D01*
G01*
X247150000Y-79689466D01*
G75*
G02*
X247375000Y-79464466I225000J0D01*
G01*
X247825000Y-79464466D01*
G75*
G02*
X248050000Y-79689466I0J-225000D01*
G01*
G37*
G36*
G01*
X233350000Y-79689466D02*
X233350000Y-80439466D01*
G75*
G02*
X233125000Y-80664466I-225000J0D01*
G01*
X232675000Y-80664466D01*
G75*
G02*
X232450000Y-80439466I0J225000D01*
G01*
X232450000Y-79689466D01*
G75*
G02*
X232675000Y-79464466I225000J0D01*
G01*
X233125000Y-79464466D01*
G75*
G02*
X233350000Y-79689466I0J-225000D01*
G01*
G37*
G36*
G01*
X230050000Y-79689466D02*
X230050000Y-80439466D01*
G75*
G02*
X229825000Y-80664466I-225000J0D01*
G01*
X229375000Y-80664466D01*
G75*
G02*
X229150000Y-80439466I0J225000D01*
G01*
X229150000Y-79689466D01*
G75*
G02*
X229375000Y-79464466I225000J0D01*
G01*
X229825000Y-79464466D01*
G75*
G02*
X230050000Y-79689466I0J-225000D01*
G01*
G37*
G36*
G01*
X215350000Y-79689466D02*
X215350000Y-80439466D01*
G75*
G02*
X215125000Y-80664466I-225000J0D01*
G01*
X214675000Y-80664466D01*
G75*
G02*
X214450000Y-80439466I0J225000D01*
G01*
X214450000Y-79689466D01*
G75*
G02*
X214675000Y-79464466I225000J0D01*
G01*
X215125000Y-79464466D01*
G75*
G02*
X215350000Y-79689466I0J-225000D01*
G01*
G37*
G36*
G01*
X212050000Y-79689466D02*
X212050000Y-80439466D01*
G75*
G02*
X211825000Y-80664466I-225000J0D01*
G01*
X211375000Y-80664466D01*
G75*
G02*
X211150000Y-80439466I0J225000D01*
G01*
X211150000Y-79689466D01*
G75*
G02*
X211375000Y-79464466I225000J0D01*
G01*
X211825000Y-79464466D01*
G75*
G02*
X212050000Y-79689466I0J-225000D01*
G01*
G37*
G36*
G01*
X197350000Y-79689466D02*
X197350000Y-80439466D01*
G75*
G02*
X197125000Y-80664466I-225000J0D01*
G01*
X196675000Y-80664466D01*
G75*
G02*
X196450000Y-80439466I0J225000D01*
G01*
X196450000Y-79689466D01*
G75*
G02*
X196675000Y-79464466I225000J0D01*
G01*
X197125000Y-79464466D01*
G75*
G02*
X197350000Y-79689466I0J-225000D01*
G01*
G37*
G36*
G01*
X194050000Y-79689466D02*
X194050000Y-80439466D01*
G75*
G02*
X193825000Y-80664466I-225000J0D01*
G01*
X193375000Y-80664466D01*
G75*
G02*
X193150000Y-80439466I0J225000D01*
G01*
X193150000Y-79689466D01*
G75*
G02*
X193375000Y-79464466I225000J0D01*
G01*
X193825000Y-79464466D01*
G75*
G02*
X194050000Y-79689466I0J-225000D01*
G01*
G37*
G36*
G01*
X179350000Y-79689466D02*
X179350000Y-80439466D01*
G75*
G02*
X179125000Y-80664466I-225000J0D01*
G01*
X178675000Y-80664466D01*
G75*
G02*
X178450000Y-80439466I0J225000D01*
G01*
X178450000Y-79689466D01*
G75*
G02*
X178675000Y-79464466I225000J0D01*
G01*
X179125000Y-79464466D01*
G75*
G02*
X179350000Y-79689466I0J-225000D01*
G01*
G37*
G36*
G01*
X176050000Y-79689466D02*
X176050000Y-80439466D01*
G75*
G02*
X175825000Y-80664466I-225000J0D01*
G01*
X175375000Y-80664466D01*
G75*
G02*
X175150000Y-80439466I0J225000D01*
G01*
X175150000Y-79689466D01*
G75*
G02*
X175375000Y-79464466I225000J0D01*
G01*
X175825000Y-79464466D01*
G75*
G02*
X176050000Y-79689466I0J-225000D01*
G01*
G37*
G36*
G01*
X161350000Y-79689466D02*
X161350000Y-80439466D01*
G75*
G02*
X161125000Y-80664466I-225000J0D01*
G01*
X160675000Y-80664466D01*
G75*
G02*
X160450000Y-80439466I0J225000D01*
G01*
X160450000Y-79689466D01*
G75*
G02*
X160675000Y-79464466I225000J0D01*
G01*
X161125000Y-79464466D01*
G75*
G02*
X161350000Y-79689466I0J-225000D01*
G01*
G37*
G36*
G01*
X158050000Y-79689466D02*
X158050000Y-80439466D01*
G75*
G02*
X157825000Y-80664466I-225000J0D01*
G01*
X157375000Y-80664466D01*
G75*
G02*
X157150000Y-80439466I0J225000D01*
G01*
X157150000Y-79689466D01*
G75*
G02*
X157375000Y-79464466I225000J0D01*
G01*
X157825000Y-79464466D01*
G75*
G02*
X158050000Y-79689466I0J-225000D01*
G01*
G37*
G36*
G01*
X143350000Y-79689466D02*
X143350000Y-80439466D01*
G75*
G02*
X143125000Y-80664466I-225000J0D01*
G01*
X142675000Y-80664466D01*
G75*
G02*
X142450000Y-80439466I0J225000D01*
G01*
X142450000Y-79689466D01*
G75*
G02*
X142675000Y-79464466I225000J0D01*
G01*
X143125000Y-79464466D01*
G75*
G02*
X143350000Y-79689466I0J-225000D01*
G01*
G37*
G36*
G01*
X140050000Y-79689466D02*
X140050000Y-80439466D01*
G75*
G02*
X139825000Y-80664466I-225000J0D01*
G01*
X139375000Y-80664466D01*
G75*
G02*
X139150000Y-80439466I0J225000D01*
G01*
X139150000Y-79689466D01*
G75*
G02*
X139375000Y-79464466I225000J0D01*
G01*
X139825000Y-79464466D01*
G75*
G02*
X140050000Y-79689466I0J-225000D01*
G01*
G37*
G36*
G01*
X125350000Y-79689466D02*
X125350000Y-80439466D01*
G75*
G02*
X125125000Y-80664466I-225000J0D01*
G01*
X124675000Y-80664466D01*
G75*
G02*
X124450000Y-80439466I0J225000D01*
G01*
X124450000Y-79689466D01*
G75*
G02*
X124675000Y-79464466I225000J0D01*
G01*
X125125000Y-79464466D01*
G75*
G02*
X125350000Y-79689466I0J-225000D01*
G01*
G37*
G36*
G01*
X122050000Y-79689466D02*
X122050000Y-80439466D01*
G75*
G02*
X121825000Y-80664466I-225000J0D01*
G01*
X121375000Y-80664466D01*
G75*
G02*
X121150000Y-80439466I0J225000D01*
G01*
X121150000Y-79689466D01*
G75*
G02*
X121375000Y-79464466I225000J0D01*
G01*
X121825000Y-79464466D01*
G75*
G02*
X122050000Y-79689466I0J-225000D01*
G01*
G37*
G36*
G01*
X107350000Y-79689466D02*
X107350000Y-80439466D01*
G75*
G02*
X107125000Y-80664466I-225000J0D01*
G01*
X106675000Y-80664466D01*
G75*
G02*
X106450000Y-80439466I0J225000D01*
G01*
X106450000Y-79689466D01*
G75*
G02*
X106675000Y-79464466I225000J0D01*
G01*
X107125000Y-79464466D01*
G75*
G02*
X107350000Y-79689466I0J-225000D01*
G01*
G37*
G36*
G01*
X104050000Y-79689466D02*
X104050000Y-80439466D01*
G75*
G02*
X103825000Y-80664466I-225000J0D01*
G01*
X103375000Y-80664466D01*
G75*
G02*
X103150000Y-80439466I0J225000D01*
G01*
X103150000Y-79689466D01*
G75*
G02*
X103375000Y-79464466I225000J0D01*
G01*
X103825000Y-79464466D01*
G75*
G02*
X104050000Y-79689466I0J-225000D01*
G01*
G37*
G36*
G01*
X89350000Y-79689466D02*
X89350000Y-80439466D01*
G75*
G02*
X89125000Y-80664466I-225000J0D01*
G01*
X88675000Y-80664466D01*
G75*
G02*
X88450000Y-80439466I0J225000D01*
G01*
X88450000Y-79689466D01*
G75*
G02*
X88675000Y-79464466I225000J0D01*
G01*
X89125000Y-79464466D01*
G75*
G02*
X89350000Y-79689466I0J-225000D01*
G01*
G37*
G36*
G01*
X86050000Y-79689466D02*
X86050000Y-80439466D01*
G75*
G02*
X85825000Y-80664466I-225000J0D01*
G01*
X85375000Y-80664466D01*
G75*
G02*
X85150000Y-80439466I0J225000D01*
G01*
X85150000Y-79689466D01*
G75*
G02*
X85375000Y-79464466I225000J0D01*
G01*
X85825000Y-79464466D01*
G75*
G02*
X86050000Y-79689466I0J-225000D01*
G01*
G37*
G36*
G01*
X71350000Y-79689466D02*
X71350000Y-80439466D01*
G75*
G02*
X71125000Y-80664466I-225000J0D01*
G01*
X70675000Y-80664466D01*
G75*
G02*
X70450000Y-80439466I0J225000D01*
G01*
X70450000Y-79689466D01*
G75*
G02*
X70675000Y-79464466I225000J0D01*
G01*
X71125000Y-79464466D01*
G75*
G02*
X71350000Y-79689466I0J-225000D01*
G01*
G37*
G36*
G01*
X68050000Y-79689466D02*
X68050000Y-80439466D01*
G75*
G02*
X67825000Y-80664466I-225000J0D01*
G01*
X67375000Y-80664466D01*
G75*
G02*
X67150000Y-80439466I0J225000D01*
G01*
X67150000Y-79689466D01*
G75*
G02*
X67375000Y-79464466I225000J0D01*
G01*
X67825000Y-79464466D01*
G75*
G02*
X68050000Y-79689466I0J-225000D01*
G01*
G37*
G36*
G01*
X53350000Y-79689466D02*
X53350000Y-80439466D01*
G75*
G02*
X53125000Y-80664466I-225000J0D01*
G01*
X52675000Y-80664466D01*
G75*
G02*
X52450000Y-80439466I0J225000D01*
G01*
X52450000Y-79689466D01*
G75*
G02*
X52675000Y-79464466I225000J0D01*
G01*
X53125000Y-79464466D01*
G75*
G02*
X53350000Y-79689466I0J-225000D01*
G01*
G37*
G36*
G01*
X50050000Y-79689466D02*
X50050000Y-80439466D01*
G75*
G02*
X49825000Y-80664466I-225000J0D01*
G01*
X49375000Y-80664466D01*
G75*
G02*
X49150000Y-80439466I0J225000D01*
G01*
X49150000Y-79689466D01*
G75*
G02*
X49375000Y-79464466I225000J0D01*
G01*
X49825000Y-79464466D01*
G75*
G02*
X50050000Y-79689466I0J-225000D01*
G01*
G37*
G36*
G01*
X197350000Y-130689466D02*
X197350000Y-131439466D01*
G75*
G02*
X197125000Y-131664466I-225000J0D01*
G01*
X196675000Y-131664466D01*
G75*
G02*
X196450000Y-131439466I0J225000D01*
G01*
X196450000Y-130689466D01*
G75*
G02*
X196675000Y-130464466I225000J0D01*
G01*
X197125000Y-130464466D01*
G75*
G02*
X197350000Y-130689466I0J-225000D01*
G01*
G37*
G36*
G01*
X194050000Y-130689466D02*
X194050000Y-131439466D01*
G75*
G02*
X193825000Y-131664466I-225000J0D01*
G01*
X193375000Y-131664466D01*
G75*
G02*
X193150000Y-131439466I0J225000D01*
G01*
X193150000Y-130689466D01*
G75*
G02*
X193375000Y-130464466I225000J0D01*
G01*
X193825000Y-130464466D01*
G75*
G02*
X194050000Y-130689466I0J-225000D01*
G01*
G37*
G36*
G01*
X179350000Y-130689466D02*
X179350000Y-131439466D01*
G75*
G02*
X179125000Y-131664466I-225000J0D01*
G01*
X178675000Y-131664466D01*
G75*
G02*
X178450000Y-131439466I0J225000D01*
G01*
X178450000Y-130689466D01*
G75*
G02*
X178675000Y-130464466I225000J0D01*
G01*
X179125000Y-130464466D01*
G75*
G02*
X179350000Y-130689466I0J-225000D01*
G01*
G37*
G36*
G01*
X176050000Y-130689466D02*
X176050000Y-131439466D01*
G75*
G02*
X175825000Y-131664466I-225000J0D01*
G01*
X175375000Y-131664466D01*
G75*
G02*
X175150000Y-131439466I0J225000D01*
G01*
X175150000Y-130689466D01*
G75*
G02*
X175375000Y-130464466I225000J0D01*
G01*
X175825000Y-130464466D01*
G75*
G02*
X176050000Y-130689466I0J-225000D01*
G01*
G37*
G36*
G01*
X161350000Y-130689466D02*
X161350000Y-131439466D01*
G75*
G02*
X161125000Y-131664466I-225000J0D01*
G01*
X160675000Y-131664466D01*
G75*
G02*
X160450000Y-131439466I0J225000D01*
G01*
X160450000Y-130689466D01*
G75*
G02*
X160675000Y-130464466I225000J0D01*
G01*
X161125000Y-130464466D01*
G75*
G02*
X161350000Y-130689466I0J-225000D01*
G01*
G37*
G36*
G01*
X158050000Y-130689466D02*
X158050000Y-131439466D01*
G75*
G02*
X157825000Y-131664466I-225000J0D01*
G01*
X157375000Y-131664466D01*
G75*
G02*
X157150000Y-131439466I0J225000D01*
G01*
X157150000Y-130689466D01*
G75*
G02*
X157375000Y-130464466I225000J0D01*
G01*
X157825000Y-130464466D01*
G75*
G02*
X158050000Y-130689466I0J-225000D01*
G01*
G37*
G36*
G01*
X125350000Y-130689466D02*
X125350000Y-131439466D01*
G75*
G02*
X125125000Y-131664466I-225000J0D01*
G01*
X124675000Y-131664466D01*
G75*
G02*
X124450000Y-131439466I0J225000D01*
G01*
X124450000Y-130689466D01*
G75*
G02*
X124675000Y-130464466I225000J0D01*
G01*
X125125000Y-130464466D01*
G75*
G02*
X125350000Y-130689466I0J-225000D01*
G01*
G37*
G36*
G01*
X122050000Y-130689466D02*
X122050000Y-131439466D01*
G75*
G02*
X121825000Y-131664466I-225000J0D01*
G01*
X121375000Y-131664466D01*
G75*
G02*
X121150000Y-131439466I0J225000D01*
G01*
X121150000Y-130689466D01*
G75*
G02*
X121375000Y-130464466I225000J0D01*
G01*
X121825000Y-130464466D01*
G75*
G02*
X122050000Y-130689466I0J-225000D01*
G01*
G37*
G36*
G01*
X107350000Y-130689466D02*
X107350000Y-131439466D01*
G75*
G02*
X107125000Y-131664466I-225000J0D01*
G01*
X106675000Y-131664466D01*
G75*
G02*
X106450000Y-131439466I0J225000D01*
G01*
X106450000Y-130689466D01*
G75*
G02*
X106675000Y-130464466I225000J0D01*
G01*
X107125000Y-130464466D01*
G75*
G02*
X107350000Y-130689466I0J-225000D01*
G01*
G37*
G36*
G01*
X104050000Y-130689466D02*
X104050000Y-131439466D01*
G75*
G02*
X103825000Y-131664466I-225000J0D01*
G01*
X103375000Y-131664466D01*
G75*
G02*
X103150000Y-131439466I0J225000D01*
G01*
X103150000Y-130689466D01*
G75*
G02*
X103375000Y-130464466I225000J0D01*
G01*
X103825000Y-130464466D01*
G75*
G02*
X104050000Y-130689466I0J-225000D01*
G01*
G37*
G36*
G01*
X251350000Y-113689466D02*
X251350000Y-114439466D01*
G75*
G02*
X251125000Y-114664466I-225000J0D01*
G01*
X250675000Y-114664466D01*
G75*
G02*
X250450000Y-114439466I0J225000D01*
G01*
X250450000Y-113689466D01*
G75*
G02*
X250675000Y-113464466I225000J0D01*
G01*
X251125000Y-113464466D01*
G75*
G02*
X251350000Y-113689466I0J-225000D01*
G01*
G37*
G36*
G01*
X248050000Y-113689466D02*
X248050000Y-114439466D01*
G75*
G02*
X247825000Y-114664466I-225000J0D01*
G01*
X247375000Y-114664466D01*
G75*
G02*
X247150000Y-114439466I0J225000D01*
G01*
X247150000Y-113689466D01*
G75*
G02*
X247375000Y-113464466I225000J0D01*
G01*
X247825000Y-113464466D01*
G75*
G02*
X248050000Y-113689466I0J-225000D01*
G01*
G37*
G36*
G01*
X233350000Y-113689466D02*
X233350000Y-114439466D01*
G75*
G02*
X233125000Y-114664466I-225000J0D01*
G01*
X232675000Y-114664466D01*
G75*
G02*
X232450000Y-114439466I0J225000D01*
G01*
X232450000Y-113689466D01*
G75*
G02*
X232675000Y-113464466I225000J0D01*
G01*
X233125000Y-113464466D01*
G75*
G02*
X233350000Y-113689466I0J-225000D01*
G01*
G37*
G36*
G01*
X230050000Y-113689466D02*
X230050000Y-114439466D01*
G75*
G02*
X229825000Y-114664466I-225000J0D01*
G01*
X229375000Y-114664466D01*
G75*
G02*
X229150000Y-114439466I0J225000D01*
G01*
X229150000Y-113689466D01*
G75*
G02*
X229375000Y-113464466I225000J0D01*
G01*
X229825000Y-113464466D01*
G75*
G02*
X230050000Y-113689466I0J-225000D01*
G01*
G37*
G36*
G01*
X215350000Y-113689466D02*
X215350000Y-114439466D01*
G75*
G02*
X215125000Y-114664466I-225000J0D01*
G01*
X214675000Y-114664466D01*
G75*
G02*
X214450000Y-114439466I0J225000D01*
G01*
X214450000Y-113689466D01*
G75*
G02*
X214675000Y-113464466I225000J0D01*
G01*
X215125000Y-113464466D01*
G75*
G02*
X215350000Y-113689466I0J-225000D01*
G01*
G37*
G36*
G01*
X212050000Y-113689466D02*
X212050000Y-114439466D01*
G75*
G02*
X211825000Y-114664466I-225000J0D01*
G01*
X211375000Y-114664466D01*
G75*
G02*
X211150000Y-114439466I0J225000D01*
G01*
X211150000Y-113689466D01*
G75*
G02*
X211375000Y-113464466I225000J0D01*
G01*
X211825000Y-113464466D01*
G75*
G02*
X212050000Y-113689466I0J-225000D01*
G01*
G37*
G36*
G01*
X197350000Y-113689466D02*
X197350000Y-114439466D01*
G75*
G02*
X197125000Y-114664466I-225000J0D01*
G01*
X196675000Y-114664466D01*
G75*
G02*
X196450000Y-114439466I0J225000D01*
G01*
X196450000Y-113689466D01*
G75*
G02*
X196675000Y-113464466I225000J0D01*
G01*
X197125000Y-113464466D01*
G75*
G02*
X197350000Y-113689466I0J-225000D01*
G01*
G37*
G36*
G01*
X194050000Y-113689466D02*
X194050000Y-114439466D01*
G75*
G02*
X193825000Y-114664466I-225000J0D01*
G01*
X193375000Y-114664466D01*
G75*
G02*
X193150000Y-114439466I0J225000D01*
G01*
X193150000Y-113689466D01*
G75*
G02*
X193375000Y-113464466I225000J0D01*
G01*
X193825000Y-113464466D01*
G75*
G02*
X194050000Y-113689466I0J-225000D01*
G01*
G37*
G36*
G01*
X179350000Y-113689466D02*
X179350000Y-114439466D01*
G75*
G02*
X179125000Y-114664466I-225000J0D01*
G01*
X178675000Y-114664466D01*
G75*
G02*
X178450000Y-114439466I0J225000D01*
G01*
X178450000Y-113689466D01*
G75*
G02*
X178675000Y-113464466I225000J0D01*
G01*
X179125000Y-113464466D01*
G75*
G02*
X179350000Y-113689466I0J-225000D01*
G01*
G37*
G36*
G01*
X176050000Y-113689466D02*
X176050000Y-114439466D01*
G75*
G02*
X175825000Y-114664466I-225000J0D01*
G01*
X175375000Y-114664466D01*
G75*
G02*
X175150000Y-114439466I0J225000D01*
G01*
X175150000Y-113689466D01*
G75*
G02*
X175375000Y-113464466I225000J0D01*
G01*
X175825000Y-113464466D01*
G75*
G02*
X176050000Y-113689466I0J-225000D01*
G01*
G37*
G36*
G01*
X161350000Y-113689466D02*
X161350000Y-114439466D01*
G75*
G02*
X161125000Y-114664466I-225000J0D01*
G01*
X160675000Y-114664466D01*
G75*
G02*
X160450000Y-114439466I0J225000D01*
G01*
X160450000Y-113689466D01*
G75*
G02*
X160675000Y-113464466I225000J0D01*
G01*
X161125000Y-113464466D01*
G75*
G02*
X161350000Y-113689466I0J-225000D01*
G01*
G37*
G36*
G01*
X158050000Y-113689466D02*
X158050000Y-114439466D01*
G75*
G02*
X157825000Y-114664466I-225000J0D01*
G01*
X157375000Y-114664466D01*
G75*
G02*
X157150000Y-114439466I0J225000D01*
G01*
X157150000Y-113689466D01*
G75*
G02*
X157375000Y-113464466I225000J0D01*
G01*
X157825000Y-113464466D01*
G75*
G02*
X158050000Y-113689466I0J-225000D01*
G01*
G37*
G36*
G01*
X125350000Y-113689466D02*
X125350000Y-114439466D01*
G75*
G02*
X125125000Y-114664466I-225000J0D01*
G01*
X124675000Y-114664466D01*
G75*
G02*
X124450000Y-114439466I0J225000D01*
G01*
X124450000Y-113689466D01*
G75*
G02*
X124675000Y-113464466I225000J0D01*
G01*
X125125000Y-113464466D01*
G75*
G02*
X125350000Y-113689466I0J-225000D01*
G01*
G37*
G36*
G01*
X122050000Y-113689466D02*
X122050000Y-114439466D01*
G75*
G02*
X121825000Y-114664466I-225000J0D01*
G01*
X121375000Y-114664466D01*
G75*
G02*
X121150000Y-114439466I0J225000D01*
G01*
X121150000Y-113689466D01*
G75*
G02*
X121375000Y-113464466I225000J0D01*
G01*
X121825000Y-113464466D01*
G75*
G02*
X122050000Y-113689466I0J-225000D01*
G01*
G37*
D10*
X144150000Y-35000000D03*
X144150000Y-42000000D03*
D11*
X147400000Y-36600000D03*
X147400000Y-39600000D03*
X140900000Y-44700000D03*
X147400000Y-43600000D03*
G36*
G01*
X233350000Y-62689466D02*
X233350000Y-63439466D01*
G75*
G02*
X233125000Y-63664466I-225000J0D01*
G01*
X232675000Y-63664466D01*
G75*
G02*
X232450000Y-63439466I0J225000D01*
G01*
X232450000Y-62689466D01*
G75*
G02*
X232675000Y-62464466I225000J0D01*
G01*
X233125000Y-62464466D01*
G75*
G02*
X233350000Y-62689466I0J-225000D01*
G01*
G37*
G36*
G01*
X230050000Y-62689466D02*
X230050000Y-63439466D01*
G75*
G02*
X229825000Y-63664466I-225000J0D01*
G01*
X229375000Y-63664466D01*
G75*
G02*
X229150000Y-63439466I0J225000D01*
G01*
X229150000Y-62689466D01*
G75*
G02*
X229375000Y-62464466I225000J0D01*
G01*
X229825000Y-62464466D01*
G75*
G02*
X230050000Y-62689466I0J-225000D01*
G01*
G37*
D12*
X240250000Y-118064466D03*
X114250000Y-66814466D03*
G36*
G01*
X143350000Y-62689466D02*
X143350000Y-63439466D01*
G75*
G02*
X143125000Y-63664466I-225000J0D01*
G01*
X142675000Y-63664466D01*
G75*
G02*
X142450000Y-63439466I0J225000D01*
G01*
X142450000Y-62689466D01*
G75*
G02*
X142675000Y-62464466I225000J0D01*
G01*
X143125000Y-62464466D01*
G75*
G02*
X143350000Y-62689466I0J-225000D01*
G01*
G37*
G36*
G01*
X140050000Y-62689466D02*
X140050000Y-63439466D01*
G75*
G02*
X139825000Y-63664466I-225000J0D01*
G01*
X139375000Y-63664466D01*
G75*
G02*
X139150000Y-63439466I0J225000D01*
G01*
X139150000Y-62689466D01*
G75*
G02*
X139375000Y-62464466I225000J0D01*
G01*
X139825000Y-62464466D01*
G75*
G02*
X140050000Y-62689466I0J-225000D01*
G01*
G37*
X240250000Y-67564466D03*
G36*
G01*
X130787500Y-34219733D02*
X130787500Y-34694733D01*
G75*
G02*
X130550000Y-34932233I-237500J0D01*
G01*
X129950000Y-34932233D01*
G75*
G02*
X129712500Y-34694733I0J237500D01*
G01*
X129712500Y-34219733D01*
G75*
G02*
X129950000Y-33982233I237500J0D01*
G01*
X130550000Y-33982233D01*
G75*
G02*
X130787500Y-34219733I0J-237500D01*
G01*
G37*
G36*
G01*
X129062500Y-34219733D02*
X129062500Y-34694733D01*
G75*
G02*
X128825000Y-34932233I-237500J0D01*
G01*
X128225000Y-34932233D01*
G75*
G02*
X127987500Y-34694733I0J237500D01*
G01*
X127987500Y-34219733D01*
G75*
G02*
X128225000Y-33982233I237500J0D01*
G01*
X128825000Y-33982233D01*
G75*
G02*
X129062500Y-34219733I0J-237500D01*
G01*
G37*
G36*
G01*
X71350000Y-62689466D02*
X71350000Y-63439466D01*
G75*
G02*
X71125000Y-63664466I-225000J0D01*
G01*
X70675000Y-63664466D01*
G75*
G02*
X70450000Y-63439466I0J225000D01*
G01*
X70450000Y-62689466D01*
G75*
G02*
X70675000Y-62464466I225000J0D01*
G01*
X71125000Y-62464466D01*
G75*
G02*
X71350000Y-62689466I0J-225000D01*
G01*
G37*
G36*
G01*
X68050000Y-62689466D02*
X68050000Y-63439466D01*
G75*
G02*
X67825000Y-63664466I-225000J0D01*
G01*
X67375000Y-63664466D01*
G75*
G02*
X67150000Y-63439466I0J225000D01*
G01*
X67150000Y-62689466D01*
G75*
G02*
X67375000Y-62464466I225000J0D01*
G01*
X67825000Y-62464466D01*
G75*
G02*
X68050000Y-62689466I0J-225000D01*
G01*
G37*
G36*
G01*
X125350000Y-62689466D02*
X125350000Y-63439466D01*
G75*
G02*
X125125000Y-63664466I-225000J0D01*
G01*
X124675000Y-63664466D01*
G75*
G02*
X124450000Y-63439466I0J225000D01*
G01*
X124450000Y-62689466D01*
G75*
G02*
X124675000Y-62464466I225000J0D01*
G01*
X125125000Y-62464466D01*
G75*
G02*
X125350000Y-62689466I0J-225000D01*
G01*
G37*
G36*
G01*
X122050000Y-62689466D02*
X122050000Y-63439466D01*
G75*
G02*
X121825000Y-63664466I-225000J0D01*
G01*
X121375000Y-63664466D01*
G75*
G02*
X121150000Y-63439466I0J225000D01*
G01*
X121150000Y-62689466D01*
G75*
G02*
X121375000Y-62464466I225000J0D01*
G01*
X121825000Y-62464466D01*
G75*
G02*
X122050000Y-62689466I0J-225000D01*
G01*
G37*
X168500000Y-66814466D03*
G36*
G01*
X155287500Y-46737500D02*
X155287500Y-46262500D01*
G75*
G02*
X155525000Y-46025000I237500J0D01*
G01*
X156025000Y-46025000D01*
G75*
G02*
X156262500Y-46262500I0J-237500D01*
G01*
X156262500Y-46737500D01*
G75*
G02*
X156025000Y-46975000I-237500J0D01*
G01*
X155525000Y-46975000D01*
G75*
G02*
X155287500Y-46737500I0J237500D01*
G01*
G37*
G36*
G01*
X157112500Y-46737500D02*
X157112500Y-46262500D01*
G75*
G02*
X157350000Y-46025000I237500J0D01*
G01*
X157850000Y-46025000D01*
G75*
G02*
X158087500Y-46262500I0J-237500D01*
G01*
X158087500Y-46737500D01*
G75*
G02*
X157850000Y-46975000I-237500J0D01*
G01*
X157350000Y-46975000D01*
G75*
G02*
X157112500Y-46737500I0J237500D01*
G01*
G37*
G36*
G01*
X53350000Y-62689466D02*
X53350000Y-63439466D01*
G75*
G02*
X53125000Y-63664466I-225000J0D01*
G01*
X52675000Y-63664466D01*
G75*
G02*
X52450000Y-63439466I0J225000D01*
G01*
X52450000Y-62689466D01*
G75*
G02*
X52675000Y-62464466I225000J0D01*
G01*
X53125000Y-62464466D01*
G75*
G02*
X53350000Y-62689466I0J-225000D01*
G01*
G37*
G36*
G01*
X50050000Y-62689466D02*
X50050000Y-63439466D01*
G75*
G02*
X49825000Y-63664466I-225000J0D01*
G01*
X49375000Y-63664466D01*
G75*
G02*
X49150000Y-63439466I0J225000D01*
G01*
X49150000Y-62689466D01*
G75*
G02*
X49375000Y-62464466I225000J0D01*
G01*
X49825000Y-62464466D01*
G75*
G02*
X50050000Y-62689466I0J-225000D01*
G01*
G37*
G36*
G01*
X179350000Y-62689466D02*
X179350000Y-63439466D01*
G75*
G02*
X179125000Y-63664466I-225000J0D01*
G01*
X178675000Y-63664466D01*
G75*
G02*
X178450000Y-63439466I0J225000D01*
G01*
X178450000Y-62689466D01*
G75*
G02*
X178675000Y-62464466I225000J0D01*
G01*
X179125000Y-62464466D01*
G75*
G02*
X179350000Y-62689466I0J-225000D01*
G01*
G37*
G36*
G01*
X176050000Y-62689466D02*
X176050000Y-63439466D01*
G75*
G02*
X175825000Y-63664466I-225000J0D01*
G01*
X175375000Y-63664466D01*
G75*
G02*
X175150000Y-63439466I0J225000D01*
G01*
X175150000Y-62689466D01*
G75*
G02*
X175375000Y-62464466I225000J0D01*
G01*
X175825000Y-62464466D01*
G75*
G02*
X176050000Y-62689466I0J-225000D01*
G01*
G37*
G36*
G01*
X233350000Y-130689466D02*
X233350000Y-131439466D01*
G75*
G02*
X233125000Y-131664466I-225000J0D01*
G01*
X232675000Y-131664466D01*
G75*
G02*
X232450000Y-131439466I0J225000D01*
G01*
X232450000Y-130689466D01*
G75*
G02*
X232675000Y-130464466I225000J0D01*
G01*
X233125000Y-130464466D01*
G75*
G02*
X233350000Y-130689466I0J-225000D01*
G01*
G37*
G36*
G01*
X230050000Y-130689466D02*
X230050000Y-131439466D01*
G75*
G02*
X229825000Y-131664466I-225000J0D01*
G01*
X229375000Y-131664466D01*
G75*
G02*
X229150000Y-131439466I0J225000D01*
G01*
X229150000Y-130689466D01*
G75*
G02*
X229375000Y-130464466I225000J0D01*
G01*
X229825000Y-130464466D01*
G75*
G02*
X230050000Y-130689466I0J-225000D01*
G01*
G37*
G36*
G01*
X89350000Y-130689466D02*
X89350000Y-131439466D01*
G75*
G02*
X89125000Y-131664466I-225000J0D01*
G01*
X88675000Y-131664466D01*
G75*
G02*
X88450000Y-131439466I0J225000D01*
G01*
X88450000Y-130689466D01*
G75*
G02*
X88675000Y-130464466I225000J0D01*
G01*
X89125000Y-130464466D01*
G75*
G02*
X89350000Y-130689466I0J-225000D01*
G01*
G37*
G36*
G01*
X86050000Y-130689466D02*
X86050000Y-131439466D01*
G75*
G02*
X85825000Y-131664466I-225000J0D01*
G01*
X85375000Y-131664466D01*
G75*
G02*
X85150000Y-131439466I0J225000D01*
G01*
X85150000Y-130689466D01*
G75*
G02*
X85375000Y-130464466I225000J0D01*
G01*
X85825000Y-130464466D01*
G75*
G02*
X86050000Y-130689466I0J-225000D01*
G01*
G37*
G36*
G01*
X161350000Y-62689466D02*
X161350000Y-63439466D01*
G75*
G02*
X161125000Y-63664466I-225000J0D01*
G01*
X160675000Y-63664466D01*
G75*
G02*
X160450000Y-63439466I0J225000D01*
G01*
X160450000Y-62689466D01*
G75*
G02*
X160675000Y-62464466I225000J0D01*
G01*
X161125000Y-62464466D01*
G75*
G02*
X161350000Y-62689466I0J-225000D01*
G01*
G37*
G36*
G01*
X158050000Y-62689466D02*
X158050000Y-63439466D01*
G75*
G02*
X157825000Y-63664466I-225000J0D01*
G01*
X157375000Y-63664466D01*
G75*
G02*
X157150000Y-63439466I0J225000D01*
G01*
X157150000Y-62689466D01*
G75*
G02*
X157375000Y-62464466I225000J0D01*
G01*
X157825000Y-62464466D01*
G75*
G02*
X158050000Y-62689466I0J-225000D01*
G01*
G37*
D10*
X156450000Y-34900000D03*
X156450000Y-41900000D03*
D11*
X159699999Y-36500000D03*
X159700000Y-39500000D03*
X153200000Y-44600000D03*
X159700000Y-43500000D03*
G36*
G01*
X123712500Y-36107233D02*
X123712500Y-35907233D01*
G75*
G02*
X123812500Y-35807233I100000J0D01*
G01*
X125087500Y-35807233D01*
G75*
G02*
X125187500Y-35907233I0J-100000D01*
G01*
X125187500Y-36107233D01*
G75*
G02*
X125087500Y-36207233I-100000J0D01*
G01*
X123812500Y-36207233D01*
G75*
G02*
X123712500Y-36107233I0J100000D01*
G01*
G37*
G36*
G01*
X123712500Y-36757233D02*
X123712500Y-36557233D01*
G75*
G02*
X123812500Y-36457233I100000J0D01*
G01*
X125087500Y-36457233D01*
G75*
G02*
X125187500Y-36557233I0J-100000D01*
G01*
X125187500Y-36757233D01*
G75*
G02*
X125087500Y-36857233I-100000J0D01*
G01*
X123812500Y-36857233D01*
G75*
G02*
X123712500Y-36757233I0J100000D01*
G01*
G37*
G36*
G01*
X123712500Y-37407233D02*
X123712500Y-37207233D01*
G75*
G02*
X123812500Y-37107233I100000J0D01*
G01*
X125087500Y-37107233D01*
G75*
G02*
X125187500Y-37207233I0J-100000D01*
G01*
X125187500Y-37407233D01*
G75*
G02*
X125087500Y-37507233I-100000J0D01*
G01*
X123812500Y-37507233D01*
G75*
G02*
X123712500Y-37407233I0J100000D01*
G01*
G37*
G36*
G01*
X123712500Y-38057233D02*
X123712500Y-37857233D01*
G75*
G02*
X123812500Y-37757233I100000J0D01*
G01*
X125087500Y-37757233D01*
G75*
G02*
X125187500Y-37857233I0J-100000D01*
G01*
X125187500Y-38057233D01*
G75*
G02*
X125087500Y-38157233I-100000J0D01*
G01*
X123812500Y-38157233D01*
G75*
G02*
X123712500Y-38057233I0J100000D01*
G01*
G37*
G36*
G01*
X123712500Y-38707233D02*
X123712500Y-38507233D01*
G75*
G02*
X123812500Y-38407233I100000J0D01*
G01*
X125087500Y-38407233D01*
G75*
G02*
X125187500Y-38507233I0J-100000D01*
G01*
X125187500Y-38707233D01*
G75*
G02*
X125087500Y-38807233I-100000J0D01*
G01*
X123812500Y-38807233D01*
G75*
G02*
X123712500Y-38707233I0J100000D01*
G01*
G37*
G36*
G01*
X123712500Y-39357233D02*
X123712500Y-39157233D01*
G75*
G02*
X123812500Y-39057233I100000J0D01*
G01*
X125087500Y-39057233D01*
G75*
G02*
X125187500Y-39157233I0J-100000D01*
G01*
X125187500Y-39357233D01*
G75*
G02*
X125087500Y-39457233I-100000J0D01*
G01*
X123812500Y-39457233D01*
G75*
G02*
X123712500Y-39357233I0J100000D01*
G01*
G37*
G36*
G01*
X123712500Y-40007233D02*
X123712500Y-39807233D01*
G75*
G02*
X123812500Y-39707233I100000J0D01*
G01*
X125087500Y-39707233D01*
G75*
G02*
X125187500Y-39807233I0J-100000D01*
G01*
X125187500Y-40007233D01*
G75*
G02*
X125087500Y-40107233I-100000J0D01*
G01*
X123812500Y-40107233D01*
G75*
G02*
X123712500Y-40007233I0J100000D01*
G01*
G37*
G36*
G01*
X123712500Y-40657233D02*
X123712500Y-40457233D01*
G75*
G02*
X123812500Y-40357233I100000J0D01*
G01*
X125087500Y-40357233D01*
G75*
G02*
X125187500Y-40457233I0J-100000D01*
G01*
X125187500Y-40657233D01*
G75*
G02*
X125087500Y-40757233I-100000J0D01*
G01*
X123812500Y-40757233D01*
G75*
G02*
X123712500Y-40657233I0J100000D01*
G01*
G37*
G36*
G01*
X123712500Y-41307233D02*
X123712500Y-41107233D01*
G75*
G02*
X123812500Y-41007233I100000J0D01*
G01*
X125087500Y-41007233D01*
G75*
G02*
X125187500Y-41107233I0J-100000D01*
G01*
X125187500Y-41307233D01*
G75*
G02*
X125087500Y-41407233I-100000J0D01*
G01*
X123812500Y-41407233D01*
G75*
G02*
X123712500Y-41307233I0J100000D01*
G01*
G37*
G36*
G01*
X123712500Y-41957233D02*
X123712500Y-41757233D01*
G75*
G02*
X123812500Y-41657233I100000J0D01*
G01*
X125087500Y-41657233D01*
G75*
G02*
X125187500Y-41757233I0J-100000D01*
G01*
X125187500Y-41957233D01*
G75*
G02*
X125087500Y-42057233I-100000J0D01*
G01*
X123812500Y-42057233D01*
G75*
G02*
X123712500Y-41957233I0J100000D01*
G01*
G37*
G36*
G01*
X123712500Y-42607233D02*
X123712500Y-42407233D01*
G75*
G02*
X123812500Y-42307233I100000J0D01*
G01*
X125087500Y-42307233D01*
G75*
G02*
X125187500Y-42407233I0J-100000D01*
G01*
X125187500Y-42607233D01*
G75*
G02*
X125087500Y-42707233I-100000J0D01*
G01*
X123812500Y-42707233D01*
G75*
G02*
X123712500Y-42607233I0J100000D01*
G01*
G37*
G36*
G01*
X123712500Y-43257233D02*
X123712500Y-43057233D01*
G75*
G02*
X123812500Y-42957233I100000J0D01*
G01*
X125087500Y-42957233D01*
G75*
G02*
X125187500Y-43057233I0J-100000D01*
G01*
X125187500Y-43257233D01*
G75*
G02*
X125087500Y-43357233I-100000J0D01*
G01*
X123812500Y-43357233D01*
G75*
G02*
X123712500Y-43257233I0J100000D01*
G01*
G37*
G36*
G01*
X129437500Y-43257233D02*
X129437500Y-43057233D01*
G75*
G02*
X129537500Y-42957233I100000J0D01*
G01*
X130812500Y-42957233D01*
G75*
G02*
X130912500Y-43057233I0J-100000D01*
G01*
X130912500Y-43257233D01*
G75*
G02*
X130812500Y-43357233I-100000J0D01*
G01*
X129537500Y-43357233D01*
G75*
G02*
X129437500Y-43257233I0J100000D01*
G01*
G37*
G36*
G01*
X129437500Y-42607233D02*
X129437500Y-42407233D01*
G75*
G02*
X129537500Y-42307233I100000J0D01*
G01*
X130812500Y-42307233D01*
G75*
G02*
X130912500Y-42407233I0J-100000D01*
G01*
X130912500Y-42607233D01*
G75*
G02*
X130812500Y-42707233I-100000J0D01*
G01*
X129537500Y-42707233D01*
G75*
G02*
X129437500Y-42607233I0J100000D01*
G01*
G37*
G36*
G01*
X129437500Y-41957233D02*
X129437500Y-41757233D01*
G75*
G02*
X129537500Y-41657233I100000J0D01*
G01*
X130812500Y-41657233D01*
G75*
G02*
X130912500Y-41757233I0J-100000D01*
G01*
X130912500Y-41957233D01*
G75*
G02*
X130812500Y-42057233I-100000J0D01*
G01*
X129537500Y-42057233D01*
G75*
G02*
X129437500Y-41957233I0J100000D01*
G01*
G37*
G36*
G01*
X129437500Y-41307233D02*
X129437500Y-41107233D01*
G75*
G02*
X129537500Y-41007233I100000J0D01*
G01*
X130812500Y-41007233D01*
G75*
G02*
X130912500Y-41107233I0J-100000D01*
G01*
X130912500Y-41307233D01*
G75*
G02*
X130812500Y-41407233I-100000J0D01*
G01*
X129537500Y-41407233D01*
G75*
G02*
X129437500Y-41307233I0J100000D01*
G01*
G37*
G36*
G01*
X129437500Y-40657233D02*
X129437500Y-40457233D01*
G75*
G02*
X129537500Y-40357233I100000J0D01*
G01*
X130812500Y-40357233D01*
G75*
G02*
X130912500Y-40457233I0J-100000D01*
G01*
X130912500Y-40657233D01*
G75*
G02*
X130812500Y-40757233I-100000J0D01*
G01*
X129537500Y-40757233D01*
G75*
G02*
X129437500Y-40657233I0J100000D01*
G01*
G37*
G36*
G01*
X129437500Y-40007233D02*
X129437500Y-39807233D01*
G75*
G02*
X129537500Y-39707233I100000J0D01*
G01*
X130812500Y-39707233D01*
G75*
G02*
X130912500Y-39807233I0J-100000D01*
G01*
X130912500Y-40007233D01*
G75*
G02*
X130812500Y-40107233I-100000J0D01*
G01*
X129537500Y-40107233D01*
G75*
G02*
X129437500Y-40007233I0J100000D01*
G01*
G37*
G36*
G01*
X129437500Y-39357233D02*
X129437500Y-39157233D01*
G75*
G02*
X129537500Y-39057233I100000J0D01*
G01*
X130812500Y-39057233D01*
G75*
G02*
X130912500Y-39157233I0J-100000D01*
G01*
X130912500Y-39357233D01*
G75*
G02*
X130812500Y-39457233I-100000J0D01*
G01*
X129537500Y-39457233D01*
G75*
G02*
X129437500Y-39357233I0J100000D01*
G01*
G37*
G36*
G01*
X129437500Y-38707233D02*
X129437500Y-38507233D01*
G75*
G02*
X129537500Y-38407233I100000J0D01*
G01*
X130812500Y-38407233D01*
G75*
G02*
X130912500Y-38507233I0J-100000D01*
G01*
X130912500Y-38707233D01*
G75*
G02*
X130812500Y-38807233I-100000J0D01*
G01*
X129537500Y-38807233D01*
G75*
G02*
X129437500Y-38707233I0J100000D01*
G01*
G37*
G36*
G01*
X129437500Y-38057233D02*
X129437500Y-37857233D01*
G75*
G02*
X129537500Y-37757233I100000J0D01*
G01*
X130812500Y-37757233D01*
G75*
G02*
X130912500Y-37857233I0J-100000D01*
G01*
X130912500Y-38057233D01*
G75*
G02*
X130812500Y-38157233I-100000J0D01*
G01*
X129537500Y-38157233D01*
G75*
G02*
X129437500Y-38057233I0J100000D01*
G01*
G37*
G36*
G01*
X129437500Y-37407233D02*
X129437500Y-37207233D01*
G75*
G02*
X129537500Y-37107233I100000J0D01*
G01*
X130812500Y-37107233D01*
G75*
G02*
X130912500Y-37207233I0J-100000D01*
G01*
X130912500Y-37407233D01*
G75*
G02*
X130812500Y-37507233I-100000J0D01*
G01*
X129537500Y-37507233D01*
G75*
G02*
X129437500Y-37407233I0J100000D01*
G01*
G37*
G36*
G01*
X129437500Y-36757233D02*
X129437500Y-36557233D01*
G75*
G02*
X129537500Y-36457233I100000J0D01*
G01*
X130812500Y-36457233D01*
G75*
G02*
X130912500Y-36557233I0J-100000D01*
G01*
X130912500Y-36757233D01*
G75*
G02*
X130812500Y-36857233I-100000J0D01*
G01*
X129537500Y-36857233D01*
G75*
G02*
X129437500Y-36757233I0J100000D01*
G01*
G37*
G36*
G01*
X129437500Y-36107233D02*
X129437500Y-35907233D01*
G75*
G02*
X129537500Y-35807233I100000J0D01*
G01*
X130812500Y-35807233D01*
G75*
G02*
X130912500Y-35907233I0J-100000D01*
G01*
X130912500Y-36107233D01*
G75*
G02*
X130812500Y-36207233I-100000J0D01*
G01*
X129537500Y-36207233D01*
G75*
G02*
X129437500Y-36107233I0J100000D01*
G01*
G37*
G36*
G01*
X107350000Y-62689466D02*
X107350000Y-63439466D01*
G75*
G02*
X107125000Y-63664466I-225000J0D01*
G01*
X106675000Y-63664466D01*
G75*
G02*
X106450000Y-63439466I0J225000D01*
G01*
X106450000Y-62689466D01*
G75*
G02*
X106675000Y-62464466I225000J0D01*
G01*
X107125000Y-62464466D01*
G75*
G02*
X107350000Y-62689466I0J-225000D01*
G01*
G37*
G36*
G01*
X104050000Y-62689466D02*
X104050000Y-63439466D01*
G75*
G02*
X103825000Y-63664466I-225000J0D01*
G01*
X103375000Y-63664466D01*
G75*
G02*
X103150000Y-63439466I0J225000D01*
G01*
X103150000Y-62689466D01*
G75*
G02*
X103375000Y-62464466I225000J0D01*
G01*
X103825000Y-62464466D01*
G75*
G02*
X104050000Y-62689466I0J-225000D01*
G01*
G37*
G36*
G01*
X215350000Y-62689466D02*
X215350000Y-63439466D01*
G75*
G02*
X215125000Y-63664466I-225000J0D01*
G01*
X214675000Y-63664466D01*
G75*
G02*
X214450000Y-63439466I0J225000D01*
G01*
X214450000Y-62689466D01*
G75*
G02*
X214675000Y-62464466I225000J0D01*
G01*
X215125000Y-62464466D01*
G75*
G02*
X215350000Y-62689466I0J-225000D01*
G01*
G37*
G36*
G01*
X212050000Y-62689466D02*
X212050000Y-63439466D01*
G75*
G02*
X211825000Y-63664466I-225000J0D01*
G01*
X211375000Y-63664466D01*
G75*
G02*
X211150000Y-63439466I0J225000D01*
G01*
X211150000Y-62689466D01*
G75*
G02*
X211375000Y-62464466I225000J0D01*
G01*
X211825000Y-62464466D01*
G75*
G02*
X212050000Y-62689466I0J-225000D01*
G01*
G37*
D12*
X60500000Y-66814466D03*
G36*
G01*
X215350000Y-130689466D02*
X215350000Y-131439466D01*
G75*
G02*
X215125000Y-131664466I-225000J0D01*
G01*
X214675000Y-131664466D01*
G75*
G02*
X214450000Y-131439466I0J225000D01*
G01*
X214450000Y-130689466D01*
G75*
G02*
X214675000Y-130464466I225000J0D01*
G01*
X215125000Y-130464466D01*
G75*
G02*
X215350000Y-130689466I0J-225000D01*
G01*
G37*
G36*
G01*
X212050000Y-130689466D02*
X212050000Y-131439466D01*
G75*
G02*
X211825000Y-131664466I-225000J0D01*
G01*
X211375000Y-131664466D01*
G75*
G02*
X211150000Y-131439466I0J225000D01*
G01*
X211150000Y-130689466D01*
G75*
G02*
X211375000Y-130464466I225000J0D01*
G01*
X211825000Y-130464466D01*
G75*
G02*
X212050000Y-130689466I0J-225000D01*
G01*
G37*
G36*
G01*
X197350000Y-62689466D02*
X197350000Y-63439466D01*
G75*
G02*
X197125000Y-63664466I-225000J0D01*
G01*
X196675000Y-63664466D01*
G75*
G02*
X196450000Y-63439466I0J225000D01*
G01*
X196450000Y-62689466D01*
G75*
G02*
X196675000Y-62464466I225000J0D01*
G01*
X197125000Y-62464466D01*
G75*
G02*
X197350000Y-62689466I0J-225000D01*
G01*
G37*
G36*
G01*
X194050000Y-62689466D02*
X194050000Y-63439466D01*
G75*
G02*
X193825000Y-63664466I-225000J0D01*
G01*
X193375000Y-63664466D01*
G75*
G02*
X193150000Y-63439466I0J225000D01*
G01*
X193150000Y-62689466D01*
G75*
G02*
X193375000Y-62464466I225000J0D01*
G01*
X193825000Y-62464466D01*
G75*
G02*
X194050000Y-62689466I0J-225000D01*
G01*
G37*
G36*
G01*
X251350000Y-62689466D02*
X251350000Y-63439466D01*
G75*
G02*
X251125000Y-63664466I-225000J0D01*
G01*
X250675000Y-63664466D01*
G75*
G02*
X250450000Y-63439466I0J225000D01*
G01*
X250450000Y-62689466D01*
G75*
G02*
X250675000Y-62464466I225000J0D01*
G01*
X251125000Y-62464466D01*
G75*
G02*
X251350000Y-62689466I0J-225000D01*
G01*
G37*
G36*
G01*
X248050000Y-62689466D02*
X248050000Y-63439466D01*
G75*
G02*
X247825000Y-63664466I-225000J0D01*
G01*
X247375000Y-63664466D01*
G75*
G02*
X247150000Y-63439466I0J225000D01*
G01*
X247150000Y-62689466D01*
G75*
G02*
X247375000Y-62464466I225000J0D01*
G01*
X247825000Y-62464466D01*
G75*
G02*
X248050000Y-62689466I0J-225000D01*
G01*
G37*
G36*
G01*
X155287500Y-48237500D02*
X155287500Y-47762500D01*
G75*
G02*
X155525000Y-47525000I237500J0D01*
G01*
X156025000Y-47525000D01*
G75*
G02*
X156262500Y-47762500I0J-237500D01*
G01*
X156262500Y-48237500D01*
G75*
G02*
X156025000Y-48475000I-237500J0D01*
G01*
X155525000Y-48475000D01*
G75*
G02*
X155287500Y-48237500I0J237500D01*
G01*
G37*
G36*
G01*
X157112500Y-48237500D02*
X157112500Y-47762500D01*
G75*
G02*
X157350000Y-47525000I237500J0D01*
G01*
X157850000Y-47525000D01*
G75*
G02*
X158087500Y-47762500I0J-237500D01*
G01*
X158087500Y-48237500D01*
G75*
G02*
X157850000Y-48475000I-237500J0D01*
G01*
X157350000Y-48475000D01*
G75*
G02*
X157112500Y-48237500I0J237500D01*
G01*
G37*
G36*
G01*
X251350000Y-130689466D02*
X251350000Y-131439466D01*
G75*
G02*
X251125000Y-131664466I-225000J0D01*
G01*
X250675000Y-131664466D01*
G75*
G02*
X250450000Y-131439466I0J225000D01*
G01*
X250450000Y-130689466D01*
G75*
G02*
X250675000Y-130464466I225000J0D01*
G01*
X251125000Y-130464466D01*
G75*
G02*
X251350000Y-130689466I0J-225000D01*
G01*
G37*
G36*
G01*
X248050000Y-130689466D02*
X248050000Y-131439466D01*
G75*
G02*
X247825000Y-131664466I-225000J0D01*
G01*
X247375000Y-131664466D01*
G75*
G02*
X247150000Y-131439466I0J225000D01*
G01*
X247150000Y-130689466D01*
G75*
G02*
X247375000Y-130464466I225000J0D01*
G01*
X247825000Y-130464466D01*
G75*
G02*
X248050000Y-130689466I0J-225000D01*
G01*
G37*
G36*
G01*
X53350000Y-130689466D02*
X53350000Y-131439466D01*
G75*
G02*
X53125000Y-131664466I-225000J0D01*
G01*
X52675000Y-131664466D01*
G75*
G02*
X52450000Y-131439466I0J225000D01*
G01*
X52450000Y-130689466D01*
G75*
G02*
X52675000Y-130464466I225000J0D01*
G01*
X53125000Y-130464466D01*
G75*
G02*
X53350000Y-130689466I0J-225000D01*
G01*
G37*
G36*
G01*
X50050000Y-130689466D02*
X50050000Y-131439466D01*
G75*
G02*
X49825000Y-131664466I-225000J0D01*
G01*
X49375000Y-131664466D01*
G75*
G02*
X49150000Y-131439466I0J225000D01*
G01*
X49150000Y-130689466D01*
G75*
G02*
X49375000Y-130464466I225000J0D01*
G01*
X49825000Y-130464466D01*
G75*
G02*
X50050000Y-130689466I0J-225000D01*
G01*
G37*
X168250000Y-118064466D03*
G36*
G01*
X89350000Y-62689466D02*
X89350000Y-63439466D01*
G75*
G02*
X89125000Y-63664466I-225000J0D01*
G01*
X88675000Y-63664466D01*
G75*
G02*
X88450000Y-63439466I0J225000D01*
G01*
X88450000Y-62689466D01*
G75*
G02*
X88675000Y-62464466I225000J0D01*
G01*
X89125000Y-62464466D01*
G75*
G02*
X89350000Y-62689466I0J-225000D01*
G01*
G37*
G36*
G01*
X86050000Y-62689466D02*
X86050000Y-63439466D01*
G75*
G02*
X85825000Y-63664466I-225000J0D01*
G01*
X85375000Y-63664466D01*
G75*
G02*
X85150000Y-63439466I0J225000D01*
G01*
X85150000Y-62689466D01*
G75*
G02*
X85375000Y-62464466I225000J0D01*
G01*
X85825000Y-62464466D01*
G75*
G02*
X86050000Y-62689466I0J-225000D01*
G01*
G37*
X114250000Y-118064466D03*
G36*
G01*
X179750000Y-28010000D02*
X180650000Y-28010000D01*
G75*
G02*
X181100000Y-28460000I0J-450000D01*
G01*
X181100000Y-31060000D01*
G75*
G02*
X180650000Y-31510000I-450000J0D01*
G01*
X179750000Y-31510000D01*
G75*
G02*
X179300000Y-31060000I0J450000D01*
G01*
X179300000Y-28460000D01*
G75*
G02*
X179750000Y-28010000I450000J0D01*
G01*
G37*
G36*
G01*
X177210000Y-28010000D02*
X178110000Y-28010000D01*
G75*
G02*
X178560000Y-28460000I0J-450000D01*
G01*
X178560000Y-31060000D01*
G75*
G02*
X178110000Y-31510000I-450000J0D01*
G01*
X177210000Y-31510000D01*
G75*
G02*
X176760000Y-31060000I0J450000D01*
G01*
X176760000Y-28460000D01*
G75*
G02*
X177210000Y-28010000I450000J0D01*
G01*
G37*
G36*
G01*
X174670000Y-28010000D02*
X175570000Y-28010000D01*
G75*
G02*
X176020000Y-28460000I0J-450000D01*
G01*
X176020000Y-31060000D01*
G75*
G02*
X175570000Y-31510000I-450000J0D01*
G01*
X174670000Y-31510000D01*
G75*
G02*
X174220000Y-31060000I0J450000D01*
G01*
X174220000Y-28460000D01*
G75*
G02*
X174670000Y-28010000I450000J0D01*
G01*
G37*
G36*
G01*
X172130000Y-28010000D02*
X173030000Y-28010000D01*
G75*
G02*
X173480000Y-28460000I0J-450000D01*
G01*
X173480000Y-31060000D01*
G75*
G02*
X173030000Y-31510000I-450000J0D01*
G01*
X172130000Y-31510000D01*
G75*
G02*
X171680000Y-31060000I0J450000D01*
G01*
X171680000Y-28460000D01*
G75*
G02*
X172130000Y-28010000I450000J0D01*
G01*
G37*
G36*
G01*
X169590000Y-28010000D02*
X170490000Y-28010000D01*
G75*
G02*
X170940000Y-28460000I0J-450000D01*
G01*
X170940000Y-31060000D01*
G75*
G02*
X170490000Y-31510000I-450000J0D01*
G01*
X169590000Y-31510000D01*
G75*
G02*
X169140000Y-31060000I0J450000D01*
G01*
X169140000Y-28460000D01*
G75*
G02*
X169590000Y-28010000I450000J0D01*
G01*
G37*
G36*
G01*
X167050000Y-28010000D02*
X167950000Y-28010000D01*
G75*
G02*
X168400000Y-28460000I0J-450000D01*
G01*
X168400000Y-31060000D01*
G75*
G02*
X167950000Y-31510000I-450000J0D01*
G01*
X167050000Y-31510000D01*
G75*
G02*
X166600000Y-31060000I0J450000D01*
G01*
X166600000Y-28460000D01*
G75*
G02*
X167050000Y-28010000I450000J0D01*
G01*
G37*
G36*
G01*
X164510000Y-28010000D02*
X165410000Y-28010000D01*
G75*
G02*
X165860000Y-28460000I0J-450000D01*
G01*
X165860000Y-31060000D01*
G75*
G02*
X165410000Y-31510000I-450000J0D01*
G01*
X164510000Y-31510000D01*
G75*
G02*
X164060000Y-31060000I0J450000D01*
G01*
X164060000Y-28460000D01*
G75*
G02*
X164510000Y-28010000I450000J0D01*
G01*
G37*
G36*
G01*
X180650000Y-49350000D02*
X179750000Y-49350000D01*
G75*
G02*
X179300000Y-48900000I0J450000D01*
G01*
X179300000Y-46300000D01*
G75*
G02*
X179750000Y-45850000I450000J0D01*
G01*
X180650000Y-45850000D01*
G75*
G02*
X181100000Y-46300000I0J-450000D01*
G01*
X181100000Y-48900000D01*
G75*
G02*
X180650000Y-49350000I-450000J0D01*
G01*
G37*
G36*
G01*
X178110000Y-49350000D02*
X177210000Y-49350000D01*
G75*
G02*
X176760000Y-48900000I0J450000D01*
G01*
X176760000Y-46300000D01*
G75*
G02*
X177210000Y-45850000I450000J0D01*
G01*
X178110000Y-45850000D01*
G75*
G02*
X178560000Y-46300000I0J-450000D01*
G01*
X178560000Y-48900000D01*
G75*
G02*
X178110000Y-49350000I-450000J0D01*
G01*
G37*
G36*
G01*
X175569999Y-49350000D02*
X174669999Y-49350000D01*
G75*
G02*
X174219999Y-48900000I0J450000D01*
G01*
X174219999Y-46300000D01*
G75*
G02*
X174669999Y-45850000I450000J0D01*
G01*
X175569999Y-45850000D01*
G75*
G02*
X176019999Y-46300000I0J-450000D01*
G01*
X176019999Y-48900000D01*
G75*
G02*
X175569999Y-49350000I-450000J0D01*
G01*
G37*
G36*
G01*
X173030000Y-49350000D02*
X172130000Y-49350000D01*
G75*
G02*
X171680000Y-48900000I0J450000D01*
G01*
X171680000Y-46300000D01*
G75*
G02*
X172130000Y-45850000I450000J0D01*
G01*
X173030000Y-45850000D01*
G75*
G02*
X173480000Y-46300000I0J-450000D01*
G01*
X173480000Y-48900000D01*
G75*
G02*
X173030000Y-49350000I-450000J0D01*
G01*
G37*
G36*
G01*
X170490000Y-49350000D02*
X169590000Y-49350000D01*
G75*
G02*
X169140000Y-48900000I0J450000D01*
G01*
X169140000Y-46300000D01*
G75*
G02*
X169590000Y-45850000I450000J0D01*
G01*
X170490000Y-45850000D01*
G75*
G02*
X170940000Y-46300000I0J-450000D01*
G01*
X170940000Y-48900000D01*
G75*
G02*
X170490000Y-49350000I-450000J0D01*
G01*
G37*
G36*
G01*
X167050000Y-45850000D02*
X167950000Y-45850000D01*
G75*
G02*
X168400000Y-46300000I0J-450000D01*
G01*
X168400000Y-48900000D01*
G75*
G02*
X167950000Y-49350000I-450000J0D01*
G01*
X167050000Y-49350000D01*
G75*
G02*
X166600000Y-48900000I0J450000D01*
G01*
X166600000Y-46300000D01*
G75*
G02*
X167050000Y-45850000I450000J0D01*
G01*
G37*
G36*
G01*
X164510000Y-45850000D02*
X165410000Y-45850000D01*
G75*
G02*
X165860000Y-46300000I0J-450000D01*
G01*
X165860000Y-48900000D01*
G75*
G02*
X165410000Y-49350000I-450000J0D01*
G01*
X164510000Y-49350000D01*
G75*
G02*
X164060000Y-48900000I0J450000D01*
G01*
X164060000Y-46300000D01*
G75*
G02*
X164510000Y-45850000I450000J0D01*
G01*
G37*
G36*
G01*
X174465000Y-32984999D02*
X175140000Y-32984999D01*
G75*
G02*
X175477500Y-33322499I0J-337500D01*
G01*
X175477500Y-35147499D01*
G75*
G02*
X175140000Y-35484999I-337500J0D01*
G01*
X174465000Y-35484999D01*
G75*
G02*
X174127500Y-35147499I0J337500D01*
G01*
X174127500Y-33322499D01*
G75*
G02*
X174465000Y-32984999I337500J0D01*
G01*
G37*
G36*
G01*
X172560000Y-32984998D02*
X173235000Y-32984998D01*
G75*
G02*
X173572500Y-33322498I0J-337500D01*
G01*
X173572500Y-35147498D01*
G75*
G02*
X173235000Y-35484998I-337500J0D01*
G01*
X172560000Y-35484998D01*
G75*
G02*
X172222500Y-35147498I0J337500D01*
G01*
X172222500Y-33322498D01*
G75*
G02*
X172560000Y-32984998I337500J0D01*
G01*
G37*
G36*
G01*
X162122500Y-42827500D02*
X162122500Y-42152500D01*
G75*
G02*
X162460000Y-41815000I337500J0D01*
G01*
X164285000Y-41815000D01*
G75*
G02*
X164622500Y-42152500I0J-337500D01*
G01*
X164622500Y-42827500D01*
G75*
G02*
X164285000Y-43165000I-337500J0D01*
G01*
X162460000Y-43165000D01*
G75*
G02*
X162122500Y-42827500I0J337500D01*
G01*
G37*
G36*
G01*
X162122500Y-44732500D02*
X162122500Y-44057500D01*
G75*
G02*
X162460000Y-43720000I337500J0D01*
G01*
X164285000Y-43720000D01*
G75*
G02*
X164622500Y-44057500I0J-337500D01*
G01*
X164622500Y-44732500D01*
G75*
G02*
X164285000Y-45070000I-337500J0D01*
G01*
X162460000Y-45070000D01*
G75*
G02*
X162122500Y-44732500I0J337500D01*
G01*
G37*
D10*
X181152500Y-37410000D03*
X181152500Y-39950000D03*
X178612500Y-37410000D03*
X178612500Y-39950000D03*
G36*
G01*
X71350000Y-130689466D02*
X71350000Y-131439466D01*
G75*
G02*
X71125000Y-131664466I-225000J0D01*
G01*
X70675000Y-131664466D01*
G75*
G02*
X70450000Y-131439466I0J225000D01*
G01*
X70450000Y-130689466D01*
G75*
G02*
X70675000Y-130464466I225000J0D01*
G01*
X71125000Y-130464466D01*
G75*
G02*
X71350000Y-130689466I0J-225000D01*
G01*
G37*
G36*
G01*
X68050000Y-130689466D02*
X68050000Y-131439466D01*
G75*
G02*
X67825000Y-131664466I-225000J0D01*
G01*
X67375000Y-131664466D01*
G75*
G02*
X67150000Y-131439466I0J225000D01*
G01*
X67150000Y-130689466D01*
G75*
G02*
X67375000Y-130464466I225000J0D01*
G01*
X67825000Y-130464466D01*
G75*
G02*
X68050000Y-130689466I0J-225000D01*
G01*
G37*
G36*
G01*
X143350000Y-130689466D02*
X143350000Y-131439466D01*
G75*
G02*
X143125000Y-131664466I-225000J0D01*
G01*
X142675000Y-131664466D01*
G75*
G02*
X142450000Y-131439466I0J225000D01*
G01*
X142450000Y-130689466D01*
G75*
G02*
X142675000Y-130464466I225000J0D01*
G01*
X143125000Y-130464466D01*
G75*
G02*
X143350000Y-130689466I0J-225000D01*
G01*
G37*
G36*
G01*
X140050000Y-130689466D02*
X140050000Y-131439466D01*
G75*
G02*
X139825000Y-131664466I-225000J0D01*
G01*
X139375000Y-131664466D01*
G75*
G02*
X139150000Y-131439466I0J225000D01*
G01*
X139150000Y-130689466D01*
G75*
G02*
X139375000Y-130464466I225000J0D01*
G01*
X139825000Y-130464466D01*
G75*
G02*
X140050000Y-130689466I0J-225000D01*
G01*
G37*
D12*
X60250000Y-118314466D03*
D13*
X99750000Y-109564466D03*
D14*
X105250000Y-109564466D03*
D13*
X110750000Y-109564466D03*
X81750000Y-109564466D03*
D14*
X87250000Y-109564466D03*
D13*
X92750000Y-109564466D03*
X63750000Y-109564466D03*
D14*
X69250000Y-109564466D03*
D13*
X74750000Y-109564466D03*
X45750000Y-109564466D03*
D14*
X51250000Y-109564466D03*
D13*
X56750000Y-109564466D03*
X243750000Y-92564466D03*
D14*
X249250000Y-92564466D03*
D13*
X254750000Y-92564466D03*
X225750000Y-92564466D03*
D14*
X231250000Y-92564466D03*
D13*
X236750000Y-92564466D03*
X207750000Y-92564466D03*
D14*
X213250000Y-92564466D03*
D13*
X218750000Y-92564466D03*
X171750000Y-92564466D03*
D14*
X177250000Y-92564466D03*
D13*
X182750000Y-92564466D03*
X153750000Y-92564466D03*
D14*
X159250000Y-92564466D03*
D13*
X164750000Y-92564466D03*
X135750000Y-92564466D03*
D14*
X141250000Y-92564466D03*
D13*
X146750000Y-92564466D03*
X153750000Y-75564466D03*
D14*
X159250000Y-75564466D03*
D13*
X164750000Y-75564466D03*
X189750000Y-92564466D03*
D14*
X195250000Y-92564466D03*
D13*
X200750000Y-92564466D03*
X117750000Y-92564466D03*
D14*
X123250000Y-92564466D03*
D13*
X128750000Y-92564466D03*
X99750000Y-92564466D03*
D14*
X105250000Y-92564466D03*
D13*
X110750000Y-92564466D03*
X81750000Y-92564466D03*
D14*
X87250000Y-92564466D03*
D13*
X92750000Y-92564466D03*
X63750000Y-92564466D03*
D14*
X69250000Y-92564466D03*
D13*
X74750000Y-92564466D03*
X45750000Y-92564466D03*
D14*
X51250000Y-92564466D03*
D13*
X56750000Y-92564466D03*
X243750000Y-75564466D03*
D14*
X249250000Y-75564466D03*
D13*
X254750000Y-75564466D03*
X117750000Y-126564466D03*
D14*
X123250000Y-126564466D03*
D13*
X128750000Y-126564466D03*
X225750000Y-75564466D03*
D14*
X231250000Y-75564466D03*
D13*
X236750000Y-75564466D03*
X45750000Y-75564466D03*
D14*
X51250000Y-75564466D03*
D13*
X56750000Y-75564466D03*
X117750000Y-75564466D03*
D14*
X123250000Y-75564466D03*
D13*
X128750000Y-75564466D03*
X99750000Y-75564466D03*
D14*
X105250000Y-75564466D03*
D13*
X110750000Y-75564466D03*
X171750000Y-75564466D03*
D14*
X177250000Y-75564466D03*
D13*
X182750000Y-75564466D03*
X153750000Y-109564466D03*
D14*
X159250000Y-109564466D03*
D13*
X164750000Y-109564466D03*
X63750000Y-75564466D03*
D14*
X69250000Y-75564466D03*
D13*
X74750000Y-75564466D03*
X207750000Y-75564466D03*
D14*
X213250000Y-75564466D03*
D13*
X218750000Y-75564466D03*
X189750000Y-75564466D03*
D14*
X195250000Y-75564466D03*
D13*
X200750000Y-75564466D03*
X243750000Y-109564466D03*
D14*
X249250000Y-109564466D03*
D13*
X254750000Y-109564466D03*
X225750000Y-109564466D03*
D14*
X231250000Y-109564466D03*
D13*
X236750000Y-109564466D03*
X207750000Y-109564466D03*
D14*
X213250000Y-109564466D03*
D13*
X218750000Y-109564466D03*
X189750000Y-109564466D03*
D14*
X195250000Y-109564466D03*
D13*
X200750000Y-109564466D03*
X171750000Y-109564466D03*
D14*
X177250000Y-109564466D03*
D13*
X182750000Y-109564466D03*
X135750000Y-109564466D03*
D14*
X141250000Y-109564466D03*
D13*
X146750000Y-109564466D03*
X117750000Y-109564466D03*
D14*
X123250000Y-109564466D03*
D13*
X128750000Y-109564466D03*
X81750000Y-75564466D03*
D14*
X87250000Y-75564466D03*
D13*
X92750000Y-75564466D03*
X135750000Y-75564466D03*
D14*
X141250000Y-75564466D03*
D13*
X146750000Y-75564466D03*
X99750000Y-126564466D03*
D14*
X105250000Y-126564466D03*
D13*
X110750000Y-126564466D03*
X171750000Y-126564466D03*
D14*
X177250000Y-126564466D03*
D13*
X182750000Y-126564466D03*
X189750000Y-126564466D03*
D14*
X195250000Y-126564466D03*
D13*
X200750000Y-126564466D03*
X153750000Y-126564466D03*
D14*
X159250000Y-126564466D03*
D13*
X164750000Y-126564466D03*
X81750000Y-126564466D03*
D14*
X87250000Y-126564466D03*
D13*
X92750000Y-126564466D03*
X63750000Y-58564466D03*
D14*
X69250000Y-58564466D03*
D13*
X74750000Y-58564466D03*
X45750000Y-58564466D03*
D14*
X51250000Y-58564466D03*
D13*
X56750000Y-58564466D03*
X45750000Y-126564466D03*
D14*
X51250000Y-126564466D03*
D13*
X56750000Y-126564466D03*
X63750000Y-126564466D03*
D14*
X69250000Y-126564466D03*
D13*
X74750000Y-126564466D03*
X207750000Y-58564466D03*
D14*
X213250000Y-58564466D03*
D13*
X218750000Y-58564466D03*
X207750000Y-126564466D03*
D14*
X213250000Y-126564466D03*
D13*
X218750000Y-126564466D03*
X243750000Y-58564466D03*
D14*
X249250000Y-58564466D03*
D13*
X254750000Y-58564466D03*
X99750000Y-58564466D03*
D14*
X105250000Y-58564466D03*
D13*
X110750000Y-58564466D03*
X135750000Y-58564466D03*
D14*
X141250000Y-58564466D03*
D13*
X146750000Y-58564466D03*
X171750000Y-58564466D03*
D14*
X177250000Y-58564466D03*
D13*
X182750000Y-58564466D03*
X225750000Y-58564466D03*
D14*
X231250000Y-58564466D03*
D13*
X236750000Y-58564466D03*
X189750000Y-58564466D03*
D14*
X195250000Y-58564466D03*
D13*
X200750000Y-58564466D03*
X81750000Y-58564466D03*
D14*
X87250000Y-58564466D03*
D13*
X92750000Y-58564466D03*
X117750000Y-58564466D03*
D14*
X123250000Y-58564466D03*
D13*
X128750000Y-58564466D03*
X243750000Y-126564466D03*
D14*
X249250000Y-126564466D03*
D13*
X254750000Y-126564466D03*
X135750000Y-126564466D03*
D14*
X141250000Y-126564466D03*
D13*
X146750000Y-126564466D03*
X153750000Y-58564466D03*
D14*
X159250000Y-58564466D03*
D13*
X164750000Y-58564466D03*
X225750000Y-126564466D03*
D14*
X231250000Y-126564466D03*
D13*
X236750000Y-126564466D03*
M02*
