M48
INCH,TZ
T1C0.0157
T2C0.1181
%
G90
G05
T1
X40945Y-21984
X47409Y-12146
X47409Y-13076
X47409Y-14007
X47409Y-14937
X47591Y-17091
X50087Y-14965
X50239Y-20012
X50535Y-17598
X51169Y-20012
X52094Y-16752
X52677Y-25772
X52732Y-16390
X53134Y-21370
X54016Y-21579
X54350Y-15567
X54350Y-16497
X54350Y-17428
X54350Y-18358
X59098Y-15646
X59098Y-16576
X59098Y-17507
X59098Y-18437
X59138Y-37638
X59138Y-38568
X59138Y-39499
X59138Y-40429
X60413Y-19807
X60547Y-18331
X61236Y-52496
X61933Y-14453
X61984Y-17201
X62787Y-19350
X62874Y-15551
X63866Y-30835
X63913Y-24669
X63972Y-15445
X65457Y-19965
X66126Y-15791
X66228Y-19870
X67134Y-19744
X67193Y-15406
X67547Y-22130
X68008Y-13465
X68555Y-17327
X68843Y-17705
X69374Y-15862
X70835Y-13819
X70854Y-16520
X71339Y-14126
X71390Y-12972
X71606Y-12374
T2
X20177Y-20714
X20177Y-27407
X20177Y-34100
X20177Y-40793
X20177Y-47486
X22146Y-21580
X22146Y-28273
X22146Y-34966
X22146Y-41659
X22146Y-48352
X27264Y-20714
X27264Y-27407
X27264Y-34100
X27264Y-40793
X27264Y-47486
X29232Y-21580
X29232Y-28273
X29232Y-34966
X29232Y-41659
X29232Y-48352
X34350Y-20714
X34350Y-27407
X34350Y-34100
X34350Y-40793
X34350Y-47486
X36319Y-21580
X36319Y-28273
X36319Y-34966
X36319Y-41659
X36319Y-48352
X41437Y-20714
X41437Y-27407
X41437Y-34100
X41437Y-40793
X41437Y-47486
X43406Y-21580
X43406Y-28273
X43406Y-34966
X43406Y-41659
X43406Y-48352
X48524Y-20714
X48524Y-27407
X48524Y-34100
X48524Y-40793
X48524Y-47486
X50492Y-21580
X50492Y-28273
X50492Y-34966
X50492Y-41659
X50492Y-48352
X55610Y-20714
X55610Y-27407
X55610Y-34100
X55610Y-40793
X55610Y-47486
X57579Y-21580
X57579Y-28273
X57579Y-34966
X57579Y-41659
X57579Y-48352
X62697Y-20714
X62697Y-27407
X62697Y-34100
X62697Y-40793
X62697Y-47486
X64665Y-21580
X64665Y-28273
X64665Y-34966
X64665Y-41659
X64665Y-48352
X69783Y-20714
X69783Y-27407
X69783Y-34100
X69783Y-40793
X69783Y-47486
X71752Y-21580
X71752Y-28273
X71752Y-34966
X71752Y-41659
X71752Y-48352
X76870Y-20714
X76870Y-27407
X76870Y-34100
X76870Y-40793
X76870Y-47486
X78839Y-21580
X78839Y-28273
X78839Y-34966
X78839Y-41659
X78839Y-48352
X83957Y-20714
X83957Y-27407
X83957Y-34100
X83957Y-40793
X83957Y-47486
X85925Y-21580
X85925Y-28273
X85925Y-34966
X85925Y-41659
X85925Y-48352
X91043Y-20714
X91043Y-27407
X91043Y-34100
X91043Y-40793
X91043Y-47486
X93012Y-21580
X93012Y-28273
X93012Y-34966
X93012Y-41659
X93012Y-48352
X98130Y-20714
X98130Y-27407
X98130Y-34100
X98130Y-40793
X98130Y-47486
X100098Y-21580
X100098Y-28273
X100098Y-34966
X100098Y-41659
X100098Y-48352
T0
M30
