M48
; DRILL file {KiCad 7.0.9-7.0.9~ubuntu22.04.1} date Thu 21 Dec 2023 11:36:55 PM CET
; FORMAT={-:-/ absolute / metric / decimal}
; #@! TF.CreationDate,2023-12-21T23:36:55+01:00
; #@! TF.GenerationSoftware,Kicad,Pcbnew,7.0.9-7.0.9~ubuntu22.04.1
; #@! TF.FileFunction,Plated,1,2,PTH
FMAT,2
METRIC
; #@! TA.AperFunction,Plated,PTH,ViaDrill
T1C0.400
; #@! TA.AperFunction,Plated,PTH,ComponentDrill
T2C3.000
%
G90
G05
T1
X104.0Y-55.84
X120.42Y-30.85
X120.42Y-33.213
X120.42Y-35.577
X120.42Y-37.94
X120.88Y-43.41
X127.22Y-38.01
X127.607Y-50.83
X128.36Y-44.7
X129.97Y-50.83
X132.32Y-42.55
X133.8Y-65.46
X133.94Y-41.63
X134.96Y-54.28
X137.2Y-54.81
X138.05Y-39.54
X138.05Y-41.903
X138.05Y-44.267
X138.05Y-46.63
X150.11Y-39.74
X150.11Y-42.103
X150.11Y-44.467
X150.11Y-46.83
X150.21Y-95.6
X150.21Y-97.963
X150.21Y-100.327
X150.21Y-102.69
X153.45Y-50.31
X153.79Y-46.56
X155.54Y-133.34
X157.31Y-36.71
X157.44Y-43.69
X159.48Y-49.15
X159.7Y-39.5
X162.22Y-78.32
X162.34Y-62.66
X162.49Y-39.23
X166.26Y-50.71
X167.96Y-40.11
X168.22Y-50.47
X170.52Y-50.15
X170.67Y-39.13
X171.57Y-56.21
X172.74Y-34.2
X174.13Y-44.01
X174.86Y-44.97
X176.21Y-40.29
X179.92Y-35.1
X179.97Y-41.96
X181.2Y-35.88
X181.33Y-32.95
X181.88Y-31.43
T2
X51.25Y-52.614
X51.25Y-69.614
X51.25Y-86.614
X51.25Y-103.614
X51.25Y-120.614
X56.25Y-54.814
X56.25Y-71.814
X56.25Y-88.814
X56.25Y-105.814
X56.25Y-122.814
X69.25Y-52.614
X69.25Y-69.614
X69.25Y-86.614
X69.25Y-103.614
X69.25Y-120.614
X74.25Y-54.814
X74.25Y-71.814
X74.25Y-88.814
X74.25Y-105.814
X74.25Y-122.814
X87.25Y-52.614
X87.25Y-69.614
X87.25Y-86.614
X87.25Y-103.614
X87.25Y-120.614
X92.25Y-54.814
X92.25Y-71.814
X92.25Y-88.814
X92.25Y-105.814
X92.25Y-122.814
X105.25Y-52.614
X105.25Y-69.614
X105.25Y-86.614
X105.25Y-103.614
X105.25Y-120.614
X110.25Y-54.814
X110.25Y-71.814
X110.25Y-88.814
X110.25Y-105.814
X110.25Y-122.814
X123.25Y-52.614
X123.25Y-69.614
X123.25Y-86.614
X123.25Y-103.614
X123.25Y-120.614
X128.25Y-54.814
X128.25Y-71.814
X128.25Y-88.814
X128.25Y-105.814
X128.25Y-122.814
X141.25Y-52.614
X141.25Y-69.614
X141.25Y-86.614
X141.25Y-103.614
X141.25Y-120.614
X146.25Y-54.814
X146.25Y-71.814
X146.25Y-88.814
X146.25Y-105.814
X146.25Y-122.814
X159.25Y-52.614
X159.25Y-69.614
X159.25Y-86.614
X159.25Y-103.614
X159.25Y-120.614
X164.25Y-54.814
X164.25Y-71.814
X164.25Y-88.814
X164.25Y-105.814
X164.25Y-122.814
X177.25Y-52.614
X177.25Y-69.614
X177.25Y-86.614
X177.25Y-103.614
X177.25Y-120.614
X182.25Y-54.814
X182.25Y-71.814
X182.25Y-88.814
X182.25Y-105.814
X182.25Y-122.814
X195.25Y-52.614
X195.25Y-69.614
X195.25Y-86.614
X195.25Y-103.614
X195.25Y-120.614
X200.25Y-54.814
X200.25Y-71.814
X200.25Y-88.814
X200.25Y-105.814
X200.25Y-122.814
X213.25Y-52.614
X213.25Y-69.614
X213.25Y-86.614
X213.25Y-103.614
X213.25Y-120.614
X218.25Y-54.814
X218.25Y-71.814
X218.25Y-88.814
X218.25Y-105.814
X218.25Y-122.814
X231.25Y-52.614
X231.25Y-69.614
X231.25Y-86.614
X231.25Y-103.614
X231.25Y-120.614
X236.25Y-54.814
X236.25Y-71.814
X236.25Y-88.814
X236.25Y-105.814
X236.25Y-122.814
X249.25Y-52.614
X249.25Y-69.614
X249.25Y-86.614
X249.25Y-103.614
X249.25Y-120.614
X254.25Y-54.814
X254.25Y-71.814
X254.25Y-88.814
X254.25Y-105.814
X254.25Y-122.814
T0
M30
