M48
; DRILL file {KiCad 7.0.9-7.0.9~ubuntu22.04.1} date Thu 21 Dec 2023 11:36:55 PM CET
; FORMAT={-:-/ absolute / metric / decimal}
; #@! TF.CreationDate,2023-12-21T23:36:55+01:00
; #@! TF.GenerationSoftware,Kicad,Pcbnew,7.0.9-7.0.9~ubuntu22.04.1
; #@! TF.FileFunction,NonPlated,1,2,NPTH
FMAT,2
METRIC
; #@! TA.AperFunction,NonPlated,NPTH,ComponentDrill
T1C1.500
; #@! TA.AperFunction,NonPlated,NPTH,ComponentDrill
T2C1.700
; #@! TA.AperFunction,NonPlated,NPTH,ComponentDrill
T3C3.400
; #@! TA.AperFunction,NonPlated,NPTH,ComponentDrill
T4C3.500
%
G90
G05
T1
X144.15Y-35.0
X144.15Y-42.0
X156.45Y-34.9
X156.45Y-41.9
T2
X45.75Y-58.564
X45.75Y-75.564
X45.75Y-92.564
X45.75Y-109.564
X45.75Y-126.564
X56.75Y-58.564
X56.75Y-75.564
X56.75Y-92.564
X56.75Y-109.564
X56.75Y-126.564
X63.75Y-58.564
X63.75Y-75.564
X63.75Y-92.564
X63.75Y-109.564
X63.75Y-126.564
X74.75Y-58.564
X74.75Y-75.564
X74.75Y-92.564
X74.75Y-109.564
X74.75Y-126.564
X81.75Y-58.564
X81.75Y-75.564
X81.75Y-92.564
X81.75Y-109.564
X81.75Y-126.564
X92.75Y-58.564
X92.75Y-75.564
X92.75Y-92.564
X92.75Y-109.564
X92.75Y-126.564
X99.75Y-58.564
X99.75Y-75.564
X99.75Y-92.564
X99.75Y-109.564
X99.75Y-126.564
X110.75Y-58.564
X110.75Y-75.564
X110.75Y-92.564
X110.75Y-109.564
X110.75Y-126.564
X117.75Y-58.564
X117.75Y-75.564
X117.75Y-92.564
X117.75Y-109.564
X117.75Y-126.564
X128.75Y-58.564
X128.75Y-75.564
X128.75Y-92.564
X128.75Y-109.564
X128.75Y-126.564
X135.75Y-58.564
X135.75Y-75.564
X135.75Y-92.564
X135.75Y-109.564
X135.75Y-126.564
X146.75Y-58.564
X146.75Y-75.564
X146.75Y-92.564
X146.75Y-109.564
X146.75Y-126.564
X153.75Y-58.564
X153.75Y-75.564
X153.75Y-92.564
X153.75Y-109.564
X153.75Y-126.564
X164.75Y-58.564
X164.75Y-75.564
X164.75Y-92.564
X164.75Y-109.564
X164.75Y-126.564
X171.75Y-58.564
X171.75Y-75.564
X171.75Y-92.564
X171.75Y-109.564
X171.75Y-126.564
X182.75Y-58.564
X182.75Y-75.564
X182.75Y-92.564
X182.75Y-109.564
X182.75Y-126.564
X189.75Y-58.564
X189.75Y-75.564
X189.75Y-92.564
X189.75Y-109.564
X189.75Y-126.564
X200.75Y-58.564
X200.75Y-75.564
X200.75Y-92.564
X200.75Y-109.564
X200.75Y-126.564
X207.75Y-58.564
X207.75Y-75.564
X207.75Y-92.564
X207.75Y-109.564
X207.75Y-126.564
X218.75Y-58.564
X218.75Y-75.564
X218.75Y-92.564
X218.75Y-109.564
X218.75Y-126.564
X225.75Y-58.564
X225.75Y-75.564
X225.75Y-92.564
X225.75Y-109.564
X225.75Y-126.564
X236.75Y-58.564
X236.75Y-75.564
X236.75Y-92.564
X236.75Y-109.564
X236.75Y-126.564
X243.75Y-58.564
X243.75Y-75.564
X243.75Y-92.564
X243.75Y-109.564
X243.75Y-126.564
X254.75Y-58.564
X254.75Y-75.564
X254.75Y-92.564
X254.75Y-109.564
X254.75Y-126.564
T3
X51.25Y-58.564
X51.25Y-75.564
X51.25Y-92.564
X51.25Y-109.564
X51.25Y-126.564
X69.25Y-58.564
X69.25Y-75.564
X69.25Y-92.564
X69.25Y-109.564
X69.25Y-126.564
X87.25Y-58.564
X87.25Y-75.564
X87.25Y-92.564
X87.25Y-109.564
X87.25Y-126.564
X105.25Y-58.564
X105.25Y-75.564
X105.25Y-92.564
X105.25Y-109.564
X105.25Y-126.564
X123.25Y-58.564
X123.25Y-75.564
X123.25Y-92.564
X123.25Y-109.564
X123.25Y-126.564
X141.25Y-58.564
X141.25Y-75.564
X141.25Y-92.564
X141.25Y-109.564
X141.25Y-126.564
X159.25Y-58.564
X159.25Y-75.564
X159.25Y-92.564
X159.25Y-109.564
X159.25Y-126.564
X177.25Y-58.564
X177.25Y-75.564
X177.25Y-92.564
X177.25Y-109.564
X177.25Y-126.564
X195.25Y-58.564
X195.25Y-75.564
X195.25Y-92.564
X195.25Y-109.564
X195.25Y-126.564
X213.25Y-58.564
X213.25Y-75.564
X213.25Y-92.564
X213.25Y-109.564
X213.25Y-126.564
X231.25Y-58.564
X231.25Y-75.564
X231.25Y-92.564
X231.25Y-109.564
X231.25Y-126.564
X249.25Y-58.564
X249.25Y-75.564
X249.25Y-92.564
X249.25Y-109.564
X249.25Y-126.564
T4
X60.25Y-118.314
X60.5Y-66.814
X114.25Y-66.814
X114.25Y-118.064
X168.25Y-118.064
X168.5Y-66.814
X240.25Y-67.564
X240.25Y-118.064
T0
M30
