%TF.GenerationSoftware,KiCad,Pcbnew,7.0.9-7.0.9~ubuntu22.04.1*%
%TF.CreationDate,2023-12-21T23:36:55+01:00*%
%TF.ProjectId,basic60,62617369-6336-4302-9e6b-696361645f70,0.1*%
%TF.SameCoordinates,Original*%
%TF.FileFunction,Drillmap*%
%TF.FilePolarity,Positive*%
%FSLAX45Y45*%
G04 Gerber Fmt 4.5, Leading zero omitted, Abs format (unit mm)*
G04 Created by KiCad (PCBNEW 7.0.9-7.0.9~ubuntu22.04.1) date 2023-12-21 23:36:55*
%MOMM*%
%LPD*%
G01*
G04 APERTURE LIST*
%ADD10C,0.100000*%
%ADD11C,0.050000*%
%ADD12C,0.200000*%
%ADD13C,0.300000*%
G04 APERTURE END LIST*
D10*
X12015000Y-2690000D02*
X14624348Y-2690000D01*
X14924349Y-2990651D02*
G75*
G03*
X14624348Y-2690000I-299999J651D01*
G01*
D11*
X14825000Y-13506440D02*
G75*
G03*
X14925000Y-13406447I10J99990D01*
G01*
D10*
X18330000Y-2986779D02*
X18330000Y-4506447D01*
D11*
X15126250Y-10576174D02*
G75*
G03*
X15051248Y-10501270I-75000J-96D01*
G01*
D10*
X18329993Y-4506447D02*
G75*
G03*
X18830000Y-5006447I500007J7D01*
G01*
D11*
X11214746Y-5009746D02*
G75*
G03*
X11715000Y-4509746I261J499993D01*
G01*
X14825000Y-13506447D02*
X4725000Y-13506447D01*
X15126248Y-10576174D02*
X15129872Y-13406575D01*
X25825000Y-5506447D02*
X25825000Y-13006447D01*
X15129873Y-13406575D02*
G75*
G03*
X15229872Y-13506447I99997J125D01*
G01*
D10*
X15051248Y-10501270D02*
X15000000Y-10501270D01*
D11*
X25325000Y-13506450D02*
G75*
G03*
X25825000Y-13006447I0J500000D01*
G01*
X15047662Y-3842502D02*
G75*
G03*
X15122662Y-3767663I-3J75002D01*
G01*
X25825003Y-5506447D02*
G75*
G03*
X25325000Y-5006447I-500003J-3D01*
G01*
X14924348Y-2990651D02*
X14922663Y-3767337D01*
D10*
X15122540Y-4889959D02*
G75*
G03*
X15047541Y-4815000I-75000J-41D01*
G01*
D11*
X18330001Y-2986779D02*
G75*
G03*
X18029667Y-2686780I-300001J-1D01*
G01*
D10*
X15049959Y-9346447D02*
X14999959Y-9346447D01*
D11*
X4225000Y-5506447D02*
X4225000Y-13006447D01*
X14922660Y-3767337D02*
G75*
G03*
X14997663Y-3842500I75000J-163D01*
G01*
D10*
X15122541Y-4889959D02*
X15124959Y-9271405D01*
D11*
X14925000Y-13406447D02*
X14925000Y-10576270D01*
X4725000Y-5006447D02*
X11214746Y-5009746D01*
D10*
X15049959Y-9346449D02*
G75*
G03*
X15124959Y-9271405I1J74999D01*
G01*
D11*
X4225003Y-13006447D02*
G75*
G03*
X4725000Y-13506447I499997J-3D01*
G01*
D10*
X14924959Y-9271488D02*
X14922541Y-4890041D01*
D11*
X11715000Y-4509746D02*
X11715000Y-2990000D01*
D10*
X15000000Y-10501270D02*
G75*
G03*
X14925000Y-10576270I0J-75000D01*
G01*
D11*
X15047541Y-4815000D02*
X14997541Y-4815000D01*
D10*
X12015000Y-2690000D02*
G75*
G03*
X11715000Y-2990000I0J-300000D01*
G01*
D11*
X15424018Y-2689671D02*
G75*
G03*
X15124351Y-2989017I332J-299999D01*
G01*
X14997663Y-3842500D02*
X15047662Y-3842500D01*
X15122662Y-3767663D02*
X15124351Y-2989017D01*
D10*
X14924953Y-9271488D02*
G75*
G03*
X14999959Y-9346447I75007J48D01*
G01*
D11*
X4725000Y-5006447D02*
G75*
G03*
X4225000Y-5506447I0J-500000D01*
G01*
X25325000Y-13506447D02*
X15229872Y-13506447D01*
D10*
X14997541Y-4815001D02*
G75*
G03*
X14922541Y-4890041I-1J-74999D01*
G01*
D11*
X18029667Y-2686780D02*
X15424018Y-2689669D01*
D10*
X18830000Y-5006447D02*
X25325000Y-5006447D01*
D12*
D10*
X10380000Y-5564000D02*
X10420000Y-5604000D01*
X10420000Y-5564000D02*
X10380000Y-5604000D01*
X12022000Y-3065000D02*
X12062000Y-3105000D01*
X12062000Y-3065000D02*
X12022000Y-3105000D01*
X12022000Y-3301333D02*
X12062000Y-3341333D01*
X12062000Y-3301333D02*
X12022000Y-3341333D01*
X12022000Y-3537667D02*
X12062000Y-3577667D01*
X12062000Y-3537667D02*
X12022000Y-3577667D01*
X12022000Y-3774000D02*
X12062000Y-3814000D01*
X12062000Y-3774000D02*
X12022000Y-3814000D01*
X12068000Y-4321000D02*
X12108000Y-4361000D01*
X12108000Y-4321000D02*
X12068000Y-4361000D01*
X12702000Y-3781000D02*
X12742000Y-3821000D01*
X12742000Y-3781000D02*
X12702000Y-3821000D01*
X12740667Y-5063000D02*
X12780667Y-5103000D01*
X12780667Y-5063000D02*
X12740667Y-5103000D01*
X12816000Y-4450000D02*
X12856000Y-4490000D01*
X12856000Y-4450000D02*
X12816000Y-4490000D01*
X12977000Y-5063000D02*
X13017000Y-5103000D01*
X13017000Y-5063000D02*
X12977000Y-5103000D01*
X13212000Y-4235000D02*
X13252000Y-4275000D01*
X13252000Y-4235000D02*
X13212000Y-4275000D01*
X13360000Y-6526000D02*
X13400000Y-6566000D01*
X13400000Y-6526000D02*
X13360000Y-6566000D01*
X13374000Y-4143000D02*
X13414000Y-4183000D01*
X13414000Y-4143000D02*
X13374000Y-4183000D01*
X13476000Y-5408000D02*
X13516000Y-5448000D01*
X13516000Y-5408000D02*
X13476000Y-5448000D01*
X13700000Y-5461000D02*
X13740000Y-5501000D01*
X13740000Y-5461000D02*
X13700000Y-5501000D01*
X13785000Y-3934000D02*
X13825000Y-3974000D01*
X13825000Y-3934000D02*
X13785000Y-3974000D01*
X13785000Y-4170333D02*
X13825000Y-4210333D01*
X13825000Y-4170333D02*
X13785000Y-4210333D01*
X13785000Y-4406667D02*
X13825000Y-4446667D01*
X13825000Y-4406667D02*
X13785000Y-4446667D01*
X13785000Y-4643000D02*
X13825000Y-4683000D01*
X13825000Y-4643000D02*
X13785000Y-4683000D01*
X14991000Y-3954000D02*
X15031000Y-3994000D01*
X15031000Y-3954000D02*
X14991000Y-3994000D01*
X14991000Y-4190333D02*
X15031000Y-4230333D01*
X15031000Y-4190333D02*
X14991000Y-4230333D01*
X14991000Y-4426667D02*
X15031000Y-4466667D01*
X15031000Y-4426667D02*
X14991000Y-4466667D01*
X14991000Y-4663000D02*
X15031000Y-4703000D01*
X15031000Y-4663000D02*
X14991000Y-4703000D01*
X15001000Y-9540000D02*
X15041000Y-9580000D01*
X15041000Y-9540000D02*
X15001000Y-9580000D01*
X15001000Y-9776333D02*
X15041000Y-9816333D01*
X15041000Y-9776333D02*
X15001000Y-9816333D01*
X15001000Y-10012667D02*
X15041000Y-10052667D01*
X15041000Y-10012667D02*
X15001000Y-10052667D01*
X15001000Y-10249000D02*
X15041000Y-10289000D01*
X15041000Y-10249000D02*
X15001000Y-10289000D01*
X15325000Y-5011000D02*
X15365000Y-5051000D01*
X15365000Y-5011000D02*
X15325000Y-5051000D01*
X15359000Y-4636000D02*
X15399000Y-4676000D01*
X15399000Y-4636000D02*
X15359000Y-4676000D01*
X15534000Y-13314000D02*
X15574000Y-13354000D01*
X15574000Y-13314000D02*
X15534000Y-13354000D01*
X15711000Y-3651000D02*
X15751000Y-3691000D01*
X15751000Y-3651000D02*
X15711000Y-3691000D01*
X15724000Y-4349000D02*
X15764000Y-4389000D01*
X15764000Y-4349000D02*
X15724000Y-4389000D01*
X15928000Y-4895000D02*
X15968000Y-4935000D01*
X15968000Y-4895000D02*
X15928000Y-4935000D01*
X15950000Y-3930000D02*
X15990000Y-3970000D01*
X15990000Y-3930000D02*
X15950000Y-3970000D01*
X16202000Y-7812000D02*
X16242000Y-7852000D01*
X16242000Y-7812000D02*
X16202000Y-7852000D01*
X16214000Y-6246000D02*
X16254000Y-6286000D01*
X16254000Y-6246000D02*
X16214000Y-6286000D01*
X16229000Y-3903000D02*
X16269000Y-3943000D01*
X16269000Y-3903000D02*
X16229000Y-3943000D01*
X16606000Y-5051000D02*
X16646000Y-5091000D01*
X16646000Y-5051000D02*
X16606000Y-5091000D01*
X16776000Y-3991000D02*
X16816000Y-4031000D01*
X16816000Y-3991000D02*
X16776000Y-4031000D01*
X16802000Y-5027000D02*
X16842000Y-5067000D01*
X16842000Y-5027000D02*
X16802000Y-5067000D01*
X17032000Y-4995000D02*
X17072000Y-5035000D01*
X17072000Y-4995000D02*
X17032000Y-5035000D01*
X17047000Y-3893000D02*
X17087000Y-3933000D01*
X17087000Y-3893000D02*
X17047000Y-3933000D01*
X17137000Y-5601000D02*
X17177000Y-5641000D01*
X17177000Y-5601000D02*
X17137000Y-5641000D01*
X17254000Y-3400000D02*
X17294000Y-3440000D01*
X17294000Y-3400000D02*
X17254000Y-3440000D01*
X17393000Y-4381000D02*
X17433000Y-4421000D01*
X17433000Y-4381000D02*
X17393000Y-4421000D01*
X17466000Y-4477000D02*
X17506000Y-4517000D01*
X17506000Y-4477000D02*
X17466000Y-4517000D01*
X17601000Y-4009000D02*
X17641000Y-4049000D01*
X17641000Y-4009000D02*
X17601000Y-4049000D01*
X17972000Y-3490000D02*
X18012000Y-3530000D01*
X18012000Y-3490000D02*
X17972000Y-3530000D01*
X17977000Y-4176000D02*
X18017000Y-4216000D01*
X18017000Y-4176000D02*
X17977000Y-4216000D01*
X18100000Y-3568000D02*
X18140000Y-3608000D01*
X18140000Y-3568000D02*
X18100000Y-3608000D01*
X18113000Y-3275000D02*
X18153000Y-3315000D01*
X18153000Y-3275000D02*
X18113000Y-3315000D01*
X18168000Y-3123000D02*
X18208000Y-3163000D01*
X18208000Y-3123000D02*
X18168000Y-3163000D01*
D13*
X5275000Y-5261447D02*
G75*
G03*
X5275000Y-5261447I-150000J0D01*
G01*
X5275000Y-6961447D02*
G75*
G03*
X5275000Y-6961447I-150000J0D01*
G01*
X5275000Y-8661447D02*
G75*
G03*
X5275000Y-8661447I-150000J0D01*
G01*
X5275000Y-10361447D02*
G75*
G03*
X5275000Y-10361447I-150000J0D01*
G01*
X5275000Y-12061447D02*
G75*
G03*
X5275000Y-12061447I-150000J0D01*
G01*
X5775000Y-5481447D02*
G75*
G03*
X5775000Y-5481447I-150000J0D01*
G01*
X5775000Y-7181447D02*
G75*
G03*
X5775000Y-7181447I-150000J0D01*
G01*
X5775000Y-8881447D02*
G75*
G03*
X5775000Y-8881447I-150000J0D01*
G01*
X5775000Y-10581447D02*
G75*
G03*
X5775000Y-10581447I-150000J0D01*
G01*
X5775000Y-12281447D02*
G75*
G03*
X5775000Y-12281447I-150000J0D01*
G01*
X7075000Y-5261447D02*
G75*
G03*
X7075000Y-5261447I-150000J0D01*
G01*
X7075000Y-6961447D02*
G75*
G03*
X7075000Y-6961447I-150000J0D01*
G01*
X7075000Y-8661447D02*
G75*
G03*
X7075000Y-8661447I-150000J0D01*
G01*
X7075000Y-10361447D02*
G75*
G03*
X7075000Y-10361447I-150000J0D01*
G01*
X7075000Y-12061447D02*
G75*
G03*
X7075000Y-12061447I-150000J0D01*
G01*
X7575000Y-5481447D02*
G75*
G03*
X7575000Y-5481447I-150000J0D01*
G01*
X7575000Y-7181447D02*
G75*
G03*
X7575000Y-7181447I-150000J0D01*
G01*
X7575000Y-8881447D02*
G75*
G03*
X7575000Y-8881447I-150000J0D01*
G01*
X7575000Y-10581447D02*
G75*
G03*
X7575000Y-10581447I-150000J0D01*
G01*
X7575000Y-12281447D02*
G75*
G03*
X7575000Y-12281447I-150000J0D01*
G01*
X8875000Y-5261447D02*
G75*
G03*
X8875000Y-5261447I-150000J0D01*
G01*
X8875000Y-6961447D02*
G75*
G03*
X8875000Y-6961447I-150000J0D01*
G01*
X8875000Y-8661447D02*
G75*
G03*
X8875000Y-8661447I-150000J0D01*
G01*
X8875000Y-10361447D02*
G75*
G03*
X8875000Y-10361447I-150000J0D01*
G01*
X8875000Y-12061447D02*
G75*
G03*
X8875000Y-12061447I-150000J0D01*
G01*
X9375000Y-5481447D02*
G75*
G03*
X9375000Y-5481447I-150000J0D01*
G01*
X9375000Y-7181447D02*
G75*
G03*
X9375000Y-7181447I-150000J0D01*
G01*
X9375000Y-8881447D02*
G75*
G03*
X9375000Y-8881447I-150000J0D01*
G01*
X9375000Y-10581447D02*
G75*
G03*
X9375000Y-10581447I-150000J0D01*
G01*
X9375000Y-12281447D02*
G75*
G03*
X9375000Y-12281447I-150000J0D01*
G01*
X10675000Y-5261447D02*
G75*
G03*
X10675000Y-5261447I-150000J0D01*
G01*
X10675000Y-6961447D02*
G75*
G03*
X10675000Y-6961447I-150000J0D01*
G01*
X10675000Y-8661447D02*
G75*
G03*
X10675000Y-8661447I-150000J0D01*
G01*
X10675000Y-10361447D02*
G75*
G03*
X10675000Y-10361447I-150000J0D01*
G01*
X10675000Y-12061447D02*
G75*
G03*
X10675000Y-12061447I-150000J0D01*
G01*
X11175000Y-5481447D02*
G75*
G03*
X11175000Y-5481447I-150000J0D01*
G01*
X11175000Y-7181447D02*
G75*
G03*
X11175000Y-7181447I-150000J0D01*
G01*
X11175000Y-8881447D02*
G75*
G03*
X11175000Y-8881447I-150000J0D01*
G01*
X11175000Y-10581447D02*
G75*
G03*
X11175000Y-10581447I-150000J0D01*
G01*
X11175000Y-12281447D02*
G75*
G03*
X11175000Y-12281447I-150000J0D01*
G01*
X12475000Y-5261447D02*
G75*
G03*
X12475000Y-5261447I-150000J0D01*
G01*
X12475000Y-6961447D02*
G75*
G03*
X12475000Y-6961447I-150000J0D01*
G01*
X12475000Y-8661447D02*
G75*
G03*
X12475000Y-8661447I-150000J0D01*
G01*
X12475000Y-10361447D02*
G75*
G03*
X12475000Y-10361447I-150000J0D01*
G01*
X12475000Y-12061447D02*
G75*
G03*
X12475000Y-12061447I-150000J0D01*
G01*
X12975000Y-5481447D02*
G75*
G03*
X12975000Y-5481447I-150000J0D01*
G01*
X12975000Y-7181447D02*
G75*
G03*
X12975000Y-7181447I-150000J0D01*
G01*
X12975000Y-8881447D02*
G75*
G03*
X12975000Y-8881447I-150000J0D01*
G01*
X12975000Y-10581447D02*
G75*
G03*
X12975000Y-10581447I-150000J0D01*
G01*
X12975000Y-12281447D02*
G75*
G03*
X12975000Y-12281447I-150000J0D01*
G01*
X14275000Y-5261447D02*
G75*
G03*
X14275000Y-5261447I-150000J0D01*
G01*
X14275000Y-6961447D02*
G75*
G03*
X14275000Y-6961447I-150000J0D01*
G01*
X14275000Y-8661447D02*
G75*
G03*
X14275000Y-8661447I-150000J0D01*
G01*
X14275000Y-10361447D02*
G75*
G03*
X14275000Y-10361447I-150000J0D01*
G01*
X14275000Y-12061447D02*
G75*
G03*
X14275000Y-12061447I-150000J0D01*
G01*
X14775000Y-5481447D02*
G75*
G03*
X14775000Y-5481447I-150000J0D01*
G01*
X14775000Y-7181447D02*
G75*
G03*
X14775000Y-7181447I-150000J0D01*
G01*
X14775000Y-8881447D02*
G75*
G03*
X14775000Y-8881447I-150000J0D01*
G01*
X14775000Y-10581447D02*
G75*
G03*
X14775000Y-10581447I-150000J0D01*
G01*
X14775000Y-12281447D02*
G75*
G03*
X14775000Y-12281447I-150000J0D01*
G01*
X16075000Y-5261447D02*
G75*
G03*
X16075000Y-5261447I-150000J0D01*
G01*
X16075000Y-6961447D02*
G75*
G03*
X16075000Y-6961447I-150000J0D01*
G01*
X16075000Y-8661447D02*
G75*
G03*
X16075000Y-8661447I-150000J0D01*
G01*
X16075000Y-10361447D02*
G75*
G03*
X16075000Y-10361447I-150000J0D01*
G01*
X16075000Y-12061447D02*
G75*
G03*
X16075000Y-12061447I-150000J0D01*
G01*
X16575000Y-5481447D02*
G75*
G03*
X16575000Y-5481447I-150000J0D01*
G01*
X16575000Y-7181447D02*
G75*
G03*
X16575000Y-7181447I-150000J0D01*
G01*
X16575000Y-8881447D02*
G75*
G03*
X16575000Y-8881447I-150000J0D01*
G01*
X16575000Y-10581447D02*
G75*
G03*
X16575000Y-10581447I-150000J0D01*
G01*
X16575000Y-12281447D02*
G75*
G03*
X16575000Y-12281447I-150000J0D01*
G01*
X17875000Y-5261447D02*
G75*
G03*
X17875000Y-5261447I-150000J0D01*
G01*
X17875000Y-6961447D02*
G75*
G03*
X17875000Y-6961447I-150000J0D01*
G01*
X17875000Y-8661447D02*
G75*
G03*
X17875000Y-8661447I-150000J0D01*
G01*
X17875000Y-10361447D02*
G75*
G03*
X17875000Y-10361447I-150000J0D01*
G01*
X17875000Y-12061447D02*
G75*
G03*
X17875000Y-12061447I-150000J0D01*
G01*
X18375000Y-5481447D02*
G75*
G03*
X18375000Y-5481447I-150000J0D01*
G01*
X18375000Y-7181447D02*
G75*
G03*
X18375000Y-7181447I-150000J0D01*
G01*
X18375000Y-8881447D02*
G75*
G03*
X18375000Y-8881447I-150000J0D01*
G01*
X18375000Y-10581447D02*
G75*
G03*
X18375000Y-10581447I-150000J0D01*
G01*
X18375000Y-12281447D02*
G75*
G03*
X18375000Y-12281447I-150000J0D01*
G01*
X19675000Y-5261447D02*
G75*
G03*
X19675000Y-5261447I-150000J0D01*
G01*
X19675000Y-6961447D02*
G75*
G03*
X19675000Y-6961447I-150000J0D01*
G01*
X19675000Y-8661447D02*
G75*
G03*
X19675000Y-8661447I-150000J0D01*
G01*
X19675000Y-10361447D02*
G75*
G03*
X19675000Y-10361447I-150000J0D01*
G01*
X19675000Y-12061447D02*
G75*
G03*
X19675000Y-12061447I-150000J0D01*
G01*
X20175000Y-5481447D02*
G75*
G03*
X20175000Y-5481447I-150000J0D01*
G01*
X20175000Y-7181447D02*
G75*
G03*
X20175000Y-7181447I-150000J0D01*
G01*
X20175000Y-8881447D02*
G75*
G03*
X20175000Y-8881447I-150000J0D01*
G01*
X20175000Y-10581447D02*
G75*
G03*
X20175000Y-10581447I-150000J0D01*
G01*
X20175000Y-12281447D02*
G75*
G03*
X20175000Y-12281447I-150000J0D01*
G01*
X21475000Y-5261447D02*
G75*
G03*
X21475000Y-5261447I-150000J0D01*
G01*
X21475000Y-6961447D02*
G75*
G03*
X21475000Y-6961447I-150000J0D01*
G01*
X21475000Y-8661447D02*
G75*
G03*
X21475000Y-8661447I-150000J0D01*
G01*
X21475000Y-10361447D02*
G75*
G03*
X21475000Y-10361447I-150000J0D01*
G01*
X21475000Y-12061447D02*
G75*
G03*
X21475000Y-12061447I-150000J0D01*
G01*
X21975000Y-5481447D02*
G75*
G03*
X21975000Y-5481447I-150000J0D01*
G01*
X21975000Y-7181447D02*
G75*
G03*
X21975000Y-7181447I-150000J0D01*
G01*
X21975000Y-8881447D02*
G75*
G03*
X21975000Y-8881447I-150000J0D01*
G01*
X21975000Y-10581447D02*
G75*
G03*
X21975000Y-10581447I-150000J0D01*
G01*
X21975000Y-12281447D02*
G75*
G03*
X21975000Y-12281447I-150000J0D01*
G01*
X23275000Y-5261447D02*
G75*
G03*
X23275000Y-5261447I-150000J0D01*
G01*
X23275000Y-6961447D02*
G75*
G03*
X23275000Y-6961447I-150000J0D01*
G01*
X23275000Y-8661447D02*
G75*
G03*
X23275000Y-8661447I-150000J0D01*
G01*
X23275000Y-10361447D02*
G75*
G03*
X23275000Y-10361447I-150000J0D01*
G01*
X23275000Y-12061447D02*
G75*
G03*
X23275000Y-12061447I-150000J0D01*
G01*
X23775000Y-5481447D02*
G75*
G03*
X23775000Y-5481447I-150000J0D01*
G01*
X23775000Y-7181447D02*
G75*
G03*
X23775000Y-7181447I-150000J0D01*
G01*
X23775000Y-8881447D02*
G75*
G03*
X23775000Y-8881447I-150000J0D01*
G01*
X23775000Y-10581447D02*
G75*
G03*
X23775000Y-10581447I-150000J0D01*
G01*
X23775000Y-12281447D02*
G75*
G03*
X23775000Y-12281447I-150000J0D01*
G01*
X25075000Y-5261447D02*
G75*
G03*
X25075000Y-5261447I-150000J0D01*
G01*
X25075000Y-6961447D02*
G75*
G03*
X25075000Y-6961447I-150000J0D01*
G01*
X25075000Y-8661447D02*
G75*
G03*
X25075000Y-8661447I-150000J0D01*
G01*
X25075000Y-10361447D02*
G75*
G03*
X25075000Y-10361447I-150000J0D01*
G01*
X25075000Y-12061447D02*
G75*
G03*
X25075000Y-12061447I-150000J0D01*
G01*
X25575000Y-5481447D02*
G75*
G03*
X25575000Y-5481447I-150000J0D01*
G01*
X25575000Y-7181447D02*
G75*
G03*
X25575000Y-7181447I-150000J0D01*
G01*
X25575000Y-8881447D02*
G75*
G03*
X25575000Y-8881447I-150000J0D01*
G01*
X25575000Y-10581447D02*
G75*
G03*
X25575000Y-10581447I-150000J0D01*
G01*
X25575000Y-12281447D02*
G75*
G03*
X25575000Y-12281447I-150000J0D01*
G01*
D12*
X4483277Y-13820430D02*
X4483277Y-13620430D01*
X4483277Y-13620430D02*
X4530896Y-13620430D01*
X4530896Y-13620430D02*
X4559467Y-13629954D01*
X4559467Y-13629954D02*
X4578515Y-13649002D01*
X4578515Y-13649002D02*
X4588039Y-13668049D01*
X4588039Y-13668049D02*
X4597563Y-13706145D01*
X4597563Y-13706145D02*
X4597563Y-13734716D01*
X4597563Y-13734716D02*
X4588039Y-13772811D01*
X4588039Y-13772811D02*
X4578515Y-13791859D01*
X4578515Y-13791859D02*
X4559467Y-13810907D01*
X4559467Y-13810907D02*
X4530896Y-13820430D01*
X4530896Y-13820430D02*
X4483277Y-13820430D01*
X4683277Y-13820430D02*
X4683277Y-13687097D01*
X4683277Y-13725192D02*
X4692801Y-13706145D01*
X4692801Y-13706145D02*
X4702324Y-13696621D01*
X4702324Y-13696621D02*
X4721372Y-13687097D01*
X4721372Y-13687097D02*
X4740420Y-13687097D01*
X4807086Y-13820430D02*
X4807086Y-13687097D01*
X4807086Y-13620430D02*
X4797563Y-13629954D01*
X4797563Y-13629954D02*
X4807086Y-13639478D01*
X4807086Y-13639478D02*
X4816610Y-13629954D01*
X4816610Y-13629954D02*
X4807086Y-13620430D01*
X4807086Y-13620430D02*
X4807086Y-13639478D01*
X4930896Y-13820430D02*
X4911848Y-13810907D01*
X4911848Y-13810907D02*
X4902324Y-13791859D01*
X4902324Y-13791859D02*
X4902324Y-13620430D01*
X5035658Y-13820430D02*
X5016610Y-13810907D01*
X5016610Y-13810907D02*
X5007086Y-13791859D01*
X5007086Y-13791859D02*
X5007086Y-13620430D01*
X5264229Y-13820430D02*
X5264229Y-13620430D01*
X5264229Y-13620430D02*
X5330896Y-13763287D01*
X5330896Y-13763287D02*
X5397563Y-13620430D01*
X5397563Y-13620430D02*
X5397563Y-13820430D01*
X5578515Y-13820430D02*
X5578515Y-13715668D01*
X5578515Y-13715668D02*
X5568991Y-13696621D01*
X5568991Y-13696621D02*
X5549944Y-13687097D01*
X5549944Y-13687097D02*
X5511848Y-13687097D01*
X5511848Y-13687097D02*
X5492801Y-13696621D01*
X5578515Y-13810907D02*
X5559467Y-13820430D01*
X5559467Y-13820430D02*
X5511848Y-13820430D01*
X5511848Y-13820430D02*
X5492801Y-13810907D01*
X5492801Y-13810907D02*
X5483277Y-13791859D01*
X5483277Y-13791859D02*
X5483277Y-13772811D01*
X5483277Y-13772811D02*
X5492801Y-13753764D01*
X5492801Y-13753764D02*
X5511848Y-13744240D01*
X5511848Y-13744240D02*
X5559467Y-13744240D01*
X5559467Y-13744240D02*
X5578515Y-13734716D01*
X5673753Y-13687097D02*
X5673753Y-13887097D01*
X5673753Y-13696621D02*
X5692801Y-13687097D01*
X5692801Y-13687097D02*
X5730896Y-13687097D01*
X5730896Y-13687097D02*
X5749943Y-13696621D01*
X5749943Y-13696621D02*
X5759467Y-13706145D01*
X5759467Y-13706145D02*
X5768991Y-13725192D01*
X5768991Y-13725192D02*
X5768991Y-13782335D01*
X5768991Y-13782335D02*
X5759467Y-13801383D01*
X5759467Y-13801383D02*
X5749943Y-13810907D01*
X5749943Y-13810907D02*
X5730896Y-13820430D01*
X5730896Y-13820430D02*
X5692801Y-13820430D01*
X5692801Y-13820430D02*
X5673753Y-13810907D01*
X5854705Y-13801383D02*
X5864229Y-13810907D01*
X5864229Y-13810907D02*
X5854705Y-13820430D01*
X5854705Y-13820430D02*
X5845182Y-13810907D01*
X5845182Y-13810907D02*
X5854705Y-13801383D01*
X5854705Y-13801383D02*
X5854705Y-13820430D01*
X5854705Y-13696621D02*
X5864229Y-13706145D01*
X5864229Y-13706145D02*
X5854705Y-13715668D01*
X5854705Y-13715668D02*
X5845182Y-13706145D01*
X5845182Y-13706145D02*
X5854705Y-13696621D01*
X5854705Y-13696621D02*
X5854705Y-13715668D01*
D10*
X4182500Y-14128947D02*
X4222500Y-14168947D01*
X4222500Y-14128947D02*
X4182500Y-14168947D01*
D12*
X4521372Y-14040430D02*
X4540420Y-14040430D01*
X4540420Y-14040430D02*
X4559467Y-14049954D01*
X4559467Y-14049954D02*
X4568991Y-14059478D01*
X4568991Y-14059478D02*
X4578515Y-14078526D01*
X4578515Y-14078526D02*
X4588039Y-14116621D01*
X4588039Y-14116621D02*
X4588039Y-14164240D01*
X4588039Y-14164240D02*
X4578515Y-14202335D01*
X4578515Y-14202335D02*
X4568991Y-14221383D01*
X4568991Y-14221383D02*
X4559467Y-14230907D01*
X4559467Y-14230907D02*
X4540420Y-14240430D01*
X4540420Y-14240430D02*
X4521372Y-14240430D01*
X4521372Y-14240430D02*
X4502324Y-14230907D01*
X4502324Y-14230907D02*
X4492801Y-14221383D01*
X4492801Y-14221383D02*
X4483277Y-14202335D01*
X4483277Y-14202335D02*
X4473753Y-14164240D01*
X4473753Y-14164240D02*
X4473753Y-14116621D01*
X4473753Y-14116621D02*
X4483277Y-14078526D01*
X4483277Y-14078526D02*
X4492801Y-14059478D01*
X4492801Y-14059478D02*
X4502324Y-14049954D01*
X4502324Y-14049954D02*
X4521372Y-14040430D01*
X4673753Y-14221383D02*
X4683277Y-14230907D01*
X4683277Y-14230907D02*
X4673753Y-14240430D01*
X4673753Y-14240430D02*
X4664229Y-14230907D01*
X4664229Y-14230907D02*
X4673753Y-14221383D01*
X4673753Y-14221383D02*
X4673753Y-14240430D01*
X4854705Y-14107097D02*
X4854705Y-14240430D01*
X4807086Y-14030907D02*
X4759467Y-14173764D01*
X4759467Y-14173764D02*
X4883277Y-14173764D01*
X4997563Y-14040430D02*
X5016610Y-14040430D01*
X5016610Y-14040430D02*
X5035658Y-14049954D01*
X5035658Y-14049954D02*
X5045182Y-14059478D01*
X5045182Y-14059478D02*
X5054705Y-14078526D01*
X5054705Y-14078526D02*
X5064229Y-14116621D01*
X5064229Y-14116621D02*
X5064229Y-14164240D01*
X5064229Y-14164240D02*
X5054705Y-14202335D01*
X5054705Y-14202335D02*
X5045182Y-14221383D01*
X5045182Y-14221383D02*
X5035658Y-14230907D01*
X5035658Y-14230907D02*
X5016610Y-14240430D01*
X5016610Y-14240430D02*
X4997563Y-14240430D01*
X4997563Y-14240430D02*
X4978515Y-14230907D01*
X4978515Y-14230907D02*
X4968991Y-14221383D01*
X4968991Y-14221383D02*
X4959467Y-14202335D01*
X4959467Y-14202335D02*
X4949944Y-14164240D01*
X4949944Y-14164240D02*
X4949944Y-14116621D01*
X4949944Y-14116621D02*
X4959467Y-14078526D01*
X4959467Y-14078526D02*
X4968991Y-14059478D01*
X4968991Y-14059478D02*
X4978515Y-14049954D01*
X4978515Y-14049954D02*
X4997563Y-14040430D01*
X5188039Y-14040430D02*
X5207086Y-14040430D01*
X5207086Y-14040430D02*
X5226134Y-14049954D01*
X5226134Y-14049954D02*
X5235658Y-14059478D01*
X5235658Y-14059478D02*
X5245182Y-14078526D01*
X5245182Y-14078526D02*
X5254705Y-14116621D01*
X5254705Y-14116621D02*
X5254705Y-14164240D01*
X5254705Y-14164240D02*
X5245182Y-14202335D01*
X5245182Y-14202335D02*
X5235658Y-14221383D01*
X5235658Y-14221383D02*
X5226134Y-14230907D01*
X5226134Y-14230907D02*
X5207086Y-14240430D01*
X5207086Y-14240430D02*
X5188039Y-14240430D01*
X5188039Y-14240430D02*
X5168991Y-14230907D01*
X5168991Y-14230907D02*
X5159467Y-14221383D01*
X5159467Y-14221383D02*
X5149944Y-14202335D01*
X5149944Y-14202335D02*
X5140420Y-14164240D01*
X5140420Y-14164240D02*
X5140420Y-14116621D01*
X5140420Y-14116621D02*
X5149944Y-14078526D01*
X5149944Y-14078526D02*
X5159467Y-14059478D01*
X5159467Y-14059478D02*
X5168991Y-14049954D01*
X5168991Y-14049954D02*
X5188039Y-14040430D01*
X5340420Y-14240430D02*
X5340420Y-14107097D01*
X5340420Y-14126145D02*
X5349944Y-14116621D01*
X5349944Y-14116621D02*
X5368991Y-14107097D01*
X5368991Y-14107097D02*
X5397563Y-14107097D01*
X5397563Y-14107097D02*
X5416610Y-14116621D01*
X5416610Y-14116621D02*
X5426134Y-14135668D01*
X5426134Y-14135668D02*
X5426134Y-14240430D01*
X5426134Y-14135668D02*
X5435658Y-14116621D01*
X5435658Y-14116621D02*
X5454705Y-14107097D01*
X5454705Y-14107097D02*
X5483277Y-14107097D01*
X5483277Y-14107097D02*
X5502325Y-14116621D01*
X5502325Y-14116621D02*
X5511848Y-14135668D01*
X5511848Y-14135668D02*
X5511848Y-14240430D01*
X5607086Y-14240430D02*
X5607086Y-14107097D01*
X5607086Y-14126145D02*
X5616610Y-14116621D01*
X5616610Y-14116621D02*
X5635658Y-14107097D01*
X5635658Y-14107097D02*
X5664229Y-14107097D01*
X5664229Y-14107097D02*
X5683277Y-14116621D01*
X5683277Y-14116621D02*
X5692801Y-14135668D01*
X5692801Y-14135668D02*
X5692801Y-14240430D01*
X5692801Y-14135668D02*
X5702324Y-14116621D01*
X5702324Y-14116621D02*
X5721372Y-14107097D01*
X5721372Y-14107097D02*
X5749943Y-14107097D01*
X5749943Y-14107097D02*
X5768991Y-14116621D01*
X5768991Y-14116621D02*
X5778515Y-14135668D01*
X5778515Y-14135668D02*
X5778515Y-14240430D01*
X6168991Y-14030907D02*
X5997563Y-14288049D01*
X6426134Y-14040430D02*
X6445182Y-14040430D01*
X6445182Y-14040430D02*
X6464229Y-14049954D01*
X6464229Y-14049954D02*
X6473753Y-14059478D01*
X6473753Y-14059478D02*
X6483277Y-14078526D01*
X6483277Y-14078526D02*
X6492801Y-14116621D01*
X6492801Y-14116621D02*
X6492801Y-14164240D01*
X6492801Y-14164240D02*
X6483277Y-14202335D01*
X6483277Y-14202335D02*
X6473753Y-14221383D01*
X6473753Y-14221383D02*
X6464229Y-14230907D01*
X6464229Y-14230907D02*
X6445182Y-14240430D01*
X6445182Y-14240430D02*
X6426134Y-14240430D01*
X6426134Y-14240430D02*
X6407086Y-14230907D01*
X6407086Y-14230907D02*
X6397563Y-14221383D01*
X6397563Y-14221383D02*
X6388039Y-14202335D01*
X6388039Y-14202335D02*
X6378515Y-14164240D01*
X6378515Y-14164240D02*
X6378515Y-14116621D01*
X6378515Y-14116621D02*
X6388039Y-14078526D01*
X6388039Y-14078526D02*
X6397563Y-14059478D01*
X6397563Y-14059478D02*
X6407086Y-14049954D01*
X6407086Y-14049954D02*
X6426134Y-14040430D01*
X6578515Y-14221383D02*
X6588039Y-14230907D01*
X6588039Y-14230907D02*
X6578515Y-14240430D01*
X6578515Y-14240430D02*
X6568991Y-14230907D01*
X6568991Y-14230907D02*
X6578515Y-14221383D01*
X6578515Y-14221383D02*
X6578515Y-14240430D01*
X6711848Y-14040430D02*
X6730896Y-14040430D01*
X6730896Y-14040430D02*
X6749944Y-14049954D01*
X6749944Y-14049954D02*
X6759467Y-14059478D01*
X6759467Y-14059478D02*
X6768991Y-14078526D01*
X6768991Y-14078526D02*
X6778515Y-14116621D01*
X6778515Y-14116621D02*
X6778515Y-14164240D01*
X6778515Y-14164240D02*
X6768991Y-14202335D01*
X6768991Y-14202335D02*
X6759467Y-14221383D01*
X6759467Y-14221383D02*
X6749944Y-14230907D01*
X6749944Y-14230907D02*
X6730896Y-14240430D01*
X6730896Y-14240430D02*
X6711848Y-14240430D01*
X6711848Y-14240430D02*
X6692801Y-14230907D01*
X6692801Y-14230907D02*
X6683277Y-14221383D01*
X6683277Y-14221383D02*
X6673753Y-14202335D01*
X6673753Y-14202335D02*
X6664229Y-14164240D01*
X6664229Y-14164240D02*
X6664229Y-14116621D01*
X6664229Y-14116621D02*
X6673753Y-14078526D01*
X6673753Y-14078526D02*
X6683277Y-14059478D01*
X6683277Y-14059478D02*
X6692801Y-14049954D01*
X6692801Y-14049954D02*
X6711848Y-14040430D01*
X6968991Y-14240430D02*
X6854706Y-14240430D01*
X6911848Y-14240430D02*
X6911848Y-14040430D01*
X6911848Y-14040430D02*
X6892801Y-14069002D01*
X6892801Y-14069002D02*
X6873753Y-14088049D01*
X6873753Y-14088049D02*
X6854706Y-14097573D01*
X7149944Y-14040430D02*
X7054706Y-14040430D01*
X7054706Y-14040430D02*
X7045182Y-14135668D01*
X7045182Y-14135668D02*
X7054706Y-14126145D01*
X7054706Y-14126145D02*
X7073753Y-14116621D01*
X7073753Y-14116621D02*
X7121372Y-14116621D01*
X7121372Y-14116621D02*
X7140420Y-14126145D01*
X7140420Y-14126145D02*
X7149944Y-14135668D01*
X7149944Y-14135668D02*
X7159467Y-14154716D01*
X7159467Y-14154716D02*
X7159467Y-14202335D01*
X7159467Y-14202335D02*
X7149944Y-14221383D01*
X7149944Y-14221383D02*
X7140420Y-14230907D01*
X7140420Y-14230907D02*
X7121372Y-14240430D01*
X7121372Y-14240430D02*
X7073753Y-14240430D01*
X7073753Y-14240430D02*
X7054706Y-14230907D01*
X7054706Y-14230907D02*
X7045182Y-14221383D01*
X7226134Y-14040430D02*
X7359467Y-14040430D01*
X7359467Y-14040430D02*
X7273753Y-14240430D01*
X7426134Y-14040430D02*
X7426134Y-14078526D01*
X7502325Y-14040430D02*
X7502325Y-14078526D01*
X7797563Y-14316621D02*
X7788039Y-14307097D01*
X7788039Y-14307097D02*
X7768991Y-14278526D01*
X7768991Y-14278526D02*
X7759468Y-14259478D01*
X7759468Y-14259478D02*
X7749944Y-14230907D01*
X7749944Y-14230907D02*
X7740420Y-14183287D01*
X7740420Y-14183287D02*
X7740420Y-14145192D01*
X7740420Y-14145192D02*
X7749944Y-14097573D01*
X7749944Y-14097573D02*
X7759468Y-14069002D01*
X7759468Y-14069002D02*
X7768991Y-14049954D01*
X7768991Y-14049954D02*
X7788039Y-14021383D01*
X7788039Y-14021383D02*
X7797563Y-14011859D01*
X7968991Y-14040430D02*
X7873753Y-14040430D01*
X7873753Y-14040430D02*
X7864229Y-14135668D01*
X7864229Y-14135668D02*
X7873753Y-14126145D01*
X7873753Y-14126145D02*
X7892801Y-14116621D01*
X7892801Y-14116621D02*
X7940420Y-14116621D01*
X7940420Y-14116621D02*
X7959468Y-14126145D01*
X7959468Y-14126145D02*
X7968991Y-14135668D01*
X7968991Y-14135668D02*
X7978515Y-14154716D01*
X7978515Y-14154716D02*
X7978515Y-14202335D01*
X7978515Y-14202335D02*
X7968991Y-14221383D01*
X7968991Y-14221383D02*
X7959468Y-14230907D01*
X7959468Y-14230907D02*
X7940420Y-14240430D01*
X7940420Y-14240430D02*
X7892801Y-14240430D01*
X7892801Y-14240430D02*
X7873753Y-14230907D01*
X7873753Y-14230907D02*
X7864229Y-14221383D01*
X8054706Y-14059478D02*
X8064229Y-14049954D01*
X8064229Y-14049954D02*
X8083277Y-14040430D01*
X8083277Y-14040430D02*
X8130896Y-14040430D01*
X8130896Y-14040430D02*
X8149944Y-14049954D01*
X8149944Y-14049954D02*
X8159468Y-14059478D01*
X8159468Y-14059478D02*
X8168991Y-14078526D01*
X8168991Y-14078526D02*
X8168991Y-14097573D01*
X8168991Y-14097573D02*
X8159468Y-14126145D01*
X8159468Y-14126145D02*
X8045182Y-14240430D01*
X8045182Y-14240430D02*
X8168991Y-14240430D01*
X8407087Y-14240430D02*
X8407087Y-14040430D01*
X8492801Y-14240430D02*
X8492801Y-14135668D01*
X8492801Y-14135668D02*
X8483277Y-14116621D01*
X8483277Y-14116621D02*
X8464230Y-14107097D01*
X8464230Y-14107097D02*
X8435658Y-14107097D01*
X8435658Y-14107097D02*
X8416611Y-14116621D01*
X8416611Y-14116621D02*
X8407087Y-14126145D01*
X8616611Y-14240430D02*
X8597563Y-14230907D01*
X8597563Y-14230907D02*
X8588039Y-14221383D01*
X8588039Y-14221383D02*
X8578515Y-14202335D01*
X8578515Y-14202335D02*
X8578515Y-14145192D01*
X8578515Y-14145192D02*
X8588039Y-14126145D01*
X8588039Y-14126145D02*
X8597563Y-14116621D01*
X8597563Y-14116621D02*
X8616611Y-14107097D01*
X8616611Y-14107097D02*
X8645182Y-14107097D01*
X8645182Y-14107097D02*
X8664230Y-14116621D01*
X8664230Y-14116621D02*
X8673753Y-14126145D01*
X8673753Y-14126145D02*
X8683277Y-14145192D01*
X8683277Y-14145192D02*
X8683277Y-14202335D01*
X8683277Y-14202335D02*
X8673753Y-14221383D01*
X8673753Y-14221383D02*
X8664230Y-14230907D01*
X8664230Y-14230907D02*
X8645182Y-14240430D01*
X8645182Y-14240430D02*
X8616611Y-14240430D01*
X8797563Y-14240430D02*
X8778515Y-14230907D01*
X8778515Y-14230907D02*
X8768992Y-14211859D01*
X8768992Y-14211859D02*
X8768992Y-14040430D01*
X8949944Y-14230907D02*
X8930896Y-14240430D01*
X8930896Y-14240430D02*
X8892801Y-14240430D01*
X8892801Y-14240430D02*
X8873753Y-14230907D01*
X8873753Y-14230907D02*
X8864230Y-14211859D01*
X8864230Y-14211859D02*
X8864230Y-14135668D01*
X8864230Y-14135668D02*
X8873753Y-14116621D01*
X8873753Y-14116621D02*
X8892801Y-14107097D01*
X8892801Y-14107097D02*
X8930896Y-14107097D01*
X8930896Y-14107097D02*
X8949944Y-14116621D01*
X8949944Y-14116621D02*
X8959468Y-14135668D01*
X8959468Y-14135668D02*
X8959468Y-14154716D01*
X8959468Y-14154716D02*
X8864230Y-14173764D01*
X9035658Y-14230907D02*
X9054706Y-14240430D01*
X9054706Y-14240430D02*
X9092801Y-14240430D01*
X9092801Y-14240430D02*
X9111849Y-14230907D01*
X9111849Y-14230907D02*
X9121373Y-14211859D01*
X9121373Y-14211859D02*
X9121373Y-14202335D01*
X9121373Y-14202335D02*
X9111849Y-14183287D01*
X9111849Y-14183287D02*
X9092801Y-14173764D01*
X9092801Y-14173764D02*
X9064230Y-14173764D01*
X9064230Y-14173764D02*
X9045182Y-14164240D01*
X9045182Y-14164240D02*
X9035658Y-14145192D01*
X9035658Y-14145192D02*
X9035658Y-14135668D01*
X9035658Y-14135668D02*
X9045182Y-14116621D01*
X9045182Y-14116621D02*
X9064230Y-14107097D01*
X9064230Y-14107097D02*
X9092801Y-14107097D01*
X9092801Y-14107097D02*
X9111849Y-14116621D01*
X9188039Y-14316621D02*
X9197563Y-14307097D01*
X9197563Y-14307097D02*
X9216611Y-14278526D01*
X9216611Y-14278526D02*
X9226134Y-14259478D01*
X9226134Y-14259478D02*
X9235658Y-14230907D01*
X9235658Y-14230907D02*
X9245182Y-14183287D01*
X9245182Y-14183287D02*
X9245182Y-14145192D01*
X9245182Y-14145192D02*
X9235658Y-14097573D01*
X9235658Y-14097573D02*
X9226134Y-14069002D01*
X9226134Y-14069002D02*
X9216611Y-14049954D01*
X9216611Y-14049954D02*
X9197563Y-14021383D01*
X9197563Y-14021383D02*
X9188039Y-14011859D01*
X4222500Y-14412947D02*
G75*
G03*
X4222500Y-14412947I-100000J0D01*
G01*
X4464229Y-14304430D02*
X4588039Y-14304430D01*
X4588039Y-14304430D02*
X4521372Y-14380621D01*
X4521372Y-14380621D02*
X4549944Y-14380621D01*
X4549944Y-14380621D02*
X4568991Y-14390145D01*
X4568991Y-14390145D02*
X4578515Y-14399668D01*
X4578515Y-14399668D02*
X4588039Y-14418716D01*
X4588039Y-14418716D02*
X4588039Y-14466335D01*
X4588039Y-14466335D02*
X4578515Y-14485383D01*
X4578515Y-14485383D02*
X4568991Y-14494907D01*
X4568991Y-14494907D02*
X4549944Y-14504430D01*
X4549944Y-14504430D02*
X4492801Y-14504430D01*
X4492801Y-14504430D02*
X4473753Y-14494907D01*
X4473753Y-14494907D02*
X4464229Y-14485383D01*
X4673753Y-14485383D02*
X4683277Y-14494907D01*
X4683277Y-14494907D02*
X4673753Y-14504430D01*
X4673753Y-14504430D02*
X4664229Y-14494907D01*
X4664229Y-14494907D02*
X4673753Y-14485383D01*
X4673753Y-14485383D02*
X4673753Y-14504430D01*
X4807086Y-14304430D02*
X4826134Y-14304430D01*
X4826134Y-14304430D02*
X4845182Y-14313954D01*
X4845182Y-14313954D02*
X4854705Y-14323478D01*
X4854705Y-14323478D02*
X4864229Y-14342526D01*
X4864229Y-14342526D02*
X4873753Y-14380621D01*
X4873753Y-14380621D02*
X4873753Y-14428240D01*
X4873753Y-14428240D02*
X4864229Y-14466335D01*
X4864229Y-14466335D02*
X4854705Y-14485383D01*
X4854705Y-14485383D02*
X4845182Y-14494907D01*
X4845182Y-14494907D02*
X4826134Y-14504430D01*
X4826134Y-14504430D02*
X4807086Y-14504430D01*
X4807086Y-14504430D02*
X4788039Y-14494907D01*
X4788039Y-14494907D02*
X4778515Y-14485383D01*
X4778515Y-14485383D02*
X4768991Y-14466335D01*
X4768991Y-14466335D02*
X4759467Y-14428240D01*
X4759467Y-14428240D02*
X4759467Y-14380621D01*
X4759467Y-14380621D02*
X4768991Y-14342526D01*
X4768991Y-14342526D02*
X4778515Y-14323478D01*
X4778515Y-14323478D02*
X4788039Y-14313954D01*
X4788039Y-14313954D02*
X4807086Y-14304430D01*
X4997563Y-14304430D02*
X5016610Y-14304430D01*
X5016610Y-14304430D02*
X5035658Y-14313954D01*
X5035658Y-14313954D02*
X5045182Y-14323478D01*
X5045182Y-14323478D02*
X5054705Y-14342526D01*
X5054705Y-14342526D02*
X5064229Y-14380621D01*
X5064229Y-14380621D02*
X5064229Y-14428240D01*
X5064229Y-14428240D02*
X5054705Y-14466335D01*
X5054705Y-14466335D02*
X5045182Y-14485383D01*
X5045182Y-14485383D02*
X5035658Y-14494907D01*
X5035658Y-14494907D02*
X5016610Y-14504430D01*
X5016610Y-14504430D02*
X4997563Y-14504430D01*
X4997563Y-14504430D02*
X4978515Y-14494907D01*
X4978515Y-14494907D02*
X4968991Y-14485383D01*
X4968991Y-14485383D02*
X4959467Y-14466335D01*
X4959467Y-14466335D02*
X4949944Y-14428240D01*
X4949944Y-14428240D02*
X4949944Y-14380621D01*
X4949944Y-14380621D02*
X4959467Y-14342526D01*
X4959467Y-14342526D02*
X4968991Y-14323478D01*
X4968991Y-14323478D02*
X4978515Y-14313954D01*
X4978515Y-14313954D02*
X4997563Y-14304430D01*
X5188039Y-14304430D02*
X5207086Y-14304430D01*
X5207086Y-14304430D02*
X5226134Y-14313954D01*
X5226134Y-14313954D02*
X5235658Y-14323478D01*
X5235658Y-14323478D02*
X5245182Y-14342526D01*
X5245182Y-14342526D02*
X5254705Y-14380621D01*
X5254705Y-14380621D02*
X5254705Y-14428240D01*
X5254705Y-14428240D02*
X5245182Y-14466335D01*
X5245182Y-14466335D02*
X5235658Y-14485383D01*
X5235658Y-14485383D02*
X5226134Y-14494907D01*
X5226134Y-14494907D02*
X5207086Y-14504430D01*
X5207086Y-14504430D02*
X5188039Y-14504430D01*
X5188039Y-14504430D02*
X5168991Y-14494907D01*
X5168991Y-14494907D02*
X5159467Y-14485383D01*
X5159467Y-14485383D02*
X5149944Y-14466335D01*
X5149944Y-14466335D02*
X5140420Y-14428240D01*
X5140420Y-14428240D02*
X5140420Y-14380621D01*
X5140420Y-14380621D02*
X5149944Y-14342526D01*
X5149944Y-14342526D02*
X5159467Y-14323478D01*
X5159467Y-14323478D02*
X5168991Y-14313954D01*
X5168991Y-14313954D02*
X5188039Y-14304430D01*
X5340420Y-14504430D02*
X5340420Y-14371097D01*
X5340420Y-14390145D02*
X5349944Y-14380621D01*
X5349944Y-14380621D02*
X5368991Y-14371097D01*
X5368991Y-14371097D02*
X5397563Y-14371097D01*
X5397563Y-14371097D02*
X5416610Y-14380621D01*
X5416610Y-14380621D02*
X5426134Y-14399668D01*
X5426134Y-14399668D02*
X5426134Y-14504430D01*
X5426134Y-14399668D02*
X5435658Y-14380621D01*
X5435658Y-14380621D02*
X5454705Y-14371097D01*
X5454705Y-14371097D02*
X5483277Y-14371097D01*
X5483277Y-14371097D02*
X5502325Y-14380621D01*
X5502325Y-14380621D02*
X5511848Y-14399668D01*
X5511848Y-14399668D02*
X5511848Y-14504430D01*
X5607086Y-14504430D02*
X5607086Y-14371097D01*
X5607086Y-14390145D02*
X5616610Y-14380621D01*
X5616610Y-14380621D02*
X5635658Y-14371097D01*
X5635658Y-14371097D02*
X5664229Y-14371097D01*
X5664229Y-14371097D02*
X5683277Y-14380621D01*
X5683277Y-14380621D02*
X5692801Y-14399668D01*
X5692801Y-14399668D02*
X5692801Y-14504430D01*
X5692801Y-14399668D02*
X5702324Y-14380621D01*
X5702324Y-14380621D02*
X5721372Y-14371097D01*
X5721372Y-14371097D02*
X5749943Y-14371097D01*
X5749943Y-14371097D02*
X5768991Y-14380621D01*
X5768991Y-14380621D02*
X5778515Y-14399668D01*
X5778515Y-14399668D02*
X5778515Y-14504430D01*
X6168991Y-14294907D02*
X5997563Y-14552049D01*
X6426134Y-14304430D02*
X6445182Y-14304430D01*
X6445182Y-14304430D02*
X6464229Y-14313954D01*
X6464229Y-14313954D02*
X6473753Y-14323478D01*
X6473753Y-14323478D02*
X6483277Y-14342526D01*
X6483277Y-14342526D02*
X6492801Y-14380621D01*
X6492801Y-14380621D02*
X6492801Y-14428240D01*
X6492801Y-14428240D02*
X6483277Y-14466335D01*
X6483277Y-14466335D02*
X6473753Y-14485383D01*
X6473753Y-14485383D02*
X6464229Y-14494907D01*
X6464229Y-14494907D02*
X6445182Y-14504430D01*
X6445182Y-14504430D02*
X6426134Y-14504430D01*
X6426134Y-14504430D02*
X6407086Y-14494907D01*
X6407086Y-14494907D02*
X6397563Y-14485383D01*
X6397563Y-14485383D02*
X6388039Y-14466335D01*
X6388039Y-14466335D02*
X6378515Y-14428240D01*
X6378515Y-14428240D02*
X6378515Y-14380621D01*
X6378515Y-14380621D02*
X6388039Y-14342526D01*
X6388039Y-14342526D02*
X6397563Y-14323478D01*
X6397563Y-14323478D02*
X6407086Y-14313954D01*
X6407086Y-14313954D02*
X6426134Y-14304430D01*
X6578515Y-14485383D02*
X6588039Y-14494907D01*
X6588039Y-14494907D02*
X6578515Y-14504430D01*
X6578515Y-14504430D02*
X6568991Y-14494907D01*
X6568991Y-14494907D02*
X6578515Y-14485383D01*
X6578515Y-14485383D02*
X6578515Y-14504430D01*
X6778515Y-14504430D02*
X6664229Y-14504430D01*
X6721372Y-14504430D02*
X6721372Y-14304430D01*
X6721372Y-14304430D02*
X6702325Y-14333002D01*
X6702325Y-14333002D02*
X6683277Y-14352049D01*
X6683277Y-14352049D02*
X6664229Y-14361573D01*
X6968991Y-14504430D02*
X6854706Y-14504430D01*
X6911848Y-14504430D02*
X6911848Y-14304430D01*
X6911848Y-14304430D02*
X6892801Y-14333002D01*
X6892801Y-14333002D02*
X6873753Y-14352049D01*
X6873753Y-14352049D02*
X6854706Y-14361573D01*
X7083277Y-14390145D02*
X7064229Y-14380621D01*
X7064229Y-14380621D02*
X7054706Y-14371097D01*
X7054706Y-14371097D02*
X7045182Y-14352049D01*
X7045182Y-14352049D02*
X7045182Y-14342526D01*
X7045182Y-14342526D02*
X7054706Y-14323478D01*
X7054706Y-14323478D02*
X7064229Y-14313954D01*
X7064229Y-14313954D02*
X7083277Y-14304430D01*
X7083277Y-14304430D02*
X7121372Y-14304430D01*
X7121372Y-14304430D02*
X7140420Y-14313954D01*
X7140420Y-14313954D02*
X7149944Y-14323478D01*
X7149944Y-14323478D02*
X7159467Y-14342526D01*
X7159467Y-14342526D02*
X7159467Y-14352049D01*
X7159467Y-14352049D02*
X7149944Y-14371097D01*
X7149944Y-14371097D02*
X7140420Y-14380621D01*
X7140420Y-14380621D02*
X7121372Y-14390145D01*
X7121372Y-14390145D02*
X7083277Y-14390145D01*
X7083277Y-14390145D02*
X7064229Y-14399668D01*
X7064229Y-14399668D02*
X7054706Y-14409192D01*
X7054706Y-14409192D02*
X7045182Y-14428240D01*
X7045182Y-14428240D02*
X7045182Y-14466335D01*
X7045182Y-14466335D02*
X7054706Y-14485383D01*
X7054706Y-14485383D02*
X7064229Y-14494907D01*
X7064229Y-14494907D02*
X7083277Y-14504430D01*
X7083277Y-14504430D02*
X7121372Y-14504430D01*
X7121372Y-14504430D02*
X7140420Y-14494907D01*
X7140420Y-14494907D02*
X7149944Y-14485383D01*
X7149944Y-14485383D02*
X7159467Y-14466335D01*
X7159467Y-14466335D02*
X7159467Y-14428240D01*
X7159467Y-14428240D02*
X7149944Y-14409192D01*
X7149944Y-14409192D02*
X7140420Y-14399668D01*
X7140420Y-14399668D02*
X7121372Y-14390145D01*
X7349944Y-14504430D02*
X7235658Y-14504430D01*
X7292801Y-14504430D02*
X7292801Y-14304430D01*
X7292801Y-14304430D02*
X7273753Y-14333002D01*
X7273753Y-14333002D02*
X7254706Y-14352049D01*
X7254706Y-14352049D02*
X7235658Y-14361573D01*
X7426134Y-14304430D02*
X7426134Y-14342526D01*
X7502325Y-14304430D02*
X7502325Y-14342526D01*
X7797563Y-14580621D02*
X7788039Y-14571097D01*
X7788039Y-14571097D02*
X7768991Y-14542526D01*
X7768991Y-14542526D02*
X7759468Y-14523478D01*
X7759468Y-14523478D02*
X7749944Y-14494907D01*
X7749944Y-14494907D02*
X7740420Y-14447287D01*
X7740420Y-14447287D02*
X7740420Y-14409192D01*
X7740420Y-14409192D02*
X7749944Y-14361573D01*
X7749944Y-14361573D02*
X7759468Y-14333002D01*
X7759468Y-14333002D02*
X7768991Y-14313954D01*
X7768991Y-14313954D02*
X7788039Y-14285383D01*
X7788039Y-14285383D02*
X7797563Y-14275859D01*
X7978515Y-14504430D02*
X7864229Y-14504430D01*
X7921372Y-14504430D02*
X7921372Y-14304430D01*
X7921372Y-14304430D02*
X7902325Y-14333002D01*
X7902325Y-14333002D02*
X7883277Y-14352049D01*
X7883277Y-14352049D02*
X7864229Y-14361573D01*
X8054706Y-14323478D02*
X8064229Y-14313954D01*
X8064229Y-14313954D02*
X8083277Y-14304430D01*
X8083277Y-14304430D02*
X8130896Y-14304430D01*
X8130896Y-14304430D02*
X8149944Y-14313954D01*
X8149944Y-14313954D02*
X8159468Y-14323478D01*
X8159468Y-14323478D02*
X8168991Y-14342526D01*
X8168991Y-14342526D02*
X8168991Y-14361573D01*
X8168991Y-14361573D02*
X8159468Y-14390145D01*
X8159468Y-14390145D02*
X8045182Y-14504430D01*
X8045182Y-14504430D02*
X8168991Y-14504430D01*
X8292801Y-14304430D02*
X8311849Y-14304430D01*
X8311849Y-14304430D02*
X8330896Y-14313954D01*
X8330896Y-14313954D02*
X8340420Y-14323478D01*
X8340420Y-14323478D02*
X8349944Y-14342526D01*
X8349944Y-14342526D02*
X8359468Y-14380621D01*
X8359468Y-14380621D02*
X8359468Y-14428240D01*
X8359468Y-14428240D02*
X8349944Y-14466335D01*
X8349944Y-14466335D02*
X8340420Y-14485383D01*
X8340420Y-14485383D02*
X8330896Y-14494907D01*
X8330896Y-14494907D02*
X8311849Y-14504430D01*
X8311849Y-14504430D02*
X8292801Y-14504430D01*
X8292801Y-14504430D02*
X8273753Y-14494907D01*
X8273753Y-14494907D02*
X8264229Y-14485383D01*
X8264229Y-14485383D02*
X8254706Y-14466335D01*
X8254706Y-14466335D02*
X8245182Y-14428240D01*
X8245182Y-14428240D02*
X8245182Y-14380621D01*
X8245182Y-14380621D02*
X8254706Y-14342526D01*
X8254706Y-14342526D02*
X8264229Y-14323478D01*
X8264229Y-14323478D02*
X8273753Y-14313954D01*
X8273753Y-14313954D02*
X8292801Y-14304430D01*
X8597563Y-14504430D02*
X8597563Y-14304430D01*
X8683277Y-14504430D02*
X8683277Y-14399668D01*
X8683277Y-14399668D02*
X8673753Y-14380621D01*
X8673753Y-14380621D02*
X8654706Y-14371097D01*
X8654706Y-14371097D02*
X8626134Y-14371097D01*
X8626134Y-14371097D02*
X8607087Y-14380621D01*
X8607087Y-14380621D02*
X8597563Y-14390145D01*
X8807087Y-14504430D02*
X8788039Y-14494907D01*
X8788039Y-14494907D02*
X8778515Y-14485383D01*
X8778515Y-14485383D02*
X8768992Y-14466335D01*
X8768992Y-14466335D02*
X8768992Y-14409192D01*
X8768992Y-14409192D02*
X8778515Y-14390145D01*
X8778515Y-14390145D02*
X8788039Y-14380621D01*
X8788039Y-14380621D02*
X8807087Y-14371097D01*
X8807087Y-14371097D02*
X8835658Y-14371097D01*
X8835658Y-14371097D02*
X8854706Y-14380621D01*
X8854706Y-14380621D02*
X8864230Y-14390145D01*
X8864230Y-14390145D02*
X8873753Y-14409192D01*
X8873753Y-14409192D02*
X8873753Y-14466335D01*
X8873753Y-14466335D02*
X8864230Y-14485383D01*
X8864230Y-14485383D02*
X8854706Y-14494907D01*
X8854706Y-14494907D02*
X8835658Y-14504430D01*
X8835658Y-14504430D02*
X8807087Y-14504430D01*
X8988039Y-14504430D02*
X8968992Y-14494907D01*
X8968992Y-14494907D02*
X8959468Y-14475859D01*
X8959468Y-14475859D02*
X8959468Y-14304430D01*
X9140420Y-14494907D02*
X9121373Y-14504430D01*
X9121373Y-14504430D02*
X9083277Y-14504430D01*
X9083277Y-14504430D02*
X9064230Y-14494907D01*
X9064230Y-14494907D02*
X9054706Y-14475859D01*
X9054706Y-14475859D02*
X9054706Y-14399668D01*
X9054706Y-14399668D02*
X9064230Y-14380621D01*
X9064230Y-14380621D02*
X9083277Y-14371097D01*
X9083277Y-14371097D02*
X9121373Y-14371097D01*
X9121373Y-14371097D02*
X9140420Y-14380621D01*
X9140420Y-14380621D02*
X9149944Y-14399668D01*
X9149944Y-14399668D02*
X9149944Y-14418716D01*
X9149944Y-14418716D02*
X9054706Y-14437764D01*
X9226134Y-14494907D02*
X9245182Y-14504430D01*
X9245182Y-14504430D02*
X9283277Y-14504430D01*
X9283277Y-14504430D02*
X9302325Y-14494907D01*
X9302325Y-14494907D02*
X9311849Y-14475859D01*
X9311849Y-14475859D02*
X9311849Y-14466335D01*
X9311849Y-14466335D02*
X9302325Y-14447287D01*
X9302325Y-14447287D02*
X9283277Y-14437764D01*
X9283277Y-14437764D02*
X9254706Y-14437764D01*
X9254706Y-14437764D02*
X9235658Y-14428240D01*
X9235658Y-14428240D02*
X9226134Y-14409192D01*
X9226134Y-14409192D02*
X9226134Y-14399668D01*
X9226134Y-14399668D02*
X9235658Y-14380621D01*
X9235658Y-14380621D02*
X9254706Y-14371097D01*
X9254706Y-14371097D02*
X9283277Y-14371097D01*
X9283277Y-14371097D02*
X9302325Y-14380621D01*
X9378515Y-14580621D02*
X9388039Y-14571097D01*
X9388039Y-14571097D02*
X9407087Y-14542526D01*
X9407087Y-14542526D02*
X9416611Y-14523478D01*
X9416611Y-14523478D02*
X9426134Y-14494907D01*
X9426134Y-14494907D02*
X9435658Y-14447287D01*
X9435658Y-14447287D02*
X9435658Y-14409192D01*
X9435658Y-14409192D02*
X9426134Y-14361573D01*
X9426134Y-14361573D02*
X9416611Y-14333002D01*
X9416611Y-14333002D02*
X9407087Y-14313954D01*
X9407087Y-14313954D02*
X9388039Y-14285383D01*
X9388039Y-14285383D02*
X9378515Y-14275859D01*
M02*
