%TF.GenerationSoftware,KiCad,Pcbnew,7.0.9-7.0.9~ubuntu22.04.1*%
%TF.CreationDate,2023-12-21T23:36:55+01:00*%
%TF.ProjectId,basic60,62617369-6336-4302-9e6b-696361645f70,0.1*%
%TF.SameCoordinates,Original*%
%TF.FileFunction,Drillmap*%
%TF.FilePolarity,Positive*%
%FSLAX45Y45*%
G04 Gerber Fmt 4.5, Leading zero omitted, Abs format (unit mm)*
G04 Created by KiCad (PCBNEW 7.0.9-7.0.9~ubuntu22.04.1) date 2023-12-21 23:36:55*
%MOMM*%
%LPD*%
G01*
G04 APERTURE LIST*
%ADD10C,0.100000*%
%ADD11C,0.050000*%
%ADD12C,0.200000*%
%ADD13C,0.150000*%
%ADD14C,0.170000*%
%ADD15C,0.340000*%
%ADD16C,0.350000*%
G04 APERTURE END LIST*
D10*
X12015000Y-2690000D02*
X14624348Y-2690000D01*
X14924349Y-2990651D02*
G75*
G03*
X14624348Y-2690000I-299999J651D01*
G01*
D11*
X14825000Y-13506440D02*
G75*
G03*
X14925000Y-13406447I10J99990D01*
G01*
D10*
X18330000Y-2986779D02*
X18330000Y-4506447D01*
D11*
X15126250Y-10576174D02*
G75*
G03*
X15051248Y-10501270I-75000J-96D01*
G01*
D10*
X18329993Y-4506447D02*
G75*
G03*
X18830000Y-5006447I500007J7D01*
G01*
D11*
X11214746Y-5009746D02*
G75*
G03*
X11715000Y-4509746I261J499993D01*
G01*
X14825000Y-13506447D02*
X4725000Y-13506447D01*
X15126248Y-10576174D02*
X15129872Y-13406575D01*
X25825000Y-5506447D02*
X25825000Y-13006447D01*
X15129873Y-13406575D02*
G75*
G03*
X15229872Y-13506447I99997J125D01*
G01*
D10*
X15051248Y-10501270D02*
X15000000Y-10501270D01*
D11*
X25325000Y-13506450D02*
G75*
G03*
X25825000Y-13006447I0J500000D01*
G01*
X15047662Y-3842502D02*
G75*
G03*
X15122662Y-3767663I-3J75002D01*
G01*
X25825003Y-5506447D02*
G75*
G03*
X25325000Y-5006447I-500003J-3D01*
G01*
X14924348Y-2990651D02*
X14922663Y-3767337D01*
D10*
X15122540Y-4889959D02*
G75*
G03*
X15047541Y-4815000I-75000J-41D01*
G01*
D11*
X18330001Y-2986779D02*
G75*
G03*
X18029667Y-2686780I-300001J-1D01*
G01*
D10*
X15049959Y-9346447D02*
X14999959Y-9346447D01*
D11*
X4225000Y-5506447D02*
X4225000Y-13006447D01*
X14922660Y-3767337D02*
G75*
G03*
X14997663Y-3842500I75000J-163D01*
G01*
D10*
X15122541Y-4889959D02*
X15124959Y-9271405D01*
D11*
X14925000Y-13406447D02*
X14925000Y-10576270D01*
X4725000Y-5006447D02*
X11214746Y-5009746D01*
D10*
X15049959Y-9346449D02*
G75*
G03*
X15124959Y-9271405I1J74999D01*
G01*
D11*
X4225003Y-13006447D02*
G75*
G03*
X4725000Y-13506447I499997J-3D01*
G01*
D10*
X14924959Y-9271488D02*
X14922541Y-4890041D01*
D11*
X11715000Y-4509746D02*
X11715000Y-2990000D01*
D10*
X15000000Y-10501270D02*
G75*
G03*
X14925000Y-10576270I0J-75000D01*
G01*
D11*
X15047541Y-4815000D02*
X14997541Y-4815000D01*
D10*
X12015000Y-2690000D02*
G75*
G03*
X11715000Y-2990000I0J-300000D01*
G01*
D11*
X15424018Y-2689671D02*
G75*
G03*
X15124351Y-2989017I332J-299999D01*
G01*
X14997663Y-3842500D02*
X15047662Y-3842500D01*
X15122662Y-3767663D02*
X15124351Y-2989017D01*
D10*
X14924953Y-9271488D02*
G75*
G03*
X14999959Y-9346447I75007J48D01*
G01*
D11*
X4725000Y-5006447D02*
G75*
G03*
X4225000Y-5506447I0J-500000D01*
G01*
X25325000Y-13506447D02*
X15229872Y-13506447D01*
D10*
X14997541Y-4815001D02*
G75*
G03*
X14922541Y-4890041I-1J-74999D01*
G01*
D11*
X18029667Y-2686780D02*
X15424018Y-2689669D01*
D10*
X18830000Y-5006447D02*
X25325000Y-5006447D01*
D12*
D13*
X14340000Y-3425000D02*
X14490000Y-3575000D01*
X14490000Y-3425000D02*
X14340000Y-3575000D01*
X14340000Y-4125000D02*
X14490000Y-4275000D01*
X14490000Y-4125000D02*
X14340000Y-4275000D01*
X15570000Y-3415000D02*
X15720000Y-3565000D01*
X15720000Y-3415000D02*
X15570000Y-3565000D01*
X15570000Y-4115000D02*
X15720000Y-4265000D01*
X15720000Y-4115000D02*
X15570000Y-4265000D01*
D14*
X4660000Y-5856447D02*
G75*
G03*
X4660000Y-5856447I-85000J0D01*
G01*
X4660000Y-7556447D02*
G75*
G03*
X4660000Y-7556447I-85000J0D01*
G01*
X4660000Y-9256447D02*
G75*
G03*
X4660000Y-9256447I-85000J0D01*
G01*
X4660000Y-10956447D02*
G75*
G03*
X4660000Y-10956447I-85000J0D01*
G01*
X4660000Y-12656447D02*
G75*
G03*
X4660000Y-12656447I-85000J0D01*
G01*
X5760000Y-5856447D02*
G75*
G03*
X5760000Y-5856447I-85000J0D01*
G01*
X5760000Y-7556447D02*
G75*
G03*
X5760000Y-7556447I-85000J0D01*
G01*
X5760000Y-9256447D02*
G75*
G03*
X5760000Y-9256447I-85000J0D01*
G01*
X5760000Y-10956447D02*
G75*
G03*
X5760000Y-10956447I-85000J0D01*
G01*
X5760000Y-12656447D02*
G75*
G03*
X5760000Y-12656447I-85000J0D01*
G01*
X6460000Y-5856447D02*
G75*
G03*
X6460000Y-5856447I-85000J0D01*
G01*
X6460000Y-7556447D02*
G75*
G03*
X6460000Y-7556447I-85000J0D01*
G01*
X6460000Y-9256447D02*
G75*
G03*
X6460000Y-9256447I-85000J0D01*
G01*
X6460000Y-10956447D02*
G75*
G03*
X6460000Y-10956447I-85000J0D01*
G01*
X6460000Y-12656447D02*
G75*
G03*
X6460000Y-12656447I-85000J0D01*
G01*
X7560000Y-5856447D02*
G75*
G03*
X7560000Y-5856447I-85000J0D01*
G01*
X7560000Y-7556447D02*
G75*
G03*
X7560000Y-7556447I-85000J0D01*
G01*
X7560000Y-9256447D02*
G75*
G03*
X7560000Y-9256447I-85000J0D01*
G01*
X7560000Y-10956447D02*
G75*
G03*
X7560000Y-10956447I-85000J0D01*
G01*
X7560000Y-12656447D02*
G75*
G03*
X7560000Y-12656447I-85000J0D01*
G01*
X8260000Y-5856447D02*
G75*
G03*
X8260000Y-5856447I-85000J0D01*
G01*
X8260000Y-7556447D02*
G75*
G03*
X8260000Y-7556447I-85000J0D01*
G01*
X8260000Y-9256447D02*
G75*
G03*
X8260000Y-9256447I-85000J0D01*
G01*
X8260000Y-10956447D02*
G75*
G03*
X8260000Y-10956447I-85000J0D01*
G01*
X8260000Y-12656447D02*
G75*
G03*
X8260000Y-12656447I-85000J0D01*
G01*
X9360000Y-5856447D02*
G75*
G03*
X9360000Y-5856447I-85000J0D01*
G01*
X9360000Y-7556447D02*
G75*
G03*
X9360000Y-7556447I-85000J0D01*
G01*
X9360000Y-9256447D02*
G75*
G03*
X9360000Y-9256447I-85000J0D01*
G01*
X9360000Y-10956447D02*
G75*
G03*
X9360000Y-10956447I-85000J0D01*
G01*
X9360000Y-12656447D02*
G75*
G03*
X9360000Y-12656447I-85000J0D01*
G01*
X10060000Y-5856447D02*
G75*
G03*
X10060000Y-5856447I-85000J0D01*
G01*
X10060000Y-7556447D02*
G75*
G03*
X10060000Y-7556447I-85000J0D01*
G01*
X10060000Y-9256447D02*
G75*
G03*
X10060000Y-9256447I-85000J0D01*
G01*
X10060000Y-10956447D02*
G75*
G03*
X10060000Y-10956447I-85000J0D01*
G01*
X10060000Y-12656447D02*
G75*
G03*
X10060000Y-12656447I-85000J0D01*
G01*
X11160000Y-5856447D02*
G75*
G03*
X11160000Y-5856447I-85000J0D01*
G01*
X11160000Y-7556447D02*
G75*
G03*
X11160000Y-7556447I-85000J0D01*
G01*
X11160000Y-9256447D02*
G75*
G03*
X11160000Y-9256447I-85000J0D01*
G01*
X11160000Y-10956447D02*
G75*
G03*
X11160000Y-10956447I-85000J0D01*
G01*
X11160000Y-12656447D02*
G75*
G03*
X11160000Y-12656447I-85000J0D01*
G01*
X11860000Y-5856447D02*
G75*
G03*
X11860000Y-5856447I-85000J0D01*
G01*
X11860000Y-7556447D02*
G75*
G03*
X11860000Y-7556447I-85000J0D01*
G01*
X11860000Y-9256447D02*
G75*
G03*
X11860000Y-9256447I-85000J0D01*
G01*
X11860000Y-10956447D02*
G75*
G03*
X11860000Y-10956447I-85000J0D01*
G01*
X11860000Y-12656447D02*
G75*
G03*
X11860000Y-12656447I-85000J0D01*
G01*
X12960000Y-5856447D02*
G75*
G03*
X12960000Y-5856447I-85000J0D01*
G01*
X12960000Y-7556447D02*
G75*
G03*
X12960000Y-7556447I-85000J0D01*
G01*
X12960000Y-9256447D02*
G75*
G03*
X12960000Y-9256447I-85000J0D01*
G01*
X12960000Y-10956447D02*
G75*
G03*
X12960000Y-10956447I-85000J0D01*
G01*
X12960000Y-12656447D02*
G75*
G03*
X12960000Y-12656447I-85000J0D01*
G01*
X13660000Y-5856447D02*
G75*
G03*
X13660000Y-5856447I-85000J0D01*
G01*
X13660000Y-7556447D02*
G75*
G03*
X13660000Y-7556447I-85000J0D01*
G01*
X13660000Y-9256447D02*
G75*
G03*
X13660000Y-9256447I-85000J0D01*
G01*
X13660000Y-10956447D02*
G75*
G03*
X13660000Y-10956447I-85000J0D01*
G01*
X13660000Y-12656447D02*
G75*
G03*
X13660000Y-12656447I-85000J0D01*
G01*
X14760000Y-5856447D02*
G75*
G03*
X14760000Y-5856447I-85000J0D01*
G01*
X14760000Y-7556447D02*
G75*
G03*
X14760000Y-7556447I-85000J0D01*
G01*
X14760000Y-9256447D02*
G75*
G03*
X14760000Y-9256447I-85000J0D01*
G01*
X14760000Y-10956447D02*
G75*
G03*
X14760000Y-10956447I-85000J0D01*
G01*
X14760000Y-12656447D02*
G75*
G03*
X14760000Y-12656447I-85000J0D01*
G01*
X15460000Y-5856447D02*
G75*
G03*
X15460000Y-5856447I-85000J0D01*
G01*
X15460000Y-7556447D02*
G75*
G03*
X15460000Y-7556447I-85000J0D01*
G01*
X15460000Y-9256447D02*
G75*
G03*
X15460000Y-9256447I-85000J0D01*
G01*
X15460000Y-10956447D02*
G75*
G03*
X15460000Y-10956447I-85000J0D01*
G01*
X15460000Y-12656447D02*
G75*
G03*
X15460000Y-12656447I-85000J0D01*
G01*
X16560000Y-5856447D02*
G75*
G03*
X16560000Y-5856447I-85000J0D01*
G01*
X16560000Y-7556447D02*
G75*
G03*
X16560000Y-7556447I-85000J0D01*
G01*
X16560000Y-9256447D02*
G75*
G03*
X16560000Y-9256447I-85000J0D01*
G01*
X16560000Y-10956447D02*
G75*
G03*
X16560000Y-10956447I-85000J0D01*
G01*
X16560000Y-12656447D02*
G75*
G03*
X16560000Y-12656447I-85000J0D01*
G01*
X17260000Y-5856447D02*
G75*
G03*
X17260000Y-5856447I-85000J0D01*
G01*
X17260000Y-7556447D02*
G75*
G03*
X17260000Y-7556447I-85000J0D01*
G01*
X17260000Y-9256447D02*
G75*
G03*
X17260000Y-9256447I-85000J0D01*
G01*
X17260000Y-10956447D02*
G75*
G03*
X17260000Y-10956447I-85000J0D01*
G01*
X17260000Y-12656447D02*
G75*
G03*
X17260000Y-12656447I-85000J0D01*
G01*
X18360000Y-5856447D02*
G75*
G03*
X18360000Y-5856447I-85000J0D01*
G01*
X18360000Y-7556447D02*
G75*
G03*
X18360000Y-7556447I-85000J0D01*
G01*
X18360000Y-9256447D02*
G75*
G03*
X18360000Y-9256447I-85000J0D01*
G01*
X18360000Y-10956447D02*
G75*
G03*
X18360000Y-10956447I-85000J0D01*
G01*
X18360000Y-12656447D02*
G75*
G03*
X18360000Y-12656447I-85000J0D01*
G01*
X19060000Y-5856447D02*
G75*
G03*
X19060000Y-5856447I-85000J0D01*
G01*
X19060000Y-7556447D02*
G75*
G03*
X19060000Y-7556447I-85000J0D01*
G01*
X19060000Y-9256447D02*
G75*
G03*
X19060000Y-9256447I-85000J0D01*
G01*
X19060000Y-10956447D02*
G75*
G03*
X19060000Y-10956447I-85000J0D01*
G01*
X19060000Y-12656447D02*
G75*
G03*
X19060000Y-12656447I-85000J0D01*
G01*
X20160000Y-5856447D02*
G75*
G03*
X20160000Y-5856447I-85000J0D01*
G01*
X20160000Y-7556447D02*
G75*
G03*
X20160000Y-7556447I-85000J0D01*
G01*
X20160000Y-9256447D02*
G75*
G03*
X20160000Y-9256447I-85000J0D01*
G01*
X20160000Y-10956447D02*
G75*
G03*
X20160000Y-10956447I-85000J0D01*
G01*
X20160000Y-12656447D02*
G75*
G03*
X20160000Y-12656447I-85000J0D01*
G01*
X20860000Y-5856447D02*
G75*
G03*
X20860000Y-5856447I-85000J0D01*
G01*
X20860000Y-7556447D02*
G75*
G03*
X20860000Y-7556447I-85000J0D01*
G01*
X20860000Y-9256447D02*
G75*
G03*
X20860000Y-9256447I-85000J0D01*
G01*
X20860000Y-10956447D02*
G75*
G03*
X20860000Y-10956447I-85000J0D01*
G01*
X20860000Y-12656447D02*
G75*
G03*
X20860000Y-12656447I-85000J0D01*
G01*
X21960000Y-5856447D02*
G75*
G03*
X21960000Y-5856447I-85000J0D01*
G01*
X21960000Y-7556447D02*
G75*
G03*
X21960000Y-7556447I-85000J0D01*
G01*
X21960000Y-9256447D02*
G75*
G03*
X21960000Y-9256447I-85000J0D01*
G01*
X21960000Y-10956447D02*
G75*
G03*
X21960000Y-10956447I-85000J0D01*
G01*
X21960000Y-12656447D02*
G75*
G03*
X21960000Y-12656447I-85000J0D01*
G01*
X22660000Y-5856447D02*
G75*
G03*
X22660000Y-5856447I-85000J0D01*
G01*
X22660000Y-7556447D02*
G75*
G03*
X22660000Y-7556447I-85000J0D01*
G01*
X22660000Y-9256447D02*
G75*
G03*
X22660000Y-9256447I-85000J0D01*
G01*
X22660000Y-10956447D02*
G75*
G03*
X22660000Y-10956447I-85000J0D01*
G01*
X22660000Y-12656447D02*
G75*
G03*
X22660000Y-12656447I-85000J0D01*
G01*
X23760000Y-5856447D02*
G75*
G03*
X23760000Y-5856447I-85000J0D01*
G01*
X23760000Y-7556447D02*
G75*
G03*
X23760000Y-7556447I-85000J0D01*
G01*
X23760000Y-9256447D02*
G75*
G03*
X23760000Y-9256447I-85000J0D01*
G01*
X23760000Y-10956447D02*
G75*
G03*
X23760000Y-10956447I-85000J0D01*
G01*
X23760000Y-12656447D02*
G75*
G03*
X23760000Y-12656447I-85000J0D01*
G01*
X24460000Y-5856447D02*
G75*
G03*
X24460000Y-5856447I-85000J0D01*
G01*
X24460000Y-7556447D02*
G75*
G03*
X24460000Y-7556447I-85000J0D01*
G01*
X24460000Y-9256447D02*
G75*
G03*
X24460000Y-9256447I-85000J0D01*
G01*
X24460000Y-10956447D02*
G75*
G03*
X24460000Y-10956447I-85000J0D01*
G01*
X24460000Y-12656447D02*
G75*
G03*
X24460000Y-12656447I-85000J0D01*
G01*
X25560000Y-5856447D02*
G75*
G03*
X25560000Y-5856447I-85000J0D01*
G01*
X25560000Y-7556447D02*
G75*
G03*
X25560000Y-7556447I-85000J0D01*
G01*
X25560000Y-9256447D02*
G75*
G03*
X25560000Y-9256447I-85000J0D01*
G01*
X25560000Y-10956447D02*
G75*
G03*
X25560000Y-10956447I-85000J0D01*
G01*
X25560000Y-12656447D02*
G75*
G03*
X25560000Y-12656447I-85000J0D01*
G01*
D15*
X5125000Y-5686447D02*
X5125000Y-6026447D01*
X4955000Y-5856447D02*
X5295000Y-5856447D01*
X5125000Y-7386447D02*
X5125000Y-7726447D01*
X4955000Y-7556447D02*
X5295000Y-7556447D01*
X5125000Y-9086447D02*
X5125000Y-9426447D01*
X4955000Y-9256447D02*
X5295000Y-9256447D01*
X5125000Y-10786447D02*
X5125000Y-11126447D01*
X4955000Y-10956447D02*
X5295000Y-10956447D01*
X5125000Y-12486447D02*
X5125000Y-12826447D01*
X4955000Y-12656447D02*
X5295000Y-12656447D01*
X6925000Y-5686447D02*
X6925000Y-6026447D01*
X6755000Y-5856447D02*
X7095000Y-5856447D01*
X6925000Y-7386447D02*
X6925000Y-7726447D01*
X6755000Y-7556447D02*
X7095000Y-7556447D01*
X6925000Y-9086447D02*
X6925000Y-9426447D01*
X6755000Y-9256447D02*
X7095000Y-9256447D01*
X6925000Y-10786447D02*
X6925000Y-11126447D01*
X6755000Y-10956447D02*
X7095000Y-10956447D01*
X6925000Y-12486447D02*
X6925000Y-12826447D01*
X6755000Y-12656447D02*
X7095000Y-12656447D01*
X8725000Y-5686447D02*
X8725000Y-6026447D01*
X8555000Y-5856447D02*
X8895000Y-5856447D01*
X8725000Y-7386447D02*
X8725000Y-7726447D01*
X8555000Y-7556447D02*
X8895000Y-7556447D01*
X8725000Y-9086447D02*
X8725000Y-9426447D01*
X8555000Y-9256447D02*
X8895000Y-9256447D01*
X8725000Y-10786447D02*
X8725000Y-11126447D01*
X8555000Y-10956447D02*
X8895000Y-10956447D01*
X8725000Y-12486447D02*
X8725000Y-12826447D01*
X8555000Y-12656447D02*
X8895000Y-12656447D01*
X10525000Y-5686447D02*
X10525000Y-6026447D01*
X10355000Y-5856447D02*
X10695000Y-5856447D01*
X10525000Y-7386447D02*
X10525000Y-7726447D01*
X10355000Y-7556447D02*
X10695000Y-7556447D01*
X10525000Y-9086447D02*
X10525000Y-9426447D01*
X10355000Y-9256447D02*
X10695000Y-9256447D01*
X10525000Y-10786447D02*
X10525000Y-11126447D01*
X10355000Y-10956447D02*
X10695000Y-10956447D01*
X10525000Y-12486447D02*
X10525000Y-12826447D01*
X10355000Y-12656447D02*
X10695000Y-12656447D01*
X12325000Y-5686447D02*
X12325000Y-6026447D01*
X12155000Y-5856447D02*
X12495000Y-5856447D01*
X12325000Y-7386447D02*
X12325000Y-7726447D01*
X12155000Y-7556447D02*
X12495000Y-7556447D01*
X12325000Y-9086447D02*
X12325000Y-9426447D01*
X12155000Y-9256447D02*
X12495000Y-9256447D01*
X12325000Y-10786447D02*
X12325000Y-11126447D01*
X12155000Y-10956447D02*
X12495000Y-10956447D01*
X12325000Y-12486447D02*
X12325000Y-12826447D01*
X12155000Y-12656447D02*
X12495000Y-12656447D01*
X14125000Y-5686447D02*
X14125000Y-6026447D01*
X13955000Y-5856447D02*
X14295000Y-5856447D01*
X14125000Y-7386447D02*
X14125000Y-7726447D01*
X13955000Y-7556447D02*
X14295000Y-7556447D01*
X14125000Y-9086447D02*
X14125000Y-9426447D01*
X13955000Y-9256447D02*
X14295000Y-9256447D01*
X14125000Y-10786447D02*
X14125000Y-11126447D01*
X13955000Y-10956447D02*
X14295000Y-10956447D01*
X14125000Y-12486447D02*
X14125000Y-12826447D01*
X13955000Y-12656447D02*
X14295000Y-12656447D01*
X15925000Y-5686447D02*
X15925000Y-6026447D01*
X15755000Y-5856447D02*
X16095000Y-5856447D01*
X15925000Y-7386447D02*
X15925000Y-7726447D01*
X15755000Y-7556447D02*
X16095000Y-7556447D01*
X15925000Y-9086447D02*
X15925000Y-9426447D01*
X15755000Y-9256447D02*
X16095000Y-9256447D01*
X15925000Y-10786447D02*
X15925000Y-11126447D01*
X15755000Y-10956447D02*
X16095000Y-10956447D01*
X15925000Y-12486447D02*
X15925000Y-12826447D01*
X15755000Y-12656447D02*
X16095000Y-12656447D01*
X17725000Y-5686447D02*
X17725000Y-6026447D01*
X17555000Y-5856447D02*
X17895000Y-5856447D01*
X17725000Y-7386447D02*
X17725000Y-7726447D01*
X17555000Y-7556447D02*
X17895000Y-7556447D01*
X17725000Y-9086447D02*
X17725000Y-9426447D01*
X17555000Y-9256447D02*
X17895000Y-9256447D01*
X17725000Y-10786447D02*
X17725000Y-11126447D01*
X17555000Y-10956447D02*
X17895000Y-10956447D01*
X17725000Y-12486447D02*
X17725000Y-12826447D01*
X17555000Y-12656447D02*
X17895000Y-12656447D01*
X19525000Y-5686447D02*
X19525000Y-6026447D01*
X19355000Y-5856447D02*
X19695000Y-5856447D01*
X19525000Y-7386447D02*
X19525000Y-7726447D01*
X19355000Y-7556447D02*
X19695000Y-7556447D01*
X19525000Y-9086447D02*
X19525000Y-9426447D01*
X19355000Y-9256447D02*
X19695000Y-9256447D01*
X19525000Y-10786447D02*
X19525000Y-11126447D01*
X19355000Y-10956447D02*
X19695000Y-10956447D01*
X19525000Y-12486447D02*
X19525000Y-12826447D01*
X19355000Y-12656447D02*
X19695000Y-12656447D01*
X21325000Y-5686447D02*
X21325000Y-6026447D01*
X21155000Y-5856447D02*
X21495000Y-5856447D01*
X21325000Y-7386447D02*
X21325000Y-7726447D01*
X21155000Y-7556447D02*
X21495000Y-7556447D01*
X21325000Y-9086447D02*
X21325000Y-9426447D01*
X21155000Y-9256447D02*
X21495000Y-9256447D01*
X21325000Y-10786447D02*
X21325000Y-11126447D01*
X21155000Y-10956447D02*
X21495000Y-10956447D01*
X21325000Y-12486447D02*
X21325000Y-12826447D01*
X21155000Y-12656447D02*
X21495000Y-12656447D01*
X23125000Y-5686447D02*
X23125000Y-6026447D01*
X22955000Y-5856447D02*
X23295000Y-5856447D01*
X23125000Y-7386447D02*
X23125000Y-7726447D01*
X22955000Y-7556447D02*
X23295000Y-7556447D01*
X23125000Y-9086447D02*
X23125000Y-9426447D01*
X22955000Y-9256447D02*
X23295000Y-9256447D01*
X23125000Y-10786447D02*
X23125000Y-11126447D01*
X22955000Y-10956447D02*
X23295000Y-10956447D01*
X23125000Y-12486447D02*
X23125000Y-12826447D01*
X22955000Y-12656447D02*
X23295000Y-12656447D01*
X24925000Y-5686447D02*
X24925000Y-6026447D01*
X24755000Y-5856447D02*
X25095000Y-5856447D01*
X24925000Y-7386447D02*
X24925000Y-7726447D01*
X24755000Y-7556447D02*
X25095000Y-7556447D01*
X24925000Y-9086447D02*
X24925000Y-9426447D01*
X24755000Y-9256447D02*
X25095000Y-9256447D01*
X24925000Y-10786447D02*
X24925000Y-11126447D01*
X24755000Y-10956447D02*
X25095000Y-10956447D01*
X24925000Y-12486447D02*
X24925000Y-12826447D01*
X24755000Y-12656447D02*
X25095000Y-12656447D01*
D16*
X6148745Y-11955191D02*
X6148745Y-11707702D01*
X5901255Y-11707702D01*
X5901255Y-11955191D01*
X6148745Y-11955191D01*
X6173745Y-6805191D02*
X6173745Y-6557702D01*
X5926255Y-6557702D01*
X5926255Y-6805191D01*
X6173745Y-6805191D01*
X11548745Y-6805191D02*
X11548745Y-6557702D01*
X11301255Y-6557702D01*
X11301255Y-6805191D01*
X11548745Y-6805191D01*
X11548745Y-11930191D02*
X11548745Y-11682702D01*
X11301255Y-11682702D01*
X11301255Y-11930191D01*
X11548745Y-11930191D01*
X16948745Y-11930191D02*
X16948745Y-11682702D01*
X16701255Y-11682702D01*
X16701255Y-11930191D01*
X16948745Y-11930191D01*
X16973745Y-6805191D02*
X16973745Y-6557702D01*
X16726255Y-6557702D01*
X16726255Y-6805191D01*
X16973745Y-6805191D01*
X24148745Y-6880191D02*
X24148745Y-6632702D01*
X23901255Y-6632702D01*
X23901255Y-6880191D01*
X24148745Y-6880191D01*
X24148745Y-11930191D02*
X24148745Y-11682702D01*
X23901255Y-11682702D01*
X23901255Y-11930191D01*
X24148745Y-11930191D01*
D12*
X4483277Y-13820430D02*
X4483277Y-13620430D01*
X4483277Y-13620430D02*
X4530896Y-13620430D01*
X4530896Y-13620430D02*
X4559467Y-13629954D01*
X4559467Y-13629954D02*
X4578515Y-13649002D01*
X4578515Y-13649002D02*
X4588039Y-13668049D01*
X4588039Y-13668049D02*
X4597563Y-13706145D01*
X4597563Y-13706145D02*
X4597563Y-13734716D01*
X4597563Y-13734716D02*
X4588039Y-13772811D01*
X4588039Y-13772811D02*
X4578515Y-13791859D01*
X4578515Y-13791859D02*
X4559467Y-13810907D01*
X4559467Y-13810907D02*
X4530896Y-13820430D01*
X4530896Y-13820430D02*
X4483277Y-13820430D01*
X4683277Y-13820430D02*
X4683277Y-13687097D01*
X4683277Y-13725192D02*
X4692801Y-13706145D01*
X4692801Y-13706145D02*
X4702324Y-13696621D01*
X4702324Y-13696621D02*
X4721372Y-13687097D01*
X4721372Y-13687097D02*
X4740420Y-13687097D01*
X4807086Y-13820430D02*
X4807086Y-13687097D01*
X4807086Y-13620430D02*
X4797563Y-13629954D01*
X4797563Y-13629954D02*
X4807086Y-13639478D01*
X4807086Y-13639478D02*
X4816610Y-13629954D01*
X4816610Y-13629954D02*
X4807086Y-13620430D01*
X4807086Y-13620430D02*
X4807086Y-13639478D01*
X4930896Y-13820430D02*
X4911848Y-13810907D01*
X4911848Y-13810907D02*
X4902324Y-13791859D01*
X4902324Y-13791859D02*
X4902324Y-13620430D01*
X5035658Y-13820430D02*
X5016610Y-13810907D01*
X5016610Y-13810907D02*
X5007086Y-13791859D01*
X5007086Y-13791859D02*
X5007086Y-13620430D01*
X5264229Y-13820430D02*
X5264229Y-13620430D01*
X5264229Y-13620430D02*
X5330896Y-13763287D01*
X5330896Y-13763287D02*
X5397563Y-13620430D01*
X5397563Y-13620430D02*
X5397563Y-13820430D01*
X5578515Y-13820430D02*
X5578515Y-13715668D01*
X5578515Y-13715668D02*
X5568991Y-13696621D01*
X5568991Y-13696621D02*
X5549944Y-13687097D01*
X5549944Y-13687097D02*
X5511848Y-13687097D01*
X5511848Y-13687097D02*
X5492801Y-13696621D01*
X5578515Y-13810907D02*
X5559467Y-13820430D01*
X5559467Y-13820430D02*
X5511848Y-13820430D01*
X5511848Y-13820430D02*
X5492801Y-13810907D01*
X5492801Y-13810907D02*
X5483277Y-13791859D01*
X5483277Y-13791859D02*
X5483277Y-13772811D01*
X5483277Y-13772811D02*
X5492801Y-13753764D01*
X5492801Y-13753764D02*
X5511848Y-13744240D01*
X5511848Y-13744240D02*
X5559467Y-13744240D01*
X5559467Y-13744240D02*
X5578515Y-13734716D01*
X5673753Y-13687097D02*
X5673753Y-13887097D01*
X5673753Y-13696621D02*
X5692801Y-13687097D01*
X5692801Y-13687097D02*
X5730896Y-13687097D01*
X5730896Y-13687097D02*
X5749943Y-13696621D01*
X5749943Y-13696621D02*
X5759467Y-13706145D01*
X5759467Y-13706145D02*
X5768991Y-13725192D01*
X5768991Y-13725192D02*
X5768991Y-13782335D01*
X5768991Y-13782335D02*
X5759467Y-13801383D01*
X5759467Y-13801383D02*
X5749943Y-13810907D01*
X5749943Y-13810907D02*
X5730896Y-13820430D01*
X5730896Y-13820430D02*
X5692801Y-13820430D01*
X5692801Y-13820430D02*
X5673753Y-13810907D01*
X5854705Y-13801383D02*
X5864229Y-13810907D01*
X5864229Y-13810907D02*
X5854705Y-13820430D01*
X5854705Y-13820430D02*
X5845182Y-13810907D01*
X5845182Y-13810907D02*
X5854705Y-13801383D01*
X5854705Y-13801383D02*
X5854705Y-13820430D01*
X5854705Y-13696621D02*
X5864229Y-13706145D01*
X5864229Y-13706145D02*
X5854705Y-13715668D01*
X5854705Y-13715668D02*
X5845182Y-13706145D01*
X5845182Y-13706145D02*
X5854705Y-13696621D01*
X5854705Y-13696621D02*
X5854705Y-13715668D01*
D13*
X4072500Y-14073947D02*
X4222500Y-14223947D01*
X4222500Y-14073947D02*
X4072500Y-14223947D01*
D12*
X4588039Y-14240430D02*
X4473753Y-14240430D01*
X4530896Y-14240430D02*
X4530896Y-14040430D01*
X4530896Y-14040430D02*
X4511848Y-14069002D01*
X4511848Y-14069002D02*
X4492801Y-14088049D01*
X4492801Y-14088049D02*
X4473753Y-14097573D01*
X4673753Y-14221383D02*
X4683277Y-14230907D01*
X4683277Y-14230907D02*
X4673753Y-14240430D01*
X4673753Y-14240430D02*
X4664229Y-14230907D01*
X4664229Y-14230907D02*
X4673753Y-14221383D01*
X4673753Y-14221383D02*
X4673753Y-14240430D01*
X4864229Y-14040430D02*
X4768991Y-14040430D01*
X4768991Y-14040430D02*
X4759467Y-14135668D01*
X4759467Y-14135668D02*
X4768991Y-14126145D01*
X4768991Y-14126145D02*
X4788039Y-14116621D01*
X4788039Y-14116621D02*
X4835658Y-14116621D01*
X4835658Y-14116621D02*
X4854705Y-14126145D01*
X4854705Y-14126145D02*
X4864229Y-14135668D01*
X4864229Y-14135668D02*
X4873753Y-14154716D01*
X4873753Y-14154716D02*
X4873753Y-14202335D01*
X4873753Y-14202335D02*
X4864229Y-14221383D01*
X4864229Y-14221383D02*
X4854705Y-14230907D01*
X4854705Y-14230907D02*
X4835658Y-14240430D01*
X4835658Y-14240430D02*
X4788039Y-14240430D01*
X4788039Y-14240430D02*
X4768991Y-14230907D01*
X4768991Y-14230907D02*
X4759467Y-14221383D01*
X4997563Y-14040430D02*
X5016610Y-14040430D01*
X5016610Y-14040430D02*
X5035658Y-14049954D01*
X5035658Y-14049954D02*
X5045182Y-14059478D01*
X5045182Y-14059478D02*
X5054705Y-14078526D01*
X5054705Y-14078526D02*
X5064229Y-14116621D01*
X5064229Y-14116621D02*
X5064229Y-14164240D01*
X5064229Y-14164240D02*
X5054705Y-14202335D01*
X5054705Y-14202335D02*
X5045182Y-14221383D01*
X5045182Y-14221383D02*
X5035658Y-14230907D01*
X5035658Y-14230907D02*
X5016610Y-14240430D01*
X5016610Y-14240430D02*
X4997563Y-14240430D01*
X4997563Y-14240430D02*
X4978515Y-14230907D01*
X4978515Y-14230907D02*
X4968991Y-14221383D01*
X4968991Y-14221383D02*
X4959467Y-14202335D01*
X4959467Y-14202335D02*
X4949944Y-14164240D01*
X4949944Y-14164240D02*
X4949944Y-14116621D01*
X4949944Y-14116621D02*
X4959467Y-14078526D01*
X4959467Y-14078526D02*
X4968991Y-14059478D01*
X4968991Y-14059478D02*
X4978515Y-14049954D01*
X4978515Y-14049954D02*
X4997563Y-14040430D01*
X5188039Y-14040430D02*
X5207086Y-14040430D01*
X5207086Y-14040430D02*
X5226134Y-14049954D01*
X5226134Y-14049954D02*
X5235658Y-14059478D01*
X5235658Y-14059478D02*
X5245182Y-14078526D01*
X5245182Y-14078526D02*
X5254705Y-14116621D01*
X5254705Y-14116621D02*
X5254705Y-14164240D01*
X5254705Y-14164240D02*
X5245182Y-14202335D01*
X5245182Y-14202335D02*
X5235658Y-14221383D01*
X5235658Y-14221383D02*
X5226134Y-14230907D01*
X5226134Y-14230907D02*
X5207086Y-14240430D01*
X5207086Y-14240430D02*
X5188039Y-14240430D01*
X5188039Y-14240430D02*
X5168991Y-14230907D01*
X5168991Y-14230907D02*
X5159467Y-14221383D01*
X5159467Y-14221383D02*
X5149944Y-14202335D01*
X5149944Y-14202335D02*
X5140420Y-14164240D01*
X5140420Y-14164240D02*
X5140420Y-14116621D01*
X5140420Y-14116621D02*
X5149944Y-14078526D01*
X5149944Y-14078526D02*
X5159467Y-14059478D01*
X5159467Y-14059478D02*
X5168991Y-14049954D01*
X5168991Y-14049954D02*
X5188039Y-14040430D01*
X5340420Y-14240430D02*
X5340420Y-14107097D01*
X5340420Y-14126145D02*
X5349944Y-14116621D01*
X5349944Y-14116621D02*
X5368991Y-14107097D01*
X5368991Y-14107097D02*
X5397563Y-14107097D01*
X5397563Y-14107097D02*
X5416610Y-14116621D01*
X5416610Y-14116621D02*
X5426134Y-14135668D01*
X5426134Y-14135668D02*
X5426134Y-14240430D01*
X5426134Y-14135668D02*
X5435658Y-14116621D01*
X5435658Y-14116621D02*
X5454705Y-14107097D01*
X5454705Y-14107097D02*
X5483277Y-14107097D01*
X5483277Y-14107097D02*
X5502325Y-14116621D01*
X5502325Y-14116621D02*
X5511848Y-14135668D01*
X5511848Y-14135668D02*
X5511848Y-14240430D01*
X5607086Y-14240430D02*
X5607086Y-14107097D01*
X5607086Y-14126145D02*
X5616610Y-14116621D01*
X5616610Y-14116621D02*
X5635658Y-14107097D01*
X5635658Y-14107097D02*
X5664229Y-14107097D01*
X5664229Y-14107097D02*
X5683277Y-14116621D01*
X5683277Y-14116621D02*
X5692801Y-14135668D01*
X5692801Y-14135668D02*
X5692801Y-14240430D01*
X5692801Y-14135668D02*
X5702324Y-14116621D01*
X5702324Y-14116621D02*
X5721372Y-14107097D01*
X5721372Y-14107097D02*
X5749943Y-14107097D01*
X5749943Y-14107097D02*
X5768991Y-14116621D01*
X5768991Y-14116621D02*
X5778515Y-14135668D01*
X5778515Y-14135668D02*
X5778515Y-14240430D01*
X6168991Y-14030907D02*
X5997563Y-14288049D01*
X6426134Y-14040430D02*
X6445182Y-14040430D01*
X6445182Y-14040430D02*
X6464229Y-14049954D01*
X6464229Y-14049954D02*
X6473753Y-14059478D01*
X6473753Y-14059478D02*
X6483277Y-14078526D01*
X6483277Y-14078526D02*
X6492801Y-14116621D01*
X6492801Y-14116621D02*
X6492801Y-14164240D01*
X6492801Y-14164240D02*
X6483277Y-14202335D01*
X6483277Y-14202335D02*
X6473753Y-14221383D01*
X6473753Y-14221383D02*
X6464229Y-14230907D01*
X6464229Y-14230907D02*
X6445182Y-14240430D01*
X6445182Y-14240430D02*
X6426134Y-14240430D01*
X6426134Y-14240430D02*
X6407086Y-14230907D01*
X6407086Y-14230907D02*
X6397563Y-14221383D01*
X6397563Y-14221383D02*
X6388039Y-14202335D01*
X6388039Y-14202335D02*
X6378515Y-14164240D01*
X6378515Y-14164240D02*
X6378515Y-14116621D01*
X6378515Y-14116621D02*
X6388039Y-14078526D01*
X6388039Y-14078526D02*
X6397563Y-14059478D01*
X6397563Y-14059478D02*
X6407086Y-14049954D01*
X6407086Y-14049954D02*
X6426134Y-14040430D01*
X6578515Y-14221383D02*
X6588039Y-14230907D01*
X6588039Y-14230907D02*
X6578515Y-14240430D01*
X6578515Y-14240430D02*
X6568991Y-14230907D01*
X6568991Y-14230907D02*
X6578515Y-14221383D01*
X6578515Y-14221383D02*
X6578515Y-14240430D01*
X6711848Y-14040430D02*
X6730896Y-14040430D01*
X6730896Y-14040430D02*
X6749944Y-14049954D01*
X6749944Y-14049954D02*
X6759467Y-14059478D01*
X6759467Y-14059478D02*
X6768991Y-14078526D01*
X6768991Y-14078526D02*
X6778515Y-14116621D01*
X6778515Y-14116621D02*
X6778515Y-14164240D01*
X6778515Y-14164240D02*
X6768991Y-14202335D01*
X6768991Y-14202335D02*
X6759467Y-14221383D01*
X6759467Y-14221383D02*
X6749944Y-14230907D01*
X6749944Y-14230907D02*
X6730896Y-14240430D01*
X6730896Y-14240430D02*
X6711848Y-14240430D01*
X6711848Y-14240430D02*
X6692801Y-14230907D01*
X6692801Y-14230907D02*
X6683277Y-14221383D01*
X6683277Y-14221383D02*
X6673753Y-14202335D01*
X6673753Y-14202335D02*
X6664229Y-14164240D01*
X6664229Y-14164240D02*
X6664229Y-14116621D01*
X6664229Y-14116621D02*
X6673753Y-14078526D01*
X6673753Y-14078526D02*
X6683277Y-14059478D01*
X6683277Y-14059478D02*
X6692801Y-14049954D01*
X6692801Y-14049954D02*
X6711848Y-14040430D01*
X6959467Y-14040430D02*
X6864229Y-14040430D01*
X6864229Y-14040430D02*
X6854706Y-14135668D01*
X6854706Y-14135668D02*
X6864229Y-14126145D01*
X6864229Y-14126145D02*
X6883277Y-14116621D01*
X6883277Y-14116621D02*
X6930896Y-14116621D01*
X6930896Y-14116621D02*
X6949944Y-14126145D01*
X6949944Y-14126145D02*
X6959467Y-14135668D01*
X6959467Y-14135668D02*
X6968991Y-14154716D01*
X6968991Y-14154716D02*
X6968991Y-14202335D01*
X6968991Y-14202335D02*
X6959467Y-14221383D01*
X6959467Y-14221383D02*
X6949944Y-14230907D01*
X6949944Y-14230907D02*
X6930896Y-14240430D01*
X6930896Y-14240430D02*
X6883277Y-14240430D01*
X6883277Y-14240430D02*
X6864229Y-14230907D01*
X6864229Y-14230907D02*
X6854706Y-14221383D01*
X7064229Y-14240430D02*
X7102325Y-14240430D01*
X7102325Y-14240430D02*
X7121372Y-14230907D01*
X7121372Y-14230907D02*
X7130896Y-14221383D01*
X7130896Y-14221383D02*
X7149944Y-14192811D01*
X7149944Y-14192811D02*
X7159467Y-14154716D01*
X7159467Y-14154716D02*
X7159467Y-14078526D01*
X7159467Y-14078526D02*
X7149944Y-14059478D01*
X7149944Y-14059478D02*
X7140420Y-14049954D01*
X7140420Y-14049954D02*
X7121372Y-14040430D01*
X7121372Y-14040430D02*
X7083277Y-14040430D01*
X7083277Y-14040430D02*
X7064229Y-14049954D01*
X7064229Y-14049954D02*
X7054706Y-14059478D01*
X7054706Y-14059478D02*
X7045182Y-14078526D01*
X7045182Y-14078526D02*
X7045182Y-14126145D01*
X7045182Y-14126145D02*
X7054706Y-14145192D01*
X7054706Y-14145192D02*
X7064229Y-14154716D01*
X7064229Y-14154716D02*
X7083277Y-14164240D01*
X7083277Y-14164240D02*
X7121372Y-14164240D01*
X7121372Y-14164240D02*
X7140420Y-14154716D01*
X7140420Y-14154716D02*
X7149944Y-14145192D01*
X7149944Y-14145192D02*
X7159467Y-14126145D01*
X7349944Y-14240430D02*
X7235658Y-14240430D01*
X7292801Y-14240430D02*
X7292801Y-14040430D01*
X7292801Y-14040430D02*
X7273753Y-14069002D01*
X7273753Y-14069002D02*
X7254706Y-14088049D01*
X7254706Y-14088049D02*
X7235658Y-14097573D01*
X7426134Y-14040430D02*
X7426134Y-14078526D01*
X7502325Y-14040430D02*
X7502325Y-14078526D01*
X7797563Y-14316621D02*
X7788039Y-14307097D01*
X7788039Y-14307097D02*
X7768991Y-14278526D01*
X7768991Y-14278526D02*
X7759468Y-14259478D01*
X7759468Y-14259478D02*
X7749944Y-14230907D01*
X7749944Y-14230907D02*
X7740420Y-14183287D01*
X7740420Y-14183287D02*
X7740420Y-14145192D01*
X7740420Y-14145192D02*
X7749944Y-14097573D01*
X7749944Y-14097573D02*
X7759468Y-14069002D01*
X7759468Y-14069002D02*
X7768991Y-14049954D01*
X7768991Y-14049954D02*
X7788039Y-14021383D01*
X7788039Y-14021383D02*
X7797563Y-14011859D01*
X7959468Y-14107097D02*
X7959468Y-14240430D01*
X7911848Y-14030907D02*
X7864229Y-14173764D01*
X7864229Y-14173764D02*
X7988039Y-14173764D01*
X8216610Y-14240430D02*
X8216610Y-14040430D01*
X8302325Y-14240430D02*
X8302325Y-14135668D01*
X8302325Y-14135668D02*
X8292801Y-14116621D01*
X8292801Y-14116621D02*
X8273753Y-14107097D01*
X8273753Y-14107097D02*
X8245182Y-14107097D01*
X8245182Y-14107097D02*
X8226134Y-14116621D01*
X8226134Y-14116621D02*
X8216610Y-14126145D01*
X8426134Y-14240430D02*
X8407087Y-14230907D01*
X8407087Y-14230907D02*
X8397563Y-14221383D01*
X8397563Y-14221383D02*
X8388039Y-14202335D01*
X8388039Y-14202335D02*
X8388039Y-14145192D01*
X8388039Y-14145192D02*
X8397563Y-14126145D01*
X8397563Y-14126145D02*
X8407087Y-14116621D01*
X8407087Y-14116621D02*
X8426134Y-14107097D01*
X8426134Y-14107097D02*
X8454706Y-14107097D01*
X8454706Y-14107097D02*
X8473753Y-14116621D01*
X8473753Y-14116621D02*
X8483277Y-14126145D01*
X8483277Y-14126145D02*
X8492801Y-14145192D01*
X8492801Y-14145192D02*
X8492801Y-14202335D01*
X8492801Y-14202335D02*
X8483277Y-14221383D01*
X8483277Y-14221383D02*
X8473753Y-14230907D01*
X8473753Y-14230907D02*
X8454706Y-14240430D01*
X8454706Y-14240430D02*
X8426134Y-14240430D01*
X8607087Y-14240430D02*
X8588039Y-14230907D01*
X8588039Y-14230907D02*
X8578515Y-14211859D01*
X8578515Y-14211859D02*
X8578515Y-14040430D01*
X8759468Y-14230907D02*
X8740420Y-14240430D01*
X8740420Y-14240430D02*
X8702325Y-14240430D01*
X8702325Y-14240430D02*
X8683277Y-14230907D01*
X8683277Y-14230907D02*
X8673753Y-14211859D01*
X8673753Y-14211859D02*
X8673753Y-14135668D01*
X8673753Y-14135668D02*
X8683277Y-14116621D01*
X8683277Y-14116621D02*
X8702325Y-14107097D01*
X8702325Y-14107097D02*
X8740420Y-14107097D01*
X8740420Y-14107097D02*
X8759468Y-14116621D01*
X8759468Y-14116621D02*
X8768992Y-14135668D01*
X8768992Y-14135668D02*
X8768992Y-14154716D01*
X8768992Y-14154716D02*
X8673753Y-14173764D01*
X8845182Y-14230907D02*
X8864230Y-14240430D01*
X8864230Y-14240430D02*
X8902325Y-14240430D01*
X8902325Y-14240430D02*
X8921373Y-14230907D01*
X8921373Y-14230907D02*
X8930896Y-14211859D01*
X8930896Y-14211859D02*
X8930896Y-14202335D01*
X8930896Y-14202335D02*
X8921373Y-14183287D01*
X8921373Y-14183287D02*
X8902325Y-14173764D01*
X8902325Y-14173764D02*
X8873753Y-14173764D01*
X8873753Y-14173764D02*
X8854706Y-14164240D01*
X8854706Y-14164240D02*
X8845182Y-14145192D01*
X8845182Y-14145192D02*
X8845182Y-14135668D01*
X8845182Y-14135668D02*
X8854706Y-14116621D01*
X8854706Y-14116621D02*
X8873753Y-14107097D01*
X8873753Y-14107097D02*
X8902325Y-14107097D01*
X8902325Y-14107097D02*
X8921373Y-14116621D01*
X8997563Y-14316621D02*
X9007087Y-14307097D01*
X9007087Y-14307097D02*
X9026134Y-14278526D01*
X9026134Y-14278526D02*
X9035658Y-14259478D01*
X9035658Y-14259478D02*
X9045182Y-14230907D01*
X9045182Y-14230907D02*
X9054706Y-14183287D01*
X9054706Y-14183287D02*
X9054706Y-14145192D01*
X9054706Y-14145192D02*
X9045182Y-14097573D01*
X9045182Y-14097573D02*
X9035658Y-14069002D01*
X9035658Y-14069002D02*
X9026134Y-14049954D01*
X9026134Y-14049954D02*
X9007087Y-14021383D01*
X9007087Y-14021383D02*
X8997563Y-14011859D01*
X9359468Y-14316621D02*
X9349944Y-14307097D01*
X9349944Y-14307097D02*
X9330896Y-14278526D01*
X9330896Y-14278526D02*
X9321373Y-14259478D01*
X9321373Y-14259478D02*
X9311849Y-14230907D01*
X9311849Y-14230907D02*
X9302325Y-14183287D01*
X9302325Y-14183287D02*
X9302325Y-14145192D01*
X9302325Y-14145192D02*
X9311849Y-14097573D01*
X9311849Y-14097573D02*
X9321373Y-14069002D01*
X9321373Y-14069002D02*
X9330896Y-14049954D01*
X9330896Y-14049954D02*
X9349944Y-14021383D01*
X9349944Y-14021383D02*
X9359468Y-14011859D01*
X9435658Y-14107097D02*
X9435658Y-14240430D01*
X9435658Y-14126145D02*
X9445182Y-14116621D01*
X9445182Y-14116621D02*
X9464230Y-14107097D01*
X9464230Y-14107097D02*
X9492801Y-14107097D01*
X9492801Y-14107097D02*
X9511849Y-14116621D01*
X9511849Y-14116621D02*
X9521373Y-14135668D01*
X9521373Y-14135668D02*
X9521373Y-14240430D01*
X9645182Y-14240430D02*
X9626134Y-14230907D01*
X9626134Y-14230907D02*
X9616611Y-14221383D01*
X9616611Y-14221383D02*
X9607087Y-14202335D01*
X9607087Y-14202335D02*
X9607087Y-14145192D01*
X9607087Y-14145192D02*
X9616611Y-14126145D01*
X9616611Y-14126145D02*
X9626134Y-14116621D01*
X9626134Y-14116621D02*
X9645182Y-14107097D01*
X9645182Y-14107097D02*
X9673754Y-14107097D01*
X9673754Y-14107097D02*
X9692801Y-14116621D01*
X9692801Y-14116621D02*
X9702325Y-14126145D01*
X9702325Y-14126145D02*
X9711849Y-14145192D01*
X9711849Y-14145192D02*
X9711849Y-14202335D01*
X9711849Y-14202335D02*
X9702325Y-14221383D01*
X9702325Y-14221383D02*
X9692801Y-14230907D01*
X9692801Y-14230907D02*
X9673754Y-14240430D01*
X9673754Y-14240430D02*
X9645182Y-14240430D01*
X9768992Y-14107097D02*
X9845182Y-14107097D01*
X9797563Y-14040430D02*
X9797563Y-14211859D01*
X9797563Y-14211859D02*
X9807087Y-14230907D01*
X9807087Y-14230907D02*
X9826134Y-14240430D01*
X9826134Y-14240430D02*
X9845182Y-14240430D01*
X10064230Y-14107097D02*
X10064230Y-14307097D01*
X10064230Y-14116621D02*
X10083277Y-14107097D01*
X10083277Y-14107097D02*
X10121373Y-14107097D01*
X10121373Y-14107097D02*
X10140420Y-14116621D01*
X10140420Y-14116621D02*
X10149944Y-14126145D01*
X10149944Y-14126145D02*
X10159468Y-14145192D01*
X10159468Y-14145192D02*
X10159468Y-14202335D01*
X10159468Y-14202335D02*
X10149944Y-14221383D01*
X10149944Y-14221383D02*
X10140420Y-14230907D01*
X10140420Y-14230907D02*
X10121373Y-14240430D01*
X10121373Y-14240430D02*
X10083277Y-14240430D01*
X10083277Y-14240430D02*
X10064230Y-14230907D01*
X10273754Y-14240430D02*
X10254706Y-14230907D01*
X10254706Y-14230907D02*
X10245182Y-14211859D01*
X10245182Y-14211859D02*
X10245182Y-14040430D01*
X10435658Y-14240430D02*
X10435658Y-14135668D01*
X10435658Y-14135668D02*
X10426135Y-14116621D01*
X10426135Y-14116621D02*
X10407087Y-14107097D01*
X10407087Y-14107097D02*
X10368992Y-14107097D01*
X10368992Y-14107097D02*
X10349944Y-14116621D01*
X10435658Y-14230907D02*
X10416611Y-14240430D01*
X10416611Y-14240430D02*
X10368992Y-14240430D01*
X10368992Y-14240430D02*
X10349944Y-14230907D01*
X10349944Y-14230907D02*
X10340420Y-14211859D01*
X10340420Y-14211859D02*
X10340420Y-14192811D01*
X10340420Y-14192811D02*
X10349944Y-14173764D01*
X10349944Y-14173764D02*
X10368992Y-14164240D01*
X10368992Y-14164240D02*
X10416611Y-14164240D01*
X10416611Y-14164240D02*
X10435658Y-14154716D01*
X10502325Y-14107097D02*
X10578515Y-14107097D01*
X10530896Y-14040430D02*
X10530896Y-14211859D01*
X10530896Y-14211859D02*
X10540420Y-14230907D01*
X10540420Y-14230907D02*
X10559468Y-14240430D01*
X10559468Y-14240430D02*
X10578515Y-14240430D01*
X10721373Y-14230907D02*
X10702325Y-14240430D01*
X10702325Y-14240430D02*
X10664230Y-14240430D01*
X10664230Y-14240430D02*
X10645182Y-14230907D01*
X10645182Y-14230907D02*
X10635658Y-14211859D01*
X10635658Y-14211859D02*
X10635658Y-14135668D01*
X10635658Y-14135668D02*
X10645182Y-14116621D01*
X10645182Y-14116621D02*
X10664230Y-14107097D01*
X10664230Y-14107097D02*
X10702325Y-14107097D01*
X10702325Y-14107097D02*
X10721373Y-14116621D01*
X10721373Y-14116621D02*
X10730896Y-14135668D01*
X10730896Y-14135668D02*
X10730896Y-14154716D01*
X10730896Y-14154716D02*
X10635658Y-14173764D01*
X10902325Y-14240430D02*
X10902325Y-14040430D01*
X10902325Y-14230907D02*
X10883277Y-14240430D01*
X10883277Y-14240430D02*
X10845182Y-14240430D01*
X10845182Y-14240430D02*
X10826135Y-14230907D01*
X10826135Y-14230907D02*
X10816611Y-14221383D01*
X10816611Y-14221383D02*
X10807087Y-14202335D01*
X10807087Y-14202335D02*
X10807087Y-14145192D01*
X10807087Y-14145192D02*
X10816611Y-14126145D01*
X10816611Y-14126145D02*
X10826135Y-14116621D01*
X10826135Y-14116621D02*
X10845182Y-14107097D01*
X10845182Y-14107097D02*
X10883277Y-14107097D01*
X10883277Y-14107097D02*
X10902325Y-14116621D01*
X10978516Y-14316621D02*
X10988039Y-14307097D01*
X10988039Y-14307097D02*
X11007087Y-14278526D01*
X11007087Y-14278526D02*
X11016611Y-14259478D01*
X11016611Y-14259478D02*
X11026135Y-14230907D01*
X11026135Y-14230907D02*
X11035658Y-14183287D01*
X11035658Y-14183287D02*
X11035658Y-14145192D01*
X11035658Y-14145192D02*
X11026135Y-14097573D01*
X11026135Y-14097573D02*
X11016611Y-14069002D01*
X11016611Y-14069002D02*
X11007087Y-14049954D01*
X11007087Y-14049954D02*
X10988039Y-14021383D01*
X10988039Y-14021383D02*
X10978516Y-14011859D01*
D14*
X4222500Y-14418947D02*
G75*
G03*
X4222500Y-14418947I-85000J0D01*
G01*
D12*
X4588039Y-14510430D02*
X4473753Y-14510430D01*
X4530896Y-14510430D02*
X4530896Y-14310430D01*
X4530896Y-14310430D02*
X4511848Y-14339002D01*
X4511848Y-14339002D02*
X4492801Y-14358049D01*
X4492801Y-14358049D02*
X4473753Y-14367573D01*
X4673753Y-14491383D02*
X4683277Y-14500907D01*
X4683277Y-14500907D02*
X4673753Y-14510430D01*
X4673753Y-14510430D02*
X4664229Y-14500907D01*
X4664229Y-14500907D02*
X4673753Y-14491383D01*
X4673753Y-14491383D02*
X4673753Y-14510430D01*
X4749944Y-14310430D02*
X4883277Y-14310430D01*
X4883277Y-14310430D02*
X4797563Y-14510430D01*
X4997563Y-14310430D02*
X5016610Y-14310430D01*
X5016610Y-14310430D02*
X5035658Y-14319954D01*
X5035658Y-14319954D02*
X5045182Y-14329478D01*
X5045182Y-14329478D02*
X5054705Y-14348526D01*
X5054705Y-14348526D02*
X5064229Y-14386621D01*
X5064229Y-14386621D02*
X5064229Y-14434240D01*
X5064229Y-14434240D02*
X5054705Y-14472335D01*
X5054705Y-14472335D02*
X5045182Y-14491383D01*
X5045182Y-14491383D02*
X5035658Y-14500907D01*
X5035658Y-14500907D02*
X5016610Y-14510430D01*
X5016610Y-14510430D02*
X4997563Y-14510430D01*
X4997563Y-14510430D02*
X4978515Y-14500907D01*
X4978515Y-14500907D02*
X4968991Y-14491383D01*
X4968991Y-14491383D02*
X4959467Y-14472335D01*
X4959467Y-14472335D02*
X4949944Y-14434240D01*
X4949944Y-14434240D02*
X4949944Y-14386621D01*
X4949944Y-14386621D02*
X4959467Y-14348526D01*
X4959467Y-14348526D02*
X4968991Y-14329478D01*
X4968991Y-14329478D02*
X4978515Y-14319954D01*
X4978515Y-14319954D02*
X4997563Y-14310430D01*
X5188039Y-14310430D02*
X5207086Y-14310430D01*
X5207086Y-14310430D02*
X5226134Y-14319954D01*
X5226134Y-14319954D02*
X5235658Y-14329478D01*
X5235658Y-14329478D02*
X5245182Y-14348526D01*
X5245182Y-14348526D02*
X5254705Y-14386621D01*
X5254705Y-14386621D02*
X5254705Y-14434240D01*
X5254705Y-14434240D02*
X5245182Y-14472335D01*
X5245182Y-14472335D02*
X5235658Y-14491383D01*
X5235658Y-14491383D02*
X5226134Y-14500907D01*
X5226134Y-14500907D02*
X5207086Y-14510430D01*
X5207086Y-14510430D02*
X5188039Y-14510430D01*
X5188039Y-14510430D02*
X5168991Y-14500907D01*
X5168991Y-14500907D02*
X5159467Y-14491383D01*
X5159467Y-14491383D02*
X5149944Y-14472335D01*
X5149944Y-14472335D02*
X5140420Y-14434240D01*
X5140420Y-14434240D02*
X5140420Y-14386621D01*
X5140420Y-14386621D02*
X5149944Y-14348526D01*
X5149944Y-14348526D02*
X5159467Y-14329478D01*
X5159467Y-14329478D02*
X5168991Y-14319954D01*
X5168991Y-14319954D02*
X5188039Y-14310430D01*
X5340420Y-14510430D02*
X5340420Y-14377097D01*
X5340420Y-14396145D02*
X5349944Y-14386621D01*
X5349944Y-14386621D02*
X5368991Y-14377097D01*
X5368991Y-14377097D02*
X5397563Y-14377097D01*
X5397563Y-14377097D02*
X5416610Y-14386621D01*
X5416610Y-14386621D02*
X5426134Y-14405668D01*
X5426134Y-14405668D02*
X5426134Y-14510430D01*
X5426134Y-14405668D02*
X5435658Y-14386621D01*
X5435658Y-14386621D02*
X5454705Y-14377097D01*
X5454705Y-14377097D02*
X5483277Y-14377097D01*
X5483277Y-14377097D02*
X5502325Y-14386621D01*
X5502325Y-14386621D02*
X5511848Y-14405668D01*
X5511848Y-14405668D02*
X5511848Y-14510430D01*
X5607086Y-14510430D02*
X5607086Y-14377097D01*
X5607086Y-14396145D02*
X5616610Y-14386621D01*
X5616610Y-14386621D02*
X5635658Y-14377097D01*
X5635658Y-14377097D02*
X5664229Y-14377097D01*
X5664229Y-14377097D02*
X5683277Y-14386621D01*
X5683277Y-14386621D02*
X5692801Y-14405668D01*
X5692801Y-14405668D02*
X5692801Y-14510430D01*
X5692801Y-14405668D02*
X5702324Y-14386621D01*
X5702324Y-14386621D02*
X5721372Y-14377097D01*
X5721372Y-14377097D02*
X5749943Y-14377097D01*
X5749943Y-14377097D02*
X5768991Y-14386621D01*
X5768991Y-14386621D02*
X5778515Y-14405668D01*
X5778515Y-14405668D02*
X5778515Y-14510430D01*
X6168991Y-14300907D02*
X5997563Y-14558049D01*
X6426134Y-14310430D02*
X6445182Y-14310430D01*
X6445182Y-14310430D02*
X6464229Y-14319954D01*
X6464229Y-14319954D02*
X6473753Y-14329478D01*
X6473753Y-14329478D02*
X6483277Y-14348526D01*
X6483277Y-14348526D02*
X6492801Y-14386621D01*
X6492801Y-14386621D02*
X6492801Y-14434240D01*
X6492801Y-14434240D02*
X6483277Y-14472335D01*
X6483277Y-14472335D02*
X6473753Y-14491383D01*
X6473753Y-14491383D02*
X6464229Y-14500907D01*
X6464229Y-14500907D02*
X6445182Y-14510430D01*
X6445182Y-14510430D02*
X6426134Y-14510430D01*
X6426134Y-14510430D02*
X6407086Y-14500907D01*
X6407086Y-14500907D02*
X6397563Y-14491383D01*
X6397563Y-14491383D02*
X6388039Y-14472335D01*
X6388039Y-14472335D02*
X6378515Y-14434240D01*
X6378515Y-14434240D02*
X6378515Y-14386621D01*
X6378515Y-14386621D02*
X6388039Y-14348526D01*
X6388039Y-14348526D02*
X6397563Y-14329478D01*
X6397563Y-14329478D02*
X6407086Y-14319954D01*
X6407086Y-14319954D02*
X6426134Y-14310430D01*
X6578515Y-14491383D02*
X6588039Y-14500907D01*
X6588039Y-14500907D02*
X6578515Y-14510430D01*
X6578515Y-14510430D02*
X6568991Y-14500907D01*
X6568991Y-14500907D02*
X6578515Y-14491383D01*
X6578515Y-14491383D02*
X6578515Y-14510430D01*
X6711848Y-14310430D02*
X6730896Y-14310430D01*
X6730896Y-14310430D02*
X6749944Y-14319954D01*
X6749944Y-14319954D02*
X6759467Y-14329478D01*
X6759467Y-14329478D02*
X6768991Y-14348526D01*
X6768991Y-14348526D02*
X6778515Y-14386621D01*
X6778515Y-14386621D02*
X6778515Y-14434240D01*
X6778515Y-14434240D02*
X6768991Y-14472335D01*
X6768991Y-14472335D02*
X6759467Y-14491383D01*
X6759467Y-14491383D02*
X6749944Y-14500907D01*
X6749944Y-14500907D02*
X6730896Y-14510430D01*
X6730896Y-14510430D02*
X6711848Y-14510430D01*
X6711848Y-14510430D02*
X6692801Y-14500907D01*
X6692801Y-14500907D02*
X6683277Y-14491383D01*
X6683277Y-14491383D02*
X6673753Y-14472335D01*
X6673753Y-14472335D02*
X6664229Y-14434240D01*
X6664229Y-14434240D02*
X6664229Y-14386621D01*
X6664229Y-14386621D02*
X6673753Y-14348526D01*
X6673753Y-14348526D02*
X6683277Y-14329478D01*
X6683277Y-14329478D02*
X6692801Y-14319954D01*
X6692801Y-14319954D02*
X6711848Y-14310430D01*
X6949944Y-14310430D02*
X6911848Y-14310430D01*
X6911848Y-14310430D02*
X6892801Y-14319954D01*
X6892801Y-14319954D02*
X6883277Y-14329478D01*
X6883277Y-14329478D02*
X6864229Y-14358049D01*
X6864229Y-14358049D02*
X6854706Y-14396145D01*
X6854706Y-14396145D02*
X6854706Y-14472335D01*
X6854706Y-14472335D02*
X6864229Y-14491383D01*
X6864229Y-14491383D02*
X6873753Y-14500907D01*
X6873753Y-14500907D02*
X6892801Y-14510430D01*
X6892801Y-14510430D02*
X6930896Y-14510430D01*
X6930896Y-14510430D02*
X6949944Y-14500907D01*
X6949944Y-14500907D02*
X6959467Y-14491383D01*
X6959467Y-14491383D02*
X6968991Y-14472335D01*
X6968991Y-14472335D02*
X6968991Y-14424716D01*
X6968991Y-14424716D02*
X6959467Y-14405668D01*
X6959467Y-14405668D02*
X6949944Y-14396145D01*
X6949944Y-14396145D02*
X6930896Y-14386621D01*
X6930896Y-14386621D02*
X6892801Y-14386621D01*
X6892801Y-14386621D02*
X6873753Y-14396145D01*
X6873753Y-14396145D02*
X6864229Y-14405668D01*
X6864229Y-14405668D02*
X6854706Y-14424716D01*
X7140420Y-14310430D02*
X7102325Y-14310430D01*
X7102325Y-14310430D02*
X7083277Y-14319954D01*
X7083277Y-14319954D02*
X7073753Y-14329478D01*
X7073753Y-14329478D02*
X7054706Y-14358049D01*
X7054706Y-14358049D02*
X7045182Y-14396145D01*
X7045182Y-14396145D02*
X7045182Y-14472335D01*
X7045182Y-14472335D02*
X7054706Y-14491383D01*
X7054706Y-14491383D02*
X7064229Y-14500907D01*
X7064229Y-14500907D02*
X7083277Y-14510430D01*
X7083277Y-14510430D02*
X7121372Y-14510430D01*
X7121372Y-14510430D02*
X7140420Y-14500907D01*
X7140420Y-14500907D02*
X7149944Y-14491383D01*
X7149944Y-14491383D02*
X7159467Y-14472335D01*
X7159467Y-14472335D02*
X7159467Y-14424716D01*
X7159467Y-14424716D02*
X7149944Y-14405668D01*
X7149944Y-14405668D02*
X7140420Y-14396145D01*
X7140420Y-14396145D02*
X7121372Y-14386621D01*
X7121372Y-14386621D02*
X7083277Y-14386621D01*
X7083277Y-14386621D02*
X7064229Y-14396145D01*
X7064229Y-14396145D02*
X7054706Y-14405668D01*
X7054706Y-14405668D02*
X7045182Y-14424716D01*
X7254706Y-14510430D02*
X7292801Y-14510430D01*
X7292801Y-14510430D02*
X7311848Y-14500907D01*
X7311848Y-14500907D02*
X7321372Y-14491383D01*
X7321372Y-14491383D02*
X7340420Y-14462811D01*
X7340420Y-14462811D02*
X7349944Y-14424716D01*
X7349944Y-14424716D02*
X7349944Y-14348526D01*
X7349944Y-14348526D02*
X7340420Y-14329478D01*
X7340420Y-14329478D02*
X7330896Y-14319954D01*
X7330896Y-14319954D02*
X7311848Y-14310430D01*
X7311848Y-14310430D02*
X7273753Y-14310430D01*
X7273753Y-14310430D02*
X7254706Y-14319954D01*
X7254706Y-14319954D02*
X7245182Y-14329478D01*
X7245182Y-14329478D02*
X7235658Y-14348526D01*
X7235658Y-14348526D02*
X7235658Y-14396145D01*
X7235658Y-14396145D02*
X7245182Y-14415192D01*
X7245182Y-14415192D02*
X7254706Y-14424716D01*
X7254706Y-14424716D02*
X7273753Y-14434240D01*
X7273753Y-14434240D02*
X7311848Y-14434240D01*
X7311848Y-14434240D02*
X7330896Y-14424716D01*
X7330896Y-14424716D02*
X7340420Y-14415192D01*
X7340420Y-14415192D02*
X7349944Y-14396145D01*
X7426134Y-14310430D02*
X7426134Y-14348526D01*
X7502325Y-14310430D02*
X7502325Y-14348526D01*
X7797563Y-14586621D02*
X7788039Y-14577097D01*
X7788039Y-14577097D02*
X7768991Y-14548526D01*
X7768991Y-14548526D02*
X7759468Y-14529478D01*
X7759468Y-14529478D02*
X7749944Y-14500907D01*
X7749944Y-14500907D02*
X7740420Y-14453287D01*
X7740420Y-14453287D02*
X7740420Y-14415192D01*
X7740420Y-14415192D02*
X7749944Y-14367573D01*
X7749944Y-14367573D02*
X7759468Y-14339002D01*
X7759468Y-14339002D02*
X7768991Y-14319954D01*
X7768991Y-14319954D02*
X7788039Y-14291383D01*
X7788039Y-14291383D02*
X7797563Y-14281859D01*
X7978515Y-14510430D02*
X7864229Y-14510430D01*
X7921372Y-14510430D02*
X7921372Y-14310430D01*
X7921372Y-14310430D02*
X7902325Y-14339002D01*
X7902325Y-14339002D02*
X7883277Y-14358049D01*
X7883277Y-14358049D02*
X7864229Y-14367573D01*
X8054706Y-14329478D02*
X8064229Y-14319954D01*
X8064229Y-14319954D02*
X8083277Y-14310430D01*
X8083277Y-14310430D02*
X8130896Y-14310430D01*
X8130896Y-14310430D02*
X8149944Y-14319954D01*
X8149944Y-14319954D02*
X8159468Y-14329478D01*
X8159468Y-14329478D02*
X8168991Y-14348526D01*
X8168991Y-14348526D02*
X8168991Y-14367573D01*
X8168991Y-14367573D02*
X8159468Y-14396145D01*
X8159468Y-14396145D02*
X8045182Y-14510430D01*
X8045182Y-14510430D02*
X8168991Y-14510430D01*
X8292801Y-14310430D02*
X8311849Y-14310430D01*
X8311849Y-14310430D02*
X8330896Y-14319954D01*
X8330896Y-14319954D02*
X8340420Y-14329478D01*
X8340420Y-14329478D02*
X8349944Y-14348526D01*
X8349944Y-14348526D02*
X8359468Y-14386621D01*
X8359468Y-14386621D02*
X8359468Y-14434240D01*
X8359468Y-14434240D02*
X8349944Y-14472335D01*
X8349944Y-14472335D02*
X8340420Y-14491383D01*
X8340420Y-14491383D02*
X8330896Y-14500907D01*
X8330896Y-14500907D02*
X8311849Y-14510430D01*
X8311849Y-14510430D02*
X8292801Y-14510430D01*
X8292801Y-14510430D02*
X8273753Y-14500907D01*
X8273753Y-14500907D02*
X8264229Y-14491383D01*
X8264229Y-14491383D02*
X8254706Y-14472335D01*
X8254706Y-14472335D02*
X8245182Y-14434240D01*
X8245182Y-14434240D02*
X8245182Y-14386621D01*
X8245182Y-14386621D02*
X8254706Y-14348526D01*
X8254706Y-14348526D02*
X8264229Y-14329478D01*
X8264229Y-14329478D02*
X8273753Y-14319954D01*
X8273753Y-14319954D02*
X8292801Y-14310430D01*
X8597563Y-14510430D02*
X8597563Y-14310430D01*
X8683277Y-14510430D02*
X8683277Y-14405668D01*
X8683277Y-14405668D02*
X8673753Y-14386621D01*
X8673753Y-14386621D02*
X8654706Y-14377097D01*
X8654706Y-14377097D02*
X8626134Y-14377097D01*
X8626134Y-14377097D02*
X8607087Y-14386621D01*
X8607087Y-14386621D02*
X8597563Y-14396145D01*
X8807087Y-14510430D02*
X8788039Y-14500907D01*
X8788039Y-14500907D02*
X8778515Y-14491383D01*
X8778515Y-14491383D02*
X8768992Y-14472335D01*
X8768992Y-14472335D02*
X8768992Y-14415192D01*
X8768992Y-14415192D02*
X8778515Y-14396145D01*
X8778515Y-14396145D02*
X8788039Y-14386621D01*
X8788039Y-14386621D02*
X8807087Y-14377097D01*
X8807087Y-14377097D02*
X8835658Y-14377097D01*
X8835658Y-14377097D02*
X8854706Y-14386621D01*
X8854706Y-14386621D02*
X8864230Y-14396145D01*
X8864230Y-14396145D02*
X8873753Y-14415192D01*
X8873753Y-14415192D02*
X8873753Y-14472335D01*
X8873753Y-14472335D02*
X8864230Y-14491383D01*
X8864230Y-14491383D02*
X8854706Y-14500907D01*
X8854706Y-14500907D02*
X8835658Y-14510430D01*
X8835658Y-14510430D02*
X8807087Y-14510430D01*
X8988039Y-14510430D02*
X8968992Y-14500907D01*
X8968992Y-14500907D02*
X8959468Y-14481859D01*
X8959468Y-14481859D02*
X8959468Y-14310430D01*
X9140420Y-14500907D02*
X9121373Y-14510430D01*
X9121373Y-14510430D02*
X9083277Y-14510430D01*
X9083277Y-14510430D02*
X9064230Y-14500907D01*
X9064230Y-14500907D02*
X9054706Y-14481859D01*
X9054706Y-14481859D02*
X9054706Y-14405668D01*
X9054706Y-14405668D02*
X9064230Y-14386621D01*
X9064230Y-14386621D02*
X9083277Y-14377097D01*
X9083277Y-14377097D02*
X9121373Y-14377097D01*
X9121373Y-14377097D02*
X9140420Y-14386621D01*
X9140420Y-14386621D02*
X9149944Y-14405668D01*
X9149944Y-14405668D02*
X9149944Y-14424716D01*
X9149944Y-14424716D02*
X9054706Y-14443764D01*
X9226134Y-14500907D02*
X9245182Y-14510430D01*
X9245182Y-14510430D02*
X9283277Y-14510430D01*
X9283277Y-14510430D02*
X9302325Y-14500907D01*
X9302325Y-14500907D02*
X9311849Y-14481859D01*
X9311849Y-14481859D02*
X9311849Y-14472335D01*
X9311849Y-14472335D02*
X9302325Y-14453287D01*
X9302325Y-14453287D02*
X9283277Y-14443764D01*
X9283277Y-14443764D02*
X9254706Y-14443764D01*
X9254706Y-14443764D02*
X9235658Y-14434240D01*
X9235658Y-14434240D02*
X9226134Y-14415192D01*
X9226134Y-14415192D02*
X9226134Y-14405668D01*
X9226134Y-14405668D02*
X9235658Y-14386621D01*
X9235658Y-14386621D02*
X9254706Y-14377097D01*
X9254706Y-14377097D02*
X9283277Y-14377097D01*
X9283277Y-14377097D02*
X9302325Y-14386621D01*
X9378515Y-14586621D02*
X9388039Y-14577097D01*
X9388039Y-14577097D02*
X9407087Y-14548526D01*
X9407087Y-14548526D02*
X9416611Y-14529478D01*
X9416611Y-14529478D02*
X9426134Y-14500907D01*
X9426134Y-14500907D02*
X9435658Y-14453287D01*
X9435658Y-14453287D02*
X9435658Y-14415192D01*
X9435658Y-14415192D02*
X9426134Y-14367573D01*
X9426134Y-14367573D02*
X9416611Y-14339002D01*
X9416611Y-14339002D02*
X9407087Y-14319954D01*
X9407087Y-14319954D02*
X9388039Y-14291383D01*
X9388039Y-14291383D02*
X9378515Y-14281859D01*
X9740420Y-14586621D02*
X9730896Y-14577097D01*
X9730896Y-14577097D02*
X9711849Y-14548526D01*
X9711849Y-14548526D02*
X9702325Y-14529478D01*
X9702325Y-14529478D02*
X9692801Y-14500907D01*
X9692801Y-14500907D02*
X9683277Y-14453287D01*
X9683277Y-14453287D02*
X9683277Y-14415192D01*
X9683277Y-14415192D02*
X9692801Y-14367573D01*
X9692801Y-14367573D02*
X9702325Y-14339002D01*
X9702325Y-14339002D02*
X9711849Y-14319954D01*
X9711849Y-14319954D02*
X9730896Y-14291383D01*
X9730896Y-14291383D02*
X9740420Y-14281859D01*
X9816611Y-14377097D02*
X9816611Y-14510430D01*
X9816611Y-14396145D02*
X9826134Y-14386621D01*
X9826134Y-14386621D02*
X9845182Y-14377097D01*
X9845182Y-14377097D02*
X9873754Y-14377097D01*
X9873754Y-14377097D02*
X9892801Y-14386621D01*
X9892801Y-14386621D02*
X9902325Y-14405668D01*
X9902325Y-14405668D02*
X9902325Y-14510430D01*
X10026134Y-14510430D02*
X10007087Y-14500907D01*
X10007087Y-14500907D02*
X9997563Y-14491383D01*
X9997563Y-14491383D02*
X9988039Y-14472335D01*
X9988039Y-14472335D02*
X9988039Y-14415192D01*
X9988039Y-14415192D02*
X9997563Y-14396145D01*
X9997563Y-14396145D02*
X10007087Y-14386621D01*
X10007087Y-14386621D02*
X10026134Y-14377097D01*
X10026134Y-14377097D02*
X10054706Y-14377097D01*
X10054706Y-14377097D02*
X10073754Y-14386621D01*
X10073754Y-14386621D02*
X10083277Y-14396145D01*
X10083277Y-14396145D02*
X10092801Y-14415192D01*
X10092801Y-14415192D02*
X10092801Y-14472335D01*
X10092801Y-14472335D02*
X10083277Y-14491383D01*
X10083277Y-14491383D02*
X10073754Y-14500907D01*
X10073754Y-14500907D02*
X10054706Y-14510430D01*
X10054706Y-14510430D02*
X10026134Y-14510430D01*
X10149944Y-14377097D02*
X10226134Y-14377097D01*
X10178515Y-14310430D02*
X10178515Y-14481859D01*
X10178515Y-14481859D02*
X10188039Y-14500907D01*
X10188039Y-14500907D02*
X10207087Y-14510430D01*
X10207087Y-14510430D02*
X10226134Y-14510430D01*
X10445182Y-14377097D02*
X10445182Y-14577097D01*
X10445182Y-14386621D02*
X10464230Y-14377097D01*
X10464230Y-14377097D02*
X10502325Y-14377097D01*
X10502325Y-14377097D02*
X10521373Y-14386621D01*
X10521373Y-14386621D02*
X10530896Y-14396145D01*
X10530896Y-14396145D02*
X10540420Y-14415192D01*
X10540420Y-14415192D02*
X10540420Y-14472335D01*
X10540420Y-14472335D02*
X10530896Y-14491383D01*
X10530896Y-14491383D02*
X10521373Y-14500907D01*
X10521373Y-14500907D02*
X10502325Y-14510430D01*
X10502325Y-14510430D02*
X10464230Y-14510430D01*
X10464230Y-14510430D02*
X10445182Y-14500907D01*
X10654706Y-14510430D02*
X10635658Y-14500907D01*
X10635658Y-14500907D02*
X10626135Y-14481859D01*
X10626135Y-14481859D02*
X10626135Y-14310430D01*
X10816611Y-14510430D02*
X10816611Y-14405668D01*
X10816611Y-14405668D02*
X10807087Y-14386621D01*
X10807087Y-14386621D02*
X10788039Y-14377097D01*
X10788039Y-14377097D02*
X10749944Y-14377097D01*
X10749944Y-14377097D02*
X10730896Y-14386621D01*
X10816611Y-14500907D02*
X10797563Y-14510430D01*
X10797563Y-14510430D02*
X10749944Y-14510430D01*
X10749944Y-14510430D02*
X10730896Y-14500907D01*
X10730896Y-14500907D02*
X10721373Y-14481859D01*
X10721373Y-14481859D02*
X10721373Y-14462811D01*
X10721373Y-14462811D02*
X10730896Y-14443764D01*
X10730896Y-14443764D02*
X10749944Y-14434240D01*
X10749944Y-14434240D02*
X10797563Y-14434240D01*
X10797563Y-14434240D02*
X10816611Y-14424716D01*
X10883277Y-14377097D02*
X10959468Y-14377097D01*
X10911849Y-14310430D02*
X10911849Y-14481859D01*
X10911849Y-14481859D02*
X10921373Y-14500907D01*
X10921373Y-14500907D02*
X10940420Y-14510430D01*
X10940420Y-14510430D02*
X10959468Y-14510430D01*
X11102325Y-14500907D02*
X11083277Y-14510430D01*
X11083277Y-14510430D02*
X11045182Y-14510430D01*
X11045182Y-14510430D02*
X11026135Y-14500907D01*
X11026135Y-14500907D02*
X11016611Y-14481859D01*
X11016611Y-14481859D02*
X11016611Y-14405668D01*
X11016611Y-14405668D02*
X11026135Y-14386621D01*
X11026135Y-14386621D02*
X11045182Y-14377097D01*
X11045182Y-14377097D02*
X11083277Y-14377097D01*
X11083277Y-14377097D02*
X11102325Y-14386621D01*
X11102325Y-14386621D02*
X11111849Y-14405668D01*
X11111849Y-14405668D02*
X11111849Y-14424716D01*
X11111849Y-14424716D02*
X11016611Y-14443764D01*
X11283277Y-14510430D02*
X11283277Y-14310430D01*
X11283277Y-14500907D02*
X11264230Y-14510430D01*
X11264230Y-14510430D02*
X11226134Y-14510430D01*
X11226134Y-14510430D02*
X11207087Y-14500907D01*
X11207087Y-14500907D02*
X11197563Y-14491383D01*
X11197563Y-14491383D02*
X11188039Y-14472335D01*
X11188039Y-14472335D02*
X11188039Y-14415192D01*
X11188039Y-14415192D02*
X11197563Y-14396145D01*
X11197563Y-14396145D02*
X11207087Y-14386621D01*
X11207087Y-14386621D02*
X11226134Y-14377097D01*
X11226134Y-14377097D02*
X11264230Y-14377097D01*
X11264230Y-14377097D02*
X11283277Y-14386621D01*
X11359468Y-14586621D02*
X11368992Y-14577097D01*
X11368992Y-14577097D02*
X11388039Y-14548526D01*
X11388039Y-14548526D02*
X11397563Y-14529478D01*
X11397563Y-14529478D02*
X11407087Y-14500907D01*
X11407087Y-14500907D02*
X11416611Y-14453287D01*
X11416611Y-14453287D02*
X11416611Y-14415192D01*
X11416611Y-14415192D02*
X11407087Y-14367573D01*
X11407087Y-14367573D02*
X11397563Y-14339002D01*
X11397563Y-14339002D02*
X11388039Y-14319954D01*
X11388039Y-14319954D02*
X11368992Y-14291383D01*
X11368992Y-14291383D02*
X11359468Y-14281859D01*
X4122500Y-14608947D02*
X4122500Y-14808947D01*
X4022500Y-14708947D02*
X4222500Y-14708947D01*
X4464229Y-14600430D02*
X4588039Y-14600430D01*
X4588039Y-14600430D02*
X4521372Y-14676621D01*
X4521372Y-14676621D02*
X4549944Y-14676621D01*
X4549944Y-14676621D02*
X4568991Y-14686145D01*
X4568991Y-14686145D02*
X4578515Y-14695668D01*
X4578515Y-14695668D02*
X4588039Y-14714716D01*
X4588039Y-14714716D02*
X4588039Y-14762335D01*
X4588039Y-14762335D02*
X4578515Y-14781383D01*
X4578515Y-14781383D02*
X4568991Y-14790907D01*
X4568991Y-14790907D02*
X4549944Y-14800430D01*
X4549944Y-14800430D02*
X4492801Y-14800430D01*
X4492801Y-14800430D02*
X4473753Y-14790907D01*
X4473753Y-14790907D02*
X4464229Y-14781383D01*
X4673753Y-14781383D02*
X4683277Y-14790907D01*
X4683277Y-14790907D02*
X4673753Y-14800430D01*
X4673753Y-14800430D02*
X4664229Y-14790907D01*
X4664229Y-14790907D02*
X4673753Y-14781383D01*
X4673753Y-14781383D02*
X4673753Y-14800430D01*
X4854705Y-14667097D02*
X4854705Y-14800430D01*
X4807086Y-14590907D02*
X4759467Y-14733764D01*
X4759467Y-14733764D02*
X4883277Y-14733764D01*
X4997563Y-14600430D02*
X5016610Y-14600430D01*
X5016610Y-14600430D02*
X5035658Y-14609954D01*
X5035658Y-14609954D02*
X5045182Y-14619478D01*
X5045182Y-14619478D02*
X5054705Y-14638526D01*
X5054705Y-14638526D02*
X5064229Y-14676621D01*
X5064229Y-14676621D02*
X5064229Y-14724240D01*
X5064229Y-14724240D02*
X5054705Y-14762335D01*
X5054705Y-14762335D02*
X5045182Y-14781383D01*
X5045182Y-14781383D02*
X5035658Y-14790907D01*
X5035658Y-14790907D02*
X5016610Y-14800430D01*
X5016610Y-14800430D02*
X4997563Y-14800430D01*
X4997563Y-14800430D02*
X4978515Y-14790907D01*
X4978515Y-14790907D02*
X4968991Y-14781383D01*
X4968991Y-14781383D02*
X4959467Y-14762335D01*
X4959467Y-14762335D02*
X4949944Y-14724240D01*
X4949944Y-14724240D02*
X4949944Y-14676621D01*
X4949944Y-14676621D02*
X4959467Y-14638526D01*
X4959467Y-14638526D02*
X4968991Y-14619478D01*
X4968991Y-14619478D02*
X4978515Y-14609954D01*
X4978515Y-14609954D02*
X4997563Y-14600430D01*
X5188039Y-14600430D02*
X5207086Y-14600430D01*
X5207086Y-14600430D02*
X5226134Y-14609954D01*
X5226134Y-14609954D02*
X5235658Y-14619478D01*
X5235658Y-14619478D02*
X5245182Y-14638526D01*
X5245182Y-14638526D02*
X5254705Y-14676621D01*
X5254705Y-14676621D02*
X5254705Y-14724240D01*
X5254705Y-14724240D02*
X5245182Y-14762335D01*
X5245182Y-14762335D02*
X5235658Y-14781383D01*
X5235658Y-14781383D02*
X5226134Y-14790907D01*
X5226134Y-14790907D02*
X5207086Y-14800430D01*
X5207086Y-14800430D02*
X5188039Y-14800430D01*
X5188039Y-14800430D02*
X5168991Y-14790907D01*
X5168991Y-14790907D02*
X5159467Y-14781383D01*
X5159467Y-14781383D02*
X5149944Y-14762335D01*
X5149944Y-14762335D02*
X5140420Y-14724240D01*
X5140420Y-14724240D02*
X5140420Y-14676621D01*
X5140420Y-14676621D02*
X5149944Y-14638526D01*
X5149944Y-14638526D02*
X5159467Y-14619478D01*
X5159467Y-14619478D02*
X5168991Y-14609954D01*
X5168991Y-14609954D02*
X5188039Y-14600430D01*
X5340420Y-14800430D02*
X5340420Y-14667097D01*
X5340420Y-14686145D02*
X5349944Y-14676621D01*
X5349944Y-14676621D02*
X5368991Y-14667097D01*
X5368991Y-14667097D02*
X5397563Y-14667097D01*
X5397563Y-14667097D02*
X5416610Y-14676621D01*
X5416610Y-14676621D02*
X5426134Y-14695668D01*
X5426134Y-14695668D02*
X5426134Y-14800430D01*
X5426134Y-14695668D02*
X5435658Y-14676621D01*
X5435658Y-14676621D02*
X5454705Y-14667097D01*
X5454705Y-14667097D02*
X5483277Y-14667097D01*
X5483277Y-14667097D02*
X5502325Y-14676621D01*
X5502325Y-14676621D02*
X5511848Y-14695668D01*
X5511848Y-14695668D02*
X5511848Y-14800430D01*
X5607086Y-14800430D02*
X5607086Y-14667097D01*
X5607086Y-14686145D02*
X5616610Y-14676621D01*
X5616610Y-14676621D02*
X5635658Y-14667097D01*
X5635658Y-14667097D02*
X5664229Y-14667097D01*
X5664229Y-14667097D02*
X5683277Y-14676621D01*
X5683277Y-14676621D02*
X5692801Y-14695668D01*
X5692801Y-14695668D02*
X5692801Y-14800430D01*
X5692801Y-14695668D02*
X5702324Y-14676621D01*
X5702324Y-14676621D02*
X5721372Y-14667097D01*
X5721372Y-14667097D02*
X5749943Y-14667097D01*
X5749943Y-14667097D02*
X5768991Y-14676621D01*
X5768991Y-14676621D02*
X5778515Y-14695668D01*
X5778515Y-14695668D02*
X5778515Y-14800430D01*
X6168991Y-14590907D02*
X5997563Y-14848049D01*
X6426134Y-14600430D02*
X6445182Y-14600430D01*
X6445182Y-14600430D02*
X6464229Y-14609954D01*
X6464229Y-14609954D02*
X6473753Y-14619478D01*
X6473753Y-14619478D02*
X6483277Y-14638526D01*
X6483277Y-14638526D02*
X6492801Y-14676621D01*
X6492801Y-14676621D02*
X6492801Y-14724240D01*
X6492801Y-14724240D02*
X6483277Y-14762335D01*
X6483277Y-14762335D02*
X6473753Y-14781383D01*
X6473753Y-14781383D02*
X6464229Y-14790907D01*
X6464229Y-14790907D02*
X6445182Y-14800430D01*
X6445182Y-14800430D02*
X6426134Y-14800430D01*
X6426134Y-14800430D02*
X6407086Y-14790907D01*
X6407086Y-14790907D02*
X6397563Y-14781383D01*
X6397563Y-14781383D02*
X6388039Y-14762335D01*
X6388039Y-14762335D02*
X6378515Y-14724240D01*
X6378515Y-14724240D02*
X6378515Y-14676621D01*
X6378515Y-14676621D02*
X6388039Y-14638526D01*
X6388039Y-14638526D02*
X6397563Y-14619478D01*
X6397563Y-14619478D02*
X6407086Y-14609954D01*
X6407086Y-14609954D02*
X6426134Y-14600430D01*
X6578515Y-14781383D02*
X6588039Y-14790907D01*
X6588039Y-14790907D02*
X6578515Y-14800430D01*
X6578515Y-14800430D02*
X6568991Y-14790907D01*
X6568991Y-14790907D02*
X6578515Y-14781383D01*
X6578515Y-14781383D02*
X6578515Y-14800430D01*
X6778515Y-14800430D02*
X6664229Y-14800430D01*
X6721372Y-14800430D02*
X6721372Y-14600430D01*
X6721372Y-14600430D02*
X6702325Y-14629002D01*
X6702325Y-14629002D02*
X6683277Y-14648049D01*
X6683277Y-14648049D02*
X6664229Y-14657573D01*
X6845182Y-14600430D02*
X6968991Y-14600430D01*
X6968991Y-14600430D02*
X6902325Y-14676621D01*
X6902325Y-14676621D02*
X6930896Y-14676621D01*
X6930896Y-14676621D02*
X6949944Y-14686145D01*
X6949944Y-14686145D02*
X6959467Y-14695668D01*
X6959467Y-14695668D02*
X6968991Y-14714716D01*
X6968991Y-14714716D02*
X6968991Y-14762335D01*
X6968991Y-14762335D02*
X6959467Y-14781383D01*
X6959467Y-14781383D02*
X6949944Y-14790907D01*
X6949944Y-14790907D02*
X6930896Y-14800430D01*
X6930896Y-14800430D02*
X6873753Y-14800430D01*
X6873753Y-14800430D02*
X6854706Y-14790907D01*
X6854706Y-14790907D02*
X6845182Y-14781383D01*
X7035658Y-14600430D02*
X7159467Y-14600430D01*
X7159467Y-14600430D02*
X7092801Y-14676621D01*
X7092801Y-14676621D02*
X7121372Y-14676621D01*
X7121372Y-14676621D02*
X7140420Y-14686145D01*
X7140420Y-14686145D02*
X7149944Y-14695668D01*
X7149944Y-14695668D02*
X7159467Y-14714716D01*
X7159467Y-14714716D02*
X7159467Y-14762335D01*
X7159467Y-14762335D02*
X7149944Y-14781383D01*
X7149944Y-14781383D02*
X7140420Y-14790907D01*
X7140420Y-14790907D02*
X7121372Y-14800430D01*
X7121372Y-14800430D02*
X7064229Y-14800430D01*
X7064229Y-14800430D02*
X7045182Y-14790907D01*
X7045182Y-14790907D02*
X7035658Y-14781383D01*
X7254706Y-14800430D02*
X7292801Y-14800430D01*
X7292801Y-14800430D02*
X7311848Y-14790907D01*
X7311848Y-14790907D02*
X7321372Y-14781383D01*
X7321372Y-14781383D02*
X7340420Y-14752811D01*
X7340420Y-14752811D02*
X7349944Y-14714716D01*
X7349944Y-14714716D02*
X7349944Y-14638526D01*
X7349944Y-14638526D02*
X7340420Y-14619478D01*
X7340420Y-14619478D02*
X7330896Y-14609954D01*
X7330896Y-14609954D02*
X7311848Y-14600430D01*
X7311848Y-14600430D02*
X7273753Y-14600430D01*
X7273753Y-14600430D02*
X7254706Y-14609954D01*
X7254706Y-14609954D02*
X7245182Y-14619478D01*
X7245182Y-14619478D02*
X7235658Y-14638526D01*
X7235658Y-14638526D02*
X7235658Y-14686145D01*
X7235658Y-14686145D02*
X7245182Y-14705192D01*
X7245182Y-14705192D02*
X7254706Y-14714716D01*
X7254706Y-14714716D02*
X7273753Y-14724240D01*
X7273753Y-14724240D02*
X7311848Y-14724240D01*
X7311848Y-14724240D02*
X7330896Y-14714716D01*
X7330896Y-14714716D02*
X7340420Y-14705192D01*
X7340420Y-14705192D02*
X7349944Y-14686145D01*
X7426134Y-14600430D02*
X7426134Y-14638526D01*
X7502325Y-14600430D02*
X7502325Y-14638526D01*
X7797563Y-14876621D02*
X7788039Y-14867097D01*
X7788039Y-14867097D02*
X7768991Y-14838526D01*
X7768991Y-14838526D02*
X7759468Y-14819478D01*
X7759468Y-14819478D02*
X7749944Y-14790907D01*
X7749944Y-14790907D02*
X7740420Y-14743287D01*
X7740420Y-14743287D02*
X7740420Y-14705192D01*
X7740420Y-14705192D02*
X7749944Y-14657573D01*
X7749944Y-14657573D02*
X7759468Y-14629002D01*
X7759468Y-14629002D02*
X7768991Y-14609954D01*
X7768991Y-14609954D02*
X7788039Y-14581383D01*
X7788039Y-14581383D02*
X7797563Y-14571859D01*
X7959468Y-14600430D02*
X7921372Y-14600430D01*
X7921372Y-14600430D02*
X7902325Y-14609954D01*
X7902325Y-14609954D02*
X7892801Y-14619478D01*
X7892801Y-14619478D02*
X7873753Y-14648049D01*
X7873753Y-14648049D02*
X7864229Y-14686145D01*
X7864229Y-14686145D02*
X7864229Y-14762335D01*
X7864229Y-14762335D02*
X7873753Y-14781383D01*
X7873753Y-14781383D02*
X7883277Y-14790907D01*
X7883277Y-14790907D02*
X7902325Y-14800430D01*
X7902325Y-14800430D02*
X7940420Y-14800430D01*
X7940420Y-14800430D02*
X7959468Y-14790907D01*
X7959468Y-14790907D02*
X7968991Y-14781383D01*
X7968991Y-14781383D02*
X7978515Y-14762335D01*
X7978515Y-14762335D02*
X7978515Y-14714716D01*
X7978515Y-14714716D02*
X7968991Y-14695668D01*
X7968991Y-14695668D02*
X7959468Y-14686145D01*
X7959468Y-14686145D02*
X7940420Y-14676621D01*
X7940420Y-14676621D02*
X7902325Y-14676621D01*
X7902325Y-14676621D02*
X7883277Y-14686145D01*
X7883277Y-14686145D02*
X7873753Y-14695668D01*
X7873753Y-14695668D02*
X7864229Y-14714716D01*
X8102325Y-14600430D02*
X8121372Y-14600430D01*
X8121372Y-14600430D02*
X8140420Y-14609954D01*
X8140420Y-14609954D02*
X8149944Y-14619478D01*
X8149944Y-14619478D02*
X8159468Y-14638526D01*
X8159468Y-14638526D02*
X8168991Y-14676621D01*
X8168991Y-14676621D02*
X8168991Y-14724240D01*
X8168991Y-14724240D02*
X8159468Y-14762335D01*
X8159468Y-14762335D02*
X8149944Y-14781383D01*
X8149944Y-14781383D02*
X8140420Y-14790907D01*
X8140420Y-14790907D02*
X8121372Y-14800430D01*
X8121372Y-14800430D02*
X8102325Y-14800430D01*
X8102325Y-14800430D02*
X8083277Y-14790907D01*
X8083277Y-14790907D02*
X8073753Y-14781383D01*
X8073753Y-14781383D02*
X8064229Y-14762335D01*
X8064229Y-14762335D02*
X8054706Y-14724240D01*
X8054706Y-14724240D02*
X8054706Y-14676621D01*
X8054706Y-14676621D02*
X8064229Y-14638526D01*
X8064229Y-14638526D02*
X8073753Y-14619478D01*
X8073753Y-14619478D02*
X8083277Y-14609954D01*
X8083277Y-14609954D02*
X8102325Y-14600430D01*
X8407087Y-14800430D02*
X8407087Y-14600430D01*
X8492801Y-14800430D02*
X8492801Y-14695668D01*
X8492801Y-14695668D02*
X8483277Y-14676621D01*
X8483277Y-14676621D02*
X8464230Y-14667097D01*
X8464230Y-14667097D02*
X8435658Y-14667097D01*
X8435658Y-14667097D02*
X8416611Y-14676621D01*
X8416611Y-14676621D02*
X8407087Y-14686145D01*
X8616611Y-14800430D02*
X8597563Y-14790907D01*
X8597563Y-14790907D02*
X8588039Y-14781383D01*
X8588039Y-14781383D02*
X8578515Y-14762335D01*
X8578515Y-14762335D02*
X8578515Y-14705192D01*
X8578515Y-14705192D02*
X8588039Y-14686145D01*
X8588039Y-14686145D02*
X8597563Y-14676621D01*
X8597563Y-14676621D02*
X8616611Y-14667097D01*
X8616611Y-14667097D02*
X8645182Y-14667097D01*
X8645182Y-14667097D02*
X8664230Y-14676621D01*
X8664230Y-14676621D02*
X8673753Y-14686145D01*
X8673753Y-14686145D02*
X8683277Y-14705192D01*
X8683277Y-14705192D02*
X8683277Y-14762335D01*
X8683277Y-14762335D02*
X8673753Y-14781383D01*
X8673753Y-14781383D02*
X8664230Y-14790907D01*
X8664230Y-14790907D02*
X8645182Y-14800430D01*
X8645182Y-14800430D02*
X8616611Y-14800430D01*
X8797563Y-14800430D02*
X8778515Y-14790907D01*
X8778515Y-14790907D02*
X8768992Y-14771859D01*
X8768992Y-14771859D02*
X8768992Y-14600430D01*
X8949944Y-14790907D02*
X8930896Y-14800430D01*
X8930896Y-14800430D02*
X8892801Y-14800430D01*
X8892801Y-14800430D02*
X8873753Y-14790907D01*
X8873753Y-14790907D02*
X8864230Y-14771859D01*
X8864230Y-14771859D02*
X8864230Y-14695668D01*
X8864230Y-14695668D02*
X8873753Y-14676621D01*
X8873753Y-14676621D02*
X8892801Y-14667097D01*
X8892801Y-14667097D02*
X8930896Y-14667097D01*
X8930896Y-14667097D02*
X8949944Y-14676621D01*
X8949944Y-14676621D02*
X8959468Y-14695668D01*
X8959468Y-14695668D02*
X8959468Y-14714716D01*
X8959468Y-14714716D02*
X8864230Y-14733764D01*
X9035658Y-14790907D02*
X9054706Y-14800430D01*
X9054706Y-14800430D02*
X9092801Y-14800430D01*
X9092801Y-14800430D02*
X9111849Y-14790907D01*
X9111849Y-14790907D02*
X9121373Y-14771859D01*
X9121373Y-14771859D02*
X9121373Y-14762335D01*
X9121373Y-14762335D02*
X9111849Y-14743287D01*
X9111849Y-14743287D02*
X9092801Y-14733764D01*
X9092801Y-14733764D02*
X9064230Y-14733764D01*
X9064230Y-14733764D02*
X9045182Y-14724240D01*
X9045182Y-14724240D02*
X9035658Y-14705192D01*
X9035658Y-14705192D02*
X9035658Y-14695668D01*
X9035658Y-14695668D02*
X9045182Y-14676621D01*
X9045182Y-14676621D02*
X9064230Y-14667097D01*
X9064230Y-14667097D02*
X9092801Y-14667097D01*
X9092801Y-14667097D02*
X9111849Y-14676621D01*
X9188039Y-14876621D02*
X9197563Y-14867097D01*
X9197563Y-14867097D02*
X9216611Y-14838526D01*
X9216611Y-14838526D02*
X9226134Y-14819478D01*
X9226134Y-14819478D02*
X9235658Y-14790907D01*
X9235658Y-14790907D02*
X9245182Y-14743287D01*
X9245182Y-14743287D02*
X9245182Y-14705192D01*
X9245182Y-14705192D02*
X9235658Y-14657573D01*
X9235658Y-14657573D02*
X9226134Y-14629002D01*
X9226134Y-14629002D02*
X9216611Y-14609954D01*
X9216611Y-14609954D02*
X9197563Y-14581383D01*
X9197563Y-14581383D02*
X9188039Y-14571859D01*
X9549944Y-14876621D02*
X9540420Y-14867097D01*
X9540420Y-14867097D02*
X9521373Y-14838526D01*
X9521373Y-14838526D02*
X9511849Y-14819478D01*
X9511849Y-14819478D02*
X9502325Y-14790907D01*
X9502325Y-14790907D02*
X9492801Y-14743287D01*
X9492801Y-14743287D02*
X9492801Y-14705192D01*
X9492801Y-14705192D02*
X9502325Y-14657573D01*
X9502325Y-14657573D02*
X9511849Y-14629002D01*
X9511849Y-14629002D02*
X9521373Y-14609954D01*
X9521373Y-14609954D02*
X9540420Y-14581383D01*
X9540420Y-14581383D02*
X9549944Y-14571859D01*
X9626134Y-14667097D02*
X9626134Y-14800430D01*
X9626134Y-14686145D02*
X9635658Y-14676621D01*
X9635658Y-14676621D02*
X9654706Y-14667097D01*
X9654706Y-14667097D02*
X9683277Y-14667097D01*
X9683277Y-14667097D02*
X9702325Y-14676621D01*
X9702325Y-14676621D02*
X9711849Y-14695668D01*
X9711849Y-14695668D02*
X9711849Y-14800430D01*
X9835658Y-14800430D02*
X9816611Y-14790907D01*
X9816611Y-14790907D02*
X9807087Y-14781383D01*
X9807087Y-14781383D02*
X9797563Y-14762335D01*
X9797563Y-14762335D02*
X9797563Y-14705192D01*
X9797563Y-14705192D02*
X9807087Y-14686145D01*
X9807087Y-14686145D02*
X9816611Y-14676621D01*
X9816611Y-14676621D02*
X9835658Y-14667097D01*
X9835658Y-14667097D02*
X9864230Y-14667097D01*
X9864230Y-14667097D02*
X9883277Y-14676621D01*
X9883277Y-14676621D02*
X9892801Y-14686145D01*
X9892801Y-14686145D02*
X9902325Y-14705192D01*
X9902325Y-14705192D02*
X9902325Y-14762335D01*
X9902325Y-14762335D02*
X9892801Y-14781383D01*
X9892801Y-14781383D02*
X9883277Y-14790907D01*
X9883277Y-14790907D02*
X9864230Y-14800430D01*
X9864230Y-14800430D02*
X9835658Y-14800430D01*
X9959468Y-14667097D02*
X10035658Y-14667097D01*
X9988039Y-14600430D02*
X9988039Y-14771859D01*
X9988039Y-14771859D02*
X9997563Y-14790907D01*
X9997563Y-14790907D02*
X10016611Y-14800430D01*
X10016611Y-14800430D02*
X10035658Y-14800430D01*
X10254706Y-14667097D02*
X10254706Y-14867097D01*
X10254706Y-14676621D02*
X10273754Y-14667097D01*
X10273754Y-14667097D02*
X10311849Y-14667097D01*
X10311849Y-14667097D02*
X10330896Y-14676621D01*
X10330896Y-14676621D02*
X10340420Y-14686145D01*
X10340420Y-14686145D02*
X10349944Y-14705192D01*
X10349944Y-14705192D02*
X10349944Y-14762335D01*
X10349944Y-14762335D02*
X10340420Y-14781383D01*
X10340420Y-14781383D02*
X10330896Y-14790907D01*
X10330896Y-14790907D02*
X10311849Y-14800430D01*
X10311849Y-14800430D02*
X10273754Y-14800430D01*
X10273754Y-14800430D02*
X10254706Y-14790907D01*
X10464230Y-14800430D02*
X10445182Y-14790907D01*
X10445182Y-14790907D02*
X10435658Y-14771859D01*
X10435658Y-14771859D02*
X10435658Y-14600430D01*
X10626135Y-14800430D02*
X10626135Y-14695668D01*
X10626135Y-14695668D02*
X10616611Y-14676621D01*
X10616611Y-14676621D02*
X10597563Y-14667097D01*
X10597563Y-14667097D02*
X10559468Y-14667097D01*
X10559468Y-14667097D02*
X10540420Y-14676621D01*
X10626135Y-14790907D02*
X10607087Y-14800430D01*
X10607087Y-14800430D02*
X10559468Y-14800430D01*
X10559468Y-14800430D02*
X10540420Y-14790907D01*
X10540420Y-14790907D02*
X10530896Y-14771859D01*
X10530896Y-14771859D02*
X10530896Y-14752811D01*
X10530896Y-14752811D02*
X10540420Y-14733764D01*
X10540420Y-14733764D02*
X10559468Y-14724240D01*
X10559468Y-14724240D02*
X10607087Y-14724240D01*
X10607087Y-14724240D02*
X10626135Y-14714716D01*
X10692801Y-14667097D02*
X10768992Y-14667097D01*
X10721373Y-14600430D02*
X10721373Y-14771859D01*
X10721373Y-14771859D02*
X10730896Y-14790907D01*
X10730896Y-14790907D02*
X10749944Y-14800430D01*
X10749944Y-14800430D02*
X10768992Y-14800430D01*
X10911849Y-14790907D02*
X10892801Y-14800430D01*
X10892801Y-14800430D02*
X10854706Y-14800430D01*
X10854706Y-14800430D02*
X10835658Y-14790907D01*
X10835658Y-14790907D02*
X10826135Y-14771859D01*
X10826135Y-14771859D02*
X10826135Y-14695668D01*
X10826135Y-14695668D02*
X10835658Y-14676621D01*
X10835658Y-14676621D02*
X10854706Y-14667097D01*
X10854706Y-14667097D02*
X10892801Y-14667097D01*
X10892801Y-14667097D02*
X10911849Y-14676621D01*
X10911849Y-14676621D02*
X10921373Y-14695668D01*
X10921373Y-14695668D02*
X10921373Y-14714716D01*
X10921373Y-14714716D02*
X10826135Y-14733764D01*
X11092801Y-14800430D02*
X11092801Y-14600430D01*
X11092801Y-14790907D02*
X11073754Y-14800430D01*
X11073754Y-14800430D02*
X11035658Y-14800430D01*
X11035658Y-14800430D02*
X11016611Y-14790907D01*
X11016611Y-14790907D02*
X11007087Y-14781383D01*
X11007087Y-14781383D02*
X10997563Y-14762335D01*
X10997563Y-14762335D02*
X10997563Y-14705192D01*
X10997563Y-14705192D02*
X11007087Y-14686145D01*
X11007087Y-14686145D02*
X11016611Y-14676621D01*
X11016611Y-14676621D02*
X11035658Y-14667097D01*
X11035658Y-14667097D02*
X11073754Y-14667097D01*
X11073754Y-14667097D02*
X11092801Y-14676621D01*
X11168992Y-14876621D02*
X11178516Y-14867097D01*
X11178516Y-14867097D02*
X11197563Y-14838526D01*
X11197563Y-14838526D02*
X11207087Y-14819478D01*
X11207087Y-14819478D02*
X11216611Y-14790907D01*
X11216611Y-14790907D02*
X11226134Y-14743287D01*
X11226134Y-14743287D02*
X11226134Y-14705192D01*
X11226134Y-14705192D02*
X11216611Y-14657573D01*
X11216611Y-14657573D02*
X11207087Y-14629002D01*
X11207087Y-14629002D02*
X11197563Y-14609954D01*
X11197563Y-14609954D02*
X11178516Y-14581383D01*
X11178516Y-14581383D02*
X11168992Y-14571859D01*
X4193211Y-15099658D02*
X4193211Y-14958235D01*
X4051789Y-14958235D01*
X4051789Y-15099658D01*
X4193211Y-15099658D01*
X4464229Y-14920430D02*
X4588039Y-14920430D01*
X4588039Y-14920430D02*
X4521372Y-14996621D01*
X4521372Y-14996621D02*
X4549944Y-14996621D01*
X4549944Y-14996621D02*
X4568991Y-15006145D01*
X4568991Y-15006145D02*
X4578515Y-15015668D01*
X4578515Y-15015668D02*
X4588039Y-15034716D01*
X4588039Y-15034716D02*
X4588039Y-15082335D01*
X4588039Y-15082335D02*
X4578515Y-15101383D01*
X4578515Y-15101383D02*
X4568991Y-15110907D01*
X4568991Y-15110907D02*
X4549944Y-15120430D01*
X4549944Y-15120430D02*
X4492801Y-15120430D01*
X4492801Y-15120430D02*
X4473753Y-15110907D01*
X4473753Y-15110907D02*
X4464229Y-15101383D01*
X4673753Y-15101383D02*
X4683277Y-15110907D01*
X4683277Y-15110907D02*
X4673753Y-15120430D01*
X4673753Y-15120430D02*
X4664229Y-15110907D01*
X4664229Y-15110907D02*
X4673753Y-15101383D01*
X4673753Y-15101383D02*
X4673753Y-15120430D01*
X4864229Y-14920430D02*
X4768991Y-14920430D01*
X4768991Y-14920430D02*
X4759467Y-15015668D01*
X4759467Y-15015668D02*
X4768991Y-15006145D01*
X4768991Y-15006145D02*
X4788039Y-14996621D01*
X4788039Y-14996621D02*
X4835658Y-14996621D01*
X4835658Y-14996621D02*
X4854705Y-15006145D01*
X4854705Y-15006145D02*
X4864229Y-15015668D01*
X4864229Y-15015668D02*
X4873753Y-15034716D01*
X4873753Y-15034716D02*
X4873753Y-15082335D01*
X4873753Y-15082335D02*
X4864229Y-15101383D01*
X4864229Y-15101383D02*
X4854705Y-15110907D01*
X4854705Y-15110907D02*
X4835658Y-15120430D01*
X4835658Y-15120430D02*
X4788039Y-15120430D01*
X4788039Y-15120430D02*
X4768991Y-15110907D01*
X4768991Y-15110907D02*
X4759467Y-15101383D01*
X4997563Y-14920430D02*
X5016610Y-14920430D01*
X5016610Y-14920430D02*
X5035658Y-14929954D01*
X5035658Y-14929954D02*
X5045182Y-14939478D01*
X5045182Y-14939478D02*
X5054705Y-14958526D01*
X5054705Y-14958526D02*
X5064229Y-14996621D01*
X5064229Y-14996621D02*
X5064229Y-15044240D01*
X5064229Y-15044240D02*
X5054705Y-15082335D01*
X5054705Y-15082335D02*
X5045182Y-15101383D01*
X5045182Y-15101383D02*
X5035658Y-15110907D01*
X5035658Y-15110907D02*
X5016610Y-15120430D01*
X5016610Y-15120430D02*
X4997563Y-15120430D01*
X4997563Y-15120430D02*
X4978515Y-15110907D01*
X4978515Y-15110907D02*
X4968991Y-15101383D01*
X4968991Y-15101383D02*
X4959467Y-15082335D01*
X4959467Y-15082335D02*
X4949944Y-15044240D01*
X4949944Y-15044240D02*
X4949944Y-14996621D01*
X4949944Y-14996621D02*
X4959467Y-14958526D01*
X4959467Y-14958526D02*
X4968991Y-14939478D01*
X4968991Y-14939478D02*
X4978515Y-14929954D01*
X4978515Y-14929954D02*
X4997563Y-14920430D01*
X5188039Y-14920430D02*
X5207086Y-14920430D01*
X5207086Y-14920430D02*
X5226134Y-14929954D01*
X5226134Y-14929954D02*
X5235658Y-14939478D01*
X5235658Y-14939478D02*
X5245182Y-14958526D01*
X5245182Y-14958526D02*
X5254705Y-14996621D01*
X5254705Y-14996621D02*
X5254705Y-15044240D01*
X5254705Y-15044240D02*
X5245182Y-15082335D01*
X5245182Y-15082335D02*
X5235658Y-15101383D01*
X5235658Y-15101383D02*
X5226134Y-15110907D01*
X5226134Y-15110907D02*
X5207086Y-15120430D01*
X5207086Y-15120430D02*
X5188039Y-15120430D01*
X5188039Y-15120430D02*
X5168991Y-15110907D01*
X5168991Y-15110907D02*
X5159467Y-15101383D01*
X5159467Y-15101383D02*
X5149944Y-15082335D01*
X5149944Y-15082335D02*
X5140420Y-15044240D01*
X5140420Y-15044240D02*
X5140420Y-14996621D01*
X5140420Y-14996621D02*
X5149944Y-14958526D01*
X5149944Y-14958526D02*
X5159467Y-14939478D01*
X5159467Y-14939478D02*
X5168991Y-14929954D01*
X5168991Y-14929954D02*
X5188039Y-14920430D01*
X5340420Y-15120430D02*
X5340420Y-14987097D01*
X5340420Y-15006145D02*
X5349944Y-14996621D01*
X5349944Y-14996621D02*
X5368991Y-14987097D01*
X5368991Y-14987097D02*
X5397563Y-14987097D01*
X5397563Y-14987097D02*
X5416610Y-14996621D01*
X5416610Y-14996621D02*
X5426134Y-15015668D01*
X5426134Y-15015668D02*
X5426134Y-15120430D01*
X5426134Y-15015668D02*
X5435658Y-14996621D01*
X5435658Y-14996621D02*
X5454705Y-14987097D01*
X5454705Y-14987097D02*
X5483277Y-14987097D01*
X5483277Y-14987097D02*
X5502325Y-14996621D01*
X5502325Y-14996621D02*
X5511848Y-15015668D01*
X5511848Y-15015668D02*
X5511848Y-15120430D01*
X5607086Y-15120430D02*
X5607086Y-14987097D01*
X5607086Y-15006145D02*
X5616610Y-14996621D01*
X5616610Y-14996621D02*
X5635658Y-14987097D01*
X5635658Y-14987097D02*
X5664229Y-14987097D01*
X5664229Y-14987097D02*
X5683277Y-14996621D01*
X5683277Y-14996621D02*
X5692801Y-15015668D01*
X5692801Y-15015668D02*
X5692801Y-15120430D01*
X5692801Y-15015668D02*
X5702324Y-14996621D01*
X5702324Y-14996621D02*
X5721372Y-14987097D01*
X5721372Y-14987097D02*
X5749943Y-14987097D01*
X5749943Y-14987097D02*
X5768991Y-14996621D01*
X5768991Y-14996621D02*
X5778515Y-15015668D01*
X5778515Y-15015668D02*
X5778515Y-15120430D01*
X6168991Y-14910907D02*
X5997563Y-15168049D01*
X6426134Y-14920430D02*
X6445182Y-14920430D01*
X6445182Y-14920430D02*
X6464229Y-14929954D01*
X6464229Y-14929954D02*
X6473753Y-14939478D01*
X6473753Y-14939478D02*
X6483277Y-14958526D01*
X6483277Y-14958526D02*
X6492801Y-14996621D01*
X6492801Y-14996621D02*
X6492801Y-15044240D01*
X6492801Y-15044240D02*
X6483277Y-15082335D01*
X6483277Y-15082335D02*
X6473753Y-15101383D01*
X6473753Y-15101383D02*
X6464229Y-15110907D01*
X6464229Y-15110907D02*
X6445182Y-15120430D01*
X6445182Y-15120430D02*
X6426134Y-15120430D01*
X6426134Y-15120430D02*
X6407086Y-15110907D01*
X6407086Y-15110907D02*
X6397563Y-15101383D01*
X6397563Y-15101383D02*
X6388039Y-15082335D01*
X6388039Y-15082335D02*
X6378515Y-15044240D01*
X6378515Y-15044240D02*
X6378515Y-14996621D01*
X6378515Y-14996621D02*
X6388039Y-14958526D01*
X6388039Y-14958526D02*
X6397563Y-14939478D01*
X6397563Y-14939478D02*
X6407086Y-14929954D01*
X6407086Y-14929954D02*
X6426134Y-14920430D01*
X6578515Y-15101383D02*
X6588039Y-15110907D01*
X6588039Y-15110907D02*
X6578515Y-15120430D01*
X6578515Y-15120430D02*
X6568991Y-15110907D01*
X6568991Y-15110907D02*
X6578515Y-15101383D01*
X6578515Y-15101383D02*
X6578515Y-15120430D01*
X6778515Y-15120430D02*
X6664229Y-15120430D01*
X6721372Y-15120430D02*
X6721372Y-14920430D01*
X6721372Y-14920430D02*
X6702325Y-14949002D01*
X6702325Y-14949002D02*
X6683277Y-14968049D01*
X6683277Y-14968049D02*
X6664229Y-14977573D01*
X6845182Y-14920430D02*
X6968991Y-14920430D01*
X6968991Y-14920430D02*
X6902325Y-14996621D01*
X6902325Y-14996621D02*
X6930896Y-14996621D01*
X6930896Y-14996621D02*
X6949944Y-15006145D01*
X6949944Y-15006145D02*
X6959467Y-15015668D01*
X6959467Y-15015668D02*
X6968991Y-15034716D01*
X6968991Y-15034716D02*
X6968991Y-15082335D01*
X6968991Y-15082335D02*
X6959467Y-15101383D01*
X6959467Y-15101383D02*
X6949944Y-15110907D01*
X6949944Y-15110907D02*
X6930896Y-15120430D01*
X6930896Y-15120430D02*
X6873753Y-15120430D01*
X6873753Y-15120430D02*
X6854706Y-15110907D01*
X6854706Y-15110907D02*
X6845182Y-15101383D01*
X7035658Y-14920430D02*
X7168991Y-14920430D01*
X7168991Y-14920430D02*
X7083277Y-15120430D01*
X7273753Y-15006145D02*
X7254706Y-14996621D01*
X7254706Y-14996621D02*
X7245182Y-14987097D01*
X7245182Y-14987097D02*
X7235658Y-14968049D01*
X7235658Y-14968049D02*
X7235658Y-14958526D01*
X7235658Y-14958526D02*
X7245182Y-14939478D01*
X7245182Y-14939478D02*
X7254706Y-14929954D01*
X7254706Y-14929954D02*
X7273753Y-14920430D01*
X7273753Y-14920430D02*
X7311848Y-14920430D01*
X7311848Y-14920430D02*
X7330896Y-14929954D01*
X7330896Y-14929954D02*
X7340420Y-14939478D01*
X7340420Y-14939478D02*
X7349944Y-14958526D01*
X7349944Y-14958526D02*
X7349944Y-14968049D01*
X7349944Y-14968049D02*
X7340420Y-14987097D01*
X7340420Y-14987097D02*
X7330896Y-14996621D01*
X7330896Y-14996621D02*
X7311848Y-15006145D01*
X7311848Y-15006145D02*
X7273753Y-15006145D01*
X7273753Y-15006145D02*
X7254706Y-15015668D01*
X7254706Y-15015668D02*
X7245182Y-15025192D01*
X7245182Y-15025192D02*
X7235658Y-15044240D01*
X7235658Y-15044240D02*
X7235658Y-15082335D01*
X7235658Y-15082335D02*
X7245182Y-15101383D01*
X7245182Y-15101383D02*
X7254706Y-15110907D01*
X7254706Y-15110907D02*
X7273753Y-15120430D01*
X7273753Y-15120430D02*
X7311848Y-15120430D01*
X7311848Y-15120430D02*
X7330896Y-15110907D01*
X7330896Y-15110907D02*
X7340420Y-15101383D01*
X7340420Y-15101383D02*
X7349944Y-15082335D01*
X7349944Y-15082335D02*
X7349944Y-15044240D01*
X7349944Y-15044240D02*
X7340420Y-15025192D01*
X7340420Y-15025192D02*
X7330896Y-15015668D01*
X7330896Y-15015668D02*
X7311848Y-15006145D01*
X7426134Y-14920430D02*
X7426134Y-14958526D01*
X7502325Y-14920430D02*
X7502325Y-14958526D01*
X7797563Y-15196621D02*
X7788039Y-15187097D01*
X7788039Y-15187097D02*
X7768991Y-15158526D01*
X7768991Y-15158526D02*
X7759468Y-15139478D01*
X7759468Y-15139478D02*
X7749944Y-15110907D01*
X7749944Y-15110907D02*
X7740420Y-15063287D01*
X7740420Y-15063287D02*
X7740420Y-15025192D01*
X7740420Y-15025192D02*
X7749944Y-14977573D01*
X7749944Y-14977573D02*
X7759468Y-14949002D01*
X7759468Y-14949002D02*
X7768991Y-14929954D01*
X7768991Y-14929954D02*
X7788039Y-14901383D01*
X7788039Y-14901383D02*
X7797563Y-14891859D01*
X7902325Y-15006145D02*
X7883277Y-14996621D01*
X7883277Y-14996621D02*
X7873753Y-14987097D01*
X7873753Y-14987097D02*
X7864229Y-14968049D01*
X7864229Y-14968049D02*
X7864229Y-14958526D01*
X7864229Y-14958526D02*
X7873753Y-14939478D01*
X7873753Y-14939478D02*
X7883277Y-14929954D01*
X7883277Y-14929954D02*
X7902325Y-14920430D01*
X7902325Y-14920430D02*
X7940420Y-14920430D01*
X7940420Y-14920430D02*
X7959468Y-14929954D01*
X7959468Y-14929954D02*
X7968991Y-14939478D01*
X7968991Y-14939478D02*
X7978515Y-14958526D01*
X7978515Y-14958526D02*
X7978515Y-14968049D01*
X7978515Y-14968049D02*
X7968991Y-14987097D01*
X7968991Y-14987097D02*
X7959468Y-14996621D01*
X7959468Y-14996621D02*
X7940420Y-15006145D01*
X7940420Y-15006145D02*
X7902325Y-15006145D01*
X7902325Y-15006145D02*
X7883277Y-15015668D01*
X7883277Y-15015668D02*
X7873753Y-15025192D01*
X7873753Y-15025192D02*
X7864229Y-15044240D01*
X7864229Y-15044240D02*
X7864229Y-15082335D01*
X7864229Y-15082335D02*
X7873753Y-15101383D01*
X7873753Y-15101383D02*
X7883277Y-15110907D01*
X7883277Y-15110907D02*
X7902325Y-15120430D01*
X7902325Y-15120430D02*
X7940420Y-15120430D01*
X7940420Y-15120430D02*
X7959468Y-15110907D01*
X7959468Y-15110907D02*
X7968991Y-15101383D01*
X7968991Y-15101383D02*
X7978515Y-15082335D01*
X7978515Y-15082335D02*
X7978515Y-15044240D01*
X7978515Y-15044240D02*
X7968991Y-15025192D01*
X7968991Y-15025192D02*
X7959468Y-15015668D01*
X7959468Y-15015668D02*
X7940420Y-15006145D01*
X8216610Y-15120430D02*
X8216610Y-14920430D01*
X8302325Y-15120430D02*
X8302325Y-15015668D01*
X8302325Y-15015668D02*
X8292801Y-14996621D01*
X8292801Y-14996621D02*
X8273753Y-14987097D01*
X8273753Y-14987097D02*
X8245182Y-14987097D01*
X8245182Y-14987097D02*
X8226134Y-14996621D01*
X8226134Y-14996621D02*
X8216610Y-15006145D01*
X8426134Y-15120430D02*
X8407087Y-15110907D01*
X8407087Y-15110907D02*
X8397563Y-15101383D01*
X8397563Y-15101383D02*
X8388039Y-15082335D01*
X8388039Y-15082335D02*
X8388039Y-15025192D01*
X8388039Y-15025192D02*
X8397563Y-15006145D01*
X8397563Y-15006145D02*
X8407087Y-14996621D01*
X8407087Y-14996621D02*
X8426134Y-14987097D01*
X8426134Y-14987097D02*
X8454706Y-14987097D01*
X8454706Y-14987097D02*
X8473753Y-14996621D01*
X8473753Y-14996621D02*
X8483277Y-15006145D01*
X8483277Y-15006145D02*
X8492801Y-15025192D01*
X8492801Y-15025192D02*
X8492801Y-15082335D01*
X8492801Y-15082335D02*
X8483277Y-15101383D01*
X8483277Y-15101383D02*
X8473753Y-15110907D01*
X8473753Y-15110907D02*
X8454706Y-15120430D01*
X8454706Y-15120430D02*
X8426134Y-15120430D01*
X8607087Y-15120430D02*
X8588039Y-15110907D01*
X8588039Y-15110907D02*
X8578515Y-15091859D01*
X8578515Y-15091859D02*
X8578515Y-14920430D01*
X8759468Y-15110907D02*
X8740420Y-15120430D01*
X8740420Y-15120430D02*
X8702325Y-15120430D01*
X8702325Y-15120430D02*
X8683277Y-15110907D01*
X8683277Y-15110907D02*
X8673753Y-15091859D01*
X8673753Y-15091859D02*
X8673753Y-15015668D01*
X8673753Y-15015668D02*
X8683277Y-14996621D01*
X8683277Y-14996621D02*
X8702325Y-14987097D01*
X8702325Y-14987097D02*
X8740420Y-14987097D01*
X8740420Y-14987097D02*
X8759468Y-14996621D01*
X8759468Y-14996621D02*
X8768992Y-15015668D01*
X8768992Y-15015668D02*
X8768992Y-15034716D01*
X8768992Y-15034716D02*
X8673753Y-15053764D01*
X8845182Y-15110907D02*
X8864230Y-15120430D01*
X8864230Y-15120430D02*
X8902325Y-15120430D01*
X8902325Y-15120430D02*
X8921373Y-15110907D01*
X8921373Y-15110907D02*
X8930896Y-15091859D01*
X8930896Y-15091859D02*
X8930896Y-15082335D01*
X8930896Y-15082335D02*
X8921373Y-15063287D01*
X8921373Y-15063287D02*
X8902325Y-15053764D01*
X8902325Y-15053764D02*
X8873753Y-15053764D01*
X8873753Y-15053764D02*
X8854706Y-15044240D01*
X8854706Y-15044240D02*
X8845182Y-15025192D01*
X8845182Y-15025192D02*
X8845182Y-15015668D01*
X8845182Y-15015668D02*
X8854706Y-14996621D01*
X8854706Y-14996621D02*
X8873753Y-14987097D01*
X8873753Y-14987097D02*
X8902325Y-14987097D01*
X8902325Y-14987097D02*
X8921373Y-14996621D01*
X8997563Y-15196621D02*
X9007087Y-15187097D01*
X9007087Y-15187097D02*
X9026134Y-15158526D01*
X9026134Y-15158526D02*
X9035658Y-15139478D01*
X9035658Y-15139478D02*
X9045182Y-15110907D01*
X9045182Y-15110907D02*
X9054706Y-15063287D01*
X9054706Y-15063287D02*
X9054706Y-15025192D01*
X9054706Y-15025192D02*
X9045182Y-14977573D01*
X9045182Y-14977573D02*
X9035658Y-14949002D01*
X9035658Y-14949002D02*
X9026134Y-14929954D01*
X9026134Y-14929954D02*
X9007087Y-14901383D01*
X9007087Y-14901383D02*
X8997563Y-14891859D01*
X9359468Y-15196621D02*
X9349944Y-15187097D01*
X9349944Y-15187097D02*
X9330896Y-15158526D01*
X9330896Y-15158526D02*
X9321373Y-15139478D01*
X9321373Y-15139478D02*
X9311849Y-15110907D01*
X9311849Y-15110907D02*
X9302325Y-15063287D01*
X9302325Y-15063287D02*
X9302325Y-15025192D01*
X9302325Y-15025192D02*
X9311849Y-14977573D01*
X9311849Y-14977573D02*
X9321373Y-14949002D01*
X9321373Y-14949002D02*
X9330896Y-14929954D01*
X9330896Y-14929954D02*
X9349944Y-14901383D01*
X9349944Y-14901383D02*
X9359468Y-14891859D01*
X9435658Y-14987097D02*
X9435658Y-15120430D01*
X9435658Y-15006145D02*
X9445182Y-14996621D01*
X9445182Y-14996621D02*
X9464230Y-14987097D01*
X9464230Y-14987097D02*
X9492801Y-14987097D01*
X9492801Y-14987097D02*
X9511849Y-14996621D01*
X9511849Y-14996621D02*
X9521373Y-15015668D01*
X9521373Y-15015668D02*
X9521373Y-15120430D01*
X9645182Y-15120430D02*
X9626134Y-15110907D01*
X9626134Y-15110907D02*
X9616611Y-15101383D01*
X9616611Y-15101383D02*
X9607087Y-15082335D01*
X9607087Y-15082335D02*
X9607087Y-15025192D01*
X9607087Y-15025192D02*
X9616611Y-15006145D01*
X9616611Y-15006145D02*
X9626134Y-14996621D01*
X9626134Y-14996621D02*
X9645182Y-14987097D01*
X9645182Y-14987097D02*
X9673754Y-14987097D01*
X9673754Y-14987097D02*
X9692801Y-14996621D01*
X9692801Y-14996621D02*
X9702325Y-15006145D01*
X9702325Y-15006145D02*
X9711849Y-15025192D01*
X9711849Y-15025192D02*
X9711849Y-15082335D01*
X9711849Y-15082335D02*
X9702325Y-15101383D01*
X9702325Y-15101383D02*
X9692801Y-15110907D01*
X9692801Y-15110907D02*
X9673754Y-15120430D01*
X9673754Y-15120430D02*
X9645182Y-15120430D01*
X9768992Y-14987097D02*
X9845182Y-14987097D01*
X9797563Y-14920430D02*
X9797563Y-15091859D01*
X9797563Y-15091859D02*
X9807087Y-15110907D01*
X9807087Y-15110907D02*
X9826134Y-15120430D01*
X9826134Y-15120430D02*
X9845182Y-15120430D01*
X10064230Y-14987097D02*
X10064230Y-15187097D01*
X10064230Y-14996621D02*
X10083277Y-14987097D01*
X10083277Y-14987097D02*
X10121373Y-14987097D01*
X10121373Y-14987097D02*
X10140420Y-14996621D01*
X10140420Y-14996621D02*
X10149944Y-15006145D01*
X10149944Y-15006145D02*
X10159468Y-15025192D01*
X10159468Y-15025192D02*
X10159468Y-15082335D01*
X10159468Y-15082335D02*
X10149944Y-15101383D01*
X10149944Y-15101383D02*
X10140420Y-15110907D01*
X10140420Y-15110907D02*
X10121373Y-15120430D01*
X10121373Y-15120430D02*
X10083277Y-15120430D01*
X10083277Y-15120430D02*
X10064230Y-15110907D01*
X10273754Y-15120430D02*
X10254706Y-15110907D01*
X10254706Y-15110907D02*
X10245182Y-15091859D01*
X10245182Y-15091859D02*
X10245182Y-14920430D01*
X10435658Y-15120430D02*
X10435658Y-15015668D01*
X10435658Y-15015668D02*
X10426135Y-14996621D01*
X10426135Y-14996621D02*
X10407087Y-14987097D01*
X10407087Y-14987097D02*
X10368992Y-14987097D01*
X10368992Y-14987097D02*
X10349944Y-14996621D01*
X10435658Y-15110907D02*
X10416611Y-15120430D01*
X10416611Y-15120430D02*
X10368992Y-15120430D01*
X10368992Y-15120430D02*
X10349944Y-15110907D01*
X10349944Y-15110907D02*
X10340420Y-15091859D01*
X10340420Y-15091859D02*
X10340420Y-15072811D01*
X10340420Y-15072811D02*
X10349944Y-15053764D01*
X10349944Y-15053764D02*
X10368992Y-15044240D01*
X10368992Y-15044240D02*
X10416611Y-15044240D01*
X10416611Y-15044240D02*
X10435658Y-15034716D01*
X10502325Y-14987097D02*
X10578515Y-14987097D01*
X10530896Y-14920430D02*
X10530896Y-15091859D01*
X10530896Y-15091859D02*
X10540420Y-15110907D01*
X10540420Y-15110907D02*
X10559468Y-15120430D01*
X10559468Y-15120430D02*
X10578515Y-15120430D01*
X10721373Y-15110907D02*
X10702325Y-15120430D01*
X10702325Y-15120430D02*
X10664230Y-15120430D01*
X10664230Y-15120430D02*
X10645182Y-15110907D01*
X10645182Y-15110907D02*
X10635658Y-15091859D01*
X10635658Y-15091859D02*
X10635658Y-15015668D01*
X10635658Y-15015668D02*
X10645182Y-14996621D01*
X10645182Y-14996621D02*
X10664230Y-14987097D01*
X10664230Y-14987097D02*
X10702325Y-14987097D01*
X10702325Y-14987097D02*
X10721373Y-14996621D01*
X10721373Y-14996621D02*
X10730896Y-15015668D01*
X10730896Y-15015668D02*
X10730896Y-15034716D01*
X10730896Y-15034716D02*
X10635658Y-15053764D01*
X10902325Y-15120430D02*
X10902325Y-14920430D01*
X10902325Y-15110907D02*
X10883277Y-15120430D01*
X10883277Y-15120430D02*
X10845182Y-15120430D01*
X10845182Y-15120430D02*
X10826135Y-15110907D01*
X10826135Y-15110907D02*
X10816611Y-15101383D01*
X10816611Y-15101383D02*
X10807087Y-15082335D01*
X10807087Y-15082335D02*
X10807087Y-15025192D01*
X10807087Y-15025192D02*
X10816611Y-15006145D01*
X10816611Y-15006145D02*
X10826135Y-14996621D01*
X10826135Y-14996621D02*
X10845182Y-14987097D01*
X10845182Y-14987097D02*
X10883277Y-14987097D01*
X10883277Y-14987097D02*
X10902325Y-14996621D01*
X10978516Y-15196621D02*
X10988039Y-15187097D01*
X10988039Y-15187097D02*
X11007087Y-15158526D01*
X11007087Y-15158526D02*
X11016611Y-15139478D01*
X11016611Y-15139478D02*
X11026135Y-15110907D01*
X11026135Y-15110907D02*
X11035658Y-15063287D01*
X11035658Y-15063287D02*
X11035658Y-15025192D01*
X11035658Y-15025192D02*
X11026135Y-14977573D01*
X11026135Y-14977573D02*
X11016611Y-14949002D01*
X11016611Y-14949002D02*
X11007087Y-14929954D01*
X11007087Y-14929954D02*
X10988039Y-14901383D01*
X10988039Y-14901383D02*
X10978516Y-14891859D01*
M02*
