<?xml version="1.0" standalone="no"?>
 <!DOCTYPE svg PUBLIC "-//W3C//DTD SVG 1.1//EN" 
 "http://www.w3.org/Graphics/SVG/1.1/DTD/svg11.dtd"> 
<svg
  xmlns:svg="http://www.w3.org/2000/svg"
  xmlns="http://www.w3.org/2000/svg"
  xmlns:xlink="http://www.w3.org/1999/xlink"
  version="1.1"
  width="297.0022mm" height="210.0072mm" viewBox="0.0000 0.0000 297.0022 210.0072">
<title>SVG Image created as ergo56-User_Eco2.svg date 2023/12/21 13:30:00 </title>
  <desc>Image generated by PCBNEW </desc>
<g style="fill:#000000; fill-opacity:1.0000;stroke:#000000; stroke-opacity:1.0000;
stroke-linecap:round; stroke-linejoin:round;"
 transform="translate(0 0) scale(1 1)">
</g>
<g style="fill:#000000; fill-opacity:0.0; 
stroke:#000000; stroke-width:0.0000; stroke-opacity:1; 
stroke-linecap:round; stroke-linejoin:round;">
</g>
<g style="fill:#000000; fill-opacity:0.0; 
stroke:#000000; stroke-width:0.1500; stroke-opacity:1; 
stroke-linecap:round; stroke-linejoin:round;">
<circle cx="187.1396" cy="66.6245" r="1.1000" /> 
</g>
<g style="fill:#000000; fill-opacity:0.0; 
stroke:#000000; stroke-width:0.0500; stroke-opacity:1; 
stroke-linecap:round; stroke-linejoin:round;">
<path d="M211.0323 93.2515
L214.3711 105.7119
" />
<path d="M214.0175 106.3243
L201.5571 109.6631
" />
<path d="M197.9595 96.2367
L210.4199 92.8979
" />
<path d="M200.9447 109.3095
L197.6059 96.8491
" />
<path d="M214.0175 106.3243 A0.5000 0.5000 0.0 0 0 214.3711 105.7119" />
<path d="M211.0323 93.2515 A0.5000 0.5000 0.0 0 0 210.4199 92.8979" />
<path d="M200.9447 109.3095 A0.5000 0.5000 0.0 0 0 201.5571 109.6631" />
<path d="M197.9595 96.2367 A0.5000 0.5000 0.0 0 0 197.6059 96.8491" />
<path d="M229.6930 93.3476
L233.0318 105.8081
" />
<path d="M232.6782 106.4205
L220.2178 109.7592
" />
<path d="M216.6202 96.3329
L229.0807 92.9941
" />
<path d="M219.6054 109.4057
L216.2667 96.9452
" />
<path d="M232.6782 106.4205 A0.5000 0.5000 0.0 0 0 233.0318 105.8081" />
<path d="M229.6930 93.3476 A0.5000 0.5000 0.0 0 0 229.0807 92.9941" />
<path d="M219.6054 109.4057 A0.5000 0.5000 0.0 0 0 220.2178 109.7592" />
<path d="M216.6202 96.3329 A0.5000 0.5000 0.0 0 0 216.2667 96.9452" />
<path d="M248.3299 93.3545
L251.6686 105.8150
" />
<path d="M251.3151 106.4274
L238.8546 109.7661
" />
<path d="M235.2570 96.3398
L247.7175 93.0010
" />
<path d="M238.2422 109.4126
L234.9035 96.9521
" />
<path d="M251.3151 106.4274 A0.5000 0.5000 0.0 0 0 251.6686 105.8150" />
<path d="M248.3299 93.3545 A0.5000 0.5000 0.0 0 0 247.7175 93.0010" />
<path d="M238.2422 109.4126 A0.5000 0.5000 0.0 0 0 238.8546 109.7661" />
<path d="M235.2570 96.3398 A0.5000 0.5000 0.0 0 0 234.9035 96.9521" />
<path d="M266.9906 93.4507
L270.3294 105.9111
" />
<path d="M269.9758 106.5235
L257.5154 109.8623
" />
<path d="M253.9178 96.4359
L266.3782 93.0971
" />
<path d="M256.9030 109.5087
L253.5642 97.0483
" />
<path d="M269.9758 106.5235 A0.5000 0.5000 0.0 0 0 270.3294 105.9111" />
<path d="M266.9906 93.4507 A0.5000 0.5000 0.0 0 0 266.3782 93.0971" />
<path d="M256.9030 109.5087 A0.5000 0.5000 0.0 0 0 257.5154 109.8623" />
<path d="M253.9178 96.4359 A0.5000 0.5000 0.0 0 0 253.5642 97.0483" />
<path d="M47.5258 80.6687
L44.1871 93.1291
" />
<path d="M43.5747 93.4827
L31.1142 90.1439
" />
<path d="M34.7118 76.7175
L47.1723 80.0563
" />
<path d="M30.7607 89.5315
L34.0995 77.0711
" />
<path d="M43.5747 93.4827 A0.5000 0.5000 0.0 0 0 44.1871 93.1291" />
<path d="M47.5258 80.6687 A0.5000 0.5000 0.0 0 0 47.1723 80.0563" />
<path d="M30.7607 89.5315 A0.5000 0.5000 0.0 0 0 31.1142 90.1439" />
<path d="M34.7118 76.7175 A0.5000 0.5000 0.0 0 0 34.0995 77.0711" />
<path d="M66.1977 80.5310
L62.8589 92.9914
" />
<path d="M62.2465 93.3450
L49.7861 90.0062
" />
<path d="M53.3837 76.5798
L65.8441 79.9186
" />
<path d="M49.4326 89.3938
L52.7713 76.9334
" />
<path d="M62.2465 93.3450 A0.5000 0.5000 0.0 0 0 62.8589 92.9914" />
<path d="M66.1977 80.5310 A0.5000 0.5000 0.0 0 0 65.8441 79.9186" />
<path d="M49.4326 89.3938 A0.5000 0.5000 0.0 0 0 49.7861 90.0062" />
<path d="M53.3837 76.5798 A0.5000 0.5000 0.0 0 0 52.7713 76.9334" />
<path d="M84.8344 80.5245
L81.4956 92.9849
" />
<path d="M80.8833 93.3385
L68.4228 89.9997
" />
<path d="M72.0204 76.5733
L84.4808 79.9121
" />
<path d="M68.0693 89.3873
L71.4080 76.9269
" />
<path d="M80.8833 93.3385 A0.5000 0.5000 0.0 0 0 81.4956 92.9849" />
<path d="M84.8344 80.5245 A0.5000 0.5000 0.0 0 0 84.4808 79.9121" />
<path d="M68.0693 89.3873 A0.5000 0.5000 0.0 0 0 68.4228 89.9997" />
<path d="M72.0204 76.5733 A0.5000 0.5000 0.0 0 0 71.4080 76.9269" />
<path d="M119.8062 89.1011
L116.4675 101.5615
" />
<path d="M115.8551 101.9151
L103.3947 98.5763
" />
<path d="M106.9922 85.1500
L119.4527 88.4887
" />
<path d="M103.0411 97.9640
L106.3799 85.5035
" />
<path d="M115.8551 101.9151 A0.5000 0.5000 0.0 0 0 116.4675 101.5615" />
<path d="M119.8062 89.1011 A0.5000 0.5000 0.0 0 0 119.4527 88.4887" />
<path d="M103.0411 97.9640 A0.5000 0.5000 0.0 0 0 103.3947 98.5763" />
<path d="M106.9922 85.1500 A0.5000 0.5000 0.0 0 0 106.3799 85.5035" />
<path d="M136.1174 97.7739
L132.7786 110.2343
" />
<path d="M132.1662 110.5879
L119.7058 107.2491
" />
<path d="M123.3034 93.8227
L135.7638 97.1615
" />
<path d="M119.3522 106.6367
L122.6910 94.1763
" />
<path d="M132.1662 110.5879 A0.5000 0.5000 0.0 0 0 132.7786 110.2343" />
<path d="M136.1174 97.7739 A0.5000 0.5000 0.0 0 0 135.7638 97.1615" />
<path d="M119.3522 106.6367 A0.5000 0.5000 0.0 0 0 119.7058 107.2491" />
<path d="M123.3034 93.8227 A0.5000 0.5000 0.0 0 0 122.6910 94.1763" />
<path d="M174.0102 94.1763
L177.3489 106.6367
" />
<path d="M176.9954 107.2491
L164.5349 110.5879
" />
<path d="M160.9373 97.1615
L173.3978 93.8227
" />
<path d="M163.9226 110.2343
L160.5838 97.7739
" />
<path d="M176.9954 107.2491 A0.5000 0.5000 0.0 0 0 177.3489 106.6367" />
<path d="M174.0102 94.1763 A0.5000 0.5000 0.0 0 0 173.3978 93.8227" />
<path d="M163.9226 110.2343 A0.5000 0.5000 0.0 0 0 164.5349 110.5879" />
<path d="M160.9373 97.1615 A0.5000 0.5000 0.0 0 0 160.5838 97.7739" />
<path d="M140.5173 81.3531
L137.1785 93.8136
" />
<path d="M136.5661 94.1671
L124.1057 90.8284
" />
<path d="M127.7033 77.4020
L140.1637 80.7408
" />
<path d="M123.7521 90.2160
L127.0909 77.7556
" />
<path d="M136.5661 94.1671 A0.5000 0.5000 0.0 0 0 137.1785 93.8136" />
<path d="M140.5173 81.3531 A0.5000 0.5000 0.0 0 0 140.1637 80.7408" />
<path d="M123.7521 90.2160 A0.5000 0.5000 0.0 0 0 124.1057 90.8284" />
<path d="M127.7033 77.4020 A0.5000 0.5000 0.0 0 0 127.0909 77.7556" />
<path d="M103.4951 80.4283
L100.1564 92.8888
" />
<path d="M99.5440 93.2423
L87.0835 89.9036
" />
<path d="M90.6811 76.4772
L103.1416 79.8160
" />
<path d="M86.7300 89.2912
L90.0688 76.8308
" />
<path d="M99.5440 93.2423 A0.5000 0.5000 0.0 0 0 100.1564 92.8888" />
<path d="M103.4951 80.4283 A0.5000 0.5000 0.0 0 0 103.1416 79.8160" />
<path d="M86.7300 89.2912 A0.5000 0.5000 0.0 0 0 87.0835 89.9036" />
<path d="M90.6811 76.4772 A0.5000 0.5000 0.0 0 0 90.0688 76.8308" />
<path d="M190.3213 85.5035
L193.6600 97.9640
" />
<path d="M193.3065 98.5763
L180.8460 101.9151
" />
<path d="M177.2484 88.4887
L189.7089 85.1500
" />
<path d="M180.2337 101.5616
L176.8949 89.1011
" />
<path d="M193.3065 98.5763 A0.5000 0.5000 0.0 0 0 193.6600 97.9640" />
<path d="M190.3213 85.5035 A0.5000 0.5000 0.0 0 0 189.7089 85.1500" />
<path d="M180.2337 101.5616 A0.5000 0.5000 0.0 0 0 180.8460 101.9151" />
<path d="M177.2484 88.4887 A0.5000 0.5000 0.0 0 0 176.8949 89.1011" />
<path d="M206.6324 76.8308
L209.9711 89.2912
" />
<path d="M209.6176 89.9036
L197.1571 93.2423
" />
<path d="M193.5596 79.8160
L206.0200 76.4772
" />
<path d="M196.5448 92.8888
L193.2060 80.4283
" />
<path d="M209.6176 89.9036 A0.5000 0.5000 0.0 0 0 209.9711 89.2912" />
<path d="M206.6324 76.8308 A0.5000 0.5000 0.0 0 0 206.0200 76.4772" />
<path d="M196.5448 92.8888 A0.5000 0.5000 0.0 0 0 197.1571 93.2423" />
<path d="M193.5596 79.8160 A0.5000 0.5000 0.0 0 0 193.2060 80.4283" />
<path d="M225.2931 76.9269
L228.6319 89.3873
" />
<path d="M228.2783 89.9997
L215.8179 93.3385
" />
<path d="M212.2203 79.9121
L224.6807 76.5733
" />
<path d="M215.2055 92.9849
L211.8667 80.5245
" />
<path d="M228.2783 89.9997 A0.5000 0.5000 0.0 0 0 228.6319 89.3873" />
<path d="M225.2931 76.9269 A0.5000 0.5000 0.0 0 0 224.6807 76.5733" />
<path d="M215.2055 92.9849 A0.5000 0.5000 0.0 0 0 215.8179 93.3385" />
<path d="M212.2203 79.9121 A0.5000 0.5000 0.0 0 0 211.8667 80.5245" />
<path d="M243.9299 76.9338
L247.2687 89.3943
" />
<path d="M246.9151 90.0066
L234.4547 93.3454
" />
<path d="M230.8571 79.9190
L243.3176 76.5803
" />
<path d="M233.8423 92.9918
L230.5036 80.5314
" />
<path d="M246.9151 90.0066 A0.5000 0.5000 0.0 0 0 247.2687 89.3943" />
<path d="M243.9299 76.9338 A0.5000 0.5000 0.0 0 0 243.3176 76.5803" />
<path d="M233.8423 92.9918 A0.5000 0.5000 0.0 0 0 234.4547 93.3454" />
<path d="M230.8571 79.9190 A0.5000 0.5000 0.0 0 0 230.5036 80.5314" />
<path d="M262.5907 77.0300
L265.9294 89.4904
" />
<path d="M265.5759 90.1028
L253.1154 93.4415
" />
<path d="M249.5179 80.0152
L261.9783 76.6764
" />
<path d="M252.5031 93.0880
L249.1643 80.6275
" />
<path d="M265.5759 90.1028 A0.5000 0.5000 0.0 0 0 265.9294 89.4904" />
<path d="M262.5907 77.0300 A0.5000 0.5000 0.0 0 0 261.9783 76.6764" />
<path d="M252.5031 93.0880 A0.5000 0.5000 0.0 0 0 253.1154 93.4415" />
<path d="M249.5179 80.0152 A0.5000 0.5000 0.0 0 0 249.1643 80.6275" />
<path d="M51.9257 64.2479
L48.5870 76.7084
" />
<path d="M47.9746 77.0619
L35.5142 73.7232
" />
<path d="M39.1118 60.2968
L51.5722 63.6356
" />
<path d="M35.1606 73.1108
L38.4994 60.6503
" />
<path d="M47.9746 77.0619 A0.5000 0.5000 0.0 0 0 48.5870 76.7084" />
<path d="M51.9257 64.2479 A0.5000 0.5000 0.0 0 0 51.5722 63.6356" />
<path d="M35.1606 73.1108 A0.5000 0.5000 0.0 0 0 35.5142 73.7232" />
<path d="M39.1118 60.2968 A0.5000 0.5000 0.0 0 0 38.4994 60.6503" />
<path d="M182.8100 127.0175
L186.1488 139.4779
" />
<path d="M185.7952 140.0903
L173.3348 143.4290
" />
<path d="M169.7372 130.0027
L182.1976 126.6639
" />
<path d="M172.7224 143.0755
L169.3836 130.6150
" />
<path d="M185.7952 140.0903 A0.5000 0.5000 0.0 0 0 186.1488 139.4779" />
<path d="M182.8100 127.0175 A0.5000 0.5000 0.0 0 0 182.1976 126.6639" />
<path d="M172.7224 143.0755 A0.5000 0.5000 0.0 0 0 173.3348 143.4290" />
<path d="M169.7372 130.0027 A0.5000 0.5000 0.0 0 0 169.3836 130.6150" />
<path d="M70.5976 64.1102
L67.2588 76.5707
" />
<path d="M66.6465 76.9242
L54.1860 73.5855
" />
<path d="M57.7836 60.1591
L70.2441 63.4979
" />
<path d="M53.8325 72.9731
L57.1712 60.5127
" />
<path d="M66.6465 76.9242 A0.5000 0.5000 0.0 0 0 67.2588 76.5707" />
<path d="M70.5976 64.1102 A0.5000 0.5000 0.0 0 0 70.2441 63.4979" />
<path d="M53.8325 72.9731 A0.5000 0.5000 0.0 0 0 54.1860 73.5855" />
<path d="M57.7836 60.1591 A0.5000 0.5000 0.0 0 0 57.1712 60.5127" />
<path d="M258.1907 60.6092
L261.5295 73.0697
" />
<path d="M261.1759 73.6820
L248.7155 77.0208
" />
<path d="M245.1179 63.5944
L257.5784 60.2557
" />
<path d="M248.1031 76.6672
L244.7644 64.2068
" />
<path d="M261.1759 73.6820 A0.5000 0.5000 0.0 0 0 261.5295 73.0697" />
<path d="M258.1907 60.6092 A0.5000 0.5000 0.0 0 0 257.5784 60.2557" />
<path d="M248.1031 76.6672 A0.5000 0.5000 0.0 0 0 248.7155 77.0208" />
<path d="M245.1179 63.5944 A0.5000 0.5000 0.0 0 0 244.7644 64.2068" />
<path d="M185.9213 69.0828
L189.2601 81.5432
" />
<path d="M188.9066 82.1556
L176.4461 85.4944
" />
<path d="M172.8485 72.0680
L185.3090 68.7292
" />
<path d="M175.8337 85.1408
L172.4950 72.6804
" />
<path d="M188.9066 82.1556 A0.5000 0.5000 0.0 0 0 189.2601 81.5432" />
<path d="M185.9213 69.0828 A0.5000 0.5000 0.0 0 0 185.3090 68.7292" />
<path d="M175.8337 85.1408 A0.5000 0.5000 0.0 0 0 176.4461 85.4944" />
<path d="M172.8485 72.0680 A0.5000 0.5000 0.0 0 0 172.4950 72.6804" />
<path d="M202.2325 60.4100
L205.5712 72.8705
" />
<path d="M205.2177 73.4828
L192.7572 76.8216
" />
<path d="M189.1596 63.3952
L201.6201 60.0565
" />
<path d="M192.1448 76.4680
L188.8061 64.0076
" />
<path d="M205.2177 73.4828 A0.5000 0.5000 0.0 0 0 205.5712 72.8705" />
<path d="M202.2325 60.4100 A0.5000 0.5000 0.0 0 0 201.6201 60.0565" />
<path d="M192.1448 76.4680 A0.5000 0.5000 0.0 0 0 192.7572 76.8216" />
<path d="M189.1596 63.3952 A0.5000 0.5000 0.0 0 0 188.8061 64.0076" />
<path d="M124.2062 72.6804
L120.8674 85.1408
" />
<path d="M120.2550 85.4944
L107.7946 82.1556
" />
<path d="M111.3922 68.7292
L123.8526 72.0680
" />
<path d="M107.4410 81.5432
L110.7798 69.0828
" />
<path d="M120.2550 85.4944 A0.5000 0.5000 0.0 0 0 120.8674 85.1408" />
<path d="M124.2062 72.6804 A0.5000 0.5000 0.0 0 0 123.8526 72.0680" />
<path d="M107.4410 81.5432 A0.5000 0.5000 0.0 0 0 107.7946 82.1556" />
<path d="M111.3922 68.7292 A0.5000 0.5000 0.0 0 0 110.7798 69.0828" />
<path d="M131.7174 114.1946
L128.3787 126.6551
" />
<path d="M127.7663 127.0086
L115.3058 123.6698
" />
<path d="M118.9034 110.2435
L131.3639 113.5822
" />
<path d="M114.9523 123.0575
L118.2911 110.5970
" />
<path d="M127.7663 127.0086 A0.5000 0.5000 0.0 0 0 128.3787 126.6551" />
<path d="M131.7174 114.1946 A0.5000 0.5000 0.0 0 0 131.3639 113.5822" />
<path d="M114.9523 123.0575 A0.5000 0.5000 0.0 0 0 115.3058 123.6698" />
<path d="M118.9034 110.2435 A0.5000 0.5000 0.0 0 0 118.2911 110.5970" />
<path d="M239.5300 60.5131
L242.8688 72.9735
" />
<path d="M242.5152 73.5859
L230.0548 76.9247
" />
<path d="M226.4572 63.4983
L238.9176 60.1595
" />
<path d="M229.4424 76.5711
L226.1036 64.1107
" />
<path d="M242.5152 73.5859 A0.5000 0.5000 0.0 0 0 242.8688 72.9735" />
<path d="M239.5300 60.5131 A0.5000 0.5000 0.0 0 0 238.9176 60.1595" />
<path d="M229.4424 76.5711 A0.5000 0.5000 0.0 0 0 230.0548 76.9247" />
<path d="M226.4572 63.4983 A0.5000 0.5000 0.0 0 0 226.1036 64.1107" />
<path d="M89.2343 64.1037
L85.8956 76.5642
" />
<path d="M85.2832 76.9177
L72.8227 73.5790
" />
<path d="M76.4203 60.1526
L88.8808 63.4914
" />
<path d="M72.4692 72.9666
L75.8079 60.5062
" />
<path d="M85.2832 76.9177 A0.5000 0.5000 0.0 0 0 85.8956 76.5642" />
<path d="M89.2343 64.1037 A0.5000 0.5000 0.0 0 0 88.8808 63.4914" />
<path d="M72.4692 72.9666 A0.5000 0.5000 0.0 0 0 72.8227 73.5790" />
<path d="M76.4203 60.1526 A0.5000 0.5000 0.0 0 0 75.8079 60.5062" />
<path d="M107.8951 64.0076
L104.5563 76.4680
" />
<path d="M103.9439 76.8216
L91.4835 73.4828
" />
<path d="M95.0811 60.0565
L107.5415 63.3952
" />
<path d="M91.1299 72.8705
L94.4687 60.4100
" />
<path d="M103.9439 76.8216 A0.5000 0.5000 0.0 0 0 104.5563 76.4680" />
<path d="M107.8951 64.0076 A0.5000 0.5000 0.0 0 0 107.5415 63.3952" />
<path d="M91.1299 72.8705 A0.5000 0.5000 0.0 0 0 91.4835 73.4828" />
<path d="M95.0811 60.0565 A0.5000 0.5000 0.0 0 0 94.4687 60.4100" />
<path d="M43.1259 97.0894
L39.7871 109.5499
" />
<path d="M39.1748 109.9034
L26.7143 106.5646
" />
<path d="M30.3119 93.1383
L42.7723 96.4770
" />
<path d="M26.3608 105.9523
L29.6995 93.4918
" />
<path d="M39.1748 109.9034 A0.5000 0.5000 0.0 0 0 39.7871 109.5499" />
<path d="M43.1259 97.0894 A0.5000 0.5000 0.0 0 0 42.7723 96.4770" />
<path d="M26.3608 105.9523 A0.5000 0.5000 0.0 0 0 26.7143 106.5646" />
<path d="M30.3119 93.1383 A0.5000 0.5000 0.0 0 0 29.6995 93.4918" />
<path d="M61.7978 96.9517
L58.4590 109.4122
" />
<path d="M57.8466 109.7657
L45.3862 106.4270
" />
<path d="M48.9838 93.0006
L61.4442 96.3393
" />
<path d="M45.0326 105.8146
L48.3714 93.3541
" />
<path d="M57.8466 109.7657 A0.5000 0.5000 0.0 0 0 58.4590 109.4122" />
<path d="M61.7978 96.9517 A0.5000 0.5000 0.0 0 0 61.4442 96.3393" />
<path d="M45.0326 105.8146 A0.5000 0.5000 0.0 0 0 45.3862 106.4270" />
<path d="M48.9838 93.0006 A0.5000 0.5000 0.0 0 0 48.3714 93.3541" />
<path d="M80.4345 96.9452
L77.0957 109.4057
" />
<path d="M76.4833 109.7592
L64.0229 106.4205
" />
<path d="M67.6205 92.9941
L80.0809 96.3329
" />
<path d="M63.6693 105.8081
L67.0081 93.3476
" />
<path d="M76.4833 109.7592 A0.5000 0.5000 0.0 0 0 77.0957 109.4057" />
<path d="M80.4345 96.9452 A0.5000 0.5000 0.0 0 0 80.0809 96.3329" />
<path d="M63.6693 105.8081 A0.5000 0.5000 0.0 0 0 64.0229 106.4205" />
<path d="M67.6205 92.9941 A0.5000 0.5000 0.0 0 0 67.0081 93.3476" />
<path d="M99.0952 96.8491
L95.7564 109.3095
" />
<path d="M95.1441 109.6631
L82.6836 106.3243
" />
<path d="M86.2812 92.8979
L98.7417 96.2367
" />
<path d="M82.3301 105.7119
L85.6688 93.2515
" />
<path d="M95.1441 109.6631 A0.5000 0.5000 0.0 0 0 95.7564 109.3095" />
<path d="M99.0952 96.8491 A0.5000 0.5000 0.0 0 0 98.7417 96.2367" />
<path d="M82.3301 105.7119 A0.5000 0.5000 0.0 0 0 82.6836 106.3243" />
<path d="M86.2812 92.8979 A0.5000 0.5000 0.0 0 0 85.6688 93.2515" />
<path d="M115.4063 105.5218
L112.0676 117.9823
" />
<path d="M111.4552 118.3358
L98.9947 114.9971
" />
<path d="M102.5923 101.5707
L115.0528 104.9095
" />
<path d="M98.6412 114.3847
L101.9800 101.9243
" />
<path d="M111.4552 118.3358 A0.5000 0.5000 0.0 0 0 112.0676 117.9823" />
<path d="M115.4063 105.5218 A0.5000 0.5000 0.0 0 0 115.0528 104.9095" />
<path d="M98.6412 114.3847 A0.5000 0.5000 0.0 0 0 98.9947 114.9971" />
<path d="M102.5923 101.5707 A0.5000 0.5000 0.0 0 0 101.9800 101.9243" />
<path d="M178.4101 110.5970
L181.7489 123.0575
" />
<path d="M181.3953 123.6699
L168.9349 127.0086
" />
<path d="M165.3373 113.5823
L177.7977 110.2435
" />
<path d="M168.3225 126.6551
L164.9837 114.1946
" />
<path d="M181.3953 123.6699 A0.5000 0.5000 0.0 0 0 181.7489 123.0575" />
<path d="M178.4101 110.5970 A0.5000 0.5000 0.0 0 0 177.7977 110.2435" />
<path d="M168.3225 126.6551 A0.5000 0.5000 0.0 0 0 168.9349 127.0086" />
<path d="M165.3373 113.5823 A0.5000 0.5000 0.0 0 0 164.9837 114.1946" />
<path d="M194.7212 101.9243
L198.0600 114.3847
" />
<path d="M197.7064 114.9971
L185.2460 118.3358
" />
<path d="M181.6484 104.9095
L194.1088 101.5707
" />
<path d="M184.6336 117.9823
L181.2948 105.5218
" />
<path d="M197.7064 114.9971 A0.5000 0.5000 0.0 0 0 198.0600 114.3847" />
<path d="M194.7212 101.9243 A0.5000 0.5000 0.0 0 0 194.1088 101.5707" />
<path d="M184.6336 117.9823 A0.5000 0.5000 0.0 0 0 185.2460 118.3358" />
<path d="M181.6484 104.9095 A0.5000 0.5000 0.0 0 0 181.2948 105.5218" />
<path d="M220.8932 60.5062
L224.2319 72.9666
" />
<path d="M223.8784 73.5790
L211.4180 76.9177
" />
<path d="M207.8204 63.4914
L220.2808 60.1526
" />
<path d="M210.8056 76.5642
L207.4668 64.1038
" />
<path d="M223.8784 73.5790 A0.5000 0.5000 0.0 0 0 224.2319 72.9666" />
<path d="M220.8932 60.5062 A0.5000 0.5000 0.0 0 0 220.2808 60.1526" />
<path d="M210.8056 76.5642 A0.5000 0.5000 0.0 0 0 211.4180 76.9177" />
<path d="M207.8204 63.4914 A0.5000 0.5000 0.0 0 0 207.4668 64.1038" />
<path d="M169.6102 77.7556
L172.9490 90.2160
" />
<path d="M172.5954 90.8284
L160.1350 94.1671
" />
<path d="M156.5374 80.7408
L168.9979 77.4020
" />
<path d="M159.5226 93.8136
L156.1839 81.3531
" />
<path d="M172.5954 90.8284 A0.5000 0.5000 0.0 0 0 172.9490 90.2160" />
<path d="M169.6102 77.7556 A0.5000 0.5000 0.0 0 0 168.9979 77.4020" />
<path d="M159.5226 93.8136 A0.5000 0.5000 0.0 0 0 160.1350 94.1671" />
<path d="M156.5374 80.7408 A0.5000 0.5000 0.0 0 0 156.1839 81.3531" />
<path d="M203.3868 121.4007
L203.3868 134.3007
" />
<path d="M202.8868 134.8007
L189.9868 134.8007
" />
<path d="M189.9868 120.9007
L202.8868 120.9007
" />
<path d="M189.4868 134.3007
L189.4868 121.4007
" />
<path d="M202.8868 134.8007 A0.5000 0.5000 0.0 0 0 203.3868 134.3007" />
<path d="M203.3868 121.4007 A0.5000 0.5000 0.0 0 0 202.8868 120.9007" />
<path d="M189.4868 134.3007 A0.5000 0.5000 0.0 0 0 189.9868 134.8007" />
<path d="M189.9868 120.9007 A0.5000 0.5000 0.0 0 0 189.4868 121.4007" />
<path d="M127.3175 130.6154
L123.9787 143.0758
" />
<path d="M123.3664 143.4294
L110.9059 140.0906
" />
<path d="M114.5035 126.6642
L126.9640 130.0030
" />
<path d="M110.5524 139.4782
L113.8911 127.0178
" />
<path d="M123.3664 143.4294 A0.5000 0.5000 0.0 0 0 123.9787 143.0758" />
<path d="M127.3175 130.6154 A0.5000 0.5000 0.0 0 0 126.9640 130.0030" />
<path d="M110.5524 139.4782 A0.5000 0.5000 0.0 0 0 110.9059 140.0906" />
<path d="M114.5035 126.6642 A0.5000 0.5000 0.0 0 0 113.8911 127.0178" />
<path d="M107.2146 121.4010
L107.2146 134.3010
" />
<path d="M106.7146 134.8010
L93.8146 134.8010
" />
<path d="M93.8146 120.9010
L106.7146 120.9010
" />
<path d="M93.3146 134.3010
L93.3146 121.4010
" />
<path d="M106.7146 134.8010 A0.5000 0.5000 0.0 0 0 107.2146 134.3010" />
<path d="M107.2146 121.4010 A0.5000 0.5000 0.0 0 0 106.7146 120.9010" />
<path d="M93.3146 134.3010 A0.5000 0.5000 0.0 0 0 93.8146 134.8010" />
<path d="M93.8146 120.9010 A0.5000 0.5000 0.0 0 0 93.3146 121.4010" />
<path d="M146.3006 131.3745
L146.3006 144.2745
" />
<path d="M145.8006 144.7745
L132.9006 144.7745
" />
<path d="M132.9006 130.8745
L145.8006 130.8745
" />
<path d="M132.4006 144.2745
L132.4006 131.3745
" />
<path d="M145.8006 144.7745 A0.5000 0.5000 0.0 0 0 146.3006 144.2745" />
<path d="M146.3006 131.3745 A0.5000 0.5000 0.0 0 0 145.8006 130.8745" />
<path d="M132.4006 144.2745 A0.5000 0.5000 0.0 0 0 132.9006 144.7745" />
<path d="M132.9006 130.8745 A0.5000 0.5000 0.0 0 0 132.4006 131.3745" />
<path d="M221.3872 115.9185
L221.3872 128.8185
" />
<path d="M220.8872 129.3185
L207.9872 129.3185
" />
<path d="M207.9872 115.4185
L220.8872 115.4185
" />
<path d="M207.4872 128.8185
L207.4872 115.9185
" />
<path d="M220.8872 129.3185 A0.5000 0.5000 0.0 0 0 221.3872 128.8185" />
<path d="M221.3872 115.9185 A0.5000 0.5000 0.0 0 0 220.8872 115.4185" />
<path d="M207.4872 128.8185 A0.5000 0.5000 0.0 0 0 207.9872 129.3185" />
<path d="M207.9872 115.4185 A0.5000 0.5000 0.0 0 0 207.4872 115.9185" />
<path d="M235.1301 44.0923
L238.4688 56.5528
" />
<path d="M238.1153 57.1651
L225.6548 60.5039
" />
<path d="M222.0573 47.0775
L234.5177 43.7388
" />
<path d="M225.0425 60.1503
L221.7037 47.6899
" />
<path d="M238.1153 57.1651 A0.5000 0.5000 0.0 0 0 238.4688 56.5528" />
<path d="M235.1301 44.0923 A0.5000 0.5000 0.0 0 0 234.5177 43.7388" />
<path d="M225.0425 60.1503 A0.5000 0.5000 0.0 0 0 225.6548 60.5039" />
<path d="M222.0573 47.0775 A0.5000 0.5000 0.0 0 0 221.7037 47.6899" />
<path d="M253.7908 44.1885
L257.1296 56.6489
" />
<path d="M256.7761 57.2613
L244.3156 60.6000
" />
<path d="M240.7180 47.1737
L253.1785 43.8349
" />
<path d="M243.7032 60.2465
L240.3645 47.7860
" />
<path d="M256.7761 57.2613 A0.5000 0.5000 0.0 0 0 257.1296 56.6489" />
<path d="M253.7908 44.1885 A0.5000 0.5000 0.0 0 0 253.1785 43.8349" />
<path d="M243.7032 60.2465 A0.5000 0.5000 0.0 0 0 244.3156 60.6000" />
<path d="M240.7180 47.1737 A0.5000 0.5000 0.0 0 0 240.3645 47.7860" />
<path d="M93.6342 47.6830
L90.2955 60.1434
" />
<path d="M89.6831 60.4970
L77.2227 57.1582
" />
<path d="M80.8203 43.7318
L93.2807 47.0706
" />
<path d="M76.8691 56.5458
L80.2079 44.0854
" />
<path d="M89.6831 60.4970 A0.5000 0.5000 0.0 0 0 90.2955 60.1434" />
<path d="M93.6342 47.6830 A0.5000 0.5000 0.0 0 0 93.2807 47.0706" />
<path d="M76.8691 56.5458 A0.5000 0.5000 0.0 0 0 77.2227 57.1582" />
<path d="M80.8203 43.7318 A0.5000 0.5000 0.0 0 0 80.2079 44.0854" />
<path d="M89.2146 115.9190
L89.2146 128.8190
" />
<path d="M88.7146 129.3190
L75.8146 129.3190
" />
<path d="M75.8146 115.4190
L88.7146 115.4190
" />
<path d="M75.3146 128.8190
L75.3146 115.9190
" />
<path d="M88.7146 129.3190 A0.5000 0.5000 0.0 0 0 89.2146 128.8190" />
<path d="M89.2146 115.9190 A0.5000 0.5000 0.0 0 0 88.7146 115.4190" />
<path d="M75.3146 128.8190 A0.5000 0.5000 0.0 0 0 75.8146 129.3190" />
<path d="M75.8146 115.4190 A0.5000 0.5000 0.0 0 0 75.3146 115.9190" />
<path d="M56.3257 47.8271
L52.9869 60.2876
" />
<path d="M52.3746 60.6411
L39.9141 57.3024
" />
<path d="M43.5117 43.8760
L55.9722 47.2148
" />
<path d="M39.5606 56.6900
L42.8993 44.2296
" />
<path d="M52.3746 60.6411 A0.5000 0.5000 0.0 0 0 52.9869 60.2876" />
<path d="M56.3257 47.8271 A0.5000 0.5000 0.0 0 0 55.9722 47.2148" />
<path d="M39.5606 56.6900 A0.5000 0.5000 0.0 0 0 39.9141 57.3024" />
<path d="M43.5117 43.8760 A0.5000 0.5000 0.0 0 0 42.8993 44.2296" />
<path d="M197.8326 43.9892
L201.1713 56.4497
" />
<path d="M200.8178 57.0621
L188.3573 60.4008
" />
<path d="M184.7598 46.9745
L197.2202 43.6357
" />
<path d="M187.7450 60.0473
L184.4062 47.5868
" />
<path d="M200.8178 57.0621 A0.5000 0.5000 0.0 0 0 201.1713 56.4497" />
<path d="M197.8326 43.9892 A0.5000 0.5000 0.0 0 0 197.2202 43.6357" />
<path d="M187.7450 60.0473 A0.5000 0.5000 0.0 0 0 188.3573 60.4008" />
<path d="M184.7598 46.9745 A0.5000 0.5000 0.0 0 0 184.4062 47.5868" />
<path d="M165.2104 61.3348
L168.5491 73.7953
" />
<path d="M168.1956 74.4076
L155.7351 77.7464
" />
<path d="M152.1375 64.3200
L164.5980 60.9813
" />
<path d="M155.1227 77.3928
L151.7840 64.9324
" />
<path d="M168.1956 74.4076 A0.5000 0.5000 0.0 0 0 168.5491 73.7953" />
<path d="M165.2104 61.3348 A0.5000 0.5000 0.0 0 0 164.5980 60.9813" />
<path d="M155.1227 77.3928 A0.5000 0.5000 0.0 0 0 155.7351 77.7464" />
<path d="M152.1375 64.3200 A0.5000 0.5000 0.0 0 0 151.7840 64.9324" />
<path d="M128.6061 56.2596
L125.2673 68.7201
" />
<path d="M124.6549 69.0736
L112.1945 65.7349
" />
<path d="M115.7921 52.3085
L128.2525 55.6473
" />
<path d="M111.8409 65.1225
L115.1797 52.6621
" />
<path d="M124.6549 69.0736 A0.5000 0.5000 0.0 0 0 125.2673 68.7201" />
<path d="M128.6061 56.2596 A0.5000 0.5000 0.0 0 0 128.2525 55.6473" />
<path d="M111.8409 65.1225 A0.5000 0.5000 0.0 0 0 112.1945 65.7349" />
<path d="M115.7921 52.3085 A0.5000 0.5000 0.0 0 0 115.1797 52.6621" />
<path d="M74.9975 47.6895
L71.6588 60.1499
" />
<path d="M71.0464 60.5035
L58.5859 57.1647
" />
<path d="M62.1835 43.7383
L74.6440 47.0771
" />
<path d="M58.2324 56.5523
L61.5712 44.0919
" />
<path d="M71.0464 60.5035 A0.5000 0.5000 0.0 0 0 71.6588 60.1499" />
<path d="M74.9975 47.6895 A0.5000 0.5000 0.0 0 0 74.6440 47.0771" />
<path d="M58.2324 56.5523 A0.5000 0.5000 0.0 0 0 58.5859 57.1647" />
<path d="M62.1835 43.7383 A0.5000 0.5000 0.0 0 0 61.5712 44.0919" />
<path d="M112.2950 47.5868
L108.9562 60.0473
" />
<path d="M108.3439 60.4008
L95.8834 57.0621
" />
<path d="M99.4810 43.6357
L111.9415 46.9745
" />
<path d="M95.5299 56.4497
L98.8686 43.9892
" />
<path d="M108.3439 60.4008 A0.5000 0.5000 0.0 0 0 108.9562 60.0473" />
<path d="M112.2950 47.5868 A0.5000 0.5000 0.0 0 0 111.9415 46.9745" />
<path d="M95.5299 56.4497 A0.5000 0.5000 0.0 0 0 95.8834 57.0621" />
<path d="M99.4810 43.6357 A0.5000 0.5000 0.0 0 0 98.8686 43.9892" />
<path d="M216.4932 44.0854
L219.8320 56.5458
" />
<path d="M219.4784 57.1582
L207.0180 60.4970
" />
<path d="M203.4204 47.0706
L215.8809 43.7319
" />
<path d="M206.4056 60.1434
L203.0669 47.6830
" />
<path d="M219.4784 57.1582 A0.5000 0.5000 0.0 0 0 219.8320 56.5458" />
<path d="M216.4932 44.0854 A0.5000 0.5000 0.0 0 0 215.8809 43.7319" />
<path d="M206.4056 60.1434 A0.5000 0.5000 0.0 0 0 207.0180 60.4970" />
<path d="M203.4204 47.0706 A0.5000 0.5000 0.0 0 0 203.0669 47.6830" />
<path d="M181.5214 52.6621
L184.8602 65.1225
" />
<path d="M184.5066 65.7349
L172.0462 69.0737
" />
<path d="M168.4486 55.6473
L180.9090 52.3085
" />
<path d="M171.4338 68.7201
L168.0950 56.2597
" />
<path d="M184.5066 65.7349 A0.5000 0.5000 0.0 0 0 184.8602 65.1225" />
<path d="M181.5214 52.6621 A0.5000 0.5000 0.0 0 0 180.9090 52.3085" />
<path d="M171.4338 68.7201 A0.5000 0.5000 0.0 0 0 172.0462 69.0737" />
<path d="M168.4486 55.6473 A0.5000 0.5000 0.0 0 0 168.0950 56.2597" />
<path d="M164.3006 131.3745
L164.3006 144.2745
" />
<path d="M163.8006 144.7745
L150.9006 144.7745
" />
<path d="M150.9006 130.8745
L163.8006 130.8745
" />
<path d="M150.4006 144.2745
L150.4006 131.3745
" />
<path d="M163.8006 144.7745 A0.5000 0.5000 0.0 0 0 164.3006 144.2745" />
<path d="M164.3006 131.3745 A0.5000 0.5000 0.0 0 0 163.8006 130.8745" />
<path d="M150.4006 144.2745 A0.5000 0.5000 0.0 0 0 150.9006 144.7745" />
<path d="M150.9006 130.8745 A0.5000 0.5000 0.0 0 0 150.4006 131.3745" />
<path d="M144.9172 64.9324
L141.5785 77.3928
" />
<path d="M140.9661 77.7464
L128.5057 74.4076
" />
<path d="M132.1032 60.9812
L144.5637 64.3200
" />
<path d="M128.1521 73.7952
L131.4909 61.3348
" />
<path d="M140.9661 77.7464 A0.5000 0.5000 0.0 0 0 141.5785 77.3928" />
<path d="M144.9172 64.9324 A0.5000 0.5000 0.0 0 0 144.5637 64.3200" />
<path d="M128.1521 73.7952 A0.5000 0.5000 0.0 0 0 128.5056 74.4076" />
<path d="M132.1032 60.9812 A0.5000 0.5000 0.0 0 0 131.4909 61.3348" />
<g >
</g>
<g >
</g>
<g >
</g>
<g >
</g>
<g >
</g>
<g >
</g>
<g >
</g>
<g >
</g>
<g >
</g>
<g >
</g>
<g >
</g>
<g >
</g>
<g >
</g>
<g >
</g>
<g >
</g>
<g >
</g>
<g >
</g>
<g >
</g>
<g >
</g>
<g >
</g>
<g >
</g>
<g >
</g>
<g >
</g>
<g >
</g>
<g >
</g>
<g >
</g>
<g >
</g>
<g >
</g>
<g >
</g>
<g >
</g>
<g >
</g>
<g >
</g>
<g >
</g>
<g >
</g>
<g >
</g>
<g >
</g>
<g >
</g>
<g >
</g>
<g >
</g>
<g >
</g>
<g >
</g>
<g >
</g>
<g >
</g>
<g >
</g>
<g >
</g>
<g >
</g>
<g >
</g>
<g >
</g>
<g >
</g>
<g >
</g>
<g >
</g>
<g >
</g>
<g >
</g>
<g >
</g>
<g >
</g>
<g >
</g>
<g >
</g>
<g >
</g>
<g >
</g>
<g >
</g>
<g >
</g>
<g >
</g>
<g >
</g>
<g >
</g>
<g >
</g>
<g >
</g>
<g >
</g>
<g >
</g>
<g >
</g>
<g >
</g>
<g >
</g>
<g >
</g>
<g >
</g>
<g >
</g>
<g >
</g>
<g >
</g>
<g >
</g>
<g >
</g>
<g >
</g>
<g >
</g>
<g >
</g>
<g >
</g>
<g >
</g>
<g >
</g>
<g >
</g>
<g >
</g>
<g >
</g>
<g >
</g>
<g >
</g>
<g >
</g>
<g >
</g>
<g >
</g>
<g >
</g>
<g >
</g>
<g >
</g>
<g >
</g>
<g >
</g>
<g >
</g>
<g >
</g>
<g >
</g>
<g >
</g>
<g >
</g>
<g >
</g>
<g >
</g>
<g >
</g>
<g >
</g>
<g >
</g>
<g >
</g>
<g >
</g>
<g >
</g>
<g >
</g>
<g >
</g>
<g >
</g>
<g >
</g>
<g >
</g>
<g >
</g>
<g >
</g>
<g >
</g>
<g >
</g>
<g >
</g>
<g >
</g>
<g >
</g>
<g >
</g>
<g >
</g>
<g >
</g>
<g >
</g>
<g >
</g>
<g >
</g>
<g >
</g>
<g >
</g>
<g >
</g>
<g >
</g>
<g >
</g>
<g >
</g>
</g> 
</svg>
