<?xml version="1.0" standalone="no"?>
 <!DOCTYPE svg PUBLIC "-//W3C//DTD SVG 1.1//EN" 
 "http://www.w3.org/Graphics/SVG/1.1/DTD/svg11.dtd"> 
<svg
  xmlns:svg="http://www.w3.org/2000/svg"
  xmlns="http://www.w3.org/2000/svg"
  xmlns:xlink="http://www.w3.org/1999/xlink"
  version="1.1"
  width="297.0022mm" height="210.0072mm" viewBox="0.0000 0.0000 297.0022 210.0072">
<title>SVG Image created as basic60-User_Eco2.svg date 2023/12/21 23:37:25 </title>
  <desc>Image generated by PCBNEW </desc>
<g style="fill:#000000; fill-opacity:1.0000;stroke:#000000; stroke-opacity:1.0000;
stroke-linecap:round; stroke-linejoin:round;"
 transform="translate(0 0) scale(1 1)">
</g>
<g style="fill:#000000; fill-opacity:0.0; 
stroke:#000000; stroke-width:0.0000; stroke-opacity:1; 
stroke-linecap:round; stroke-linejoin:round;">
</g>
<g style="fill:#000000; fill-opacity:0.0; 
stroke:#000000; stroke-width:0.1500; stroke-opacity:1; 
stroke-linecap:round; stroke-linejoin:round;">
<circle cx="217.4996" cy="111.8740" r="1.1000" /> 
</g>
<g style="fill:#000000; fill-opacity:0.0; 
stroke:#000000; stroke-width:0.0500; stroke-opacity:1; 
stroke-linecap:round; stroke-linejoin:round;">
<path d="M98.3000 116.0145
L98.3000 103.1145
" />
<path d="M98.8000 102.6145
L111.7000 102.6145
" />
<path d="M111.7000 116.5145
L98.8000 116.5145
" />
<path d="M112.2000 103.1145
L112.2000 116.0145
" />
<path d="M98.8000 102.6145 A0.5000 0.5000 0.0 0 0 98.3000 103.1145" />
<path d="M98.3000 116.0145 A0.5000 0.5000 0.0 0 0 98.8000 116.5145" />
<path d="M112.2000 103.1145 A0.5000 0.5000 0.0 0 0 111.7000 102.6145" />
<path d="M111.7000 116.5145 A0.5000 0.5000 0.0 0 0 112.2000 116.0145" />
<path d="M80.3000 116.0145
L80.3000 103.1145
" />
<path d="M80.8000 102.6145
L93.7000 102.6145
" />
<path d="M93.7000 116.5145
L80.8000 116.5145
" />
<path d="M94.2000 103.1145
L94.2000 116.0145
" />
<path d="M80.8000 102.6145 A0.5000 0.5000 0.0 0 0 80.3000 103.1145" />
<path d="M80.3000 116.0145 A0.5000 0.5000 0.0 0 0 80.8000 116.5145" />
<path d="M94.2000 103.1145 A0.5000 0.5000 0.0 0 0 93.7000 102.6145" />
<path d="M93.7000 116.5145 A0.5000 0.5000 0.0 0 0 94.2000 116.0145" />
<path d="M62.3000 116.0145
L62.3000 103.1145
" />
<path d="M62.8000 102.6145
L75.7000 102.6145
" />
<path d="M75.7000 116.5145
L62.8000 116.5145
" />
<path d="M76.2000 103.1145
L76.2000 116.0145
" />
<path d="M62.8000 102.6145 A0.5000 0.5000 0.0 0 0 62.3000 103.1145" />
<path d="M62.3000 116.0145 A0.5000 0.5000 0.0 0 0 62.8000 116.5145" />
<path d="M76.2000 103.1145 A0.5000 0.5000 0.0 0 0 75.7000 102.6145" />
<path d="M75.7000 116.5145 A0.5000 0.5000 0.0 0 0 76.2000 116.0145" />
<path d="M44.3000 116.0145
L44.3000 103.1145
" />
<path d="M44.8000 102.6145
L57.7000 102.6145
" />
<path d="M57.7000 116.5145
L44.8000 116.5145
" />
<path d="M58.2000 103.1145
L58.2000 116.0145
" />
<path d="M44.8000 102.6145 A0.5000 0.5000 0.0 0 0 44.3000 103.1145" />
<path d="M44.3000 116.0145 A0.5000 0.5000 0.0 0 0 44.8000 116.5145" />
<path d="M58.2000 103.1145 A0.5000 0.5000 0.0 0 0 57.7000 102.6145" />
<path d="M57.7000 116.5145 A0.5000 0.5000 0.0 0 0 58.2000 116.0145" />
<path d="M242.3000 99.0145
L242.3000 86.1145
" />
<path d="M242.8000 85.6145
L255.7000 85.6145
" />
<path d="M255.7000 99.5145
L242.8000 99.5145
" />
<path d="M256.2000 86.1145
L256.2000 99.0145
" />
<path d="M242.8000 85.6145 A0.5000 0.5000 0.0 0 0 242.3000 86.1145" />
<path d="M242.3000 99.0145 A0.5000 0.5000 0.0 0 0 242.8000 99.5145" />
<path d="M256.2000 86.1145 A0.5000 0.5000 0.0 0 0 255.7000 85.6145" />
<path d="M255.7000 99.5145 A0.5000 0.5000 0.0 0 0 256.2000 99.0145" />
<path d="M224.3000 99.0145
L224.3000 86.1145
" />
<path d="M224.8000 85.6145
L237.7000 85.6145
" />
<path d="M237.7000 99.5145
L224.8000 99.5145
" />
<path d="M238.2000 86.1145
L238.2000 99.0145
" />
<path d="M224.8000 85.6145 A0.5000 0.5000 0.0 0 0 224.3000 86.1145" />
<path d="M224.3000 99.0145 A0.5000 0.5000 0.0 0 0 224.8000 99.5145" />
<path d="M238.2000 86.1145 A0.5000 0.5000 0.0 0 0 237.7000 85.6145" />
<path d="M237.7000 99.5145 A0.5000 0.5000 0.0 0 0 238.2000 99.0145" />
<path d="M206.3000 99.0145
L206.3000 86.1145
" />
<path d="M206.8000 85.6145
L219.7000 85.6145
" />
<path d="M219.7000 99.5145
L206.8000 99.5145
" />
<path d="M220.2000 86.1145
L220.2000 99.0145
" />
<path d="M206.8000 85.6145 A0.5000 0.5000 0.0 0 0 206.3000 86.1145" />
<path d="M206.3000 99.0145 A0.5000 0.5000 0.0 0 0 206.8000 99.5145" />
<path d="M220.2000 86.1145 A0.5000 0.5000 0.0 0 0 219.7000 85.6145" />
<path d="M219.7000 99.5145 A0.5000 0.5000 0.0 0 0 220.2000 99.0145" />
<path d="M170.3000 99.0145
L170.3000 86.1145
" />
<path d="M170.8000 85.6145
L183.7000 85.6145
" />
<path d="M183.7000 99.5145
L170.8000 99.5145
" />
<path d="M184.2000 86.1145
L184.2000 99.0145
" />
<path d="M170.8000 85.6145 A0.5000 0.5000 0.0 0 0 170.3000 86.1145" />
<path d="M170.3000 99.0145 A0.5000 0.5000 0.0 0 0 170.8000 99.5145" />
<path d="M184.2000 86.1145 A0.5000 0.5000 0.0 0 0 183.7000 85.6145" />
<path d="M183.7000 99.5145 A0.5000 0.5000 0.0 0 0 184.2000 99.0145" />
<path d="M152.3000 99.0145
L152.3000 86.1145
" />
<path d="M152.8000 85.6145
L165.7000 85.6145
" />
<path d="M165.7000 99.5145
L152.8000 99.5145
" />
<path d="M166.2000 86.1145
L166.2000 99.0145
" />
<path d="M152.8000 85.6145 A0.5000 0.5000 0.0 0 0 152.3000 86.1145" />
<path d="M152.3000 99.0145 A0.5000 0.5000 0.0 0 0 152.8000 99.5145" />
<path d="M166.2000 86.1145 A0.5000 0.5000 0.0 0 0 165.7000 85.6145" />
<path d="M165.7000 99.5145 A0.5000 0.5000 0.0 0 0 166.2000 99.0145" />
<path d="M134.3000 99.0145
L134.3000 86.1145
" />
<path d="M134.8000 85.6145
L147.7000 85.6145
" />
<path d="M147.7000 99.5145
L134.8000 99.5145
" />
<path d="M148.2000 86.1145
L148.2000 99.0145
" />
<path d="M134.8000 85.6145 A0.5000 0.5000 0.0 0 0 134.3000 86.1145" />
<path d="M134.3000 99.0145 A0.5000 0.5000 0.0 0 0 134.8000 99.5145" />
<path d="M148.2000 86.1145 A0.5000 0.5000 0.0 0 0 147.7000 85.6145" />
<path d="M147.7000 99.5145 A0.5000 0.5000 0.0 0 0 148.2000 99.0145" />
<path d="M152.3000 82.0145
L152.3000 69.1145
" />
<path d="M152.8000 68.6145
L165.7000 68.6145
" />
<path d="M165.7000 82.5145
L152.8000 82.5145
" />
<path d="M166.2000 69.1145
L166.2000 82.0145
" />
<path d="M152.8000 68.6145 A0.5000 0.5000 0.0 0 0 152.3000 69.1145" />
<path d="M152.3000 82.0145 A0.5000 0.5000 0.0 0 0 152.8000 82.5145" />
<path d="M166.2000 69.1145 A0.5000 0.5000 0.0 0 0 165.7000 68.6145" />
<path d="M165.7000 82.5145 A0.5000 0.5000 0.0 0 0 166.2000 82.0145" />
<path d="M188.3000 99.0145
L188.3000 86.1145
" />
<path d="M188.8000 85.6145
L201.7000 85.6145
" />
<path d="M201.7000 99.5145
L188.8000 99.5145
" />
<path d="M202.2000 86.1145
L202.2000 99.0145
" />
<path d="M188.8000 85.6145 A0.5000 0.5000 0.0 0 0 188.3000 86.1145" />
<path d="M188.3000 99.0145 A0.5000 0.5000 0.0 0 0 188.8000 99.5145" />
<path d="M202.2000 86.1145 A0.5000 0.5000 0.0 0 0 201.7000 85.6145" />
<path d="M201.7000 99.5145 A0.5000 0.5000 0.0 0 0 202.2000 99.0145" />
<path d="M116.3000 99.0145
L116.3000 86.1145
" />
<path d="M116.8000 85.6145
L129.7000 85.6145
" />
<path d="M129.7000 99.5145
L116.8000 99.5145
" />
<path d="M130.2000 86.1145
L130.2000 99.0145
" />
<path d="M116.8000 85.6145 A0.5000 0.5000 0.0 0 0 116.3000 86.1145" />
<path d="M116.3000 99.0145 A0.5000 0.5000 0.0 0 0 116.8000 99.5145" />
<path d="M130.2000 86.1145 A0.5000 0.5000 0.0 0 0 129.7000 85.6145" />
<path d="M129.7000 99.5145 A0.5000 0.5000 0.0 0 0 130.2000 99.0145" />
<path d="M98.3000 99.0145
L98.3000 86.1145
" />
<path d="M98.8000 85.6145
L111.7000 85.6145
" />
<path d="M111.7000 99.5145
L98.8000 99.5145
" />
<path d="M112.2000 86.1145
L112.2000 99.0145
" />
<path d="M98.8000 85.6145 A0.5000 0.5000 0.0 0 0 98.3000 86.1145" />
<path d="M98.3000 99.0145 A0.5000 0.5000 0.0 0 0 98.8000 99.5145" />
<path d="M112.2000 86.1145 A0.5000 0.5000 0.0 0 0 111.7000 85.6145" />
<path d="M111.7000 99.5145 A0.5000 0.5000 0.0 0 0 112.2000 99.0145" />
<path d="M80.3000 99.0145
L80.3000 86.1145
" />
<path d="M80.8000 85.6145
L93.7000 85.6145
" />
<path d="M93.7000 99.5145
L80.8000 99.5145
" />
<path d="M94.2000 86.1145
L94.2000 99.0145
" />
<path d="M80.8000 85.6145 A0.5000 0.5000 0.0 0 0 80.3000 86.1145" />
<path d="M80.3000 99.0145 A0.5000 0.5000 0.0 0 0 80.8000 99.5145" />
<path d="M94.2000 86.1145 A0.5000 0.5000 0.0 0 0 93.7000 85.6145" />
<path d="M93.7000 99.5145 A0.5000 0.5000 0.0 0 0 94.2000 99.0145" />
<path d="M62.3000 99.0145
L62.3000 86.1145
" />
<path d="M62.8000 85.6145
L75.7000 85.6145
" />
<path d="M75.7000 99.5145
L62.8000 99.5145
" />
<path d="M76.2000 86.1145
L76.2000 99.0145
" />
<path d="M62.8000 85.6145 A0.5000 0.5000 0.0 0 0 62.3000 86.1145" />
<path d="M62.3000 99.0145 A0.5000 0.5000 0.0 0 0 62.8000 99.5145" />
<path d="M76.2000 86.1145 A0.5000 0.5000 0.0 0 0 75.7000 85.6145" />
<path d="M75.7000 99.5145 A0.5000 0.5000 0.0 0 0 76.2000 99.0145" />
<path d="M44.3000 99.0145
L44.3000 86.1145
" />
<path d="M44.8000 85.6145
L57.7000 85.6145
" />
<path d="M57.7000 99.5145
L44.8000 99.5145
" />
<path d="M58.2000 86.1145
L58.2000 99.0145
" />
<path d="M44.8000 85.6145 A0.5000 0.5000 0.0 0 0 44.3000 86.1145" />
<path d="M44.3000 99.0145 A0.5000 0.5000 0.0 0 0 44.8000 99.5145" />
<path d="M58.2000 86.1145 A0.5000 0.5000 0.0 0 0 57.7000 85.6145" />
<path d="M57.7000 99.5145 A0.5000 0.5000 0.0 0 0 58.2000 99.0145" />
<path d="M242.3000 82.0145
L242.3000 69.1145
" />
<path d="M242.8000 68.6145
L255.7000 68.6145
" />
<path d="M255.7000 82.5145
L242.8000 82.5145
" />
<path d="M256.2000 69.1145
L256.2000 82.0145
" />
<path d="M242.8000 68.6145 A0.5000 0.5000 0.0 0 0 242.3000 69.1145" />
<path d="M242.3000 82.0145 A0.5000 0.5000 0.0 0 0 242.8000 82.5145" />
<path d="M256.2000 69.1145 A0.5000 0.5000 0.0 0 0 255.7000 68.6145" />
<path d="M255.7000 82.5145 A0.5000 0.5000 0.0 0 0 256.2000 82.0145" />
<path d="M116.3000 133.0145
L116.3000 120.1145
" />
<path d="M116.8000 119.6145
L129.7000 119.6145
" />
<path d="M129.7000 133.5145
L116.8000 133.5145
" />
<path d="M130.2000 120.1145
L130.2000 133.0145
" />
<path d="M116.8000 119.6145 A0.5000 0.5000 0.0 0 0 116.3000 120.1145" />
<path d="M116.3000 133.0145 A0.5000 0.5000 0.0 0 0 116.8000 133.5145" />
<path d="M130.2000 120.1145 A0.5000 0.5000 0.0 0 0 129.7000 119.6145" />
<path d="M129.7000 133.5145 A0.5000 0.5000 0.0 0 0 130.2000 133.0145" />
<path d="M224.3000 82.0145
L224.3000 69.1145
" />
<path d="M224.8000 68.6145
L237.7000 68.6145
" />
<path d="M237.7000 82.5145
L224.8000 82.5145
" />
<path d="M238.2000 69.1145
L238.2000 82.0145
" />
<path d="M224.8000 68.6145 A0.5000 0.5000 0.0 0 0 224.3000 69.1145" />
<path d="M224.3000 82.0145 A0.5000 0.5000 0.0 0 0 224.8000 82.5145" />
<path d="M238.2000 69.1145 A0.5000 0.5000 0.0 0 0 237.7000 68.6145" />
<path d="M237.7000 82.5145 A0.5000 0.5000 0.0 0 0 238.2000 82.0145" />
<path d="M44.3000 82.0145
L44.3000 69.1145
" />
<path d="M44.8000 68.6145
L57.7000 68.6145
" />
<path d="M57.7000 82.5145
L44.8000 82.5145
" />
<path d="M58.2000 69.1145
L58.2000 82.0145
" />
<path d="M44.8000 68.6145 A0.5000 0.5000 0.0 0 0 44.3000 69.1145" />
<path d="M44.3000 82.0145 A0.5000 0.5000 0.0 0 0 44.8000 82.5145" />
<path d="M58.2000 69.1145 A0.5000 0.5000 0.0 0 0 57.7000 68.6145" />
<path d="M57.7000 82.5145 A0.5000 0.5000 0.0 0 0 58.2000 82.0145" />
<path d="M116.3000 82.0145
L116.3000 69.1145
" />
<path d="M116.8000 68.6145
L129.7000 68.6145
" />
<path d="M129.7000 82.5145
L116.8000 82.5145
" />
<path d="M130.2000 69.1145
L130.2000 82.0145
" />
<path d="M116.8000 68.6145 A0.5000 0.5000 0.0 0 0 116.3000 69.1145" />
<path d="M116.3000 82.0145 A0.5000 0.5000 0.0 0 0 116.8000 82.5145" />
<path d="M130.2000 69.1145 A0.5000 0.5000 0.0 0 0 129.7000 68.6145" />
<path d="M129.7000 82.5145 A0.5000 0.5000 0.0 0 0 130.2000 82.0145" />
<path d="M98.3000 82.0145
L98.3000 69.1145
" />
<path d="M98.8000 68.6145
L111.7000 68.6145
" />
<path d="M111.7000 82.5145
L98.8000 82.5145
" />
<path d="M112.2000 69.1145
L112.2000 82.0145
" />
<path d="M98.8000 68.6145 A0.5000 0.5000 0.0 0 0 98.3000 69.1145" />
<path d="M98.3000 82.0145 A0.5000 0.5000 0.0 0 0 98.8000 82.5145" />
<path d="M112.2000 69.1145 A0.5000 0.5000 0.0 0 0 111.7000 68.6145" />
<path d="M111.7000 82.5145 A0.5000 0.5000 0.0 0 0 112.2000 82.0145" />
<path d="M170.3000 82.0145
L170.3000 69.1145
" />
<path d="M170.8000 68.6145
L183.7000 68.6145
" />
<path d="M183.7000 82.5145
L170.8000 82.5145
" />
<path d="M184.2000 69.1145
L184.2000 82.0145
" />
<path d="M170.8000 68.6145 A0.5000 0.5000 0.0 0 0 170.3000 69.1145" />
<path d="M170.3000 82.0145 A0.5000 0.5000 0.0 0 0 170.8000 82.5145" />
<path d="M184.2000 69.1145 A0.5000 0.5000 0.0 0 0 183.7000 68.6145" />
<path d="M183.7000 82.5145 A0.5000 0.5000 0.0 0 0 184.2000 82.0145" />
<path d="M152.3000 116.0145
L152.3000 103.1145
" />
<path d="M152.8000 102.6145
L165.7000 102.6145
" />
<path d="M165.7000 116.5145
L152.8000 116.5145
" />
<path d="M166.2000 103.1145
L166.2000 116.0145
" />
<path d="M152.8000 102.6145 A0.5000 0.5000 0.0 0 0 152.3000 103.1145" />
<path d="M152.3000 116.0145 A0.5000 0.5000 0.0 0 0 152.8000 116.5145" />
<path d="M166.2000 103.1145 A0.5000 0.5000 0.0 0 0 165.7000 102.6145" />
<path d="M165.7000 116.5145 A0.5000 0.5000 0.0 0 0 166.2000 116.0145" />
<path d="M62.3000 82.0145
L62.3000 69.1145
" />
<path d="M62.8000 68.6145
L75.7000 68.6145
" />
<path d="M75.7000 82.5145
L62.8000 82.5145
" />
<path d="M76.2000 69.1145
L76.2000 82.0145
" />
<path d="M62.8000 68.6145 A0.5000 0.5000 0.0 0 0 62.3000 69.1145" />
<path d="M62.3000 82.0145 A0.5000 0.5000 0.0 0 0 62.8000 82.5145" />
<path d="M76.2000 69.1145 A0.5000 0.5000 0.0 0 0 75.7000 68.6145" />
<path d="M75.7000 82.5145 A0.5000 0.5000 0.0 0 0 76.2000 82.0145" />
<path d="M206.3000 82.0145
L206.3000 69.1145
" />
<path d="M206.8000 68.6145
L219.7000 68.6145
" />
<path d="M219.7000 82.5145
L206.8000 82.5145
" />
<path d="M220.2000 69.1145
L220.2000 82.0145
" />
<path d="M206.8000 68.6145 A0.5000 0.5000 0.0 0 0 206.3000 69.1145" />
<path d="M206.3000 82.0145 A0.5000 0.5000 0.0 0 0 206.8000 82.5145" />
<path d="M220.2000 69.1145 A0.5000 0.5000 0.0 0 0 219.7000 68.6145" />
<path d="M219.7000 82.5145 A0.5000 0.5000 0.0 0 0 220.2000 82.0145" />
<path d="M188.3000 82.0145
L188.3000 69.1145
" />
<path d="M188.8000 68.6145
L201.7000 68.6145
" />
<path d="M201.7000 82.5145
L188.8000 82.5145
" />
<path d="M202.2000 69.1145
L202.2000 82.0145
" />
<path d="M188.8000 68.6145 A0.5000 0.5000 0.0 0 0 188.3000 69.1145" />
<path d="M188.3000 82.0145 A0.5000 0.5000 0.0 0 0 188.8000 82.5145" />
<path d="M202.2000 69.1145 A0.5000 0.5000 0.0 0 0 201.7000 68.6145" />
<path d="M201.7000 82.5145 A0.5000 0.5000 0.0 0 0 202.2000 82.0145" />
<path d="M242.3000 116.0145
L242.3000 103.1145
" />
<path d="M242.8000 102.6145
L255.7000 102.6145
" />
<path d="M255.7000 116.5145
L242.8000 116.5145
" />
<path d="M256.2000 103.1145
L256.2000 116.0145
" />
<path d="M242.8000 102.6145 A0.5000 0.5000 0.0 0 0 242.3000 103.1145" />
<path d="M242.3000 116.0145 A0.5000 0.5000 0.0 0 0 242.8000 116.5145" />
<path d="M256.2000 103.1145 A0.5000 0.5000 0.0 0 0 255.7000 102.6145" />
<path d="M255.7000 116.5145 A0.5000 0.5000 0.0 0 0 256.2000 116.0145" />
<path d="M224.3000 116.0145
L224.3000 103.1145
" />
<path d="M224.8000 102.6145
L237.7000 102.6145
" />
<path d="M237.7000 116.5145
L224.8000 116.5145
" />
<path d="M238.2000 103.1145
L238.2000 116.0145
" />
<path d="M224.8000 102.6145 A0.5000 0.5000 0.0 0 0 224.3000 103.1145" />
<path d="M224.3000 116.0145 A0.5000 0.5000 0.0 0 0 224.8000 116.5145" />
<path d="M238.2000 103.1145 A0.5000 0.5000 0.0 0 0 237.7000 102.6145" />
<path d="M237.7000 116.5145 A0.5000 0.5000 0.0 0 0 238.2000 116.0145" />
<path d="M206.3000 116.0145
L206.3000 103.1145
" />
<path d="M206.8000 102.6145
L219.7000 102.6145
" />
<path d="M219.7000 116.5145
L206.8000 116.5145
" />
<path d="M220.2000 103.1145
L220.2000 116.0145
" />
<path d="M206.8000 102.6145 A0.5000 0.5000 0.0 0 0 206.3000 103.1145" />
<path d="M206.3000 116.0145 A0.5000 0.5000 0.0 0 0 206.8000 116.5145" />
<path d="M220.2000 103.1145 A0.5000 0.5000 0.0 0 0 219.7000 102.6145" />
<path d="M219.7000 116.5145 A0.5000 0.5000 0.0 0 0 220.2000 116.0145" />
<path d="M188.3000 116.0145
L188.3000 103.1145
" />
<path d="M188.8000 102.6145
L201.7000 102.6145
" />
<path d="M201.7000 116.5145
L188.8000 116.5145
" />
<path d="M202.2000 103.1145
L202.2000 116.0145
" />
<path d="M188.8000 102.6145 A0.5000 0.5000 0.0 0 0 188.3000 103.1145" />
<path d="M188.3000 116.0145 A0.5000 0.5000 0.0 0 0 188.8000 116.5145" />
<path d="M202.2000 103.1145 A0.5000 0.5000 0.0 0 0 201.7000 102.6145" />
<path d="M201.7000 116.5145 A0.5000 0.5000 0.0 0 0 202.2000 116.0145" />
<path d="M170.3000 116.0145
L170.3000 103.1145
" />
<path d="M170.8000 102.6145
L183.7000 102.6145
" />
<path d="M183.7000 116.5145
L170.8000 116.5145
" />
<path d="M184.2000 103.1145
L184.2000 116.0145
" />
<path d="M170.8000 102.6145 A0.5000 0.5000 0.0 0 0 170.3000 103.1145" />
<path d="M170.3000 116.0145 A0.5000 0.5000 0.0 0 0 170.8000 116.5145" />
<path d="M184.2000 103.1145 A0.5000 0.5000 0.0 0 0 183.7000 102.6145" />
<path d="M183.7000 116.5145 A0.5000 0.5000 0.0 0 0 184.2000 116.0145" />
<path d="M134.3000 116.0145
L134.3000 103.1145
" />
<path d="M134.8000 102.6145
L147.7000 102.6145
" />
<path d="M147.7000 116.5145
L134.8000 116.5145
" />
<path d="M148.2000 103.1145
L148.2000 116.0145
" />
<path d="M134.8000 102.6145 A0.5000 0.5000 0.0 0 0 134.3000 103.1145" />
<path d="M134.3000 116.0145 A0.5000 0.5000 0.0 0 0 134.8000 116.5145" />
<path d="M148.2000 103.1145 A0.5000 0.5000 0.0 0 0 147.7000 102.6145" />
<path d="M147.7000 116.5145 A0.5000 0.5000 0.0 0 0 148.2000 116.0145" />
<path d="M116.3000 116.0145
L116.3000 103.1145
" />
<path d="M116.8000 102.6145
L129.7000 102.6145
" />
<path d="M129.7000 116.5145
L116.8000 116.5145
" />
<path d="M130.2000 103.1145
L130.2000 116.0145
" />
<path d="M116.8000 102.6145 A0.5000 0.5000 0.0 0 0 116.3000 103.1145" />
<path d="M116.3000 116.0145 A0.5000 0.5000 0.0 0 0 116.8000 116.5145" />
<path d="M130.2000 103.1145 A0.5000 0.5000 0.0 0 0 129.7000 102.6145" />
<path d="M129.7000 116.5145 A0.5000 0.5000 0.0 0 0 130.2000 116.0145" />
<path d="M80.3000 82.0145
L80.3000 69.1145
" />
<path d="M80.8000 68.6145
L93.7000 68.6145
" />
<path d="M93.7000 82.5145
L80.8000 82.5145
" />
<path d="M94.2000 69.1145
L94.2000 82.0145
" />
<path d="M80.8000 68.6145 A0.5000 0.5000 0.0 0 0 80.3000 69.1145" />
<path d="M80.3000 82.0145 A0.5000 0.5000 0.0 0 0 80.8000 82.5145" />
<path d="M94.2000 69.1145 A0.5000 0.5000 0.0 0 0 93.7000 68.6145" />
<path d="M93.7000 82.5145 A0.5000 0.5000 0.0 0 0 94.2000 82.0145" />
<path d="M134.3000 82.0145
L134.3000 69.1145
" />
<path d="M134.8000 68.6145
L147.7000 68.6145
" />
<path d="M147.7000 82.5145
L134.8000 82.5145
" />
<path d="M148.2000 69.1145
L148.2000 82.0145
" />
<path d="M134.8000 68.6145 A0.5000 0.5000 0.0 0 0 134.3000 69.1145" />
<path d="M134.3000 82.0145 A0.5000 0.5000 0.0 0 0 134.8000 82.5145" />
<path d="M148.2000 69.1145 A0.5000 0.5000 0.0 0 0 147.7000 68.6145" />
<path d="M147.7000 82.5145 A0.5000 0.5000 0.0 0 0 148.2000 82.0145" />
<path d="M98.3000 133.0145
L98.3000 120.1145
" />
<path d="M98.8000 119.6145
L111.7000 119.6145
" />
<path d="M111.7000 133.5145
L98.8000 133.5145
" />
<path d="M112.2000 120.1145
L112.2000 133.0145
" />
<path d="M98.8000 119.6145 A0.5000 0.5000 0.0 0 0 98.3000 120.1145" />
<path d="M98.3000 133.0145 A0.5000 0.5000 0.0 0 0 98.8000 133.5145" />
<path d="M112.2000 120.1145 A0.5000 0.5000 0.0 0 0 111.7000 119.6145" />
<path d="M111.7000 133.5145 A0.5000 0.5000 0.0 0 0 112.2000 133.0145" />
<path d="M170.3000 133.0145
L170.3000 120.1145
" />
<path d="M170.8000 119.6145
L183.7000 119.6145
" />
<path d="M183.7000 133.5145
L170.8000 133.5145
" />
<path d="M184.2000 120.1145
L184.2000 133.0145
" />
<path d="M170.8000 119.6145 A0.5000 0.5000 0.0 0 0 170.3000 120.1145" />
<path d="M170.3000 133.0145 A0.5000 0.5000 0.0 0 0 170.8000 133.5145" />
<path d="M184.2000 120.1145 A0.5000 0.5000 0.0 0 0 183.7000 119.6145" />
<path d="M183.7000 133.5145 A0.5000 0.5000 0.0 0 0 184.2000 133.0145" />
<path d="M188.3000 133.0145
L188.3000 120.1145
" />
<path d="M188.8000 119.6145
L201.7000 119.6145
" />
<path d="M201.7000 133.5145
L188.8000 133.5145
" />
<path d="M202.2000 120.1145
L202.2000 133.0145
" />
<path d="M188.8000 119.6145 A0.5000 0.5000 0.0 0 0 188.3000 120.1145" />
<path d="M188.3000 133.0145 A0.5000 0.5000 0.0 0 0 188.8000 133.5145" />
<path d="M202.2000 120.1145 A0.5000 0.5000 0.0 0 0 201.7000 119.6145" />
<path d="M201.7000 133.5145 A0.5000 0.5000 0.0 0 0 202.2000 133.0145" />
<path d="M152.3000 133.0145
L152.3000 120.1145
" />
<path d="M152.8000 119.6145
L165.7000 119.6145
" />
<path d="M165.7000 133.5145
L152.8000 133.5145
" />
<path d="M166.2000 120.1145
L166.2000 133.0145
" />
<path d="M152.8000 119.6145 A0.5000 0.5000 0.0 0 0 152.3000 120.1145" />
<path d="M152.3000 133.0145 A0.5000 0.5000 0.0 0 0 152.8000 133.5145" />
<path d="M166.2000 120.1145 A0.5000 0.5000 0.0 0 0 165.7000 119.6145" />
<path d="M165.7000 133.5145 A0.5000 0.5000 0.0 0 0 166.2000 133.0145" />
<path d="M80.3000 133.0145
L80.3000 120.1145
" />
<path d="M80.8000 119.6145
L93.7000 119.6145
" />
<path d="M93.7000 133.5145
L80.8000 133.5145
" />
<path d="M94.2000 120.1145
L94.2000 133.0145
" />
<path d="M80.8000 119.6145 A0.5000 0.5000 0.0 0 0 80.3000 120.1145" />
<path d="M80.3000 133.0145 A0.5000 0.5000 0.0 0 0 80.8000 133.5145" />
<path d="M94.2000 120.1145 A0.5000 0.5000 0.0 0 0 93.7000 119.6145" />
<path d="M93.7000 133.5145 A0.5000 0.5000 0.0 0 0 94.2000 133.0145" />
<path d="M62.3000 65.0145
L62.3000 52.1145
" />
<path d="M62.8000 51.6145
L75.7000 51.6145
" />
<path d="M75.7000 65.5145
L62.8000 65.5145
" />
<path d="M76.2000 52.1145
L76.2000 65.0145
" />
<path d="M62.8000 51.6145 A0.5000 0.5000 0.0 0 0 62.3000 52.1145" />
<path d="M62.3000 65.0145 A0.5000 0.5000 0.0 0 0 62.8000 65.5145" />
<path d="M76.2000 52.1145 A0.5000 0.5000 0.0 0 0 75.7000 51.6145" />
<path d="M75.7000 65.5145 A0.5000 0.5000 0.0 0 0 76.2000 65.0145" />
<path d="M44.3000 65.0145
L44.3000 52.1145
" />
<path d="M44.8000 51.6145
L57.7000 51.6145
" />
<path d="M57.7000 65.5145
L44.8000 65.5145
" />
<path d="M58.2000 52.1145
L58.2000 65.0145
" />
<path d="M44.8000 51.6145 A0.5000 0.5000 0.0 0 0 44.3000 52.1145" />
<path d="M44.3000 65.0145 A0.5000 0.5000 0.0 0 0 44.8000 65.5145" />
<path d="M58.2000 52.1145 A0.5000 0.5000 0.0 0 0 57.7000 51.6145" />
<path d="M57.7000 65.5145 A0.5000 0.5000 0.0 0 0 58.2000 65.0145" />
<path d="M44.3000 133.0145
L44.3000 120.1145
" />
<path d="M44.8000 119.6145
L57.7000 119.6145
" />
<path d="M57.7000 133.5145
L44.8000 133.5145
" />
<path d="M58.2000 120.1145
L58.2000 133.0145
" />
<path d="M44.8000 119.6145 A0.5000 0.5000 0.0 0 0 44.3000 120.1145" />
<path d="M44.3000 133.0145 A0.5000 0.5000 0.0 0 0 44.8000 133.5145" />
<path d="M58.2000 120.1145 A0.5000 0.5000 0.0 0 0 57.7000 119.6145" />
<path d="M57.7000 133.5145 A0.5000 0.5000 0.0 0 0 58.2000 133.0145" />
<path d="M62.3000 133.0145
L62.3000 120.1145
" />
<path d="M62.8000 119.6145
L75.7000 119.6145
" />
<path d="M75.7000 133.5145
L62.8000 133.5145
" />
<path d="M76.2000 120.1145
L76.2000 133.0145
" />
<path d="M62.8000 119.6145 A0.5000 0.5000 0.0 0 0 62.3000 120.1145" />
<path d="M62.3000 133.0145 A0.5000 0.5000 0.0 0 0 62.8000 133.5145" />
<path d="M76.2000 120.1145 A0.5000 0.5000 0.0 0 0 75.7000 119.6145" />
<path d="M75.7000 133.5145 A0.5000 0.5000 0.0 0 0 76.2000 133.0145" />
<path d="M206.3000 65.0145
L206.3000 52.1145
" />
<path d="M206.8000 51.6145
L219.7000 51.6145
" />
<path d="M219.7000 65.5145
L206.8000 65.5145
" />
<path d="M220.2000 52.1145
L220.2000 65.0145
" />
<path d="M206.8000 51.6145 A0.5000 0.5000 0.0 0 0 206.3000 52.1145" />
<path d="M206.3000 65.0145 A0.5000 0.5000 0.0 0 0 206.8000 65.5145" />
<path d="M220.2000 52.1145 A0.5000 0.5000 0.0 0 0 219.7000 51.6145" />
<path d="M219.7000 65.5145 A0.5000 0.5000 0.0 0 0 220.2000 65.0145" />
<path d="M206.3000 133.0145
L206.3000 120.1145
" />
<path d="M206.8000 119.6145
L219.7000 119.6145
" />
<path d="M219.7000 133.5145
L206.8000 133.5145
" />
<path d="M220.2000 120.1145
L220.2000 133.0145
" />
<path d="M206.8000 119.6145 A0.5000 0.5000 0.0 0 0 206.3000 120.1145" />
<path d="M206.3000 133.0145 A0.5000 0.5000 0.0 0 0 206.8000 133.5145" />
<path d="M220.2000 120.1145 A0.5000 0.5000 0.0 0 0 219.7000 119.6145" />
<path d="M219.7000 133.5145 A0.5000 0.5000 0.0 0 0 220.2000 133.0145" />
<path d="M242.3000 65.0145
L242.3000 52.1145
" />
<path d="M242.8000 51.6145
L255.7000 51.6145
" />
<path d="M255.7000 65.5145
L242.8000 65.5145
" />
<path d="M256.2000 52.1145
L256.2000 65.0145
" />
<path d="M242.8000 51.6145 A0.5000 0.5000 0.0 0 0 242.3000 52.1145" />
<path d="M242.3000 65.0145 A0.5000 0.5000 0.0 0 0 242.8000 65.5145" />
<path d="M256.2000 52.1145 A0.5000 0.5000 0.0 0 0 255.7000 51.6145" />
<path d="M255.7000 65.5145 A0.5000 0.5000 0.0 0 0 256.2000 65.0145" />
<path d="M98.3000 65.0145
L98.3000 52.1145
" />
<path d="M98.8000 51.6145
L111.7000 51.6145
" />
<path d="M111.7000 65.5145
L98.8000 65.5145
" />
<path d="M112.2000 52.1145
L112.2000 65.0145
" />
<path d="M98.8000 51.6145 A0.5000 0.5000 0.0 0 0 98.3000 52.1145" />
<path d="M98.3000 65.0145 A0.5000 0.5000 0.0 0 0 98.8000 65.5145" />
<path d="M112.2000 52.1145 A0.5000 0.5000 0.0 0 0 111.7000 51.6145" />
<path d="M111.7000 65.5145 A0.5000 0.5000 0.0 0 0 112.2000 65.0145" />
<path d="M134.3000 65.0145
L134.3000 52.1145
" />
<path d="M134.8000 51.6145
L147.7000 51.6145
" />
<path d="M147.7000 65.5145
L134.8000 65.5145
" />
<path d="M148.2000 52.1145
L148.2000 65.0145
" />
<path d="M134.8000 51.6145 A0.5000 0.5000 0.0 0 0 134.3000 52.1145" />
<path d="M134.3000 65.0145 A0.5000 0.5000 0.0 0 0 134.8000 65.5145" />
<path d="M148.2000 52.1145 A0.5000 0.5000 0.0 0 0 147.7000 51.6145" />
<path d="M147.7000 65.5145 A0.5000 0.5000 0.0 0 0 148.2000 65.0145" />
<path d="M170.3000 65.0145
L170.3000 52.1145
" />
<path d="M170.8000 51.6145
L183.7000 51.6145
" />
<path d="M183.7000 65.5145
L170.8000 65.5145
" />
<path d="M184.2000 52.1145
L184.2000 65.0145
" />
<path d="M170.8000 51.6145 A0.5000 0.5000 0.0 0 0 170.3000 52.1145" />
<path d="M170.3000 65.0145 A0.5000 0.5000 0.0 0 0 170.8000 65.5145" />
<path d="M184.2000 52.1145 A0.5000 0.5000 0.0 0 0 183.7000 51.6145" />
<path d="M183.7000 65.5145 A0.5000 0.5000 0.0 0 0 184.2000 65.0145" />
<path d="M224.3000 65.0145
L224.3000 52.1145
" />
<path d="M224.8000 51.6145
L237.7000 51.6145
" />
<path d="M237.7000 65.5145
L224.8000 65.5145
" />
<path d="M238.2000 52.1145
L238.2000 65.0145
" />
<path d="M224.8000 51.6145 A0.5000 0.5000 0.0 0 0 224.3000 52.1145" />
<path d="M224.3000 65.0145 A0.5000 0.5000 0.0 0 0 224.8000 65.5145" />
<path d="M238.2000 52.1145 A0.5000 0.5000 0.0 0 0 237.7000 51.6145" />
<path d="M237.7000 65.5145 A0.5000 0.5000 0.0 0 0 238.2000 65.0145" />
<path d="M188.3000 65.0145
L188.3000 52.1145
" />
<path d="M188.8000 51.6145
L201.7000 51.6145
" />
<path d="M201.7000 65.5145
L188.8000 65.5145
" />
<path d="M202.2000 52.1145
L202.2000 65.0145
" />
<path d="M188.8000 51.6145 A0.5000 0.5000 0.0 0 0 188.3000 52.1145" />
<path d="M188.3000 65.0145 A0.5000 0.5000 0.0 0 0 188.8000 65.5145" />
<path d="M202.2000 52.1145 A0.5000 0.5000 0.0 0 0 201.7000 51.6145" />
<path d="M201.7000 65.5145 A0.5000 0.5000 0.0 0 0 202.2000 65.0145" />
<path d="M80.3000 65.0145
L80.3000 52.1145
" />
<path d="M80.8000 51.6145
L93.7000 51.6145
" />
<path d="M93.7000 65.5145
L80.8000 65.5145
" />
<path d="M94.2000 52.1145
L94.2000 65.0145
" />
<path d="M80.8000 51.6145 A0.5000 0.5000 0.0 0 0 80.3000 52.1145" />
<path d="M80.3000 65.0145 A0.5000 0.5000 0.0 0 0 80.8000 65.5145" />
<path d="M94.2000 52.1145 A0.5000 0.5000 0.0 0 0 93.7000 51.6145" />
<path d="M93.7000 65.5145 A0.5000 0.5000 0.0 0 0 94.2000 65.0145" />
<path d="M116.3000 65.0145
L116.3000 52.1145
" />
<path d="M116.8000 51.6145
L129.7000 51.6145
" />
<path d="M129.7000 65.5145
L116.8000 65.5145
" />
<path d="M130.2000 52.1145
L130.2000 65.0145
" />
<path d="M116.8000 51.6145 A0.5000 0.5000 0.0 0 0 116.3000 52.1145" />
<path d="M116.3000 65.0145 A0.5000 0.5000 0.0 0 0 116.8000 65.5145" />
<path d="M130.2000 52.1145 A0.5000 0.5000 0.0 0 0 129.7000 51.6145" />
<path d="M129.7000 65.5145 A0.5000 0.5000 0.0 0 0 130.2000 65.0145" />
<path d="M242.3000 133.0145
L242.3000 120.1145
" />
<path d="M242.8000 119.6145
L255.7000 119.6145
" />
<path d="M255.7000 133.5145
L242.8000 133.5145
" />
<path d="M256.2000 120.1145
L256.2000 133.0145
" />
<path d="M242.8000 119.6145 A0.5000 0.5000 0.0 0 0 242.3000 120.1145" />
<path d="M242.3000 133.0145 A0.5000 0.5000 0.0 0 0 242.8000 133.5145" />
<path d="M256.2000 120.1145 A0.5000 0.5000 0.0 0 0 255.7000 119.6145" />
<path d="M255.7000 133.5145 A0.5000 0.5000 0.0 0 0 256.2000 133.0145" />
<path d="M134.3000 133.0145
L134.3000 120.1145
" />
<path d="M134.8000 119.6145
L147.7000 119.6145
" />
<path d="M147.7000 133.5145
L134.8000 133.5145
" />
<path d="M148.2000 120.1145
L148.2000 133.0145
" />
<path d="M134.8000 119.6145 A0.5000 0.5000 0.0 0 0 134.3000 120.1145" />
<path d="M134.3000 133.0145 A0.5000 0.5000 0.0 0 0 134.8000 133.5145" />
<path d="M148.2000 120.1145 A0.5000 0.5000 0.0 0 0 147.7000 119.6145" />
<path d="M147.7000 133.5145 A0.5000 0.5000 0.0 0 0 148.2000 133.0145" />
<path d="M152.3000 65.0145
L152.3000 52.1145
" />
<path d="M152.8000 51.6145
L165.7000 51.6145
" />
<path d="M165.7000 65.5145
L152.8000 65.5145
" />
<path d="M166.2000 52.1145
L166.2000 65.0145
" />
<path d="M152.8000 51.6145 A0.5000 0.5000 0.0 0 0 152.3000 52.1145" />
<path d="M152.3000 65.0145 A0.5000 0.5000 0.0 0 0 152.8000 65.5145" />
<path d="M166.2000 52.1145 A0.5000 0.5000 0.0 0 0 165.7000 51.6145" />
<path d="M165.7000 65.5145 A0.5000 0.5000 0.0 0 0 166.2000 65.0145" />
<path d="M224.3000 133.0145
L224.3000 120.1145
" />
<path d="M224.8000 119.6145
L237.7000 119.6145
" />
<path d="M237.7000 133.5145
L224.8000 133.5145
" />
<path d="M238.2000 120.1145
L238.2000 133.0145
" />
<path d="M224.8000 119.6145 A0.5000 0.5000 0.0 0 0 224.3000 120.1145" />
<path d="M224.3000 133.0145 A0.5000 0.5000 0.0 0 0 224.8000 133.5145" />
<path d="M238.2000 120.1145 A0.5000 0.5000 0.0 0 0 237.7000 119.6145" />
<path d="M237.7000 133.5145 A0.5000 0.5000 0.0 0 0 238.2000 133.0145" />
<g >
</g>
<g >
</g>
<g >
</g>
<g >
</g>
<g >
</g>
<g >
</g>
<g >
</g>
<g >
</g>
<g >
</g>
<g >
</g>
<g >
</g>
<g >
</g>
<g >
</g>
<g >
</g>
<g >
</g>
<g >
</g>
<g >
</g>
<g >
</g>
<g >
</g>
<g >
</g>
<g >
</g>
<g >
</g>
<g >
</g>
<g >
</g>
<g >
</g>
<g >
</g>
<g >
</g>
<g >
</g>
<g >
</g>
<g >
</g>
<g >
</g>
<g >
</g>
<g >
</g>
<g >
</g>
<g >
</g>
<g >
</g>
<g >
</g>
<g >
</g>
<g >
</g>
<g >
</g>
<g >
</g>
<g >
</g>
<g >
</g>
<g >
</g>
<g >
</g>
<g >
</g>
<g >
</g>
<g >
</g>
<g >
</g>
<g >
</g>
<g >
</g>
<g >
</g>
<g >
</g>
<g >
</g>
<g >
</g>
<g >
</g>
<g >
</g>
<g >
</g>
<g >
</g>
<g >
</g>
<g >
</g>
<g >
</g>
<g >
</g>
<g >
</g>
<g >
</g>
<g >
</g>
<g >
</g>
<g >
</g>
<g >
</g>
<g >
</g>
<g >
</g>
<g >
</g>
<g >
</g>
<g >
</g>
<g >
</g>
<g >
</g>
<g >
</g>
<g >
</g>
<g >
</g>
<g >
</g>
<g >
</g>
<g >
</g>
<g >
</g>
<g >
</g>
<g >
</g>
<g >
</g>
<g >
</g>
<g >
</g>
<g >
</g>
<g >
</g>
<g >
</g>
<g >
</g>
<g >
</g>
<g >
</g>
<g >
</g>
<g >
</g>
<g >
</g>
<g >
</g>
<g >
</g>
<g >
</g>
<g >
</g>
<g >
</g>
<g >
</g>
<g >
</g>
<g >
</g>
<g >
</g>
<g >
</g>
<g >
</g>
<g >
</g>
<g >
</g>
<g >
</g>
<g >
</g>
<g >
</g>
<g >
</g>
<g >
</g>
<g >
</g>
<g >
</g>
<g >
</g>
<g >
</g>
<g >
</g>
<g >
</g>
<g >
</g>
<g >
</g>
<g >
</g>
<g >
</g>
<g >
</g>
<g >
</g>
<g >
</g>
<g >
</g>
<g >
</g>
<g >
</g>
<g >
</g>
<g >
</g>
<g >
</g>
<g >
</g>
<g >
</g>
<g >
</g>
<g >
</g>
<g >
</g>
<g >
</g>
<g >
</g>
<g >
</g>
</g> 
</svg>
