<?xml version="1.0" standalone="no"?>
 <!DOCTYPE svg PUBLIC "-//W3C//DTD SVG 1.1//EN" 
 "http://www.w3.org/Graphics/SVG/1.1/DTD/svg11.dtd"> 
<svg
  xmlns:svg="http://www.w3.org/2000/svg"
  xmlns="http://www.w3.org/2000/svg"
  xmlns:xlink="http://www.w3.org/1999/xlink"
  version="1.1"
  width="297.0022mm" height="210.0072mm" viewBox="0.0000 0.0000 297.0022 210.0072">
<title>SVG Image created as ergo56-B_Paste.svg date 2024/01/04 14:15:12 </title>
  <desc>Image generated by PCBNEW </desc>
<g style="fill:#000000; fill-opacity:1.0000;stroke:#000000; stroke-opacity:1.0000;
stroke-linecap:round; stroke-linejoin:round;"
 transform="translate(0 0) scale(1 1)">
</g>
<g style="fill:#000000; fill-opacity:0.0; 
stroke:#000000; stroke-width:0.0000; stroke-opacity:1; 
stroke-linecap:round; stroke-linejoin:round;">
<g >
</g>
<g >
</g>
<g >
</g>
<g >
</g>
<g >
</g>
<g >
</g>
<g >
</g>
<g >
</g>
<g >
</g>
<g >
</g>
<g >
</g>
<g >
</g>
<g >
</g>
<g >
</g>
<g >
</g>
<g >
</g>
<g >
</g>
<g >
</g>
<g >
</g>
<g >
</g>
<g >
</g>
<g >
</g>
<g >
</g>
<g >
</g>
<g >
</g>
<g >
</g>
<g >
</g>
<g >
</g>
<g >
</g>
<g >
</g>
<g >
</g>
<g >
</g>
<g >
</g>
<g >
</g>
<g >
</g>
<g >
</g>
<g >
</g>
<g >
</g>
<g >
</g>
<g >
</g>
<g >
</g>
<g >
</g>
<g >
</g>
<g >
</g>
<g >
</g>
<g >
</g>
<g >
</g>
<g >
</g>
<g >
</g>
<g >
</g>
<g >
</g>
<g >
</g>
<g >
</g>
<g >
</g>
<g >
</g>
<g >
</g>
<g >
</g>
<g >
</g>
<g >
</g>
<g >
</g>
<g >
</g>
<g >
</g>
<g >
</g>
<g >
</g>
<g >
</g>
<g >
</g>
<g >
</g>
<g >
</g>
<g >
</g>
<g >
</g>
<g >
</g>
<g >
</g>
<g >
</g>
<g >
</g>
<g >
</g>
<g style="fill:#000000; fill-opacity:0.0; 
stroke:#000000; stroke-width:0.0000; stroke-opacity:1; 
stroke-linecap:round; stroke-linejoin:round;">
</g>
<g style="fill:#000000; fill-opacity:0.0; 
stroke:#000000; stroke-width:0.0000; stroke-opacity:1; 
stroke-linecap:round; stroke-linejoin:round;">
</g>
<g style="fill:#000000; fill-opacity:1.0000; 
stroke:#000000; stroke-width:0.0000; stroke-opacity:1; 
stroke-linecap:round; stroke-linejoin:round;">
<path style="fill:#000000; fill-opacity:1.0000; 
stroke:#000000; stroke-width:0.0000; stroke-opacity:1; 
stroke-linecap:round; stroke-linejoin:round;fill-rule:evenodd;"
d="M 96.4582,107.6983
96.4515,107.7995
96.4841,107.8956
96.5510,107.9719
96.6420,108.0168
98.6994,108.5680
98.8007,108.5747
98.8967,108.5421
98.9730,108.4752
99.0179,108.3842
99.5562,106.3751
99.5629,106.2738
99.5302,106.1778
99.4634,106.1015
99.3724,106.0566
97.3149,105.5053
97.2137,105.4987
97.1177,105.5313
97.0414,105.5982
96.9965,105.6892
Z" /> 
<path style="fill:#000000; fill-opacity:1.0000; 
stroke:#000000; stroke-width:0.0000; stroke-opacity:1; 
stroke-linecap:round; stroke-linejoin:round;fill-rule:evenodd;"
d="M 84.7903,106.8495
84.7836,106.9508
84.8163,107.0468
84.8831,107.1231
84.9741,107.1680
87.0315,107.7192
87.1328,107.7259
87.2288,107.6933
87.3051,107.6264
87.3500,107.5354
87.8883,105.5263
87.8950,105.4250
87.8624,105.3290
87.7955,105.2527
87.7045,105.2078
85.6471,104.6566
85.5458,104.6499
85.4498,104.6825
85.3735,104.7494
85.3286,104.8404
Z" /> 
</g>
<g >
</g>
<g style="fill:#000000; fill-opacity:1.0000; 
stroke:#000000; stroke-width:0.0000; stroke-opacity:1; 
stroke-linecap:round; stroke-linejoin:round;">
<path style="fill:#000000; fill-opacity:1.0000; 
stroke:#000000; stroke-width:0.0000; stroke-opacity:1; 
stroke-linecap:round; stroke-linejoin:round;fill-rule:evenodd;"
d="M 77.7974,107.7945
77.7908,107.8957
77.8234,107.9918
77.8903,108.0680
77.9813,108.1129
80.0387,108.6642
80.1399,108.6708
80.2360,108.6382
80.3123,108.5713
80.3571,108.4803
80.8955,106.4712
80.9021,106.3700
80.8695,106.2739
80.8026,106.1976
80.7116,106.1528
78.6542,105.6015
78.5530,105.5949
78.4569,105.6275
78.3807,105.6944
78.3358,105.7853
Z" /> 
<path style="fill:#000000; fill-opacity:1.0000; 
stroke:#000000; stroke-width:0.0000; stroke-opacity:1; 
stroke-linecap:round; stroke-linejoin:round;fill-rule:evenodd;"
d="M 66.1296,106.9457
66.1229,107.0469
66.1555,107.1430
66.2224,107.2192
66.3134,107.2641
68.3708,107.8154
68.4721,107.8220
68.5681,107.7894
68.6444,107.7225
68.6893,107.6315
69.2276,105.6224
69.2342,105.5212
69.2016,105.4251
69.1347,105.3489
69.0438,105.3040
66.9863,104.7527
66.8851,104.7461
66.7890,104.7787
66.7128,104.8456
66.6679,104.9366
Z" /> 
</g>
<g >
</g>
<g style="fill:#000000; fill-opacity:1.0000; 
stroke:#000000; stroke-width:0.0000; stroke-opacity:1; 
stroke-linecap:round; stroke-linejoin:round;">
<path style="fill:#000000; fill-opacity:1.0000; 
stroke:#000000; stroke-width:0.0000; stroke-opacity:1; 
stroke-linecap:round; stroke-linejoin:round;fill-rule:evenodd;"
d="M 59.1606,107.8014
59.1540,107.9026
59.1866,107.9987
59.2535,108.0749
59.3445,108.1198
61.4019,108.6711
61.5031,108.6777
61.5992,108.6451
61.6754,108.5782
61.7203,108.4872
62.2587,106.4781
62.2653,106.3769
62.2327,106.2808
62.1658,106.2046
62.0748,106.1597
60.0174,105.6084
59.9162,105.6018
59.8201,105.6344
59.7438,105.7013
59.6990,105.7922
Z" /> 
<path style="fill:#000000; fill-opacity:1.0000; 
stroke:#000000; stroke-width:0.0000; stroke-opacity:1; 
stroke-linecap:round; stroke-linejoin:round;fill-rule:evenodd;"
d="M 47.4927,106.9526
47.4861,107.0538
47.5187,107.1499
47.5856,107.2261
47.6766,107.2710
49.7340,107.8223
49.8352,107.8289
49.9313,107.7963
50.0076,107.7294
50.0524,107.6385
50.5908,105.6293
50.5974,105.5281
50.5648,105.4320
50.4979,105.3558
50.4069,105.3109
48.3495,104.7596
48.2483,104.7530
48.1522,104.7856
48.0759,104.8525
48.0311,104.9435
Z" /> 
</g>
<g >
</g>
<g style="fill:#000000; fill-opacity:1.0000; 
stroke:#000000; stroke-width:0.0000; stroke-opacity:1; 
stroke-linecap:round; stroke-linejoin:round;">
<path style="fill:#000000; fill-opacity:1.0000; 
stroke:#000000; stroke-width:0.0000; stroke-opacity:1; 
stroke-linecap:round; stroke-linejoin:round;fill-rule:evenodd;"
d="M 40.4999,107.8975
40.4932,107.9988
40.5258,108.0948
40.5927,108.1711
40.6837,108.2160
42.7411,108.7672
42.8424,108.7739
42.9384,108.7413
43.0147,108.6744
43.0596,108.5834
43.5979,106.5743
43.6046,106.4730
43.5719,106.3770
43.5051,106.3007
43.4141,106.2558
41.3567,105.7046
41.2554,105.6979
41.1594,105.7305
41.0831,105.7974
41.0382,105.8884
Z" /> 
<path style="fill:#000000; fill-opacity:1.0000; 
stroke:#000000; stroke-width:0.0000; stroke-opacity:1; 
stroke-linecap:round; stroke-linejoin:round;fill-rule:evenodd;"
d="M 28.8320,107.0487
28.8253,107.1500
28.8580,107.2460
28.9248,107.3223
29.0158,107.3672
31.0733,107.9184
31.1745,107.9251
31.2705,107.8925
31.3468,107.8256
31.3917,107.7346
31.9300,105.7255
31.9367,105.6242
31.9041,105.5282
31.8372,105.4519
31.7462,105.4070
29.6888,104.8558
29.5875,104.8491
29.4915,104.8817
29.4152,104.9486
29.3703,105.0396
Z" /> 
</g>
<g >
</g>
<g style="fill:#000000; fill-opacity:1.0000; 
stroke:#000000; stroke-width:0.0000; stroke-opacity:1; 
stroke-linecap:round; stroke-linejoin:round;">
<path style="fill:#000000; fill-opacity:1.0000; 
stroke:#000000; stroke-width:0.0000; stroke-opacity:1; 
stroke-linecap:round; stroke-linejoin:round;fill-rule:evenodd;"
d="M 265.7829,87.9359
265.8278,88.0268
265.9040,88.0937
266.0001,88.1263
266.1013,88.1197
268.1587,87.5684
268.2497,87.5236
268.3166,87.4473
268.3492,87.3512
268.3426,87.2500
267.8043,85.2409
267.7594,85.1499
267.6831,85.0830
267.5870,85.0504
267.4858,85.0570
265.4284,85.6083
265.3374,85.6532
265.2705,85.7294
265.2379,85.8255
265.2446,85.9267
Z" /> 
<path style="fill:#000000; fill-opacity:1.0000; 
stroke:#000000; stroke-width:0.0000; stroke-opacity:1; 
stroke-linecap:round; stroke-linejoin:round;fill-rule:evenodd;"
d="M 255.2538,93.0347
255.2987,93.1257
255.3749,93.1926
255.4710,93.2252
255.5722,93.2186
257.6297,92.6673
257.7206,92.6224
257.7875,92.5461
257.8201,92.4501
257.8135,92.3489
257.2752,90.3397
257.2303,90.2487
257.1540,90.1819
257.0580,90.1492
256.9567,90.1559
254.8993,90.7072
254.8083,90.7520
254.7414,90.8283
254.7088,90.9244
254.7155,91.0256
Z" /> 
</g>
<g >
</g>
<g style="fill:#000000; fill-opacity:1.0000; 
stroke:#000000; stroke-width:0.0000; stroke-opacity:1; 
stroke-linecap:round; stroke-linejoin:round;">
<path style="fill:#000000; fill-opacity:1.0000; 
stroke:#000000; stroke-width:0.0000; stroke-opacity:1; 
stroke-linecap:round; stroke-linejoin:round;fill-rule:evenodd;"
d="M 247.1110,87.7982
247.1559,87.8892
247.2322,87.9560
247.3282,87.9886
247.4295,87.9820
249.4869,87.4307
249.5779,87.3859
249.6448,87.3096
249.6774,87.2135
249.6707,87.1123
249.1324,85.1032
249.0875,85.0122
249.0113,84.9453
248.9152,84.9127
248.8140,84.9193
246.7565,85.4706
246.6656,85.5155
246.5987,85.5917
246.5661,85.6878
246.5727,85.7890
Z" /> 
<path style="fill:#000000; fill-opacity:1.0000; 
stroke:#000000; stroke-width:0.0000; stroke-opacity:1; 
stroke-linecap:round; stroke-linejoin:round;fill-rule:evenodd;"
d="M 236.5819,92.8970
236.6268,92.9880
236.7031,93.0549
236.7991,93.0875
236.9004,93.0809
238.9578,92.5296
239.0488,92.4847
239.1157,92.4085
239.1483,92.3124
239.1416,92.2112
238.6033,90.2020
238.5584,90.1111
238.4822,90.0442
238.3861,90.0116
238.2849,90.0182
236.2274,90.5695
236.1365,90.6143
236.0696,90.6906
236.0370,90.7867
236.0436,90.8879
Z" /> 
</g>
<g >
</g>
<g style="fill:#000000; fill-opacity:1.0000; 
stroke:#000000; stroke-width:0.0000; stroke-opacity:1; 
stroke-linecap:round; stroke-linejoin:round;">
<path style="fill:#000000; fill-opacity:1.0000; 
stroke:#000000; stroke-width:0.0000; stroke-opacity:1; 
stroke-linecap:round; stroke-linejoin:round;fill-rule:evenodd;"
d="M 228.4743,87.7917
228.5192,87.8827
228.5955,87.9495
228.6915,87.9821
228.7928,87.9755
230.8502,87.4242
230.9412,87.3794
231.0081,87.3031
231.0407,87.2070
231.0340,87.1058
230.4957,85.0967
230.4508,85.0057
230.3745,84.9388
230.2785,84.9062
230.1772,84.9128
228.1198,85.4641
228.0288,85.5090
227.9620,85.5852
227.9293,85.6813
227.9360,85.7825
Z" /> 
<path style="fill:#000000; fill-opacity:1.0000; 
stroke:#000000; stroke-width:0.0000; stroke-opacity:1; 
stroke-linecap:round; stroke-linejoin:round;fill-rule:evenodd;"
d="M 217.9452,92.8905
217.9901,92.9815
218.0664,93.0484
218.1624,93.0810
218.2637,93.0744
220.3211,92.5231
220.4121,92.4782
220.4790,92.4020
220.5116,92.3059
220.5049,92.2047
219.9666,90.1955
219.9217,90.1046
219.8455,90.0377
219.7494,90.0051
219.6482,90.0117
217.5907,90.5630
217.4998,90.6078
217.4329,90.6841
217.4003,90.7802
217.4069,90.8814
Z" /> 
</g>
<g >
</g>
<g style="fill:#000000; fill-opacity:1.0000; 
stroke:#000000; stroke-width:0.0000; stroke-opacity:1; 
stroke-linecap:round; stroke-linejoin:round;">
<path style="fill:#000000; fill-opacity:1.0000; 
stroke:#000000; stroke-width:0.0000; stroke-opacity:1; 
stroke-linecap:round; stroke-linejoin:round;fill-rule:evenodd;"
d="M 193.5025,96.3683
193.5473,96.4593
193.6236,96.5262
193.7197,96.5588
193.8209,96.5521
195.8783,96.0009
195.9693,95.9560
196.0362,95.8797
196.0688,95.7836
196.0622,95.6824
195.5238,93.6733
195.4790,93.5823
195.4027,93.5154
195.3066,93.4828
195.2054,93.4894
193.1480,94.0407
193.0570,94.0856
192.9901,94.1619
192.9575,94.2579
192.9641,94.3592
Z" /> 
<path style="fill:#000000; fill-opacity:1.0000; 
stroke:#000000; stroke-width:0.0000; stroke-opacity:1; 
stroke-linecap:round; stroke-linejoin:round;fill-rule:evenodd;"
d="M 182.9734,101.4672
183.0183,101.5581
183.0945,101.6250
183.1906,101.6576
183.2918,101.6510
185.3493,101.0997
185.4402,101.0549
185.5071,100.9786
185.5397,100.8825
185.5331,100.7813
184.9948,98.7722
184.9499,98.6812
184.8736,98.6143
184.7776,98.5817
184.6763,98.5883
182.6189,99.1396
182.5279,99.1845
182.4610,99.2607
182.4284,99.3568
182.4351,99.4580
Z" /> 
</g>
<g >
</g>
<g style="fill:#000000; fill-opacity:1.0000; 
stroke:#000000; stroke-width:0.0000; stroke-opacity:1; 
stroke-linecap:round; stroke-linejoin:round;">
<path style="fill:#000000; fill-opacity:1.0000; 
stroke:#000000; stroke-width:0.0000; stroke-opacity:1; 
stroke-linecap:round; stroke-linejoin:round;fill-rule:evenodd;"
d="M 177.1914,105.0411
177.2362,105.1321
177.3125,105.1989
177.4086,105.2315
177.5098,105.2249
179.5672,104.6736
179.6582,104.6288
179.7251,104.5525
179.7577,104.4564
179.7511,104.3552
179.2127,102.3461
179.1679,102.2551
179.0916,102.1882
178.9955,102.1556
178.8943,102.1622
176.8369,102.7135
176.7459,102.7584
176.6790,102.8346
176.6464,102.9307
176.6530,103.0319
Z" /> 
<path style="fill:#000000; fill-opacity:1.0000; 
stroke:#000000; stroke-width:0.0000; stroke-opacity:1; 
stroke-linecap:round; stroke-linejoin:round;fill-rule:evenodd;"
d="M 166.6623,110.1399
166.7071,110.2309
166.7834,110.2978
166.8795,110.3304
166.9807,110.3238
169.0381,109.7725
169.1291,109.7276
169.1960,109.6514
169.2286,109.5553
169.2220,109.4541
168.6836,107.4449
168.6388,107.3540
168.5625,107.2871
168.4664,107.2545
168.3652,107.2611
166.3078,107.8124
166.2168,107.8572
166.1499,107.9335
166.1173,108.0296
166.1239,108.1308
Z" /> 
</g>
<g >
</g>
<g style="fill:#000000; fill-opacity:1.0000; 
stroke:#000000; stroke-width:0.0000; stroke-opacity:1; 
stroke-linecap:round; stroke-linejoin:round;">
<path style="fill:#000000; fill-opacity:1.0000; 
stroke:#000000; stroke-width:0.0000; stroke-opacity:1; 
stroke-linecap:round; stroke-linejoin:round;fill-rule:evenodd;"
d="M 133.4803,108.6231
133.4737,108.7243
133.5063,108.8204
133.5732,108.8967
133.6642,108.9416
135.7216,109.4928
135.8228,109.4995
135.9189,109.4669
135.9951,109.4000
136.0400,109.3090
136.5784,107.2999
136.5850,107.1986
136.5524,107.1026
136.4855,107.0263
136.3945,106.9814
134.3371,106.4301
134.2359,106.4235
134.1398,106.4561
134.0635,106.5230
134.0187,106.6140
Z" /> 
<path style="fill:#000000; fill-opacity:1.0000; 
stroke:#000000; stroke-width:0.0000; stroke-opacity:1; 
stroke-linecap:round; stroke-linejoin:round;fill-rule:evenodd;"
d="M 121.8124,107.7743
121.8058,107.8756
121.8384,107.9716
121.9053,108.0479
121.9963,108.0928
124.0537,108.6440
124.1549,108.6507
124.2510,108.6181
124.3273,108.5512
124.3721,108.4602
124.9105,106.4511
124.9171,106.3498
124.8845,106.2538
124.8176,106.1775
124.7266,106.1326
122.6692,105.5814
122.5680,105.5747
122.4719,105.6073
122.3956,105.6742
122.3508,105.7652
Z" /> 
</g>
<g >
</g>
<g style="fill:#000000; fill-opacity:1.0000; 
stroke:#000000; stroke-width:0.0000; stroke-opacity:1; 
stroke-linecap:round; stroke-linejoin:round;">
<path style="fill:#000000; fill-opacity:1.0000; 
stroke:#000000; stroke-width:0.0000; stroke-opacity:1; 
stroke-linecap:round; stroke-linejoin:round;fill-rule:evenodd;"
d="M 172.7914,88.6203
172.8363,88.7113
172.9126,88.7782
173.0087,88.8108
173.1099,88.8042
175.1673,88.2529
175.2583,88.2080
175.3252,88.1318
175.3578,88.0357
175.3512,87.9345
174.8128,85.9253
174.7679,85.8343
174.6917,85.7675
174.5956,85.7349
174.4944,85.7415
172.4370,86.2928
172.3460,86.3376
172.2791,86.4139
172.2465,86.5100
172.2531,86.6112
Z" /> 
<path style="fill:#000000; fill-opacity:1.0000; 
stroke:#000000; stroke-width:0.0000; stroke-opacity:1; 
stroke-linecap:round; stroke-linejoin:round;fill-rule:evenodd;"
d="M 162.2624,93.7192
162.3072,93.8102
162.3835,93.8771
162.4796,93.9097
162.5808,93.9030
164.6382,93.3518
164.7292,93.3069
164.7961,93.2306
164.8287,93.1346
164.8221,93.0333
164.2837,91.0242
164.2389,90.9332
164.1626,90.8663
164.0665,90.8337
163.9653,90.8404
161.9079,91.3916
161.8169,91.4365
161.7500,91.5128
161.7174,91.6088
161.7240,91.7101
Z" /> 
</g>
<g >
</g>
<g style="fill:#000000; fill-opacity:1.0000; 
stroke:#000000; stroke-width:0.0000; stroke-opacity:1; 
stroke-linecap:round; stroke-linejoin:round;">
<path style="fill:#000000; fill-opacity:1.0000; 
stroke:#000000; stroke-width:0.0000; stroke-opacity:1; 
stroke-linecap:round; stroke-linejoin:round;fill-rule:evenodd;"
d="M 209.8136,87.6955
209.8585,87.7865
209.9347,87.8534
210.0308,87.8860
210.1320,87.8794
212.1894,87.3281
212.2804,87.2832
212.3473,87.2069
212.3799,87.1109
212.3733,87.0097
211.8349,85.0005
211.7901,84.9095
211.7138,84.8427
211.6177,84.8100
211.5165,84.8167
209.4591,85.3680
209.3681,85.4128
209.3012,85.4891
209.2686,85.5852
209.2752,85.6864
Z" /> 
<path style="fill:#000000; fill-opacity:1.0000; 
stroke:#000000; stroke-width:0.0000; stroke-opacity:1; 
stroke-linecap:round; stroke-linejoin:round;fill-rule:evenodd;"
d="M 199.2845,92.7944
199.3294,92.8854
199.4056,92.9523
199.5017,92.9849
199.6029,92.9782
201.6604,92.4270
201.7513,92.3821
201.8182,92.3058
201.8508,92.2097
201.8442,92.1085
201.3059,90.0994
201.2610,90.0084
201.1847,89.9415
201.0887,89.9089
200.9874,89.9155
198.9300,90.4668
198.8390,90.5117
198.7721,90.5880
198.7395,90.6840
198.7462,90.7853
Z" /> 
</g>
<g >
</g>
<g style="fill:#000000; fill-opacity:1.0000; 
stroke:#000000; stroke-width:0.0000; stroke-opacity:1; 
stroke-linecap:round; stroke-linejoin:round;">
<path style="fill:#000000; fill-opacity:1.0000; 
stroke:#000000; stroke-width:0.0000; stroke-opacity:1; 
stroke-linecap:round; stroke-linejoin:round;fill-rule:evenodd;"
d="M 117.1692,99.9504
117.1626,100.0516
117.1952,100.1476
117.2621,100.2239
117.3530,100.2688
119.4105,100.8201
119.5117,100.8267
119.6078,100.7941
119.6840,100.7272
119.7289,100.6362
120.2672,98.6271
120.2739,98.5259
120.2413,98.4298
120.1744,98.3535
120.0834,98.3087
118.0260,97.7574
117.9247,97.7507
117.8287,97.7834
117.7524,97.8502
117.7075,97.9412
Z" /> 
<path style="fill:#000000; fill-opacity:1.0000; 
stroke:#000000; stroke-width:0.0000; stroke-opacity:1; 
stroke-linecap:round; stroke-linejoin:round;fill-rule:evenodd;"
d="M 105.5013,99.1016
105.4947,99.2028
105.5273,99.2989
105.5942,99.3751
105.6852,99.4200
107.7426,99.9713
107.8438,99.9779
107.9399,99.9453
108.0161,99.8784
108.0610,99.7874
108.5994,97.7783
108.6060,97.6771
108.5734,97.5810
108.5065,97.5047
108.4155,97.4599
106.3581,96.9086
106.2569,96.9019
106.1608,96.9346
106.0845,97.0014
106.0397,97.0924
Z" /> 
</g>
<g >
</g>
<g style="fill:#000000; fill-opacity:1.0000; 
stroke:#000000; stroke-width:0.0000; stroke-opacity:1; 
stroke-linecap:round; stroke-linejoin:round;">
<path style="fill:#000000; fill-opacity:1.0000; 
stroke:#000000; stroke-width:0.0000; stroke-opacity:1; 
stroke-linecap:round; stroke-linejoin:round;fill-rule:evenodd;"
d="M 100.8581,91.2776
100.8515,91.3788
100.8841,91.4749
100.9509,91.5511
101.0419,91.5960
103.0994,92.1473
103.2006,92.1539
103.2966,92.1213
103.3729,92.0544
103.4178,91.9634
103.9561,89.9543
103.9628,89.8531
103.9302,89.7570
103.8633,89.6808
103.7723,89.6359
101.7149,89.0846
101.6136,89.0780
101.5176,89.1106
101.4413,89.1775
101.3964,89.2685
Z" /> 
<path style="fill:#000000; fill-opacity:1.0000; 
stroke:#000000; stroke-width:0.0000; stroke-opacity:1; 
stroke-linecap:round; stroke-linejoin:round;fill-rule:evenodd;"
d="M 89.1902,90.4288
89.1836,90.5300
89.2162,90.6261
89.2831,90.7023
89.3740,90.7472
91.4315,91.2985
91.5327,91.3051
91.6288,91.2725
91.7050,91.2056
91.7499,91.1147
92.2882,89.1055
92.2949,89.0043
92.2623,88.9082
92.1954,88.8320
92.1044,88.7871
90.0470,88.2358
89.9457,88.2292
89.8497,88.2618
89.7734,88.3287
89.7285,88.4197
Z" /> 
</g>
<g >
</g>
<g style="fill:#000000; fill-opacity:1.0000; 
stroke:#000000; stroke-width:0.0000; stroke-opacity:1; 
stroke-linecap:round; stroke-linejoin:round;">
<path style="fill:#000000; fill-opacity:1.0000; 
stroke:#000000; stroke-width:0.0000; stroke-opacity:1; 
stroke-linecap:round; stroke-linejoin:round;fill-rule:evenodd;"
d="M 82.1974,91.3737
82.1907,91.4750
82.2233,91.5710
82.2902,91.6473
82.3812,91.6922
84.4386,92.2434
84.5399,92.2501
84.6359,92.2175
84.7122,92.1506
84.7571,92.0596
85.2954,90.0505
85.3020,89.9492
85.2694,89.8532
85.2025,89.7769
85.1115,89.7320
83.0541,89.1808
82.9529,89.1741
82.8568,89.2067
82.7806,89.2736
82.7357,89.3646
Z" /> 
<path style="fill:#000000; fill-opacity:1.0000; 
stroke:#000000; stroke-width:0.0000; stroke-opacity:1; 
stroke-linecap:round; stroke-linejoin:round;fill-rule:evenodd;"
d="M 70.5295,90.5249
70.5228,90.6262
70.5554,90.7222
70.6223,90.7985
70.7133,90.8434
72.7707,91.3947
72.8720,91.4013
72.9680,91.3687
73.0443,91.3018
73.0892,91.2108
73.6275,89.2017
73.6341,89.1004
73.6015,89.0044
73.5346,88.9281
73.4437,88.8832
71.3862,88.3320
71.2850,88.3253
71.1889,88.3579
71.1127,88.4248
71.0678,88.5158
Z" /> 
</g>
<g >
</g>
<g style="fill:#000000; fill-opacity:1.0000; 
stroke:#000000; stroke-width:0.0000; stroke-opacity:1; 
stroke-linecap:round; stroke-linejoin:round;">
<path style="fill:#000000; fill-opacity:1.0000; 
stroke:#000000; stroke-width:0.0000; stroke-opacity:1; 
stroke-linecap:round; stroke-linejoin:round;fill-rule:evenodd;"
d="M 63.5605,91.3806
63.5539,91.4819
63.5865,91.5779
63.6534,91.6542
63.7444,91.6991
65.8018,92.2504
65.9030,92.2570
65.9991,92.2244
66.0754,92.1575
66.1202,92.0665
66.6586,90.0574
66.6652,89.9562
66.6326,89.8601
66.5657,89.7838
66.4747,89.7389
64.4173,89.1877
64.3161,89.1810
64.2200,89.2136
64.1438,89.2805
64.0989,89.3715
Z" /> 
<path style="fill:#000000; fill-opacity:1.0000; 
stroke:#000000; stroke-width:0.0000; stroke-opacity:1; 
stroke-linecap:round; stroke-linejoin:round;fill-rule:evenodd;"
d="M 51.8926,90.5318
51.8860,90.6331
51.9186,90.7291
51.9855,90.8054
52.0765,90.8503
54.1339,91.4016
54.2351,91.4082
54.3312,91.3756
54.4075,91.3087
54.4524,91.2177
54.9907,89.2086
54.9973,89.1074
54.9647,89.0113
54.8978,88.9350
54.8068,88.8902
52.7494,88.3389
52.6482,88.3322
52.5521,88.3648
52.4759,88.4317
52.4310,88.5227
Z" /> 
</g>
<g >
</g>
<g style="fill:#000000; fill-opacity:1.0000; 
stroke:#000000; stroke-width:0.0000; stroke-opacity:1; 
stroke-linecap:round; stroke-linejoin:round;">
<path style="fill:#000000; fill-opacity:1.0000; 
stroke:#000000; stroke-width:0.0000; stroke-opacity:1; 
stroke-linecap:round; stroke-linejoin:round;fill-rule:evenodd;"
d="M 44.8998,91.4768
44.8932,91.5780
44.9258,91.6741
44.9927,91.7503
45.0836,91.7952
47.1411,92.3465
47.2423,92.3531
47.3384,92.3205
47.4146,92.2536
47.4595,92.1627
47.9978,90.1535
48.0045,90.0523
47.9719,89.9562
47.9050,89.8800
47.8140,89.8351
45.7566,89.2838
45.6553,89.2772
45.5593,89.3098
45.4830,89.3767
45.4381,89.4677
Z" /> 
<path style="fill:#000000; fill-opacity:1.0000; 
stroke:#000000; stroke-width:0.0000; stroke-opacity:1; 
stroke-linecap:round; stroke-linejoin:round;fill-rule:evenodd;"
d="M 33.2319,90.6280
33.2253,90.7292
33.2579,90.8253
33.3248,90.9016
33.4158,90.9464
35.4732,91.4977
35.5744,91.5043
35.6705,91.4717
35.7467,91.4048
35.7916,91.3139
36.3300,89.3047
36.3366,89.2035
36.3040,89.1074
36.2371,89.0312
36.1461,88.9863
34.0887,88.4350
33.9875,88.4284
33.8914,88.4610
33.8151,88.5279
33.7702,88.6189
Z" /> 
</g>
<g >
</g>
<g style="fill:#000000; fill-opacity:1.0000; 
stroke:#000000; stroke-width:0.0000; stroke-opacity:1; 
stroke-linecap:round; stroke-linejoin:round;">
<path style="fill:#000000; fill-opacity:1.0000; 
stroke:#000000; stroke-width:0.0000; stroke-opacity:1; 
stroke-linecap:round; stroke-linejoin:round;fill-rule:evenodd;"
d="M 261.3830,71.5151
261.4278,71.6061
261.5041,71.6730
261.6002,71.7056
261.7014,71.6990
263.7588,71.1477
263.8498,71.1028
263.9167,71.0265
263.9493,70.9305
263.9427,70.8292
263.4043,68.8201
263.3595,68.7291
263.2832,68.6622
263.1871,68.6296
263.0859,68.6363
261.0285,69.1876
260.9375,69.2324
260.8706,69.3087
260.8380,69.4048
260.8446,69.5060
Z" /> 
<path style="fill:#000000; fill-opacity:1.0000; 
stroke:#000000; stroke-width:0.0000; stroke-opacity:1; 
stroke-linecap:round; stroke-linejoin:round;fill-rule:evenodd;"
d="M 250.8539,76.6140
250.8988,76.7050
250.9750,76.7719
251.0711,76.8045
251.1723,76.7978
253.2297,76.2465
253.3207,76.2017
253.3876,76.1254
253.4202,76.0293
253.4136,75.9281
252.8752,73.9190
252.8304,73.8280
252.7541,73.7611
252.6580,73.7285
252.5568,73.7351
250.4994,74.2864
250.4084,74.3313
250.3415,74.4076
250.3089,74.5036
250.3155,74.6049
Z" /> 
</g>
<g >
</g>
<g style="fill:#000000; fill-opacity:1.0000; 
stroke:#000000; stroke-width:0.0000; stroke-opacity:1; 
stroke-linecap:round; stroke-linejoin:round;">
<path style="fill:#000000; fill-opacity:1.0000; 
stroke:#000000; stroke-width:0.0000; stroke-opacity:1; 
stroke-linecap:round; stroke-linejoin:round;fill-rule:evenodd;"
d="M 124.6804,141.4643
124.6738,141.5655
124.7064,141.6616
124.7733,141.7378
124.8643,141.7827
126.9217,142.3340
127.0229,142.3406
127.1190,142.3080
127.1953,142.2411
127.2401,142.1502
127.7785,140.1410
127.7851,140.0398
127.7525,139.9437
127.6856,139.8675
127.5946,139.8226
125.5372,139.2713
125.4360,139.2647
125.3399,139.2973
125.2637,139.3642
125.2188,139.4552
Z" /> 
<path style="fill:#000000; fill-opacity:1.0000; 
stroke:#000000; stroke-width:0.0000; stroke-opacity:1; 
stroke-linecap:round; stroke-linejoin:round;fill-rule:evenodd;"
d="M 113.0126,140.6155
113.0059,140.7167
113.0385,140.8128
113.1054,140.8891
113.1964,140.9339
115.2538,141.4852
115.3551,141.4918
115.4511,141.4592
115.5274,141.3923
115.5723,141.3014
116.1106,139.2922
116.1172,139.1910
116.0846,139.0949
116.0177,139.0187
115.9268,138.9738
113.8693,138.4225
113.7681,138.4159
113.6720,138.4485
113.5958,138.5154
113.5509,138.6064
Z" /> 
</g>
<g >
</g>
<g style="fill:#000000; fill-opacity:1.0000; 
stroke:#000000; stroke-width:0.0000; stroke-opacity:1; 
stroke-linecap:round; stroke-linejoin:round;">
<path style="fill:#000000; fill-opacity:1.0000; 
stroke:#000000; stroke-width:0.0000; stroke-opacity:1; 
stroke-linecap:round; stroke-linejoin:round;fill-rule:evenodd;"
d="M 242.7111,71.3774
242.7560,71.4684
242.8322,71.5353
242.9283,71.5679
243.0295,71.5613
245.0870,71.0100
245.1779,70.9651
245.2448,70.8889
245.2774,70.7928
245.2708,70.6916
244.7325,68.6824
244.6876,68.5915
244.6113,68.5246
244.5153,68.4920
244.4140,68.4986
242.3566,69.0499
242.2656,69.0947
242.1987,69.1710
242.1661,69.2671
242.1728,69.3683
Z" /> 
<path style="fill:#000000; fill-opacity:1.0000; 
stroke:#000000; stroke-width:0.0000; stroke-opacity:1; 
stroke-linecap:round; stroke-linejoin:round;fill-rule:evenodd;"
d="M 232.1820,76.4763
232.2269,76.5673
232.3032,76.6342
232.3992,76.6668
232.5005,76.6602
234.5579,76.1089
234.6489,76.0640
234.7158,75.9877
234.7484,75.8917
234.7417,75.7904
234.2034,73.7813
234.1585,73.6903
234.0822,73.6234
233.9862,73.5908
233.8849,73.5975
231.8275,74.1487
231.7365,74.1936
231.6697,74.2699
231.6370,74.3659
231.6437,74.4672
Z" /> 
</g>
<g >
</g>
<g style="fill:#000000; fill-opacity:1.0000; 
stroke:#000000; stroke-width:0.0000; stroke-opacity:1; 
stroke-linecap:round; stroke-linejoin:round;">
<path style="fill:#000000; fill-opacity:1.0000; 
stroke:#000000; stroke-width:0.0000; stroke-opacity:1; 
stroke-linecap:round; stroke-linejoin:round;fill-rule:evenodd;"
d="M 49.2997,75.0560
49.2931,75.1573
49.3257,75.2533
49.3926,75.3296
49.4836,75.3745
51.5410,75.9258
51.6422,75.9324
51.7383,75.8998
51.8146,75.8329
51.8594,75.7419
52.3978,73.7328
52.4044,73.6316
52.3718,73.5355
52.3049,73.4592
52.2139,73.4143
50.1565,72.8631
50.0553,72.8564
49.9592,72.8890
49.8829,72.9559
49.8381,73.0469
Z" /> 
<path style="fill:#000000; fill-opacity:1.0000; 
stroke:#000000; stroke-width:0.0000; stroke-opacity:1; 
stroke-linecap:round; stroke-linejoin:round;fill-rule:evenodd;"
d="M 37.6318,74.2072
37.6252,74.3085
37.6578,74.4045
37.7247,74.4808
37.8157,74.5257
39.8731,75.0770
39.9743,75.0836
40.0704,75.0510
40.1467,74.9841
40.1915,74.8931
40.7299,72.8840
40.7365,72.7828
40.7039,72.6867
40.6370,72.6104
40.5460,72.5656
38.4886,72.0143
38.3874,72.0076
38.2913,72.0402
38.2151,72.1071
38.1702,72.1981
Z" /> 
</g>
<g >
</g>
<g style="fill:#000000; fill-opacity:1.0000; 
stroke:#000000; stroke-width:0.0000; stroke-opacity:1; 
stroke-linecap:round; stroke-linejoin:round;">
<path style="fill:#000000; fill-opacity:1.0000; 
stroke:#000000; stroke-width:0.0000; stroke-opacity:1; 
stroke-linecap:round; stroke-linejoin:round;fill-rule:evenodd;"
d="M 121.5691,83.5296
121.5625,83.6308
121.5951,83.7269
121.6620,83.8032
121.7530,83.8480
123.8104,84.3993
123.9116,84.4060
124.0077,84.3734
124.0840,84.3065
124.1288,84.2155
124.6672,82.2064
124.6738,82.1051
124.6412,82.0091
124.5743,81.9328
124.4833,81.8879
122.4259,81.3366
122.3247,81.3300
122.2286,81.3626
122.1523,81.4295
122.1075,81.5205
Z" /> 
<path style="fill:#000000; fill-opacity:1.0000; 
stroke:#000000; stroke-width:0.0000; stroke-opacity:1; 
stroke-linecap:round; stroke-linejoin:round;fill-rule:evenodd;"
d="M 109.9012,82.6808
109.8946,82.7820
109.9272,82.8781
109.9941,82.9544
110.0851,82.9993
112.1425,83.5505
112.2437,83.5572
112.3398,83.5246
112.4161,83.4577
112.4609,83.3667
112.9993,81.3576
113.0059,81.2563
112.9733,81.1603
112.9064,81.0840
112.8154,81.0391
110.7580,80.4878
110.6568,80.4812
110.5607,80.5138
110.4844,80.5807
110.4396,80.6717
Z" /> 
</g>
<g >
</g>
<g style="fill:#000000; fill-opacity:1.0000; 
stroke:#000000; stroke-width:0.0000; stroke-opacity:1; 
stroke-linecap:round; stroke-linejoin:round;">
<path style="fill:#000000; fill-opacity:1.0000; 
stroke:#000000; stroke-width:0.0000; stroke-opacity:1; 
stroke-linecap:round; stroke-linejoin:round;fill-rule:evenodd;"
d="M 105.2580,74.8568
105.2514,74.9581
105.2840,75.0541
105.3509,75.1304
105.4419,75.1753
107.4993,75.7266
107.6005,75.7332
107.6966,75.7006
107.7728,75.6337
107.8177,75.5427
108.3561,73.5336
108.3627,73.4324
108.3301,73.3363
108.2632,73.2600
108.1722,73.2151
106.1148,72.6639
106.0136,72.6572
105.9175,72.6898
105.8412,72.7567
105.7964,72.8477
Z" /> 
<path style="fill:#000000; fill-opacity:1.0000; 
stroke:#000000; stroke-width:0.0000; stroke-opacity:1; 
stroke-linecap:round; stroke-linejoin:round;fill-rule:evenodd;"
d="M 93.5901,74.0080
93.5835,74.1093
93.6161,74.2053
93.6830,74.2816
93.7740,74.3265
95.8314,74.8778
95.9326,74.8844
96.0287,74.8518
96.1050,74.7849
96.1498,74.6939
96.6882,72.6848
96.6948,72.5836
96.6622,72.4875
96.5953,72.4112
96.5043,72.3664
94.4469,71.8151
94.3457,71.8084
94.2496,71.8410
94.1733,71.9079
94.1285,71.9989
Z" /> 
</g>
<g >
</g>
<g style="fill:#000000; fill-opacity:1.0000; 
stroke:#000000; stroke-width:0.0000; stroke-opacity:1; 
stroke-linecap:round; stroke-linejoin:round;">
<path style="fill:#000000; fill-opacity:1.0000; 
stroke:#000000; stroke-width:0.0000; stroke-opacity:1; 
stroke-linecap:round; stroke-linejoin:round;fill-rule:evenodd;"
d="M 189.1026,79.9476
189.1474,80.0385
189.2237,80.1054
189.3198,80.1380
189.4210,80.1314
191.4784,79.5801
191.5694,79.5352
191.6363,79.4590
191.6689,79.3629
191.6623,79.2617
191.1239,77.2526
191.0790,77.1616
191.0028,77.0947
190.9067,77.0621
190.8055,77.0687
188.7481,77.6200
188.6571,77.6649
188.5902,77.7411
188.5576,77.8372
188.5642,77.9384
Z" /> 
<path style="fill:#000000; fill-opacity:1.0000; 
stroke:#000000; stroke-width:0.0000; stroke-opacity:1; 
stroke-linecap:round; stroke-linejoin:round;fill-rule:evenodd;"
d="M 178.5735,85.0464
178.6183,85.1374
178.6946,85.2043
178.7907,85.2369
178.8919,85.2303
180.9493,84.6790
181.0403,84.6341
181.1072,84.5578
181.1398,84.4618
181.1332,84.3605
180.5948,82.3514
180.5500,82.2604
180.4737,82.1936
180.3776,82.1609
180.2764,82.1676
178.2190,82.7189
178.1280,82.7637
178.0611,82.8400
178.0285,82.9361
178.0351,83.0373
Z" /> 
</g>
<g >
</g>
<g style="fill:#000000; fill-opacity:1.0000; 
stroke:#000000; stroke-width:0.0000; stroke-opacity:1; 
stroke-linecap:round; stroke-linejoin:round;">
<path style="fill:#000000; fill-opacity:1.0000; 
stroke:#000000; stroke-width:0.0000; stroke-opacity:1; 
stroke-linecap:round; stroke-linejoin:round;fill-rule:evenodd;"
d="M 181.5913,121.4618
181.6362,121.5528
181.7124,121.6197
181.8085,121.6523
181.9097,121.6456
183.9671,121.0944
184.0581,121.0495
184.1250,120.9732
184.1576,120.8772
184.1510,120.7759
183.6127,118.7668
183.5678,118.6758
183.4915,118.6089
183.3954,118.5763
183.2942,118.5830
181.2368,119.1342
181.1458,119.1791
181.0789,119.2554
181.0463,119.3514
181.0529,119.4527
Z" /> 
<path style="fill:#000000; fill-opacity:1.0000; 
stroke:#000000; stroke-width:0.0000; stroke-opacity:1; 
stroke-linecap:round; stroke-linejoin:round;fill-rule:evenodd;"
d="M 171.0622,126.5607
171.1071,126.6517
171.1833,126.7185
171.2794,126.7512
171.3806,126.7445
173.4381,126.1932
173.5290,126.1484
173.5959,126.0721
173.6285,125.9760
173.6219,125.8748
173.0836,123.8657
173.0387,123.7747
172.9624,123.7078
172.8664,123.6752
172.7651,123.6818
170.7077,124.2331
170.6167,124.2780
170.5498,124.3542
170.5172,124.4503
170.5239,124.5515
Z" /> 
</g>
<g >
</g>
<g style="fill:#000000; fill-opacity:1.0000; 
stroke:#000000; stroke-width:0.0000; stroke-opacity:1; 
stroke-linecap:round; stroke-linejoin:round;">
<path style="fill:#000000; fill-opacity:1.0000; 
stroke:#000000; stroke-width:0.0000; stroke-opacity:1; 
stroke-linecap:round; stroke-linejoin:round;fill-rule:evenodd;"
d="M 67.9604,74.9599
67.9538,75.0611
67.9864,75.1572
68.0533,75.2335
68.1443,75.2783
70.2017,75.8296
70.3029,75.8362
70.3990,75.8036
70.4753,75.7368
70.5202,75.6458
71.0585,73.6366
71.0651,73.5354
71.0325,73.4393
70.9656,73.3631
70.8746,73.3182
68.8172,72.7669
68.7160,72.7603
68.6199,72.7929
68.5437,72.8598
68.4988,72.9508
Z" /> 
<path style="fill:#000000; fill-opacity:1.0000; 
stroke:#000000; stroke-width:0.0000; stroke-opacity:1; 
stroke-linecap:round; stroke-linejoin:round;fill-rule:evenodd;"
d="M 56.2926,74.1111
56.2859,74.2123
56.3185,74.3084
56.3854,74.3847
56.4764,74.4295
58.5338,74.9808
58.6351,74.9875
58.7311,74.9548
58.8074,74.8880
58.8523,74.7970
59.3906,72.7878
59.3972,72.6866
59.3646,72.5906
59.2977,72.5143
59.2068,72.4694
57.1493,71.9181
57.0481,71.9115
56.9520,71.9441
56.8758,72.0110
56.8309,72.1020
Z" /> 
</g>
<g >
</g>
<g style="fill:#000000; fill-opacity:1.0000; 
stroke:#000000; stroke-width:0.0000; stroke-opacity:1; 
stroke-linecap:round; stroke-linejoin:round;">
<path style="fill:#000000; fill-opacity:1.0000; 
stroke:#000000; stroke-width:0.0000; stroke-opacity:1; 
stroke-linecap:round; stroke-linejoin:round;fill-rule:evenodd;"
d="M 224.0744,71.3709
224.1193,71.4619
224.1955,71.5288
224.2916,71.5614
224.3928,71.5548
226.4503,71.0035
226.5412,70.9586
226.6081,70.8824
226.6407,70.7863
226.6341,70.6851
226.0958,68.6759
226.0509,68.5850
225.9746,68.5181
225.8786,68.4855
225.7773,68.4921
223.7199,69.0434
223.6289,69.0882
223.5620,69.1645
223.5294,69.2606
223.5361,69.3618
Z" /> 
<path style="fill:#000000; fill-opacity:1.0000; 
stroke:#000000; stroke-width:0.0000; stroke-opacity:1; 
stroke-linecap:round; stroke-linejoin:round;fill-rule:evenodd;"
d="M 213.5453,76.4698
213.5902,76.5608
213.6665,76.6277
213.7625,76.6603
213.8637,76.6536
215.9212,76.1024
216.0122,76.0575
216.0790,75.9812
216.1117,75.8852
216.1050,75.7839
215.5667,73.7748
215.5218,73.6838
215.4455,73.6169
215.3495,73.5843
215.2482,73.5910
213.1908,74.1422
213.0998,74.1871
213.0329,74.2634
213.0003,74.3594
213.0070,74.4607
Z" /> 
</g>
<g >
</g>
<g style="fill:#000000; fill-opacity:1.0000; 
stroke:#000000; stroke-width:0.0000; stroke-opacity:1; 
stroke-linecap:round; stroke-linejoin:round;">
<path style="fill:#000000; fill-opacity:1.0000; 
stroke:#000000; stroke-width:0.0000; stroke-opacity:1; 
stroke-linecap:round; stroke-linejoin:round;fill-rule:evenodd;"
d="M 205.4137,71.2748
205.4585,71.3658
205.5348,71.4327
205.6309,71.4653
205.7321,71.4586
207.7895,70.9074
207.8805,70.8625
207.9474,70.7862
207.9800,70.6902
207.9734,70.5889
207.4350,68.5798
207.3902,68.4888
207.3139,68.4219
207.2178,68.3893
207.1166,68.3959
205.0592,68.9472
204.9682,68.9921
204.9013,69.0684
204.8687,69.1644
204.8753,69.2657
Z" /> 
<path style="fill:#000000; fill-opacity:1.0000; 
stroke:#000000; stroke-width:0.0000; stroke-opacity:1; 
stroke-linecap:round; stroke-linejoin:round;fill-rule:evenodd;"
d="M 194.8846,76.3737
194.9294,76.4646
195.0057,76.5315
195.1018,76.5641
195.2030,76.5575
197.2604,76.0062
197.3514,75.9614
197.4183,75.8851
197.4509,75.7890
197.4443,75.6878
196.9059,73.6787
196.8611,73.5877
196.7848,73.5208
196.6887,73.4882
196.5875,73.4948
194.5301,74.0461
194.4391,74.0910
194.3722,74.1672
194.3396,74.2633
194.3462,74.3645
Z" /> 
</g>
<g >
</g>
<g style="fill:#000000; fill-opacity:1.0000; 
stroke:#000000; stroke-width:0.0000; stroke-opacity:1; 
stroke-linecap:round; stroke-linejoin:round;">
<path style="fill:#000000; fill-opacity:1.0000; 
stroke:#000000; stroke-width:0.0000; stroke-opacity:1; 
stroke-linecap:round; stroke-linejoin:round;fill-rule:evenodd;"
d="M 270.1828,104.3566
270.2277,104.4476
270.3040,104.5145
270.4000,104.5471
270.5013,104.5404
272.5587,103.9892
272.6497,103.9443
272.7166,103.8680
272.7492,103.7720
272.7425,103.6707
272.2042,101.6616
272.1593,101.5706
272.0830,101.5037
271.9870,101.4711
271.8858,101.4778
269.8283,102.0290
269.7373,102.0739
269.6705,102.1502
269.6378,102.2462
269.6445,102.3475
Z" /> 
<path style="fill:#000000; fill-opacity:1.0000; 
stroke:#000000; stroke-width:0.0000; stroke-opacity:1; 
stroke-linecap:round; stroke-linejoin:round;fill-rule:evenodd;"
d="M 259.6537,109.4555
259.6986,109.5465
259.7749,109.6133
259.8709,109.6459
259.9722,109.6393
262.0296,109.0880
262.1206,109.0432
262.1875,108.9669
262.2201,108.8708
262.2134,108.7696
261.6751,106.7605
261.6302,106.6695
261.5540,106.6026
261.4579,106.5700
261.3567,106.5766
259.2992,107.1279
259.2083,107.1728
259.1414,107.2490
259.1088,107.3451
259.1154,107.4463
Z" /> 
</g>
<g >
</g>
<g style="fill:#000000; fill-opacity:1.0000; 
stroke:#000000; stroke-width:0.0000; stroke-opacity:1; 
stroke-linecap:round; stroke-linejoin:round;">
<path style="fill:#000000; fill-opacity:1.0000; 
stroke:#000000; stroke-width:0.0000; stroke-opacity:1; 
stroke-linecap:round; stroke-linejoin:round;fill-rule:evenodd;"
d="M 251.5110,104.2189
251.5558,104.3099
251.6321,104.3768
251.7282,104.4094
251.8294,104.4028
253.8868,103.8515
253.9778,103.8066
254.0447,103.7303
254.0773,103.6343
254.0707,103.5330
253.5323,101.5239
253.4875,101.4329
253.4112,101.3660
253.3151,101.3334
253.2139,101.3401
251.1565,101.8913
251.0655,101.9362
250.9986,102.0125
250.9660,102.1085
250.9726,102.2098
Z" /> 
<path style="fill:#000000; fill-opacity:1.0000; 
stroke:#000000; stroke-width:0.0000; stroke-opacity:1; 
stroke-linecap:round; stroke-linejoin:round;fill-rule:evenodd;"
d="M 240.9819,109.3178
241.0267,109.4088
241.1030,109.4756
241.1991,109.5083
241.3003,109.5016
243.3577,108.9503
243.4487,108.9055
243.5156,108.8292
243.5482,108.7331
243.5416,108.6319
243.0032,106.6228
242.9584,106.5318
242.8821,106.4649
242.7860,106.4323
242.6848,106.4389
240.6274,106.9902
240.5364,107.0351
240.4695,107.1114
240.4369,107.2074
240.4435,107.3086
Z" /> 
</g>
<g >
</g>
<g style="fill:#000000; fill-opacity:1.0000; 
stroke:#000000; stroke-width:0.0000; stroke-opacity:1; 
stroke-linecap:round; stroke-linejoin:round;">
<path style="fill:#000000; fill-opacity:1.0000; 
stroke:#000000; stroke-width:0.0000; stroke-opacity:1; 
stroke-linecap:round; stroke-linejoin:round;fill-rule:evenodd;"
d="M 232.8742,104.2124
232.9191,104.3034
232.9954,104.3703
233.0914,104.4029
233.1927,104.3963
235.2501,103.8450
235.3411,103.8001
235.4080,103.7238
235.4406,103.6278
235.4339,103.5265
234.8956,101.5174
234.8507,101.4264
234.7745,101.3595
234.6784,101.3269
234.5772,101.3336
232.5197,101.8849
232.4288,101.9297
232.3619,102.0060
232.3293,102.1021
232.3359,102.2033
Z" /> 
<path style="fill:#000000; fill-opacity:1.0000; 
stroke:#000000; stroke-width:0.0000; stroke-opacity:1; 
stroke-linecap:round; stroke-linejoin:round;fill-rule:evenodd;"
d="M 222.3452,109.3113
222.3900,109.4023
222.4663,109.4692
222.5624,109.5018
222.6636,109.4951
224.7210,108.9438
224.8120,108.8990
224.8789,108.8227
224.9115,108.7266
224.9049,108.6254
224.3665,106.6163
224.3216,106.5253
224.2454,106.4584
224.1493,106.4258
224.0481,106.4324
221.9907,106.9837
221.8997,107.0286
221.8328,107.1049
221.8002,107.2009
221.8068,107.3022
Z" /> 
</g>
<g >
</g>
<g style="fill:#000000; fill-opacity:1.0000; 
stroke:#000000; stroke-width:0.0000; stroke-opacity:1; 
stroke-linecap:round; stroke-linejoin:round;">
<path style="fill:#000000; fill-opacity:1.0000; 
stroke:#000000; stroke-width:0.0000; stroke-opacity:1; 
stroke-linecap:round; stroke-linejoin:round;fill-rule:evenodd;"
d="M 214.2135,104.1163
214.2584,104.2073
214.3346,104.2741
214.4307,104.3068
214.5319,104.3001
216.5894,103.7488
216.6803,103.7040
216.7472,103.6277
216.7798,103.5316
216.7732,103.4304
216.2349,101.4213
216.1900,101.3303
216.1137,101.2634
216.0177,101.2308
215.9164,101.2374
213.8590,101.7887
213.7680,101.8336
213.7011,101.9099
213.6685,102.0059
213.6752,102.1071
Z" /> 
<path style="fill:#000000; fill-opacity:1.0000; 
stroke:#000000; stroke-width:0.0000; stroke-opacity:1; 
stroke-linecap:round; stroke-linejoin:round;fill-rule:evenodd;"
d="M 203.6844,109.2151
203.7293,109.3061
203.8056,109.3730
203.9016,109.4056
204.0029,109.3990
206.0603,108.8477
206.1513,108.8028
206.2181,108.7266
206.2508,108.6305
206.2441,108.5293
205.7058,106.5201
205.6609,106.4292
205.5846,106.3623
205.4886,106.3297
205.3873,106.3363
203.3299,106.8876
203.2389,106.9324
203.1720,107.0087
203.1394,107.1048
203.1461,107.2060
Z" /> 
</g>
<g >
</g>
<g style="fill:#000000; fill-opacity:1.0000; 
stroke:#000000; stroke-width:0.0000; stroke-opacity:1; 
stroke-linecap:round; stroke-linejoin:round;">
<path style="fill:#000000; fill-opacity:1.0000; 
stroke:#000000; stroke-width:0.0000; stroke-opacity:1; 
stroke-linecap:round; stroke-linejoin:round;fill-rule:evenodd;"
d="M 197.9024,112.7890
197.9473,112.8800
198.0235,112.9469
198.1196,112.9795
198.2208,112.9729
200.2783,112.4216
200.3692,112.3767
200.4361,112.3004
200.4687,112.2044
200.4621,112.1032
199.9238,110.0940
199.8789,110.0030
199.8026,109.9362
199.7066,109.9035
199.6053,109.9102
197.5479,110.4615
197.4569,110.5063
197.3900,110.5826
197.3574,110.6787
197.3641,110.7799
Z" /> 
<path style="fill:#000000; fill-opacity:1.0000; 
stroke:#000000; stroke-width:0.0000; stroke-opacity:1; 
stroke-linecap:round; stroke-linejoin:round;fill-rule:evenodd;"
d="M 187.3733,117.8879
187.4182,117.9789
187.4945,118.0458
187.5905,118.0784
187.6917,118.0717
189.7492,117.5205
189.8402,117.4756
189.9070,117.3993
189.9396,117.3033
189.9330,117.2020
189.3947,115.1929
189.3498,115.1019
189.2735,115.0350
189.1775,115.0024
189.0762,115.0090
187.0188,115.5603
186.9278,115.6052
186.8609,115.6815
186.8283,115.7775
186.8350,115.8788
Z" /> 
</g>
<g >
</g>
<g style="fill:#000000; fill-opacity:1.0000; 
stroke:#000000; stroke-width:0.0000; stroke-opacity:1; 
stroke-linecap:round; stroke-linejoin:round;">
<path style="fill:#000000; fill-opacity:1.0000; 
stroke:#000000; stroke-width:0.0000; stroke-opacity:1; 
stroke-linecap:round; stroke-linejoin:round;fill-rule:evenodd;"
d="M 129.0804,125.0439
129.0737,125.1451
129.1063,125.2412
129.1732,125.3174
129.2642,125.3623
131.3216,125.9136
131.4229,125.9202
131.5189,125.8876
131.5952,125.8207
131.6401,125.7297
132.1784,123.7206
132.1851,123.6194
132.1524,123.5233
132.0856,123.4470
131.9946,123.4022
129.9372,122.8509
129.8359,122.8443
129.7399,122.8769
129.6636,122.9438
129.6187,123.0347
Z" /> 
<path style="fill:#000000; fill-opacity:1.0000; 
stroke:#000000; stroke-width:0.0000; stroke-opacity:1; 
stroke-linecap:round; stroke-linejoin:round;fill-rule:evenodd;"
d="M 117.4125,124.1951
117.4059,124.2963
117.4385,124.3924
117.5053,124.4686
117.5963,124.5135
119.6538,125.0648
119.7550,125.0714
119.8510,125.0388
119.9273,124.9719
119.9722,124.8809
120.5105,122.8718
120.5172,122.7706
120.4846,122.6745
120.4177,122.5983
120.3267,122.5534
118.2693,122.0021
118.1680,121.9955
118.0720,122.0281
117.9957,122.0950
117.9508,122.1859
Z" /> 
</g>
<g >
</g>
<g style="fill:#000000; fill-opacity:1.0000; 
stroke:#000000; stroke-width:0.0000; stroke-opacity:1; 
stroke-linecap:round; stroke-linejoin:round;">
<path style="fill:#000000; fill-opacity:1.0000; 
stroke:#000000; stroke-width:0.0000; stroke-opacity:1; 
stroke-linecap:round; stroke-linejoin:round;fill-rule:evenodd;"
d="M 112.7693,116.3711
112.7626,116.4723
112.7952,116.5684
112.8621,116.6447
112.9531,116.6895
115.0105,117.2408
115.1118,117.2474
115.2078,117.2148
115.2841,117.1479
115.3290,117.0570
115.8673,115.0478
115.8740,114.9466
115.8413,114.8505
115.7745,114.7743
115.6835,114.7294
113.6261,114.1781
113.5248,114.1715
113.4288,114.2041
113.3525,114.2710
113.3076,114.3620
Z" /> 
<path style="fill:#000000; fill-opacity:1.0000; 
stroke:#000000; stroke-width:0.0000; stroke-opacity:1; 
stroke-linecap:round; stroke-linejoin:round;fill-rule:evenodd;"
d="M 101.1014,115.5223
101.0947,115.6235
101.1274,115.7196
101.1942,115.7959
101.2852,115.8407
103.3427,116.3920
103.4439,116.3986
103.5399,116.3660
103.6162,116.2992
103.6611,116.2082
104.1994,114.1990
104.2061,114.0978
104.1735,114.0017
104.1066,113.9255
104.0156,113.8806
101.9582,113.3293
101.8569,113.3227
101.7609,113.3553
101.6846,113.4222
101.6397,113.5132
Z" /> 
</g>
<g >
</g>
<g style="fill:#000000; fill-opacity:1.0000; 
stroke:#000000; stroke-width:0.0000; stroke-opacity:1; 
stroke-linecap:round; stroke-linejoin:round;">
<path style="fill:#000000; fill-opacity:1.0000; 
stroke:#000000; stroke-width:0.0000; stroke-opacity:1; 
stroke-linecap:round; stroke-linejoin:round;fill-rule:evenodd;"
d="M 86.5973,74.9530
86.5906,75.0542
86.6233,75.1503
86.6901,75.2266
86.7811,75.2714
88.8386,75.8227
88.9398,75.8293
89.0358,75.7967
89.1121,75.7299
89.1570,75.6389
89.6953,73.6297
89.7020,73.5285
89.6694,73.4324
89.6025,73.3562
89.5115,73.3113
87.4541,72.7600
87.3528,72.7534
87.2568,72.7860
87.1805,72.8529
87.1356,72.9439
Z" /> 
<path style="fill:#000000; fill-opacity:1.0000; 
stroke:#000000; stroke-width:0.0000; stroke-opacity:1; 
stroke-linecap:round; stroke-linejoin:round;fill-rule:evenodd;"
d="M 74.9294,74.1042
74.9228,74.2054
74.9554,74.3015
75.0223,74.3778
75.1132,74.4226
77.1707,74.9739
77.2719,74.9806
77.3680,74.9479
77.4442,74.8811
77.4891,74.7901
78.0274,72.7809
78.0341,72.6797
78.0015,72.5837
77.9346,72.5074
77.8436,72.4625
75.7862,71.9112
75.6849,71.9046
75.5889,71.9372
75.5126,72.0041
75.4677,72.0951
Z" /> 
</g>
<g >
</g>
<g style="fill:#000000; fill-opacity:1.0000; 
stroke:#000000; stroke-width:0.0000; stroke-opacity:1; 
stroke-linecap:round; stroke-linejoin:round;">
<path style="fill:#000000; fill-opacity:1.0000; 
stroke:#000000; stroke-width:0.0000; stroke-opacity:1; 
stroke-linecap:round; stroke-linejoin:round;fill-rule:evenodd;"
d="M 137.8802,92.2024
137.8736,92.3036
137.9062,92.3997
137.9731,92.4759
138.0641,92.5208
140.1215,93.0721
140.2227,93.0787
140.3188,93.0461
140.3951,92.9792
140.4399,92.8883
140.9783,90.8791
140.9849,90.7779
140.9523,90.6818
140.8854,90.6056
140.7944,90.5607
138.7370,90.0094
138.6358,90.0028
138.5397,90.0354
138.4634,90.1023
138.4186,90.1933
Z" /> 
<path style="fill:#000000; fill-opacity:1.0000; 
stroke:#000000; stroke-width:0.0000; stroke-opacity:1; 
stroke-linecap:round; stroke-linejoin:round;fill-rule:evenodd;"
d="M 126.2123,91.3536
126.2057,91.4548
126.2383,91.5509
126.3052,91.6272
126.3962,91.6720
128.4536,92.2233
128.5548,92.2299
128.6509,92.1973
128.7272,92.1304
128.7720,92.0395
129.3104,90.0303
129.3170,89.9291
129.2844,89.8330
129.2175,89.7568
129.1265,89.7119
127.0691,89.1606
126.9679,89.1540
126.8718,89.1866
126.7955,89.2535
126.7507,89.3445
Z" /> 
</g>
<g >
</g>
<g style="fill:#000000; fill-opacity:1.0000; 
stroke:#000000; stroke-width:0.0000; stroke-opacity:1; 
stroke-linecap:round; stroke-linejoin:round;">
<path style="fill:#000000; fill-opacity:1.0000; 
stroke:#000000; stroke-width:0.0000; stroke-opacity:1; 
stroke-linecap:round; stroke-linejoin:round;fill-rule:evenodd;"
d="M 107.4854,132.6407
107.5052,132.7402
107.5615,132.8245
107.6459,132.8809
107.7454,132.9007
109.8754,132.9007
109.9749,132.8809
110.0592,132.8245
110.1156,132.7402
110.1354,132.6407
110.1354,130.5607
110.1156,130.4612
110.0592,130.3768
109.9749,130.3205
109.8754,130.3007
107.7454,130.3007
107.6459,130.3205
107.5615,130.3768
107.5052,130.4612
107.4854,130.5607
Z" /> 
<path style="fill:#000000; fill-opacity:1.0000; 
stroke:#000000; stroke-width:0.0000; stroke-opacity:1; 
stroke-linecap:round; stroke-linejoin:round;fill-rule:evenodd;"
d="M 95.9954,134.8407
96.0152,134.9402
96.0715,135.0245
96.1559,135.0809
96.2554,135.1007
98.3854,135.1007
98.4849,135.0809
98.5692,135.0245
98.6256,134.9402
98.6454,134.8407
98.6454,132.7607
98.6256,132.6612
98.5692,132.5768
98.4849,132.5205
98.3854,132.5007
96.2554,132.5007
96.1559,132.5205
96.0715,132.5768
96.0152,132.6612
95.9954,132.7607
Z" /> 
</g>
<g >
</g>
<g style="fill:#000000; fill-opacity:1.0000; 
stroke:#000000; stroke-width:0.0000; stroke-opacity:1; 
stroke-linecap:round; stroke-linejoin:round;">
<path style="fill:#000000; fill-opacity:1.0000; 
stroke:#000000; stroke-width:0.0000; stroke-opacity:1; 
stroke-linecap:round; stroke-linejoin:round;fill-rule:evenodd;"
d="M 185.9912,137.8825
186.0361,137.9735
186.1124,138.0404
186.2084,138.0730
186.3096,138.0664
188.3671,137.5151
188.4581,137.4702
188.5249,137.3940
188.5576,137.2979
188.5509,137.1967
188.0126,135.1875
187.9677,135.0966
187.8914,135.0297
187.7954,134.9971
187.6941,135.0037
185.6367,135.5550
185.5457,135.5999
185.4788,135.6761
185.4462,135.7722
185.4529,135.8734
Z" /> 
<path style="fill:#000000; fill-opacity:1.0000; 
stroke:#000000; stroke-width:0.0000; stroke-opacity:1; 
stroke-linecap:round; stroke-linejoin:round;fill-rule:evenodd;"
d="M 175.4621,142.9814
175.5070,143.0724
175.5833,143.1393
175.6793,143.1719
175.7806,143.1653
177.8380,142.6140
177.9290,142.5691
177.9959,142.4928
178.0285,142.3968
178.0218,142.2955
177.4835,140.2864
177.4386,140.1954
177.3623,140.1285
177.2663,140.0959
177.1651,140.1026
175.1076,140.6539
175.0166,140.6987
174.9498,140.7750
174.9171,140.8711
174.9238,140.9723
Z" /> 
</g>
<g >
</g>
<g style="fill:#000000; fill-opacity:1.0000; 
stroke:#000000; stroke-width:0.0000; stroke-opacity:1; 
stroke-linecap:round; stroke-linejoin:round;">
<path style="fill:#000000; fill-opacity:1.0000; 
stroke:#000000; stroke-width:0.0000; stroke-opacity:1; 
stroke-linecap:round; stroke-linejoin:round;fill-rule:evenodd;"
d="M 203.6576,132.6410
203.6774,132.7405
203.7338,132.8248
203.8181,132.8812
203.9176,132.9010
206.0476,132.9010
206.1471,132.8812
206.2315,132.8248
206.2878,132.7405
206.3076,132.6410
206.3076,130.5610
206.2878,130.4615
206.2315,130.3772
206.1471,130.3208
206.0476,130.3010
203.9176,130.3010
203.8181,130.3208
203.7338,130.3772
203.6774,130.4615
203.6576,130.5610
Z" /> 
<path style="fill:#000000; fill-opacity:1.0000; 
stroke:#000000; stroke-width:0.0000; stroke-opacity:1; 
stroke-linecap:round; stroke-linejoin:round;fill-rule:evenodd;"
d="M 192.1676,134.8410
192.1874,134.9405
192.2438,135.0248
192.3281,135.0812
192.4276,135.1010
194.5576,135.1010
194.6571,135.0812
194.7415,135.0248
194.7978,134.9405
194.8176,134.8410
194.8176,132.7610
194.7978,132.6615
194.7415,132.5772
194.6571,132.5208
194.5576,132.5010
192.4276,132.5010
192.3281,132.5208
192.2438,132.5772
192.1874,132.6615
192.1676,132.7610
Z" /> 
</g>
<g >
</g>
<g style="fill:#000000; fill-opacity:1.0000; 
stroke:#000000; stroke-width:0.0000; stroke-opacity:1; 
stroke-linecap:round; stroke-linejoin:round;">
<path style="fill:#000000; fill-opacity:1.0000; 
stroke:#000000; stroke-width:0.0000; stroke-opacity:1; 
stroke-linecap:round; stroke-linejoin:round;fill-rule:evenodd;"
d="M 164.5716,142.6145
164.5914,142.7140
164.6478,142.7984
164.7321,142.8547
164.8316,142.8745
166.9616,142.8745
167.0611,142.8547
167.1455,142.7984
167.2018,142.7140
167.2216,142.6145
167.2216,140.5345
167.2018,140.4350
167.1455,140.3507
167.0611,140.2943
166.9616,140.2745
164.8316,140.2745
164.7321,140.2943
164.6478,140.3507
164.5914,140.4350
164.5716,140.5345
Z" /> 
<path style="fill:#000000; fill-opacity:1.0000; 
stroke:#000000; stroke-width:0.0000; stroke-opacity:1; 
stroke-linecap:round; stroke-linejoin:round;fill-rule:evenodd;"
d="M 153.0816,144.8145
153.1014,144.9140
153.1578,144.9984
153.2421,145.0547
153.3416,145.0745
155.4716,145.0745
155.5711,145.0547
155.6555,144.9984
155.7118,144.9140
155.7316,144.8145
155.7316,142.7345
155.7118,142.6350
155.6555,142.5507
155.5711,142.4943
155.4716,142.4745
153.3416,142.4745
153.2421,142.4943
153.1578,142.5507
153.1014,142.6350
153.0816,142.7345
Z" /> 
</g>
<g >
</g>
<g style="fill:#000000; fill-opacity:1.0000; 
stroke:#000000; stroke-width:0.0000; stroke-opacity:1; 
stroke-linecap:round; stroke-linejoin:round;">
<path style="fill:#000000; fill-opacity:1.0000; 
stroke:#000000; stroke-width:0.0000; stroke-opacity:1; 
stroke-linecap:round; stroke-linejoin:round;fill-rule:evenodd;"
d="M 89.4850,127.1585
89.5048,127.2580
89.5612,127.3423
89.6455,127.3987
89.7450,127.4185
91.8750,127.4185
91.9745,127.3987
92.0589,127.3423
92.1152,127.2580
92.1350,127.1585
92.1350,125.0785
92.1152,124.9790
92.0589,124.8946
91.9745,124.8383
91.8750,124.8185
89.7450,124.8185
89.6455,124.8383
89.5612,124.8946
89.5048,124.9790
89.4850,125.0785
Z" /> 
<path style="fill:#000000; fill-opacity:1.0000; 
stroke:#000000; stroke-width:0.0000; stroke-opacity:1; 
stroke-linecap:round; stroke-linejoin:round;fill-rule:evenodd;"
d="M 77.9950,129.3585
78.0148,129.4580
78.0712,129.5423
78.1555,129.5987
78.2550,129.6185
80.3850,129.6185
80.4845,129.5987
80.5689,129.5423
80.6252,129.4580
80.6450,129.3585
80.6450,127.2785
80.6252,127.1790
80.5689,127.0946
80.4845,127.0383
80.3850,127.0185
78.2550,127.0185
78.1555,127.0383
78.0712,127.0946
78.0148,127.1790
77.9950,127.2785
Z" /> 
</g>
<g >
</g>
<g style="fill:#000000; fill-opacity:1.0000; 
stroke:#000000; stroke-width:0.0000; stroke-opacity:1; 
stroke-linecap:round; stroke-linejoin:round;">
<path style="fill:#000000; fill-opacity:1.0000; 
stroke:#000000; stroke-width:0.0000; stroke-opacity:1; 
stroke-linecap:round; stroke-linejoin:round;fill-rule:evenodd;"
d="M 72.3604,58.5391
72.3537,58.6404
72.3864,58.7364
72.4532,58.8127
72.5442,58.8576
74.6017,59.4089
74.7029,59.4155
74.7989,59.3829
74.8752,59.3160
74.9201,59.2250
75.4584,57.2159
75.4651,57.1147
75.4325,57.0186
75.3656,56.9423
75.2746,56.8975
73.2172,56.3462
73.1159,56.3395
73.0199,56.3721
72.9436,56.4390
72.8987,56.5300
Z" /> 
<path style="fill:#000000; fill-opacity:1.0000; 
stroke:#000000; stroke-width:0.0000; stroke-opacity:1; 
stroke-linecap:round; stroke-linejoin:round;fill-rule:evenodd;"
d="M 60.6925,57.6903
60.6859,57.7916
60.7185,57.8876
60.7854,57.9639
60.8763,58.0088
62.9338,58.5601
63.0350,58.5667
63.1311,58.5341
63.2073,58.4672
63.2522,58.3762
63.7905,56.3671
63.7972,56.2659
63.7646,56.1698
63.6977,56.0935
63.6067,56.0487
61.5493,55.4974
61.4480,55.4907
61.3520,55.5233
61.2757,55.5902
61.2308,55.6812
Z" /> 
</g>
<g >
</g>
<g style="fill:#000000; fill-opacity:1.0000; 
stroke:#000000; stroke-width:0.0000; stroke-opacity:1; 
stroke-linecap:round; stroke-linejoin:round;">
<path style="fill:#000000; fill-opacity:1.0000; 
stroke:#000000; stroke-width:0.0000; stroke-opacity:1; 
stroke-linecap:round; stroke-linejoin:round;fill-rule:evenodd;"
d="M 53.6996,58.6353
53.6930,58.7365
53.7256,58.8326
53.7925,58.9089
53.8835,58.9537
55.9409,59.5050
56.0421,59.5116
56.1382,59.4790
56.2145,59.4121
56.2593,59.3212
56.7977,57.3120
56.8043,57.2108
56.7717,57.1147
56.7048,57.0385
56.6138,56.9936
54.5564,56.4423
54.4552,56.4357
54.3591,56.4683
54.2828,56.5352
54.2380,56.6262
Z" /> 
<path style="fill:#000000; fill-opacity:1.0000; 
stroke:#000000; stroke-width:0.0000; stroke-opacity:1; 
stroke-linecap:round; stroke-linejoin:round;fill-rule:evenodd;"
d="M 42.0317,57.7865
42.0251,57.8877
42.0577,57.9838
42.1246,58.0601
42.2156,58.1049
44.2730,58.6562
44.3742,58.6628
44.4703,58.6302
44.5466,58.5634
44.5914,58.4724
45.1298,56.4632
45.1364,56.3620
45.1038,56.2659
45.0369,56.1897
44.9459,56.1448
42.8885,55.5935
42.7873,55.5869
42.6912,55.6195
42.6149,55.6864
42.5701,55.7774
Z" /> 
</g>
<g >
</g>
<g style="fill:#000000; fill-opacity:1.0000; 
stroke:#000000; stroke-width:0.0000; stroke-opacity:1; 
stroke-linecap:round; stroke-linejoin:round;">
<path style="fill:#000000; fill-opacity:1.0000; 
stroke:#000000; stroke-width:0.0000; stroke-opacity:1; 
stroke-linecap:round; stroke-linejoin:round;fill-rule:evenodd;"
d="M 219.6745,54.9502
219.7193,55.0411
219.7956,55.1080
219.8917,55.1406
219.9929,55.1340
222.0503,54.5827
222.1413,54.5379
222.2082,54.4616
222.2408,54.3655
222.2342,54.2643
221.6958,52.2552
221.6510,52.1642
221.5747,52.0973
221.4786,52.0647
221.3774,52.0713
219.3200,52.6226
219.2290,52.6675
219.1621,52.7437
219.1295,52.8398
219.1361,52.9410
Z" /> 
<path style="fill:#000000; fill-opacity:1.0000; 
stroke:#000000; stroke-width:0.0000; stroke-opacity:1; 
stroke-linecap:round; stroke-linejoin:round;fill-rule:evenodd;"
d="M 209.1454,60.0490
209.1903,60.1400
209.2665,60.2069
209.3626,60.2395
209.4638,60.2329
211.5212,59.6816
211.6122,59.6367
211.6791,59.5604
211.7117,59.4644
211.7051,59.3632
211.1667,57.3540
211.1219,57.2630
211.0456,57.1962
210.9495,57.1635
210.8483,57.1702
208.7909,57.7215
208.6999,57.7663
208.6330,57.8426
208.6004,57.9387
208.6070,58.0399
Z" /> 
</g>
<g >
</g>
<g style="fill:#000000; fill-opacity:1.0000; 
stroke:#000000; stroke-width:0.0000; stroke-opacity:1; 
stroke-linecap:round; stroke-linejoin:round;">
<path style="fill:#000000; fill-opacity:1.0000; 
stroke:#000000; stroke-width:0.0000; stroke-opacity:1; 
stroke-linecap:round; stroke-linejoin:round;fill-rule:evenodd;"
d="M 221.6576,127.1590
221.6774,127.2585
221.7338,127.3428
221.8181,127.3992
221.9176,127.4190
224.0476,127.4190
224.1471,127.3992
224.2315,127.3428
224.2878,127.2585
224.3076,127.1590
224.3076,125.0790
224.2878,124.9795
224.2315,124.8951
224.1471,124.8388
224.0476,124.8190
221.9176,124.8190
221.8181,124.8388
221.7338,124.8951
221.6774,124.9795
221.6576,125.0790
Z" /> 
<path style="fill:#000000; fill-opacity:1.0000; 
stroke:#000000; stroke-width:0.0000; stroke-opacity:1; 
stroke-linecap:round; stroke-linejoin:round;fill-rule:evenodd;"
d="M 210.1676,129.3590
210.1874,129.4585
210.2438,129.5428
210.3281,129.5992
210.4276,129.6190
212.5576,129.6190
212.6571,129.5992
212.7415,129.5428
212.7978,129.4585
212.8176,129.3590
212.8176,127.2790
212.7978,127.1795
212.7415,127.0951
212.6571,127.0388
212.5576,127.0190
210.4276,127.0190
210.3281,127.0388
210.2438,127.0951
210.1874,127.1795
210.1676,127.2790
Z" /> 
</g>
<g >
</g>
<g style="fill:#000000; fill-opacity:1.0000; 
stroke:#000000; stroke-width:0.0000; stroke-opacity:1; 
stroke-linecap:round; stroke-linejoin:round;">
<path style="fill:#000000; fill-opacity:1.0000; 
stroke:#000000; stroke-width:0.0000; stroke-opacity:1; 
stroke-linecap:round; stroke-linejoin:round;fill-rule:evenodd;"
d="M 256.9830,55.0943
257.0279,55.1853
257.1041,55.2522
257.2002,55.2848
257.3014,55.2782
259.3589,54.7269
259.4498,54.6820
259.5167,54.6057
259.5493,54.5097
259.5427,54.4085
259.0044,52.3993
258.9595,52.3083
258.8832,52.2415
258.7872,52.2088
258.6859,52.2155
256.6285,52.7668
256.5375,52.8116
256.4706,52.8879
256.4380,52.9840
256.4447,53.0852
Z" /> 
<path style="fill:#000000; fill-opacity:1.0000; 
stroke:#000000; stroke-width:0.0000; stroke-opacity:1; 
stroke-linecap:round; stroke-linejoin:round;fill-rule:evenodd;"
d="M 246.4539,60.1932
246.4988,60.2842
246.5751,60.3511
246.6711,60.3837
246.7724,60.3770
248.8298,59.8258
248.9208,59.7809
248.9877,59.7046
249.0203,59.6086
249.0136,59.5073
248.4753,57.4982
248.4304,57.4072
248.3541,57.3403
248.2581,57.3077
248.1568,57.3143
246.0994,57.8656
246.0084,57.9105
245.9416,57.9868
245.9089,58.0828
245.9156,58.1841
Z" /> 
</g>
<g >
</g>
<g style="fill:#000000; fill-opacity:1.0000; 
stroke:#000000; stroke-width:0.0000; stroke-opacity:1; 
stroke-linecap:round; stroke-linejoin:round;">
<path style="fill:#000000; fill-opacity:1.0000; 
stroke:#000000; stroke-width:0.0000; stroke-opacity:1; 
stroke-linecap:round; stroke-linejoin:round;fill-rule:evenodd;"
d="M 109.6579,58.4361
109.6513,58.5373
109.6839,58.6334
109.7508,58.7096
109.8417,58.7545
111.8992,59.3058
112.0004,59.3124
112.0965,59.2798
112.1727,59.2129
112.2176,59.1219
112.7559,57.1128
112.7626,57.0116
112.7300,56.9155
112.6631,56.8393
112.5721,56.7944
110.5147,56.2431
110.4134,56.2365
110.3174,56.2691
110.2411,56.3360
110.1962,56.4269
Z" /> 
<path style="fill:#000000; fill-opacity:1.0000; 
stroke:#000000; stroke-width:0.0000; stroke-opacity:1; 
stroke-linecap:round; stroke-linejoin:round;fill-rule:evenodd;"
d="M 97.9900,57.5873
97.9834,57.6885
98.0160,57.7846
98.0829,57.8608
98.1738,57.9057
100.2313,58.4570
100.3325,58.4636
100.4286,58.4310
100.5048,58.3641
100.5497,58.2732
101.0880,56.2640
101.0947,56.1628
101.0621,56.0667
100.9952,55.9905
100.9042,55.9456
98.8468,55.3943
98.7455,55.3877
98.6495,55.4203
98.5732,55.4872
98.5283,55.5782
Z" /> 
</g>
<g >
</g>
<g style="fill:#000000; fill-opacity:1.0000; 
stroke:#000000; stroke-width:0.0000; stroke-opacity:1; 
stroke-linecap:round; stroke-linejoin:round;">
<path style="fill:#000000; fill-opacity:1.0000; 
stroke:#000000; stroke-width:0.0000; stroke-opacity:1; 
stroke-linecap:round; stroke-linejoin:round;fill-rule:evenodd;"
d="M 142.2801,75.7816
142.2735,75.8829
142.3061,75.9789
142.3730,76.0552
142.4640,76.1001
144.5214,76.6514
144.6226,76.6580
144.7187,76.6254
144.7949,76.5585
144.8398,76.4675
145.3782,74.4584
145.3848,74.3572
145.3522,74.2611
145.2853,74.1848
145.1943,74.1400
143.1369,73.5887
143.0357,73.5820
142.9396,73.6146
142.8633,73.6815
142.8185,73.7725
Z" /> 
<path style="fill:#000000; fill-opacity:1.0000; 
stroke:#000000; stroke-width:0.0000; stroke-opacity:1; 
stroke-linecap:round; stroke-linejoin:round;fill-rule:evenodd;"
d="M 130.6122,74.9329
130.6056,75.0341
130.6382,75.1301
130.7051,75.2064
130.7961,75.2513
132.8535,75.8026
132.9547,75.8092
133.0508,75.7766
133.1271,75.7097
133.1719,75.6187
133.7103,73.6096
133.7169,73.5084
133.6843,73.4123
133.6174,73.3360
133.5264,73.2912
131.4690,72.7399
131.3678,72.7332
131.2717,72.7659
131.1954,72.8327
131.1506,72.9237
Z" /> 
</g>
<g >
</g>
<g style="fill:#000000; fill-opacity:1.0000; 
stroke:#000000; stroke-width:0.0000; stroke-opacity:1; 
stroke-linecap:round; stroke-linejoin:round;">
<path style="fill:#000000; fill-opacity:1.0000; 
stroke:#000000; stroke-width:0.0000; stroke-opacity:1; 
stroke-linecap:round; stroke-linejoin:round;fill-rule:evenodd;"
d="M 184.7026,63.5268
184.7475,63.6178
184.8238,63.6847
184.9198,63.7173
185.0211,63.7107
187.0785,63.1594
187.1695,63.1145
187.2364,63.0383
187.2690,62.9422
187.2623,62.8410
186.7240,60.8318
186.6791,60.7409
186.6029,60.6740
186.5068,60.6414
186.4056,60.6480
184.3481,61.1993
184.2572,61.2441
184.1903,61.3204
184.1577,61.4165
184.1643,61.5177
Z" /> 
<path style="fill:#000000; fill-opacity:1.0000; 
stroke:#000000; stroke-width:0.0000; stroke-opacity:1; 
stroke-linecap:round; stroke-linejoin:round;fill-rule:evenodd;"
d="M 174.1736,68.6257
174.2184,68.7167
174.2947,68.7836
174.3908,68.8162
174.4920,68.8096
176.5494,68.2583
176.6404,68.2134
176.7073,68.1371
176.7399,68.0411
176.7333,67.9398
176.1949,65.9307
176.1500,65.8397
176.0738,65.7728
175.9777,65.7402
175.8765,65.7469
173.8191,66.2981
173.7281,66.3430
173.6612,66.4193
173.6286,66.5153
173.6352,66.6166
Z" /> 
</g>
<g >
</g>
<g style="fill:#000000; fill-opacity:1.0000; 
stroke:#000000; stroke-width:0.0000; stroke-opacity:1; 
stroke-linecap:round; stroke-linejoin:round;">
<path style="fill:#000000; fill-opacity:1.0000; 
stroke:#000000; stroke-width:0.0000; stroke-opacity:1; 
stroke-linecap:round; stroke-linejoin:round;fill-rule:evenodd;"
d="M 238.3112,54.9566
238.3561,55.0476
238.4323,55.1145
238.5284,55.1471
238.6296,55.1405
240.6871,54.5892
240.7780,54.5443
240.8449,54.4681
240.8775,54.3720
240.8709,54.2708
240.3326,52.2617
240.2877,52.1707
240.2114,52.1038
240.1154,52.0712
240.0141,52.0778
237.9567,52.6291
237.8657,52.6740
237.7988,52.7502
237.7662,52.8463
237.7729,52.9475
Z" /> 
<path style="fill:#000000; fill-opacity:1.0000; 
stroke:#000000; stroke-width:0.0000; stroke-opacity:1; 
stroke-linecap:round; stroke-linejoin:round;fill-rule:evenodd;"
d="M 227.7821,60.0555
227.8270,60.1465
227.9032,60.2134
227.9993,60.2460
228.1005,60.2394
230.1580,59.6881
230.2489,59.6432
230.3158,59.5669
230.3484,59.4709
230.3418,59.3696
229.8035,57.3605
229.7586,57.2695
229.6823,57.2026
229.5863,57.1700
229.4850,57.1767
227.4276,57.7280
227.3366,57.7728
227.2697,57.8491
227.2371,57.9452
227.2438,58.0464
Z" /> 
</g>
<g >
</g>
<g style="fill:#000000; fill-opacity:1.0000; 
stroke:#000000; stroke-width:0.0000; stroke-opacity:1; 
stroke-linecap:round; stroke-linejoin:round;">
<path style="fill:#000000; fill-opacity:1.0000; 
stroke:#000000; stroke-width:0.0000; stroke-opacity:1; 
stroke-linecap:round; stroke-linejoin:round;fill-rule:evenodd;"
d="M 201.0137,54.8540
201.0586,54.9450
201.1349,55.0119
201.2309,55.0445
201.3321,55.0379
203.3896,54.4866
203.4806,54.4417
203.5474,54.3654
203.5800,54.2694
203.5734,54.1681
203.0351,52.1590
202.9902,52.0680
202.9139,52.0011
202.8179,51.9685
202.7166,51.9752
200.6592,52.5265
200.5682,52.5713
200.5013,52.6476
200.4687,52.7437
200.4754,52.8449
Z" /> 
<path style="fill:#000000; fill-opacity:1.0000; 
stroke:#000000; stroke-width:0.0000; stroke-opacity:1; 
stroke-linecap:round; stroke-linejoin:round;fill-rule:evenodd;"
d="M 190.4846,59.9529
190.5295,60.0439
190.6058,60.1108
190.7018,60.1434
190.8031,60.1367
192.8605,59.5854
192.9515,59.5406
193.0184,59.4643
193.0510,59.3682
193.0443,59.2670
192.5060,57.2579
192.4611,57.1669
192.3848,57.1000
192.2888,57.0674
192.1876,57.0740
190.1301,57.6253
190.0391,57.6702
189.9723,57.7465
189.9396,57.8425
189.9463,57.9438
Z" /> 
</g>
<g >
</g>
<g style="fill:#000000; fill-opacity:1.0000; 
stroke:#000000; stroke-width:0.0000; stroke-opacity:1; 
stroke-linecap:round; stroke-linejoin:round;">
<path style="fill:#000000; fill-opacity:1.0000; 
stroke:#000000; stroke-width:0.0000; stroke-opacity:1; 
stroke-linecap:round; stroke-linejoin:round;fill-rule:evenodd;"
d="M 90.9972,58.5322
90.9906,58.6335
91.0232,58.7295
91.0901,58.8058
91.1811,58.8507
93.2385,59.4020
93.3397,59.4086
93.4358,59.3760
93.5121,59.3091
93.5569,59.2181
94.0953,57.2090
94.1019,57.1077
94.0693,57.0117
94.0024,56.9354
93.9114,56.8905
91.8540,56.3393
91.7528,56.3326
91.6567,56.3652
91.5804,56.4321
91.5356,56.5231
Z" /> 
<path style="fill:#000000; fill-opacity:1.0000; 
stroke:#000000; stroke-width:0.0000; stroke-opacity:1; 
stroke-linecap:round; stroke-linejoin:round;fill-rule:evenodd;"
d="M 79.3293,57.6834
79.3227,57.7847
79.3553,57.8807
79.4222,57.9570
79.5132,58.0019
81.5706,58.5532
81.6718,58.5598
81.7679,58.5272
81.8442,58.4603
81.8890,58.3693
82.4274,56.3602
82.4340,56.2590
82.4014,56.1629
82.3345,56.0866
82.2435,56.0418
80.1861,55.4905
80.0849,55.4838
79.9888,55.5164
79.9126,55.5833
79.8677,55.6743
Z" /> 
</g>
<g >
</g>
<g style="fill:#000000; fill-opacity:1.0000; 
stroke:#000000; stroke-width:0.0000; stroke-opacity:1; 
stroke-linecap:round; stroke-linejoin:round;">
<path style="fill:#000000; fill-opacity:1.0000; 
stroke:#000000; stroke-width:0.0000; stroke-opacity:1; 
stroke-linecap:round; stroke-linejoin:round;fill-rule:evenodd;"
d="M 125.9691,67.1089
125.9624,67.2101
125.9950,67.3062
126.0619,67.3825
126.1529,67.4273
128.2103,67.9786
128.3116,67.9853
128.4076,67.9527
128.4839,67.8858
128.5288,67.7948
129.0671,65.7857
129.0737,65.6844
129.0411,65.5884
128.9742,65.5121
128.8833,65.4672
126.8258,64.9159
126.7246,64.9093
126.6285,64.9419
126.5523,65.0088
126.5074,65.0998
Z" /> 
<path style="fill:#000000; fill-opacity:1.0000; 
stroke:#000000; stroke-width:0.0000; stroke-opacity:1; 
stroke-linecap:round; stroke-linejoin:round;fill-rule:evenodd;"
d="M 114.3012,66.2601
114.2945,66.3613
114.3271,66.4574
114.3940,66.5337
114.4850,66.5786
116.5424,67.1298
116.6437,67.1365
116.7397,67.1039
116.8160,67.0370
116.8609,66.9460
117.3992,64.9369
117.4058,64.8356
117.3732,64.7396
117.3063,64.6633
117.2154,64.6184
115.1579,64.0671
115.0567,64.0605
114.9607,64.0931
114.8844,64.1600
114.8395,64.2510
Z" /> 
</g>
<g >
</g>
<g style="fill:#000000; fill-opacity:1.0000; 
stroke:#000000; stroke-width:0.0000; stroke-opacity:1; 
stroke-linecap:round; stroke-linejoin:round;">
<path style="fill:#000000; fill-opacity:1.0000; 
stroke:#000000; stroke-width:0.0000; stroke-opacity:1; 
stroke-linecap:round; stroke-linejoin:round;fill-rule:evenodd;"
d="M 146.5716,142.6145
146.5914,142.7140
146.6478,142.7984
146.7321,142.8547
146.8316,142.8745
148.9616,142.8745
149.0611,142.8547
149.1455,142.7984
149.2018,142.7140
149.2216,142.6145
149.2216,140.5345
149.2018,140.4350
149.1455,140.3507
149.0611,140.2943
148.9616,140.2745
146.8316,140.2745
146.7321,140.2943
146.6478,140.3507
146.5914,140.4350
146.5716,140.5345
Z" /> 
<path style="fill:#000000; fill-opacity:1.0000; 
stroke:#000000; stroke-width:0.0000; stroke-opacity:1; 
stroke-linecap:round; stroke-linejoin:round;fill-rule:evenodd;"
d="M 135.0816,144.8145
135.1014,144.9140
135.1578,144.9984
135.2421,145.0547
135.3416,145.0745
137.4716,145.0745
137.5711,145.0547
137.6555,144.9984
137.7118,144.9140
137.7316,144.8145
137.7316,142.7345
137.7118,142.6350
137.6555,142.5507
137.5711,142.4943
137.4716,142.4745
135.3416,142.4745
135.2421,142.4943
135.1578,142.5507
135.1014,142.6350
135.0816,142.7345
Z" /> 
</g>
<g >
</g>
<g style="fill:#000000; fill-opacity:1.0000; 
stroke:#000000; stroke-width:0.0000; stroke-opacity:1; 
stroke-linecap:round; stroke-linejoin:round;">
<path style="fill:#000000; fill-opacity:1.0000; 
stroke:#000000; stroke-width:0.0000; stroke-opacity:1; 
stroke-linecap:round; stroke-linejoin:round;fill-rule:evenodd;"
d="M 168.3915,72.1996
168.4364,72.2906
168.5126,72.3574
168.6087,72.3901
168.7099,72.3834
170.7673,71.8321
170.8583,71.7873
170.9252,71.7110
170.9578,71.6149
170.9512,71.5137
170.4128,69.5046
170.3680,69.4136
170.2917,69.3467
170.1956,69.3141
170.0944,69.3207
168.0370,69.8720
167.9460,69.9169
167.8791,69.9932
167.8465,70.0892
167.8531,70.1904
Z" /> 
<path style="fill:#000000; fill-opacity:1.0000; 
stroke:#000000; stroke-width:0.0000; stroke-opacity:1; 
stroke-linecap:round; stroke-linejoin:round;fill-rule:evenodd;"
d="M 157.8624,77.2984
157.9073,77.3894
157.9835,77.4563
158.0796,77.4889
158.1808,77.4823
160.2383,76.9310
160.3292,76.8861
160.3961,76.8099
160.4287,76.7138
160.4221,76.6126
159.8838,74.6034
159.8389,74.5125
159.7626,74.4456
159.6666,74.4130
159.5653,74.4196
157.5079,74.9709
157.4169,75.0157
157.3500,75.0920
157.3174,75.1881
157.3241,75.2893
Z" /> 
</g>
<g >
</g>
<g style="fill:#000000; fill-opacity:1.0000; 
stroke:#000000; stroke-width:0.0000; stroke-opacity:1; 
stroke-linecap:round; stroke-linejoin:round;">
<path style="fill:#000000; fill-opacity:1.0000; 
stroke:#000000; stroke-width:0.0000; stroke-opacity:1; 
stroke-linecap:round; stroke-linejoin:round;fill-rule:evenodd;"
d="M 141.6536,124.7165
141.6346,124.6209
141.5804,124.5398
141.4993,124.4856
141.4036,124.4665
140.9036,124.4665
140.8080,124.4856
140.7269,124.5398
140.6727,124.6209
140.6536,124.7165
140.6536,127.7165
140.6727,127.8122
140.7269,127.8933
140.8080,127.9475
140.9036,127.9665
141.4036,127.9665
141.4993,127.9475
141.5804,127.8933
141.6346,127.8122
141.6536,127.7165
Z" /> 
<path style="fill:#000000; fill-opacity:1.0000; 
stroke:#000000; stroke-width:0.0000; stroke-opacity:1; 
stroke-linecap:round; stroke-linejoin:round;fill-rule:evenodd;"
d="M 139.6536,124.7165
139.6346,124.6209
139.5804,124.5398
139.4993,124.4856
139.4036,124.4665
138.9036,124.4665
138.8080,124.4856
138.7269,124.5398
138.6727,124.6209
138.6536,124.7165
138.6536,127.7165
138.6727,127.8122
138.7269,127.8933
138.8080,127.9475
138.9036,127.9665
139.4036,127.9665
139.4993,127.9475
139.5804,127.8933
139.6346,127.8122
139.6536,127.7165
Z" /> 
<path style="fill:#000000; fill-opacity:1.0000; 
stroke:#000000; stroke-width:0.0000; stroke-opacity:1; 
stroke-linecap:round; stroke-linejoin:round;fill-rule:evenodd;"
d="M 144.2536,119.0165
144.2346,118.9209
144.1804,118.8398
144.0993,118.7856
144.0036,118.7665
143.0037,118.7665
142.9080,118.7856
142.8269,118.8398
142.7727,118.9209
142.7537,119.0165
142.7536,121.9165
142.7727,122.0122
142.8269,122.0933
142.9080,122.1475
143.0037,122.1665
144.0036,122.1665
144.0993,122.1475
144.1804,122.0933
144.2346,122.0122
144.2536,121.9165
Z" /> 
<path style="fill:#000000; fill-opacity:1.0000; 
stroke:#000000; stroke-width:0.0000; stroke-opacity:1; 
stroke-linecap:round; stroke-linejoin:round;fill-rule:evenodd;"
d="M 137.5537,119.0165
137.5346,118.9209
137.4804,118.8398
137.3993,118.7856
137.3036,118.7665
136.3037,118.7665
136.2080,118.7856
136.1269,118.8398
136.0727,118.9209
136.0537,119.0165
136.0537,121.9165
136.0727,122.0122
136.1269,122.0933
136.2080,122.1475
136.3037,122.1665
137.3036,122.1665
137.3993,122.1475
137.4804,122.0933
137.5346,122.0122
137.5536,121.9165
Z" /> 
</g>
<g >
</g>
<g >
</g>
<g >
</g>
</g> 
</svg>
