M48
INCH,TZ
T1C0.1181
%
G90
G05
T1
X11395Y-40885
X13072Y-42232
X13127Y-34421
X14804Y-35767
X14859Y-27956
X16537Y-29302
X16592Y-21491
X18269Y-22837
X18746Y-40831
X20423Y-42177
X20478Y-34366
X22156Y-35712
X22211Y-27901
X23888Y-29248
X23943Y-21437
X25620Y-22783
X26083Y-40829
X27761Y-42175
X27816Y-34364
X29493Y-35710
X29548Y-27899
X30419Y-49653
X31225Y-29245
X31280Y-21434
X32388Y-50519
X32957Y-22780
X33430Y-40791
X35107Y-42137
X35162Y-34326
X36840Y-35672
X36895Y-27861
X37506Y-51811
X38572Y-29207
X38627Y-21396
X39474Y-52678
X39852Y-44205
X40304Y-22742
X41529Y-45551
X41584Y-37740
X43261Y-39087
X43316Y-31276
X44541Y-54085
X44994Y-32622
X45049Y-24811
X46218Y-55431
X46273Y-47620
X46726Y-26157
X47951Y-48966
X48006Y-41155
X49683Y-42501
X49738Y-34690
X51415Y-36036
X51470Y-28225
X52894Y-55738
X53148Y-29571
X54862Y-56604
X59981Y-55738
X61538Y-29244
X61949Y-56604
X63271Y-35709
X63664Y-29571
X65003Y-42174
X65396Y-36036
X66735Y-48639
X67128Y-42501
X67960Y-25830
X68467Y-55103
X68861Y-48966
X69692Y-32295
X70086Y-26157
X70593Y-55431
X71425Y-38759
X71818Y-32622
X73157Y-45224
X73550Y-39087
X74382Y-22415
X75282Y-45551
X75369Y-51811
X76114Y-28880
X76507Y-22742
X77337Y-52677
X77846Y-35345
X78240Y-29207
X79579Y-41810
X79972Y-35672
X81704Y-42137
X81728Y-22453
X82456Y-49653
X83461Y-28918
X83854Y-22780
X84424Y-50519
X85193Y-35383
X85586Y-29245
X86925Y-41848
X87319Y-35710
X89051Y-42175
X89066Y-22456
X90798Y-28921
X91191Y-22783
X92530Y-35385
X92924Y-29248
X94263Y-41850
X94656Y-35713
X96388Y-42177
X96413Y-22494
X98145Y-28958
X98538Y-22821
X99877Y-35423
X100270Y-29286
X101609Y-41888
X102003Y-35750
X103735Y-42215
T0
M30
