M48
INCH,TZ
T1C0.0157
T2C0.1181
%
G90
G05
T1
X22700Y-41550
X23730Y-38620
X25460Y-43380
X30790Y-42990
X30870Y-38650
X37330Y-43350
X38550Y-47450
X39160Y-40870
X43330Y-47330
X45780Y-44340
X45850Y-50850
X51055Y-44142
X52067Y-46110
X52400Y-50650
X52580Y-39420
X52610Y-37950
X53087Y-41913
X54134Y-43272
X54531Y-49925
X54634Y-40697
X54921Y-42350
X55795Y-44260
X56319Y-42236
X56500Y-46450
X56512Y-39642
X57055Y-43705
X57213Y-48122
X57264Y-45130
X58400Y-44200
X58400Y-44800
X58400Y-45400
X58400Y-46000
X58400Y-46600
X58480Y-25000
X58480Y-26200
X58480Y-26800
X58480Y-27400
X59720Y-23250
X59850Y-50950
X59850Y-51550
X59930Y-24320
X60300Y-23950
X60380Y-22480
X60470Y-42490
X60960Y-26860
X61090Y-44620
X61515Y-22915
X61780Y-23280
X61920Y-27060
X61990Y-45560
X62120Y-15430
X62386Y-22886
X62480Y-44340
X62650Y-24140
X62680Y-51200
X62750Y-19450
X62800Y-22950
X62920Y-28770
X63050Y-16090
X63050Y-41650
X63080Y-44340
X63390Y-22177
X63730Y-22886
X63840Y-14050
X64160Y-23480
X64510Y-22110
X64880Y-44940
X64880Y-45540
X64880Y-46700
X64880Y-47300
X65160Y-21940
X65170Y-15670
X65350Y-17060
X65530Y-21590
X65750Y-21200
X65920Y-23940
X65930Y-18000
X66050Y-15950
X66280Y-16840
X66410Y-45480
X66410Y-46080
X66950Y-18430
X67580Y-20490
X68030Y-15480
X68130Y-17550
X68290Y-16650
X68990Y-20660
X69620Y-20030
X69980Y-19280
T2
X11395Y-40885
X13072Y-42232
X13127Y-34421
X14804Y-35767
X14859Y-27956
X16537Y-29302
X16592Y-21491
X18269Y-22837
X18746Y-40831
X20423Y-42177
X20478Y-34366
X22156Y-35712
X22211Y-27901
X23888Y-29248
X23943Y-21437
X25620Y-22783
X26083Y-40829
X27761Y-42175
X27816Y-34364
X29493Y-35710
X29548Y-27899
X30419Y-49653
X31225Y-29245
X31280Y-21434
X32388Y-50519
X32957Y-22780
X33430Y-40791
X35107Y-42137
X35162Y-34326
X36840Y-35672
X36895Y-27861
X37506Y-51811
X38572Y-29207
X38627Y-21396
X39474Y-52678
X39852Y-44205
X40304Y-22742
X41529Y-45551
X41584Y-37740
X43261Y-39087
X43316Y-31276
X44541Y-54085
X44994Y-32622
X45049Y-24811
X46218Y-55431
X46273Y-47620
X46726Y-26157
X47951Y-48966
X48006Y-41155
X49683Y-42501
X49738Y-34690
X51415Y-36036
X51470Y-28225
X52894Y-55738
X53148Y-29571
X54862Y-56604
X59981Y-55738
X61538Y-29244
X61949Y-56604
X63271Y-35709
X63664Y-29571
X65003Y-42174
X65396Y-36036
X66735Y-48639
X67128Y-42501
X67960Y-25830
X68467Y-55103
X68861Y-48966
X69692Y-32295
X70086Y-26157
X70593Y-55431
X71425Y-38759
X71818Y-32622
X73157Y-45224
X73550Y-39087
X74382Y-22415
X75282Y-45551
X75369Y-51811
X76114Y-28880
X76507Y-22742
X77337Y-52677
X77846Y-35345
X78240Y-29207
X79579Y-41810
X79972Y-35672
X81704Y-42137
X81728Y-22453
X82456Y-49653
X83461Y-28918
X83854Y-22780
X84424Y-50519
X85193Y-35383
X85586Y-29245
X86925Y-41848
X87319Y-35710
X89051Y-42175
X89066Y-22456
X90798Y-28921
X91191Y-22783
X92530Y-35385
X92924Y-29248
X94263Y-41850
X94656Y-35713
X96388Y-42177
X96413Y-22494
X98145Y-28958
X98538Y-22821
X99877Y-35423
X100270Y-29286
X101609Y-41888
X102003Y-35750
X103735Y-42215
M30
