G04 #@! TF.GenerationSoftware,KiCad,Pcbnew,7.0.9-7.0.9~ubuntu22.04.1*
G04 #@! TF.CreationDate,2023-12-21T13:29:15+01:00*
G04 #@! TF.ProjectId,ergo56,6572676f-3536-42e6-9b69-6361645f7063,0.1*
G04 #@! TF.SameCoordinates,Original*
G04 #@! TF.FileFunction,Soldermask,Top*
G04 #@! TF.FilePolarity,Negative*
%FSLAX46Y46*%
G04 Gerber Fmt 4.6, Leading zero omitted, Abs format (unit mm)*
G04 Created by KiCad (PCBNEW 7.0.9-7.0.9~ubuntu22.04.1) date 2023-12-21 13:29:15*
%MOMM*%
%LPD*%
G01*
G04 APERTURE LIST*
%ADD10C,1.500000*%
%ADD11C,3.500000*%
%ADD12R,0.740000X2.400000*%
%ADD13C,1.700000*%
%ADD14C,3.400000*%
G04 APERTURE END LIST*
G36*
G01*
X170190735Y-114898718D02*
X169996621Y-114174274D01*
G75*
G02*
X170155720Y-113898707I217333J58234D01*
G01*
X170590386Y-113782239D01*
G75*
G02*
X170865953Y-113941338I58234J-217333D01*
G01*
X171060067Y-114665782D01*
G75*
G02*
X170900968Y-114941349I-217333J-58234D01*
G01*
X170466302Y-115057817D01*
G75*
G02*
X170190735Y-114898718I-58234J217333D01*
G01*
G37*
G36*
G01*
X173378291Y-114044616D02*
X173184177Y-113320172D01*
G75*
G02*
X173343276Y-113044605I217333J58234D01*
G01*
X173777942Y-112928137D01*
G75*
G02*
X174053509Y-113087236I58234J-217333D01*
G01*
X174247623Y-113811680D01*
G75*
G02*
X174088524Y-114087247I-217333J-58234D01*
G01*
X173653858Y-114203715D01*
G75*
G02*
X173378291Y-114044616I-58234J217333D01*
G01*
G37*
G36*
G01*
X202812947Y-97553178D02*
X202618833Y-96828734D01*
G75*
G02*
X202777932Y-96553167I217333J58234D01*
G01*
X203212598Y-96436699D01*
G75*
G02*
X203488165Y-96595798I58234J-217333D01*
G01*
X203682279Y-97320242D01*
G75*
G02*
X203523180Y-97595809I-217333J-58234D01*
G01*
X203088514Y-97712277D01*
G75*
G02*
X202812947Y-97553178I-58234J217333D01*
G01*
G37*
G36*
G01*
X206000503Y-96699076D02*
X205806389Y-95974632D01*
G75*
G02*
X205965488Y-95699065I217333J58234D01*
G01*
X206400154Y-95582597D01*
G75*
G02*
X206675721Y-95741696I58234J-217333D01*
G01*
X206869835Y-96466140D01*
G75*
G02*
X206710736Y-96741707I-217333J-58234D01*
G01*
X206276070Y-96858175D01*
G75*
G02*
X206000503Y-96699076I-58234J217333D01*
G01*
G37*
G36*
G01*
X221473686Y-97649329D02*
X221279572Y-96924885D01*
G75*
G02*
X221438671Y-96649318I217333J58234D01*
G01*
X221873337Y-96532850D01*
G75*
G02*
X222148904Y-96691949I58234J-217333D01*
G01*
X222343018Y-97416393D01*
G75*
G02*
X222183919Y-97691960I-217333J-58234D01*
G01*
X221749253Y-97808428D01*
G75*
G02*
X221473686Y-97649329I-58234J217333D01*
G01*
G37*
G36*
G01*
X224661242Y-96795227D02*
X224467128Y-96070783D01*
G75*
G02*
X224626227Y-95795216I217333J58234D01*
G01*
X225060893Y-95678748D01*
G75*
G02*
X225336460Y-95837847I58234J-217333D01*
G01*
X225530574Y-96562291D01*
G75*
G02*
X225371475Y-96837858I-217333J-58234D01*
G01*
X224936809Y-96954326D01*
G75*
G02*
X224661242Y-96795227I-58234J217333D01*
G01*
G37*
G36*
G01*
X240110505Y-97656237D02*
X239916391Y-96931793D01*
G75*
G02*
X240075490Y-96656226I217333J58234D01*
G01*
X240510156Y-96539758D01*
G75*
G02*
X240785723Y-96698857I58234J-217333D01*
G01*
X240979837Y-97423301D01*
G75*
G02*
X240820738Y-97698868I-217333J-58234D01*
G01*
X240386072Y-97815336D01*
G75*
G02*
X240110505Y-97656237I-58234J217333D01*
G01*
G37*
G36*
G01*
X243298061Y-96802135D02*
X243103947Y-96077691D01*
G75*
G02*
X243263046Y-95802124I217333J58234D01*
G01*
X243697712Y-95685656D01*
G75*
G02*
X243973279Y-95844755I58234J-217333D01*
G01*
X244167393Y-96569199D01*
G75*
G02*
X244008294Y-96844766I-217333J-58234D01*
G01*
X243573628Y-96961234D01*
G75*
G02*
X243298061Y-96802135I-58234J217333D01*
G01*
G37*
G36*
G01*
X258771241Y-97752375D02*
X258577127Y-97027931D01*
G75*
G02*
X258736226Y-96752364I217333J58234D01*
G01*
X259170892Y-96635896D01*
G75*
G02*
X259446459Y-96794995I58234J-217333D01*
G01*
X259640573Y-97519439D01*
G75*
G02*
X259481474Y-97795006I-217333J-58234D01*
G01*
X259046808Y-97911474D01*
G75*
G02*
X258771241Y-97752375I-58234J217333D01*
G01*
G37*
G36*
G01*
X261958797Y-96898273D02*
X261764683Y-96173829D01*
G75*
G02*
X261923782Y-95898262I217333J58234D01*
G01*
X262358448Y-95781794D01*
G75*
G02*
X262634015Y-95940893I58234J-217333D01*
G01*
X262828129Y-96665337D01*
G75*
G02*
X262669030Y-96940904I-217333J-58234D01*
G01*
X262234364Y-97057372D01*
G75*
G02*
X261958797Y-96898273I-58234J217333D01*
G01*
G37*
G36*
G01*
X38241810Y-80353316D02*
X38435924Y-79628872D01*
G75*
G02*
X38711491Y-79469773I217333J-58234D01*
G01*
X39146157Y-79586241D01*
G75*
G02*
X39305256Y-79861808I-58234J-217333D01*
G01*
X39111142Y-80586252D01*
G75*
G02*
X38835575Y-80745351I-217333J58234D01*
G01*
X38400909Y-80628883D01*
G75*
G02*
X38241810Y-80353316I58234J217333D01*
G01*
G37*
G36*
G01*
X41429366Y-81207418D02*
X41623480Y-80482974D01*
G75*
G02*
X41899047Y-80323875I217333J-58234D01*
G01*
X42333713Y-80440343D01*
G75*
G02*
X42492812Y-80715910I-58234J-217333D01*
G01*
X42298698Y-81440354D01*
G75*
G02*
X42023131Y-81599453I-217333J58234D01*
G01*
X41588465Y-81482985D01*
G75*
G02*
X41429366Y-81207418I58234J217333D01*
G01*
G37*
G36*
G01*
X56913681Y-80215633D02*
X57107795Y-79491189D01*
G75*
G02*
X57383362Y-79332090I217333J-58234D01*
G01*
X57818028Y-79448558D01*
G75*
G02*
X57977127Y-79724125I-58234J-217333D01*
G01*
X57783013Y-80448569D01*
G75*
G02*
X57507446Y-80607668I-217333J58234D01*
G01*
X57072780Y-80491200D01*
G75*
G02*
X56913681Y-80215633I58234J217333D01*
G01*
G37*
G36*
G01*
X60101237Y-81069735D02*
X60295351Y-80345291D01*
G75*
G02*
X60570918Y-80186192I217333J-58234D01*
G01*
X61005584Y-80302660D01*
G75*
G02*
X61164683Y-80578227I-58234J-217333D01*
G01*
X60970569Y-81302671D01*
G75*
G02*
X60695002Y-81461770I-217333J58234D01*
G01*
X60260336Y-81345302D01*
G75*
G02*
X60101237Y-81069735I58234J217333D01*
G01*
G37*
G36*
G01*
X75550388Y-80209138D02*
X75744502Y-79484694D01*
G75*
G02*
X76020069Y-79325595I217333J-58234D01*
G01*
X76454735Y-79442063D01*
G75*
G02*
X76613834Y-79717630I-58234J-217333D01*
G01*
X76419720Y-80442074D01*
G75*
G02*
X76144153Y-80601173I-217333J58234D01*
G01*
X75709487Y-80484705D01*
G75*
G02*
X75550388Y-80209138I58234J217333D01*
G01*
G37*
G36*
G01*
X78737944Y-81063240D02*
X78932058Y-80338796D01*
G75*
G02*
X79207625Y-80179697I217333J-58234D01*
G01*
X79642291Y-80296165D01*
G75*
G02*
X79801390Y-80571732I-58234J-217333D01*
G01*
X79607276Y-81296176D01*
G75*
G02*
X79331709Y-81455275I-217333J58234D01*
G01*
X78897043Y-81338807D01*
G75*
G02*
X78737944Y-81063240I58234J217333D01*
G01*
G37*
G36*
G01*
X94211133Y-80112984D02*
X94405247Y-79388540D01*
G75*
G02*
X94680814Y-79229441I217333J-58234D01*
G01*
X95115480Y-79345909D01*
G75*
G02*
X95274579Y-79621476I-58234J-217333D01*
G01*
X95080465Y-80345920D01*
G75*
G02*
X94804898Y-80505019I-217333J58234D01*
G01*
X94370232Y-80388551D01*
G75*
G02*
X94211133Y-80112984I58234J217333D01*
G01*
G37*
G36*
G01*
X97398689Y-80967086D02*
X97592803Y-80242642D01*
G75*
G02*
X97868370Y-80083543I217333J-58234D01*
G01*
X98303036Y-80200011D01*
G75*
G02*
X98462135Y-80475578I-58234J-217333D01*
G01*
X98268021Y-81200022D01*
G75*
G02*
X97992454Y-81359121I-217333J58234D01*
G01*
X97557788Y-81242653D01*
G75*
G02*
X97398689Y-80967086I58234J217333D01*
G01*
G37*
G36*
G01*
X110522234Y-88785758D02*
X110716348Y-88061314D01*
G75*
G02*
X110991915Y-87902215I217333J-58234D01*
G01*
X111426581Y-88018683D01*
G75*
G02*
X111585680Y-88294250I-58234J-217333D01*
G01*
X111391566Y-89018694D01*
G75*
G02*
X111115999Y-89177793I-217333J58234D01*
G01*
X110681333Y-89061325D01*
G75*
G02*
X110522234Y-88785758I58234J217333D01*
G01*
G37*
G36*
G01*
X113709790Y-89639860D02*
X113903904Y-88915416D01*
G75*
G02*
X114179471Y-88756317I217333J-58234D01*
G01*
X114614137Y-88872785D01*
G75*
G02*
X114773236Y-89148352I-58234J-217333D01*
G01*
X114579122Y-89872796D01*
G75*
G02*
X114303555Y-90031895I-217333J58234D01*
G01*
X113868889Y-89915427D01*
G75*
G02*
X113709790Y-89639860I58234J217333D01*
G01*
G37*
G36*
G01*
X126833339Y-97458538D02*
X127027453Y-96734094D01*
G75*
G02*
X127303020Y-96574995I217333J-58234D01*
G01*
X127737686Y-96691463D01*
G75*
G02*
X127896785Y-96967030I-58234J-217333D01*
G01*
X127702671Y-97691474D01*
G75*
G02*
X127427104Y-97850573I-217333J58234D01*
G01*
X126992438Y-97734105D01*
G75*
G02*
X126833339Y-97458538I58234J217333D01*
G01*
G37*
G36*
G01*
X130020895Y-98312640D02*
X130215009Y-97588196D01*
G75*
G02*
X130490576Y-97429097I217333J-58234D01*
G01*
X130925242Y-97545565D01*
G75*
G02*
X131084341Y-97821132I-58234J-217333D01*
G01*
X130890227Y-98545576D01*
G75*
G02*
X130614660Y-98704675I-217333J58234D01*
G01*
X130179994Y-98588207D01*
G75*
G02*
X130020895Y-98312640I58234J217333D01*
G01*
G37*
G36*
G01*
X165790800Y-98477972D02*
X165596686Y-97753528D01*
G75*
G02*
X165755785Y-97477961I217333J58234D01*
G01*
X166190451Y-97361493D01*
G75*
G02*
X166466018Y-97520592I58234J-217333D01*
G01*
X166660132Y-98245036D01*
G75*
G02*
X166501033Y-98520603I-217333J-58234D01*
G01*
X166066367Y-98637071D01*
G75*
G02*
X165790800Y-98477972I-58234J217333D01*
G01*
G37*
G36*
G01*
X168978356Y-97623870D02*
X168784242Y-96899426D01*
G75*
G02*
X168943341Y-96623859I217333J58234D01*
G01*
X169378007Y-96507391D01*
G75*
G02*
X169653574Y-96666490I58234J-217333D01*
G01*
X169847688Y-97390934D01*
G75*
G02*
X169688589Y-97666501I-217333J-58234D01*
G01*
X169253923Y-97782969D01*
G75*
G02*
X168978356Y-97623870I-58234J217333D01*
G01*
G37*
G36*
G01*
X182101913Y-89805207D02*
X181907799Y-89080763D01*
G75*
G02*
X182066898Y-88805196I217333J58234D01*
G01*
X182501564Y-88688728D01*
G75*
G02*
X182777131Y-88847827I58234J-217333D01*
G01*
X182971245Y-89572271D01*
G75*
G02*
X182812146Y-89847838I-217333J-58234D01*
G01*
X182377480Y-89964306D01*
G75*
G02*
X182101913Y-89805207I-58234J217333D01*
G01*
G37*
G36*
G01*
X185289469Y-88951105D02*
X185095355Y-88226661D01*
G75*
G02*
X185254454Y-87951094I217333J58234D01*
G01*
X185689120Y-87834626D01*
G75*
G02*
X185964687Y-87993725I58234J-217333D01*
G01*
X186158801Y-88718169D01*
G75*
G02*
X185999702Y-88993736I-217333J-58234D01*
G01*
X185565036Y-89110204D01*
G75*
G02*
X185289469Y-88951105I-58234J217333D01*
G01*
G37*
G36*
G01*
X198413029Y-81132429D02*
X198218915Y-80407985D01*
G75*
G02*
X198378014Y-80132418I217333J58234D01*
G01*
X198812680Y-80015950D01*
G75*
G02*
X199088247Y-80175049I58234J-217333D01*
G01*
X199282361Y-80899493D01*
G75*
G02*
X199123262Y-81175060I-217333J-58234D01*
G01*
X198688596Y-81291528D01*
G75*
G02*
X198413029Y-81132429I-58234J217333D01*
G01*
G37*
G36*
G01*
X201600585Y-80278327D02*
X201406471Y-79553883D01*
G75*
G02*
X201565570Y-79278316I217333J58234D01*
G01*
X202000236Y-79161848D01*
G75*
G02*
X202275803Y-79320947I58234J-217333D01*
G01*
X202469917Y-80045391D01*
G75*
G02*
X202310818Y-80320958I-217333J-58234D01*
G01*
X201876152Y-80437426D01*
G75*
G02*
X201600585Y-80278327I-58234J217333D01*
G01*
G37*
G36*
G01*
X217073757Y-81228577D02*
X216879643Y-80504133D01*
G75*
G02*
X217038742Y-80228566I217333J58234D01*
G01*
X217473408Y-80112098D01*
G75*
G02*
X217748975Y-80271197I58234J-217333D01*
G01*
X217943089Y-80995641D01*
G75*
G02*
X217783990Y-81271208I-217333J-58234D01*
G01*
X217349324Y-81387676D01*
G75*
G02*
X217073757Y-81228577I-58234J217333D01*
G01*
G37*
G36*
G01*
X220261313Y-80374475D02*
X220067199Y-79650031D01*
G75*
G02*
X220226298Y-79374464I217333J58234D01*
G01*
X220660964Y-79257996D01*
G75*
G02*
X220936531Y-79417095I58234J-217333D01*
G01*
X221130645Y-80141539D01*
G75*
G02*
X220971546Y-80417106I-217333J-58234D01*
G01*
X220536880Y-80533574D01*
G75*
G02*
X220261313Y-80374475I-58234J217333D01*
G01*
G37*
G36*
G01*
X235710584Y-81235475D02*
X235516470Y-80511031D01*
G75*
G02*
X235675569Y-80235464I217333J58234D01*
G01*
X236110235Y-80118996D01*
G75*
G02*
X236385802Y-80278095I58234J-217333D01*
G01*
X236579916Y-81002539D01*
G75*
G02*
X236420817Y-81278106I-217333J-58234D01*
G01*
X235986151Y-81394574D01*
G75*
G02*
X235710584Y-81235475I-58234J217333D01*
G01*
G37*
G36*
G01*
X238898140Y-80381373D02*
X238704026Y-79656929D01*
G75*
G02*
X238863125Y-79381362I217333J58234D01*
G01*
X239297791Y-79264894D01*
G75*
G02*
X239573358Y-79423993I58234J-217333D01*
G01*
X239767472Y-80148437D01*
G75*
G02*
X239608373Y-80424004I-217333J-58234D01*
G01*
X239173707Y-80540472D01*
G75*
G02*
X238898140Y-80381373I-58234J217333D01*
G01*
G37*
G36*
G01*
X254371324Y-81331628D02*
X254177210Y-80607184D01*
G75*
G02*
X254336309Y-80331617I217333J58234D01*
G01*
X254770975Y-80215149D01*
G75*
G02*
X255046542Y-80374248I58234J-217333D01*
G01*
X255240656Y-81098692D01*
G75*
G02*
X255081557Y-81374259I-217333J-58234D01*
G01*
X254646891Y-81490727D01*
G75*
G02*
X254371324Y-81331628I-58234J217333D01*
G01*
G37*
G36*
G01*
X257558880Y-80477526D02*
X257364766Y-79753082D01*
G75*
G02*
X257523865Y-79477515I217333J58234D01*
G01*
X257958531Y-79361047D01*
G75*
G02*
X258234098Y-79520146I58234J-217333D01*
G01*
X258428212Y-80244590D01*
G75*
G02*
X258269113Y-80520157I-217333J-58234D01*
G01*
X257834447Y-80636625D01*
G75*
G02*
X257558880Y-80477526I-58234J217333D01*
G01*
G37*
G36*
G01*
X42641745Y-63932587D02*
X42835859Y-63208143D01*
G75*
G02*
X43111426Y-63049044I217333J-58234D01*
G01*
X43546092Y-63165512D01*
G75*
G02*
X43705191Y-63441079I-58234J-217333D01*
G01*
X43511077Y-64165523D01*
G75*
G02*
X43235510Y-64324622I-217333J58234D01*
G01*
X42800844Y-64208154D01*
G75*
G02*
X42641745Y-63932587I58234J217333D01*
G01*
G37*
G36*
G01*
X45829301Y-64786689D02*
X46023415Y-64062245D01*
G75*
G02*
X46298982Y-63903146I217333J-58234D01*
G01*
X46733648Y-64019614D01*
G75*
G02*
X46892747Y-64295181I-58234J-217333D01*
G01*
X46698633Y-65019625D01*
G75*
G02*
X46423066Y-65178724I-217333J58234D01*
G01*
X45988400Y-65062256D01*
G75*
G02*
X45829301Y-64786689I58234J217333D01*
G01*
G37*
G36*
G01*
X61313606Y-63794885D02*
X61507720Y-63070441D01*
G75*
G02*
X61783287Y-62911342I217333J-58234D01*
G01*
X62217953Y-63027810D01*
G75*
G02*
X62377052Y-63303377I-58234J-217333D01*
G01*
X62182938Y-64027821D01*
G75*
G02*
X61907371Y-64186920I-217333J58234D01*
G01*
X61472705Y-64070452D01*
G75*
G02*
X61313606Y-63794885I58234J217333D01*
G01*
G37*
G36*
G01*
X64501162Y-64648987D02*
X64695276Y-63924543D01*
G75*
G02*
X64970843Y-63765444I217333J-58234D01*
G01*
X65405509Y-63881912D01*
G75*
G02*
X65564608Y-64157479I-58234J-217333D01*
G01*
X65370494Y-64881923D01*
G75*
G02*
X65094927Y-65041022I-217333J58234D01*
G01*
X64660261Y-64924554D01*
G75*
G02*
X64501162Y-64648987I58234J217333D01*
G01*
G37*
G36*
G01*
X79950308Y-63788405D02*
X80144422Y-63063961D01*
G75*
G02*
X80419989Y-62904862I217333J-58234D01*
G01*
X80854655Y-63021330D01*
G75*
G02*
X81013754Y-63296897I-58234J-217333D01*
G01*
X80819640Y-64021341D01*
G75*
G02*
X80544073Y-64180440I-217333J58234D01*
G01*
X80109407Y-64063972D01*
G75*
G02*
X79950308Y-63788405I58234J217333D01*
G01*
G37*
G36*
G01*
X83137864Y-64642507D02*
X83331978Y-63918063D01*
G75*
G02*
X83607545Y-63758964I217333J-58234D01*
G01*
X84042211Y-63875432D01*
G75*
G02*
X84201310Y-64150999I-58234J-217333D01*
G01*
X84007196Y-64875443D01*
G75*
G02*
X83731629Y-65034542I-217333J58234D01*
G01*
X83296963Y-64918074D01*
G75*
G02*
X83137864Y-64642507I58234J217333D01*
G01*
G37*
G36*
G01*
X98611058Y-63692255D02*
X98805172Y-62967811D01*
G75*
G02*
X99080739Y-62808712I217333J-58234D01*
G01*
X99515405Y-62925180D01*
G75*
G02*
X99674504Y-63200747I-58234J-217333D01*
G01*
X99480390Y-63925191D01*
G75*
G02*
X99204823Y-64084290I-217333J58234D01*
G01*
X98770157Y-63967822D01*
G75*
G02*
X98611058Y-63692255I58234J217333D01*
G01*
G37*
G36*
G01*
X101798614Y-64546357D02*
X101992728Y-63821913D01*
G75*
G02*
X102268295Y-63662814I217333J-58234D01*
G01*
X102702961Y-63779282D01*
G75*
G02*
X102862060Y-64054849I-58234J-217333D01*
G01*
X102667946Y-64779293D01*
G75*
G02*
X102392379Y-64938392I-217333J58234D01*
G01*
X101957713Y-64821924D01*
G75*
G02*
X101798614Y-64546357I58234J217333D01*
G01*
G37*
G36*
G01*
X114922164Y-72365026D02*
X115116278Y-71640582D01*
G75*
G02*
X115391845Y-71481483I217333J-58234D01*
G01*
X115826511Y-71597951D01*
G75*
G02*
X115985610Y-71873518I-58234J-217333D01*
G01*
X115791496Y-72597962D01*
G75*
G02*
X115515929Y-72757061I-217333J58234D01*
G01*
X115081263Y-72640593D01*
G75*
G02*
X114922164Y-72365026I58234J217333D01*
G01*
G37*
G36*
G01*
X118109720Y-73219128D02*
X118303834Y-72494684D01*
G75*
G02*
X118579401Y-72335585I217333J-58234D01*
G01*
X119014067Y-72452053D01*
G75*
G02*
X119173166Y-72727620I-58234J-217333D01*
G01*
X118979052Y-73452064D01*
G75*
G02*
X118703485Y-73611163I-217333J58234D01*
G01*
X118268819Y-73494695D01*
G75*
G02*
X118109720Y-73219128I58234J217333D01*
G01*
G37*
G36*
G01*
X131233263Y-81037801D02*
X131427377Y-80313357D01*
G75*
G02*
X131702944Y-80154258I217333J-58234D01*
G01*
X132137610Y-80270726D01*
G75*
G02*
X132296709Y-80546293I-58234J-217333D01*
G01*
X132102595Y-81270737D01*
G75*
G02*
X131827028Y-81429836I-217333J58234D01*
G01*
X131392362Y-81313368D01*
G75*
G02*
X131233263Y-81037801I58234J217333D01*
G01*
G37*
G36*
G01*
X134420819Y-81891903D02*
X134614933Y-81167459D01*
G75*
G02*
X134890500Y-81008360I217333J-58234D01*
G01*
X135325166Y-81124828D01*
G75*
G02*
X135484265Y-81400395I-58234J-217333D01*
G01*
X135290151Y-82124839D01*
G75*
G02*
X135014584Y-82283938I-217333J58234D01*
G01*
X134579918Y-82167470D01*
G75*
G02*
X134420819Y-81891903I58234J217333D01*
G01*
G37*
G36*
G01*
X161390874Y-82057236D02*
X161196760Y-81332792D01*
G75*
G02*
X161355859Y-81057225I217333J58234D01*
G01*
X161790525Y-80940757D01*
G75*
G02*
X162066092Y-81099856I58234J-217333D01*
G01*
X162260206Y-81824300D01*
G75*
G02*
X162101107Y-82099867I-217333J-58234D01*
G01*
X161666441Y-82216335D01*
G75*
G02*
X161390874Y-82057236I-58234J217333D01*
G01*
G37*
G36*
G01*
X164578430Y-81203134D02*
X164384316Y-80478690D01*
G75*
G02*
X164543415Y-80203123I217333J58234D01*
G01*
X164978081Y-80086655D01*
G75*
G02*
X165253648Y-80245754I58234J-217333D01*
G01*
X165447762Y-80970198D01*
G75*
G02*
X165288663Y-81245765I-217333J-58234D01*
G01*
X164853997Y-81362233D01*
G75*
G02*
X164578430Y-81203134I-58234J217333D01*
G01*
G37*
G36*
G01*
X177701990Y-73384476D02*
X177507876Y-72660032D01*
G75*
G02*
X177666975Y-72384465I217333J58234D01*
G01*
X178101641Y-72267997D01*
G75*
G02*
X178377208Y-72427096I58234J-217333D01*
G01*
X178571322Y-73151540D01*
G75*
G02*
X178412223Y-73427107I-217333J-58234D01*
G01*
X177977557Y-73543575D01*
G75*
G02*
X177701990Y-73384476I-58234J217333D01*
G01*
G37*
G36*
G01*
X180889546Y-72530374D02*
X180695432Y-71805930D01*
G75*
G02*
X180854531Y-71530363I217333J58234D01*
G01*
X181289197Y-71413895D01*
G75*
G02*
X181564764Y-71572994I58234J-217333D01*
G01*
X181758878Y-72297438D01*
G75*
G02*
X181599779Y-72573005I-217333J-58234D01*
G01*
X181165113Y-72689473D01*
G75*
G02*
X180889546Y-72530374I-58234J217333D01*
G01*
G37*
G36*
G01*
X194013103Y-64711695D02*
X193818989Y-63987251D01*
G75*
G02*
X193978088Y-63711684I217333J58234D01*
G01*
X194412754Y-63595216D01*
G75*
G02*
X194688321Y-63754315I58234J-217333D01*
G01*
X194882435Y-64478759D01*
G75*
G02*
X194723336Y-64754326I-217333J-58234D01*
G01*
X194288670Y-64870794D01*
G75*
G02*
X194013103Y-64711695I-58234J217333D01*
G01*
G37*
G36*
G01*
X197200659Y-63857593D02*
X197006545Y-63133149D01*
G75*
G02*
X197165644Y-62857582I217333J58234D01*
G01*
X197600310Y-62741114D01*
G75*
G02*
X197875877Y-62900213I58234J-217333D01*
G01*
X198069991Y-63624657D01*
G75*
G02*
X197910892Y-63900224I-217333J-58234D01*
G01*
X197476226Y-64016692D01*
G75*
G02*
X197200659Y-63857593I-58234J217333D01*
G01*
G37*
G36*
G01*
X212673847Y-64807847D02*
X212479733Y-64083403D01*
G75*
G02*
X212638832Y-63807836I217333J58234D01*
G01*
X213073498Y-63691368D01*
G75*
G02*
X213349065Y-63850467I58234J-217333D01*
G01*
X213543179Y-64574911D01*
G75*
G02*
X213384080Y-64850478I-217333J-58234D01*
G01*
X212949414Y-64966946D01*
G75*
G02*
X212673847Y-64807847I-58234J217333D01*
G01*
G37*
G36*
G01*
X215861403Y-63953745D02*
X215667289Y-63229301D01*
G75*
G02*
X215826388Y-62953734I217333J58234D01*
G01*
X216261054Y-62837266D01*
G75*
G02*
X216536621Y-62996365I58234J-217333D01*
G01*
X216730735Y-63720809D01*
G75*
G02*
X216571636Y-63996376I-217333J-58234D01*
G01*
X216136970Y-64112844D01*
G75*
G02*
X215861403Y-63953745I-58234J217333D01*
G01*
G37*
G36*
G01*
X231310663Y-64814761D02*
X231116549Y-64090317D01*
G75*
G02*
X231275648Y-63814750I217333J58234D01*
G01*
X231710314Y-63698282D01*
G75*
G02*
X231985881Y-63857381I58234J-217333D01*
G01*
X232179995Y-64581825D01*
G75*
G02*
X232020896Y-64857392I-217333J-58234D01*
G01*
X231586230Y-64973860D01*
G75*
G02*
X231310663Y-64814761I-58234J217333D01*
G01*
G37*
G36*
G01*
X234498219Y-63960659D02*
X234304105Y-63236215D01*
G75*
G02*
X234463204Y-62960648I217333J58234D01*
G01*
X234897870Y-62844180D01*
G75*
G02*
X235173437Y-63003279I58234J-217333D01*
G01*
X235367551Y-63727723D01*
G75*
G02*
X235208452Y-64003290I-217333J-58234D01*
G01*
X234773786Y-64119758D01*
G75*
G02*
X234498219Y-63960659I-58234J217333D01*
G01*
G37*
G36*
G01*
X249971390Y-64910891D02*
X249777276Y-64186447D01*
G75*
G02*
X249936375Y-63910880I217333J58234D01*
G01*
X250371041Y-63794412D01*
G75*
G02*
X250646608Y-63953511I58234J-217333D01*
G01*
X250840722Y-64677955D01*
G75*
G02*
X250681623Y-64953522I-217333J-58234D01*
G01*
X250246957Y-65069990D01*
G75*
G02*
X249971390Y-64910891I-58234J217333D01*
G01*
G37*
G36*
G01*
X253158946Y-64056789D02*
X252964832Y-63332345D01*
G75*
G02*
X253123931Y-63056778I217333J58234D01*
G01*
X253558597Y-62940310D01*
G75*
G02*
X253834164Y-63099409I58234J-217333D01*
G01*
X254028278Y-63823853D01*
G75*
G02*
X253869179Y-64099420I-217333J-58234D01*
G01*
X253434513Y-64215888D01*
G75*
G02*
X253158946Y-64056789I-58234J217333D01*
G01*
G37*
G36*
G01*
X98164573Y-123530996D02*
X98164573Y-122780996D01*
G75*
G02*
X98389573Y-122555996I225000J0D01*
G01*
X98839573Y-122555996D01*
G75*
G02*
X99064573Y-122780996I0J-225000D01*
G01*
X99064573Y-123530996D01*
G75*
G02*
X98839573Y-123755996I-225000J0D01*
G01*
X98389573Y-123755996D01*
G75*
G02*
X98164573Y-123530996I0J225000D01*
G01*
G37*
G36*
G01*
X101464573Y-123530996D02*
X101464573Y-122780996D01*
G75*
G02*
X101689573Y-122555996I225000J0D01*
G01*
X102139573Y-122555996D01*
G75*
G02*
X102364573Y-122780996I0J-225000D01*
G01*
X102364573Y-123530996D01*
G75*
G02*
X102139573Y-123755996I-225000J0D01*
G01*
X101689573Y-123755996D01*
G75*
G02*
X101464573Y-123530996I0J225000D01*
G01*
G37*
G36*
G01*
X118024590Y-130330465D02*
X118218704Y-129606021D01*
G75*
G02*
X118494271Y-129446922I217333J-58234D01*
G01*
X118928937Y-129563390D01*
G75*
G02*
X119088036Y-129838957I-58234J-217333D01*
G01*
X118893922Y-130563401D01*
G75*
G02*
X118618355Y-130722500I-217333J58234D01*
G01*
X118183689Y-130606032D01*
G75*
G02*
X118024590Y-130330465I58234J217333D01*
G01*
G37*
G36*
G01*
X121212146Y-131184567D02*
X121406260Y-130460123D01*
G75*
G02*
X121681827Y-130301024I217333J-58234D01*
G01*
X122116493Y-130417492D01*
G75*
G02*
X122275592Y-130693059I-58234J-217333D01*
G01*
X122081478Y-131417503D01*
G75*
G02*
X121805911Y-131576602I-217333J58234D01*
G01*
X121371245Y-131460134D01*
G75*
G02*
X121212146Y-131184567I58234J217333D01*
G01*
G37*
G36*
G01*
X174594218Y-131321103D02*
X174400104Y-130596659D01*
G75*
G02*
X174559203Y-130321092I217333J58234D01*
G01*
X174993869Y-130204624D01*
G75*
G02*
X175269436Y-130363723I58234J-217333D01*
G01*
X175463550Y-131088167D01*
G75*
G02*
X175304451Y-131363734I-217333J-58234D01*
G01*
X174869785Y-131480202D01*
G75*
G02*
X174594218Y-131321103I-58234J217333D01*
G01*
G37*
G36*
G01*
X177781774Y-130467001D02*
X177587660Y-129742557D01*
G75*
G02*
X177746759Y-129466990I217333J58234D01*
G01*
X178181425Y-129350522D01*
G75*
G02*
X178456992Y-129509621I58234J-217333D01*
G01*
X178651106Y-130234065D01*
G75*
G02*
X178492007Y-130509632I-217333J-58234D01*
G01*
X178057341Y-130626100D01*
G75*
G02*
X177781774Y-130467001I-58234J217333D01*
G01*
G37*
G36*
G01*
X194336821Y-123530674D02*
X194336821Y-122780674D01*
G75*
G02*
X194561821Y-122555674I225000J0D01*
G01*
X195011821Y-122555674D01*
G75*
G02*
X195236821Y-122780674I0J-225000D01*
G01*
X195236821Y-123530674D01*
G75*
G02*
X195011821Y-123755674I-225000J0D01*
G01*
X194561821Y-123755674D01*
G75*
G02*
X194336821Y-123530674I0J225000D01*
G01*
G37*
G36*
G01*
X197636821Y-123530674D02*
X197636821Y-122780674D01*
G75*
G02*
X197861821Y-122555674I225000J0D01*
G01*
X198311821Y-122555674D01*
G75*
G02*
X198536821Y-122780674I0J-225000D01*
G01*
X198536821Y-123530674D01*
G75*
G02*
X198311821Y-123755674I-225000J0D01*
G01*
X197861821Y-123755674D01*
G75*
G02*
X197636821Y-123530674I0J225000D01*
G01*
G37*
G36*
G01*
X33841895Y-96774061D02*
X34036009Y-96049617D01*
G75*
G02*
X34311576Y-95890518I217333J-58234D01*
G01*
X34746242Y-96006986D01*
G75*
G02*
X34905341Y-96282553I-58234J-217333D01*
G01*
X34711227Y-97006997D01*
G75*
G02*
X34435660Y-97166096I-217333J58234D01*
G01*
X34000994Y-97049628D01*
G75*
G02*
X33841895Y-96774061I58234J217333D01*
G01*
G37*
G36*
G01*
X37029451Y-97628163D02*
X37223565Y-96903719D01*
G75*
G02*
X37499132Y-96744620I217333J-58234D01*
G01*
X37933798Y-96861088D01*
G75*
G02*
X38092897Y-97136655I-58234J-217333D01*
G01*
X37898783Y-97861099D01*
G75*
G02*
X37623216Y-98020198I-217333J58234D01*
G01*
X37188550Y-97903730D01*
G75*
G02*
X37029451Y-97628163I58234J217333D01*
G01*
G37*
G36*
G01*
X52513750Y-96636378D02*
X52707864Y-95911934D01*
G75*
G02*
X52983431Y-95752835I217333J-58234D01*
G01*
X53418097Y-95869303D01*
G75*
G02*
X53577196Y-96144870I-58234J-217333D01*
G01*
X53383082Y-96869314D01*
G75*
G02*
X53107515Y-97028413I-217333J58234D01*
G01*
X52672849Y-96911945D01*
G75*
G02*
X52513750Y-96636378I58234J217333D01*
G01*
G37*
G36*
G01*
X55701306Y-97490480D02*
X55895420Y-96766036D01*
G75*
G02*
X56170987Y-96606937I217333J-58234D01*
G01*
X56605653Y-96723405D01*
G75*
G02*
X56764752Y-96998972I-58234J-217333D01*
G01*
X56570638Y-97723416D01*
G75*
G02*
X56295071Y-97882515I-217333J58234D01*
G01*
X55860405Y-97766047D01*
G75*
G02*
X55701306Y-97490480I58234J217333D01*
G01*
G37*
G36*
G01*
X71150465Y-96629883D02*
X71344579Y-95905439D01*
G75*
G02*
X71620146Y-95746340I217333J-58234D01*
G01*
X72054812Y-95862808D01*
G75*
G02*
X72213911Y-96138375I-58234J-217333D01*
G01*
X72019797Y-96862819D01*
G75*
G02*
X71744230Y-97021918I-217333J58234D01*
G01*
X71309564Y-96905450D01*
G75*
G02*
X71150465Y-96629883I58234J217333D01*
G01*
G37*
G36*
G01*
X74338021Y-97483985D02*
X74532135Y-96759541D01*
G75*
G02*
X74807702Y-96600442I217333J-58234D01*
G01*
X75242368Y-96716910D01*
G75*
G02*
X75401467Y-96992477I-58234J-217333D01*
G01*
X75207353Y-97716921D01*
G75*
G02*
X74931786Y-97876020I-217333J58234D01*
G01*
X74497120Y-97759552D01*
G75*
G02*
X74338021Y-97483985I58234J217333D01*
G01*
G37*
G36*
G01*
X89811196Y-96533735D02*
X90005310Y-95809291D01*
G75*
G02*
X90280877Y-95650192I217333J-58234D01*
G01*
X90715543Y-95766660D01*
G75*
G02*
X90874642Y-96042227I-58234J-217333D01*
G01*
X90680528Y-96766671D01*
G75*
G02*
X90404961Y-96925770I-217333J58234D01*
G01*
X89970295Y-96809302D01*
G75*
G02*
X89811196Y-96533735I58234J217333D01*
G01*
G37*
G36*
G01*
X92998752Y-97387837D02*
X93192866Y-96663393D01*
G75*
G02*
X93468433Y-96504294I217333J-58234D01*
G01*
X93903099Y-96620762D01*
G75*
G02*
X94062198Y-96896329I-58234J-217333D01*
G01*
X93868084Y-97620773D01*
G75*
G02*
X93592517Y-97779872I-217333J58234D01*
G01*
X93157851Y-97663404D01*
G75*
G02*
X92998752Y-97387837I58234J217333D01*
G01*
G37*
G36*
G01*
X106122315Y-105206501D02*
X106316429Y-104482057D01*
G75*
G02*
X106591996Y-104322958I217333J-58234D01*
G01*
X107026662Y-104439426D01*
G75*
G02*
X107185761Y-104714993I-58234J-217333D01*
G01*
X106991647Y-105439437D01*
G75*
G02*
X106716080Y-105598536I-217333J58234D01*
G01*
X106281414Y-105482068D01*
G75*
G02*
X106122315Y-105206501I58234J217333D01*
G01*
G37*
G36*
G01*
X109309871Y-106060603D02*
X109503985Y-105336159D01*
G75*
G02*
X109779552Y-105177060I217333J-58234D01*
G01*
X110214218Y-105293528D01*
G75*
G02*
X110373317Y-105569095I-58234J-217333D01*
G01*
X110179203Y-106293539D01*
G75*
G02*
X109903636Y-106452638I-217333J58234D01*
G01*
X109468970Y-106336170D01*
G75*
G02*
X109309871Y-106060603I58234J217333D01*
G01*
G37*
G36*
G01*
X122433425Y-113879269D02*
X122627539Y-113154825D01*
G75*
G02*
X122903106Y-112995726I217333J-58234D01*
G01*
X123337772Y-113112194D01*
G75*
G02*
X123496871Y-113387761I-58234J-217333D01*
G01*
X123302757Y-114112205D01*
G75*
G02*
X123027190Y-114271304I-217333J58234D01*
G01*
X122592524Y-114154836D01*
G75*
G02*
X122433425Y-113879269I58234J217333D01*
G01*
G37*
G36*
G01*
X125620981Y-114733371D02*
X125815095Y-114008927D01*
G75*
G02*
X126090662Y-113849828I217333J-58234D01*
G01*
X126525328Y-113966296D01*
G75*
G02*
X126684427Y-114241863I-58234J-217333D01*
G01*
X126490313Y-114966307D01*
G75*
G02*
X126214746Y-115125406I-217333J58234D01*
G01*
X125780080Y-115008938D01*
G75*
G02*
X125620981Y-114733371I58234J217333D01*
G01*
G37*
G36*
G01*
X186501844Y-106225944D02*
X186307730Y-105501500D01*
G75*
G02*
X186466829Y-105225933I217333J58234D01*
G01*
X186901495Y-105109465D01*
G75*
G02*
X187177062Y-105268564I58234J-217333D01*
G01*
X187371176Y-105993008D01*
G75*
G02*
X187212077Y-106268575I-217333J-58234D01*
G01*
X186777411Y-106385043D01*
G75*
G02*
X186501844Y-106225944I-58234J217333D01*
G01*
G37*
G36*
G01*
X189689400Y-105371842D02*
X189495286Y-104647398D01*
G75*
G02*
X189654385Y-104371831I217333J58234D01*
G01*
X190089051Y-104255363D01*
G75*
G02*
X190364618Y-104414462I58234J-217333D01*
G01*
X190558732Y-105138906D01*
G75*
G02*
X190399633Y-105414473I-217333J-58234D01*
G01*
X189964967Y-105530941D01*
G75*
G02*
X189689400Y-105371842I-58234J217333D01*
G01*
G37*
D10*
X142971411Y-103387234D03*
X141159678Y-110148715D03*
G36*
X143867986Y-107768576D02*
G01*
X146282801Y-108415623D01*
X145972218Y-109574734D01*
X143557403Y-108927687D01*
X143867986Y-107768576D01*
G37*
G36*
X144644443Y-104870798D02*
G01*
X147059258Y-105517845D01*
X146748675Y-106676956D01*
X144333860Y-106029909D01*
X144644443Y-104870798D01*
G37*
G36*
X136269491Y-111012474D02*
G01*
X138684306Y-111659521D01*
X138373723Y-112818632D01*
X135958908Y-112171585D01*
X136269491Y-111012474D01*
G37*
G36*
X142832710Y-111632279D02*
G01*
X145247525Y-112279326D01*
X144936942Y-113438437D01*
X142522127Y-112791390D01*
X142832710Y-111632279D01*
G37*
G36*
G01*
X65713511Y-47374117D02*
X65907625Y-46649673D01*
G75*
G02*
X66183192Y-46490574I217333J-58234D01*
G01*
X66617858Y-46607042D01*
G75*
G02*
X66776957Y-46882609I-58234J-217333D01*
G01*
X66582843Y-47607053D01*
G75*
G02*
X66307276Y-47766152I-217333J58234D01*
G01*
X65872610Y-47649684D01*
G75*
G02*
X65713511Y-47374117I58234J217333D01*
G01*
G37*
G36*
G01*
X68901067Y-48228219D02*
X69095181Y-47503775D01*
G75*
G02*
X69370748Y-47344676I217333J-58234D01*
G01*
X69805414Y-47461144D01*
G75*
G02*
X69964513Y-47736711I-58234J-217333D01*
G01*
X69770399Y-48461155D01*
G75*
G02*
X69494832Y-48620254I-217333J58234D01*
G01*
X69060166Y-48503786D01*
G75*
G02*
X68901067Y-48228219I58234J217333D01*
G01*
G37*
D11*
X251294969Y-95575136D03*
X112672016Y-124571755D03*
G36*
G01*
X156991010Y-65636496D02*
X156796896Y-64912052D01*
G75*
G02*
X156955995Y-64636485I217333J58234D01*
G01*
X157390661Y-64520017D01*
G75*
G02*
X157666228Y-64679116I58234J-217333D01*
G01*
X157860342Y-65403560D01*
G75*
G02*
X157701243Y-65679127I-217333J-58234D01*
G01*
X157266577Y-65795595D01*
G75*
G02*
X156991010Y-65636496I-58234J217333D01*
G01*
G37*
G36*
G01*
X160178566Y-64782394D02*
X159984452Y-64057950D01*
G75*
G02*
X160143551Y-63782383I217333J58234D01*
G01*
X160578217Y-63665915D01*
G75*
G02*
X160853784Y-63825014I58234J-217333D01*
G01*
X161047898Y-64549458D01*
G75*
G02*
X160888799Y-64825025I-217333J-58234D01*
G01*
X160454133Y-64941493D01*
G75*
G02*
X160178566Y-64782394I-58234J217333D01*
G01*
G37*
X242495081Y-62733607D03*
G36*
G01*
X133116050Y-119553530D02*
X133591050Y-119553530D01*
G75*
G02*
X133828550Y-119791030I0J-237500D01*
G01*
X133828550Y-120391030D01*
G75*
G02*
X133591050Y-120628530I-237500J0D01*
G01*
X133116050Y-120628530D01*
G75*
G02*
X132878550Y-120391030I0J237500D01*
G01*
X132878550Y-119791030D01*
G75*
G02*
X133116050Y-119553530I237500J0D01*
G01*
G37*
G36*
G01*
X133116050Y-121278530D02*
X133591050Y-121278530D01*
G75*
G02*
X133828550Y-121516030I0J-237500D01*
G01*
X133828550Y-122116030D01*
G75*
G02*
X133591050Y-122353530I-237500J0D01*
G01*
X133116050Y-122353530D01*
G75*
G02*
X132878550Y-122116030I0J237500D01*
G01*
X132878550Y-121516030D01*
G75*
G02*
X133116050Y-121278530I237500J0D01*
G01*
G37*
G36*
G01*
X226910725Y-48393992D02*
X226716611Y-47669548D01*
G75*
G02*
X226875710Y-47393981I217333J58234D01*
G01*
X227310376Y-47277513D01*
G75*
G02*
X227585943Y-47436612I58234J-217333D01*
G01*
X227780057Y-48161056D01*
G75*
G02*
X227620958Y-48436623I-217333J-58234D01*
G01*
X227186292Y-48553091D01*
G75*
G02*
X226910725Y-48393992I-58234J217333D01*
G01*
G37*
G36*
G01*
X230098281Y-47539890D02*
X229904167Y-46815446D01*
G75*
G02*
X230063266Y-46539879I217333J58234D01*
G01*
X230497932Y-46423411D01*
G75*
G02*
X230773499Y-46582510I58234J-217333D01*
G01*
X230967613Y-47306954D01*
G75*
G02*
X230808514Y-47582521I-217333J-58234D01*
G01*
X230373848Y-47698989D01*
G75*
G02*
X230098281Y-47539890I-58234J217333D01*
G01*
G37*
G36*
G01*
X173302070Y-56963767D02*
X173107956Y-56239323D01*
G75*
G02*
X173267055Y-55963756I217333J58234D01*
G01*
X173701721Y-55847288D01*
G75*
G02*
X173977288Y-56006387I58234J-217333D01*
G01*
X174171402Y-56730831D01*
G75*
G02*
X174012303Y-57006398I-217333J-58234D01*
G01*
X173577637Y-57122866D01*
G75*
G02*
X173302070Y-56963767I-58234J217333D01*
G01*
G37*
G36*
G01*
X176489626Y-56109665D02*
X176295512Y-55385221D01*
G75*
G02*
X176454611Y-55109654I217333J58234D01*
G01*
X176889277Y-54993186D01*
G75*
G02*
X177164844Y-55152285I58234J-217333D01*
G01*
X177358958Y-55876729D01*
G75*
G02*
X177199859Y-56152296I-217333J-58234D01*
G01*
X176765193Y-56268764D01*
G75*
G02*
X176489626Y-56109665I-58234J217333D01*
G01*
G37*
X187139552Y-66624529D03*
G36*
G01*
X159240724Y-117100284D02*
X159117785Y-116641469D01*
G75*
G02*
X159285722Y-116350592I229407J61470D01*
G01*
X159768685Y-116221183D01*
G75*
G02*
X160059562Y-116389120I61470J-229407D01*
G01*
X160182501Y-116847935D01*
G75*
G02*
X160014564Y-117138812I-229407J-61470D01*
G01*
X159531601Y-117268221D01*
G75*
G02*
X159240724Y-117100284I-61470J229407D01*
G01*
G37*
G36*
G01*
X161003538Y-116627940D02*
X160880599Y-116169125D01*
G75*
G02*
X161048536Y-115878248I229407J61470D01*
G01*
X161531499Y-115748839D01*
G75*
G02*
X161822376Y-115916776I61470J-229407D01*
G01*
X161945315Y-116375591D01*
G75*
G02*
X161777378Y-116666468I-229407J-61470D01*
G01*
X161294415Y-116795877D01*
G75*
G02*
X161003538Y-116627940I-61470J229407D01*
G01*
G37*
G36*
G01*
X245570987Y-48489900D02*
X245376873Y-47765456D01*
G75*
G02*
X245535972Y-47489889I217333J58234D01*
G01*
X245970638Y-47373421D01*
G75*
G02*
X246246205Y-47532520I58234J-217333D01*
G01*
X246440319Y-48256964D01*
G75*
G02*
X246281220Y-48532531I-217333J-58234D01*
G01*
X245846554Y-48648999D01*
G75*
G02*
X245570987Y-48489900I-58234J217333D01*
G01*
G37*
G36*
G01*
X248758543Y-47635798D02*
X248564429Y-46911354D01*
G75*
G02*
X248723528Y-46635787I217333J58234D01*
G01*
X249158194Y-46519319D01*
G75*
G02*
X249433761Y-46678418I58234J-217333D01*
G01*
X249627875Y-47402862D01*
G75*
G02*
X249468776Y-47678429I-217333J-58234D01*
G01*
X249034110Y-47794897D01*
G75*
G02*
X248758543Y-47635798I-58234J217333D01*
G01*
G37*
G36*
G01*
X119322062Y-55944301D02*
X119516176Y-55219857D01*
G75*
G02*
X119791743Y-55060758I217333J-58234D01*
G01*
X120226409Y-55177226D01*
G75*
G02*
X120385508Y-55452793I-58234J-217333D01*
G01*
X120191394Y-56177237D01*
G75*
G02*
X119915827Y-56336336I-217333J58234D01*
G01*
X119481161Y-56219868D01*
G75*
G02*
X119322062Y-55944301I58234J217333D01*
G01*
G37*
G36*
G01*
X122509618Y-56798403D02*
X122703732Y-56073959D01*
G75*
G02*
X122979299Y-55914860I217333J-58234D01*
G01*
X123413965Y-56031328D01*
G75*
G02*
X123573064Y-56306895I-58234J-217333D01*
G01*
X123378950Y-57031339D01*
G75*
G02*
X123103383Y-57190438I-217333J58234D01*
G01*
X122668717Y-57073970D01*
G75*
G02*
X122509618Y-56798403I58234J217333D01*
G01*
G37*
D12*
X159261550Y-121244530D03*
X159261550Y-125144530D03*
X157991550Y-121244530D03*
X157991550Y-125144530D03*
X156721550Y-121244530D03*
X156721550Y-125144530D03*
X155451550Y-121244530D03*
X155451550Y-125144530D03*
X154181550Y-121244530D03*
X154181550Y-125144530D03*
G36*
G01*
X212337165Y-118048497D02*
X212337165Y-117298497D01*
G75*
G02*
X212562165Y-117073497I225000J0D01*
G01*
X213012165Y-117073497D01*
G75*
G02*
X213237165Y-117298497I0J-225000D01*
G01*
X213237165Y-118048497D01*
G75*
G02*
X213012165Y-118273497I-225000J0D01*
G01*
X212562165Y-118273497D01*
G75*
G02*
X212337165Y-118048497I0J225000D01*
G01*
G37*
G36*
G01*
X215637165Y-118048497D02*
X215637165Y-117298497D01*
G75*
G02*
X215862165Y-117073497I225000J0D01*
G01*
X216312165Y-117073497D01*
G75*
G02*
X216537165Y-117298497I0J-225000D01*
G01*
X216537165Y-118048497D01*
G75*
G02*
X216312165Y-118273497I-225000J0D01*
G01*
X215862165Y-118273497D01*
G75*
G02*
X215637165Y-118048497I0J225000D01*
G01*
G37*
G36*
G01*
X135633221Y-64617045D02*
X135827335Y-63892601D01*
G75*
G02*
X136102902Y-63733502I217333J-58234D01*
G01*
X136537568Y-63849970D01*
G75*
G02*
X136696667Y-64125537I-58234J-217333D01*
G01*
X136502553Y-64849981D01*
G75*
G02*
X136226986Y-65009080I-217333J58234D01*
G01*
X135792320Y-64892612D01*
G75*
G02*
X135633221Y-64617045I58234J217333D01*
G01*
G37*
G36*
G01*
X138820777Y-65471147D02*
X139014891Y-64746703D01*
G75*
G02*
X139290458Y-64587604I217333J-58234D01*
G01*
X139725124Y-64704072D01*
G75*
G02*
X139884223Y-64979639I-58234J-217333D01*
G01*
X139690109Y-65704083D01*
G75*
G02*
X139414542Y-65863182I-217333J58234D01*
G01*
X138979876Y-65746714D01*
G75*
G02*
X138820777Y-65471147I58234J217333D01*
G01*
G37*
D10*
X153924918Y-103401916D03*
X155736651Y-110163397D03*
G36*
X156892046Y-106747981D02*
G01*
X159306861Y-106100934D01*
X159617444Y-107260045D01*
X157202629Y-107907092D01*
X156892046Y-106747981D01*
G37*
G36*
X156115588Y-103850204D02*
G01*
X158530403Y-103203157D01*
X158840986Y-104362268D01*
X156426171Y-105009315D01*
X156115588Y-103850204D01*
G37*
G36*
X151933505Y-113356527D02*
G01*
X154348320Y-112709480D01*
X154658903Y-113868591D01*
X152244088Y-114515638D01*
X151933505Y-113356527D01*
G37*
G36*
X157927322Y-110611684D02*
G01*
X160342137Y-109964637D01*
X160652720Y-111123748D01*
X158237905Y-111770795D01*
X157927322Y-110611684D01*
G37*
G36*
G01*
X135339550Y-126794530D02*
X135139550Y-126794530D01*
G75*
G02*
X135039550Y-126694530I0J100000D01*
G01*
X135039550Y-125419530D01*
G75*
G02*
X135139550Y-125319530I100000J0D01*
G01*
X135339550Y-125319530D01*
G75*
G02*
X135439550Y-125419530I0J-100000D01*
G01*
X135439550Y-126694530D01*
G75*
G02*
X135339550Y-126794530I-100000J0D01*
G01*
G37*
G36*
G01*
X135989550Y-126794530D02*
X135789550Y-126794530D01*
G75*
G02*
X135689550Y-126694530I0J100000D01*
G01*
X135689550Y-125419530D01*
G75*
G02*
X135789550Y-125319530I100000J0D01*
G01*
X135989550Y-125319530D01*
G75*
G02*
X136089550Y-125419530I0J-100000D01*
G01*
X136089550Y-126694530D01*
G75*
G02*
X135989550Y-126794530I-100000J0D01*
G01*
G37*
G36*
G01*
X136639550Y-126794530D02*
X136439550Y-126794530D01*
G75*
G02*
X136339550Y-126694530I0J100000D01*
G01*
X136339550Y-125419530D01*
G75*
G02*
X136439550Y-125319530I100000J0D01*
G01*
X136639550Y-125319530D01*
G75*
G02*
X136739550Y-125419530I0J-100000D01*
G01*
X136739550Y-126694530D01*
G75*
G02*
X136639550Y-126794530I-100000J0D01*
G01*
G37*
G36*
G01*
X137289550Y-126794530D02*
X137089550Y-126794530D01*
G75*
G02*
X136989550Y-126694530I0J100000D01*
G01*
X136989550Y-125419530D01*
G75*
G02*
X137089550Y-125319530I100000J0D01*
G01*
X137289550Y-125319530D01*
G75*
G02*
X137389550Y-125419530I0J-100000D01*
G01*
X137389550Y-126694530D01*
G75*
G02*
X137289550Y-126794530I-100000J0D01*
G01*
G37*
G36*
G01*
X137939550Y-126794530D02*
X137739550Y-126794530D01*
G75*
G02*
X137639550Y-126694530I0J100000D01*
G01*
X137639550Y-125419530D01*
G75*
G02*
X137739550Y-125319530I100000J0D01*
G01*
X137939550Y-125319530D01*
G75*
G02*
X138039550Y-125419530I0J-100000D01*
G01*
X138039550Y-126694530D01*
G75*
G02*
X137939550Y-126794530I-100000J0D01*
G01*
G37*
G36*
G01*
X138589550Y-126794530D02*
X138389550Y-126794530D01*
G75*
G02*
X138289550Y-126694530I0J100000D01*
G01*
X138289550Y-125419530D01*
G75*
G02*
X138389550Y-125319530I100000J0D01*
G01*
X138589550Y-125319530D01*
G75*
G02*
X138689550Y-125419530I0J-100000D01*
G01*
X138689550Y-126694530D01*
G75*
G02*
X138589550Y-126794530I-100000J0D01*
G01*
G37*
G36*
G01*
X139239550Y-126794530D02*
X139039550Y-126794530D01*
G75*
G02*
X138939550Y-126694530I0J100000D01*
G01*
X138939550Y-125419530D01*
G75*
G02*
X139039550Y-125319530I100000J0D01*
G01*
X139239550Y-125319530D01*
G75*
G02*
X139339550Y-125419530I0J-100000D01*
G01*
X139339550Y-126694530D01*
G75*
G02*
X139239550Y-126794530I-100000J0D01*
G01*
G37*
G36*
G01*
X139889550Y-126794530D02*
X139689550Y-126794530D01*
G75*
G02*
X139589550Y-126694530I0J100000D01*
G01*
X139589550Y-125419530D01*
G75*
G02*
X139689550Y-125319530I100000J0D01*
G01*
X139889550Y-125319530D01*
G75*
G02*
X139989550Y-125419530I0J-100000D01*
G01*
X139989550Y-126694530D01*
G75*
G02*
X139889550Y-126794530I-100000J0D01*
G01*
G37*
G36*
G01*
X140539550Y-126794530D02*
X140339550Y-126794530D01*
G75*
G02*
X140239550Y-126694530I0J100000D01*
G01*
X140239550Y-125419530D01*
G75*
G02*
X140339550Y-125319530I100000J0D01*
G01*
X140539550Y-125319530D01*
G75*
G02*
X140639550Y-125419530I0J-100000D01*
G01*
X140639550Y-126694530D01*
G75*
G02*
X140539550Y-126794530I-100000J0D01*
G01*
G37*
G36*
G01*
X141189550Y-126794530D02*
X140989550Y-126794530D01*
G75*
G02*
X140889550Y-126694530I0J100000D01*
G01*
X140889550Y-125419530D01*
G75*
G02*
X140989550Y-125319530I100000J0D01*
G01*
X141189550Y-125319530D01*
G75*
G02*
X141289550Y-125419530I0J-100000D01*
G01*
X141289550Y-126694530D01*
G75*
G02*
X141189550Y-126794530I-100000J0D01*
G01*
G37*
G36*
G01*
X141839550Y-126794530D02*
X141639550Y-126794530D01*
G75*
G02*
X141539550Y-126694530I0J100000D01*
G01*
X141539550Y-125419530D01*
G75*
G02*
X141639550Y-125319530I100000J0D01*
G01*
X141839550Y-125319530D01*
G75*
G02*
X141939550Y-125419530I0J-100000D01*
G01*
X141939550Y-126694530D01*
G75*
G02*
X141839550Y-126794530I-100000J0D01*
G01*
G37*
G36*
G01*
X142489550Y-126794530D02*
X142289550Y-126794530D01*
G75*
G02*
X142189550Y-126694530I0J100000D01*
G01*
X142189550Y-125419530D01*
G75*
G02*
X142289550Y-125319530I100000J0D01*
G01*
X142489550Y-125319530D01*
G75*
G02*
X142589550Y-125419530I0J-100000D01*
G01*
X142589550Y-126694530D01*
G75*
G02*
X142489550Y-126794530I-100000J0D01*
G01*
G37*
G36*
G01*
X142489550Y-121069530D02*
X142289550Y-121069530D01*
G75*
G02*
X142189550Y-120969530I0J100000D01*
G01*
X142189550Y-119694530D01*
G75*
G02*
X142289550Y-119594530I100000J0D01*
G01*
X142489550Y-119594530D01*
G75*
G02*
X142589550Y-119694530I0J-100000D01*
G01*
X142589550Y-120969530D01*
G75*
G02*
X142489550Y-121069530I-100000J0D01*
G01*
G37*
G36*
G01*
X141839550Y-121069530D02*
X141639550Y-121069530D01*
G75*
G02*
X141539550Y-120969530I0J100000D01*
G01*
X141539550Y-119694530D01*
G75*
G02*
X141639550Y-119594530I100000J0D01*
G01*
X141839550Y-119594530D01*
G75*
G02*
X141939550Y-119694530I0J-100000D01*
G01*
X141939550Y-120969530D01*
G75*
G02*
X141839550Y-121069530I-100000J0D01*
G01*
G37*
G36*
G01*
X141189550Y-121069530D02*
X140989550Y-121069530D01*
G75*
G02*
X140889550Y-120969530I0J100000D01*
G01*
X140889550Y-119694530D01*
G75*
G02*
X140989550Y-119594530I100000J0D01*
G01*
X141189550Y-119594530D01*
G75*
G02*
X141289550Y-119694530I0J-100000D01*
G01*
X141289550Y-120969530D01*
G75*
G02*
X141189550Y-121069530I-100000J0D01*
G01*
G37*
G36*
G01*
X140539550Y-121069530D02*
X140339550Y-121069530D01*
G75*
G02*
X140239550Y-120969530I0J100000D01*
G01*
X140239550Y-119694530D01*
G75*
G02*
X140339550Y-119594530I100000J0D01*
G01*
X140539550Y-119594530D01*
G75*
G02*
X140639550Y-119694530I0J-100000D01*
G01*
X140639550Y-120969530D01*
G75*
G02*
X140539550Y-121069530I-100000J0D01*
G01*
G37*
G36*
G01*
X139889550Y-121069530D02*
X139689550Y-121069530D01*
G75*
G02*
X139589550Y-120969530I0J100000D01*
G01*
X139589550Y-119694530D01*
G75*
G02*
X139689550Y-119594530I100000J0D01*
G01*
X139889550Y-119594530D01*
G75*
G02*
X139989550Y-119694530I0J-100000D01*
G01*
X139989550Y-120969530D01*
G75*
G02*
X139889550Y-121069530I-100000J0D01*
G01*
G37*
G36*
G01*
X139239550Y-121069530D02*
X139039550Y-121069530D01*
G75*
G02*
X138939550Y-120969530I0J100000D01*
G01*
X138939550Y-119694530D01*
G75*
G02*
X139039550Y-119594530I100000J0D01*
G01*
X139239550Y-119594530D01*
G75*
G02*
X139339550Y-119694530I0J-100000D01*
G01*
X139339550Y-120969530D01*
G75*
G02*
X139239550Y-121069530I-100000J0D01*
G01*
G37*
G36*
G01*
X138589550Y-121069530D02*
X138389550Y-121069530D01*
G75*
G02*
X138289550Y-120969530I0J100000D01*
G01*
X138289550Y-119694530D01*
G75*
G02*
X138389550Y-119594530I100000J0D01*
G01*
X138589550Y-119594530D01*
G75*
G02*
X138689550Y-119694530I0J-100000D01*
G01*
X138689550Y-120969530D01*
G75*
G02*
X138589550Y-121069530I-100000J0D01*
G01*
G37*
G36*
G01*
X137939550Y-121069530D02*
X137739550Y-121069530D01*
G75*
G02*
X137639550Y-120969530I0J100000D01*
G01*
X137639550Y-119694530D01*
G75*
G02*
X137739550Y-119594530I100000J0D01*
G01*
X137939550Y-119594530D01*
G75*
G02*
X138039550Y-119694530I0J-100000D01*
G01*
X138039550Y-120969530D01*
G75*
G02*
X137939550Y-121069530I-100000J0D01*
G01*
G37*
G36*
G01*
X137289550Y-121069530D02*
X137089550Y-121069530D01*
G75*
G02*
X136989550Y-120969530I0J100000D01*
G01*
X136989550Y-119694530D01*
G75*
G02*
X137089550Y-119594530I100000J0D01*
G01*
X137289550Y-119594530D01*
G75*
G02*
X137389550Y-119694530I0J-100000D01*
G01*
X137389550Y-120969530D01*
G75*
G02*
X137289550Y-121069530I-100000J0D01*
G01*
G37*
G36*
G01*
X136639550Y-121069530D02*
X136439550Y-121069530D01*
G75*
G02*
X136339550Y-120969530I0J100000D01*
G01*
X136339550Y-119694530D01*
G75*
G02*
X136439550Y-119594530I100000J0D01*
G01*
X136639550Y-119594530D01*
G75*
G02*
X136739550Y-119694530I0J-100000D01*
G01*
X136739550Y-120969530D01*
G75*
G02*
X136639550Y-121069530I-100000J0D01*
G01*
G37*
G36*
G01*
X135989550Y-121069530D02*
X135789550Y-121069530D01*
G75*
G02*
X135689550Y-120969530I0J100000D01*
G01*
X135689550Y-119694530D01*
G75*
G02*
X135789550Y-119594530I100000J0D01*
G01*
X135989550Y-119594530D01*
G75*
G02*
X136089550Y-119694530I0J-100000D01*
G01*
X136089550Y-120969530D01*
G75*
G02*
X135989550Y-121069530I-100000J0D01*
G01*
G37*
G36*
G01*
X135339550Y-121069530D02*
X135139550Y-121069530D01*
G75*
G02*
X135039550Y-120969530I0J100000D01*
G01*
X135039550Y-119694530D01*
G75*
G02*
X135139550Y-119594530I100000J0D01*
G01*
X135339550Y-119594530D01*
G75*
G02*
X135439550Y-119694530I0J-100000D01*
G01*
X135439550Y-120969530D01*
G75*
G02*
X135339550Y-121069530I-100000J0D01*
G01*
G37*
G36*
G01*
X189613229Y-48290935D02*
X189419115Y-47566491D01*
G75*
G02*
X189578214Y-47290924I217333J58234D01*
G01*
X190012880Y-47174456D01*
G75*
G02*
X190288447Y-47333555I58234J-217333D01*
G01*
X190482561Y-48057999D01*
G75*
G02*
X190323462Y-48333566I-217333J-58234D01*
G01*
X189888796Y-48450034D01*
G75*
G02*
X189613229Y-48290935I-58234J217333D01*
G01*
G37*
G36*
G01*
X192800785Y-47436833D02*
X192606671Y-46712389D01*
G75*
G02*
X192765770Y-46436822I217333J58234D01*
G01*
X193200436Y-46320354D01*
G75*
G02*
X193476003Y-46479453I58234J-217333D01*
G01*
X193670117Y-47203897D01*
G75*
G02*
X193511018Y-47479464I-217333J-58234D01*
G01*
X193076352Y-47595932D01*
G75*
G02*
X192800785Y-47436833I-58234J217333D01*
G01*
G37*
G36*
G01*
X84350240Y-47367624D02*
X84544354Y-46643180D01*
G75*
G02*
X84819921Y-46484081I217333J-58234D01*
G01*
X85254587Y-46600549D01*
G75*
G02*
X85413686Y-46876116I-58234J-217333D01*
G01*
X85219572Y-47600560D01*
G75*
G02*
X84944005Y-47759659I-217333J58234D01*
G01*
X84509339Y-47643191D01*
G75*
G02*
X84350240Y-47367624I58234J217333D01*
G01*
G37*
G36*
G01*
X87537796Y-48221726D02*
X87731910Y-47497282D01*
G75*
G02*
X88007477Y-47338183I217333J-58234D01*
G01*
X88442143Y-47454651D01*
G75*
G02*
X88601242Y-47730218I-58234J-217333D01*
G01*
X88407128Y-48454662D01*
G75*
G02*
X88131561Y-48613761I-217333J58234D01*
G01*
X87696895Y-48497293D01*
G75*
G02*
X87537796Y-48221726I58234J217333D01*
G01*
G37*
D11*
X54194961Y-62692513D03*
G36*
G01*
X80164574Y-118048996D02*
X80164574Y-117298996D01*
G75*
G02*
X80389574Y-117073996I225000J0D01*
G01*
X80839574Y-117073996D01*
G75*
G02*
X81064574Y-117298996I0J-225000D01*
G01*
X81064574Y-118048996D01*
G75*
G02*
X80839574Y-118273996I-225000J0D01*
G01*
X80389574Y-118273996D01*
G75*
G02*
X80164574Y-118048996I0J225000D01*
G01*
G37*
G36*
G01*
X83464574Y-118048996D02*
X83464574Y-117298996D01*
G75*
G02*
X83689574Y-117073996I225000J0D01*
G01*
X84139574Y-117073996D01*
G75*
G02*
X84364574Y-117298996I0J-225000D01*
G01*
X84364574Y-118048996D01*
G75*
G02*
X84139574Y-118273996I-225000J0D01*
G01*
X83689574Y-118273996D01*
G75*
G02*
X83464574Y-118048996I0J225000D01*
G01*
G37*
G36*
G01*
X103011005Y-47271473D02*
X103205119Y-46547029D01*
G75*
G02*
X103480686Y-46387930I217333J-58234D01*
G01*
X103915352Y-46504398D01*
G75*
G02*
X104074451Y-46779965I-58234J-217333D01*
G01*
X103880337Y-47504409D01*
G75*
G02*
X103604770Y-47663508I-217333J58234D01*
G01*
X103170104Y-47547040D01*
G75*
G02*
X103011005Y-47271473I58234J217333D01*
G01*
G37*
G36*
G01*
X106198561Y-48125575D02*
X106392675Y-47401131D01*
G75*
G02*
X106668242Y-47242032I217333J-58234D01*
G01*
X107102908Y-47358500D01*
G75*
G02*
X107262007Y-47634067I-58234J-217333D01*
G01*
X107067893Y-48358511D01*
G75*
G02*
X106792326Y-48517610I-217333J58234D01*
G01*
X106357660Y-48401142D01*
G75*
G02*
X106198561Y-48125575I58234J217333D01*
G01*
G37*
G36*
G01*
X47041718Y-47511809D02*
X47235832Y-46787365D01*
G75*
G02*
X47511399Y-46628266I217333J-58234D01*
G01*
X47946065Y-46744734D01*
G75*
G02*
X48105164Y-47020301I-58234J-217333D01*
G01*
X47911050Y-47744745D01*
G75*
G02*
X47635483Y-47903844I-217333J58234D01*
G01*
X47200817Y-47787376D01*
G75*
G02*
X47041718Y-47511809I58234J217333D01*
G01*
G37*
G36*
G01*
X50229274Y-48365911D02*
X50423388Y-47641467D01*
G75*
G02*
X50698955Y-47482368I217333J-58234D01*
G01*
X51133621Y-47598836D01*
G75*
G02*
X51292720Y-47874403I-58234J-217333D01*
G01*
X51098606Y-48598847D01*
G75*
G02*
X50823039Y-48757946I-217333J58234D01*
G01*
X50388373Y-48641478D01*
G75*
G02*
X50229274Y-48365911I58234J217333D01*
G01*
G37*
G36*
G01*
X158582224Y-115068284D02*
X158459285Y-114609469D01*
G75*
G02*
X158627222Y-114318592I229407J61470D01*
G01*
X159110185Y-114189183D01*
G75*
G02*
X159401062Y-114357120I61470J-229407D01*
G01*
X159524001Y-114815935D01*
G75*
G02*
X159356064Y-115106812I-229407J-61470D01*
G01*
X158873101Y-115236221D01*
G75*
G02*
X158582224Y-115068284I-61470J229407D01*
G01*
G37*
G36*
G01*
X160345038Y-114595940D02*
X160222099Y-114137125D01*
G75*
G02*
X160390036Y-113846248I229407J61470D01*
G01*
X160872999Y-113716839D01*
G75*
G02*
X161163876Y-113884776I61470J-229407D01*
G01*
X161286815Y-114343591D01*
G75*
G02*
X161118878Y-114634468I-229407J-61470D01*
G01*
X160635915Y-114763877D01*
G75*
G02*
X160345038Y-114595940I-61470J229407D01*
G01*
G37*
X109539210Y-66624587D03*
G36*
G01*
X208273881Y-48387080D02*
X208079767Y-47662636D01*
G75*
G02*
X208238866Y-47387069I217333J58234D01*
G01*
X208673532Y-47270601D01*
G75*
G02*
X208949099Y-47429700I58234J-217333D01*
G01*
X209143213Y-48154144D01*
G75*
G02*
X208984114Y-48429711I-217333J-58234D01*
G01*
X208549448Y-48546179D01*
G75*
G02*
X208273881Y-48387080I-58234J217333D01*
G01*
G37*
G36*
G01*
X211461437Y-47532978D02*
X211267323Y-46808534D01*
G75*
G02*
X211426422Y-46532967I217333J58234D01*
G01*
X211861088Y-46416499D01*
G75*
G02*
X212136655Y-46575598I58234J-217333D01*
G01*
X212330769Y-47300042D01*
G75*
G02*
X212171670Y-47575609I-217333J-58234D01*
G01*
X211737004Y-47692077D01*
G75*
G02*
X211461437Y-47532978I-58234J217333D01*
G01*
G37*
X184007067Y-124571747D03*
G36*
G01*
X167870639Y-30051369D02*
X168739972Y-29818432D01*
G75*
G02*
X169291108Y-30136630I116469J-434667D01*
G01*
X169964037Y-32648037D01*
G75*
G02*
X169645839Y-33199173I-434667J-116469D01*
G01*
X168776506Y-33432110D01*
G75*
G02*
X168225370Y-33113912I-116469J434667D01*
G01*
X167552441Y-30602505D01*
G75*
G02*
X167870639Y-30051369I434667J116469D01*
G01*
G37*
G36*
G01*
X165417187Y-30708769D02*
X166286520Y-30475832D01*
G75*
G02*
X166837656Y-30794030I116469J-434667D01*
G01*
X167510585Y-33305437D01*
G75*
G02*
X167192387Y-33856573I-434667J-116469D01*
G01*
X166323054Y-34089510D01*
G75*
G02*
X165771918Y-33771312I-116469J434667D01*
G01*
X165098989Y-31259905D01*
G75*
G02*
X165417187Y-30708769I434667J116469D01*
G01*
G37*
G36*
G01*
X162963736Y-31366169D02*
X163833069Y-31133232D01*
G75*
G02*
X164384205Y-31451430I116469J-434667D01*
G01*
X165057134Y-33962837D01*
G75*
G02*
X164738936Y-34513973I-434667J-116469D01*
G01*
X163869603Y-34746910D01*
G75*
G02*
X163318467Y-34428712I-116469J434667D01*
G01*
X162645538Y-31917305D01*
G75*
G02*
X162963736Y-31366169I434667J116469D01*
G01*
G37*
G36*
G01*
X160510284Y-32023570D02*
X161379617Y-31790633D01*
G75*
G02*
X161930753Y-32108831I116469J-434667D01*
G01*
X162603682Y-34620238D01*
G75*
G02*
X162285484Y-35171374I-434667J-116469D01*
G01*
X161416151Y-35404311D01*
G75*
G02*
X160865015Y-35086113I-116469J434667D01*
G01*
X160192086Y-32574706D01*
G75*
G02*
X160510284Y-32023570I434667J116469D01*
G01*
G37*
G36*
G01*
X158056833Y-32680970D02*
X158926166Y-32448033D01*
G75*
G02*
X159477302Y-32766231I116469J-434667D01*
G01*
X160150231Y-35277638D01*
G75*
G02*
X159832033Y-35828774I-434667J-116469D01*
G01*
X158962700Y-36061711D01*
G75*
G02*
X158411564Y-35743513I-116469J434667D01*
G01*
X157738635Y-33232106D01*
G75*
G02*
X158056833Y-32680970I434667J116469D01*
G01*
G37*
G36*
G01*
X155603381Y-33338370D02*
X156472714Y-33105433D01*
G75*
G02*
X157023850Y-33423631I116469J-434667D01*
G01*
X157696779Y-35935038D01*
G75*
G02*
X157378581Y-36486174I-434667J-116469D01*
G01*
X156509248Y-36719111D01*
G75*
G02*
X155958112Y-36400913I-116469J434667D01*
G01*
X155285183Y-33889506D01*
G75*
G02*
X155603381Y-33338370I434667J116469D01*
G01*
G37*
G36*
G01*
X153149929Y-33995771D02*
X154019262Y-33762834D01*
G75*
G02*
X154570398Y-34081032I116469J-434667D01*
G01*
X155243327Y-36592439D01*
G75*
G02*
X154925129Y-37143575I-434667J-116469D01*
G01*
X154055796Y-37376512D01*
G75*
G02*
X153504660Y-37058314I-116469J434667D01*
G01*
X152831731Y-34546907D01*
G75*
G02*
X153149929Y-33995771I434667J116469D01*
G01*
G37*
G36*
G01*
X174263171Y-50431289D02*
X173393838Y-50664226D01*
G75*
G02*
X172842702Y-50346028I-116469J434667D01*
G01*
X172169773Y-47834621D01*
G75*
G02*
X172487971Y-47283485I434667J116469D01*
G01*
X173357304Y-47050548D01*
G75*
G02*
X173908440Y-47368746I116469J-434667D01*
G01*
X174581369Y-49880153D01*
G75*
G02*
X174263171Y-50431289I-434667J-116469D01*
G01*
G37*
G36*
G01*
X171809719Y-51088690D02*
X170940386Y-51321627D01*
G75*
G02*
X170389250Y-51003429I-116469J434667D01*
G01*
X169716321Y-48492022D01*
G75*
G02*
X170034519Y-47940886I434667J116469D01*
G01*
X170903852Y-47707949D01*
G75*
G02*
X171454988Y-48026147I116469J-434667D01*
G01*
X172127917Y-50537554D01*
G75*
G02*
X171809719Y-51088690I-434667J-116469D01*
G01*
G37*
G36*
G01*
X169356267Y-51746090D02*
X168486934Y-51979027D01*
G75*
G02*
X167935798Y-51660829I-116469J434667D01*
G01*
X167262869Y-49149422D01*
G75*
G02*
X167581067Y-48598286I434667J116469D01*
G01*
X168450400Y-48365349D01*
G75*
G02*
X169001536Y-48683547I116469J-434667D01*
G01*
X169674465Y-51194954D01*
G75*
G02*
X169356267Y-51746090I-434667J-116469D01*
G01*
G37*
G36*
G01*
X166902816Y-52403490D02*
X166033483Y-52636427D01*
G75*
G02*
X165482347Y-52318229I-116469J434667D01*
G01*
X164809418Y-49806822D01*
G75*
G02*
X165127616Y-49255686I434667J116469D01*
G01*
X165996949Y-49022749D01*
G75*
G02*
X166548085Y-49340947I116469J-434667D01*
G01*
X167221014Y-51852354D01*
G75*
G02*
X166902816Y-52403490I-434667J-116469D01*
G01*
G37*
G36*
G01*
X164449364Y-53060891D02*
X163580031Y-53293828D01*
G75*
G02*
X163028895Y-52975630I-116469J434667D01*
G01*
X162355966Y-50464223D01*
G75*
G02*
X162674164Y-49913087I434667J116469D01*
G01*
X163543497Y-49680150D01*
G75*
G02*
X164094633Y-49998348I116469J-434667D01*
G01*
X164767562Y-52509755D01*
G75*
G02*
X164449364Y-53060891I-434667J-116469D01*
G01*
G37*
G36*
G01*
X160220713Y-50570487D02*
X161090046Y-50337550D01*
G75*
G02*
X161641182Y-50655748I116469J-434667D01*
G01*
X162314111Y-53167155D01*
G75*
G02*
X161995913Y-53718291I-434667J-116469D01*
G01*
X161126580Y-53951228D01*
G75*
G02*
X160575444Y-53633030I-116469J434667D01*
G01*
X159902515Y-51121623D01*
G75*
G02*
X160220713Y-50570487I434667J116469D01*
G01*
G37*
G36*
G01*
X157767261Y-51227887D02*
X158636594Y-50994950D01*
G75*
G02*
X159187730Y-51313148I116469J-434667D01*
G01*
X159860659Y-53824555D01*
G75*
G02*
X159542461Y-54375691I-434667J-116469D01*
G01*
X158673128Y-54608628D01*
G75*
G02*
X158121992Y-54290430I-116469J434667D01*
G01*
X157449063Y-51779023D01*
G75*
G02*
X157767261Y-51227887I434667J116469D01*
G01*
G37*
G36*
G01*
X164053346Y-36224707D02*
X164705346Y-36050004D01*
G75*
G02*
X165118697Y-36288653I87351J-326000D01*
G01*
X165591041Y-38051468D01*
G75*
G02*
X165352392Y-38464819I-326000J-87351D01*
G01*
X164700392Y-38639522D01*
G75*
G02*
X164287041Y-38400873I-87351J326000D01*
G01*
X163814697Y-36638058D01*
G75*
G02*
X164053346Y-36224707I326000J87351D01*
G01*
G37*
G36*
G01*
X162213257Y-36717757D02*
X162865257Y-36543054D01*
G75*
G02*
X163278608Y-36781703I87351J-326000D01*
G01*
X163750952Y-38544518D01*
G75*
G02*
X163512303Y-38957869I-326000J-87351D01*
G01*
X162860303Y-39132572D01*
G75*
G02*
X162446952Y-38893923I-87351J326000D01*
G01*
X161974608Y-37131108D01*
G75*
G02*
X162213257Y-36717757I326000J87351D01*
G01*
G37*
G36*
G01*
X154678833Y-48926307D02*
X154504130Y-48274307D01*
G75*
G02*
X154742779Y-47860956I326000J87351D01*
G01*
X156505594Y-47388612D01*
G75*
G02*
X156918945Y-47627261I87351J-326000D01*
G01*
X157093648Y-48279261D01*
G75*
G02*
X156854999Y-48692612I-326000J-87351D01*
G01*
X155092184Y-49164956D01*
G75*
G02*
X154678833Y-48926307I-87351J326000D01*
G01*
G37*
G36*
G01*
X155171883Y-50766395D02*
X154997180Y-50114395D01*
G75*
G02*
X155235829Y-49701044I326000J87351D01*
G01*
X156998644Y-49228700D01*
G75*
G02*
X157411995Y-49467349I87351J-326000D01*
G01*
X157586698Y-50119349D01*
G75*
G02*
X157348049Y-50532700I-326000J-87351D01*
G01*
X155585234Y-51005044D01*
G75*
G02*
X155171883Y-50766395I-87351J326000D01*
G01*
G37*
D10*
X171658249Y-38768078D03*
X172315649Y-41221530D03*
X169204797Y-39425478D03*
X169862198Y-41878930D03*
D11*
X45395136Y-95534008D03*
D13*
X211301086Y-99857002D03*
D14*
X205988494Y-101280507D03*
D13*
X200675902Y-102704012D03*
X229961814Y-99953153D03*
D14*
X224649222Y-101376658D03*
D13*
X219336630Y-102800163D03*
X248598641Y-99960057D03*
D14*
X243286049Y-101383562D03*
D13*
X237973457Y-102807067D03*
X267259381Y-100056207D03*
D14*
X261946789Y-101479712D03*
D13*
X256634197Y-102903217D03*
X44455848Y-86523604D03*
D14*
X39143256Y-85100099D03*
D13*
X33830664Y-83676594D03*
X63127710Y-86385915D03*
D14*
X57815118Y-84962410D03*
D13*
X52502526Y-83538905D03*
X81764420Y-86379414D03*
D14*
X76451828Y-84955909D03*
D13*
X71139236Y-83532404D03*
X116736261Y-94956036D03*
D14*
X111423669Y-93532531D03*
D13*
X106111077Y-92109026D03*
X133047381Y-103628815D03*
D14*
X127734789Y-102205310D03*
D13*
X122422197Y-100781805D03*
X174278945Y-100781800D03*
D14*
X168966353Y-102205305D03*
D13*
X163653761Y-103628810D03*
X137447294Y-87208078D03*
D14*
X132134702Y-85784573D03*
D13*
X126822110Y-84361068D03*
X100425155Y-86283271D03*
D14*
X95112563Y-84859766D03*
D13*
X89799971Y-83436261D03*
X190590053Y-92109034D03*
D14*
X185277461Y-93532539D03*
D13*
X179964869Y-94956044D03*
X206901169Y-83436261D03*
D14*
X201588577Y-84859766D03*
D13*
X196275985Y-86283271D03*
X225561905Y-83532411D03*
D14*
X220249313Y-84955916D03*
D13*
X214936721Y-86379421D03*
X244198716Y-83539319D03*
D14*
X238886124Y-84962824D03*
D13*
X233573532Y-86386329D03*
X262859459Y-83635467D03*
D14*
X257546867Y-85058972D03*
D13*
X252234275Y-86482477D03*
X48855772Y-70102858D03*
D14*
X43543180Y-68679353D03*
D13*
X38230588Y-67255848D03*
X183078809Y-133622963D03*
D14*
X177766217Y-135046468D03*
D13*
X172453625Y-136469973D03*
X67527634Y-69965183D03*
D14*
X62215042Y-68541678D03*
D13*
X56902450Y-67118173D03*
X258459519Y-67214719D03*
D14*
X253146927Y-68638224D03*
D13*
X247834335Y-70061729D03*
X186190134Y-75688295D03*
D14*
X180877542Y-77111800D03*
D13*
X175564950Y-78535305D03*
X202501241Y-67015521D03*
D14*
X197188649Y-68439026D03*
D13*
X191876057Y-69862531D03*
X121136190Y-78535301D03*
D14*
X115823598Y-77111796D03*
D13*
X110511006Y-75688291D03*
X128647451Y-120049550D03*
D14*
X123334859Y-118626045D03*
D13*
X118022267Y-117202540D03*
X239798806Y-67118579D03*
D14*
X234486214Y-68542084D03*
D13*
X229173622Y-69965589D03*
X86164341Y-69958683D03*
D14*
X80851749Y-68535178D03*
D13*
X75539157Y-67111673D03*
X104825079Y-69862541D03*
D14*
X99512487Y-68439036D03*
D13*
X94199895Y-67015531D03*
X40055916Y-102944347D03*
D14*
X34743324Y-101520842D03*
D13*
X29430732Y-100097337D03*
X58727776Y-102806654D03*
D14*
X53415184Y-101383149D03*
D13*
X48102592Y-99959644D03*
X77364501Y-102800164D03*
D14*
X72051909Y-101376659D03*
D13*
X66739317Y-99953154D03*
X96025236Y-102704022D03*
D14*
X90712644Y-101280517D03*
D13*
X85400052Y-99857012D03*
X112336346Y-111376773D03*
D14*
X107023754Y-109953268D03*
D13*
X101711162Y-108529763D03*
X178678879Y-117202549D03*
D14*
X173366287Y-118626054D03*
D13*
X168053695Y-120049559D03*
X194989982Y-108529773D03*
D14*
X189677390Y-109953278D03*
D13*
X184364798Y-111376783D03*
X221161974Y-67111678D03*
D14*
X215849382Y-68535183D03*
D13*
X210536790Y-69958688D03*
X169879028Y-84361064D03*
D14*
X164566436Y-85784569D03*
D13*
X159253844Y-87208074D03*
X201936816Y-127850672D03*
D14*
X196436816Y-127850672D03*
D13*
X190936816Y-127850672D03*
X124247529Y-136470290D03*
D14*
X118934937Y-135046785D03*
D13*
X113622345Y-133623280D03*
X105764573Y-127850999D03*
D14*
X100264573Y-127850999D03*
D13*
X94764573Y-127850999D03*
X144850564Y-137824528D03*
D14*
X139350564Y-137824528D03*
D13*
X133850564Y-137824528D03*
X219937165Y-122368497D03*
D14*
X214437165Y-122368497D03*
D13*
X208937165Y-122368497D03*
X235398870Y-50697822D03*
D14*
X230086278Y-52121327D03*
D13*
X224773686Y-53544832D03*
X254059636Y-50793972D03*
D14*
X248747044Y-52217477D03*
D13*
X243434452Y-53640982D03*
X90564273Y-53537908D03*
D14*
X85251681Y-52114403D03*
D13*
X79939089Y-50690898D03*
X87764573Y-122368996D03*
D14*
X82264573Y-122368996D03*
D13*
X76764573Y-122368996D03*
X53255735Y-53682073D03*
D14*
X47943143Y-52258568D03*
D13*
X42630551Y-50835063D03*
X198101365Y-50594758D03*
D14*
X192788773Y-52018263D03*
D13*
X187476181Y-53441768D03*
X165479142Y-67940327D03*
D14*
X160166550Y-69363832D03*
D13*
X154853958Y-70787337D03*
X125536101Y-62114583D03*
D14*
X120223509Y-60691078D03*
D13*
X114910917Y-59267573D03*
X71927547Y-53544396D03*
D14*
X66614955Y-52120891D03*
D13*
X61302363Y-50697386D03*
X109225031Y-53441758D03*
D14*
X103912439Y-52018253D03*
D13*
X98599847Y-50594748D03*
X216762024Y-50690916D03*
D14*
X211449432Y-52114421D03*
D13*
X206136840Y-53537926D03*
X181790200Y-59267595D03*
D14*
X176477608Y-60691100D03*
D13*
X171165016Y-62114605D03*
X162850563Y-137824532D03*
D14*
X157350563Y-137824532D03*
D13*
X151850563Y-137824532D03*
X141847256Y-70787321D03*
D14*
X136534664Y-69363816D03*
D13*
X131222072Y-67940311D03*
M02*
