M48
INCH,TZ
T1C0.0591
T2C0.0669
T3C0.1339
T4C0.1378
%
G90
G05
T1
X55575Y-43366
X56288Y-40704
X60600Y-40709
X61314Y-43371
T2
X11587Y-39408
X13319Y-32944
X15051Y-26479
X15770Y-40529
X16784Y-20014
X17502Y-34064
X18938Y-39354
X19235Y-27600
X20670Y-32889
X20967Y-21135
X22403Y-26424
X23121Y-40475
X24135Y-19960
X24853Y-34010
X26275Y-39352
X26586Y-27545
X28008Y-32887
X28318Y-21080
X29740Y-26422
X30222Y-48177
X30458Y-40473
X31472Y-19957
X32191Y-34008
X33622Y-39314
X33923Y-27543
X34553Y-48177
X35354Y-32849
X35655Y-21078
X37087Y-26384
X37309Y-50335
X37805Y-40435
X38819Y-19919
X39537Y-33970
X40044Y-42728
X41270Y-27505
X41640Y-50335
X41776Y-36263
X43002Y-21040
X43508Y-29799
X44227Y-43849
X44733Y-52608
X45241Y-23334
X45959Y-37384
X46465Y-46143
X47691Y-30919
X48198Y-39678
X48916Y-53728
X49424Y-24455
X49930Y-33213
X50649Y-47264
X51662Y-26748
X52381Y-40799
X52697Y-54262
X54113Y-34334
X55845Y-27869
X57028Y-54262
X59784Y-54262
X60966Y-27869
X62698Y-34334
X64114Y-54262
X64431Y-40799
X65149Y-26748
X66163Y-47264
X66882Y-33213
X67388Y-24455
X67895Y-53728
X68614Y-39678
X69120Y-30919
X70346Y-46143
X70852Y-37384
X71571Y-23334
X72078Y-52607
X72585Y-43849
X73303Y-29799
X73810Y-21040
X75035Y-36263
X75172Y-50335
X75542Y-27505
X76768Y-42728
X77274Y-33970
X77993Y-19919
X79006Y-40435
X79503Y-50335
X79725Y-26384
X81156Y-21078
X81457Y-32849
X82259Y-48177
X82889Y-27543
X83189Y-39314
X84621Y-34008
X85339Y-19957
X86353Y-40473
X86589Y-48177
X87072Y-26422
X88494Y-21081
X88804Y-32887
X90226Y-27546
X90536Y-39352
X91958Y-34010
X92677Y-19960
X93690Y-40475
X94409Y-26425
X95840Y-21118
X96141Y-32889
X97573Y-27583
X97873Y-39354
X99305Y-34048
X100023Y-19998
X101037Y-40513
X101756Y-26462
X103488Y-32927
X105220Y-39392
T3
X13678Y-39969
X15411Y-33504
X17143Y-27039
X18875Y-20574
X21030Y-39915
X22762Y-33450
X24494Y-26985
X26226Y-20520
X28367Y-39912
X30099Y-33447
X31831Y-26982
X32388Y-48177
X33564Y-20517
X35714Y-39874
X37446Y-33409
X39178Y-26945
X39474Y-50335
X40910Y-20480
X42135Y-43289
X43868Y-36824
X45600Y-30359
X46825Y-53168
X47332Y-23894
X48557Y-46703
X50289Y-40238
X52022Y-33773
X53754Y-27309
X54862Y-54262
X61949Y-54262
X63058Y-27309
X64790Y-33773
X66522Y-40238
X68254Y-46703
X69479Y-23894
X69987Y-53168
X71212Y-30359
X72944Y-36824
X74676Y-43289
X75901Y-20480
X77337Y-50335
X77633Y-26944
X79366Y-33409
X81098Y-39874
X83248Y-20517
X84424Y-48177
X84980Y-26982
X86712Y-33447
X88445Y-39912
X90585Y-20520
X92317Y-26985
X94050Y-33450
X95782Y-39915
X97932Y-20558
X99664Y-27023
X101396Y-33488
X103129Y-39953
T4
X17872Y-37612
X21337Y-24682
X43126Y-26230
X44359Y-49044
X72444Y-49044
X73677Y-26230
X95471Y-24698
X98935Y-37628
T0
M30
