<?xml version="1.0" standalone="no"?>
 <!DOCTYPE svg PUBLIC "-//W3C//DTD SVG 1.1//EN" 
 "http://www.w3.org/Graphics/SVG/1.1/DTD/svg11.dtd"> 
<svg
  xmlns:svg="http://www.w3.org/2000/svg"
  xmlns="http://www.w3.org/2000/svg"
  xmlns:xlink="http://www.w3.org/1999/xlink"
  version="1.1"
  width="297.0022mm" height="210.0072mm" viewBox="0.0000 0.0000 297.0022 210.0072">
<title>SVG Image created as ergo56-User_Comments.svg date 2023/12/21 16:16:49 </title>
  <desc>Image generated by PCBNEW </desc>
<g style="fill:#000000; fill-opacity:1.0000;stroke:#000000; stroke-opacity:1.0000;
stroke-linecap:round; stroke-linejoin:round;"
 transform="translate(0 0) scale(1 1)">
</g>
<g style="fill:#000000; fill-opacity:0.0; 
stroke:#000000; stroke-width:0.0000; stroke-opacity:1; 
stroke-linecap:round; stroke-linejoin:round;">
</g>
<g style="fill:#000000; fill-opacity:0.0; 
stroke:#000000; stroke-width:0.1500; stroke-opacity:1; 
stroke-linecap:round; stroke-linejoin:round;">
<g transform="rotate(75.000000 173.9864 39.4590)">
<text x="173.9864" y="39.4590"
textLength="3.2500" font-size="1.3333" lengthAdjust="spacingAndGlyphs"
text-anchor="middle" opacity="0">USB</text>
</g>
<g class="stroked-text"><desc>USB</desc>
<path d="M174.7515 37.9476
L173.9695 38.1571
" />
<path d="M173.9695 38.1571
L173.8899 38.2278
" />
<path d="M173.8899 38.2278
L173.8562 38.2861
" />
<path d="M173.8562 38.2861
L173.8349 38.3904
" />
<path d="M173.8349 38.3904
L173.8842 38.5744
" />
<path d="M173.8842 38.5744
L173.9548 38.6541
" />
<path d="M173.9548 38.6541
L174.0131 38.6878
" />
<path d="M174.0131 38.6878
L174.1174 38.7091
" />
<path d="M174.1174 38.7091
L174.8994 38.4996
" />
<path d="M174.0904 39.1600
L174.0813 39.3104
" />
<path d="M174.0813 39.3104
L174.1430 39.5403
" />
<path d="M174.1430 39.5403
L174.2136 39.6200
" />
<path d="M174.2136 39.6200
L174.2719 39.6537
" />
<path d="M174.2719 39.6537
L174.3763 39.6750
" />
<path d="M174.3763 39.6750
L174.4682 39.6504
" />
<path d="M174.4682 39.6504
L174.5479 39.5797
" />
<path d="M174.5479 39.5797
L174.5816 39.5214
" />
<path d="M174.5816 39.5214
L174.6029 39.4171
" />
<path d="M174.6029 39.4171
L174.5996 39.2208
" />
<path d="M174.5996 39.2208
L174.6210 39.1165
" />
<path d="M174.6210 39.1165
L174.6547 39.0581
" />
<path d="M174.6547 39.0581
L174.7343 38.9875
" />
<path d="M174.7343 38.9875
L174.8263 38.9629
" />
<path d="M174.8263 38.9629
L174.9306 38.9842
" />
<path d="M174.9306 38.9842
L174.9890 39.0179
" />
<path d="M174.9890 39.0179
L175.0596 39.0975
" />
<path d="M175.0596 39.0975
L175.1212 39.3275
" />
<path d="M175.1212 39.3275
L175.1122 39.4778
" />
<path d="M174.8954 40.3247
L174.8864 40.4750
" />
<path d="M174.8864 40.4750
L174.8527 40.5333
" />
<path d="M174.8527 40.5333
L174.7731 40.6040
" />
<path d="M174.7731 40.6040
L174.6351 40.6410
" />
<path d="M174.6351 40.6410
L174.5308 40.6196
" />
<path d="M174.5308 40.6196
L174.4724 40.5859
" />
<path d="M174.4724 40.5859
L174.4018 40.5063
" />
<path d="M174.4018 40.5063
L174.3032 40.1383
" />
<path d="M174.3032 40.1383
L175.2691 39.8795
" />
<path d="M175.2691 39.8795
L175.3554 40.2015
" />
<path d="M175.3554 40.2015
L175.3340 40.3058
" />
<path d="M175.3340 40.3058
L175.3004 40.3641
" />
<path d="M175.3004 40.3641
L175.2207 40.4347
" />
<path d="M175.2207 40.4347
L175.1287 40.4594
" />
<path d="M175.1287 40.4594
L175.0244 40.4380
" />
<path d="M175.0244 40.4380
L174.9661 40.4044
" />
<path d="M174.9661 40.4044
L174.8954 40.3247
" />
<path d="M174.8954 40.3247
L174.8092 40.0027
" />
</g><g transform="rotate(-15.000000 204.7720 96.7407)">
<text x="204.7720" y="97.2407"
textLength="2.9643" font-size="1.3333" lengthAdjust="spacingAndGlyphs"
text-anchor="middle" opacity="0">LED</text>
</g>
<g class="stroked-text"><desc>LED</desc>
<path d="M204.2688 97.3464
L203.8088 97.4696
" />
<path d="M203.8088 97.4696
L203.5500 96.5037
" />
<path d="M204.4552 96.7541
L204.7772 96.6679
" />
<path d="M205.0507 97.1368
L204.5908 97.2601
" />
<path d="M204.5908 97.2601
L204.3320 96.2942
" />
<path d="M204.3320 96.2942
L204.7919 96.1709
" />
<path d="M205.4647 97.0259
L205.2059 96.0600
" />
<path d="M205.2059 96.0600
L205.4359 95.9984
" />
<path d="M205.4359 95.9984
L205.5862 96.0074
" />
<path d="M205.5862 96.0074
L205.7028 96.0747
" />
<path d="M205.7028 96.0747
L205.7735 96.1544
" />
<path d="M205.7735 96.1544
L205.8688 96.3261
" />
<path d="M205.8688 96.3261
L205.9057 96.4641
" />
<path d="M205.9057 96.4641
L205.9091 96.6604
" />
<path d="M205.9091 96.6604
L205.8877 96.7647
" />
<path d="M205.8877 96.7647
L205.8204 96.8813
" />
<path d="M205.8204 96.8813
L205.6947 96.9643
" />
<path d="M205.6947 96.9643
L205.4647 97.0259
" />
</g><g transform="rotate(-15.000000 223.4328 96.8368)">
<text x="223.4328" y="97.3368"
textLength="2.9643" font-size="1.3333" lengthAdjust="spacingAndGlyphs"
text-anchor="middle" opacity="0">LED</text>
</g>
<g class="stroked-text"><desc>LED</desc>
<path d="M222.9295 97.4425
L222.4696 97.5658
" />
<path d="M222.4696 97.5658
L222.2108 96.5998
" />
<path d="M223.1159 96.8503
L223.4379 96.7640
" />
<path d="M223.7115 97.2330
L223.2515 97.3562
" />
<path d="M223.2515 97.3562
L222.9927 96.3903
" />
<path d="M222.9927 96.3903
L223.4527 96.2671
" />
<path d="M224.1254 97.1221
L223.8666 96.1561
" />
<path d="M223.8666 96.1561
L224.0966 96.0945
" />
<path d="M224.0966 96.0945
L224.2469 96.1035
" />
<path d="M224.2469 96.1035
L224.3636 96.1709
" />
<path d="M224.3636 96.1709
L224.4342 96.2506
" />
<path d="M224.4342 96.2506
L224.5295 96.4222
" />
<path d="M224.5295 96.4222
L224.5665 96.5602
" />
<path d="M224.5665 96.5602
L224.5698 96.7565
" />
<path d="M224.5698 96.7565
L224.5484 96.8608
" />
<path d="M224.5484 96.8608
L224.4811 96.9775
" />
<path d="M224.4811 96.9775
L224.3554 97.0604
" />
<path d="M224.3554 97.0604
L224.1254 97.1221
" />
</g><g transform="rotate(-15.000000 242.0696 96.8437)">
<text x="242.0696" y="97.3437"
textLength="2.9643" font-size="1.3333" lengthAdjust="spacingAndGlyphs"
text-anchor="middle" opacity="0">LED</text>
</g>
<g class="stroked-text"><desc>LED</desc>
<path d="M241.5664 97.4494
L241.1064 97.5727
" />
<path d="M241.1064 97.5727
L240.8476 96.6067
" />
<path d="M241.7528 96.8572
L242.0747 96.7709
" />
<path d="M242.3483 97.2399
L241.8883 97.3631
" />
<path d="M241.8883 97.3631
L241.6295 96.3972
" />
<path d="M241.6295 96.3972
L242.0895 96.2740
" />
<path d="M242.7623 97.1290
L242.5035 96.1630
" />
<path d="M242.5035 96.1630
L242.7334 96.1014
" />
<path d="M242.7334 96.1014
L242.8837 96.1104
" />
<path d="M242.8837 96.1104
L243.0004 96.1778
" />
<path d="M243.0004 96.1778
L243.0710 96.2575
" />
<path d="M243.0710 96.2575
L243.1663 96.4291
" />
<path d="M243.1663 96.4291
L243.2033 96.5671
" />
<path d="M243.2033 96.5671
L243.2066 96.7634
" />
<path d="M243.2066 96.7634
L243.1853 96.8677
" />
<path d="M243.1853 96.8677
L243.1179 96.9844
" />
<path d="M243.1179 96.9844
L242.9923 97.0673
" />
<path d="M242.9923 97.0673
L242.7623 97.1290
" />
</g><g transform="rotate(-15.000000 260.7303 96.9399)">
<text x="260.7303" y="97.4399"
textLength="2.9643" font-size="1.3333" lengthAdjust="spacingAndGlyphs"
text-anchor="middle" opacity="0">LED</text>
</g>
<g class="stroked-text"><desc>LED</desc>
<path d="M260.2271 97.5456
L259.7671 97.6688
" />
<path d="M259.7671 97.6688
L259.5083 96.7029
" />
<path d="M260.4135 96.9533
L260.7355 96.8671
" />
<path d="M261.0090 97.3360
L260.5491 97.4593
" />
<path d="M260.5491 97.4593
L260.2903 96.4934
" />
<path d="M260.2903 96.4934
L260.7502 96.3701
" />
<path d="M261.4230 97.2251
L261.1642 96.2592
" />
<path d="M261.1642 96.2592
L261.3942 96.1976
" />
<path d="M261.3942 96.1976
L261.5445 96.2066
" />
<path d="M261.5445 96.2066
L261.6611 96.2739
" />
<path d="M261.6611 96.2739
L261.7318 96.3536
" />
<path d="M261.7318 96.3536
L261.8271 96.5253
" />
<path d="M261.8271 96.5253
L261.8640 96.6633
" />
<path d="M261.8640 96.6633
L261.8673 96.8596
" />
<path d="M261.8673 96.8596
L261.8460 96.9639
" />
<path d="M261.8460 96.9639
L261.7787 97.0805
" />
<path d="M261.7787 97.0805
L261.6530 97.1635
" />
<path d="M261.6530 97.1635
L261.4230 97.2251
" />
</g><g transform="rotate(-345.000000 40.3597 80.5602)">
<text x="40.3597" y="81.0602"
textLength="2.9643" font-size="1.3333" lengthAdjust="spacingAndGlyphs"
text-anchor="middle" opacity="0">LED</text>
</g>
<g class="stroked-text"><desc>LED</desc>
<path d="M39.6210 80.8332
L39.1611 80.7099
" />
<path d="M39.1611 80.7099
L39.4199 79.7440
" />
<path d="M40.0786 80.4135
L40.4006 80.4998
" />
<path d="M40.4030 81.0427
L39.9430 80.9195
" />
<path d="M39.9430 80.9195
L40.2018 79.9535
" />
<path d="M40.2018 79.9535
L40.6618 80.0768
" />
<path d="M40.8169 81.1536
L41.0758 80.1877
" />
<path d="M41.0758 80.1877
L41.3057 80.2493
" />
<path d="M41.3057 80.2493
L41.4314 80.3323
" />
<path d="M41.4314 80.3323
L41.4988 80.4489
" />
<path d="M41.4988 80.4489
L41.5201 80.5533
" />
<path d="M41.5201 80.5533
L41.5168 80.7496
" />
<path d="M41.5168 80.7496
L41.4798 80.8876
" />
<path d="M41.4798 80.8876
L41.3845 81.0592
" />
<path d="M41.3845 81.0592
L41.3139 81.1389
" />
<path d="M41.3139 81.1389
L41.1972 81.2062
" />
<path d="M41.1972 81.2062
L41.0469 81.2153
" />
<path d="M41.0469 81.2153
L40.8169 81.1536
" />
</g><g transform="rotate(-345.000000 59.0316 80.4226)">
<text x="59.0316" y="80.9226"
textLength="2.9643" font-size="1.3333" lengthAdjust="spacingAndGlyphs"
text-anchor="middle" opacity="0">LED</text>
</g>
<g class="stroked-text"><desc>LED</desc>
<path d="M58.2929 80.6955
L57.8329 80.5722
" />
<path d="M57.8329 80.5722
L58.0918 79.6063
" />
<path d="M58.7504 80.2758
L59.0724 80.3621
" />
<path d="M59.0748 80.9050
L58.6149 80.7818
" />
<path d="M58.6149 80.7818
L58.8737 79.8158
" />
<path d="M58.8737 79.8158
L59.3337 79.9391
" />
<path d="M59.4888 81.0159
L59.7476 80.0500
" />
<path d="M59.7476 80.0500
L59.9776 80.1116
" />
<path d="M59.9776 80.1116
L60.1033 80.1946
" />
<path d="M60.1033 80.1946
L60.1706 80.3113
" />
<path d="M60.1706 80.3113
L60.1920 80.4156
" />
<path d="M60.1920 80.4156
L60.1887 80.6119
" />
<path d="M60.1887 80.6119
L60.1517 80.7499
" />
<path d="M60.1517 80.7499
L60.0564 80.9215
" />
<path d="M60.0564 80.9215
L59.9857 81.0012
" />
<path d="M59.9857 81.0012
L59.8691 81.0685
" />
<path d="M59.8691 81.0685
L59.7188 81.0776
" />
<path d="M59.7188 81.0776
L59.4888 81.0159
" />
</g><g transform="rotate(-345.000000 77.6683 80.4161)">
<text x="77.6683" y="80.9161"
textLength="2.9643" font-size="1.3333" lengthAdjust="spacingAndGlyphs"
text-anchor="middle" opacity="0">LED</text>
</g>
<g class="stroked-text"><desc>LED</desc>
<path d="M76.9296 80.6890
L76.4696 80.5657
" />
<path d="M76.4696 80.5657
L76.7285 79.5998
" />
<path d="M77.3872 80.2693
L77.7091 80.3556
" />
<path d="M77.7115 80.8985
L77.2516 80.7753
" />
<path d="M77.2516 80.7753
L77.5104 79.8093
" />
<path d="M77.5104 79.8093
L77.9704 79.9326
" />
<path d="M78.1255 81.0094
L78.3843 80.0435
" />
<path d="M78.3843 80.0435
L78.6143 80.1051
" />
<path d="M78.6143 80.1051
L78.7400 80.1881
" />
<path d="M78.7400 80.1881
L78.8073 80.3047
" />
<path d="M78.8073 80.3047
L78.8287 80.4091
" />
<path d="M78.8287 80.4091
L78.8254 80.6054
" />
<path d="M78.8254 80.6054
L78.7884 80.7434
" />
<path d="M78.7884 80.7434
L78.6931 80.9150
" />
<path d="M78.6931 80.9150
L78.6225 80.9947
" />
<path d="M78.6225 80.9947
L78.5058 81.0620
" />
<path d="M78.5058 81.0620
L78.3555 81.0711
" />
<path d="M78.3555 81.0711
L78.1255 81.0094
" />
</g><g transform="rotate(-345.000000 112.6401 88.9927)">
<text x="112.6401" y="89.4927"
textLength="2.9643" font-size="1.3333" lengthAdjust="spacingAndGlyphs"
text-anchor="middle" opacity="0">LED</text>
</g>
<g class="stroked-text"><desc>LED</desc>
<path d="M111.9014 89.2656
L111.4415 89.1424
" />
<path d="M111.4415 89.1424
L111.7003 88.1764
" />
<path d="M112.3590 88.8459
L112.6810 88.9322
" />
<path d="M112.6834 89.4751
L112.2234 89.3519
" />
<path d="M112.2234 89.3519
L112.4822 88.3860
" />
<path d="M112.4822 88.3860
L112.9422 88.5092
" />
<path d="M113.0974 89.5861
L113.3562 88.6201
" />
<path d="M113.3562 88.6201
L113.5862 88.6818
" />
<path d="M113.5862 88.6818
L113.7118 88.7647
" />
<path d="M113.7118 88.7647
L113.7792 88.8814
" />
<path d="M113.7792 88.8814
L113.8005 88.9857
" />
<path d="M113.8005 88.9857
L113.7972 89.1820
" />
<path d="M113.7972 89.1820
L113.7602 89.3200
" />
<path d="M113.7602 89.3200
L113.6649 89.4916
" />
<path d="M113.6649 89.4916
L113.5943 89.5713
" />
<path d="M113.5943 89.5713
L113.4777 89.6387
" />
<path d="M113.4777 89.6387
L113.3273 89.6477
" />
<path d="M113.3273 89.6477
L113.0974 89.5861
" />
</g><g transform="rotate(-345.000000 128.9512 97.6655)">
<text x="128.9512" y="98.1655"
textLength="2.9643" font-size="1.3333" lengthAdjust="spacingAndGlyphs"
text-anchor="middle" opacity="0">LED</text>
</g>
<g class="stroked-text"><desc>LED</desc>
<path d="M128.2126 97.9384
L127.7526 97.8151
" />
<path d="M127.7526 97.8151
L128.0114 96.8492
" />
<path d="M128.6701 97.5187
L128.9921 97.6050
" />
<path d="M128.9945 98.1479
L128.5345 98.0247
" />
<path d="M128.5345 98.0247
L128.7934 97.0587
" />
<path d="M128.7934 97.0587
L129.2533 97.1820
" />
<path d="M129.4085 98.2588
L129.6673 97.2929
" />
<path d="M129.6673 97.2929
L129.8973 97.3545
" />
<path d="M129.8973 97.3545
L130.0229 97.4375
" />
<path d="M130.0229 97.4375
L130.0903 97.5541
" />
<path d="M130.0903 97.5541
L130.1116 97.6585
" />
<path d="M130.1116 97.6585
L130.1083 97.8548
" />
<path d="M130.1083 97.8548
L130.0714 97.9928
" />
<path d="M130.0714 97.9928
L129.9761 98.1644
" />
<path d="M129.9761 98.1644
L129.9054 98.2441
" />
<path d="M129.9054 98.2441
L129.7888 98.3114
" />
<path d="M129.7888 98.3114
L129.6385 98.3205
" />
<path d="M129.6385 98.3205
L129.4085 98.2588
" />
</g><g transform="rotate(-15.000000 167.7499 97.6655)">
<text x="167.7499" y="98.1655"
textLength="2.9643" font-size="1.3333" lengthAdjust="spacingAndGlyphs"
text-anchor="middle" opacity="0">LED</text>
</g>
<g class="stroked-text"><desc>LED</desc>
<path d="M167.2467 98.2712
L166.7867 98.3944
" />
<path d="M166.7867 98.3944
L166.5279 97.4285
" />
<path d="M167.4331 97.6789
L167.7550 97.5927
" />
<path d="M168.0286 98.0616
L167.5686 98.1849
" />
<path d="M167.5686 98.1849
L167.3098 97.2190
" />
<path d="M167.3098 97.2190
L167.7698 97.0957
" />
<path d="M168.4426 97.9507
L168.1838 96.9848
" />
<path d="M168.1838 96.9848
L168.4137 96.9232
" />
<path d="M168.4137 96.9232
L168.5641 96.9322
" />
<path d="M168.5641 96.9322
L168.6807 96.9995
" />
<path d="M168.6807 96.9995
L168.7513 97.0792
" />
<path d="M168.7513 97.0792
L168.8466 97.2509
" />
<path d="M168.8466 97.2509
L168.8836 97.3889
" />
<path d="M168.8836 97.3889
L168.8869 97.5852
" />
<path d="M168.8869 97.5852
L168.8656 97.6895
" />
<path d="M168.8656 97.6895
L168.7982 97.8061
" />
<path d="M168.7982 97.8061
L168.6726 97.8891
" />
<path d="M168.6726 97.8891
L168.4426 97.9507
" />
</g><g transform="rotate(-345.000000 133.3512 81.2447)">
<text x="133.3512" y="81.7447"
textLength="2.9643" font-size="1.3333" lengthAdjust="spacingAndGlyphs"
text-anchor="middle" opacity="0">LED</text>
</g>
<g class="stroked-text"><desc>LED</desc>
<path d="M132.6125 81.5177
L132.1525 81.3944
" />
<path d="M132.1525 81.3944
L132.4113 80.4285
" />
<path d="M133.0700 81.0980
L133.3920 81.1842
" />
<path d="M133.3944 81.7272
L132.9345 81.6039
" />
<path d="M132.9345 81.6039
L133.1933 80.6380
" />
<path d="M133.1933 80.6380
L133.6532 80.7613
" />
<path d="M133.8084 81.8381
L134.0672 80.8722
" />
<path d="M134.0672 80.8722
L134.2972 80.9338
" />
<path d="M134.2972 80.9338
L134.4229 81.0168
" />
<path d="M134.4229 81.0168
L134.4902 81.1334
" />
<path d="M134.4902 81.1334
L134.5115 81.2377
" />
<path d="M134.5115 81.2377
L134.5082 81.4340
" />
<path d="M134.5082 81.4340
L134.4713 81.5720
" />
<path d="M134.4713 81.5720
L134.3760 81.7437
" />
<path d="M134.3760 81.7437
L134.3053 81.8234
" />
<path d="M134.3053 81.8234
L134.1887 81.8907
" />
<path d="M134.1887 81.8907
L134.0384 81.8997
" />
<path d="M134.0384 81.8997
L133.8084 81.8381
" />
</g><g transform="rotate(-345.000000 96.3290 80.3199)">
<text x="96.3290" y="80.8199"
textLength="2.9643" font-size="1.3333" lengthAdjust="spacingAndGlyphs"
text-anchor="middle" opacity="0">LED</text>
</g>
<g class="stroked-text"><desc>LED</desc>
<path d="M95.5903 80.5929
L95.1304 80.4696
" />
<path d="M95.1304 80.4696
L95.3892 79.5037
" />
<path d="M96.0479 80.1732
L96.3699 80.2594
" />
<path d="M96.3723 80.8024
L95.9123 80.6791
" />
<path d="M95.9123 80.6791
L96.1711 79.7132
" />
<path d="M96.1711 79.7132
L96.6311 79.8364
" />
<path d="M96.7863 80.9133
L97.0451 79.9474
" />
<path d="M97.0451 79.9474
L97.2751 80.0090
" />
<path d="M97.2751 80.0090
L97.4007 80.0920
" />
<path d="M97.4007 80.0920
L97.4681 80.2086
" />
<path d="M97.4681 80.2086
L97.4894 80.3129
" />
<path d="M97.4894 80.3129
L97.4861 80.5092
" />
<path d="M97.4861 80.5092
L97.4491 80.6472
" />
<path d="M97.4491 80.6472
L97.3538 80.8189
" />
<path d="M97.3538 80.8189
L97.2832 80.8986
" />
<path d="M97.2832 80.8986
L97.1665 80.9659
" />
<path d="M97.1665 80.9659
L97.0162 80.9749
" />
<path d="M97.0162 80.9749
L96.7863 80.9133
" />
</g><g transform="rotate(-15.000000 184.0610 88.9927)">
<text x="184.0610" y="89.4927"
textLength="2.9643" font-size="1.3333" lengthAdjust="spacingAndGlyphs"
text-anchor="middle" opacity="0">LED</text>
</g>
<g class="stroked-text"><desc>LED</desc>
<path d="M183.5578 89.5984
L183.0978 89.7216
" />
<path d="M183.0978 89.7216
L182.8390 88.7557
" />
<path d="M183.7442 89.0062
L184.0662 88.9199
" />
<path d="M184.3397 89.3889
L183.8797 89.5121
" />
<path d="M183.8797 89.5121
L183.6209 88.5462
" />
<path d="M183.6209 88.5462
L184.0809 88.4229
" />
<path d="M184.7537 89.2779
L184.4949 88.3120
" />
<path d="M184.4949 88.3120
L184.7248 88.2504
" />
<path d="M184.7248 88.2504
L184.8752 88.2594
" />
<path d="M184.8752 88.2594
L184.9918 88.3268
" />
<path d="M184.9918 88.3268
L185.0624 88.4064
" />
<path d="M185.0624 88.4064
L185.1577 88.5781
" />
<path d="M185.1577 88.5781
L185.1947 88.7161
" />
<path d="M185.1947 88.7161
L185.1980 88.9124
" />
<path d="M185.1980 88.9124
L185.1767 89.0167
" />
<path d="M185.1767 89.0167
L185.1093 89.1334
" />
<path d="M185.1093 89.1334
L184.9837 89.2163
" />
<path d="M184.9837 89.2163
L184.7537 89.2779
" />
</g><g transform="rotate(-15.000000 200.3721 80.3199)">
<text x="200.3721" y="80.8199"
textLength="2.9643" font-size="1.3333" lengthAdjust="spacingAndGlyphs"
text-anchor="middle" opacity="0">LED</text>
</g>
<g class="stroked-text"><desc>LED</desc>
<path d="M199.8689 80.9256
L199.4089 81.0489
" />
<path d="M199.4089 81.0489
L199.1501 80.0829
" />
<path d="M200.0553 80.3334
L200.3773 80.2471
" />
<path d="M200.6508 80.7161
L200.1909 80.8393
" />
<path d="M200.1909 80.8393
L199.9320 79.8734
" />
<path d="M199.9320 79.8734
L200.3920 79.7502
" />
<path d="M201.0648 80.6052
L200.8060 79.6393
" />
<path d="M200.8060 79.6393
L201.0360 79.5776
" />
<path d="M201.0360 79.5776
L201.1863 79.5866
" />
<path d="M201.1863 79.5866
L201.3029 79.6540
" />
<path d="M201.3029 79.6540
L201.3736 79.7337
" />
<path d="M201.3736 79.7337
L201.4689 79.9053
" />
<path d="M201.4689 79.9053
L201.5058 80.0433
" />
<path d="M201.5058 80.0433
L201.5091 80.2396
" />
<path d="M201.5091 80.2396
L201.4878 80.3439
" />
<path d="M201.4878 80.3439
L201.4204 80.4606
" />
<path d="M201.4204 80.4606
L201.2948 80.5436
" />
<path d="M201.2948 80.5436
L201.0648 80.6052
" />
</g><g transform="rotate(-15.000000 219.0329 80.4161)">
<text x="219.0329" y="80.9161"
textLength="2.9643" font-size="1.3333" lengthAdjust="spacingAndGlyphs"
text-anchor="middle" opacity="0">LED</text>
</g>
<g class="stroked-text"><desc>LED</desc>
<path d="M218.5296 81.0218
L218.0697 81.1450
" />
<path d="M218.0697 81.1450
L217.8108 80.1791
" />
<path d="M218.7160 80.4295
L219.0380 80.3433
" />
<path d="M219.3116 80.8122
L218.8516 80.9355
" />
<path d="M218.8516 80.9355
L218.5928 79.9696
" />
<path d="M218.5928 79.9696
L219.0527 79.8463
" />
<path d="M219.7255 80.7013
L219.4667 79.7354
" />
<path d="M219.4667 79.7354
L219.6967 79.6738
" />
<path d="M219.6967 79.6738
L219.8470 79.6828
" />
<path d="M219.8470 79.6828
L219.9637 79.7501
" />
<path d="M219.9637 79.7501
L220.0343 79.8298
" />
<path d="M220.0343 79.8298
L220.1296 80.0015
" />
<path d="M220.1296 80.0015
L220.1666 80.1395
" />
<path d="M220.1666 80.1395
L220.1699 80.3358
" />
<path d="M220.1699 80.3358
L220.1485 80.4401
" />
<path d="M220.1485 80.4401
L220.0812 80.5567
" />
<path d="M220.0812 80.5567
L219.9555 80.6397
" />
<path d="M219.9555 80.6397
L219.7255 80.7013
" />
</g><g transform="rotate(-15.000000 237.6697 80.4230)">
<text x="237.6697" y="80.9230"
textLength="2.9643" font-size="1.3333" lengthAdjust="spacingAndGlyphs"
text-anchor="middle" opacity="0">LED</text>
</g>
<g class="stroked-text"><desc>LED</desc>
<path d="M237.1664 81.0287
L236.7065 81.1519
" />
<path d="M236.7065 81.1519
L236.4477 80.1860
" />
<path d="M237.3528 80.4364
L237.6748 80.3502
" />
<path d="M237.9484 80.8192
L237.4884 80.9424
" />
<path d="M237.4884 80.9424
L237.2296 79.9765
" />
<path d="M237.2296 79.9765
L237.6896 79.8532
" />
<path d="M238.3623 80.7082
L238.1035 79.7423
" />
<path d="M238.1035 79.7423
L238.3335 79.6807
" />
<path d="M238.3335 79.6807
L238.4838 79.6897
" />
<path d="M238.4838 79.6897
L238.6005 79.7571
" />
<path d="M238.6005 79.7571
L238.6711 79.8367
" />
<path d="M238.6711 79.8367
L238.7664 80.0084
" />
<path d="M238.7664 80.0084
L238.8034 80.1464
" />
<path d="M238.8034 80.1464
L238.8067 80.3427
" />
<path d="M238.8067 80.3427
L238.7853 80.4470
" />
<path d="M238.7853 80.4470
L238.7180 80.5636
" />
<path d="M238.7180 80.5636
L238.5923 80.6466
" />
<path d="M238.5923 80.6466
L238.3623 80.7082
" />
</g><g transform="rotate(-15.000000 256.3304 80.5191)">
<text x="256.3304" y="81.0191"
textLength="2.9643" font-size="1.3333" lengthAdjust="spacingAndGlyphs"
text-anchor="middle" opacity="0">LED</text>
</g>
<g class="stroked-text"><desc>LED</desc>
<path d="M255.8272 81.1248
L255.3672 81.2481
" />
<path d="M255.3672 81.2481
L255.1084 80.2821
" />
<path d="M256.0136 80.5326
L256.3356 80.4463
" />
<path d="M256.6091 80.9153
L256.1492 81.0386
" />
<path d="M256.1492 81.0386
L255.8903 80.0726
" />
<path d="M255.8903 80.0726
L256.3503 79.9494
" />
<path d="M257.0231 80.8044
L256.7643 79.8385
" />
<path d="M256.7643 79.8385
L256.9943 79.7768
" />
<path d="M256.9943 79.7768
L257.1446 79.7859
" />
<path d="M257.1446 79.7859
L257.2612 79.8532
" />
<path d="M257.2612 79.8532
L257.3319 79.9329
" />
<path d="M257.3319 79.9329
L257.4271 80.1045
" />
<path d="M257.4271 80.1045
L257.4641 80.2425
" />
<path d="M257.4641 80.2425
L257.4674 80.4388
" />
<path d="M257.4674 80.4388
L257.4461 80.5431
" />
<path d="M257.4461 80.5431
L257.3787 80.6598
" />
<path d="M257.3787 80.6598
L257.2531 80.7428
" />
<path d="M257.2531 80.7428
L257.0231 80.8044
" />
</g><g transform="rotate(-345.000000 44.7596 64.1395)">
<text x="44.7596" y="64.6395"
textLength="2.9643" font-size="1.3333" lengthAdjust="spacingAndGlyphs"
text-anchor="middle" opacity="0">LED</text>
</g>
<g class="stroked-text"><desc>LED</desc>
<path d="M44.0210 64.4124
L43.5610 64.2892
" />
<path d="M43.5610 64.2892
L43.8198 63.3233
" />
<path d="M44.4785 63.9928
L44.8005 64.0790
" />
<path d="M44.8029 64.6220
L44.3429 64.4987
" />
<path d="M44.3429 64.4987
L44.6018 63.5328
" />
<path d="M44.6018 63.5328
L45.0617 63.6560
" />
<path d="M45.2169 64.7329
L45.4757 63.7670
" />
<path d="M45.4757 63.7670
L45.7057 63.8286
" />
<path d="M45.7057 63.8286
L45.8313 63.9115
" />
<path d="M45.8313 63.9115
L45.8987 64.0282
" />
<path d="M45.8987 64.0282
L45.9200 64.1325
" />
<path d="M45.9200 64.1325
L45.9167 64.3288
" />
<path d="M45.9167 64.3288
L45.8798 64.4668
" />
<path d="M45.8798 64.4668
L45.7845 64.6385
" />
<path d="M45.7845 64.6385
L45.7138 64.7181
" />
<path d="M45.7138 64.7181
L45.5972 64.7855
" />
<path d="M45.5972 64.7855
L45.4469 64.7945
" />
<path d="M45.4469 64.7945
L45.2169 64.7329
" />
</g><g transform="rotate(-15.000000 176.5498 130.5066)">
<text x="176.5498" y="131.0066"
textLength="2.9643" font-size="1.3333" lengthAdjust="spacingAndGlyphs"
text-anchor="middle" opacity="0">LED</text>
</g>
<g class="stroked-text"><desc>LED</desc>
<path d="M176.0465 131.1123
L175.5866 131.2356
" />
<path d="M175.5866 131.2356
L175.3277 130.2696
" />
<path d="M176.2329 130.5201
L176.5549 130.4338
" />
<path d="M176.8285 130.9028
L176.3685 131.0260
" />
<path d="M176.3685 131.0260
L176.1097 130.0601
" />
<path d="M176.1097 130.0601
L176.5697 129.9369
" />
<path d="M177.2424 130.7919
L176.9836 129.8260
" />
<path d="M176.9836 129.8260
L177.2136 129.7643
" />
<path d="M177.2136 129.7643
L177.3639 129.7734
" />
<path d="M177.3639 129.7734
L177.4806 129.8407
" />
<path d="M177.4806 129.8407
L177.5512 129.9204
" />
<path d="M177.5512 129.9204
L177.6465 130.0920
" />
<path d="M177.6465 130.0920
L177.6835 130.2300
" />
<path d="M177.6835 130.2300
L177.6868 130.4263
" />
<path d="M177.6868 130.4263
L177.6654 130.5306
" />
<path d="M177.6654 130.5306
L177.5981 130.6473
" />
<path d="M177.5981 130.6473
L177.4724 130.7303
" />
<path d="M177.4724 130.7303
L177.2424 130.7919
" />
</g><g transform="rotate(-345.000000 63.4315 64.0018)">
<text x="63.4315" y="64.5018"
textLength="2.9643" font-size="1.3333" lengthAdjust="spacingAndGlyphs"
text-anchor="middle" opacity="0">LED</text>
</g>
<g class="stroked-text"><desc>LED</desc>
<path d="M62.6928 64.2748
L62.2329 64.1515
" />
<path d="M62.2329 64.1515
L62.4917 63.1856
" />
<path d="M63.1504 63.8551
L63.4723 63.9413
" />
<path d="M63.4748 64.4843
L63.0148 64.3610
" />
<path d="M63.0148 64.3610
L63.2736 63.3951
" />
<path d="M63.2736 63.3951
L63.7336 63.5184
" />
<path d="M63.8887 64.5952
L64.1476 63.6293
" />
<path d="M64.1476 63.6293
L64.3775 63.6909
" />
<path d="M64.3775 63.6909
L64.5032 63.7739
" />
<path d="M64.5032 63.7739
L64.5705 63.8905
" />
<path d="M64.5705 63.8905
L64.5919 63.9948
" />
<path d="M64.5919 63.9948
L64.5886 64.1911
" />
<path d="M64.5886 64.1911
L64.5516 64.3291
" />
<path d="M64.5516 64.3291
L64.4563 64.5008
" />
<path d="M64.4563 64.5008
L64.3857 64.5805
" />
<path d="M64.3857 64.5805
L64.2690 64.6478
" />
<path d="M64.2690 64.6478
L64.1187 64.6568
" />
<path d="M64.1187 64.6568
L63.8887 64.5952
" />
</g><g transform="rotate(-15.000000 251.9305 64.0984)">
<text x="251.9305" y="64.5984"
textLength="2.9643" font-size="1.3333" lengthAdjust="spacingAndGlyphs"
text-anchor="middle" opacity="0">LED</text>
</g>
<g class="stroked-text"><desc>LED</desc>
<path d="M251.4272 64.7041
L250.9673 64.8273
" />
<path d="M250.9673 64.8273
L250.7085 63.8614
" />
<path d="M251.6136 64.1118
L251.9356 64.0256
" />
<path d="M252.2092 64.4946
L251.7492 64.6178
" />
<path d="M251.7492 64.6178
L251.4904 63.6519
" />
<path d="M251.4904 63.6519
L251.9504 63.5286
" />
<path d="M252.6231 64.3836
L252.3643 63.4177
" />
<path d="M252.3643 63.4177
L252.5943 63.3561
" />
<path d="M252.5943 63.3561
L252.7446 63.3651
" />
<path d="M252.7446 63.3651
L252.8613 63.4325
" />
<path d="M252.8613 63.4325
L252.9319 63.5121
" />
<path d="M252.9319 63.5121
L253.0272 63.6838
" />
<path d="M253.0272 63.6838
L253.0642 63.8218
" />
<path d="M253.0642 63.8218
L253.0675 64.0181
" />
<path d="M253.0675 64.0181
L253.0461 64.1224
" />
<path d="M253.0461 64.1224
L252.9788 64.2390
" />
<path d="M252.9788 64.2390
L252.8531 64.3220
" />
<path d="M252.8531 64.3220
L252.6231 64.3836
" />
</g><g transform="rotate(-15.000000 179.6611 72.5719)">
<text x="179.6611" y="73.0719"
textLength="2.9643" font-size="1.3333" lengthAdjust="spacingAndGlyphs"
text-anchor="middle" opacity="0">LED</text>
</g>
<g class="stroked-text"><desc>LED</desc>
<path d="M179.1579 73.1777
L178.6979 73.3009
" />
<path d="M178.6979 73.3009
L178.4391 72.3350
" />
<path d="M179.3443 72.5854
L179.6662 72.4991
" />
<path d="M179.9398 72.9681
L179.4798 73.0914
" />
<path d="M179.4798 73.0914
L179.2210 72.1255
" />
<path d="M179.2210 72.1255
L179.6810 72.0022
" />
<path d="M180.3538 72.8572
L180.0949 71.8913
" />
<path d="M180.0949 71.8913
L180.3249 71.8297
" />
<path d="M180.3249 71.8297
L180.4752 71.8387
" />
<path d="M180.4752 71.8387
L180.5919 71.9060
" />
<path d="M180.5919 71.9060
L180.6625 71.9857
" />
<path d="M180.6625 71.9857
L180.7578 72.1574
" />
<path d="M180.7578 72.1574
L180.7948 72.2953
" />
<path d="M180.7948 72.2953
L180.7981 72.4917
" />
<path d="M180.7981 72.4917
L180.7768 72.5960
" />
<path d="M180.7768 72.5960
L180.7094 72.7126
" />
<path d="M180.7094 72.7126
L180.5837 72.7956
" />
<path d="M180.5837 72.7956
L180.3538 72.8572
" />
</g><g transform="rotate(-15.000000 195.9722 63.8992)">
<text x="195.9722" y="64.3992"
textLength="2.9643" font-size="1.3333" lengthAdjust="spacingAndGlyphs"
text-anchor="middle" opacity="0">LED</text>
</g>
<g class="stroked-text"><desc>LED</desc>
<path d="M195.4690 64.5049
L195.0090 64.6281
" />
<path d="M195.0090 64.6281
L194.7502 63.6622
" />
<path d="M195.6554 63.9126
L195.9773 63.8264
" />
<path d="M196.2509 64.2954
L195.7909 64.4186
" />
<path d="M195.7909 64.4186
L195.5321 63.4527
" />
<path d="M195.5321 63.4527
L195.9921 63.3294
" />
<path d="M196.6649 64.1844
L196.4061 63.2185
" />
<path d="M196.4061 63.2185
L196.6360 63.1569
" />
<path d="M196.6360 63.1569
L196.7863 63.1659
" />
<path d="M196.7863 63.1659
L196.9030 63.2333
" />
<path d="M196.9030 63.2333
L196.9736 63.3129
" />
<path d="M196.9736 63.3129
L197.0689 63.4846
" />
<path d="M197.0689 63.4846
L197.1059 63.6226
" />
<path d="M197.1059 63.6226
L197.1092 63.8189
" />
<path d="M197.1092 63.8189
L197.0879 63.9232
" />
<path d="M197.0879 63.9232
L197.0205 64.0398
" />
<path d="M197.0205 64.0398
L196.8949 64.1228
" />
<path d="M196.8949 64.1228
L196.6649 64.1844
" />
</g><g transform="rotate(-345.000000 117.0400 72.5719)">
<text x="117.0400" y="73.0719"
textLength="2.9643" font-size="1.3333" lengthAdjust="spacingAndGlyphs"
text-anchor="middle" opacity="0">LED</text>
</g>
<g class="stroked-text"><desc>LED</desc>
<path d="M116.3014 72.8449
L115.8414 72.7216
" />
<path d="M115.8414 72.7216
L116.1002 71.7557
" />
<path d="M116.7589 72.4252
L117.0809 72.5115
" />
<path d="M117.0833 73.0544
L116.6234 72.9312
" />
<path d="M116.6234 72.9312
L116.8822 71.9652
" />
<path d="M116.8822 71.9652
L117.3421 72.0885
" />
<path d="M117.4973 73.1653
L117.7561 72.1994
" />
<path d="M117.7561 72.1994
L117.9861 72.2610
" />
<path d="M117.9861 72.2610
L118.1118 72.3440
" />
<path d="M118.1118 72.3440
L118.1791 72.4606
" />
<path d="M118.1791 72.4606
L118.2004 72.5650
" />
<path d="M118.2004 72.5650
L118.1971 72.7613
" />
<path d="M118.1971 72.7613
L118.1602 72.8993
" />
<path d="M118.1602 72.8993
L118.0649 73.0709
" />
<path d="M118.0649 73.0709
L117.9942 73.1506
" />
<path d="M117.9942 73.1506
L117.8776 73.2179
" />
<path d="M117.8776 73.2179
L117.7273 73.2269
" />
<path d="M117.7273 73.2269
L117.4973 73.1653
" />
</g><g transform="rotate(-345.000000 124.5513 114.0862)">
<text x="124.5513" y="114.5862"
textLength="2.9643" font-size="1.3333" lengthAdjust="spacingAndGlyphs"
text-anchor="middle" opacity="0">LED</text>
</g>
<g class="stroked-text"><desc>LED</desc>
<path d="M123.8126 114.3591
L123.3527 114.2359
" />
<path d="M123.3527 114.2359
L123.6115 113.2700
" />
<path d="M124.2702 113.9394
L124.5922 114.0257
" />
<path d="M124.5946 114.5687
L124.1346 114.4454
" />
<path d="M124.1346 114.4454
L124.3934 113.4795
" />
<path d="M124.3934 113.4795
L124.8534 113.6027
" />
<path d="M125.0085 114.6796
L125.2674 113.7136
" />
<path d="M125.2674 113.7136
L125.4973 113.7753
" />
<path d="M125.4973 113.7753
L125.6230 113.8582
" />
<path d="M125.6230 113.8582
L125.6904 113.9749
" />
<path d="M125.6904 113.9749
L125.7117 114.0792
" />
<path d="M125.7117 114.0792
L125.7084 114.2755
" />
<path d="M125.7084 114.2755
L125.6714 114.4135
" />
<path d="M125.6714 114.4135
L125.5761 114.5852
" />
<path d="M125.5761 114.5852
L125.5055 114.6648
" />
<path d="M125.5055 114.6648
L125.3888 114.7322
" />
<path d="M125.3888 114.7322
L125.2385 114.7412
" />
<path d="M125.2385 114.7412
L125.0085 114.6796
" />
</g><g transform="rotate(-15.000000 233.2698 64.0022)">
<text x="233.2698" y="64.5022"
textLength="2.9643" font-size="1.3333" lengthAdjust="spacingAndGlyphs"
text-anchor="middle" opacity="0">LED</text>
</g>
<g class="stroked-text"><desc>LED</desc>
<path d="M232.7665 64.6079
L232.3066 64.7312
" />
<path d="M232.3066 64.7312
L232.0477 63.7653
" />
<path d="M232.9529 64.0157
L233.2749 63.9294
" />
<path d="M233.5485 64.3984
L233.0885 64.5217
" />
<path d="M233.0885 64.5217
L232.8297 63.5557
" />
<path d="M232.8297 63.5557
L233.2896 63.4325
" />
<path d="M233.9624 64.2875
L233.7036 63.3216
" />
<path d="M233.7036 63.3216
L233.9336 63.2599
" />
<path d="M233.9336 63.2599
L234.0839 63.2690
" />
<path d="M234.0839 63.2690
L234.2006 63.3363
" />
<path d="M234.2006 63.3363
L234.2712 63.4160
" />
<path d="M234.2712 63.4160
L234.3665 63.5876
" />
<path d="M234.3665 63.5876
L234.4035 63.7256
" />
<path d="M234.4035 63.7256
L234.4068 63.9219
" />
<path d="M234.4068 63.9219
L234.3854 64.0263
" />
<path d="M234.3854 64.0263
L234.3181 64.1429
" />
<path d="M234.3181 64.1429
L234.1924 64.2259
" />
<path d="M234.1924 64.2259
L233.9624 64.2875
" />
</g><g transform="rotate(-345.000000 82.0682 63.9953)">
<text x="82.0682" y="64.4953"
textLength="2.9643" font-size="1.3333" lengthAdjust="spacingAndGlyphs"
text-anchor="middle" opacity="0">LED</text>
</g>
<g class="stroked-text"><desc>LED</desc>
<path d="M81.3295 64.2683
L80.8696 64.1450
" />
<path d="M80.8696 64.1450
L81.1284 63.1791
" />
<path d="M81.7871 63.8486
L82.1091 63.9348
" />
<path d="M82.1115 64.4778
L81.6515 64.3545
" />
<path d="M81.6515 64.3545
L81.9103 63.3886
" />
<path d="M81.9103 63.3886
L82.3703 63.5119
" />
<path d="M82.5254 64.5887
L82.7843 63.6228
" />
<path d="M82.7843 63.6228
L83.0142 63.6844
" />
<path d="M83.0142 63.6844
L83.1399 63.7674
" />
<path d="M83.1399 63.7674
L83.2072 63.8840
" />
<path d="M83.2072 63.8840
L83.2286 63.9883
" />
<path d="M83.2286 63.9883
L83.2253 64.1846
" />
<path d="M83.2253 64.1846
L83.1883 64.3226
" />
<path d="M83.1883 64.3226
L83.0930 64.4943
" />
<path d="M83.0930 64.4943
L83.0224 64.5740
" />
<path d="M83.0224 64.5740
L82.9057 64.6413
" />
<path d="M82.9057 64.6413
L82.7554 64.6503
" />
<path d="M82.7554 64.6503
L82.5254 64.5887
" />
</g><g transform="rotate(-345.000000 100.7289 63.8992)">
<text x="100.7289" y="64.3992"
textLength="2.9643" font-size="1.3333" lengthAdjust="spacingAndGlyphs"
text-anchor="middle" opacity="0">LED</text>
</g>
<g class="stroked-text"><desc>LED</desc>
<path d="M99.9903 64.1721
L99.5303 64.0489
" />
<path d="M99.5303 64.0489
L99.7891 63.0829
" />
<path d="M100.4478 63.7524
L100.7698 63.8387
" />
<path d="M100.7722 64.3816
L100.3122 64.2584
" />
<path d="M100.3122 64.2584
L100.5711 63.2925
" />
<path d="M100.5711 63.2925
L101.0310 63.4157
" />
<path d="M101.1862 64.4926
L101.4450 63.5266
" />
<path d="M101.4450 63.5266
L101.6750 63.5883
" />
<path d="M101.6750 63.5883
L101.8006 63.6712
" />
<path d="M101.8006 63.6712
L101.8680 63.7879
" />
<path d="M101.8680 63.7879
L101.8893 63.8922
" />
<path d="M101.8893 63.8922
L101.8860 64.0885
" />
<path d="M101.8860 64.0885
L101.8491 64.2265
" />
<path d="M101.8491 64.2265
L101.7538 64.3982
" />
<path d="M101.7538 64.3982
L101.6831 64.4778
" />
<path d="M101.6831 64.4778
L101.5665 64.5452
" />
<path d="M101.5665 64.5452
L101.4162 64.5542
" />
<path d="M101.4162 64.5542
L101.1862 64.4926
" />
</g><g transform="rotate(-345.000000 35.9598 96.9810)">
<text x="35.9598" y="97.4810"
textLength="2.9643" font-size="1.3333" lengthAdjust="spacingAndGlyphs"
text-anchor="middle" opacity="0">LED</text>
</g>
<g class="stroked-text"><desc>LED</desc>
<path d="M35.2211 97.2539
L34.7611 97.1307
" />
<path d="M34.7611 97.1307
L35.0200 96.1648
" />
<path d="M35.6787 96.8342
L36.0006 96.9205
" />
<path d="M36.0030 97.4634
L35.5431 97.3402
" />
<path d="M35.5431 97.3402
L35.8019 96.3743
" />
<path d="M35.8019 96.3743
L36.2619 96.4975
" />
<path d="M36.4170 97.5744
L36.6758 96.6084
" />
<path d="M36.6758 96.6084
L36.9058 96.6701
" />
<path d="M36.9058 96.6701
L37.0315 96.7530
" />
<path d="M37.0315 96.7530
L37.0988 96.8697
" />
<path d="M37.0988 96.8697
L37.1202 96.9740
" />
<path d="M37.1202 96.9740
L37.1169 97.1703
" />
<path d="M37.1169 97.1703
L37.0799 97.3083
" />
<path d="M37.0799 97.3083
L36.9846 97.4800
" />
<path d="M36.9846 97.4800
L36.9140 97.5596
" />
<path d="M36.9140 97.5596
L36.7973 97.6270
" />
<path d="M36.7973 97.6270
L36.6470 97.6360
" />
<path d="M36.6470 97.6360
L36.4170 97.5744
" />
</g><g transform="rotate(-345.000000 54.6316 96.8433)">
<text x="54.6316" y="97.3433"
textLength="2.9643" font-size="1.3333" lengthAdjust="spacingAndGlyphs"
text-anchor="middle" opacity="0">LED</text>
</g>
<g class="stroked-text"><desc>LED</desc>
<path d="M53.8930 97.1162
L53.4330 96.9930
" />
<path d="M53.4330 96.9930
L53.6918 96.0271
" />
<path d="M54.3505 96.6965
L54.6725 96.7828
" />
<path d="M54.6749 97.3258
L54.2149 97.2025
" />
<path d="M54.2149 97.2025
L54.4738 96.2366
" />
<path d="M54.4738 96.2366
L54.9337 96.3598
" />
<path d="M55.0889 97.4367
L55.3477 96.4708
" />
<path d="M55.3477 96.4708
L55.5777 96.5324
" />
<path d="M55.5777 96.5324
L55.7033 96.6153
" />
<path d="M55.7033 96.6153
L55.7707 96.7320
" />
<path d="M55.7707 96.7320
L55.7920 96.8363
" />
<path d="M55.7920 96.8363
L55.7887 97.0326
" />
<path d="M55.7887 97.0326
L55.7518 97.1706
" />
<path d="M55.7518 97.1706
L55.6565 97.3423
" />
<path d="M55.6565 97.3423
L55.5858 97.4219
" />
<path d="M55.5858 97.4219
L55.4692 97.4893
" />
<path d="M55.4692 97.4893
L55.3189 97.4983
" />
<path d="M55.3189 97.4983
L55.0889 97.4367
" />
</g><g transform="rotate(-345.000000 73.2684 96.8368)">
<text x="73.2684" y="97.3368"
textLength="2.9643" font-size="1.3333" lengthAdjust="spacingAndGlyphs"
text-anchor="middle" opacity="0">LED</text>
</g>
<g class="stroked-text"><desc>LED</desc>
<path d="M72.5297 97.1097
L72.0697 96.9865
" />
<path d="M72.0697 96.9865
L72.3285 96.0206
" />
<path d="M72.9872 96.6901
L73.3092 96.7763
" />
<path d="M73.3116 97.3193
L72.8517 97.1960
" />
<path d="M72.8517 97.1960
L73.1105 96.2301
" />
<path d="M73.1105 96.2301
L73.5704 96.3533
" />
<path d="M73.7256 97.4302
L73.9844 96.4643
" />
<path d="M73.9844 96.4643
L74.2144 96.5259
" />
<path d="M74.2144 96.5259
L74.3401 96.6089
" />
<path d="M74.3401 96.6089
L74.4074 96.7255
" />
<path d="M74.4074 96.7255
L74.4288 96.8298
" />
<path d="M74.4288 96.8298
L74.4255 97.0261
" />
<path d="M74.4255 97.0261
L74.3885 97.1641
" />
<path d="M74.3885 97.1641
L74.2932 97.3358
" />
<path d="M74.2932 97.3358
L74.2225 97.4154
" />
<path d="M74.2225 97.4154
L74.1059 97.4828
" />
<path d="M74.1059 97.4828
L73.9556 97.4918
" />
<path d="M73.9556 97.4918
L73.7256 97.4302
" />
</g><g transform="rotate(-345.000000 91.9291 96.7407)">
<text x="91.9291" y="97.2407"
textLength="2.9643" font-size="1.3333" lengthAdjust="spacingAndGlyphs"
text-anchor="middle" opacity="0">LED</text>
</g>
<g class="stroked-text"><desc>LED</desc>
<path d="M91.1904 97.0136
L90.7305 96.8904
" />
<path d="M90.7305 96.8904
L90.9893 95.9244
" />
<path d="M91.6480 96.5939
L91.9699 96.6802
" />
<path d="M91.9724 97.2231
L91.5124 97.0999
" />
<path d="M91.5124 97.0999
L91.7712 96.1339
" />
<path d="M91.7712 96.1339
L92.2312 96.2572
" />
<path d="M92.3863 97.3340
L92.6452 96.3681
" />
<path d="M92.6452 96.3681
L92.8751 96.4297
" />
<path d="M92.8751 96.4297
L93.0008 96.5127
" />
<path d="M93.0008 96.5127
L93.0681 96.6294
" />
<path d="M93.0681 96.6294
L93.0895 96.7337
" />
<path d="M93.0895 96.7337
L93.0862 96.9300
" />
<path d="M93.0862 96.9300
L93.0492 97.0680
" />
<path d="M93.0492 97.0680
L92.9539 97.2396
" />
<path d="M92.9539 97.2396
L92.8833 97.3193
" />
<path d="M92.8833 97.3193
L92.7666 97.3866
" />
<path d="M92.7666 97.3866
L92.6163 97.3957
" />
<path d="M92.6163 97.3957
L92.3863 97.3340
" />
</g><g transform="rotate(-345.000000 108.2402 105.4134)">
<text x="108.2402" y="105.9134"
textLength="2.9643" font-size="1.3333" lengthAdjust="spacingAndGlyphs"
text-anchor="middle" opacity="0">LED</text>
</g>
<g class="stroked-text"><desc>LED</desc>
<path d="M107.5015 105.6864
L107.0416 105.5631
" />
<path d="M107.0416 105.5631
L107.3004 104.5972
" />
<path d="M107.9591 105.2667
L108.2811 105.3529
" />
<path d="M108.2835 105.8959
L107.8235 105.7726
" />
<path d="M107.8235 105.7726
L108.0823 104.8067
" />
<path d="M108.0823 104.8067
L108.5423 104.9299
" />
<path d="M108.6974 106.0068
L108.9563 105.0409
" />
<path d="M108.9563 105.0409
L109.1862 105.1025
" />
<path d="M109.1862 105.1025
L109.3119 105.1855
" />
<path d="M109.3119 105.1855
L109.3793 105.3021
" />
<path d="M109.3793 105.3021
L109.4006 105.4064
" />
<path d="M109.4006 105.4064
L109.3973 105.6027
" />
<path d="M109.3973 105.6027
L109.3603 105.7407
" />
<path d="M109.3603 105.7407
L109.2650 105.9124
" />
<path d="M109.2650 105.9124
L109.1944 105.9921
" />
<path d="M109.1944 105.9921
L109.0777 106.0594
" />
<path d="M109.0777 106.0594
L108.9274 106.0684
" />
<path d="M108.9274 106.0684
L108.6974 106.0068
" />
</g><g transform="rotate(-15.000000 172.1498 114.0862)">
<text x="172.1498" y="114.5862"
textLength="2.9643" font-size="1.3333" lengthAdjust="spacingAndGlyphs"
text-anchor="middle" opacity="0">LED</text>
</g>
<g class="stroked-text"><desc>LED</desc>
<path d="M171.6466 114.6919
L171.1866 114.8152
" />
<path d="M171.1866 114.8152
L170.9278 113.8492
" />
<path d="M171.8330 114.0997
L172.1550 114.0134
" />
<path d="M172.4285 114.4824
L171.9686 114.6056
" />
<path d="M171.9686 114.6056
L171.7098 113.6397
" />
<path d="M171.7098 113.6397
L172.1697 113.5165
" />
<path d="M172.8425 114.3715
L172.5837 113.4055
" />
<path d="M172.5837 113.4055
L172.8137 113.3439
" />
<path d="M172.8137 113.3439
L172.9640 113.3529
" />
<path d="M172.9640 113.3529
L173.0806 113.4203
" />
<path d="M173.0806 113.4203
L173.1513 113.4999
" />
<path d="M173.1513 113.4999
L173.2466 113.6716
" />
<path d="M173.2466 113.6716
L173.2835 113.8096
" />
<path d="M173.2835 113.8096
L173.2868 114.0059
" />
<path d="M173.2868 114.0059
L173.2655 114.1102
" />
<path d="M173.2655 114.1102
L173.1982 114.2269
" />
<path d="M173.1982 114.2269
L173.0725 114.3098
" />
<path d="M173.0725 114.3098
L172.8425 114.3715
" />
</g><g transform="rotate(-15.000000 188.4609 105.4134)">
<text x="188.4609" y="105.9134"
textLength="2.9643" font-size="1.3333" lengthAdjust="spacingAndGlyphs"
text-anchor="middle" opacity="0">LED</text>
</g>
<g class="stroked-text"><desc>LED</desc>
<path d="M187.9577 106.0191
L187.4977 106.1424
" />
<path d="M187.4977 106.1424
L187.2389 105.1765
" />
<path d="M188.1441 105.4269
L188.4661 105.3406
" />
<path d="M188.7396 105.8096
L188.2797 105.9329
" />
<path d="M188.2797 105.9329
L188.0209 104.9669
" />
<path d="M188.0209 104.9669
L188.4808 104.8437
" />
<path d="M189.1536 105.6987
L188.8948 104.7328
" />
<path d="M188.8948 104.7328
L189.1248 104.6711
" />
<path d="M189.1248 104.6711
L189.2751 104.6802
" />
<path d="M189.2751 104.6802
L189.3917 104.7475
" />
<path d="M189.3917 104.7475
L189.4624 104.8272
" />
<path d="M189.4624 104.8272
L189.5577 104.9988
" />
<path d="M189.5577 104.9988
L189.5946 105.1368
" />
<path d="M189.5946 105.1368
L189.5979 105.3331
" />
<path d="M189.5979 105.3331
L189.5766 105.4375
" />
<path d="M189.5766 105.4375
L189.5093 105.5541
" />
<path d="M189.5093 105.5541
L189.3836 105.6371
" />
<path d="M189.3836 105.6371
L189.1536 105.6987
" />
</g><g transform="rotate(-15.000000 214.6329 63.9953)">
<text x="214.6329" y="64.4953"
textLength="2.9643" font-size="1.3333" lengthAdjust="spacingAndGlyphs"
text-anchor="middle" opacity="0">LED</text>
</g>
<g class="stroked-text"><desc>LED</desc>
<path d="M214.1297 64.6010
L213.6697 64.7243
" />
<path d="M213.6697 64.7243
L213.4109 63.7584
" />
<path d="M214.3161 64.0088
L214.6381 63.9225
" />
<path d="M214.9116 64.3915
L214.4517 64.5148
" />
<path d="M214.4517 64.5148
L214.1929 63.5488
" />
<path d="M214.1929 63.5488
L214.6528 63.4256
" />
<path d="M215.3256 64.2806
L215.0668 63.3147
" />
<path d="M215.0668 63.3147
L215.2968 63.2530
" />
<path d="M215.2968 63.2530
L215.4471 63.2621
" />
<path d="M215.4471 63.2621
L215.5637 63.3294
" />
<path d="M215.5637 63.3294
L215.6344 63.4091
" />
<path d="M215.6344 63.4091
L215.7297 63.5807
" />
<path d="M215.7297 63.5807
L215.7666 63.7187
" />
<path d="M215.7666 63.7187
L215.7699 63.9150
" />
<path d="M215.7699 63.9150
L215.7486 64.0194
" />
<path d="M215.7486 64.0194
L215.6812 64.1360
" />
<path d="M215.6812 64.1360
L215.5556 64.2190
" />
<path d="M215.5556 64.2190
L215.3256 64.2806
" />
</g><g transform="rotate(-15.000000 163.3500 81.2447)">
<text x="163.3500" y="81.7447"
textLength="2.9643" font-size="1.3333" lengthAdjust="spacingAndGlyphs"
text-anchor="middle" opacity="0">LED</text>
</g>
<g class="stroked-text"><desc>LED</desc>
<path d="M162.8467 81.8504
L162.3868 81.9737
" />
<path d="M162.3868 81.9737
L162.1280 81.0077
" />
<path d="M163.0332 81.2582
L163.3551 81.1719
" />
<path d="M163.6287 81.6409
L163.1687 81.7642
" />
<path d="M163.1687 81.7642
L162.9099 80.7982
" />
<path d="M162.9099 80.7982
L163.3699 80.6750
" />
<path d="M164.0427 81.5300
L163.7838 80.5641
" />
<path d="M163.7838 80.5641
L164.0138 80.5024
" />
<path d="M164.0138 80.5024
L164.1641 80.5115
" />
<path d="M164.1641 80.5115
L164.2808 80.5788
" />
<path d="M164.2808 80.5788
L164.3514 80.6585
" />
<path d="M164.3514 80.6585
L164.4467 80.8301
" />
<path d="M164.4467 80.8301
L164.4837 80.9681
" />
<path d="M164.4837 80.9681
L164.4870 81.1644
" />
<path d="M164.4870 81.1644
L164.4656 81.2687
" />
<path d="M164.4656 81.2687
L164.3983 81.3854
" />
<path d="M164.3983 81.3854
L164.2726 81.4684
" />
<path d="M164.2726 81.4684
L164.0427 81.5300
" />
</g><text x="196.4368" y="123.6507"
textLength="2.9643" font-size="1.3333" lengthAdjust="spacingAndGlyphs"
text-anchor="middle" opacity="0">LED</text>
<g class="stroked-text"><desc>LED</desc>
<path d="M195.7940 123.6055
L195.3178 123.6055
" />
<path d="M195.3178 123.6055
L195.3178 122.6055
" />
<path d="M196.1273 123.0817
L196.4606 123.0817
" />
<path d="M196.6035 123.6055
L196.1273 123.6055
" />
<path d="M196.1273 123.6055
L196.1273 122.6055
" />
<path d="M196.1273 122.6055
L196.6035 122.6055
" />
<path d="M197.0321 123.6055
L197.0321 122.6055
" />
<path d="M197.0321 122.6055
L197.2701 122.6055
" />
<path d="M197.2701 122.6055
L197.4130 122.6531
" />
<path d="M197.4130 122.6531
L197.5082 122.7483
" />
<path d="M197.5082 122.7483
L197.5559 122.8436
" />
<path d="M197.5559 122.8436
L197.6035 123.0341
" />
<path d="M197.6035 123.0341
L197.6035 123.1769
" />
<path d="M197.6035 123.1769
L197.5559 123.3674
" />
<path d="M197.5559 123.3674
L197.5082 123.4626
" />
<path d="M197.5082 123.4626
L197.4130 123.5579
" />
<path d="M197.4130 123.5579
L197.2701 123.6055
" />
<path d="M197.2701 123.6055
L197.0321 123.6055
" />
</g><g transform="rotate(-345.000000 120.1514 130.5069)">
<text x="120.1514" y="131.0069"
textLength="2.9643" font-size="1.3333" lengthAdjust="spacingAndGlyphs"
text-anchor="middle" opacity="0">LED</text>
</g>
<g class="stroked-text"><desc>LED</desc>
<path d="M119.4127 130.7799
L118.9528 130.6566
" />
<path d="M118.9528 130.6566
L119.2116 129.6907
" />
<path d="M119.8703 130.3602
L120.1922 130.4465
" />
<path d="M120.1947 130.9894
L119.7347 130.8661
" />
<path d="M119.7347 130.8661
L119.9935 129.9002
" />
<path d="M119.9935 129.9002
L120.4535 130.0235
" />
<path d="M120.6086 131.1003
L120.8674 130.1344
" />
<path d="M120.8674 130.1344
L121.0974 130.1960
" />
<path d="M121.0974 130.1960
L121.2231 130.2790
" />
<path d="M121.2231 130.2790
L121.2904 130.3956
" />
<path d="M121.2904 130.3956
L121.3118 130.4999
" />
<path d="M121.3118 130.4999
L121.3085 130.6963
" />
<path d="M121.3085 130.6963
L121.2715 130.8342
" />
<path d="M121.2715 130.8342
L121.1762 131.0059
" />
<path d="M121.1762 131.0059
L121.1056 131.0856
" />
<path d="M121.1056 131.0856
L120.9889 131.1529
" />
<path d="M120.9889 131.1529
L120.8386 131.1619
" />
<path d="M120.8386 131.1619
L120.6086 131.1003
" />
</g><text x="100.2646" y="123.6510"
textLength="2.9643" font-size="1.3333" lengthAdjust="spacingAndGlyphs"
text-anchor="middle" opacity="0">LED</text>
<g class="stroked-text"><desc>LED</desc>
<path d="M99.6217 123.6058
L99.1455 123.6058
" />
<path d="M99.1455 123.6058
L99.1455 122.6058
" />
<path d="M99.9550 123.0820
L100.2884 123.0820
" />
<path d="M100.4312 123.6058
L99.9550 123.6058
" />
<path d="M99.9550 123.6058
L99.9550 122.6058
" />
<path d="M99.9550 122.6058
L100.4312 122.6058
" />
<path d="M100.8598 123.6058
L100.8598 122.6058
" />
<path d="M100.8598 122.6058
L101.0979 122.6058
" />
<path d="M101.0979 122.6058
L101.2408 122.6534
" />
<path d="M101.2408 122.6534
L101.3360 122.7487
" />
<path d="M101.3360 122.7487
L101.3836 122.8439
" />
<path d="M101.3836 122.8439
L101.4312 123.0344
" />
<path d="M101.4312 123.0344
L101.4312 123.1772
" />
<path d="M101.4312 123.1772
L101.3836 123.3677
" />
<path d="M101.3836 123.3677
L101.3360 123.4630
" />
<path d="M101.3360 123.4630
L101.2408 123.5582
" />
<path d="M101.2408 123.5582
L101.0979 123.6058
" />
<path d="M101.0979 123.6058
L100.8598 123.6058
" />
</g><text x="139.3506" y="133.6245"
textLength="2.9643" font-size="1.3333" lengthAdjust="spacingAndGlyphs"
text-anchor="middle" opacity="0">LED</text>
<g class="stroked-text"><desc>LED</desc>
<path d="M138.7077 133.5793
L138.2315 133.5793
" />
<path d="M138.2315 133.5793
L138.2315 132.5793
" />
<path d="M139.0410 133.0555
L139.3744 133.0555
" />
<path d="M139.5172 133.5793
L139.0410 133.5793
" />
<path d="M139.0410 133.5793
L139.0410 132.5793
" />
<path d="M139.0410 132.5793
L139.5172 132.5793
" />
<path d="M139.9458 133.5793
L139.9458 132.5793
" />
<path d="M139.9458 132.5793
L140.1839 132.5793
" />
<path d="M140.1839 132.5793
L140.3268 132.6270
" />
<path d="M140.3268 132.6270
L140.4220 132.7222
" />
<path d="M140.4220 132.7222
L140.4696 132.8174
" />
<path d="M140.4696 132.8174
L140.5172 133.0079
" />
<path d="M140.5172 133.0079
L140.5172 133.1508
" />
<path d="M140.5172 133.1508
L140.4696 133.3413
" />
<path d="M140.4696 133.3413
L140.4220 133.4365
" />
<path d="M140.4220 133.4365
L140.3268 133.5317
" />
<path d="M140.3268 133.5317
L140.1839 133.5793
" />
<path d="M140.1839 133.5793
L139.9458 133.5793
" />
</g><text x="214.4372" y="118.1685"
textLength="2.9643" font-size="1.3333" lengthAdjust="spacingAndGlyphs"
text-anchor="middle" opacity="0">LED</text>
<g class="stroked-text"><desc>LED</desc>
<path d="M213.7943 118.1233
L213.3181 118.1233
" />
<path d="M213.3181 118.1233
L213.3181 117.1233
" />
<path d="M214.1276 117.5995
L214.4610 117.5995
" />
<path d="M214.6038 118.1233
L214.1276 118.1233
" />
<path d="M214.1276 118.1233
L214.1276 117.1233
" />
<path d="M214.1276 117.1233
L214.6038 117.1233
" />
<path d="M215.0324 118.1233
L215.0324 117.1233
" />
<path d="M215.0324 117.1233
L215.2705 117.1233
" />
<path d="M215.2705 117.1233
L215.4134 117.1709
" />
<path d="M215.4134 117.1709
L215.5086 117.2662
" />
<path d="M215.5086 117.2662
L215.5562 117.3614
" />
<path d="M215.5562 117.3614
L215.6038 117.5519
" />
<path d="M215.6038 117.5519
L215.6038 117.6947
" />
<path d="M215.6038 117.6947
L215.5562 117.8852
" />
<path d="M215.5562 117.8852
L215.5086 117.9805
" />
<path d="M215.5086 117.9805
L215.4134 118.0757
" />
<path d="M215.4134 118.0757
L215.2705 118.1233
" />
<path d="M215.2705 118.1233
L215.0324 118.1233
" />
</g><g transform="rotate(-15.000000 228.8698 47.5815)">
<text x="228.8698" y="48.0815"
textLength="2.9643" font-size="1.3333" lengthAdjust="spacingAndGlyphs"
text-anchor="middle" opacity="0">LED</text>
</g>
<g class="stroked-text"><desc>LED</desc>
<path d="M228.3666 48.1872
L227.9066 48.3104
" />
<path d="M227.9066 48.3104
L227.6478 47.3445
" />
<path d="M228.5530 47.5949
L228.8750 47.5087
" />
<path d="M229.1485 47.9777
L228.6886 48.1009
" />
<path d="M228.6886 48.1009
L228.4297 47.1350
" />
<path d="M228.4297 47.1350
L228.8897 47.0117
" />
<path d="M229.5625 47.8667
L229.3037 46.9008
" />
<path d="M229.3037 46.9008
L229.5337 46.8392
" />
<path d="M229.5337 46.8392
L229.6840 46.8482
" />
<path d="M229.6840 46.8482
L229.8006 46.9156
" />
<path d="M229.8006 46.9156
L229.8713 46.9952
" />
<path d="M229.8713 46.9952
L229.9666 47.1669
" />
<path d="M229.9666 47.1669
L230.0035 47.3049
" />
<path d="M230.0035 47.3049
L230.0068 47.5012
" />
<path d="M230.0068 47.5012
L229.9855 47.6055
" />
<path d="M229.9855 47.6055
L229.9181 47.7221
" />
<path d="M229.9181 47.7221
L229.7925 47.8051
" />
<path d="M229.7925 47.8051
L229.5625 47.8667
" />
</g><g transform="rotate(-15.000000 247.5306 47.6776)">
<text x="247.5306" y="48.1776"
textLength="2.9643" font-size="1.3333" lengthAdjust="spacingAndGlyphs"
text-anchor="middle" opacity="0">LED</text>
</g>
<g class="stroked-text"><desc>LED</desc>
<path d="M247.0274 48.2833
L246.5674 48.4066
" />
<path d="M246.5674 48.4066
L246.3086 47.4407
" />
<path d="M247.2138 47.6911
L247.5357 47.6048
" />
<path d="M247.8093 48.0738
L247.3493 48.1971
" />
<path d="M247.3493 48.1971
L247.0905 47.2311
" />
<path d="M247.0905 47.2311
L247.5505 47.1079
" />
<path d="M248.2233 47.9629
L247.9644 46.9970
" />
<path d="M247.9644 46.9970
L248.1944 46.9353
" />
<path d="M248.1944 46.9353
L248.3447 46.9444
" />
<path d="M248.3447 46.9444
L248.4614 47.0117
" />
<path d="M248.4614 47.0117
L248.5320 47.0914
" />
<path d="M248.5320 47.0914
L248.6273 47.2630
" />
<path d="M248.6273 47.2630
L248.6643 47.4010
" />
<path d="M248.6643 47.4010
L248.6676 47.5973
" />
<path d="M248.6676 47.5973
L248.6463 47.7017
" />
<path d="M248.6463 47.7017
L248.5789 47.8183
" />
<path d="M248.5789 47.8183
L248.4532 47.9013
" />
<path d="M248.4532 47.9013
L248.2233 47.9629
" />
</g><g transform="rotate(-345.000000 86.4681 47.5746)">
<text x="86.4681" y="48.0746"
textLength="2.9643" font-size="1.3333" lengthAdjust="spacingAndGlyphs"
text-anchor="middle" opacity="0">LED</text>
</g>
<g class="stroked-text"><desc>LED</desc>
<path d="M85.7295 47.8475
L85.2695 47.7242
" />
<path d="M85.2695 47.7242
L85.5283 46.7583
" />
<path d="M86.1870 47.4278
L86.5090 47.5141
" />
<path d="M86.5114 48.0570
L86.0514 47.9338
" />
<path d="M86.0514 47.9338
L86.3103 46.9678
" />
<path d="M86.3103 46.9678
L86.7702 47.0911
" />
<path d="M86.9254 48.1679
L87.1842 47.2020
" />
<path d="M87.1842 47.2020
L87.4142 47.2636
" />
<path d="M87.4142 47.2636
L87.5398 47.3466
" />
<path d="M87.5398 47.3466
L87.6072 47.4632
" />
<path d="M87.6072 47.4632
L87.6285 47.5676
" />
<path d="M87.6285 47.5676
L87.6252 47.7639
" />
<path d="M87.6252 47.7639
L87.5883 47.9019
" />
<path d="M87.5883 47.9019
L87.4930 48.0735
" />
<path d="M87.4930 48.0735
L87.4223 48.1532
" />
<path d="M87.4223 48.1532
L87.3057 48.2205
" />
<path d="M87.3057 48.2205
L87.1554 48.2296
" />
<path d="M87.1554 48.2296
L86.9254 48.1679
" />
</g><text x="82.2646" y="118.1690"
textLength="2.9643" font-size="1.3333" lengthAdjust="spacingAndGlyphs"
text-anchor="middle" opacity="0">LED</text>
<g class="stroked-text"><desc>LED</desc>
<path d="M81.6217 118.1238
L81.1455 118.1238
" />
<path d="M81.1455 118.1238
L81.1455 117.1238
" />
<path d="M81.9550 117.6000
L82.2884 117.6000
" />
<path d="M82.4312 118.1238
L81.9550 118.1238
" />
<path d="M81.9550 118.1238
L81.9550 117.1238
" />
<path d="M81.9550 117.1238
L82.4312 117.1238
" />
<path d="M82.8598 118.1238
L82.8598 117.1238
" />
<path d="M82.8598 117.1238
L83.0979 117.1238
" />
<path d="M83.0979 117.1238
L83.2408 117.1714
" />
<path d="M83.2408 117.1714
L83.3360 117.2667
" />
<path d="M83.3360 117.2667
L83.3836 117.3619
" />
<path d="M83.3836 117.3619
L83.4312 117.5524
" />
<path d="M83.4312 117.5524
L83.4312 117.6952
" />
<path d="M83.4312 117.6952
L83.3836 117.8857
" />
<path d="M83.3836 117.8857
L83.3360 117.9810
" />
<path d="M83.3360 117.9810
L83.2408 118.0762
" />
<path d="M83.2408 118.0762
L83.0979 118.1238
" />
<path d="M83.0979 118.1238
L82.8598 118.1238
" />
</g><g transform="rotate(-345.000000 49.1596 47.7187)">
<text x="49.1596" y="48.2187"
textLength="2.9643" font-size="1.3333" lengthAdjust="spacingAndGlyphs"
text-anchor="middle" opacity="0">LED</text>
</g>
<g class="stroked-text"><desc>LED</desc>
<path d="M48.4209 47.9917
L47.9610 47.8684
" />
<path d="M47.9610 47.8684
L48.2198 46.9025
" />
<path d="M48.8785 47.5720
L49.2004 47.6582
" />
<path d="M49.2029 48.2012
L48.7429 48.0779
" />
<path d="M48.7429 48.0779
L49.0017 47.1120
" />
<path d="M49.0017 47.1120
L49.4617 47.2352
" />
<path d="M49.6168 48.3121
L49.8757 47.3462
" />
<path d="M49.8757 47.3462
L50.1056 47.4078
" />
<path d="M50.1056 47.4078
L50.2313 47.4908
" />
<path d="M50.2313 47.4908
L50.2986 47.6074
" />
<path d="M50.2986 47.6074
L50.3200 47.7117
" />
<path d="M50.3200 47.7117
L50.3167 47.9080
" />
<path d="M50.3167 47.9080
L50.2797 48.0460
" />
<path d="M50.2797 48.0460
L50.1844 48.2177
" />
<path d="M50.1844 48.2177
L50.1138 48.2974
" />
<path d="M50.1138 48.2974
L49.9971 48.3647
" />
<path d="M49.9971 48.3647
L49.8468 48.3737
" />
<path d="M49.8468 48.3737
L49.6168 48.3121
" />
</g><g transform="rotate(-15.000000 191.5723 47.4784)">
<text x="191.5723" y="47.9784"
textLength="2.9643" font-size="1.3333" lengthAdjust="spacingAndGlyphs"
text-anchor="middle" opacity="0">LED</text>
</g>
<g class="stroked-text"><desc>LED</desc>
<path d="M191.0691 48.0841
L190.6091 48.2074
" />
<path d="M190.6091 48.2074
L190.3503 47.2414
" />
<path d="M191.2555 47.4919
L191.5775 47.4056
" />
<path d="M191.8510 47.8746
L191.3911 47.9978
" />
<path d="M191.3911 47.9978
L191.1322 47.0319
" />
<path d="M191.1322 47.0319
L191.5922 46.9087
" />
<path d="M192.2650 47.7637
L192.0062 46.7977
" />
<path d="M192.0062 46.7977
L192.2362 46.7361
" />
<path d="M192.2362 46.7361
L192.3865 46.7451
" />
<path d="M192.3865 46.7451
L192.5031 46.8125
" />
<path d="M192.5031 46.8125
L192.5738 46.8922
" />
<path d="M192.5738 46.8922
L192.6691 47.0638
" />
<path d="M192.6691 47.0638
L192.7060 47.2018
" />
<path d="M192.7060 47.2018
L192.7093 47.3981
" />
<path d="M192.7093 47.3981
L192.6880 47.5024
" />
<path d="M192.6880 47.5024
L192.6206 47.6191
" />
<path d="M192.6206 47.6191
L192.4950 47.7020
" />
<path d="M192.4950 47.7020
L192.2650 47.7637
" />
</g><g transform="rotate(-15.000000 158.9501 64.8240)">
<text x="158.9501" y="65.3240"
textLength="2.9643" font-size="1.3333" lengthAdjust="spacingAndGlyphs"
text-anchor="middle" opacity="0">LED</text>
</g>
<g class="stroked-text"><desc>LED</desc>
<path d="M158.4469 65.4297
L157.9869 65.5529
" />
<path d="M157.9869 65.5529
L157.7281 64.5870
" />
<path d="M158.6333 64.8375
L158.9552 64.7512
" />
<path d="M159.2288 65.2202
L158.7688 65.3434
" />
<path d="M158.7688 65.3434
L158.5100 64.3775
" />
<path d="M158.5100 64.3775
L158.9700 64.2542
" />
<path d="M159.6428 65.1092
L159.3840 64.1433
" />
<path d="M159.3840 64.1433
L159.6139 64.0817
" />
<path d="M159.6139 64.0817
L159.7642 64.0907
" />
<path d="M159.7642 64.0907
L159.8809 64.1581
" />
<path d="M159.8809 64.1581
L159.9515 64.2377
" />
<path d="M159.9515 64.2377
L160.0468 64.4094
" />
<path d="M160.0468 64.4094
L160.0838 64.5474
" />
<path d="M160.0838 64.5474
L160.0871 64.7437
" />
<path d="M160.0871 64.7437
L160.0658 64.8480
" />
<path d="M160.0658 64.8480
L159.9984 64.9646
" />
<path d="M159.9984 64.9646
L159.8728 65.0476
" />
<path d="M159.8728 65.0476
L159.6428 65.1092
" />
</g><g transform="rotate(-345.000000 121.4400 56.1512)">
<text x="121.4400" y="56.6512"
textLength="2.9643" font-size="1.3333" lengthAdjust="spacingAndGlyphs"
text-anchor="middle" opacity="0">LED</text>
</g>
<g class="stroked-text"><desc>LED</desc>
<path d="M120.7013 56.4242
L120.2413 56.3009
" />
<path d="M120.2413 56.3009
L120.5001 55.3350
" />
<path d="M121.1588 56.0045
L121.4808 56.0907
" />
<path d="M121.4832 56.6337
L121.0233 56.5104
" />
<path d="M121.0233 56.5104
L121.2821 55.5445
" />
<path d="M121.2821 55.5445
L121.7420 55.6678
" />
<path d="M121.8972 56.7446
L122.1560 55.7787
" />
<path d="M122.1560 55.7787
L122.3860 55.8403
" />
<path d="M122.3860 55.8403
L122.5117 55.9233
" />
<path d="M122.5117 55.9233
L122.5790 56.0399
" />
<path d="M122.5790 56.0399
L122.6004 56.1442
" />
<path d="M122.6004 56.1442
L122.5971 56.3405
" />
<path d="M122.5971 56.3405
L122.5601 56.4785
" />
<path d="M122.5601 56.4785
L122.4648 56.6502
" />
<path d="M122.4648 56.6502
L122.3941 56.7299
" />
<path d="M122.3941 56.7299
L122.2775 56.7972
" />
<path d="M122.2775 56.7972
L122.1272 56.8062
" />
<path d="M122.1272 56.8062
L121.8972 56.7446
" />
</g><g transform="rotate(-345.000000 67.8314 47.5810)">
<text x="67.8314" y="48.0810"
textLength="2.9643" font-size="1.3333" lengthAdjust="spacingAndGlyphs"
text-anchor="middle" opacity="0">LED</text>
</g>
<g class="stroked-text"><desc>LED</desc>
<path d="M67.0927 47.8540
L66.6328 47.7307
" />
<path d="M66.6328 47.7307
L66.8916 46.7648
" />
<path d="M67.5503 47.4343
L67.8723 47.5206
" />
<path d="M67.8747 48.0635
L67.4147 47.9402
" />
<path d="M67.4147 47.9402
L67.6735 46.9743
" />
<path d="M67.6735 46.9743
L68.1335 47.0976
" />
<path d="M68.2886 48.1744
L68.5475 47.2085
" />
<path d="M68.5475 47.2085
L68.7774 47.2701
" />
<path d="M68.7774 47.2701
L68.9031 47.3531
" />
<path d="M68.9031 47.3531
L68.9705 47.4697
" />
<path d="M68.9705 47.4697
L68.9918 47.5740
" />
<path d="M68.9918 47.5740
L68.9885 47.7704
" />
<path d="M68.9885 47.7704
L68.9515 47.9083
" />
<path d="M68.9515 47.9083
L68.8562 48.0800
" />
<path d="M68.8562 48.0800
L68.7856 48.1597
" />
<path d="M68.7856 48.1597
L68.6689 48.2270
" />
<path d="M68.6689 48.2270
L68.5186 48.2360
" />
<path d="M68.5186 48.2360
L68.2886 48.1744
" />
</g><g transform="rotate(-345.000000 105.1289 47.4784)">
<text x="105.1289" y="47.9784"
textLength="2.9643" font-size="1.3333" lengthAdjust="spacingAndGlyphs"
text-anchor="middle" opacity="0">LED</text>
</g>
<g class="stroked-text"><desc>LED</desc>
<path d="M104.3902 47.7513
L103.9303 47.6281
" />
<path d="M103.9303 47.6281
L104.1891 46.6622
" />
<path d="M104.8478 47.3317
L105.1697 47.4179
" />
<path d="M105.1722 47.9609
L104.7122 47.8376
" />
<path d="M104.7122 47.8376
L104.9710 46.8717
" />
<path d="M104.9710 46.8717
L105.4310 46.9949
" />
<path d="M105.5861 48.0718
L105.8449 47.1059
" />
<path d="M105.8449 47.1059
L106.0749 47.1675
" />
<path d="M106.0749 47.1675
L106.2006 47.2505
" />
<path d="M106.2006 47.2505
L106.2679 47.3671
" />
<path d="M106.2679 47.3671
L106.2893 47.4714
" />
<path d="M106.2893 47.4714
L106.2860 47.6677
" />
<path d="M106.2860 47.6677
L106.2490 47.8057
" />
<path d="M106.2490 47.8057
L106.1537 47.9774
" />
<path d="M106.1537 47.9774
L106.0831 48.0570
" />
<path d="M106.0831 48.0570
L105.9664 48.1244
" />
<path d="M105.9664 48.1244
L105.8161 48.1334
" />
<path d="M105.8161 48.1334
L105.5861 48.0718
" />
</g><g transform="rotate(-15.000000 210.2330 47.5746)">
<text x="210.2330" y="48.0746"
textLength="2.9643" font-size="1.3333" lengthAdjust="spacingAndGlyphs"
text-anchor="middle" opacity="0">LED</text>
</g>
<g class="stroked-text"><desc>LED</desc>
<path d="M209.7297 48.1803
L209.2698 48.3035
" />
<path d="M209.2698 48.3035
L209.0110 47.3376
" />
<path d="M209.9161 47.5880
L210.2381 47.5018
" />
<path d="M210.5117 47.9708
L210.0517 48.0940
" />
<path d="M210.0517 48.0940
L209.7929 47.1281
" />
<path d="M209.7929 47.1281
L210.2529 47.0048
" />
<path d="M210.9257 47.8598
L210.6668 46.8939
" />
<path d="M210.6668 46.8939
L210.8968 46.8323
" />
<path d="M210.8968 46.8323
L211.0471 46.8413
" />
<path d="M211.0471 46.8413
L211.1638 46.9086
" />
<path d="M211.1638 46.9086
L211.2344 46.9883
" />
<path d="M211.2344 46.9883
L211.3297 47.1600
" />
<path d="M211.3297 47.1600
L211.3667 47.2980
" />
<path d="M211.3667 47.2980
L211.3700 47.4943
" />
<path d="M211.3700 47.4943
L211.3486 47.5986
" />
<path d="M211.3486 47.5986
L211.2813 47.7152
" />
<path d="M211.2813 47.7152
L211.1556 47.7982
" />
<path d="M211.1556 47.7982
L210.9257 47.8598
" />
</g><g transform="rotate(-15.000000 175.2612 56.1512)">
<text x="175.2612" y="56.6512"
textLength="2.9643" font-size="1.3333" lengthAdjust="spacingAndGlyphs"
text-anchor="middle" opacity="0">LED</text>
</g>
<g class="stroked-text"><desc>LED</desc>
<path d="M174.7579 56.7570
L174.2980 56.8802
" />
<path d="M174.2980 56.8802
L174.0391 55.9143
" />
<path d="M174.9443 56.1647
L175.2663 56.0784
" />
<path d="M175.5399 56.5474
L175.0799 56.6707
" />
<path d="M175.0799 56.6707
L174.8211 55.7048
" />
<path d="M174.8211 55.7048
L175.2810 55.5815
" />
<path d="M175.9538 56.4365
L175.6950 55.4706
" />
<path d="M175.6950 55.4706
L175.9250 55.4090
" />
<path d="M175.9250 55.4090
L176.0753 55.4180
" />
<path d="M176.0753 55.4180
L176.1919 55.4853
" />
<path d="M176.1919 55.4853
L176.2626 55.5650
" />
<path d="M176.2626 55.5650
L176.3579 55.7367
" />
<path d="M176.3579 55.7367
L176.3949 55.8746
" />
<path d="M176.3949 55.8746
L176.3982 56.0710
" />
<path d="M176.3982 56.0710
L176.3768 56.1753
" />
<path d="M176.3768 56.1753
L176.3095 56.2919
" />
<path d="M176.3095 56.2919
L176.1838 56.3749
" />
<path d="M176.1838 56.3749
L175.9538 56.4365
" />
</g><text x="157.3506" y="133.6245"
textLength="2.9643" font-size="1.3333" lengthAdjust="spacingAndGlyphs"
text-anchor="middle" opacity="0">LED</text>
<g class="stroked-text"><desc>LED</desc>
<path d="M156.7077 133.5794
L156.2315 133.5794
" />
<path d="M156.2315 133.5794
L156.2315 132.5794
" />
<path d="M157.0410 133.0555
L157.3744 133.0555
" />
<path d="M157.5172 133.5794
L157.0410 133.5794
" />
<path d="M157.0410 133.5794
L157.0410 132.5794
" />
<path d="M157.0410 132.5794
L157.5172 132.5794
" />
<path d="M157.9458 133.5794
L157.9458 132.5794
" />
<path d="M157.9458 132.5794
L158.1839 132.5794
" />
<path d="M158.1839 132.5794
L158.3268 132.6270
" />
<path d="M158.3268 132.6270
L158.4220 132.7222
" />
<path d="M158.4220 132.7222
L158.4696 132.8174
" />
<path d="M158.4696 132.8174
L158.5172 133.0079
" />
<path d="M158.5172 133.0079
L158.5172 133.1508
" />
<path d="M158.5172 133.1508
L158.4696 133.3413
" />
<path d="M158.4696 133.3413
L158.4220 133.4365
" />
<path d="M158.4220 133.4365
L158.3268 133.5317
" />
<path d="M158.3268 133.5317
L158.1839 133.5794
" />
<path d="M158.1839 133.5794
L157.9458 133.5794
" />
</g><g transform="rotate(-345.000000 137.7511 64.8240)">
<text x="137.7511" y="65.3240"
textLength="2.9643" font-size="1.3333" lengthAdjust="spacingAndGlyphs"
text-anchor="middle" opacity="0">LED</text>
</g>
<g class="stroked-text"><desc>LED</desc>
<path d="M137.0124 65.0969
L136.5525 64.9737
" />
<path d="M136.5525 64.9737
L136.8113 64.0077
" />
<path d="M137.4700 64.6772
L137.7920 64.7635
" />
<path d="M137.7944 65.3064
L137.3344 65.1832
" />
<path d="M137.3344 65.1832
L137.5932 64.2172
" />
<path d="M137.5932 64.2172
L138.0532 64.3405
" />
<path d="M138.2084 65.4173
L138.4672 64.4514
" />
<path d="M138.4672 64.4514
L138.6972 64.5130
" />
<path d="M138.6972 64.5130
L138.8228 64.5960
" />
<path d="M138.8228 64.5960
L138.8902 64.7127
" />
<path d="M138.8902 64.7127
L138.9115 64.8170
" />
<path d="M138.9115 64.8170
L138.9082 65.0133
" />
<path d="M138.9082 65.0133
L138.8712 65.1513
" />
<path d="M138.8712 65.1513
L138.7759 65.3229
" />
<path d="M138.7759 65.3229
L138.7053 65.4026
" />
<path d="M138.7053 65.4026
L138.5887 65.4699
" />
<path d="M138.5887 65.4699
L138.4383 65.4790
" />
<path d="M138.4383 65.4790
L138.2084 65.4173
" />
</g><circle cx="251.2950" cy="95.5751" r="3.5000" /> 
<circle cx="112.6720" cy="124.5718" r="3.5000" /> 
<circle cx="242.4951" cy="62.7336" r="3.5000" /> 
<circle cx="187.1396" cy="66.6245" r="3.5000" /> 
<circle cx="54.1950" cy="62.6925" r="3.5000" /> 
<circle cx="109.5392" cy="66.6246" r="3.5000" /> 
<circle cx="184.0071" cy="124.5717" r="3.5000" /> 
</g>
<g style="fill:#000000; fill-opacity:0.0; 
stroke:#000000; stroke-width:0.2000; stroke-opacity:1; 
stroke-linecap:round; stroke-linejoin:round;">
<path d="M171.4803 30.9270
L176.0821 48.1011
" />
<path d="M176.0821 48.1011
L155.8870 53.5124
" />
<path d="M155.8870 53.5124
L151.2852 36.3382
" />
<path d="M151.2852 36.3382
L171.4803 30.9270
" />
</g>
<g style="fill:#000000; fill-opacity:0.0; 
stroke:#000000; stroke-width:0.1000; stroke-opacity:1; 
stroke-linecap:round; stroke-linejoin:round;">
<path d="M174.1195 34.7637
L176.4493 43.4588
" />
<path d="M176.4493 43.4588
L169.3490 45.3613
" />
<path d="M169.3490 45.3613
L167.0192 36.6663
" />
<path d="M167.0192 36.6663
L174.1195 34.7637
" />
</g>
<g style="fill:#000000; fill-opacity:0.0; 
stroke:#000000; stroke-width:0.1500; stroke-opacity:1; 
stroke-linecap:round; stroke-linejoin:round;">
<circle cx="45.3951" cy="95.5340" r="3.5000" /> 
</g>
<g style="fill:#000000; fill-opacity:0.0; 
stroke:#000000; stroke-width:0.1000; stroke-opacity:1; 
stroke-linecap:round; stroke-linejoin:round;">
<path d="M206.7792 94.5723
L201.9496 95.8664
" />
<path d="M201.9496 95.8664
L202.7649 98.9090
" />
<path d="M202.7649 98.9090
L207.5945 97.6149
" />
<path d="M207.5945 97.6149
L206.7792 94.5723
" />
<path d="M225.4399 94.6684
L220.6103 95.9625
" />
<path d="M220.6103 95.9625
L221.4256 99.0052
" />
<path d="M221.4256 99.0052
L226.2552 97.7111
" />
<path d="M226.2552 97.7111
L225.4399 94.6684
" />
<path d="M244.0768 94.6753
L239.2471 95.9694
" />
<path d="M239.2471 95.9694
L240.0624 99.0121
" />
<path d="M240.0624 99.0121
L244.8921 97.7180
" />
<path d="M244.8921 97.7180
L244.0768 94.6753
" />
<path d="M262.7375 94.7715
L257.9079 96.0656
" />
<path d="M257.9079 96.0656
L258.7232 99.1082
" />
<path d="M258.7232 99.1082
L263.5528 97.8141
" />
<path d="M263.5528 97.8141
L262.7375 94.7715
" />
<path d="M43.1822 79.6860
L38.3525 78.3919
" />
<path d="M38.3525 78.3919
L37.5373 81.4345
" />
<path d="M37.5373 81.4345
L42.3669 82.7286
" />
<path d="M42.3669 82.7286
L43.1822 79.6860
" />
<path d="M61.8540 79.5483
L57.0244 78.2542
" />
<path d="M57.0244 78.2542
L56.2091 81.2968
" />
<path d="M56.2091 81.2968
L61.0387 82.5909
" />
<path d="M61.0387 82.5909
L61.8540 79.5483
" />
<path d="M80.4907 79.5418
L75.6611 78.2477
" />
<path d="M75.6611 78.2477
L74.8458 81.2903
" />
<path d="M74.8458 81.2903
L79.6755 82.5844
" />
<path d="M79.6755 82.5844
L80.4907 79.5418
" />
<path d="M115.4626 88.1184
L110.6329 86.8243
" />
<path d="M110.6329 86.8243
L109.8177 89.8670
" />
<path d="M109.8177 89.8670
L114.6473 91.1611
" />
<path d="M114.6473 91.1611
L115.4626 88.1184
" />
<path d="M131.7737 96.7912
L126.9441 95.4971
" />
<path d="M126.9441 95.4971
L126.1288 98.5397
" />
<path d="M126.1288 98.5397
L130.9584 99.8338
" />
<path d="M130.9584 99.8338
L131.7737 96.7912
" />
<path d="M169.7571 95.4971
L164.9274 96.7912
" />
<path d="M164.9274 96.7912
L165.7427 99.8338
" />
<path d="M165.7427 99.8338
L170.5724 98.5397
" />
<path d="M170.5724 98.5397
L169.7571 95.4971
" />
<path d="M136.1736 80.3704
L131.3440 79.0763
" />
<path d="M131.3440 79.0763
L130.5287 82.1190
" />
<path d="M130.5287 82.1190
L135.3583 83.4131
" />
<path d="M135.3583 83.4131
L136.1736 80.3704
" />
<path d="M99.1515 79.4456
L94.3218 78.1515
" />
<path d="M94.3218 78.1515
L93.5066 81.1942
" />
<path d="M93.5066 81.1942
L98.3362 82.4883
" />
<path d="M98.3362 82.4883
L99.1515 79.4456
" />
<path d="M186.0682 86.8243
L181.2386 88.1184
" />
<path d="M181.2386 88.1184
L182.0538 91.1611
" />
<path d="M182.0538 91.1611
L186.8835 89.8670
" />
<path d="M186.8835 89.8670
L186.0682 86.8243
" />
<path d="M202.3793 78.1515
L197.5497 79.4456
" />
<path d="M197.5497 79.4456
L198.3650 82.4883
" />
<path d="M198.3650 82.4883
L203.1946 81.1942
" />
<path d="M203.1946 81.1942
L202.3793 78.1515
" />
<path d="M221.0400 78.2477
L216.2104 79.5418
" />
<path d="M216.2104 79.5418
L217.0257 82.5844
" />
<path d="M217.0257 82.5844
L221.8553 81.2903
" />
<path d="M221.8553 81.2903
L221.0400 78.2477
" />
<path d="M239.6768 78.2546
L234.8472 79.5487
" />
<path d="M234.8472 79.5487
L235.6625 82.5914
" />
<path d="M235.6625 82.5914
L240.4921 81.2973
" />
<path d="M240.4921 81.2973
L239.6768 78.2546
" />
<path d="M258.3376 78.3507
L253.5080 79.6448
" />
<path d="M253.5080 79.6448
L254.3232 82.6875
" />
<path d="M254.3232 82.6875
L259.1529 81.3934
" />
<path d="M259.1529 81.3934
L258.3376 78.3507
" />
<path d="M47.5821 63.2652
L42.7525 61.9711
" />
<path d="M42.7525 61.9711
L41.9372 65.0138
" />
<path d="M41.9372 65.0138
L46.7668 66.3079
" />
<path d="M46.7668 66.3079
L47.5821 63.2652
" />
<path d="M178.5569 128.3382
L173.7273 129.6323
" />
<path d="M173.7273 129.6323
L174.5426 132.6750
" />
<path d="M174.5426 132.6750
L179.3722 131.3809
" />
<path d="M179.3722 131.3809
L178.5569 128.3382
" />
<path d="M66.2539 63.1275
L61.4243 61.8334
" />
<path d="M61.4243 61.8334
L60.6090 64.8761
" />
<path d="M60.6090 64.8761
L65.4387 66.1702
" />
<path d="M65.4387 66.1702
L66.2539 63.1275
" />
<path d="M253.9377 61.9300
L249.1080 63.2241
" />
<path d="M249.1080 63.2241
L249.9233 66.2668
" />
<path d="M249.9233 66.2668
L254.7529 64.9727
" />
<path d="M254.7529 64.9727
L253.9377 61.9300
" />
<path d="M181.6683 70.4036
L176.8386 71.6977
" />
<path d="M176.8386 71.6977
L177.6539 74.7403
" />
<path d="M177.6539 74.7403
L182.4835 73.4462
" />
<path d="M182.4835 73.4462
L181.6683 70.4036
" />
<path d="M197.9794 61.7308
L193.1497 63.0249
" />
<path d="M193.1497 63.0249
L193.9650 66.0676
" />
<path d="M193.9650 66.0676
L198.7947 64.7735
" />
<path d="M198.7947 64.7735
L197.9794 61.7308
" />
<path d="M119.8625 71.6977
L115.0329 70.4036
" />
<path d="M115.0329 70.4036
L114.2176 73.4462
" />
<path d="M114.2176 73.4462
L119.0472 74.7403
" />
<path d="M119.0472 74.7403
L119.8625 71.6977
" />
<path d="M127.3738 113.2119
L122.5441 111.9178
" />
<path d="M122.5441 111.9178
L121.7289 114.9605
" />
<path d="M121.7289 114.9605
L126.5585 116.2546
" />
<path d="M126.5585 116.2546
L127.3738 113.2119
" />
<path d="M235.2769 61.8339
L230.4473 63.1279
" />
<path d="M230.4473 63.1279
L231.2626 66.1706
" />
<path d="M231.2626 66.1706
L236.0922 64.8765
" />
<path d="M236.0922 64.8765
L235.2769 61.8339
" />
<path d="M84.8907 63.1210
L80.0610 61.8269
" />
<path d="M80.0610 61.8269
L79.2457 64.8696
" />
<path d="M79.2457 64.8696
L84.0754 66.1637
" />
<path d="M84.0754 66.1637
L84.8907 63.1210
" />
<path d="M103.5514 63.0249
L98.7218 61.7308
" />
<path d="M98.7218 61.7308
L97.9065 64.7735
" />
<path d="M97.9065 64.7735
L102.7361 66.0676
" />
<path d="M102.7361 66.0676
L103.5514 63.0249
" />
<path d="M38.7822 96.1067
L33.9526 94.8126
" />
<path d="M33.9526 94.8126
L33.1373 97.8553
" />
<path d="M33.1373 97.8553
L37.9669 99.1494
" />
<path d="M37.9669 99.1494
L38.7822 96.1067
" />
<path d="M57.4541 95.9690
L52.6245 94.6749
" />
<path d="M52.6245 94.6749
L51.8092 97.7176
" />
<path d="M51.8092 97.7176
L56.6388 99.0117
" />
<path d="M56.6388 99.0117
L57.4541 95.9690
" />
<path d="M76.0908 95.9625
L71.2612 94.6684
" />
<path d="M71.2612 94.6684
L70.4459 97.7111
" />
<path d="M70.4459 97.7111
L75.2755 99.0052
" />
<path d="M75.2755 99.0052
L76.0908 95.9625
" />
<path d="M94.7515 95.8664
L89.9219 94.5723
" />
<path d="M89.9219 94.5723
L89.1066 97.6150
" />
<path d="M89.1066 97.6150
L93.9363 98.9090
" />
<path d="M93.9363 98.9090
L94.7515 95.8664
" />
<path d="M111.0627 104.5391
L106.2330 103.2450
" />
<path d="M106.2330 103.2450
L105.4177 106.2877
" />
<path d="M105.4177 106.2877
L110.2474 107.5818
" />
<path d="M110.2474 107.5818
L111.0627 104.5391
" />
<path d="M174.1570 111.9178
L169.3274 113.2119
" />
<path d="M169.3274 113.2119
L170.1427 116.2546
" />
<path d="M170.1427 116.2546
L174.9723 114.9605
" />
<path d="M174.9723 114.9605
L174.1570 111.9178
" />
<path d="M190.4681 103.2450
L185.6385 104.5391
" />
<path d="M185.6385 104.5391
L186.4538 107.5818
" />
<path d="M186.4538 107.5818
L191.2834 106.2877
" />
<path d="M191.2834 106.2877
L190.4681 103.2450
" />
<path d="M216.6401 61.8270
L211.8105 63.1210
" />
<path d="M211.8105 63.1210
L212.6258 66.1637
" />
<path d="M212.6258 66.1637
L217.4554 64.8696
" />
<path d="M217.4554 64.8696
L216.6401 61.8270
" />
<path d="M165.3572 79.0763
L160.5275 80.3704
" />
<path d="M160.5275 80.3704
L161.3428 83.4131
" />
<path d="M161.3428 83.4131
L166.1724 82.1190
" />
<path d="M166.1724 82.1190
L165.3572 79.0763
" />
<path d="M198.9368 121.5757
L193.9368 121.5757
" />
<path d="M193.9368 121.5757
L193.9368 124.7257
" />
<path d="M193.9368 124.7257
L198.9368 124.7257
" />
<path d="M198.9368 124.7257
L198.9368 121.5757
" />
<path d="M122.9738 129.6326
L118.1442 128.3386
" />
<path d="M118.1442 128.3386
L117.3289 131.3812
" />
<path d="M117.3289 131.3812
L122.1586 132.6753
" />
<path d="M122.1586 132.6753
L122.9738 129.6326
" />
<path d="M102.7646 121.5760
L97.7646 121.5760
" />
<path d="M97.7646 121.5760
L97.7646 124.7260
" />
<path d="M97.7646 124.7260
L102.7646 124.7260
" />
<path d="M102.7646 124.7260
L102.7646 121.5760
" />
<path d="M141.8506 131.5495
L136.8506 131.5495
" />
<path d="M136.8506 131.5495
L136.8506 134.6995
" />
<path d="M136.8506 134.6995
L141.8506 134.6995
" />
<path d="M141.8506 134.6995
L141.8506 131.5495
" />
<path d="M216.9372 116.0935
L211.9372 116.0935
" />
<path d="M211.9372 116.0935
L211.9372 119.2435
" />
<path d="M211.9372 119.2435
L216.9372 119.2435
" />
<path d="M216.9372 119.2435
L216.9372 116.0935
" />
<path d="M230.8770 45.4131
L226.0474 46.7072
" />
<path d="M226.0474 46.7072
L226.8627 49.7499
" />
<path d="M226.8627 49.7499
L231.6923 48.4558
" />
<path d="M231.6923 48.4558
L230.8770 45.4131
" />
<path d="M249.5378 45.5092
L244.7081 46.8033
" />
<path d="M244.7081 46.8033
L245.5234 49.8460
" />
<path d="M245.5234 49.8460
L250.3530 48.5519
" />
<path d="M250.3530 48.5519
L249.5378 45.5092
" />
<path d="M89.2906 46.7003
L84.4610 45.4062
" />
<path d="M84.4610 45.4062
L83.6457 48.4488
" />
<path d="M83.6457 48.4488
L88.4753 49.7429
" />
<path d="M88.4753 49.7429
L89.2906 46.7003
" />
<path d="M84.7646 116.0940
L79.7646 116.0940
" />
<path d="M79.7646 116.0940
L79.7646 119.2440
" />
<path d="M79.7646 119.2440
L84.7646 119.2440
" />
<path d="M84.7646 119.2440
L84.7646 116.0940
" />
<path d="M51.9820 46.8444
L47.1524 45.5503
" />
<path d="M47.1524 45.5503
L46.3371 48.5930
" />
<path d="M46.3371 48.5930
L51.1668 49.8871
" />
<path d="M51.1668 49.8871
L51.9820 46.8444
" />
<path d="M193.5795 45.3100
L188.7499 46.6041
" />
<path d="M188.7499 46.6041
L189.5651 49.6468
" />
<path d="M189.5651 49.6468
L194.3948 48.3527
" />
<path d="M194.3948 48.3527
L193.5795 45.3100
" />
<path d="M160.9573 62.6556
L156.1276 63.9497
" />
<path d="M156.1276 63.9497
L156.9429 66.9924
" />
<path d="M156.9429 66.9924
L161.7726 65.6983
" />
<path d="M161.7726 65.6983
L160.9573 62.6556
" />
<path d="M124.2624 55.2769
L119.4328 53.9828
" />
<path d="M119.4328 53.9828
L118.6175 57.0255
" />
<path d="M118.6175 57.0255
L123.4471 58.3196
" />
<path d="M123.4471 58.3196
L124.2624 55.2769
" />
<path d="M70.6539 46.7068
L65.8242 45.4127
" />
<path d="M65.8242 45.4127
L65.0089 48.4553
" />
<path d="M65.0089 48.4553
L69.8386 49.7494
" />
<path d="M69.8386 49.7494
L70.6539 46.7068
" />
<path d="M107.9513 46.6041
L103.1217 45.3100
" />
<path d="M103.1217 45.3100
L102.3064 48.3527
" />
<path d="M102.3064 48.3527
L107.1361 49.6468
" />
<path d="M107.1361 49.6468
L107.9513 46.6041
" />
<path d="M212.2402 45.4062
L207.4105 46.7003
" />
<path d="M207.4105 46.7003
L208.2258 49.7430
" />
<path d="M208.2258 49.7430
L213.0554 48.4489
" />
<path d="M213.0554 48.4489
L212.2402 45.4062
" />
<path d="M177.2683 53.9829
L172.4387 55.2770
" />
<path d="M172.4387 55.2770
L173.2540 58.3196
" />
<path d="M173.2540 58.3196
L178.0836 57.0255
" />
<path d="M178.0836 57.0255
L177.2683 53.9829
" />
<path d="M159.8506 131.5495
L154.8506 131.5495
" />
<path d="M154.8506 131.5495
L154.8506 134.6995
" />
<path d="M154.8506 134.6995
L159.8506 134.6995
" />
<path d="M159.8506 134.6995
L159.8506 131.5495
" />
<path d="M140.5736 63.9497
L135.7439 62.6556
" />
<path d="M135.7439 62.6556
L134.9287 65.6983
" />
<path d="M134.9287 65.6983
L139.7583 66.9923
" />
<path d="M139.7583 66.9923
L140.5736 63.9497
" />
<g >
</g>
<g >
</g>
<g >
</g>
<g >
</g>
<g >
</g>
<g >
</g>
<g >
</g>
<g >
</g>
<g >
</g>
<g >
</g>
<g >
</g>
<g >
</g>
<g >
</g>
<g >
</g>
<g >
</g>
<g >
</g>
<g >
</g>
<g >
</g>
<g >
</g>
<g >
</g>
<g >
</g>
<g >
</g>
<g >
</g>
<g >
</g>
<g >
</g>
<g >
</g>
<g >
</g>
<g >
</g>
<g >
</g>
<g >
</g>
<g >
</g>
<g >
</g>
<g >
</g>
<g >
</g>
<g >
</g>
<g >
</g>
<g >
</g>
<g >
</g>
<g >
</g>
<g >
</g>
<g >
</g>
<g >
</g>
<g >
</g>
<g >
</g>
<g >
</g>
<g >
</g>
<g >
</g>
<g >
</g>
<g >
</g>
<g >
</g>
<g >
</g>
<g >
</g>
<g >
</g>
<g >
</g>
<g >
</g>
<g >
</g>
<g >
</g>
<g >
</g>
<g >
</g>
<g >
</g>
<g >
</g>
<g >
</g>
<g >
</g>
<g >
</g>
<g >
</g>
<g >
</g>
<g >
</g>
<g >
</g>
<g >
</g>
<g >
</g>
<g >
</g>
<g >
</g>
<g >
</g>
<g >
</g>
<g >
</g>
<g >
</g>
<g >
</g>
<g >
</g>
<g >
</g>
<g >
</g>
<g >
</g>
<g >
</g>
<g >
</g>
<g >
</g>
<g >
</g>
<g >
</g>
<g >
</g>
<g >
</g>
<g >
</g>
<g >
</g>
<g >
</g>
<g >
</g>
<g >
</g>
<g >
</g>
<g >
</g>
<g >
</g>
<g >
</g>
<g >
</g>
<g >
</g>
<g >
</g>
<g >
</g>
<g >
</g>
<g >
</g>
<g >
</g>
<g >
</g>
<g >
</g>
<g >
</g>
<g >
</g>
<g >
</g>
<g >
</g>
<g >
</g>
<g >
</g>
<g >
</g>
<g >
</g>
<g >
</g>
<g >
</g>
<g >
</g>
<g >
</g>
<g >
</g>
<g >
</g>
<g >
</g>
<g >
</g>
<g >
</g>
<g >
</g>
<g >
</g>
<g >
</g>
<g >
</g>
<g >
</g>
<g >
</g>
<g >
</g>
<g >
</g>
<g >
</g>
<g >
</g>
<g >
</g>
</g> 
</svg>
