G04 #@! TF.GenerationSoftware,KiCad,Pcbnew,7.0.9-7.0.9~ubuntu22.04.1*
G04 #@! TF.CreationDate,2023-12-21T13:29:14+01:00*
G04 #@! TF.ProjectId,ergo56,6572676f-3536-42e6-9b69-6361645f7063,0.1*
G04 #@! TF.SameCoordinates,Original*
G04 #@! TF.FileFunction,Soldermask,Bot*
G04 #@! TF.FilePolarity,Negative*
%FSLAX46Y46*%
G04 Gerber Fmt 4.6, Leading zero omitted, Abs format (unit mm)*
G04 Created by KiCad (PCBNEW 7.0.9-7.0.9~ubuntu22.04.1) date 2023-12-21 13:29:14*
%MOMM*%
%LPD*%
G01*
G04 APERTURE LIST*
%ADD10C,1.500000*%
%ADD11C,3.500000*%
%ADD12C,1.700000*%
%ADD13C,3.400000*%
%ADD14C,3.300000*%
G04 APERTURE END LIST*
D10*
X142971411Y-103387234D03*
X141159678Y-110148715D03*
D11*
X251294969Y-95575136D03*
X112672016Y-124571755D03*
X242495081Y-62733607D03*
X187139552Y-66624529D03*
D10*
X153924918Y-103401916D03*
X155736651Y-110163397D03*
D11*
X54194961Y-62692513D03*
X109539210Y-66624587D03*
X184007067Y-124571747D03*
X45395136Y-95534008D03*
D12*
X211301086Y-99857002D03*
D13*
X205988494Y-101280507D03*
D12*
X200675902Y-102704012D03*
D14*
X202129436Y-106196824D03*
G36*
G01*
X200005687Y-105689194D02*
X200544031Y-107698320D01*
G75*
G02*
X200360183Y-108016754I-251141J-67293D01*
G01*
X198302761Y-108568038D01*
G75*
G02*
X197984327Y-108384190I-67293J251141D01*
G01*
X197445983Y-106375064D01*
G75*
G02*
X197629831Y-106056630I251141J67293D01*
G01*
X199687253Y-105505346D01*
G75*
G02*
X200005687Y-105689194I67293J-251141D01*
G01*
G37*
G36*
G01*
X211673577Y-104840400D02*
X212211921Y-106849526D01*
G75*
G02*
X212028073Y-107167960I-251141J-67293D01*
G01*
X209970651Y-107719244D01*
G75*
G02*
X209652217Y-107535396I-67293J251141D01*
G01*
X209113873Y-105526270D01*
G75*
G02*
X209297721Y-105207836I251141J67293D01*
G01*
X211355143Y-104656552D01*
G75*
G02*
X211673577Y-104840400I67293J-251141D01*
G01*
G37*
X207528467Y-107027766D03*
D12*
X229961814Y-99953153D03*
D13*
X224649222Y-101376658D03*
D12*
X219336630Y-102800163D03*
D14*
X220790164Y-106292975D03*
G36*
G01*
X218666415Y-105785345D02*
X219204759Y-107794471D01*
G75*
G02*
X219020911Y-108112905I-251141J-67293D01*
G01*
X216963489Y-108664189D01*
G75*
G02*
X216645055Y-108480341I-67293J251141D01*
G01*
X216106711Y-106471215D01*
G75*
G02*
X216290559Y-106152781I251141J67293D01*
G01*
X218347981Y-105601497D01*
G75*
G02*
X218666415Y-105785345I67293J-251141D01*
G01*
G37*
G36*
G01*
X230334305Y-104936551D02*
X230872649Y-106945677D01*
G75*
G02*
X230688801Y-107264111I-251141J-67293D01*
G01*
X228631379Y-107815395D01*
G75*
G02*
X228312945Y-107631547I-67293J251141D01*
G01*
X227774601Y-105622421D01*
G75*
G02*
X227958449Y-105303987I251141J67293D01*
G01*
X230015871Y-104752703D01*
G75*
G02*
X230334305Y-104936551I67293J-251141D01*
G01*
G37*
X226189195Y-107123917D03*
D12*
X248598641Y-99960057D03*
D13*
X243286049Y-101383562D03*
D12*
X237973457Y-102807067D03*
D14*
X239426991Y-106299879D03*
G36*
G01*
X237303242Y-105792249D02*
X237841586Y-107801375D01*
G75*
G02*
X237657738Y-108119809I-251141J-67293D01*
G01*
X235600316Y-108671093D01*
G75*
G02*
X235281882Y-108487245I-67293J251141D01*
G01*
X234743538Y-106478119D01*
G75*
G02*
X234927386Y-106159685I251141J67293D01*
G01*
X236984808Y-105608401D01*
G75*
G02*
X237303242Y-105792249I67293J-251141D01*
G01*
G37*
G36*
G01*
X248971132Y-104943455D02*
X249509476Y-106952581D01*
G75*
G02*
X249325628Y-107271015I-251141J-67293D01*
G01*
X247268206Y-107822299D01*
G75*
G02*
X246949772Y-107638451I-67293J251141D01*
G01*
X246411428Y-105629325D01*
G75*
G02*
X246595276Y-105310891I251141J67293D01*
G01*
X248652698Y-104759607D01*
G75*
G02*
X248971132Y-104943455I67293J-251141D01*
G01*
G37*
X244826022Y-107130821D03*
D12*
X267259381Y-100056207D03*
D13*
X261946789Y-101479712D03*
D12*
X256634197Y-102903217D03*
D14*
X258087731Y-106396029D03*
G36*
G01*
X255963982Y-105888399D02*
X256502326Y-107897525D01*
G75*
G02*
X256318478Y-108215959I-251141J-67293D01*
G01*
X254261056Y-108767243D01*
G75*
G02*
X253942622Y-108583395I-67293J251141D01*
G01*
X253404278Y-106574269D01*
G75*
G02*
X253588126Y-106255835I251141J67293D01*
G01*
X255645548Y-105704551D01*
G75*
G02*
X255963982Y-105888399I67293J-251141D01*
G01*
G37*
G36*
G01*
X267631872Y-105039605D02*
X268170216Y-107048731D01*
G75*
G02*
X267986368Y-107367165I-251141J-67293D01*
G01*
X265928946Y-107918449D01*
G75*
G02*
X265610512Y-107734601I-67293J251141D01*
G01*
X265072168Y-105725475D01*
G75*
G02*
X265256016Y-105407041I251141J67293D01*
G01*
X267313438Y-104855757D01*
G75*
G02*
X267631872Y-105039605I67293J-251141D01*
G01*
G37*
X263486762Y-107226971D03*
D12*
X44455848Y-86523604D03*
D13*
X39143256Y-85100099D03*
D12*
X33830664Y-83676594D03*
D14*
X33343055Y-87428226D03*
G36*
G01*
X31757650Y-85926730D02*
X31219306Y-87935856D01*
G75*
G02*
X30900872Y-88119704I-251141J67293D01*
G01*
X28843450Y-87568420D01*
G75*
G02*
X28659602Y-87249986I67293J251141D01*
G01*
X29197946Y-85240860D01*
G75*
G02*
X29516380Y-85057012I251141J-67293D01*
G01*
X31573802Y-85608296D01*
G75*
G02*
X31757650Y-85926730I-67293J-251141D01*
G01*
G37*
G36*
G01*
X42286736Y-91025597D02*
X41748392Y-93034723D01*
G75*
G02*
X41429958Y-93218571I-251141J67293D01*
G01*
X39372536Y-92667287D01*
G75*
G02*
X39188688Y-92348853I67293J251141D01*
G01*
X39727032Y-90339727D01*
G75*
G02*
X40045466Y-90155879I251141J-67293D01*
G01*
X42102888Y-90707163D01*
G75*
G02*
X42286736Y-91025597I-67293J-251141D01*
G01*
G37*
X37603283Y-90847358D03*
D12*
X63127710Y-86385915D03*
D13*
X57815118Y-84962410D03*
D12*
X52502526Y-83538905D03*
D14*
X52014917Y-87290537D03*
G36*
G01*
X50429512Y-85789041D02*
X49891168Y-87798167D01*
G75*
G02*
X49572734Y-87982015I-251141J67293D01*
G01*
X47515312Y-87430731D01*
G75*
G02*
X47331464Y-87112297I67293J251141D01*
G01*
X47869808Y-85103171D01*
G75*
G02*
X48188242Y-84919323I251141J-67293D01*
G01*
X50245664Y-85470607D01*
G75*
G02*
X50429512Y-85789041I-67293J-251141D01*
G01*
G37*
G36*
G01*
X60958598Y-90887908D02*
X60420254Y-92897034D01*
G75*
G02*
X60101820Y-93080882I-251141J67293D01*
G01*
X58044398Y-92529598D01*
G75*
G02*
X57860550Y-92211164I67293J251141D01*
G01*
X58398894Y-90202038D01*
G75*
G02*
X58717328Y-90018190I251141J-67293D01*
G01*
X60774750Y-90569474D01*
G75*
G02*
X60958598Y-90887908I-67293J-251141D01*
G01*
G37*
X56275145Y-90709669D03*
D12*
X81764420Y-86379414D03*
D13*
X76451828Y-84955909D03*
D12*
X71139236Y-83532404D03*
D14*
X70651627Y-87284036D03*
G36*
G01*
X69066222Y-85782540D02*
X68527878Y-87791666D01*
G75*
G02*
X68209444Y-87975514I-251141J67293D01*
G01*
X66152022Y-87424230D01*
G75*
G02*
X65968174Y-87105796I67293J251141D01*
G01*
X66506518Y-85096670D01*
G75*
G02*
X66824952Y-84912822I251141J-67293D01*
G01*
X68882374Y-85464106D01*
G75*
G02*
X69066222Y-85782540I-67293J-251141D01*
G01*
G37*
G36*
G01*
X79595308Y-90881407D02*
X79056964Y-92890533D01*
G75*
G02*
X78738530Y-93074381I-251141J67293D01*
G01*
X76681108Y-92523097D01*
G75*
G02*
X76497260Y-92204663I67293J251141D01*
G01*
X77035604Y-90195537D01*
G75*
G02*
X77354038Y-90011689I251141J-67293D01*
G01*
X79411460Y-90562973D01*
G75*
G02*
X79595308Y-90881407I-67293J-251141D01*
G01*
G37*
X74911855Y-90703168D03*
D12*
X116736261Y-94956036D03*
D13*
X111423669Y-93532531D03*
D12*
X106111077Y-92109026D03*
D14*
X105623468Y-95860658D03*
G36*
G01*
X104038063Y-94359162D02*
X103499719Y-96368288D01*
G75*
G02*
X103181285Y-96552136I-251141J67293D01*
G01*
X101123863Y-96000852D01*
G75*
G02*
X100940015Y-95682418I67293J251141D01*
G01*
X101478359Y-93673292D01*
G75*
G02*
X101796793Y-93489444I251141J-67293D01*
G01*
X103854215Y-94040728D01*
G75*
G02*
X104038063Y-94359162I-67293J-251141D01*
G01*
G37*
G36*
G01*
X114567149Y-99458029D02*
X114028805Y-101467155D01*
G75*
G02*
X113710371Y-101651003I-251141J67293D01*
G01*
X111652949Y-101099719D01*
G75*
G02*
X111469101Y-100781285I67293J251141D01*
G01*
X112007445Y-98772159D01*
G75*
G02*
X112325879Y-98588311I251141J-67293D01*
G01*
X114383301Y-99139595D01*
G75*
G02*
X114567149Y-99458029I-67293J-251141D01*
G01*
G37*
X109883696Y-99279790D03*
D12*
X133047381Y-103628815D03*
D13*
X127734789Y-102205310D03*
D12*
X122422197Y-100781805D03*
D14*
X121934588Y-104533437D03*
G36*
G01*
X120349183Y-103031941D02*
X119810839Y-105041067D01*
G75*
G02*
X119492405Y-105224915I-251141J67293D01*
G01*
X117434983Y-104673631D01*
G75*
G02*
X117251135Y-104355197I67293J251141D01*
G01*
X117789479Y-102346071D01*
G75*
G02*
X118107913Y-102162223I251141J-67293D01*
G01*
X120165335Y-102713507D01*
G75*
G02*
X120349183Y-103031941I-67293J-251141D01*
G01*
G37*
G36*
G01*
X130878269Y-108130808D02*
X130339925Y-110139934D01*
G75*
G02*
X130021491Y-110323782I-251141J67293D01*
G01*
X127964069Y-109772498D01*
G75*
G02*
X127780221Y-109454064I67293J251141D01*
G01*
X128318565Y-107444938D01*
G75*
G02*
X128636999Y-107261090I251141J-67293D01*
G01*
X130694421Y-107812374D01*
G75*
G02*
X130878269Y-108130808I-67293J-251141D01*
G01*
G37*
X126194816Y-107952569D03*
D12*
X174278945Y-100781800D03*
D13*
X168966353Y-102205305D03*
D12*
X163653761Y-103628810D03*
D14*
X165107295Y-107121622D03*
G36*
G01*
X162983546Y-106613992D02*
X163521890Y-108623118D01*
G75*
G02*
X163338042Y-108941552I-251141J-67293D01*
G01*
X161280620Y-109492836D01*
G75*
G02*
X160962186Y-109308988I-67293J251141D01*
G01*
X160423842Y-107299862D01*
G75*
G02*
X160607690Y-106981428I251141J67293D01*
G01*
X162665112Y-106430144D01*
G75*
G02*
X162983546Y-106613992I67293J-251141D01*
G01*
G37*
G36*
G01*
X174651436Y-105765198D02*
X175189780Y-107774324D01*
G75*
G02*
X175005932Y-108092758I-251141J-67293D01*
G01*
X172948510Y-108644042D01*
G75*
G02*
X172630076Y-108460194I-67293J251141D01*
G01*
X172091732Y-106451068D01*
G75*
G02*
X172275580Y-106132634I251141J67293D01*
G01*
X174333002Y-105581350D01*
G75*
G02*
X174651436Y-105765198I67293J-251141D01*
G01*
G37*
X170506326Y-107952564D03*
D12*
X137447294Y-87208078D03*
D13*
X132134702Y-85784573D03*
D12*
X126822110Y-84361068D03*
D14*
X126334501Y-88112700D03*
G36*
G01*
X124749096Y-86611204D02*
X124210752Y-88620330D01*
G75*
G02*
X123892318Y-88804178I-251141J67293D01*
G01*
X121834896Y-88252894D01*
G75*
G02*
X121651048Y-87934460I67293J251141D01*
G01*
X122189392Y-85925334D01*
G75*
G02*
X122507826Y-85741486I251141J-67293D01*
G01*
X124565248Y-86292770D01*
G75*
G02*
X124749096Y-86611204I-67293J-251141D01*
G01*
G37*
G36*
G01*
X135278182Y-91710071D02*
X134739838Y-93719197D01*
G75*
G02*
X134421404Y-93903045I-251141J67293D01*
G01*
X132363982Y-93351761D01*
G75*
G02*
X132180134Y-93033327I67293J251141D01*
G01*
X132718478Y-91024201D01*
G75*
G02*
X133036912Y-90840353I251141J-67293D01*
G01*
X135094334Y-91391637D01*
G75*
G02*
X135278182Y-91710071I-67293J-251141D01*
G01*
G37*
X130594729Y-91531832D03*
D12*
X100425155Y-86283271D03*
D13*
X95112563Y-84859766D03*
D12*
X89799971Y-83436261D03*
D14*
X89312362Y-87187893D03*
G36*
G01*
X87726957Y-85686397D02*
X87188613Y-87695523D01*
G75*
G02*
X86870179Y-87879371I-251141J67293D01*
G01*
X84812757Y-87328087D01*
G75*
G02*
X84628909Y-87009653I67293J251141D01*
G01*
X85167253Y-85000527D01*
G75*
G02*
X85485687Y-84816679I251141J-67293D01*
G01*
X87543109Y-85367963D01*
G75*
G02*
X87726957Y-85686397I-67293J-251141D01*
G01*
G37*
G36*
G01*
X98256043Y-90785264D02*
X97717699Y-92794390D01*
G75*
G02*
X97399265Y-92978238I-251141J67293D01*
G01*
X95341843Y-92426954D01*
G75*
G02*
X95157995Y-92108520I67293J251141D01*
G01*
X95696339Y-90099394D01*
G75*
G02*
X96014773Y-89915546I251141J-67293D01*
G01*
X98072195Y-90466830D01*
G75*
G02*
X98256043Y-90785264I-67293J-251141D01*
G01*
G37*
X93572590Y-90607025D03*
D12*
X190590053Y-92109034D03*
D13*
X185277461Y-93532539D03*
D12*
X179964869Y-94956044D03*
D14*
X181418403Y-98448856D03*
G36*
G01*
X179294654Y-97941226D02*
X179832998Y-99950352D01*
G75*
G02*
X179649150Y-100268786I-251141J-67293D01*
G01*
X177591728Y-100820070D01*
G75*
G02*
X177273294Y-100636222I-67293J251141D01*
G01*
X176734950Y-98627096D01*
G75*
G02*
X176918798Y-98308662I251141J67293D01*
G01*
X178976220Y-97757378D01*
G75*
G02*
X179294654Y-97941226I67293J-251141D01*
G01*
G37*
G36*
G01*
X190962544Y-97092432D02*
X191500888Y-99101558D01*
G75*
G02*
X191317040Y-99419992I-251141J-67293D01*
G01*
X189259618Y-99971276D01*
G75*
G02*
X188941184Y-99787428I-67293J251141D01*
G01*
X188402840Y-97778302D01*
G75*
G02*
X188586688Y-97459868I251141J67293D01*
G01*
X190644110Y-96908584D01*
G75*
G02*
X190962544Y-97092432I67293J-251141D01*
G01*
G37*
X186817434Y-99279798D03*
D12*
X206901169Y-83436261D03*
D13*
X201588577Y-84859766D03*
D12*
X196275985Y-86283271D03*
D14*
X197729519Y-89776083D03*
G36*
G01*
X195605770Y-89268453D02*
X196144114Y-91277579D01*
G75*
G02*
X195960266Y-91596013I-251141J-67293D01*
G01*
X193902844Y-92147297D01*
G75*
G02*
X193584410Y-91963449I-67293J251141D01*
G01*
X193046066Y-89954323D01*
G75*
G02*
X193229914Y-89635889I251141J67293D01*
G01*
X195287336Y-89084605D01*
G75*
G02*
X195605770Y-89268453I67293J-251141D01*
G01*
G37*
G36*
G01*
X207273660Y-88419659D02*
X207812004Y-90428785D01*
G75*
G02*
X207628156Y-90747219I-251141J-67293D01*
G01*
X205570734Y-91298503D01*
G75*
G02*
X205252300Y-91114655I-67293J251141D01*
G01*
X204713956Y-89105529D01*
G75*
G02*
X204897804Y-88787095I251141J67293D01*
G01*
X206955226Y-88235811D01*
G75*
G02*
X207273660Y-88419659I67293J-251141D01*
G01*
G37*
X203128550Y-90607025D03*
D12*
X225561905Y-83532411D03*
D13*
X220249313Y-84955916D03*
D12*
X214936721Y-86379421D03*
D14*
X216390255Y-89872233D03*
G36*
G01*
X214266506Y-89364603D02*
X214804850Y-91373729D01*
G75*
G02*
X214621002Y-91692163I-251141J-67293D01*
G01*
X212563580Y-92243447D01*
G75*
G02*
X212245146Y-92059599I-67293J251141D01*
G01*
X211706802Y-90050473D01*
G75*
G02*
X211890650Y-89732039I251141J67293D01*
G01*
X213948072Y-89180755D01*
G75*
G02*
X214266506Y-89364603I67293J-251141D01*
G01*
G37*
G36*
G01*
X225934396Y-88515809D02*
X226472740Y-90524935D01*
G75*
G02*
X226288892Y-90843369I-251141J-67293D01*
G01*
X224231470Y-91394653D01*
G75*
G02*
X223913036Y-91210805I-67293J251141D01*
G01*
X223374692Y-89201679D01*
G75*
G02*
X223558540Y-88883245I251141J67293D01*
G01*
X225615962Y-88331961D01*
G75*
G02*
X225934396Y-88515809I67293J-251141D01*
G01*
G37*
X221789286Y-90703175D03*
D12*
X244198716Y-83539319D03*
D13*
X238886124Y-84962824D03*
D12*
X233573532Y-86386329D03*
D14*
X235027066Y-89879141D03*
G36*
G01*
X232903317Y-89371511D02*
X233441661Y-91380637D01*
G75*
G02*
X233257813Y-91699071I-251141J-67293D01*
G01*
X231200391Y-92250355D01*
G75*
G02*
X230881957Y-92066507I-67293J251141D01*
G01*
X230343613Y-90057381D01*
G75*
G02*
X230527461Y-89738947I251141J67293D01*
G01*
X232584883Y-89187663D01*
G75*
G02*
X232903317Y-89371511I67293J-251141D01*
G01*
G37*
G36*
G01*
X244571207Y-88522717D02*
X245109551Y-90531843D01*
G75*
G02*
X244925703Y-90850277I-251141J-67293D01*
G01*
X242868281Y-91401561D01*
G75*
G02*
X242549847Y-91217713I-67293J251141D01*
G01*
X242011503Y-89208587D01*
G75*
G02*
X242195351Y-88890153I251141J67293D01*
G01*
X244252773Y-88338869D01*
G75*
G02*
X244571207Y-88522717I67293J-251141D01*
G01*
G37*
X240426097Y-90710083D03*
D12*
X262859459Y-83635467D03*
D13*
X257546867Y-85058972D03*
D12*
X252234275Y-86482477D03*
D14*
X253687809Y-89975289D03*
G36*
G01*
X251564060Y-89467659D02*
X252102404Y-91476785D01*
G75*
G02*
X251918556Y-91795219I-251141J-67293D01*
G01*
X249861134Y-92346503D01*
G75*
G02*
X249542700Y-92162655I-67293J251141D01*
G01*
X249004356Y-90153529D01*
G75*
G02*
X249188204Y-89835095I251141J67293D01*
G01*
X251245626Y-89283811D01*
G75*
G02*
X251564060Y-89467659I67293J-251141D01*
G01*
G37*
G36*
G01*
X263231950Y-88618865D02*
X263770294Y-90627991D01*
G75*
G02*
X263586446Y-90946425I-251141J-67293D01*
G01*
X261529024Y-91497709D01*
G75*
G02*
X261210590Y-91313861I-67293J251141D01*
G01*
X260672246Y-89304735D01*
G75*
G02*
X260856094Y-88986301I251141J67293D01*
G01*
X262913516Y-88435017D01*
G75*
G02*
X263231950Y-88618865I67293J-251141D01*
G01*
G37*
X259086840Y-90806231D03*
D12*
X48855772Y-70102858D03*
D13*
X43543180Y-68679353D03*
D12*
X38230588Y-67255848D03*
D14*
X37742979Y-71007480D03*
G36*
G01*
X36157574Y-69505984D02*
X35619230Y-71515110D01*
G75*
G02*
X35300796Y-71698958I-251141J67293D01*
G01*
X33243374Y-71147674D01*
G75*
G02*
X33059526Y-70829240I67293J251141D01*
G01*
X33597870Y-68820114D01*
G75*
G02*
X33916304Y-68636266I251141J-67293D01*
G01*
X35973726Y-69187550D01*
G75*
G02*
X36157574Y-69505984I-67293J-251141D01*
G01*
G37*
G36*
G01*
X46686660Y-74604851D02*
X46148316Y-76613977D01*
G75*
G02*
X45829882Y-76797825I-251141J67293D01*
G01*
X43772460Y-76246541D01*
G75*
G02*
X43588612Y-75928107I67293J251141D01*
G01*
X44126956Y-73918981D01*
G75*
G02*
X44445390Y-73735133I251141J-67293D01*
G01*
X46502812Y-74286417D01*
G75*
G02*
X46686660Y-74604851I-67293J-251141D01*
G01*
G37*
X42003207Y-74426612D03*
D12*
X183078809Y-133622963D03*
D13*
X177766217Y-135046468D03*
D12*
X172453625Y-136469973D03*
D14*
X173907159Y-139962785D03*
G36*
G01*
X171783410Y-139455155D02*
X172321754Y-141464281D01*
G75*
G02*
X172137906Y-141782715I-251141J-67293D01*
G01*
X170080484Y-142333999D01*
G75*
G02*
X169762050Y-142150151I-67293J251141D01*
G01*
X169223706Y-140141025D01*
G75*
G02*
X169407554Y-139822591I251141J67293D01*
G01*
X171464976Y-139271307D01*
G75*
G02*
X171783410Y-139455155I67293J-251141D01*
G01*
G37*
G36*
G01*
X183451300Y-138606361D02*
X183989644Y-140615487D01*
G75*
G02*
X183805796Y-140933921I-251141J-67293D01*
G01*
X181748374Y-141485205D01*
G75*
G02*
X181429940Y-141301357I-67293J251141D01*
G01*
X180891596Y-139292231D01*
G75*
G02*
X181075444Y-138973797I251141J67293D01*
G01*
X183132866Y-138422513D01*
G75*
G02*
X183451300Y-138606361I67293J-251141D01*
G01*
G37*
X179306190Y-140793727D03*
D12*
X67527634Y-69965183D03*
D13*
X62215042Y-68541678D03*
D12*
X56902450Y-67118173D03*
D14*
X56414841Y-70869805D03*
G36*
G01*
X54829436Y-69368309D02*
X54291092Y-71377435D01*
G75*
G02*
X53972658Y-71561283I-251141J67293D01*
G01*
X51915236Y-71009999D01*
G75*
G02*
X51731388Y-70691565I67293J251141D01*
G01*
X52269732Y-68682439D01*
G75*
G02*
X52588166Y-68498591I251141J-67293D01*
G01*
X54645588Y-69049875D01*
G75*
G02*
X54829436Y-69368309I-67293J-251141D01*
G01*
G37*
G36*
G01*
X65358522Y-74467176D02*
X64820178Y-76476302D01*
G75*
G02*
X64501744Y-76660150I-251141J67293D01*
G01*
X62444322Y-76108866D01*
G75*
G02*
X62260474Y-75790432I67293J251141D01*
G01*
X62798818Y-73781306D01*
G75*
G02*
X63117252Y-73597458I251141J-67293D01*
G01*
X65174674Y-74148742D01*
G75*
G02*
X65358522Y-74467176I-67293J-251141D01*
G01*
G37*
X60675069Y-74288937D03*
D12*
X258459519Y-67214719D03*
D13*
X253146927Y-68638224D03*
D12*
X247834335Y-70061729D03*
D14*
X249287869Y-73554541D03*
G36*
G01*
X247164120Y-73046911D02*
X247702464Y-75056037D01*
G75*
G02*
X247518616Y-75374471I-251141J-67293D01*
G01*
X245461194Y-75925755D01*
G75*
G02*
X245142760Y-75741907I-67293J251141D01*
G01*
X244604416Y-73732781D01*
G75*
G02*
X244788264Y-73414347I251141J67293D01*
G01*
X246845686Y-72863063D01*
G75*
G02*
X247164120Y-73046911I67293J-251141D01*
G01*
G37*
G36*
G01*
X258832010Y-72198117D02*
X259370354Y-74207243D01*
G75*
G02*
X259186506Y-74525677I-251141J-67293D01*
G01*
X257129084Y-75076961D01*
G75*
G02*
X256810650Y-74893113I-67293J251141D01*
G01*
X256272306Y-72883987D01*
G75*
G02*
X256456154Y-72565553I251141J67293D01*
G01*
X258513576Y-72014269D01*
G75*
G02*
X258832010Y-72198117I67293J-251141D01*
G01*
G37*
X254686900Y-74385483D03*
D12*
X186190134Y-75688295D03*
D13*
X180877542Y-77111800D03*
D12*
X175564950Y-78535305D03*
D14*
X177018484Y-82028117D03*
G36*
G01*
X174894735Y-81520487D02*
X175433079Y-83529613D01*
G75*
G02*
X175249231Y-83848047I-251141J-67293D01*
G01*
X173191809Y-84399331D01*
G75*
G02*
X172873375Y-84215483I-67293J251141D01*
G01*
X172335031Y-82206357D01*
G75*
G02*
X172518879Y-81887923I251141J67293D01*
G01*
X174576301Y-81336639D01*
G75*
G02*
X174894735Y-81520487I67293J-251141D01*
G01*
G37*
G36*
G01*
X186562625Y-80671693D02*
X187100969Y-82680819D01*
G75*
G02*
X186917121Y-82999253I-251141J-67293D01*
G01*
X184859699Y-83550537D01*
G75*
G02*
X184541265Y-83366689I-67293J251141D01*
G01*
X184002921Y-81357563D01*
G75*
G02*
X184186769Y-81039129I251141J67293D01*
G01*
X186244191Y-80487845D01*
G75*
G02*
X186562625Y-80671693I67293J-251141D01*
G01*
G37*
X182417515Y-82859059D03*
D12*
X202501241Y-67015521D03*
D13*
X197188649Y-68439026D03*
D12*
X191876057Y-69862531D03*
D14*
X193329591Y-73355343D03*
G36*
G01*
X191205842Y-72847713D02*
X191744186Y-74856839D01*
G75*
G02*
X191560338Y-75175273I-251141J-67293D01*
G01*
X189502916Y-75726557D01*
G75*
G02*
X189184482Y-75542709I-67293J251141D01*
G01*
X188646138Y-73533583D01*
G75*
G02*
X188829986Y-73215149I251141J67293D01*
G01*
X190887408Y-72663865D01*
G75*
G02*
X191205842Y-72847713I67293J-251141D01*
G01*
G37*
G36*
G01*
X202873732Y-71998919D02*
X203412076Y-74008045D01*
G75*
G02*
X203228228Y-74326479I-251141J-67293D01*
G01*
X201170806Y-74877763D01*
G75*
G02*
X200852372Y-74693915I-67293J251141D01*
G01*
X200314028Y-72684789D01*
G75*
G02*
X200497876Y-72366355I251141J67293D01*
G01*
X202555298Y-71815071D01*
G75*
G02*
X202873732Y-71998919I67293J-251141D01*
G01*
G37*
X198728622Y-74186285D03*
D12*
X121136190Y-78535301D03*
D13*
X115823598Y-77111796D03*
D12*
X110511006Y-75688291D03*
D14*
X110023397Y-79439923D03*
G36*
G01*
X108437992Y-77938427D02*
X107899648Y-79947553D01*
G75*
G02*
X107581214Y-80131401I-251141J67293D01*
G01*
X105523792Y-79580117D01*
G75*
G02*
X105339944Y-79261683I67293J251141D01*
G01*
X105878288Y-77252557D01*
G75*
G02*
X106196722Y-77068709I251141J-67293D01*
G01*
X108254144Y-77619993D01*
G75*
G02*
X108437992Y-77938427I-67293J-251141D01*
G01*
G37*
G36*
G01*
X118967078Y-83037294D02*
X118428734Y-85046420D01*
G75*
G02*
X118110300Y-85230268I-251141J67293D01*
G01*
X116052878Y-84678984D01*
G75*
G02*
X115869030Y-84360550I67293J251141D01*
G01*
X116407374Y-82351424D01*
G75*
G02*
X116725808Y-82167576I251141J-67293D01*
G01*
X118783230Y-82718860D01*
G75*
G02*
X118967078Y-83037294I-67293J-251141D01*
G01*
G37*
X114283625Y-82859055D03*
D12*
X128647451Y-120049550D03*
D13*
X123334859Y-118626045D03*
D12*
X118022267Y-117202540D03*
D14*
X117534658Y-120954172D03*
G36*
G01*
X115949253Y-119452676D02*
X115410909Y-121461802D01*
G75*
G02*
X115092475Y-121645650I-251141J67293D01*
G01*
X113035053Y-121094366D01*
G75*
G02*
X112851205Y-120775932I67293J251141D01*
G01*
X113389549Y-118766806D01*
G75*
G02*
X113707983Y-118582958I251141J-67293D01*
G01*
X115765405Y-119134242D01*
G75*
G02*
X115949253Y-119452676I-67293J-251141D01*
G01*
G37*
G36*
G01*
X126478339Y-124551543D02*
X125939995Y-126560669D01*
G75*
G02*
X125621561Y-126744517I-251141J67293D01*
G01*
X123564139Y-126193233D01*
G75*
G02*
X123380291Y-125874799I67293J251141D01*
G01*
X123918635Y-123865673D01*
G75*
G02*
X124237069Y-123681825I251141J-67293D01*
G01*
X126294491Y-124233109D01*
G75*
G02*
X126478339Y-124551543I-67293J-251141D01*
G01*
G37*
X121794886Y-124373304D03*
D12*
X239798806Y-67118579D03*
D13*
X234486214Y-68542084D03*
D12*
X229173622Y-69965589D03*
D14*
X230627156Y-73458401D03*
G36*
G01*
X228503407Y-72950771D02*
X229041751Y-74959897D01*
G75*
G02*
X228857903Y-75278331I-251141J-67293D01*
G01*
X226800481Y-75829615D01*
G75*
G02*
X226482047Y-75645767I-67293J251141D01*
G01*
X225943703Y-73636641D01*
G75*
G02*
X226127551Y-73318207I251141J67293D01*
G01*
X228184973Y-72766923D01*
G75*
G02*
X228503407Y-72950771I67293J-251141D01*
G01*
G37*
G36*
G01*
X240171297Y-72101977D02*
X240709641Y-74111103D01*
G75*
G02*
X240525793Y-74429537I-251141J-67293D01*
G01*
X238468371Y-74980821D01*
G75*
G02*
X238149937Y-74796973I-67293J251141D01*
G01*
X237611593Y-72787847D01*
G75*
G02*
X237795441Y-72469413I251141J67293D01*
G01*
X239852863Y-71918129D01*
G75*
G02*
X240171297Y-72101977I67293J-251141D01*
G01*
G37*
X236026187Y-74289343D03*
D12*
X86164341Y-69958683D03*
D13*
X80851749Y-68535178D03*
D12*
X75539157Y-67111673D03*
D14*
X75051548Y-70863305D03*
G36*
G01*
X73466143Y-69361809D02*
X72927799Y-71370935D01*
G75*
G02*
X72609365Y-71554783I-251141J67293D01*
G01*
X70551943Y-71003499D01*
G75*
G02*
X70368095Y-70685065I67293J251141D01*
G01*
X70906439Y-68675939D01*
G75*
G02*
X71224873Y-68492091I251141J-67293D01*
G01*
X73282295Y-69043375D01*
G75*
G02*
X73466143Y-69361809I-67293J-251141D01*
G01*
G37*
G36*
G01*
X83995229Y-74460676D02*
X83456885Y-76469802D01*
G75*
G02*
X83138451Y-76653650I-251141J67293D01*
G01*
X81081029Y-76102366D01*
G75*
G02*
X80897181Y-75783932I67293J251141D01*
G01*
X81435525Y-73774806D01*
G75*
G02*
X81753959Y-73590958I251141J-67293D01*
G01*
X83811381Y-74142242D01*
G75*
G02*
X83995229Y-74460676I-67293J-251141D01*
G01*
G37*
X79311776Y-74282437D03*
D12*
X104825079Y-69862541D03*
D13*
X99512487Y-68439036D03*
D12*
X94199895Y-67015531D03*
D14*
X93712286Y-70767163D03*
G36*
G01*
X92126881Y-69265667D02*
X91588537Y-71274793D01*
G75*
G02*
X91270103Y-71458641I-251141J67293D01*
G01*
X89212681Y-70907357D01*
G75*
G02*
X89028833Y-70588923I67293J251141D01*
G01*
X89567177Y-68579797D01*
G75*
G02*
X89885611Y-68395949I251141J-67293D01*
G01*
X91943033Y-68947233D01*
G75*
G02*
X92126881Y-69265667I-67293J-251141D01*
G01*
G37*
G36*
G01*
X102655967Y-74364534D02*
X102117623Y-76373660D01*
G75*
G02*
X101799189Y-76557508I-251141J67293D01*
G01*
X99741767Y-76006224D01*
G75*
G02*
X99557919Y-75687790I67293J251141D01*
G01*
X100096263Y-73678664D01*
G75*
G02*
X100414697Y-73494816I251141J-67293D01*
G01*
X102472119Y-74046100D01*
G75*
G02*
X102655967Y-74364534I-67293J-251141D01*
G01*
G37*
X97972514Y-74186295D03*
D12*
X40055916Y-102944347D03*
D13*
X34743324Y-101520842D03*
D12*
X29430732Y-100097337D03*
D14*
X28943123Y-103848969D03*
G36*
G01*
X27357718Y-102347473D02*
X26819374Y-104356599D01*
G75*
G02*
X26500940Y-104540447I-251141J67293D01*
G01*
X24443518Y-103989163D01*
G75*
G02*
X24259670Y-103670729I67293J251141D01*
G01*
X24798014Y-101661603D01*
G75*
G02*
X25116448Y-101477755I251141J-67293D01*
G01*
X27173870Y-102029039D01*
G75*
G02*
X27357718Y-102347473I-67293J-251141D01*
G01*
G37*
G36*
G01*
X37886804Y-107446340D02*
X37348460Y-109455466D01*
G75*
G02*
X37030026Y-109639314I-251141J67293D01*
G01*
X34972604Y-109088030D01*
G75*
G02*
X34788756Y-108769596I67293J251141D01*
G01*
X35327100Y-106760470D01*
G75*
G02*
X35645534Y-106576622I251141J-67293D01*
G01*
X37702956Y-107127906D01*
G75*
G02*
X37886804Y-107446340I-67293J-251141D01*
G01*
G37*
X33203351Y-107268101D03*
D12*
X58727776Y-102806654D03*
D13*
X53415184Y-101383149D03*
D12*
X48102592Y-99959644D03*
D14*
X47614983Y-103711276D03*
G36*
G01*
X46029578Y-102209780D02*
X45491234Y-104218906D01*
G75*
G02*
X45172800Y-104402754I-251141J67293D01*
G01*
X43115378Y-103851470D01*
G75*
G02*
X42931530Y-103533036I67293J251141D01*
G01*
X43469874Y-101523910D01*
G75*
G02*
X43788308Y-101340062I251141J-67293D01*
G01*
X45845730Y-101891346D01*
G75*
G02*
X46029578Y-102209780I-67293J-251141D01*
G01*
G37*
G36*
G01*
X56558664Y-107308647D02*
X56020320Y-109317773D01*
G75*
G02*
X55701886Y-109501621I-251141J67293D01*
G01*
X53644464Y-108950337D01*
G75*
G02*
X53460616Y-108631903I67293J251141D01*
G01*
X53998960Y-106622777D01*
G75*
G02*
X54317394Y-106438929I251141J-67293D01*
G01*
X56374816Y-106990213D01*
G75*
G02*
X56558664Y-107308647I-67293J-251141D01*
G01*
G37*
X51875211Y-107130408D03*
D12*
X77364501Y-102800164D03*
D13*
X72051909Y-101376659D03*
D12*
X66739317Y-99953154D03*
D14*
X66251708Y-103704786D03*
G36*
G01*
X64666303Y-102203290D02*
X64127959Y-104212416D01*
G75*
G02*
X63809525Y-104396264I-251141J67293D01*
G01*
X61752103Y-103844980D01*
G75*
G02*
X61568255Y-103526546I67293J251141D01*
G01*
X62106599Y-101517420D01*
G75*
G02*
X62425033Y-101333572I251141J-67293D01*
G01*
X64482455Y-101884856D01*
G75*
G02*
X64666303Y-102203290I-67293J-251141D01*
G01*
G37*
G36*
G01*
X75195389Y-107302157D02*
X74657045Y-109311283D01*
G75*
G02*
X74338611Y-109495131I-251141J67293D01*
G01*
X72281189Y-108943847D01*
G75*
G02*
X72097341Y-108625413I67293J251141D01*
G01*
X72635685Y-106616287D01*
G75*
G02*
X72954119Y-106432439I251141J-67293D01*
G01*
X75011541Y-106983723D01*
G75*
G02*
X75195389Y-107302157I-67293J-251141D01*
G01*
G37*
X70511936Y-107123918D03*
D12*
X96025236Y-102704022D03*
D13*
X90712644Y-101280517D03*
D12*
X85400052Y-99857012D03*
D14*
X84912443Y-103608644D03*
G36*
G01*
X83327038Y-102107148D02*
X82788694Y-104116274D01*
G75*
G02*
X82470260Y-104300122I-251141J67293D01*
G01*
X80412838Y-103748838D01*
G75*
G02*
X80228990Y-103430404I67293J251141D01*
G01*
X80767334Y-101421278D01*
G75*
G02*
X81085768Y-101237430I251141J-67293D01*
G01*
X83143190Y-101788714D01*
G75*
G02*
X83327038Y-102107148I-67293J-251141D01*
G01*
G37*
G36*
G01*
X93856124Y-107206015D02*
X93317780Y-109215141D01*
G75*
G02*
X92999346Y-109398989I-251141J67293D01*
G01*
X90941924Y-108847705D01*
G75*
G02*
X90758076Y-108529271I67293J251141D01*
G01*
X91296420Y-106520145D01*
G75*
G02*
X91614854Y-106336297I251141J-67293D01*
G01*
X93672276Y-106887581D01*
G75*
G02*
X93856124Y-107206015I-67293J-251141D01*
G01*
G37*
X89172671Y-107027776D03*
D12*
X112336346Y-111376773D03*
D13*
X107023754Y-109953268D03*
D12*
X101711162Y-108529763D03*
D14*
X101223553Y-112281395D03*
G36*
G01*
X99638148Y-110779899D02*
X99099804Y-112789025D01*
G75*
G02*
X98781370Y-112972873I-251141J67293D01*
G01*
X96723948Y-112421589D01*
G75*
G02*
X96540100Y-112103155I67293J251141D01*
G01*
X97078444Y-110094029D01*
G75*
G02*
X97396878Y-109910181I251141J-67293D01*
G01*
X99454300Y-110461465D01*
G75*
G02*
X99638148Y-110779899I-67293J-251141D01*
G01*
G37*
G36*
G01*
X110167234Y-115878766D02*
X109628890Y-117887892D01*
G75*
G02*
X109310456Y-118071740I-251141J67293D01*
G01*
X107253034Y-117520456D01*
G75*
G02*
X107069186Y-117202022I67293J251141D01*
G01*
X107607530Y-115192896D01*
G75*
G02*
X107925964Y-115009048I251141J-67293D01*
G01*
X109983386Y-115560332D01*
G75*
G02*
X110167234Y-115878766I-67293J-251141D01*
G01*
G37*
X105483781Y-115700527D03*
D12*
X178678879Y-117202549D03*
D13*
X173366287Y-118626054D03*
D12*
X168053695Y-120049559D03*
D14*
X169507229Y-123542371D03*
G36*
G01*
X167383480Y-123034741D02*
X167921824Y-125043867D01*
G75*
G02*
X167737976Y-125362301I-251141J-67293D01*
G01*
X165680554Y-125913585D01*
G75*
G02*
X165362120Y-125729737I-67293J251141D01*
G01*
X164823776Y-123720611D01*
G75*
G02*
X165007624Y-123402177I251141J67293D01*
G01*
X167065046Y-122850893D01*
G75*
G02*
X167383480Y-123034741I67293J-251141D01*
G01*
G37*
G36*
G01*
X179051370Y-122185947D02*
X179589714Y-124195073D01*
G75*
G02*
X179405866Y-124513507I-251141J-67293D01*
G01*
X177348444Y-125064791D01*
G75*
G02*
X177030010Y-124880943I-67293J251141D01*
G01*
X176491666Y-122871817D01*
G75*
G02*
X176675514Y-122553383I251141J67293D01*
G01*
X178732936Y-122002099D01*
G75*
G02*
X179051370Y-122185947I67293J-251141D01*
G01*
G37*
X174906260Y-124373313D03*
D12*
X194989982Y-108529773D03*
D13*
X189677390Y-109953278D03*
D12*
X184364798Y-111376783D03*
D14*
X185818332Y-114869595D03*
G36*
G01*
X183694583Y-114361965D02*
X184232927Y-116371091D01*
G75*
G02*
X184049079Y-116689525I-251141J-67293D01*
G01*
X181991657Y-117240809D01*
G75*
G02*
X181673223Y-117056961I-67293J251141D01*
G01*
X181134879Y-115047835D01*
G75*
G02*
X181318727Y-114729401I251141J67293D01*
G01*
X183376149Y-114178117D01*
G75*
G02*
X183694583Y-114361965I67293J-251141D01*
G01*
G37*
G36*
G01*
X195362473Y-113513171D02*
X195900817Y-115522297D01*
G75*
G02*
X195716969Y-115840731I-251141J-67293D01*
G01*
X193659547Y-116392015D01*
G75*
G02*
X193341113Y-116208167I-67293J251141D01*
G01*
X192802769Y-114199041D01*
G75*
G02*
X192986617Y-113880607I251141J67293D01*
G01*
X195044039Y-113329323D01*
G75*
G02*
X195362473Y-113513171I67293J-251141D01*
G01*
G37*
X191217363Y-115700537D03*
G36*
G01*
X137250572Y-133549992D02*
X137250572Y-132799992D01*
G75*
G02*
X137475572Y-132574992I225000J0D01*
G01*
X137925572Y-132574992D01*
G75*
G02*
X138150572Y-132799992I0J-225000D01*
G01*
X138150572Y-133549992D01*
G75*
G02*
X137925572Y-133774992I-225000J0D01*
G01*
X137475572Y-133774992D01*
G75*
G02*
X137250572Y-133549992I0J225000D01*
G01*
G37*
G36*
G01*
X140550572Y-133549992D02*
X140550572Y-132799992D01*
G75*
G02*
X140775572Y-132574992I225000J0D01*
G01*
X141225572Y-132574992D01*
G75*
G02*
X141450572Y-132799992I0J-225000D01*
G01*
X141450572Y-133549992D01*
G75*
G02*
X141225572Y-133774992I-225000J0D01*
G01*
X140775572Y-133774992D01*
G75*
G02*
X140550572Y-133549992I0J225000D01*
G01*
G37*
D12*
X221161974Y-67111678D03*
D13*
X215849382Y-68535183D03*
D12*
X210536790Y-69958688D03*
D14*
X211990324Y-73451500D03*
G36*
G01*
X209866575Y-72943870D02*
X210404919Y-74952996D01*
G75*
G02*
X210221071Y-75271430I-251141J-67293D01*
G01*
X208163649Y-75822714D01*
G75*
G02*
X207845215Y-75638866I-67293J251141D01*
G01*
X207306871Y-73629740D01*
G75*
G02*
X207490719Y-73311306I251141J67293D01*
G01*
X209548141Y-72760022D01*
G75*
G02*
X209866575Y-72943870I67293J-251141D01*
G01*
G37*
G36*
G01*
X221534465Y-72095076D02*
X222072809Y-74104202D01*
G75*
G02*
X221888961Y-74422636I-251141J-67293D01*
G01*
X219831539Y-74973920D01*
G75*
G02*
X219513105Y-74790072I-67293J251141D01*
G01*
X218974761Y-72780946D01*
G75*
G02*
X219158609Y-72462512I251141J67293D01*
G01*
X221216031Y-71911228D01*
G75*
G02*
X221534465Y-72095076I67293J-251141D01*
G01*
G37*
X217389355Y-74282442D03*
D12*
X169879028Y-84361064D03*
D13*
X164566436Y-85784569D03*
D12*
X159253844Y-87208074D03*
D14*
X160707378Y-90700886D03*
G36*
G01*
X158583629Y-90193256D02*
X159121973Y-92202382D01*
G75*
G02*
X158938125Y-92520816I-251141J-67293D01*
G01*
X156880703Y-93072100D01*
G75*
G02*
X156562269Y-92888252I-67293J251141D01*
G01*
X156023925Y-90879126D01*
G75*
G02*
X156207773Y-90560692I251141J67293D01*
G01*
X158265195Y-90009408D01*
G75*
G02*
X158583629Y-90193256I67293J-251141D01*
G01*
G37*
G36*
G01*
X170251519Y-89344462D02*
X170789863Y-91353588D01*
G75*
G02*
X170606015Y-91672022I-251141J-67293D01*
G01*
X168548593Y-92223306D01*
G75*
G02*
X168230159Y-92039458I-67293J251141D01*
G01*
X167691815Y-90030332D01*
G75*
G02*
X167875663Y-89711898I251141J67293D01*
G01*
X169933085Y-89160614D01*
G75*
G02*
X170251519Y-89344462I67293J-251141D01*
G01*
G37*
X166106409Y-91531828D03*
D12*
X201936816Y-127850672D03*
D13*
X196436816Y-127850672D03*
D12*
X190936816Y-127850672D03*
D14*
X191436816Y-131600672D03*
G36*
G01*
X189516816Y-130560672D02*
X189516816Y-132640672D01*
G75*
G02*
X189256816Y-132900672I-260000J0D01*
G01*
X187126816Y-132900672D01*
G75*
G02*
X186866816Y-132640672I0J260000D01*
G01*
X186866816Y-130560672D01*
G75*
G02*
X187126816Y-130300672I260000J0D01*
G01*
X189256816Y-130300672D01*
G75*
G02*
X189516816Y-130560672I0J-260000D01*
G01*
G37*
G36*
G01*
X201006816Y-132760672D02*
X201006816Y-134840672D01*
G75*
G02*
X200746816Y-135100672I-260000J0D01*
G01*
X198616816Y-135100672D01*
G75*
G02*
X198356816Y-134840672I0J260000D01*
G01*
X198356816Y-132760672D01*
G75*
G02*
X198616816Y-132500672I260000J0D01*
G01*
X200746816Y-132500672D01*
G75*
G02*
X201006816Y-132760672I0J-260000D01*
G01*
G37*
X196436816Y-133800672D03*
D12*
X124247529Y-136470290D03*
D13*
X118934937Y-135046785D03*
D12*
X113622345Y-133623280D03*
D14*
X113134736Y-137374912D03*
G36*
G01*
X111549331Y-135873416D02*
X111010987Y-137882542D01*
G75*
G02*
X110692553Y-138066390I-251141J67293D01*
G01*
X108635131Y-137515106D01*
G75*
G02*
X108451283Y-137196672I67293J251141D01*
G01*
X108989627Y-135187546D01*
G75*
G02*
X109308061Y-135003698I251141J-67293D01*
G01*
X111365483Y-135554982D01*
G75*
G02*
X111549331Y-135873416I-67293J-251141D01*
G01*
G37*
G36*
G01*
X122078417Y-140972283D02*
X121540073Y-142981409D01*
G75*
G02*
X121221639Y-143165257I-251141J67293D01*
G01*
X119164217Y-142613973D01*
G75*
G02*
X118980369Y-142295539I67293J251141D01*
G01*
X119518713Y-140286413D01*
G75*
G02*
X119837147Y-140102565I251141J-67293D01*
G01*
X121894569Y-140653849D01*
G75*
G02*
X122078417Y-140972283I-67293J-251141D01*
G01*
G37*
X117394964Y-140794044D03*
D12*
X105764573Y-127850999D03*
D13*
X100264573Y-127850999D03*
D12*
X94764573Y-127850999D03*
D14*
X95264573Y-131600999D03*
G36*
G01*
X93344573Y-130560999D02*
X93344573Y-132640999D01*
G75*
G02*
X93084573Y-132900999I-260000J0D01*
G01*
X90954573Y-132900999D01*
G75*
G02*
X90694573Y-132640999I0J260000D01*
G01*
X90694573Y-130560999D01*
G75*
G02*
X90954573Y-130300999I260000J0D01*
G01*
X93084573Y-130300999D01*
G75*
G02*
X93344573Y-130560999I0J-260000D01*
G01*
G37*
G36*
G01*
X104834573Y-132760999D02*
X104834573Y-134840999D01*
G75*
G02*
X104574573Y-135100999I-260000J0D01*
G01*
X102444573Y-135100999D01*
G75*
G02*
X102184573Y-134840999I0J260000D01*
G01*
X102184573Y-132760999D01*
G75*
G02*
X102444573Y-132500999I260000J0D01*
G01*
X104574573Y-132500999D01*
G75*
G02*
X104834573Y-132760999I0J-260000D01*
G01*
G37*
X100264573Y-133800999D03*
D12*
X144850564Y-137824528D03*
D13*
X139350564Y-137824528D03*
D12*
X133850564Y-137824528D03*
D14*
X134350564Y-141574528D03*
G36*
G01*
X132430564Y-140534528D02*
X132430564Y-142614528D01*
G75*
G02*
X132170564Y-142874528I-260000J0D01*
G01*
X130040564Y-142874528D01*
G75*
G02*
X129780564Y-142614528I0J260000D01*
G01*
X129780564Y-140534528D01*
G75*
G02*
X130040564Y-140274528I260000J0D01*
G01*
X132170564Y-140274528D01*
G75*
G02*
X132430564Y-140534528I0J-260000D01*
G01*
G37*
G36*
G01*
X143920564Y-142734528D02*
X143920564Y-144814528D01*
G75*
G02*
X143660564Y-145074528I-260000J0D01*
G01*
X141530564Y-145074528D01*
G75*
G02*
X141270564Y-144814528I0J260000D01*
G01*
X141270564Y-142734528D01*
G75*
G02*
X141530564Y-142474528I260000J0D01*
G01*
X143660564Y-142474528D01*
G75*
G02*
X143920564Y-142734528I0J-260000D01*
G01*
G37*
X139350564Y-143774528D03*
D12*
X219937165Y-122368497D03*
D13*
X214437165Y-122368497D03*
D12*
X208937165Y-122368497D03*
D14*
X209437165Y-126118497D03*
G36*
G01*
X207517165Y-125078497D02*
X207517165Y-127158497D01*
G75*
G02*
X207257165Y-127418497I-260000J0D01*
G01*
X205127165Y-127418497D01*
G75*
G02*
X204867165Y-127158497I0J260000D01*
G01*
X204867165Y-125078497D01*
G75*
G02*
X205127165Y-124818497I260000J0D01*
G01*
X207257165Y-124818497D01*
G75*
G02*
X207517165Y-125078497I0J-260000D01*
G01*
G37*
G36*
G01*
X219007165Y-127278497D02*
X219007165Y-129358497D01*
G75*
G02*
X218747165Y-129618497I-260000J0D01*
G01*
X216617165Y-129618497D01*
G75*
G02*
X216357165Y-129358497I0J260000D01*
G01*
X216357165Y-127278497D01*
G75*
G02*
X216617165Y-127018497I260000J0D01*
G01*
X218747165Y-127018497D01*
G75*
G02*
X219007165Y-127278497I0J-260000D01*
G01*
G37*
X214437165Y-128318497D03*
D12*
X235398870Y-50697822D03*
D13*
X230086278Y-52121327D03*
D12*
X224773686Y-53544832D03*
D14*
X226227220Y-57037644D03*
G36*
G01*
X224103471Y-56530014D02*
X224641815Y-58539140D01*
G75*
G02*
X224457967Y-58857574I-251141J-67293D01*
G01*
X222400545Y-59408858D01*
G75*
G02*
X222082111Y-59225010I-67293J251141D01*
G01*
X221543767Y-57215884D01*
G75*
G02*
X221727615Y-56897450I251141J67293D01*
G01*
X223785037Y-56346166D01*
G75*
G02*
X224103471Y-56530014I67293J-251141D01*
G01*
G37*
G36*
G01*
X235771361Y-55681220D02*
X236309705Y-57690346D01*
G75*
G02*
X236125857Y-58008780I-251141J-67293D01*
G01*
X234068435Y-58560064D01*
G75*
G02*
X233750001Y-58376216I-67293J251141D01*
G01*
X233211657Y-56367090D01*
G75*
G02*
X233395505Y-56048656I251141J67293D01*
G01*
X235452927Y-55497372D01*
G75*
G02*
X235771361Y-55681220I67293J-251141D01*
G01*
G37*
X231626251Y-57868586D03*
D12*
X254059636Y-50793972D03*
D13*
X248747044Y-52217477D03*
D12*
X243434452Y-53640982D03*
D14*
X244887986Y-57133794D03*
G36*
G01*
X242764237Y-56626164D02*
X243302581Y-58635290D01*
G75*
G02*
X243118733Y-58953724I-251141J-67293D01*
G01*
X241061311Y-59505008D01*
G75*
G02*
X240742877Y-59321160I-67293J251141D01*
G01*
X240204533Y-57312034D01*
G75*
G02*
X240388381Y-56993600I251141J67293D01*
G01*
X242445803Y-56442316D01*
G75*
G02*
X242764237Y-56626164I67293J-251141D01*
G01*
G37*
G36*
G01*
X254432127Y-55777370D02*
X254970471Y-57786496D01*
G75*
G02*
X254786623Y-58104930I-251141J-67293D01*
G01*
X252729201Y-58656214D01*
G75*
G02*
X252410767Y-58472366I-67293J251141D01*
G01*
X251872423Y-56463240D01*
G75*
G02*
X252056271Y-56144806I251141J67293D01*
G01*
X254113693Y-55593522D01*
G75*
G02*
X254432127Y-55777370I67293J-251141D01*
G01*
G37*
X250287017Y-57964736D03*
D12*
X90564273Y-53537908D03*
D13*
X85251681Y-52114403D03*
D12*
X79939089Y-50690898D03*
D14*
X79451480Y-54442530D03*
G36*
G01*
X77866075Y-52941034D02*
X77327731Y-54950160D01*
G75*
G02*
X77009297Y-55134008I-251141J67293D01*
G01*
X74951875Y-54582724D01*
G75*
G02*
X74768027Y-54264290I67293J251141D01*
G01*
X75306371Y-52255164D01*
G75*
G02*
X75624805Y-52071316I251141J-67293D01*
G01*
X77682227Y-52622600D01*
G75*
G02*
X77866075Y-52941034I-67293J-251141D01*
G01*
G37*
G36*
G01*
X88395161Y-58039901D02*
X87856817Y-60049027D01*
G75*
G02*
X87538383Y-60232875I-251141J67293D01*
G01*
X85480961Y-59681591D01*
G75*
G02*
X85297113Y-59363157I67293J251141D01*
G01*
X85835457Y-57354031D01*
G75*
G02*
X86153891Y-57170183I251141J-67293D01*
G01*
X88211313Y-57721467D01*
G75*
G02*
X88395161Y-58039901I-67293J-251141D01*
G01*
G37*
X83711708Y-57861662D03*
D12*
X87764573Y-122368996D03*
D13*
X82264573Y-122368996D03*
D12*
X76764573Y-122368996D03*
D14*
X77264573Y-126118996D03*
G36*
G01*
X75344573Y-125078996D02*
X75344573Y-127158996D01*
G75*
G02*
X75084573Y-127418996I-260000J0D01*
G01*
X72954573Y-127418996D01*
G75*
G02*
X72694573Y-127158996I0J260000D01*
G01*
X72694573Y-125078996D01*
G75*
G02*
X72954573Y-124818996I260000J0D01*
G01*
X75084573Y-124818996D01*
G75*
G02*
X75344573Y-125078996I0J-260000D01*
G01*
G37*
G36*
G01*
X86834573Y-127278996D02*
X86834573Y-129358996D01*
G75*
G02*
X86574573Y-129618996I-260000J0D01*
G01*
X84444573Y-129618996D01*
G75*
G02*
X84184573Y-129358996I0J260000D01*
G01*
X84184573Y-127278996D01*
G75*
G02*
X84444573Y-127018996I260000J0D01*
G01*
X86574573Y-127018996D01*
G75*
G02*
X86834573Y-127278996I0J-260000D01*
G01*
G37*
X82264573Y-128318996D03*
D12*
X53255735Y-53682073D03*
D13*
X47943143Y-52258568D03*
D12*
X42630551Y-50835063D03*
D14*
X42142942Y-54586695D03*
G36*
G01*
X40557537Y-53085199D02*
X40019193Y-55094325D01*
G75*
G02*
X39700759Y-55278173I-251141J67293D01*
G01*
X37643337Y-54726889D01*
G75*
G02*
X37459489Y-54408455I67293J251141D01*
G01*
X37997833Y-52399329D01*
G75*
G02*
X38316267Y-52215481I251141J-67293D01*
G01*
X40373689Y-52766765D01*
G75*
G02*
X40557537Y-53085199I-67293J-251141D01*
G01*
G37*
G36*
G01*
X51086623Y-58184066D02*
X50548279Y-60193192D01*
G75*
G02*
X50229845Y-60377040I-251141J67293D01*
G01*
X48172423Y-59825756D01*
G75*
G02*
X47988575Y-59507322I67293J251141D01*
G01*
X48526919Y-57498196D01*
G75*
G02*
X48845353Y-57314348I251141J-67293D01*
G01*
X50902775Y-57865632D01*
G75*
G02*
X51086623Y-58184066I-67293J-251141D01*
G01*
G37*
X46403170Y-58005827D03*
D12*
X198101365Y-50594758D03*
D13*
X192788773Y-52018263D03*
D12*
X187476181Y-53441768D03*
D14*
X188929715Y-56934580D03*
G36*
G01*
X186805966Y-56426950D02*
X187344310Y-58436076D01*
G75*
G02*
X187160462Y-58754510I-251141J-67293D01*
G01*
X185103040Y-59305794D01*
G75*
G02*
X184784606Y-59121946I-67293J251141D01*
G01*
X184246262Y-57112820D01*
G75*
G02*
X184430110Y-56794386I251141J67293D01*
G01*
X186487532Y-56243102D01*
G75*
G02*
X186805966Y-56426950I67293J-251141D01*
G01*
G37*
G36*
G01*
X198473856Y-55578156D02*
X199012200Y-57587282D01*
G75*
G02*
X198828352Y-57905716I-251141J-67293D01*
G01*
X196770930Y-58457000D01*
G75*
G02*
X196452496Y-58273152I-67293J251141D01*
G01*
X195914152Y-56264026D01*
G75*
G02*
X196098000Y-55945592I251141J67293D01*
G01*
X198155422Y-55394308D01*
G75*
G02*
X198473856Y-55578156I67293J-251141D01*
G01*
G37*
X194328746Y-57765522D03*
D12*
X165479142Y-67940327D03*
D13*
X160166550Y-69363832D03*
D12*
X154853958Y-70787337D03*
D14*
X156307492Y-74280149D03*
G36*
G01*
X154183743Y-73772519D02*
X154722087Y-75781645D01*
G75*
G02*
X154538239Y-76100079I-251141J-67293D01*
G01*
X152480817Y-76651363D01*
G75*
G02*
X152162383Y-76467515I-67293J251141D01*
G01*
X151624039Y-74458389D01*
G75*
G02*
X151807887Y-74139955I251141J67293D01*
G01*
X153865309Y-73588671D01*
G75*
G02*
X154183743Y-73772519I67293J-251141D01*
G01*
G37*
G36*
G01*
X165851633Y-72923725D02*
X166389977Y-74932851D01*
G75*
G02*
X166206129Y-75251285I-251141J-67293D01*
G01*
X164148707Y-75802569D01*
G75*
G02*
X163830273Y-75618721I-67293J251141D01*
G01*
X163291929Y-73609595D01*
G75*
G02*
X163475777Y-73291161I251141J67293D01*
G01*
X165533199Y-72739877D01*
G75*
G02*
X165851633Y-72923725I67293J-251141D01*
G01*
G37*
X161706523Y-75111091D03*
D12*
X125536101Y-62114583D03*
D13*
X120223509Y-60691078D03*
D12*
X114910917Y-59267573D03*
D14*
X114423308Y-63019205D03*
G36*
G01*
X112837903Y-61517709D02*
X112299559Y-63526835D01*
G75*
G02*
X111981125Y-63710683I-251141J67293D01*
G01*
X109923703Y-63159399D01*
G75*
G02*
X109739855Y-62840965I67293J251141D01*
G01*
X110278199Y-60831839D01*
G75*
G02*
X110596633Y-60647991I251141J-67293D01*
G01*
X112654055Y-61199275D01*
G75*
G02*
X112837903Y-61517709I-67293J-251141D01*
G01*
G37*
G36*
G01*
X123366989Y-66616576D02*
X122828645Y-68625702D01*
G75*
G02*
X122510211Y-68809550I-251141J67293D01*
G01*
X120452789Y-68258266D01*
G75*
G02*
X120268941Y-67939832I67293J251141D01*
G01*
X120807285Y-65930706D01*
G75*
G02*
X121125719Y-65746858I251141J-67293D01*
G01*
X123183141Y-66298142D01*
G75*
G02*
X123366989Y-66616576I-67293J-251141D01*
G01*
G37*
X118683536Y-66438337D03*
D12*
X71927547Y-53544396D03*
D13*
X66614955Y-52120891D03*
D12*
X61302363Y-50697386D03*
D14*
X60814754Y-54449018D03*
G36*
G01*
X59229349Y-52947522D02*
X58691005Y-54956648D01*
G75*
G02*
X58372571Y-55140496I-251141J67293D01*
G01*
X56315149Y-54589212D01*
G75*
G02*
X56131301Y-54270778I67293J251141D01*
G01*
X56669645Y-52261652D01*
G75*
G02*
X56988079Y-52077804I251141J-67293D01*
G01*
X59045501Y-52629088D01*
G75*
G02*
X59229349Y-52947522I-67293J-251141D01*
G01*
G37*
G36*
G01*
X69758435Y-58046389D02*
X69220091Y-60055515D01*
G75*
G02*
X68901657Y-60239363I-251141J67293D01*
G01*
X66844235Y-59688079D01*
G75*
G02*
X66660387Y-59369645I67293J251141D01*
G01*
X67198731Y-57360519D01*
G75*
G02*
X67517165Y-57176671I251141J-67293D01*
G01*
X69574587Y-57727955D01*
G75*
G02*
X69758435Y-58046389I-67293J-251141D01*
G01*
G37*
X65074982Y-57868150D03*
D12*
X109225031Y-53441758D03*
D13*
X103912439Y-52018253D03*
D12*
X98599847Y-50594748D03*
D14*
X98112238Y-54346380D03*
G36*
G01*
X96526833Y-52844884D02*
X95988489Y-54854010D01*
G75*
G02*
X95670055Y-55037858I-251141J67293D01*
G01*
X93612633Y-54486574D01*
G75*
G02*
X93428785Y-54168140I67293J251141D01*
G01*
X93967129Y-52159014D01*
G75*
G02*
X94285563Y-51975166I251141J-67293D01*
G01*
X96342985Y-52526450D01*
G75*
G02*
X96526833Y-52844884I-67293J-251141D01*
G01*
G37*
G36*
G01*
X107055919Y-57943751D02*
X106517575Y-59952877D01*
G75*
G02*
X106199141Y-60136725I-251141J67293D01*
G01*
X104141719Y-59585441D01*
G75*
G02*
X103957871Y-59267007I67293J251141D01*
G01*
X104496215Y-57257881D01*
G75*
G02*
X104814649Y-57074033I251141J-67293D01*
G01*
X106872071Y-57625317D01*
G75*
G02*
X107055919Y-57943751I-67293J-251141D01*
G01*
G37*
X102372466Y-57765512D03*
D12*
X216762024Y-50690916D03*
D13*
X211449432Y-52114421D03*
D12*
X206136840Y-53537926D03*
D14*
X207590374Y-57030738D03*
G36*
G01*
X205466625Y-56523108D02*
X206004969Y-58532234D01*
G75*
G02*
X205821121Y-58850668I-251141J-67293D01*
G01*
X203763699Y-59401952D01*
G75*
G02*
X203445265Y-59218104I-67293J251141D01*
G01*
X202906921Y-57208978D01*
G75*
G02*
X203090769Y-56890544I251141J67293D01*
G01*
X205148191Y-56339260D01*
G75*
G02*
X205466625Y-56523108I67293J-251141D01*
G01*
G37*
G36*
G01*
X217134515Y-55674314D02*
X217672859Y-57683440D01*
G75*
G02*
X217489011Y-58001874I-251141J-67293D01*
G01*
X215431589Y-58553158D01*
G75*
G02*
X215113155Y-58369310I-67293J251141D01*
G01*
X214574811Y-56360184D01*
G75*
G02*
X214758659Y-56041750I251141J67293D01*
G01*
X216816081Y-55490466D01*
G75*
G02*
X217134515Y-55674314I67293J-251141D01*
G01*
G37*
X212989405Y-57861680D03*
D12*
X181790200Y-59267595D03*
D13*
X176477608Y-60691100D03*
D12*
X171165016Y-62114605D03*
D14*
X172618550Y-65607417D03*
G36*
G01*
X170494801Y-65099787D02*
X171033145Y-67108913D01*
G75*
G02*
X170849297Y-67427347I-251141J-67293D01*
G01*
X168791875Y-67978631D01*
G75*
G02*
X168473441Y-67794783I-67293J251141D01*
G01*
X167935097Y-65785657D01*
G75*
G02*
X168118945Y-65467223I251141J67293D01*
G01*
X170176367Y-64915939D01*
G75*
G02*
X170494801Y-65099787I67293J-251141D01*
G01*
G37*
G36*
G01*
X182162691Y-64250993D02*
X182701035Y-66260119D01*
G75*
G02*
X182517187Y-66578553I-251141J-67293D01*
G01*
X180459765Y-67129837D01*
G75*
G02*
X180141331Y-66945989I-67293J251141D01*
G01*
X179602987Y-64936863D01*
G75*
G02*
X179786835Y-64618429I251141J67293D01*
G01*
X181844257Y-64067145D01*
G75*
G02*
X182162691Y-64250993I67293J-251141D01*
G01*
G37*
X178017581Y-66438359D03*
G36*
G01*
X155250569Y-133549995D02*
X155250569Y-132799995D01*
G75*
G02*
X155475569Y-132574995I225000J0D01*
G01*
X155925569Y-132574995D01*
G75*
G02*
X156150569Y-132799995I0J-225000D01*
G01*
X156150569Y-133549995D01*
G75*
G02*
X155925569Y-133774995I-225000J0D01*
G01*
X155475569Y-133774995D01*
G75*
G02*
X155250569Y-133549995I0J225000D01*
G01*
G37*
G36*
G01*
X158550569Y-133549995D02*
X158550569Y-132799995D01*
G75*
G02*
X158775569Y-132574995I225000J0D01*
G01*
X159225569Y-132574995D01*
G75*
G02*
X159450569Y-132799995I0J-225000D01*
G01*
X159450569Y-133549995D01*
G75*
G02*
X159225569Y-133774995I-225000J0D01*
G01*
X158775569Y-133774995D01*
G75*
G02*
X158550569Y-133549995I0J225000D01*
G01*
G37*
D12*
X162850563Y-137824532D03*
D13*
X157350563Y-137824532D03*
D12*
X151850563Y-137824532D03*
D14*
X152350563Y-141574532D03*
G36*
G01*
X150430563Y-140534532D02*
X150430563Y-142614532D01*
G75*
G02*
X150170563Y-142874532I-260000J0D01*
G01*
X148040563Y-142874532D01*
G75*
G02*
X147780563Y-142614532I0J260000D01*
G01*
X147780563Y-140534532D01*
G75*
G02*
X148040563Y-140274532I260000J0D01*
G01*
X150170563Y-140274532D01*
G75*
G02*
X150430563Y-140534532I0J-260000D01*
G01*
G37*
G36*
G01*
X161920563Y-142734532D02*
X161920563Y-144814532D01*
G75*
G02*
X161660563Y-145074532I-260000J0D01*
G01*
X159530563Y-145074532D01*
G75*
G02*
X159270563Y-144814532I0J260000D01*
G01*
X159270563Y-142734532D01*
G75*
G02*
X159530563Y-142474532I260000J0D01*
G01*
X161660563Y-142474532D01*
G75*
G02*
X161920563Y-142734532I0J-260000D01*
G01*
G37*
X157350563Y-143774532D03*
D12*
X141847256Y-70787321D03*
D13*
X136534664Y-69363816D03*
D12*
X131222072Y-67940311D03*
D14*
X130734463Y-71691943D03*
G36*
G01*
X129149058Y-70190447D02*
X128610714Y-72199573D01*
G75*
G02*
X128292280Y-72383421I-251141J67293D01*
G01*
X126234858Y-71832137D01*
G75*
G02*
X126051010Y-71513703I67293J251141D01*
G01*
X126589354Y-69504577D01*
G75*
G02*
X126907788Y-69320729I251141J-67293D01*
G01*
X128965210Y-69872013D01*
G75*
G02*
X129149058Y-70190447I-67293J-251141D01*
G01*
G37*
G36*
G01*
X139678144Y-75289314D02*
X139139800Y-77298440D01*
G75*
G02*
X138821366Y-77482288I-251141J67293D01*
G01*
X136763944Y-76931004D01*
G75*
G02*
X136580096Y-76612570I67293J251141D01*
G01*
X137118440Y-74603444D01*
G75*
G02*
X137436874Y-74419596I251141J-67293D01*
G01*
X139494296Y-74970880D01*
G75*
G02*
X139678144Y-75289314I-67293J-251141D01*
G01*
G37*
X134994691Y-75111075D03*
G36*
G01*
X154713550Y-122009530D02*
X157713550Y-122009530D01*
G75*
G02*
X157963550Y-122259530I0J-250000D01*
G01*
X157963550Y-122759530D01*
G75*
G02*
X157713550Y-123009530I-250000J0D01*
G01*
X154713550Y-123009530D01*
G75*
G02*
X154463550Y-122759530I0J250000D01*
G01*
X154463550Y-122259530D01*
G75*
G02*
X154713550Y-122009530I250000J0D01*
G01*
G37*
G36*
G01*
X154713550Y-124009530D02*
X157713550Y-124009530D01*
G75*
G02*
X157963550Y-124259530I0J-250000D01*
G01*
X157963550Y-124759530D01*
G75*
G02*
X157713550Y-125009530I-250000J0D01*
G01*
X154713550Y-125009530D01*
G75*
G02*
X154463550Y-124759530I0J250000D01*
G01*
X154463550Y-124259530D01*
G75*
G02*
X154713550Y-124009530I250000J0D01*
G01*
G37*
G36*
G01*
X160513551Y-119409530D02*
X163413549Y-119409530D01*
G75*
G02*
X163663550Y-119659531I0J-250001D01*
G01*
X163663550Y-120659529D01*
G75*
G02*
X163413549Y-120909530I-250001J0D01*
G01*
X160513551Y-120909530D01*
G75*
G02*
X160263550Y-120659529I0J250001D01*
G01*
X160263550Y-119659531D01*
G75*
G02*
X160513551Y-119409530I250001J0D01*
G01*
G37*
G36*
G01*
X160513551Y-126109530D02*
X163413549Y-126109530D01*
G75*
G02*
X163663550Y-126359531I0J-250001D01*
G01*
X163663550Y-127359529D01*
G75*
G02*
X163413549Y-127609530I-250001J0D01*
G01*
X160513551Y-127609530D01*
G75*
G02*
X160263550Y-127359529I0J250001D01*
G01*
X160263550Y-126359531D01*
G75*
G02*
X160513551Y-126109530I250001J0D01*
G01*
G37*
M02*
