M48
; DRILL file {KiCad 7.0.9-7.0.9~ubuntu22.04.1} date Thu 21 Dec 2023 01:29:14 PM CET
; FORMAT={-:-/ absolute / metric / decimal}
; #@! TF.CreationDate,2023-12-21T13:29:14+01:00
; #@! TF.GenerationSoftware,Kicad,Pcbnew,7.0.9-7.0.9~ubuntu22.04.1
; #@! TF.FileFunction,Plated,1,2,PTH
FMAT,2
METRIC
; #@! TA.AperFunction,Plated,PTH,ComponentDrill
T1C3.000
%
G90
G05
T1
X28.943Y-103.849
X33.203Y-107.268
X33.343Y-87.428
X37.603Y-90.847
X37.743Y-71.007
X42.003Y-74.427
X42.143Y-54.587
X46.403Y-58.006
X47.615Y-103.711
X51.875Y-107.13
X52.015Y-87.291
X56.275Y-90.71
X56.415Y-70.87
X60.675Y-74.289
X60.815Y-54.449
X65.075Y-57.868
X66.252Y-103.705
X70.512Y-107.124
X70.652Y-87.284
X74.912Y-90.703
X75.052Y-70.863
X77.265Y-126.119
X79.312Y-74.282
X79.451Y-54.443
X82.265Y-128.319
X83.712Y-57.862
X84.912Y-103.609
X89.173Y-107.028
X89.312Y-87.188
X93.573Y-90.607
X93.712Y-70.767
X95.265Y-131.601
X97.973Y-74.186
X98.112Y-54.346
X100.265Y-133.801
X101.224Y-112.281
X102.372Y-57.766
X105.484Y-115.701
X105.623Y-95.861
X109.884Y-99.28
X110.023Y-79.44
X113.135Y-137.375
X114.284Y-82.859
X114.423Y-63.019
X117.395Y-140.794
X117.535Y-120.954
X118.684Y-66.438
X121.795Y-124.373
X121.935Y-104.533
X126.195Y-107.953
X126.335Y-88.113
X130.595Y-91.532
X130.734Y-71.692
X134.351Y-141.575
X134.995Y-75.111
X139.351Y-143.775
X152.351Y-141.575
X156.307Y-74.28
X157.351Y-143.775
X160.707Y-90.701
X161.707Y-75.111
X165.107Y-107.122
X166.106Y-91.532
X169.507Y-123.542
X170.506Y-107.953
X172.619Y-65.607
X173.907Y-139.963
X174.906Y-124.373
X177.018Y-82.028
X178.018Y-66.438
X179.306Y-140.794
X181.418Y-98.449
X182.418Y-82.859
X185.818Y-114.87
X186.817Y-99.28
X188.93Y-56.935
X191.217Y-115.701
X191.437Y-131.601
X193.33Y-73.355
X194.329Y-57.766
X196.437Y-133.801
X197.73Y-89.776
X198.729Y-74.186
X202.129Y-106.197
X203.129Y-90.607
X207.528Y-107.028
X207.59Y-57.031
X209.437Y-126.118
X211.99Y-73.451
X212.989Y-57.862
X214.437Y-128.318
X216.39Y-89.872
X217.389Y-74.282
X220.79Y-106.293
X221.789Y-90.703
X226.189Y-107.124
X226.227Y-57.038
X230.627Y-73.458
X231.626Y-57.869
X235.027Y-89.879
X236.026Y-74.289
X239.427Y-106.3
X240.426Y-90.71
X244.826Y-107.131
X244.888Y-57.134
X249.288Y-73.555
X250.287Y-57.965
X253.688Y-89.975
X254.687Y-74.385
X258.088Y-106.396
X259.087Y-90.806
X263.487Y-107.227
T0
M30
