M48
; DRILL file {KiCad 7.0.10-7.0.10~ubuntu22.04.1} date Thu 04 Jan 2024 02:14:22 PM CET
; FORMAT={-:-/ absolute / metric / decimal}
; #@! TF.CreationDate,2024-01-04T14:14:22+01:00
; #@! TF.GenerationSoftware,Kicad,Pcbnew,7.0.10-7.0.10~ubuntu22.04.1
; #@! TF.FileFunction,NonPlated,1,2,NPTH
FMAT,2
METRIC
; #@! TA.AperFunction,NonPlated,NPTH,ComponentDrill
T1C1.500
; #@! TA.AperFunction,NonPlated,NPTH,ComponentDrill
T2C1.700
; #@! TA.AperFunction,NonPlated,NPTH,ComponentDrill
T3C3.400
; #@! TA.AperFunction,NonPlated,NPTH,ComponentDrill
T4C3.500
%
G90
G05
T1
X141.16Y-110.149
X142.971Y-103.387
X153.925Y-103.402
X155.737Y-110.163
T2
X29.431Y-100.097
X33.831Y-83.677
X38.231Y-67.256
X40.056Y-102.944
X42.631Y-50.835
X44.456Y-86.524
X48.103Y-99.96
X48.856Y-70.103
X52.503Y-83.539
X53.256Y-53.682
X56.902Y-67.118
X58.728Y-102.807
X61.302Y-50.697
X63.128Y-86.386
X66.739Y-99.953
X67.528Y-69.965
X71.139Y-83.532
X71.928Y-53.544
X75.539Y-67.112
X76.765Y-122.369
X77.365Y-102.8
X79.939Y-50.691
X81.764Y-86.379
X85.4Y-99.857
X86.164Y-69.959
X87.765Y-122.369
X89.8Y-83.436
X90.564Y-53.538
X94.2Y-67.016
X94.765Y-127.851
X96.025Y-102.704
X98.6Y-50.595
X100.425Y-86.283
X101.711Y-108.53
X104.825Y-69.863
X105.765Y-127.851
X106.111Y-92.109
X109.225Y-53.442
X110.511Y-75.688
X112.336Y-111.377
X113.622Y-133.623
X114.911Y-59.268
X116.736Y-94.956
X118.022Y-117.203
X121.136Y-78.535
X122.422Y-100.782
X124.248Y-136.47
X125.536Y-62.115
X126.822Y-84.361
X128.647Y-120.05
X131.222Y-67.94
X133.047Y-103.629
X133.851Y-137.825
X137.447Y-87.208
X141.847Y-70.787
X144.851Y-137.825
X151.851Y-137.825
X154.854Y-70.787
X159.254Y-87.208
X162.851Y-137.825
X163.654Y-103.629
X165.479Y-67.94
X168.054Y-120.05
X169.879Y-84.361
X171.165Y-62.115
X172.454Y-136.47
X174.279Y-100.782
X175.565Y-78.535
X178.679Y-117.203
X179.965Y-94.956
X181.79Y-59.268
X183.079Y-133.623
X184.365Y-111.377
X186.19Y-75.688
X187.476Y-53.442
X190.59Y-92.109
X190.937Y-127.851
X191.876Y-69.863
X194.99Y-108.53
X196.276Y-86.283
X198.101Y-50.595
X200.676Y-102.704
X201.937Y-127.851
X202.501Y-67.016
X206.137Y-53.538
X206.901Y-83.436
X208.937Y-122.368
X210.537Y-69.959
X211.301Y-99.857
X214.937Y-86.379
X216.762Y-50.691
X219.337Y-102.8
X219.937Y-122.368
X221.162Y-67.112
X224.774Y-53.545
X225.562Y-83.532
X229.174Y-69.966
X229.962Y-99.953
X233.574Y-86.386
X235.399Y-50.698
X237.973Y-102.807
X239.799Y-67.119
X243.434Y-53.641
X244.199Y-83.539
X247.834Y-70.062
X248.599Y-99.96
X252.234Y-86.482
X254.06Y-50.794
X256.634Y-102.903
X258.46Y-67.215
X262.859Y-83.635
X267.259Y-100.056
T3
X34.743Y-101.521
X39.143Y-85.1
X43.543Y-68.679
X47.943Y-52.259
X53.415Y-101.383
X57.815Y-84.962
X62.215Y-68.542
X66.615Y-52.121
X72.052Y-101.377
X76.452Y-84.956
X80.852Y-68.535
X82.265Y-122.369
X85.252Y-52.114
X90.713Y-101.281
X95.113Y-84.86
X99.512Y-68.439
X100.265Y-127.851
X103.912Y-52.018
X107.024Y-109.953
X111.424Y-93.533
X115.824Y-77.112
X118.935Y-135.047
X120.224Y-60.691
X123.335Y-118.626
X127.735Y-102.205
X132.135Y-85.785
X136.535Y-69.364
X139.351Y-137.825
X157.351Y-137.825
X160.167Y-69.364
X164.566Y-85.785
X168.966Y-102.205
X173.366Y-118.626
X176.478Y-60.691
X177.766Y-135.046
X180.878Y-77.112
X185.277Y-93.533
X189.677Y-109.953
X192.789Y-52.018
X196.437Y-127.851
X197.189Y-68.439
X201.589Y-84.86
X205.988Y-101.281
X211.449Y-52.114
X214.437Y-122.368
X215.849Y-68.535
X220.249Y-84.956
X224.649Y-101.377
X230.086Y-52.121
X234.486Y-68.542
X238.886Y-84.963
X243.286Y-101.384
X248.747Y-52.217
X253.147Y-68.638
X257.547Y-85.059
X261.947Y-101.48
T4
X45.395Y-95.534
X54.195Y-62.693
X109.539Y-66.625
X112.672Y-124.572
X184.007Y-124.572
X187.14Y-66.625
X242.495Y-62.734
X251.295Y-95.575
M30
