<?xml version="1.0" standalone="no"?>
 <!DOCTYPE svg PUBLIC "-//W3C//DTD SVG 1.1//EN" 
 "http://www.w3.org/Graphics/SVG/1.1/DTD/svg11.dtd"> 
<svg
  xmlns:svg="http://www.w3.org/2000/svg"
  xmlns="http://www.w3.org/2000/svg"
  xmlns:xlink="http://www.w3.org/1999/xlink"
  version="1.1"
  width="297.0022mm" height="210.0072mm" viewBox="0.0000 0.0000 297.0022 210.0072">
<title>SVG Image created as ergo56-User_Eco2.svg date 2023/12/21 16:16:49 </title>
  <desc>Image generated by PCBNEW </desc>
<g style="fill:#000000; fill-opacity:1.0000;stroke:#000000; stroke-opacity:1.0000;
stroke-linecap:round; stroke-linejoin:round;"
 transform="translate(0 0) scale(1 1)">
</g>
<g style="fill:#000000; fill-opacity:0.0; 
stroke:#000000; stroke-width:0.0000; stroke-opacity:1; 
stroke-linecap:round; stroke-linejoin:round;">
</g>
<g style="fill:#000000; fill-opacity:0.0; 
stroke:#000000; stroke-width:0.1500; stroke-opacity:1; 
stroke-linecap:round; stroke-linejoin:round;">
<circle cx="109.8626" cy="66.6245" r="1.1000" /> 
</g>
<g style="fill:#000000; fill-opacity:0.0; 
stroke:#000000; stroke-width:0.0500; stroke-opacity:1; 
stroke-linecap:round; stroke-linejoin:round;">
<path d="M85.9699 93.2515
L82.6311 105.7119
" />
<path d="M82.9847 106.3243
L95.4451 109.6631
" />
<path d="M99.0427 96.2367
L86.5823 92.8979
" />
<path d="M96.0575 109.3095
L99.3963 96.8491
" />
<path d="M82.6311 105.7119 A0.5000 0.5000 0.0 0 0 82.9847 106.3243" />
<path d="M86.5823 92.8979 A0.5000 0.5000 0.0 0 0 85.9699 93.2515" />
<path d="M95.4451 109.6631 A0.5000 0.5000 0.0 0 0 96.0575 109.3095" />
<path d="M99.3963 96.8491 A0.5000 0.5000 0.0 0 0 99.0427 96.2367" />
<path d="M67.3092 93.3476
L63.9704 105.8081
" />
<path d="M64.3240 106.4205
L76.7844 109.7592
" />
<path d="M80.3820 96.3329
L67.9215 92.9941
" />
<path d="M77.3968 109.4057
L80.7355 96.9452
" />
<path d="M63.9704 105.8081 A0.5000 0.5000 0.0 0 0 64.3240 106.4205" />
<path d="M67.9215 92.9941 A0.5000 0.5000 0.0 0 0 67.3092 93.3476" />
<path d="M76.7844 109.7592 A0.5000 0.5000 0.0 0 0 77.3968 109.4057" />
<path d="M80.7355 96.9452 A0.5000 0.5000 0.0 0 0 80.3820 96.3329" />
<path d="M48.6723 93.3545
L45.3336 105.8150
" />
<path d="M45.6871 106.4274
L58.1476 109.7661
" />
<path d="M61.7452 96.3398
L49.2847 93.0010
" />
<path d="M58.7600 109.4126
L62.0987 96.9521
" />
<path d="M45.3336 105.8150 A0.5000 0.5000 0.0 0 0 45.6871 106.4274" />
<path d="M49.2847 93.0010 A0.5000 0.5000 0.0 0 0 48.6723 93.3545" />
<path d="M58.1476 109.7661 A0.5000 0.5000 0.0 0 0 58.7600 109.4126" />
<path d="M62.0987 96.9521 A0.5000 0.5000 0.0 0 0 61.7452 96.3398" />
<path d="M30.0116 93.4507
L26.6728 105.9111
" />
<path d="M27.0264 106.5235
L39.4868 109.8623
" />
<path d="M43.0844 96.4359
L30.6240 93.0971
" />
<path d="M40.0992 109.5087
L43.4380 97.0483
" />
<path d="M26.6728 105.9111 A0.5000 0.5000 0.0 0 0 27.0264 106.5235" />
<path d="M30.6240 93.0971 A0.5000 0.5000 0.0 0 0 30.0116 93.4507" />
<path d="M39.4868 109.8623 A0.5000 0.5000 0.0 0 0 40.0992 109.5087" />
<path d="M43.4380 97.0483 A0.5000 0.5000 0.0 0 0 43.0844 96.4359" />
<path d="M249.4764 80.6687
L252.8151 93.1291
" />
<path d="M253.4275 93.4827
L265.8880 90.1439
" />
<path d="M262.2904 76.7175
L249.8299 80.0563
" />
<path d="M266.2415 89.5315
L262.9027 77.0711
" />
<path d="M252.8151 93.1291 A0.5000 0.5000 0.0 0 0 253.4275 93.4827" />
<path d="M249.8299 80.0563 A0.5000 0.5000 0.0 0 0 249.4764 80.6687" />
<path d="M265.8880 90.1439 A0.5000 0.5000 0.0 0 0 266.2415 89.5315" />
<path d="M262.9027 77.0711 A0.5000 0.5000 0.0 0 0 262.2904 76.7175" />
<path d="M230.8045 80.5310
L234.1433 92.9914
" />
<path d="M234.7557 93.3450
L247.2161 90.0062
" />
<path d="M243.6185 76.5798
L231.1581 79.9186
" />
<path d="M247.5696 89.3938
L244.2309 76.9334
" />
<path d="M234.1433 92.9914 A0.5000 0.5000 0.0 0 0 234.7557 93.3450" />
<path d="M231.1581 79.9186 A0.5000 0.5000 0.0 0 0 230.8045 80.5310" />
<path d="M247.2161 90.0062 A0.5000 0.5000 0.0 0 0 247.5696 89.3938" />
<path d="M244.2309 76.9334 A0.5000 0.5000 0.0 0 0 243.6185 76.5798" />
<path d="M212.1678 80.5245
L215.5066 92.9849
" />
<path d="M216.1189 93.3385
L228.5794 89.9997
" />
<path d="M224.9818 76.5733
L212.5214 79.9121
" />
<path d="M228.9329 89.3873
L225.5942 76.9269
" />
<path d="M215.5066 92.9849 A0.5000 0.5000 0.0 0 0 216.1189 93.3385" />
<path d="M212.5214 79.9121 A0.5000 0.5000 0.0 0 0 212.1678 80.5245" />
<path d="M228.5794 89.9997 A0.5000 0.5000 0.0 0 0 228.9329 89.3873" />
<path d="M225.5942 76.9269 A0.5000 0.5000 0.0 0 0 224.9818 76.5733" />
<path d="M177.1960 89.1011
L180.5347 101.5615
" />
<path d="M181.1471 101.9151
L193.6075 98.5763
" />
<path d="M190.0100 85.1500
L177.5495 88.4887
" />
<path d="M193.9611 97.9640
L190.6223 85.5035
" />
<path d="M180.5347 101.5615 A0.5000 0.5000 0.0 0 0 181.1471 101.9151" />
<path d="M177.5495 88.4887 A0.5000 0.5000 0.0 0 0 177.1960 89.1011" />
<path d="M193.6075 98.5763 A0.5000 0.5000 0.0 0 0 193.9611 97.9640" />
<path d="M190.6223 85.5035 A0.5000 0.5000 0.0 0 0 190.0100 85.1500" />
<path d="M160.8848 97.7739
L164.2236 110.2343
" />
<path d="M164.8360 110.5879
L177.2964 107.2491
" />
<path d="M173.6988 93.8227
L161.2384 97.1615
" />
<path d="M177.6500 106.6367
L174.3112 94.1763
" />
<path d="M164.2236 110.2343 A0.5000 0.5000 0.0 0 0 164.8360 110.5879" />
<path d="M161.2384 97.1615 A0.5000 0.5000 0.0 0 0 160.8848 97.7739" />
<path d="M177.2964 107.2491 A0.5000 0.5000 0.0 0 0 177.6500 106.6367" />
<path d="M174.3112 94.1763 A0.5000 0.5000 0.0 0 0 173.6988 93.8227" />
<path d="M122.9920 94.1763
L119.6533 106.6367
" />
<path d="M120.0068 107.2491
L132.4673 110.5879
" />
<path d="M136.0649 97.1615
L123.6044 93.8227
" />
<path d="M133.0796 110.2343
L136.4184 97.7739
" />
<path d="M119.6533 106.6367 A0.5000 0.5000 0.0 0 0 120.0068 107.2491" />
<path d="M123.6044 93.8227 A0.5000 0.5000 0.0 0 0 122.9920 94.1763" />
<path d="M132.4673 110.5879 A0.5000 0.5000 0.0 0 0 133.0796 110.2343" />
<path d="M136.4184 97.7739 A0.5000 0.5000 0.0 0 0 136.0649 97.1615" />
<path d="M156.4849 81.3531
L159.8237 93.8136
" />
<path d="M160.4361 94.1671
L172.8965 90.8284
" />
<path d="M169.2989 77.4020
L156.8385 80.7408
" />
<path d="M173.2501 90.2160
L169.9113 77.7556
" />
<path d="M159.8237 93.8136 A0.5000 0.5000 0.0 0 0 160.4361 94.1671" />
<path d="M156.8385 80.7408 A0.5000 0.5000 0.0 0 0 156.4849 81.3531" />
<path d="M172.8965 90.8284 A0.5000 0.5000 0.0 0 0 173.2501 90.2160" />
<path d="M169.9113 77.7556 A0.5000 0.5000 0.0 0 0 169.2989 77.4020" />
<path d="M193.5071 80.4283
L196.8458 92.8888
" />
<path d="M197.4582 93.2423
L209.9187 89.9036
" />
<path d="M206.3211 76.4772
L193.8606 79.8160
" />
<path d="M210.2722 89.2912
L206.9334 76.8308
" />
<path d="M196.8458 92.8888 A0.5000 0.5000 0.0 0 0 197.4582 93.2423" />
<path d="M193.8606 79.8160 A0.5000 0.5000 0.0 0 0 193.5071 80.4283" />
<path d="M209.9187 89.9036 A0.5000 0.5000 0.0 0 0 210.2722 89.2912" />
<path d="M206.9334 76.8308 A0.5000 0.5000 0.0 0 0 206.3211 76.4772" />
<path d="M106.6809 85.5035
L103.3422 97.9640
" />
<path d="M103.6957 98.5763
L116.1562 101.9151
" />
<path d="M119.7538 88.4887
L107.2933 85.1500
" />
<path d="M116.7685 101.5616
L120.1073 89.1011
" />
<path d="M103.3422 97.9640 A0.5000 0.5000 0.0 0 0 103.6957 98.5763" />
<path d="M107.2933 85.1500 A0.5000 0.5000 0.0 0 0 106.6809 85.5035" />
<path d="M116.1562 101.9151 A0.5000 0.5000 0.0 0 0 116.7685 101.5616" />
<path d="M120.1073 89.1011 A0.5000 0.5000 0.0 0 0 119.7538 88.4887" />
<path d="M90.3698 76.8308
L87.0311 89.2912
" />
<path d="M87.3846 89.9036
L99.8451 93.2423
" />
<path d="M103.4426 79.8160
L90.9822 76.4772
" />
<path d="M100.4574 92.8888
L103.7962 80.4283
" />
<path d="M87.0311 89.2912 A0.5000 0.5000 0.0 0 0 87.3846 89.9036" />
<path d="M90.9822 76.4772 A0.5000 0.5000 0.0 0 0 90.3698 76.8308" />
<path d="M99.8451 93.2423 A0.5000 0.5000 0.0 0 0 100.4574 92.8888" />
<path d="M103.7962 80.4283 A0.5000 0.5000 0.0 0 0 103.4426 79.8160" />
<path d="M71.7091 76.9269
L68.3703 89.3873
" />
<path d="M68.7239 89.9997
L81.1843 93.3385
" />
<path d="M84.7819 79.9121
L72.3215 76.5733
" />
<path d="M81.7967 92.9849
L85.1355 80.5245
" />
<path d="M68.3703 89.3873 A0.5000 0.5000 0.0 0 0 68.7239 89.9997" />
<path d="M72.3215 76.5733 A0.5000 0.5000 0.0 0 0 71.7091 76.9269" />
<path d="M81.1843 93.3385 A0.5000 0.5000 0.0 0 0 81.7967 92.9849" />
<path d="M85.1355 80.5245 A0.5000 0.5000 0.0 0 0 84.7819 79.9121" />
<path d="M53.0723 76.9338
L49.7335 89.3943
" />
<path d="M50.0871 90.0066
L62.5475 93.3454
" />
<path d="M66.1451 79.9190
L53.6846 76.5803
" />
<path d="M63.1599 92.9918
L66.4986 80.5314
" />
<path d="M49.7335 89.3943 A0.5000 0.5000 0.0 0 0 50.0871 90.0066" />
<path d="M53.6846 76.5803 A0.5000 0.5000 0.0 0 0 53.0723 76.9338" />
<path d="M62.5475 93.3454 A0.5000 0.5000 0.0 0 0 63.1599 92.9918" />
<path d="M66.4986 80.5314 A0.5000 0.5000 0.0 0 0 66.1451 79.9190" />
<path d="M34.4115 77.0300
L31.0728 89.4904
" />
<path d="M31.4263 90.1028
L43.8868 93.4415
" />
<path d="M47.4843 80.0152
L35.0239 76.6764
" />
<path d="M44.4991 93.0880
L47.8379 80.6275
" />
<path d="M31.0728 89.4904 A0.5000 0.5000 0.0 0 0 31.4263 90.1028" />
<path d="M35.0239 76.6764 A0.5000 0.5000 0.0 0 0 34.4115 77.0300" />
<path d="M43.8868 93.4415 A0.5000 0.5000 0.0 0 0 44.4991 93.0880" />
<path d="M47.8379 80.6275 A0.5000 0.5000 0.0 0 0 47.4843 80.0152" />
<path d="M245.0765 64.2479
L248.4152 76.7084
" />
<path d="M249.0276 77.0619
L261.4880 73.7232
" />
<path d="M257.8904 60.2968
L245.4300 63.6356
" />
<path d="M261.8416 73.1108
L258.5028 60.6503
" />
<path d="M248.4152 76.7084 A0.5000 0.5000 0.0 0 0 249.0276 77.0619" />
<path d="M245.4300 63.6356 A0.5000 0.5000 0.0 0 0 245.0765 64.2479" />
<path d="M261.4880 73.7232 A0.5000 0.5000 0.0 0 0 261.8416 73.1108" />
<path d="M258.5028 60.6503 A0.5000 0.5000 0.0 0 0 257.8904 60.2968" />
<path d="M114.1922 127.0175
L110.8534 139.4779
" />
<path d="M111.2070 140.0903
L123.6674 143.4290
" />
<path d="M127.2650 130.0027
L114.8046 126.6639
" />
<path d="M124.2798 143.0755
L127.6185 130.6150
" />
<path d="M110.8534 139.4779 A0.5000 0.5000 0.0 0 0 111.2070 140.0903" />
<path d="M114.8046 126.6639 A0.5000 0.5000 0.0 0 0 114.1922 127.0175" />
<path d="M123.6674 143.4290 A0.5000 0.5000 0.0 0 0 124.2798 143.0755" />
<path d="M127.6185 130.6150 A0.5000 0.5000 0.0 0 0 127.2650 130.0027" />
<path d="M226.4046 64.1102
L229.7434 76.5707
" />
<path d="M230.3557 76.9242
L242.8162 73.5855
" />
<path d="M239.2186 60.1591
L226.7581 63.4979
" />
<path d="M243.1697 72.9731
L239.8310 60.5127
" />
<path d="M229.7434 76.5707 A0.5000 0.5000 0.0 0 0 230.3557 76.9242" />
<path d="M226.7581 63.4979 A0.5000 0.5000 0.0 0 0 226.4046 64.1102" />
<path d="M242.8162 73.5855 A0.5000 0.5000 0.0 0 0 243.1697 72.9731" />
<path d="M239.8310 60.5127 A0.5000 0.5000 0.0 0 0 239.2186 60.1591" />
<path d="M38.8115 60.6092
L35.4727 73.0697
" />
<path d="M35.8263 73.6820
L48.2867 77.0208
" />
<path d="M51.8843 63.5944
L39.4238 60.2557
" />
<path d="M48.8991 76.6672
L52.2378 64.2068
" />
<path d="M35.4727 73.0697 A0.5000 0.5000 0.0 0 0 35.8263 73.6820" />
<path d="M39.4238 60.2557 A0.5000 0.5000 0.0 0 0 38.8115 60.6092" />
<path d="M48.2867 77.0208 A0.5000 0.5000 0.0 0 0 48.8991 76.6672" />
<path d="M52.2378 64.2068 A0.5000 0.5000 0.0 0 0 51.8843 63.5944" />
<path d="M111.0809 69.0828
L107.7421 81.5432
" />
<path d="M108.0956 82.1556
L120.5561 85.4944
" />
<path d="M124.1537 72.0680
L111.6932 68.7292
" />
<path d="M121.1685 85.1408
L124.5072 72.6804
" />
<path d="M107.7421 81.5432 A0.5000 0.5000 0.0 0 0 108.0956 82.1556" />
<path d="M111.6932 68.7292 A0.5000 0.5000 0.0 0 0 111.0809 69.0828" />
<path d="M120.5561 85.4944 A0.5000 0.5000 0.0 0 0 121.1685 85.1408" />
<path d="M124.5072 72.6804 A0.5000 0.5000 0.0 0 0 124.1537 72.0680" />
<path d="M94.7697 60.4100
L91.4310 72.8705
" />
<path d="M91.7845 73.4828
L104.2450 76.8216
" />
<path d="M107.8426 63.3952
L95.3821 60.0565
" />
<path d="M104.8574 76.4680
L108.1961 64.0076
" />
<path d="M91.4310 72.8705 A0.5000 0.5000 0.0 0 0 91.7845 73.4828" />
<path d="M95.3821 60.0565 A0.5000 0.5000 0.0 0 0 94.7697 60.4100" />
<path d="M104.2450 76.8216 A0.5000 0.5000 0.0 0 0 104.8574 76.4680" />
<path d="M108.1961 64.0076 A0.5000 0.5000 0.0 0 0 107.8426 63.3952" />
<path d="M172.7960 72.6804
L176.1348 85.1408
" />
<path d="M176.7472 85.4944
L189.2076 82.1556
" />
<path d="M185.6100 68.7292
L173.1496 72.0680
" />
<path d="M189.5612 81.5432
L186.2224 69.0828
" />
<path d="M176.1348 85.1408 A0.5000 0.5000 0.0 0 0 176.7472 85.4944" />
<path d="M173.1496 72.0680 A0.5000 0.5000 0.0 0 0 172.7960 72.6804" />
<path d="M189.2076 82.1556 A0.5000 0.5000 0.0 0 0 189.5612 81.5432" />
<path d="M186.2224 69.0828 A0.5000 0.5000 0.0 0 0 185.6100 68.7292" />
<path d="M165.2848 114.1946
L168.6235 126.6551
" />
<path d="M169.2359 127.0086
L181.6964 123.6698
" />
<path d="M178.0988 110.2435
L165.6383 113.5822
" />
<path d="M182.0499 123.0575
L178.7111 110.5970
" />
<path d="M168.6235 126.6551 A0.5000 0.5000 0.0 0 0 169.2359 127.0086" />
<path d="M165.6383 113.5822 A0.5000 0.5000 0.0 0 0 165.2848 114.1946" />
<path d="M181.6964 123.6698 A0.5000 0.5000 0.0 0 0 182.0499 123.0575" />
<path d="M178.7111 110.5970 A0.5000 0.5000 0.0 0 0 178.0988 110.2435" />
<path d="M57.4722 60.5131
L54.1334 72.9735
" />
<path d="M54.4870 73.5859
L66.9474 76.9247
" />
<path d="M70.5450 63.4983
L58.0846 60.1595
" />
<path d="M67.5598 76.5711
L70.8986 64.1107
" />
<path d="M54.1334 72.9735 A0.5000 0.5000 0.0 0 0 54.4870 73.5859" />
<path d="M58.0846 60.1595 A0.5000 0.5000 0.0 0 0 57.4722 60.5131" />
<path d="M66.9474 76.9247 A0.5000 0.5000 0.0 0 0 67.5598 76.5711" />
<path d="M70.8986 64.1107 A0.5000 0.5000 0.0 0 0 70.5450 63.4983" />
<path d="M207.7679 64.1037
L211.1066 76.5642
" />
<path d="M211.7190 76.9177
L224.1795 73.5790
" />
<path d="M220.5819 60.1526
L208.1214 63.4914
" />
<path d="M224.5330 72.9666
L221.1943 60.5062
" />
<path d="M211.1066 76.5642 A0.5000 0.5000 0.0 0 0 211.7190 76.9177" />
<path d="M208.1214 63.4914 A0.5000 0.5000 0.0 0 0 207.7679 64.1037" />
<path d="M224.1795 73.5790 A0.5000 0.5000 0.0 0 0 224.5330 72.9666" />
<path d="M221.1943 60.5062 A0.5000 0.5000 0.0 0 0 220.5819 60.1526" />
<path d="M189.1071 64.0076
L192.4459 76.4680
" />
<path d="M193.0583 76.8216
L205.5187 73.4828
" />
<path d="M201.9211 60.0565
L189.4607 63.3952
" />
<path d="M205.8723 72.8705
L202.5335 60.4100
" />
<path d="M192.4459 76.4680 A0.5000 0.5000 0.0 0 0 193.0583 76.8216" />
<path d="M189.4607 63.3952 A0.5000 0.5000 0.0 0 0 189.1071 64.0076" />
<path d="M205.5187 73.4828 A0.5000 0.5000 0.0 0 0 205.8723 72.8705" />
<path d="M202.5335 60.4100 A0.5000 0.5000 0.0 0 0 201.9211 60.0565" />
<path d="M253.8763 97.0894
L257.2151 109.5499
" />
<path d="M257.8274 109.9034
L270.2879 106.5646
" />
<path d="M266.6903 93.1383
L254.2299 96.4770
" />
<path d="M270.6414 105.9523
L267.3027 93.4918
" />
<path d="M257.2151 109.5499 A0.5000 0.5000 0.0 0 0 257.8274 109.9034" />
<path d="M254.2299 96.4770 A0.5000 0.5000 0.0 0 0 253.8763 97.0894" />
<path d="M270.2879 106.5646 A0.5000 0.5000 0.0 0 0 270.6414 105.9523" />
<path d="M267.3027 93.4918 A0.5000 0.5000 0.0 0 0 266.6903 93.1383" />
<path d="M235.2044 96.9517
L238.5432 109.4122
" />
<path d="M239.1556 109.7657
L251.6160 106.4270
" />
<path d="M248.0184 93.0006
L235.5580 96.3393
" />
<path d="M251.9696 105.8146
L248.6308 93.3541
" />
<path d="M238.5432 109.4122 A0.5000 0.5000 0.0 0 0 239.1556 109.7657" />
<path d="M235.5580 96.3393 A0.5000 0.5000 0.0 0 0 235.2044 96.9517" />
<path d="M251.6160 106.4270 A0.5000 0.5000 0.0 0 0 251.9696 105.8146" />
<path d="M248.6308 93.3541 A0.5000 0.5000 0.0 0 0 248.0184 93.0006" />
<path d="M216.5677 96.9452
L219.9065 109.4057
" />
<path d="M220.5189 109.7592
L232.9793 106.4205
" />
<path d="M229.3817 92.9941
L216.9213 96.3329
" />
<path d="M233.3329 105.8081
L229.9941 93.3476
" />
<path d="M219.9065 109.4057 A0.5000 0.5000 0.0 0 0 220.5189 109.7592" />
<path d="M216.9213 96.3329 A0.5000 0.5000 0.0 0 0 216.5677 96.9452" />
<path d="M232.9793 106.4205 A0.5000 0.5000 0.0 0 0 233.3329 105.8081" />
<path d="M229.9941 93.3476 A0.5000 0.5000 0.0 0 0 229.3817 92.9941" />
<path d="M197.9070 96.8491
L201.2458 109.3095
" />
<path d="M201.8581 109.6631
L214.3186 106.3243
" />
<path d="M210.7210 92.8979
L198.2605 96.2367
" />
<path d="M214.6721 105.7119
L211.3334 93.2515
" />
<path d="M201.2458 109.3095 A0.5000 0.5000 0.0 0 0 201.8581 109.6631" />
<path d="M198.2605 96.2367 A0.5000 0.5000 0.0 0 0 197.9070 96.8491" />
<path d="M214.3186 106.3243 A0.5000 0.5000 0.0 0 0 214.6721 105.7119" />
<path d="M211.3334 93.2515 A0.5000 0.5000 0.0 0 0 210.7210 92.8979" />
<path d="M181.5959 105.5218
L184.9346 117.9823
" />
<path d="M185.5470 118.3358
L198.0075 114.9971
" />
<path d="M194.4099 101.5707
L181.9494 104.9095
" />
<path d="M198.3610 114.3847
L195.0222 101.9243
" />
<path d="M184.9346 117.9823 A0.5000 0.5000 0.0 0 0 185.5470 118.3358" />
<path d="M181.9494 104.9095 A0.5000 0.5000 0.0 0 0 181.5959 105.5218" />
<path d="M198.0075 114.9971 A0.5000 0.5000 0.0 0 0 198.3610 114.3847" />
<path d="M195.0222 101.9243 A0.5000 0.5000 0.0 0 0 194.4099 101.5707" />
<path d="M118.5921 110.5970
L115.2533 123.0575
" />
<path d="M115.6069 123.6699
L128.0673 127.0086
" />
<path d="M131.6649 113.5823
L119.2045 110.2435
" />
<path d="M128.6797 126.6551
L132.0185 114.1946
" />
<path d="M115.2533 123.0575 A0.5000 0.5000 0.0 0 0 115.6069 123.6699" />
<path d="M119.2045 110.2435 A0.5000 0.5000 0.0 0 0 118.5921 110.5970" />
<path d="M128.0673 127.0086 A0.5000 0.5000 0.0 0 0 128.6797 126.6551" />
<path d="M132.0185 114.1946 A0.5000 0.5000 0.0 0 0 131.6649 113.5823" />
<path d="M102.2810 101.9243
L98.9422 114.3847
" />
<path d="M99.2958 114.9971
L111.7562 118.3358
" />
<path d="M115.3538 104.9095
L102.8934 101.5707
" />
<path d="M112.3686 117.9823
L115.7074 105.5218
" />
<path d="M98.9422 114.3847 A0.5000 0.5000 0.0 0 0 99.2958 114.9971" />
<path d="M102.8934 101.5707 A0.5000 0.5000 0.0 0 0 102.2810 101.9243" />
<path d="M111.7562 118.3358 A0.5000 0.5000 0.0 0 0 112.3686 117.9823" />
<path d="M115.7074 105.5218 A0.5000 0.5000 0.0 0 0 115.3538 104.9095" />
<path d="M76.1090 60.5062
L72.7703 72.9666
" />
<path d="M73.1238 73.5790
L85.5842 76.9177
" />
<path d="M89.1818 63.4914
L76.7214 60.1526
" />
<path d="M86.1966 76.5642
L89.5354 64.1038
" />
<path d="M72.7703 72.9666 A0.5000 0.5000 0.0 0 0 73.1238 73.5790" />
<path d="M76.7214 60.1526 A0.5000 0.5000 0.0 0 0 76.1090 60.5062" />
<path d="M85.5842 76.9177 A0.5000 0.5000 0.0 0 0 86.1966 76.5642" />
<path d="M89.5354 64.1038 A0.5000 0.5000 0.0 0 0 89.1818 63.4914" />
<path d="M127.3920 77.7556
L124.0532 90.2160
" />
<path d="M124.4067 90.8284
L136.8672 94.1671
" />
<path d="M140.4648 80.7408
L128.0043 77.4020
" />
<path d="M137.4796 93.8136
L140.8183 81.3531
" />
<path d="M124.0532 90.2160 A0.5000 0.5000 0.0 0 0 124.4068 90.8284" />
<path d="M128.0043 77.4020 A0.5000 0.5000 0.0 0 0 127.3920 77.7556" />
<path d="M136.8672 94.1671 A0.5000 0.5000 0.0 0 0 137.4796 93.8136" />
<path d="M140.8183 81.3531 A0.5000 0.5000 0.0 0 0 140.4648 80.7408" />
<path d="M93.6154 121.4007
L93.6154 134.3007
" />
<path d="M94.1154 134.8007
L107.0154 134.8007
" />
<path d="M107.0154 120.9007
L94.1154 120.9007
" />
<path d="M107.5154 134.3007
L107.5154 121.4007
" />
<path d="M93.6154 134.3007 A0.5000 0.5000 0.0 0 0 94.1154 134.8007" />
<path d="M94.1154 120.9007 A0.5000 0.5000 0.0 0 0 93.6154 121.4007" />
<path d="M107.0154 134.8007 A0.5000 0.5000 0.0 0 0 107.5154 134.3007" />
<path d="M107.5154 121.4007 A0.5000 0.5000 0.0 0 0 107.0154 120.9007" />
<path d="M169.6847 130.6154
L173.0235 143.0758
" />
<path d="M173.6358 143.4294
L186.0963 140.0906
" />
<path d="M182.4987 126.6642
L170.0382 130.0030
" />
<path d="M186.4498 139.4782
L183.1111 127.0178
" />
<path d="M173.0235 143.0758 A0.5000 0.5000 0.0 0 0 173.6358 143.4294" />
<path d="M170.0382 130.0030 A0.5000 0.5000 0.0 0 0 169.6847 130.6154" />
<path d="M186.0963 140.0906 A0.5000 0.5000 0.0 0 0 186.4498 139.4782" />
<path d="M183.1111 127.0178 A0.5000 0.5000 0.0 0 0 182.4987 126.6642" />
<path d="M189.7876 121.4010
L189.7876 134.3010
" />
<path d="M190.2876 134.8010
L203.1876 134.8010
" />
<path d="M203.1876 120.9010
L190.2876 120.9010
" />
<path d="M203.6876 134.3010
L203.6876 121.4010
" />
<path d="M189.7876 134.3010 A0.5000 0.5000 0.0 0 0 190.2876 134.8010" />
<path d="M190.2876 120.9010 A0.5000 0.5000 0.0 0 0 189.7876 121.4010" />
<path d="M203.1876 134.8010 A0.5000 0.5000 0.0 0 0 203.6876 134.3010" />
<path d="M203.6876 121.4010 A0.5000 0.5000 0.0 0 0 203.1876 120.9010" />
<path d="M150.7016 131.3745
L150.7016 144.2745
" />
<path d="M151.2016 144.7745
L164.1016 144.7745
" />
<path d="M164.1016 130.8745
L151.2016 130.8745
" />
<path d="M164.6016 144.2745
L164.6016 131.3745
" />
<path d="M150.7016 144.2745 A0.5000 0.5000 0.0 0 0 151.2016 144.7745" />
<path d="M151.2016 130.8745 A0.5000 0.5000 0.0 0 0 150.7016 131.3745" />
<path d="M164.1016 144.7745 A0.5000 0.5000 0.0 0 0 164.6016 144.2745" />
<path d="M164.6016 131.3745 A0.5000 0.5000 0.0 0 0 164.1016 130.8745" />
<path d="M75.6150 115.9185
L75.6150 128.8185
" />
<path d="M76.1150 129.3185
L89.0150 129.3185
" />
<path d="M89.0150 115.4185
L76.1150 115.4185
" />
<path d="M89.5150 128.8185
L89.5150 115.9185
" />
<path d="M75.6150 128.8185 A0.5000 0.5000 0.0 0 0 76.1150 129.3185" />
<path d="M76.1150 115.4185 A0.5000 0.5000 0.0 0 0 75.6150 115.9185" />
<path d="M89.0150 129.3185 A0.5000 0.5000 0.0 0 0 89.5150 128.8185" />
<path d="M89.5150 115.9185 A0.5000 0.5000 0.0 0 0 89.0150 115.4185" />
<path d="M61.8721 44.0923
L58.5334 56.5528
" />
<path d="M58.8869 57.1651
L71.3474 60.5039
" />
<path d="M74.9449 47.0775
L62.4845 43.7388
" />
<path d="M71.9597 60.1503
L75.2985 47.6899
" />
<path d="M58.5334 56.5528 A0.5000 0.5000 0.0 0 0 58.8869 57.1651" />
<path d="M62.4845 43.7388 A0.5000 0.5000 0.0 0 0 61.8721 44.0923" />
<path d="M71.3474 60.5039 A0.5000 0.5000 0.0 0 0 71.9597 60.1503" />
<path d="M75.2985 47.6899 A0.5000 0.5000 0.0 0 0 74.9449 47.0775" />
<path d="M43.2114 44.1885
L39.8726 56.6489
" />
<path d="M40.2261 57.2613
L52.6866 60.6000
" />
<path d="M56.2842 47.1737
L43.8237 43.8349
" />
<path d="M53.2990 60.2465
L56.6377 47.7860
" />
<path d="M39.8726 56.6489 A0.5000 0.5000 0.0 0 0 40.2261 57.2613" />
<path d="M43.8237 43.8349 A0.5000 0.5000 0.0 0 0 43.2114 44.1885" />
<path d="M52.6866 60.6000 A0.5000 0.5000 0.0 0 0 53.2990 60.2465" />
<path d="M56.6377 47.7860 A0.5000 0.5000 0.0 0 0 56.2842 47.1737" />
<path d="M203.3680 47.6830
L206.7067 60.1434
" />
<path d="M207.3191 60.4970
L219.7795 57.1582
" />
<path d="M216.1819 43.7318
L203.7215 47.0706
" />
<path d="M220.1331 56.5458
L216.7943 44.0854
" />
<path d="M206.7067 60.1434 A0.5000 0.5000 0.0 0 0 207.3191 60.4970" />
<path d="M203.7215 47.0706 A0.5000 0.5000 0.0 0 0 203.3680 47.6830" />
<path d="M219.7795 57.1582 A0.5000 0.5000 0.0 0 0 220.1331 56.5458" />
<path d="M216.7943 44.0854 A0.5000 0.5000 0.0 0 0 216.1819 43.7318" />
<path d="M207.7876 115.9190
L207.7876 128.8190
" />
<path d="M208.2876 129.3190
L221.1876 129.3190
" />
<path d="M221.1876 115.4190
L208.2876 115.4190
" />
<path d="M221.6876 128.8190
L221.6876 115.9190
" />
<path d="M207.7876 128.8190 A0.5000 0.5000 0.0 0 0 208.2876 129.3190" />
<path d="M208.2876 115.4190 A0.5000 0.5000 0.0 0 0 207.7876 115.9190" />
<path d="M221.1876 129.3190 A0.5000 0.5000 0.0 0 0 221.6876 128.8190" />
<path d="M221.6876 115.9190 A0.5000 0.5000 0.0 0 0 221.1876 115.4190" />
<path d="M240.6765 47.8271
L244.0153 60.2876
" />
<path d="M244.6276 60.6411
L257.0881 57.3024
" />
<path d="M253.4905 43.8760
L241.0300 47.2148
" />
<path d="M257.4416 56.6900
L254.1029 44.2296
" />
<path d="M244.0153 60.2876 A0.5000 0.5000 0.0 0 0 244.6276 60.6411" />
<path d="M241.0300 47.2148 A0.5000 0.5000 0.0 0 0 240.6765 47.8271" />
<path d="M257.0881 57.3024 A0.5000 0.5000 0.0 0 0 257.4416 56.6900" />
<path d="M254.1029 44.2296 A0.5000 0.5000 0.0 0 0 253.4905 43.8760" />
<path d="M99.1696 43.9892
L95.8309 56.4497
" />
<path d="M96.1844 57.0621
L108.6449 60.4008
" />
<path d="M112.2424 46.9745
L99.7820 43.6357
" />
<path d="M109.2572 60.0473
L112.5960 47.5868
" />
<path d="M95.8309 56.4497 A0.5000 0.5000 0.0 0 0 96.1844 57.0621" />
<path d="M99.7820 43.6357 A0.5000 0.5000 0.0 0 0 99.1696 43.9892" />
<path d="M108.6449 60.4008 A0.5000 0.5000 0.0 0 0 109.2572 60.0473" />
<path d="M112.5960 47.5868 A0.5000 0.5000 0.0 0 0 112.2424 46.9745" />
<path d="M131.7918 61.3348
L128.4531 73.7953
" />
<path d="M128.8066 74.4076
L141.2671 77.7464
" />
<path d="M144.8647 64.3200
L132.4042 60.9813
" />
<path d="M141.8795 77.3928
L145.2182 64.9324
" />
<path d="M128.4531 73.7953 A0.5000 0.5000 0.0 0 0 128.8066 74.4076" />
<path d="M132.4042 60.9813 A0.5000 0.5000 0.0 0 0 131.7918 61.3348" />
<path d="M141.2671 77.7464 A0.5000 0.5000 0.0 0 0 141.8795 77.3928" />
<path d="M145.2182 64.9324 A0.5000 0.5000 0.0 0 0 144.8647 64.3200" />
<path d="M168.3961 56.2596
L171.7349 68.7201
" />
<path d="M172.3473 69.0736
L184.8077 65.7349
" />
<path d="M181.2101 52.3085
L168.7497 55.6473
" />
<path d="M185.1613 65.1225
L181.8225 52.6621
" />
<path d="M171.7349 68.7201 A0.5000 0.5000 0.0 0 0 172.3473 69.0736" />
<path d="M168.7497 55.6473 A0.5000 0.5000 0.0 0 0 168.3961 56.2596" />
<path d="M184.8077 65.7349 A0.5000 0.5000 0.0 0 0 185.1613 65.1225" />
<path d="M181.8225 52.6621 A0.5000 0.5000 0.0 0 0 181.2101 52.3085" />
<path d="M222.0047 47.6895
L225.3434 60.1499
" />
<path d="M225.9558 60.5035
L238.4163 57.1647
" />
<path d="M234.8187 43.7383
L222.3582 47.0771
" />
<path d="M238.7698 56.5523
L235.4310 44.0919
" />
<path d="M225.3434 60.1499 A0.5000 0.5000 0.0 0 0 225.9558 60.5035" />
<path d="M222.3582 47.0771 A0.5000 0.5000 0.0 0 0 222.0047 47.6895" />
<path d="M238.4163 57.1647 A0.5000 0.5000 0.0 0 0 238.7698 56.5523" />
<path d="M235.4310 44.0919 A0.5000 0.5000 0.0 0 0 234.8187 43.7383" />
<path d="M184.7072 47.5868
L188.0460 60.0473
" />
<path d="M188.6583 60.4008
L201.1188 57.0621
" />
<path d="M197.5212 43.6357
L185.0607 46.9745
" />
<path d="M201.4723 56.4497
L198.1336 43.9892
" />
<path d="M188.0460 60.0473 A0.5000 0.5000 0.0 0 0 188.6583 60.4008" />
<path d="M185.0607 46.9745 A0.5000 0.5000 0.0 0 0 184.7072 47.5868" />
<path d="M201.1188 57.0621 A0.5000 0.5000 0.0 0 0 201.4723 56.4497" />
<path d="M198.1336 43.9892 A0.5000 0.5000 0.0 0 0 197.5212 43.6357" />
<path d="M80.5090 44.0854
L77.1702 56.5458
" />
<path d="M77.5238 57.1582
L89.9842 60.4970
" />
<path d="M93.5818 47.0706
L81.1213 43.7319
" />
<path d="M90.5966 60.1434
L93.9353 47.6830
" />
<path d="M77.1702 56.5458 A0.5000 0.5000 0.0 0 0 77.5238 57.1582" />
<path d="M81.1213 43.7319 A0.5000 0.5000 0.0 0 0 80.5090 44.0854" />
<path d="M89.9842 60.4970 A0.5000 0.5000 0.0 0 0 90.5966 60.1434" />
<path d="M93.9353 47.6830 A0.5000 0.5000 0.0 0 0 93.5818 47.0706" />
<path d="M115.4808 52.6621
L112.1420 65.1225
" />
<path d="M112.4956 65.7349
L124.9560 69.0737
" />
<path d="M128.5536 55.6473
L116.0932 52.3085
" />
<path d="M125.5684 68.7201
L128.9072 56.2597
" />
<path d="M112.1420 65.1225 A0.5000 0.5000 0.0 0 0 112.4956 65.7349" />
<path d="M116.0932 52.3085 A0.5000 0.5000 0.0 0 0 115.4808 52.6621" />
<path d="M124.9560 69.0737 A0.5000 0.5000 0.0 0 0 125.5684 68.7201" />
<path d="M128.9072 56.2597 A0.5000 0.5000 0.0 0 0 128.5536 55.6473" />
<path d="M132.7016 131.3745
L132.7016 144.2745
" />
<path d="M133.2016 144.7745
L146.1016 144.7745
" />
<path d="M146.1016 130.8745
L133.2016 130.8745
" />
<path d="M146.6016 144.2745
L146.6016 131.3745
" />
<path d="M132.7016 144.2745 A0.5000 0.5000 0.0 0 0 133.2016 144.7745" />
<path d="M133.2016 130.8745 A0.5000 0.5000 0.0 0 0 132.7016 131.3745" />
<path d="M146.1016 144.7745 A0.5000 0.5000 0.0 0 0 146.6016 144.2745" />
<path d="M146.6016 131.3745 A0.5000 0.5000 0.0 0 0 146.1016 130.8745" />
<path d="M152.0850 64.9324
L155.4237 77.3928
" />
<path d="M156.0361 77.7464
L168.4965 74.4076
" />
<path d="M164.8990 60.9812
L152.4385 64.3200
" />
<path d="M168.8501 73.7952
L165.5113 61.3348
" />
<path d="M155.4237 77.3928 A0.5000 0.5000 0.0 0 0 156.0361 77.7464" />
<path d="M152.4385 64.3200 A0.5000 0.5000 0.0 0 0 152.0850 64.9324" />
<path d="M168.4966 74.4076 A0.5000 0.5000 0.0 0 0 168.8501 73.7952" />
<path d="M165.5113 61.3348 A0.5000 0.5000 0.0 0 0 164.8990 60.9812" />
<g >
</g>
<g >
</g>
<g >
</g>
<g >
</g>
<g >
</g>
<g >
</g>
<g >
</g>
<g >
</g>
<g >
</g>
<g >
</g>
<g >
</g>
<g >
</g>
<g >
</g>
<g >
</g>
<g >
</g>
<g >
</g>
<g >
</g>
<g >
</g>
<g >
</g>
<g >
</g>
<g >
</g>
<g >
</g>
<g >
</g>
<g >
</g>
<g >
</g>
<g >
</g>
<g >
</g>
<g >
</g>
<g >
</g>
<g >
</g>
<g >
</g>
<g >
</g>
<g >
</g>
<g >
</g>
<g >
</g>
<g >
</g>
<g >
</g>
<g >
</g>
<g >
</g>
<g >
</g>
<g >
</g>
<g >
</g>
<g >
</g>
<g >
</g>
<g >
</g>
<g >
</g>
<g >
</g>
<g >
</g>
<g >
</g>
<g >
</g>
<g >
</g>
<g >
</g>
<g >
</g>
<g >
</g>
<g >
</g>
<g >
</g>
<g >
</g>
<g >
</g>
<g >
</g>
<g >
</g>
<g >
</g>
<g >
</g>
<g >
</g>
<g >
</g>
<g >
</g>
<g >
</g>
<g >
</g>
<g >
</g>
<g >
</g>
<g >
</g>
<g >
</g>
<g >
</g>
<g >
</g>
<g >
</g>
<g >
</g>
<g >
</g>
<g >
</g>
<g >
</g>
<g >
</g>
<g >
</g>
<g >
</g>
<g >
</g>
<g >
</g>
<g >
</g>
<g >
</g>
<g >
</g>
<g >
</g>
<g >
</g>
<g >
</g>
<g >
</g>
<g >
</g>
<g >
</g>
<g >
</g>
<g >
</g>
<g >
</g>
<g >
</g>
<g >
</g>
<g >
</g>
<g >
</g>
<g >
</g>
<g >
</g>
<g >
</g>
<g >
</g>
<g >
</g>
<g >
</g>
<g >
</g>
<g >
</g>
<g >
</g>
<g >
</g>
<g >
</g>
<g >
</g>
<g >
</g>
<g >
</g>
<g >
</g>
<g >
</g>
<g >
</g>
<g >
</g>
<g >
</g>
<g >
</g>
<g >
</g>
<g >
</g>
<g >
</g>
<g >
</g>
<g >
</g>
<g >
</g>
<g >
</g>
<g >
</g>
<g >
</g>
<g >
</g>
<g >
</g>
<g >
</g>
<g >
</g>
<g >
</g>
<g >
</g>
</g> 
</svg>
