<?xml version="1.0" standalone="no"?>
 <!DOCTYPE svg PUBLIC "-//W3C//DTD SVG 1.1//EN" 
 "http://www.w3.org/Graphics/SVG/1.1/DTD/svg11.dtd"> 
<svg
  xmlns:svg="http://www.w3.org/2000/svg"
  xmlns="http://www.w3.org/2000/svg"
  xmlns:xlink="http://www.w3.org/1999/xlink"
  version="1.1"
  width="297.0022mm" height="210.0072mm" viewBox="0.0000 0.0000 297.0022 210.0072">
<title>SVG Image created as basic60-User_Comments.svg date 2023/12/21 23:37:25 </title>
  <desc>Image generated by PCBNEW </desc>
<g style="fill:#000000; fill-opacity:1.0000;stroke:#000000; stroke-opacity:1.0000;
stroke-linecap:round; stroke-linejoin:round;"
 transform="translate(0 0) scale(1 1)">
</g>
<g style="fill:#000000; fill-opacity:0.0; 
stroke:#000000; stroke-width:0.0000; stroke-opacity:1; 
stroke-linecap:round; stroke-linejoin:round;">
</g>
<g style="fill:#000000; fill-opacity:0.0; 
stroke:#000000; stroke-width:0.1500; stroke-opacity:1; 
stroke-linecap:round; stroke-linejoin:round;">
<g transform="rotate(-90.000000 113.7797 38.6800)">
<text x="113.7797" y="38.6800"
textLength="3.2500" font-size="1.3333" lengthAdjust="spacingAndGlyphs"
text-anchor="middle" opacity="0">USB</text>
</g>
<g class="stroked-text"><desc>USB</desc>
<path d="M114.9099 39.9419
L114.1004 39.9419
" />
<path d="M114.1004 39.9419
L114.0051 39.8943
" />
<path d="M114.0051 39.8943
L113.9575 39.8467
" />
<path d="M113.9575 39.8467
L113.9099 39.7514
" />
<path d="M113.9099 39.7514
L113.9099 39.5610
" />
<path d="M113.9099 39.5610
L113.9575 39.4657
" />
<path d="M113.9575 39.4657
L114.0051 39.4181
" />
<path d="M114.0051 39.4181
L114.1004 39.3705
" />
<path d="M114.1004 39.3705
L114.9099 39.3705
" />
<path d="M113.9575 38.9419
L113.9099 38.7990
" />
<path d="M113.9099 38.7990
L113.9099 38.5610
" />
<path d="M113.9099 38.5610
L113.9575 38.4657
" />
<path d="M113.9575 38.4657
L114.0051 38.4181
" />
<path d="M114.0051 38.4181
L114.1004 38.3705
" />
<path d="M114.1004 38.3705
L114.1956 38.3705
" />
<path d="M114.1956 38.3705
L114.2908 38.4181
" />
<path d="M114.2908 38.4181
L114.3385 38.4657
" />
<path d="M114.3385 38.4657
L114.3861 38.5610
" />
<path d="M114.3861 38.5610
L114.4337 38.7514
" />
<path d="M114.4337 38.7514
L114.4813 38.8467
" />
<path d="M114.4813 38.8467
L114.5289 38.8943
" />
<path d="M114.5289 38.8943
L114.6242 38.9419
" />
<path d="M114.6242 38.9419
L114.7194 38.9419
" />
<path d="M114.7194 38.9419
L114.8146 38.8943
" />
<path d="M114.8146 38.8943
L114.8623 38.8467
" />
<path d="M114.8623 38.8467
L114.9099 38.7514
" />
<path d="M114.9099 38.7514
L114.9099 38.5133
" />
<path d="M114.9099 38.5133
L114.8623 38.3705
" />
<path d="M114.4337 37.6086
L114.3861 37.4657
" />
<path d="M114.3861 37.4657
L114.3385 37.4181
" />
<path d="M114.3385 37.4181
L114.2432 37.3705
" />
<path d="M114.2432 37.3705
L114.1004 37.3705
" />
<path d="M114.1004 37.3705
L114.0051 37.4181
" />
<path d="M114.0051 37.4181
L113.9575 37.4657
" />
<path d="M113.9575 37.4657
L113.9099 37.5610
" />
<path d="M113.9099 37.5610
L113.9099 37.9419
" />
<path d="M113.9099 37.9419
L114.9099 37.9419
" />
<path d="M114.9099 37.9419
L114.9099 37.6086
" />
<path d="M114.9099 37.6086
L114.8623 37.5133
" />
<path d="M114.8623 37.5133
L114.8146 37.4657
" />
<path d="M114.8146 37.4657
L114.7194 37.4181
" />
<path d="M114.7194 37.4181
L114.6242 37.4181
" />
<path d="M114.6242 37.4181
L114.5289 37.4657
" />
<path d="M114.5289 37.4657
L114.4813 37.5133
" />
<path d="M114.4813 37.5133
L114.4337 37.6086
" />
<path d="M114.4337 37.6086
L114.4337 37.9419
" />
</g><g transform="rotate(-180.000000 191.7522 114.2645)">
<text x="191.7522" y="114.7645"
textLength="2.9643" font-size="1.3333" lengthAdjust="spacingAndGlyphs"
text-anchor="middle" opacity="0">LED</text>
</g>
<g class="stroked-text"><desc>LED</desc>
<path d="M191.1093 113.8096
L190.6332 113.8096
" />
<path d="M190.6332 113.8096
L190.6332 114.8096
" />
<path d="M191.4427 114.3335
L191.7760 114.3335
" />
<path d="M191.9189 113.8096
L191.4427 113.8096
" />
<path d="M191.4427 113.8096
L191.4427 114.8096
" />
<path d="M191.4427 114.8096
L191.9189 114.8096
" />
<path d="M192.3474 113.8096
L192.3474 114.8096
" />
<path d="M192.3474 114.8096
L192.5855 114.8096
" />
<path d="M192.5855 114.8096
L192.7284 114.7620
" />
<path d="M192.7284 114.7620
L192.8236 114.6668
" />
<path d="M192.8236 114.6668
L192.8712 114.5716
" />
<path d="M192.8712 114.5716
L192.9189 114.3811
" />
<path d="M192.9189 114.3811
L192.9189 114.2382
" />
<path d="M192.9189 114.2382
L192.8712 114.0477
" />
<path d="M192.8712 114.0477
L192.8236 113.9525
" />
<path d="M192.8236 113.9525
L192.7284 113.8573
" />
<path d="M192.7284 113.8573
L192.5855 113.8096
" />
<path d="M192.5855 113.8096
L192.3474 113.8096
" />
</g><g transform="rotate(-180.000000 209.7522 114.2645)">
<text x="209.7522" y="114.7645"
textLength="2.9643" font-size="1.3333" lengthAdjust="spacingAndGlyphs"
text-anchor="middle" opacity="0">LED</text>
</g>
<g class="stroked-text"><desc>LED</desc>
<path d="M209.1093 113.8096
L208.6332 113.8096
" />
<path d="M208.6332 113.8096
L208.6332 114.8096
" />
<path d="M209.4427 114.3335
L209.7760 114.3335
" />
<path d="M209.9189 113.8096
L209.4427 113.8096
" />
<path d="M209.4427 113.8096
L209.4427 114.8096
" />
<path d="M209.4427 114.8096
L209.9189 114.8096
" />
<path d="M210.3474 113.8096
L210.3474 114.8096
" />
<path d="M210.3474 114.8096
L210.5855 114.8096
" />
<path d="M210.5855 114.8096
L210.7284 114.7620
" />
<path d="M210.7284 114.7620
L210.8236 114.6668
" />
<path d="M210.8236 114.6668
L210.8712 114.5716
" />
<path d="M210.8712 114.5716
L210.9189 114.3811
" />
<path d="M210.9189 114.3811
L210.9189 114.2382
" />
<path d="M210.9189 114.2382
L210.8712 114.0477
" />
<path d="M210.8712 114.0477
L210.8236 113.9525
" />
<path d="M210.8236 113.9525
L210.7284 113.8573
" />
<path d="M210.7284 113.8573
L210.5855 113.8096
" />
<path d="M210.5855 113.8096
L210.3474 113.8096
" />
</g><g transform="rotate(-180.000000 227.7522 114.2645)">
<text x="227.7522" y="114.7645"
textLength="2.9643" font-size="1.3333" lengthAdjust="spacingAndGlyphs"
text-anchor="middle" opacity="0">LED</text>
</g>
<g class="stroked-text"><desc>LED</desc>
<path d="M227.1093 113.8096
L226.6332 113.8096
" />
<path d="M226.6332 113.8096
L226.6332 114.8096
" />
<path d="M227.4427 114.3335
L227.7760 114.3335
" />
<path d="M227.9189 113.8096
L227.4427 113.8096
" />
<path d="M227.4427 113.8096
L227.4427 114.8096
" />
<path d="M227.4427 114.8096
L227.9189 114.8096
" />
<path d="M228.3474 113.8096
L228.3474 114.8096
" />
<path d="M228.3474 114.8096
L228.5855 114.8096
" />
<path d="M228.5855 114.8096
L228.7284 114.7620
" />
<path d="M228.7284 114.7620
L228.8236 114.6668
" />
<path d="M228.8236 114.6668
L228.8712 114.5716
" />
<path d="M228.8712 114.5716
L228.9189 114.3811
" />
<path d="M228.9189 114.3811
L228.9189 114.2382
" />
<path d="M228.9189 114.2382
L228.8712 114.0477
" />
<path d="M228.8712 114.0477
L228.8236 113.9525
" />
<path d="M228.8236 113.9525
L228.7284 113.8573
" />
<path d="M228.7284 113.8573
L228.5855 113.8096
" />
<path d="M228.5855 113.8096
L228.3474 113.8096
" />
</g><g transform="rotate(-180.000000 245.7522 114.2645)">
<text x="245.7522" y="114.7645"
textLength="2.9643" font-size="1.3333" lengthAdjust="spacingAndGlyphs"
text-anchor="middle" opacity="0">LED</text>
</g>
<g class="stroked-text"><desc>LED</desc>
<path d="M245.1093 113.8096
L244.6332 113.8096
" />
<path d="M244.6332 113.8096
L244.6332 114.8096
" />
<path d="M245.4427 114.3335
L245.7760 114.3335
" />
<path d="M245.9189 113.8096
L245.4427 113.8096
" />
<path d="M245.4427 113.8096
L245.4427 114.8096
" />
<path d="M245.4427 114.8096
L245.9189 114.8096
" />
<path d="M246.3474 113.8096
L246.3474 114.8096
" />
<path d="M246.3474 114.8096
L246.5855 114.8096
" />
<path d="M246.5855 114.8096
L246.7284 114.7620
" />
<path d="M246.7284 114.7620
L246.8236 114.6668
" />
<path d="M246.8236 114.6668
L246.8712 114.5716
" />
<path d="M246.8712 114.5716
L246.9189 114.3811
" />
<path d="M246.9189 114.3811
L246.9189 114.2382
" />
<path d="M246.9189 114.2382
L246.8712 114.0477
" />
<path d="M246.8712 114.0477
L246.8236 113.9525
" />
<path d="M246.8236 113.9525
L246.7284 113.8573
" />
<path d="M246.7284 113.8573
L246.5855 113.8096
" />
<path d="M246.5855 113.8096
L246.3474 113.8096
" />
</g><g transform="rotate(-180.000000 47.7522 97.2645)">
<text x="47.7522" y="97.7645"
textLength="2.9643" font-size="1.3333" lengthAdjust="spacingAndGlyphs"
text-anchor="middle" opacity="0">LED</text>
</g>
<g class="stroked-text"><desc>LED</desc>
<path d="M47.1093 96.8096
L46.6332 96.8096
" />
<path d="M46.6332 96.8096
L46.6332 97.8096
" />
<path d="M47.4427 97.3335
L47.7760 97.3335
" />
<path d="M47.9189 96.8096
L47.4427 96.8096
" />
<path d="M47.4427 96.8096
L47.4427 97.8096
" />
<path d="M47.4427 97.8096
L47.9189 97.8096
" />
<path d="M48.3474 96.8096
L48.3474 97.8096
" />
<path d="M48.3474 97.8096
L48.5855 97.8096
" />
<path d="M48.5855 97.8096
L48.7284 97.7620
" />
<path d="M48.7284 97.7620
L48.8236 97.6668
" />
<path d="M48.8236 97.6668
L48.8712 97.5716
" />
<path d="M48.8712 97.5716
L48.9189 97.3811
" />
<path d="M48.9189 97.3811
L48.9189 97.2382
" />
<path d="M48.9189 97.2382
L48.8712 97.0477
" />
<path d="M48.8712 97.0477
L48.8236 96.9525
" />
<path d="M48.8236 96.9525
L48.7284 96.8573
" />
<path d="M48.7284 96.8573
L48.5855 96.8096
" />
<path d="M48.5855 96.8096
L48.3474 96.8096
" />
</g><g transform="rotate(-180.000000 65.7522 97.2645)">
<text x="65.7522" y="97.7645"
textLength="2.9643" font-size="1.3333" lengthAdjust="spacingAndGlyphs"
text-anchor="middle" opacity="0">LED</text>
</g>
<g class="stroked-text"><desc>LED</desc>
<path d="M65.1093 96.8096
L64.6332 96.8096
" />
<path d="M64.6332 96.8096
L64.6332 97.8096
" />
<path d="M65.4427 97.3335
L65.7760 97.3335
" />
<path d="M65.9189 96.8096
L65.4427 96.8096
" />
<path d="M65.4427 96.8096
L65.4427 97.8096
" />
<path d="M65.4427 97.8096
L65.9189 97.8096
" />
<path d="M66.3474 96.8096
L66.3474 97.8096
" />
<path d="M66.3474 97.8096
L66.5855 97.8096
" />
<path d="M66.5855 97.8096
L66.7284 97.7620
" />
<path d="M66.7284 97.7620
L66.8236 97.6668
" />
<path d="M66.8236 97.6668
L66.8712 97.5716
" />
<path d="M66.8712 97.5716
L66.9189 97.3811
" />
<path d="M66.9189 97.3811
L66.9189 97.2382
" />
<path d="M66.9189 97.2382
L66.8712 97.0477
" />
<path d="M66.8712 97.0477
L66.8236 96.9525
" />
<path d="M66.8236 96.9525
L66.7284 96.8573
" />
<path d="M66.7284 96.8573
L66.5855 96.8096
" />
<path d="M66.5855 96.8096
L66.3474 96.8096
" />
</g><g transform="rotate(-180.000000 83.7522 97.2645)">
<text x="83.7522" y="97.7645"
textLength="2.9643" font-size="1.3333" lengthAdjust="spacingAndGlyphs"
text-anchor="middle" opacity="0">LED</text>
</g>
<g class="stroked-text"><desc>LED</desc>
<path d="M83.1093 96.8096
L82.6332 96.8096
" />
<path d="M82.6332 96.8096
L82.6332 97.8096
" />
<path d="M83.4427 97.3335
L83.7760 97.3335
" />
<path d="M83.9189 96.8096
L83.4427 96.8096
" />
<path d="M83.4427 96.8096
L83.4427 97.8096
" />
<path d="M83.4427 97.8096
L83.9189 97.8096
" />
<path d="M84.3474 96.8096
L84.3474 97.8096
" />
<path d="M84.3474 97.8096
L84.5855 97.8096
" />
<path d="M84.5855 97.8096
L84.7284 97.7620
" />
<path d="M84.7284 97.7620
L84.8236 97.6668
" />
<path d="M84.8236 97.6668
L84.8712 97.5716
" />
<path d="M84.8712 97.5716
L84.9189 97.3811
" />
<path d="M84.9189 97.3811
L84.9189 97.2382
" />
<path d="M84.9189 97.2382
L84.8712 97.0477
" />
<path d="M84.8712 97.0477
L84.8236 96.9525
" />
<path d="M84.8236 96.9525
L84.7284 96.8573
" />
<path d="M84.7284 96.8573
L84.5855 96.8096
" />
<path d="M84.5855 96.8096
L84.3474 96.8096
" />
</g><g transform="rotate(-180.000000 119.7522 97.2645)">
<text x="119.7522" y="97.7645"
textLength="2.9643" font-size="1.3333" lengthAdjust="spacingAndGlyphs"
text-anchor="middle" opacity="0">LED</text>
</g>
<g class="stroked-text"><desc>LED</desc>
<path d="M119.1093 96.8096
L118.6332 96.8096
" />
<path d="M118.6332 96.8096
L118.6332 97.8096
" />
<path d="M119.4427 97.3335
L119.7760 97.3335
" />
<path d="M119.9189 96.8096
L119.4427 96.8096
" />
<path d="M119.4427 96.8096
L119.4427 97.8096
" />
<path d="M119.4427 97.8096
L119.9189 97.8096
" />
<path d="M120.3474 96.8096
L120.3474 97.8096
" />
<path d="M120.3474 97.8096
L120.5855 97.8096
" />
<path d="M120.5855 97.8096
L120.7284 97.7620
" />
<path d="M120.7284 97.7620
L120.8236 97.6668
" />
<path d="M120.8236 97.6668
L120.8712 97.5716
" />
<path d="M120.8712 97.5716
L120.9189 97.3811
" />
<path d="M120.9189 97.3811
L120.9189 97.2382
" />
<path d="M120.9189 97.2382
L120.8712 97.0477
" />
<path d="M120.8712 97.0477
L120.8236 96.9525
" />
<path d="M120.8236 96.9525
L120.7284 96.8573
" />
<path d="M120.7284 96.8573
L120.5855 96.8096
" />
<path d="M120.5855 96.8096
L120.3474 96.8096
" />
</g><g transform="rotate(-180.000000 137.7522 97.2645)">
<text x="137.7522" y="97.7645"
textLength="2.9643" font-size="1.3333" lengthAdjust="spacingAndGlyphs"
text-anchor="middle" opacity="0">LED</text>
</g>
<g class="stroked-text"><desc>LED</desc>
<path d="M137.1093 96.8096
L136.6332 96.8096
" />
<path d="M136.6332 96.8096
L136.6332 97.8096
" />
<path d="M137.4427 97.3335
L137.7760 97.3335
" />
<path d="M137.9189 96.8096
L137.4427 96.8096
" />
<path d="M137.4427 96.8096
L137.4427 97.8096
" />
<path d="M137.4427 97.8096
L137.9189 97.8096
" />
<path d="M138.3474 96.8096
L138.3474 97.8096
" />
<path d="M138.3474 97.8096
L138.5855 97.8096
" />
<path d="M138.5855 97.8096
L138.7284 97.7620
" />
<path d="M138.7284 97.7620
L138.8236 97.6668
" />
<path d="M138.8236 97.6668
L138.8712 97.5716
" />
<path d="M138.8712 97.5716
L138.9189 97.3811
" />
<path d="M138.9189 97.3811
L138.9189 97.2382
" />
<path d="M138.9189 97.2382
L138.8712 97.0477
" />
<path d="M138.8712 97.0477
L138.8236 96.9525
" />
<path d="M138.8236 96.9525
L138.7284 96.8573
" />
<path d="M138.7284 96.8573
L138.5855 96.8096
" />
<path d="M138.5855 96.8096
L138.3474 96.8096
" />
</g><g transform="rotate(-180.000000 155.7522 97.2645)">
<text x="155.7522" y="97.7645"
textLength="2.9643" font-size="1.3333" lengthAdjust="spacingAndGlyphs"
text-anchor="middle" opacity="0">LED</text>
</g>
<g class="stroked-text"><desc>LED</desc>
<path d="M155.1093 96.8096
L154.6332 96.8096
" />
<path d="M154.6332 96.8096
L154.6332 97.8096
" />
<path d="M155.4427 97.3335
L155.7760 97.3335
" />
<path d="M155.9189 96.8096
L155.4427 96.8096
" />
<path d="M155.4427 96.8096
L155.4427 97.8096
" />
<path d="M155.4427 97.8096
L155.9189 97.8096
" />
<path d="M156.3474 96.8096
L156.3474 97.8096
" />
<path d="M156.3474 97.8096
L156.5855 97.8096
" />
<path d="M156.5855 97.8096
L156.7284 97.7620
" />
<path d="M156.7284 97.7620
L156.8236 97.6668
" />
<path d="M156.8236 97.6668
L156.8712 97.5716
" />
<path d="M156.8712 97.5716
L156.9189 97.3811
" />
<path d="M156.9189 97.3811
L156.9189 97.2382
" />
<path d="M156.9189 97.2382
L156.8712 97.0477
" />
<path d="M156.8712 97.0477
L156.8236 96.9525
" />
<path d="M156.8236 96.9525
L156.7284 96.8573
" />
<path d="M156.7284 96.8573
L156.5855 96.8096
" />
<path d="M156.5855 96.8096
L156.3474 96.8096
" />
</g><g transform="rotate(-180.000000 137.7522 80.2645)">
<text x="137.7522" y="80.7645"
textLength="2.9643" font-size="1.3333" lengthAdjust="spacingAndGlyphs"
text-anchor="middle" opacity="0">LED</text>
</g>
<g class="stroked-text"><desc>LED</desc>
<path d="M137.1093 79.8096
L136.6332 79.8096
" />
<path d="M136.6332 79.8096
L136.6332 80.8096
" />
<path d="M137.4427 80.3335
L137.7760 80.3335
" />
<path d="M137.9189 79.8096
L137.4427 79.8096
" />
<path d="M137.4427 79.8096
L137.4427 80.8096
" />
<path d="M137.4427 80.8096
L137.9189 80.8096
" />
<path d="M138.3474 79.8096
L138.3474 80.8096
" />
<path d="M138.3474 80.8096
L138.5855 80.8096
" />
<path d="M138.5855 80.8096
L138.7284 80.7620
" />
<path d="M138.7284 80.7620
L138.8236 80.6668
" />
<path d="M138.8236 80.6668
L138.8712 80.5716
" />
<path d="M138.8712 80.5716
L138.9189 80.3811
" />
<path d="M138.9189 80.3811
L138.9189 80.2382
" />
<path d="M138.9189 80.2382
L138.8712 80.0477
" />
<path d="M138.8712 80.0477
L138.8236 79.9525
" />
<path d="M138.8236 79.9525
L138.7284 79.8573
" />
<path d="M138.7284 79.8573
L138.5855 79.8096
" />
<path d="M138.5855 79.8096
L138.3474 79.8096
" />
</g><g transform="rotate(-180.000000 101.7522 97.2645)">
<text x="101.7522" y="97.7645"
textLength="2.9643" font-size="1.3333" lengthAdjust="spacingAndGlyphs"
text-anchor="middle" opacity="0">LED</text>
</g>
<g class="stroked-text"><desc>LED</desc>
<path d="M101.1093 96.8096
L100.6332 96.8096
" />
<path d="M100.6332 96.8096
L100.6332 97.8096
" />
<path d="M101.4427 97.3335
L101.7760 97.3335
" />
<path d="M101.9189 96.8096
L101.4427 96.8096
" />
<path d="M101.4427 96.8096
L101.4427 97.8096
" />
<path d="M101.4427 97.8096
L101.9189 97.8096
" />
<path d="M102.3474 96.8096
L102.3474 97.8096
" />
<path d="M102.3474 97.8096
L102.5855 97.8096
" />
<path d="M102.5855 97.8096
L102.7284 97.7620
" />
<path d="M102.7284 97.7620
L102.8236 97.6668
" />
<path d="M102.8236 97.6668
L102.8712 97.5716
" />
<path d="M102.8712 97.5716
L102.9189 97.3811
" />
<path d="M102.9189 97.3811
L102.9189 97.2382
" />
<path d="M102.9189 97.2382
L102.8712 97.0477
" />
<path d="M102.8712 97.0477
L102.8236 96.9525
" />
<path d="M102.8236 96.9525
L102.7284 96.8573
" />
<path d="M102.7284 96.8573
L102.5855 96.8096
" />
<path d="M102.5855 96.8096
L102.3474 96.8096
" />
</g><g transform="rotate(-180.000000 173.7522 97.2645)">
<text x="173.7522" y="97.7645"
textLength="2.9643" font-size="1.3333" lengthAdjust="spacingAndGlyphs"
text-anchor="middle" opacity="0">LED</text>
</g>
<g class="stroked-text"><desc>LED</desc>
<path d="M173.1093 96.8096
L172.6332 96.8096
" />
<path d="M172.6332 96.8096
L172.6332 97.8096
" />
<path d="M173.4427 97.3335
L173.7760 97.3335
" />
<path d="M173.9189 96.8096
L173.4427 96.8096
" />
<path d="M173.4427 96.8096
L173.4427 97.8096
" />
<path d="M173.4427 97.8096
L173.9189 97.8096
" />
<path d="M174.3474 96.8096
L174.3474 97.8096
" />
<path d="M174.3474 97.8096
L174.5855 97.8096
" />
<path d="M174.5855 97.8096
L174.7284 97.7620
" />
<path d="M174.7284 97.7620
L174.8236 97.6668
" />
<path d="M174.8236 97.6668
L174.8712 97.5716
" />
<path d="M174.8712 97.5716
L174.9189 97.3811
" />
<path d="M174.9189 97.3811
L174.9189 97.2382
" />
<path d="M174.9189 97.2382
L174.8712 97.0477
" />
<path d="M174.8712 97.0477
L174.8236 96.9525
" />
<path d="M174.8236 96.9525
L174.7284 96.8573
" />
<path d="M174.7284 96.8573
L174.5855 96.8096
" />
<path d="M174.5855 96.8096
L174.3474 96.8096
" />
</g><g transform="rotate(-180.000000 191.7522 97.2645)">
<text x="191.7522" y="97.7645"
textLength="2.9643" font-size="1.3333" lengthAdjust="spacingAndGlyphs"
text-anchor="middle" opacity="0">LED</text>
</g>
<g class="stroked-text"><desc>LED</desc>
<path d="M191.1093 96.8096
L190.6332 96.8096
" />
<path d="M190.6332 96.8096
L190.6332 97.8096
" />
<path d="M191.4427 97.3335
L191.7760 97.3335
" />
<path d="M191.9189 96.8096
L191.4427 96.8096
" />
<path d="M191.4427 96.8096
L191.4427 97.8096
" />
<path d="M191.4427 97.8096
L191.9189 97.8096
" />
<path d="M192.3474 96.8096
L192.3474 97.8096
" />
<path d="M192.3474 97.8096
L192.5855 97.8096
" />
<path d="M192.5855 97.8096
L192.7284 97.7620
" />
<path d="M192.7284 97.7620
L192.8236 97.6668
" />
<path d="M192.8236 97.6668
L192.8712 97.5716
" />
<path d="M192.8712 97.5716
L192.9189 97.3811
" />
<path d="M192.9189 97.3811
L192.9189 97.2382
" />
<path d="M192.9189 97.2382
L192.8712 97.0477
" />
<path d="M192.8712 97.0477
L192.8236 96.9525
" />
<path d="M192.8236 96.9525
L192.7284 96.8573
" />
<path d="M192.7284 96.8573
L192.5855 96.8096
" />
<path d="M192.5855 96.8096
L192.3474 96.8096
" />
</g><g transform="rotate(-180.000000 209.7522 97.2645)">
<text x="209.7522" y="97.7645"
textLength="2.9643" font-size="1.3333" lengthAdjust="spacingAndGlyphs"
text-anchor="middle" opacity="0">LED</text>
</g>
<g class="stroked-text"><desc>LED</desc>
<path d="M209.1093 96.8096
L208.6332 96.8096
" />
<path d="M208.6332 96.8096
L208.6332 97.8096
" />
<path d="M209.4427 97.3335
L209.7760 97.3335
" />
<path d="M209.9189 96.8096
L209.4427 96.8096
" />
<path d="M209.4427 96.8096
L209.4427 97.8096
" />
<path d="M209.4427 97.8096
L209.9189 97.8096
" />
<path d="M210.3474 96.8096
L210.3474 97.8096
" />
<path d="M210.3474 97.8096
L210.5855 97.8096
" />
<path d="M210.5855 97.8096
L210.7284 97.7620
" />
<path d="M210.7284 97.7620
L210.8236 97.6668
" />
<path d="M210.8236 97.6668
L210.8712 97.5716
" />
<path d="M210.8712 97.5716
L210.9189 97.3811
" />
<path d="M210.9189 97.3811
L210.9189 97.2382
" />
<path d="M210.9189 97.2382
L210.8712 97.0477
" />
<path d="M210.8712 97.0477
L210.8236 96.9525
" />
<path d="M210.8236 96.9525
L210.7284 96.8573
" />
<path d="M210.7284 96.8573
L210.5855 96.8096
" />
<path d="M210.5855 96.8096
L210.3474 96.8096
" />
</g><g transform="rotate(-180.000000 227.7522 97.2645)">
<text x="227.7522" y="97.7645"
textLength="2.9643" font-size="1.3333" lengthAdjust="spacingAndGlyphs"
text-anchor="middle" opacity="0">LED</text>
</g>
<g class="stroked-text"><desc>LED</desc>
<path d="M227.1093 96.8096
L226.6332 96.8096
" />
<path d="M226.6332 96.8096
L226.6332 97.8096
" />
<path d="M227.4427 97.3335
L227.7760 97.3335
" />
<path d="M227.9189 96.8096
L227.4427 96.8096
" />
<path d="M227.4427 96.8096
L227.4427 97.8096
" />
<path d="M227.4427 97.8096
L227.9189 97.8096
" />
<path d="M228.3474 96.8096
L228.3474 97.8096
" />
<path d="M228.3474 97.8096
L228.5855 97.8096
" />
<path d="M228.5855 97.8096
L228.7284 97.7620
" />
<path d="M228.7284 97.7620
L228.8236 97.6668
" />
<path d="M228.8236 97.6668
L228.8712 97.5716
" />
<path d="M228.8712 97.5716
L228.9189 97.3811
" />
<path d="M228.9189 97.3811
L228.9189 97.2382
" />
<path d="M228.9189 97.2382
L228.8712 97.0477
" />
<path d="M228.8712 97.0477
L228.8236 96.9525
" />
<path d="M228.8236 96.9525
L228.7284 96.8573
" />
<path d="M228.7284 96.8573
L228.5855 96.8096
" />
<path d="M228.5855 96.8096
L228.3474 96.8096
" />
</g><g transform="rotate(-180.000000 245.7522 97.2645)">
<text x="245.7522" y="97.7645"
textLength="2.9643" font-size="1.3333" lengthAdjust="spacingAndGlyphs"
text-anchor="middle" opacity="0">LED</text>
</g>
<g class="stroked-text"><desc>LED</desc>
<path d="M245.1093 96.8096
L244.6332 96.8096
" />
<path d="M244.6332 96.8096
L244.6332 97.8096
" />
<path d="M245.4427 97.3335
L245.7760 97.3335
" />
<path d="M245.9189 96.8096
L245.4427 96.8096
" />
<path d="M245.4427 96.8096
L245.4427 97.8096
" />
<path d="M245.4427 97.8096
L245.9189 97.8096
" />
<path d="M246.3474 96.8096
L246.3474 97.8096
" />
<path d="M246.3474 97.8096
L246.5855 97.8096
" />
<path d="M246.5855 97.8096
L246.7284 97.7620
" />
<path d="M246.7284 97.7620
L246.8236 97.6668
" />
<path d="M246.8236 97.6668
L246.8712 97.5716
" />
<path d="M246.8712 97.5716
L246.9189 97.3811
" />
<path d="M246.9189 97.3811
L246.9189 97.2382
" />
<path d="M246.9189 97.2382
L246.8712 97.0477
" />
<path d="M246.8712 97.0477
L246.8236 96.9525
" />
<path d="M246.8236 96.9525
L246.7284 96.8573
" />
<path d="M246.7284 96.8573
L246.5855 96.8096
" />
<path d="M246.5855 96.8096
L246.3474 96.8096
" />
</g><g transform="rotate(-180.000000 47.7522 80.2645)">
<text x="47.7522" y="80.7645"
textLength="2.9643" font-size="1.3333" lengthAdjust="spacingAndGlyphs"
text-anchor="middle" opacity="0">LED</text>
</g>
<g class="stroked-text"><desc>LED</desc>
<path d="M47.1093 79.8096
L46.6332 79.8096
" />
<path d="M46.6332 79.8096
L46.6332 80.8096
" />
<path d="M47.4427 80.3335
L47.7760 80.3335
" />
<path d="M47.9189 79.8096
L47.4427 79.8096
" />
<path d="M47.4427 79.8096
L47.4427 80.8096
" />
<path d="M47.4427 80.8096
L47.9189 80.8096
" />
<path d="M48.3474 79.8096
L48.3474 80.8096
" />
<path d="M48.3474 80.8096
L48.5855 80.8096
" />
<path d="M48.5855 80.8096
L48.7284 80.7620
" />
<path d="M48.7284 80.7620
L48.8236 80.6668
" />
<path d="M48.8236 80.6668
L48.8712 80.5716
" />
<path d="M48.8712 80.5716
L48.9189 80.3811
" />
<path d="M48.9189 80.3811
L48.9189 80.2382
" />
<path d="M48.9189 80.2382
L48.8712 80.0477
" />
<path d="M48.8712 80.0477
L48.8236 79.9525
" />
<path d="M48.8236 79.9525
L48.7284 79.8573
" />
<path d="M48.7284 79.8573
L48.5855 79.8096
" />
<path d="M48.5855 79.8096
L48.3474 79.8096
" />
</g><g transform="rotate(-180.000000 173.7522 131.2645)">
<text x="173.7522" y="131.7645"
textLength="2.9643" font-size="1.3333" lengthAdjust="spacingAndGlyphs"
text-anchor="middle" opacity="0">LED</text>
</g>
<g class="stroked-text"><desc>LED</desc>
<path d="M173.1093 130.8096
L172.6332 130.8096
" />
<path d="M172.6332 130.8096
L172.6332 131.8096
" />
<path d="M173.4427 131.3335
L173.7760 131.3335
" />
<path d="M173.9189 130.8096
L173.4427 130.8096
" />
<path d="M173.4427 130.8096
L173.4427 131.8096
" />
<path d="M173.4427 131.8096
L173.9189 131.8096
" />
<path d="M174.3474 130.8096
L174.3474 131.8096
" />
<path d="M174.3474 131.8096
L174.5855 131.8096
" />
<path d="M174.5855 131.8096
L174.7284 131.7620
" />
<path d="M174.7284 131.7620
L174.8236 131.6668
" />
<path d="M174.8236 131.6668
L174.8712 131.5716
" />
<path d="M174.8712 131.5716
L174.9189 131.3811
" />
<path d="M174.9189 131.3811
L174.9189 131.2382
" />
<path d="M174.9189 131.2382
L174.8712 131.0477
" />
<path d="M174.8712 131.0477
L174.8236 130.9525
" />
<path d="M174.8236 130.9525
L174.7284 130.8573
" />
<path d="M174.7284 130.8573
L174.5855 130.8096
" />
<path d="M174.5855 130.8096
L174.3474 130.8096
" />
</g><g transform="rotate(-180.000000 65.7522 80.2645)">
<text x="65.7522" y="80.7645"
textLength="2.9643" font-size="1.3333" lengthAdjust="spacingAndGlyphs"
text-anchor="middle" opacity="0">LED</text>
</g>
<g class="stroked-text"><desc>LED</desc>
<path d="M65.1093 79.8096
L64.6332 79.8096
" />
<path d="M64.6332 79.8096
L64.6332 80.8096
" />
<path d="M65.4427 80.3335
L65.7760 80.3335
" />
<path d="M65.9189 79.8096
L65.4427 79.8096
" />
<path d="M65.4427 79.8096
L65.4427 80.8096
" />
<path d="M65.4427 80.8096
L65.9189 80.8096
" />
<path d="M66.3474 79.8096
L66.3474 80.8096
" />
<path d="M66.3474 80.8096
L66.5855 80.8096
" />
<path d="M66.5855 80.8096
L66.7284 80.7620
" />
<path d="M66.7284 80.7620
L66.8236 80.6668
" />
<path d="M66.8236 80.6668
L66.8712 80.5716
" />
<path d="M66.8712 80.5716
L66.9189 80.3811
" />
<path d="M66.9189 80.3811
L66.9189 80.2382
" />
<path d="M66.9189 80.2382
L66.8712 80.0477
" />
<path d="M66.8712 80.0477
L66.8236 79.9525
" />
<path d="M66.8236 79.9525
L66.7284 79.8573
" />
<path d="M66.7284 79.8573
L66.5855 79.8096
" />
<path d="M66.5855 79.8096
L66.3474 79.8096
" />
</g><g transform="rotate(-180.000000 245.7522 80.2645)">
<text x="245.7522" y="80.7645"
textLength="2.9643" font-size="1.3333" lengthAdjust="spacingAndGlyphs"
text-anchor="middle" opacity="0">LED</text>
</g>
<g class="stroked-text"><desc>LED</desc>
<path d="M245.1093 79.8096
L244.6332 79.8096
" />
<path d="M244.6332 79.8096
L244.6332 80.8096
" />
<path d="M245.4427 80.3335
L245.7760 80.3335
" />
<path d="M245.9189 79.8096
L245.4427 79.8096
" />
<path d="M245.4427 79.8096
L245.4427 80.8096
" />
<path d="M245.4427 80.8096
L245.9189 80.8096
" />
<path d="M246.3474 79.8096
L246.3474 80.8096
" />
<path d="M246.3474 80.8096
L246.5855 80.8096
" />
<path d="M246.5855 80.8096
L246.7284 80.7620
" />
<path d="M246.7284 80.7620
L246.8236 80.6668
" />
<path d="M246.8236 80.6668
L246.8712 80.5716
" />
<path d="M246.8712 80.5716
L246.9189 80.3811
" />
<path d="M246.9189 80.3811
L246.9189 80.2382
" />
<path d="M246.9189 80.2382
L246.8712 80.0477
" />
<path d="M246.8712 80.0477
L246.8236 79.9525
" />
<path d="M246.8236 79.9525
L246.7284 79.8573
" />
<path d="M246.7284 79.8573
L246.5855 79.8096
" />
<path d="M246.5855 79.8096
L246.3474 79.8096
" />
</g><g transform="rotate(-180.000000 173.7522 80.2645)">
<text x="173.7522" y="80.7645"
textLength="2.9643" font-size="1.3333" lengthAdjust="spacingAndGlyphs"
text-anchor="middle" opacity="0">LED</text>
</g>
<g class="stroked-text"><desc>LED</desc>
<path d="M173.1093 79.8096
L172.6332 79.8096
" />
<path d="M172.6332 79.8096
L172.6332 80.8096
" />
<path d="M173.4427 80.3335
L173.7760 80.3335
" />
<path d="M173.9189 79.8096
L173.4427 79.8096
" />
<path d="M173.4427 79.8096
L173.4427 80.8096
" />
<path d="M173.4427 80.8096
L173.9189 80.8096
" />
<path d="M174.3474 79.8096
L174.3474 80.8096
" />
<path d="M174.3474 80.8096
L174.5855 80.8096
" />
<path d="M174.5855 80.8096
L174.7284 80.7620
" />
<path d="M174.7284 80.7620
L174.8236 80.6668
" />
<path d="M174.8236 80.6668
L174.8712 80.5716
" />
<path d="M174.8712 80.5716
L174.9189 80.3811
" />
<path d="M174.9189 80.3811
L174.9189 80.2382
" />
<path d="M174.9189 80.2382
L174.8712 80.0477
" />
<path d="M174.8712 80.0477
L174.8236 79.9525
" />
<path d="M174.8236 79.9525
L174.7284 79.8573
" />
<path d="M174.7284 79.8573
L174.5855 79.8096
" />
<path d="M174.5855 79.8096
L174.3474 79.8096
" />
</g><g transform="rotate(-180.000000 191.7522 80.2645)">
<text x="191.7522" y="80.7645"
textLength="2.9643" font-size="1.3333" lengthAdjust="spacingAndGlyphs"
text-anchor="middle" opacity="0">LED</text>
</g>
<g class="stroked-text"><desc>LED</desc>
<path d="M191.1093 79.8096
L190.6332 79.8096
" />
<path d="M190.6332 79.8096
L190.6332 80.8096
" />
<path d="M191.4427 80.3335
L191.7760 80.3335
" />
<path d="M191.9189 79.8096
L191.4427 79.8096
" />
<path d="M191.4427 79.8096
L191.4427 80.8096
" />
<path d="M191.4427 80.8096
L191.9189 80.8096
" />
<path d="M192.3474 79.8096
L192.3474 80.8096
" />
<path d="M192.3474 80.8096
L192.5855 80.8096
" />
<path d="M192.5855 80.8096
L192.7284 80.7620
" />
<path d="M192.7284 80.7620
L192.8236 80.6668
" />
<path d="M192.8236 80.6668
L192.8712 80.5716
" />
<path d="M192.8712 80.5716
L192.9189 80.3811
" />
<path d="M192.9189 80.3811
L192.9189 80.2382
" />
<path d="M192.9189 80.2382
L192.8712 80.0477
" />
<path d="M192.8712 80.0477
L192.8236 79.9525
" />
<path d="M192.8236 79.9525
L192.7284 79.8573
" />
<path d="M192.7284 79.8573
L192.5855 79.8096
" />
<path d="M192.5855 79.8096
L192.3474 79.8096
" />
</g><g transform="rotate(-180.000000 119.7522 80.2645)">
<text x="119.7522" y="80.7645"
textLength="2.9643" font-size="1.3333" lengthAdjust="spacingAndGlyphs"
text-anchor="middle" opacity="0">LED</text>
</g>
<g class="stroked-text"><desc>LED</desc>
<path d="M119.1093 79.8096
L118.6332 79.8096
" />
<path d="M118.6332 79.8096
L118.6332 80.8096
" />
<path d="M119.4427 80.3335
L119.7760 80.3335
" />
<path d="M119.9189 79.8096
L119.4427 79.8096
" />
<path d="M119.4427 79.8096
L119.4427 80.8096
" />
<path d="M119.4427 80.8096
L119.9189 80.8096
" />
<path d="M120.3474 79.8096
L120.3474 80.8096
" />
<path d="M120.3474 80.8096
L120.5855 80.8096
" />
<path d="M120.5855 80.8096
L120.7284 80.7620
" />
<path d="M120.7284 80.7620
L120.8236 80.6668
" />
<path d="M120.8236 80.6668
L120.8712 80.5716
" />
<path d="M120.8712 80.5716
L120.9189 80.3811
" />
<path d="M120.9189 80.3811
L120.9189 80.2382
" />
<path d="M120.9189 80.2382
L120.8712 80.0477
" />
<path d="M120.8712 80.0477
L120.8236 79.9525
" />
<path d="M120.8236 79.9525
L120.7284 79.8573
" />
<path d="M120.7284 79.8573
L120.5855 79.8096
" />
<path d="M120.5855 79.8096
L120.3474 79.8096
" />
</g><g transform="rotate(-180.000000 137.7022 114.1145)">
<text x="137.7022" y="114.6145"
textLength="2.9643" font-size="1.3333" lengthAdjust="spacingAndGlyphs"
text-anchor="middle" opacity="0">LED</text>
</g>
<g class="stroked-text"><desc>LED</desc>
<path d="M137.0593 113.6596
L136.5832 113.6596
" />
<path d="M136.5832 113.6596
L136.5832 114.6596
" />
<path d="M137.3927 114.1835
L137.7260 114.1835
" />
<path d="M137.8689 113.6596
L137.3927 113.6596
" />
<path d="M137.3927 113.6596
L137.3927 114.6596
" />
<path d="M137.3927 114.6596
L137.8689 114.6596
" />
<path d="M138.2974 113.6596
L138.2974 114.6596
" />
<path d="M138.2974 114.6596
L138.5355 114.6596
" />
<path d="M138.5355 114.6596
L138.6784 114.6120
" />
<path d="M138.6784 114.6120
L138.7736 114.5168
" />
<path d="M138.7736 114.5168
L138.8212 114.4216
" />
<path d="M138.8212 114.4216
L138.8689 114.2311
" />
<path d="M138.8689 114.2311
L138.8689 114.0882
" />
<path d="M138.8689 114.0882
L138.8212 113.8977
" />
<path d="M138.8212 113.8977
L138.7736 113.8025
" />
<path d="M138.7736 113.8025
L138.6784 113.7073
" />
<path d="M138.6784 113.7073
L138.5355 113.6596
" />
<path d="M138.5355 113.6596
L138.2974 113.6596
" />
</g><g transform="rotate(-180.000000 227.7522 80.2645)">
<text x="227.7522" y="80.7645"
textLength="2.9643" font-size="1.3333" lengthAdjust="spacingAndGlyphs"
text-anchor="middle" opacity="0">LED</text>
</g>
<g class="stroked-text"><desc>LED</desc>
<path d="M227.1093 79.8096
L226.6332 79.8096
" />
<path d="M226.6332 79.8096
L226.6332 80.8096
" />
<path d="M227.4427 80.3335
L227.7760 80.3335
" />
<path d="M227.9189 79.8096
L227.4427 79.8096
" />
<path d="M227.4427 79.8096
L227.4427 80.8096
" />
<path d="M227.4427 80.8096
L227.9189 80.8096
" />
<path d="M228.3474 79.8096
L228.3474 80.8096
" />
<path d="M228.3474 80.8096
L228.5855 80.8096
" />
<path d="M228.5855 80.8096
L228.7284 80.7620
" />
<path d="M228.7284 80.7620
L228.8236 80.6668
" />
<path d="M228.8236 80.6668
L228.8712 80.5716
" />
<path d="M228.8712 80.5716
L228.9189 80.3811
" />
<path d="M228.9189 80.3811
L228.9189 80.2382
" />
<path d="M228.9189 80.2382
L228.8712 80.0477
" />
<path d="M228.8712 80.0477
L228.8236 79.9525
" />
<path d="M228.8236 79.9525
L228.7284 79.8573
" />
<path d="M228.7284 79.8573
L228.5855 79.8096
" />
<path d="M228.5855 79.8096
L228.3474 79.8096
" />
</g><g transform="rotate(-180.000000 83.7522 80.2645)">
<text x="83.7522" y="80.7645"
textLength="2.9643" font-size="1.3333" lengthAdjust="spacingAndGlyphs"
text-anchor="middle" opacity="0">LED</text>
</g>
<g class="stroked-text"><desc>LED</desc>
<path d="M83.1093 79.8096
L82.6332 79.8096
" />
<path d="M82.6332 79.8096
L82.6332 80.8096
" />
<path d="M83.4427 80.3335
L83.7760 80.3335
" />
<path d="M83.9189 79.8096
L83.4427 79.8096
" />
<path d="M83.4427 79.8096
L83.4427 80.8096
" />
<path d="M83.4427 80.8096
L83.9189 80.8096
" />
<path d="M84.3474 79.8096
L84.3474 80.8096
" />
<path d="M84.3474 80.8096
L84.5855 80.8096
" />
<path d="M84.5855 80.8096
L84.7284 80.7620
" />
<path d="M84.7284 80.7620
L84.8236 80.6668
" />
<path d="M84.8236 80.6668
L84.8712 80.5716
" />
<path d="M84.8712 80.5716
L84.9189 80.3811
" />
<path d="M84.9189 80.3811
L84.9189 80.2382
" />
<path d="M84.9189 80.2382
L84.8712 80.0477
" />
<path d="M84.8712 80.0477
L84.8236 79.9525
" />
<path d="M84.8236 79.9525
L84.7284 79.8573
" />
<path d="M84.7284 79.8573
L84.5855 79.8096
" />
<path d="M84.5855 79.8096
L84.3474 79.8096
" />
</g><g transform="rotate(-180.000000 101.7522 80.2645)">
<text x="101.7522" y="80.7645"
textLength="2.9643" font-size="1.3333" lengthAdjust="spacingAndGlyphs"
text-anchor="middle" opacity="0">LED</text>
</g>
<g class="stroked-text"><desc>LED</desc>
<path d="M101.1093 79.8096
L100.6332 79.8096
" />
<path d="M100.6332 79.8096
L100.6332 80.8096
" />
<path d="M101.4427 80.3335
L101.7760 80.3335
" />
<path d="M101.9189 79.8096
L101.4427 79.8096
" />
<path d="M101.4427 79.8096
L101.4427 80.8096
" />
<path d="M101.4427 80.8096
L101.9189 80.8096
" />
<path d="M102.3474 79.8096
L102.3474 80.8096
" />
<path d="M102.3474 80.8096
L102.5855 80.8096
" />
<path d="M102.5855 80.8096
L102.7284 80.7620
" />
<path d="M102.7284 80.7620
L102.8236 80.6668
" />
<path d="M102.8236 80.6668
L102.8712 80.5716
" />
<path d="M102.8712 80.5716
L102.9189 80.3811
" />
<path d="M102.9189 80.3811
L102.9189 80.2382
" />
<path d="M102.9189 80.2382
L102.8712 80.0477
" />
<path d="M102.8712 80.0477
L102.8236 79.9525
" />
<path d="M102.8236 79.9525
L102.7284 79.8573
" />
<path d="M102.7284 79.8573
L102.5855 79.8096
" />
<path d="M102.5855 79.8096
L102.3474 79.8096
" />
</g><g transform="rotate(-180.000000 47.7522 114.2645)">
<text x="47.7522" y="114.7645"
textLength="2.9643" font-size="1.3333" lengthAdjust="spacingAndGlyphs"
text-anchor="middle" opacity="0">LED</text>
</g>
<g class="stroked-text"><desc>LED</desc>
<path d="M47.1093 113.8096
L46.6332 113.8096
" />
<path d="M46.6332 113.8096
L46.6332 114.8096
" />
<path d="M47.4427 114.3335
L47.7760 114.3335
" />
<path d="M47.9189 113.8096
L47.4427 113.8096
" />
<path d="M47.4427 113.8096
L47.4427 114.8096
" />
<path d="M47.4427 114.8096
L47.9189 114.8096
" />
<path d="M48.3474 113.8096
L48.3474 114.8096
" />
<path d="M48.3474 114.8096
L48.5855 114.8096
" />
<path d="M48.5855 114.8096
L48.7284 114.7620
" />
<path d="M48.7284 114.7620
L48.8236 114.6668
" />
<path d="M48.8236 114.6668
L48.8712 114.5716
" />
<path d="M48.8712 114.5716
L48.9189 114.3811
" />
<path d="M48.9189 114.3811
L48.9189 114.2382
" />
<path d="M48.9189 114.2382
L48.8712 114.0477
" />
<path d="M48.8712 114.0477
L48.8236 113.9525
" />
<path d="M48.8236 113.9525
L48.7284 113.8573
" />
<path d="M48.7284 113.8573
L48.5855 113.8096
" />
<path d="M48.5855 113.8096
L48.3474 113.8096
" />
</g><g transform="rotate(-180.000000 65.7522 114.2645)">
<text x="65.7522" y="114.7645"
textLength="2.9643" font-size="1.3333" lengthAdjust="spacingAndGlyphs"
text-anchor="middle" opacity="0">LED</text>
</g>
<g class="stroked-text"><desc>LED</desc>
<path d="M65.1093 113.8096
L64.6332 113.8096
" />
<path d="M64.6332 113.8096
L64.6332 114.8096
" />
<path d="M65.4427 114.3335
L65.7760 114.3335
" />
<path d="M65.9189 113.8096
L65.4427 113.8096
" />
<path d="M65.4427 113.8096
L65.4427 114.8096
" />
<path d="M65.4427 114.8096
L65.9189 114.8096
" />
<path d="M66.3474 113.8096
L66.3474 114.8096
" />
<path d="M66.3474 114.8096
L66.5855 114.8096
" />
<path d="M66.5855 114.8096
L66.7284 114.7620
" />
<path d="M66.7284 114.7620
L66.8236 114.6668
" />
<path d="M66.8236 114.6668
L66.8712 114.5716
" />
<path d="M66.8712 114.5716
L66.9189 114.3811
" />
<path d="M66.9189 114.3811
L66.9189 114.2382
" />
<path d="M66.9189 114.2382
L66.8712 114.0477
" />
<path d="M66.8712 114.0477
L66.8236 113.9525
" />
<path d="M66.8236 113.9525
L66.7284 113.8573
" />
<path d="M66.7284 113.8573
L66.5855 113.8096
" />
<path d="M66.5855 113.8096
L66.3474 113.8096
" />
</g><g transform="rotate(-180.000000 83.7522 114.2645)">
<text x="83.7522" y="114.7645"
textLength="2.9643" font-size="1.3333" lengthAdjust="spacingAndGlyphs"
text-anchor="middle" opacity="0">LED</text>
</g>
<g class="stroked-text"><desc>LED</desc>
<path d="M83.1093 113.8096
L82.6332 113.8096
" />
<path d="M82.6332 113.8096
L82.6332 114.8096
" />
<path d="M83.4427 114.3335
L83.7760 114.3335
" />
<path d="M83.9189 113.8096
L83.4427 113.8096
" />
<path d="M83.4427 113.8096
L83.4427 114.8096
" />
<path d="M83.4427 114.8096
L83.9189 114.8096
" />
<path d="M84.3474 113.8096
L84.3474 114.8096
" />
<path d="M84.3474 114.8096
L84.5855 114.8096
" />
<path d="M84.5855 114.8096
L84.7284 114.7620
" />
<path d="M84.7284 114.7620
L84.8236 114.6668
" />
<path d="M84.8236 114.6668
L84.8712 114.5716
" />
<path d="M84.8712 114.5716
L84.9189 114.3811
" />
<path d="M84.9189 114.3811
L84.9189 114.2382
" />
<path d="M84.9189 114.2382
L84.8712 114.0477
" />
<path d="M84.8712 114.0477
L84.8236 113.9525
" />
<path d="M84.8236 113.9525
L84.7284 113.8573
" />
<path d="M84.7284 113.8573
L84.5855 113.8096
" />
<path d="M84.5855 113.8096
L84.3474 113.8096
" />
</g><g transform="rotate(-180.000000 101.7522 114.2645)">
<text x="101.7522" y="114.7645"
textLength="2.9643" font-size="1.3333" lengthAdjust="spacingAndGlyphs"
text-anchor="middle" opacity="0">LED</text>
</g>
<g class="stroked-text"><desc>LED</desc>
<path d="M101.1093 113.8096
L100.6332 113.8096
" />
<path d="M100.6332 113.8096
L100.6332 114.8096
" />
<path d="M101.4427 114.3335
L101.7760 114.3335
" />
<path d="M101.9189 113.8096
L101.4427 113.8096
" />
<path d="M101.4427 113.8096
L101.4427 114.8096
" />
<path d="M101.4427 114.8096
L101.9189 114.8096
" />
<path d="M102.3474 113.8096
L102.3474 114.8096
" />
<path d="M102.3474 114.8096
L102.5855 114.8096
" />
<path d="M102.5855 114.8096
L102.7284 114.7620
" />
<path d="M102.7284 114.7620
L102.8236 114.6668
" />
<path d="M102.8236 114.6668
L102.8712 114.5716
" />
<path d="M102.8712 114.5716
L102.9189 114.3811
" />
<path d="M102.9189 114.3811
L102.9189 114.2382
" />
<path d="M102.9189 114.2382
L102.8712 114.0477
" />
<path d="M102.8712 114.0477
L102.8236 113.9525
" />
<path d="M102.8236 113.9525
L102.7284 113.8573
" />
<path d="M102.7284 113.8573
L102.5855 113.8096
" />
<path d="M102.5855 113.8096
L102.3474 113.8096
" />
</g><g transform="rotate(-180.000000 119.7022 114.0145)">
<text x="119.7022" y="114.5145"
textLength="2.9643" font-size="1.3333" lengthAdjust="spacingAndGlyphs"
text-anchor="middle" opacity="0">LED</text>
</g>
<g class="stroked-text"><desc>LED</desc>
<path d="M119.0593 113.5596
L118.5832 113.5596
" />
<path d="M118.5832 113.5596
L118.5832 114.5596
" />
<path d="M119.3927 114.0835
L119.7260 114.0835
" />
<path d="M119.8689 113.5596
L119.3927 113.5596
" />
<path d="M119.3927 113.5596
L119.3927 114.5596
" />
<path d="M119.3927 114.5596
L119.8689 114.5596
" />
<path d="M120.2974 113.5596
L120.2974 114.5596
" />
<path d="M120.2974 114.5596
L120.5355 114.5596
" />
<path d="M120.5355 114.5596
L120.6784 114.5120
" />
<path d="M120.6784 114.5120
L120.7736 114.4168
" />
<path d="M120.7736 114.4168
L120.8212 114.3216
" />
<path d="M120.8212 114.3216
L120.8689 114.1311
" />
<path d="M120.8689 114.1311
L120.8689 113.9882
" />
<path d="M120.8689 113.9882
L120.8212 113.7977
" />
<path d="M120.8212 113.7977
L120.7736 113.7025
" />
<path d="M120.7736 113.7025
L120.6784 113.6073
" />
<path d="M120.6784 113.6073
L120.5355 113.5596
" />
<path d="M120.5355 113.5596
L120.2974 113.5596
" />
</g><g transform="rotate(-180.000000 155.7522 114.2645)">
<text x="155.7522" y="114.7645"
textLength="2.9643" font-size="1.3333" lengthAdjust="spacingAndGlyphs"
text-anchor="middle" opacity="0">LED</text>
</g>
<g class="stroked-text"><desc>LED</desc>
<path d="M155.1093 113.8096
L154.6332 113.8096
" />
<path d="M154.6332 113.8096
L154.6332 114.8096
" />
<path d="M155.4427 114.3335
L155.7760 114.3335
" />
<path d="M155.9189 113.8096
L155.4427 113.8096
" />
<path d="M155.4427 113.8096
L155.4427 114.8096
" />
<path d="M155.4427 114.8096
L155.9189 114.8096
" />
<path d="M156.3474 113.8096
L156.3474 114.8096
" />
<path d="M156.3474 114.8096
L156.5855 114.8096
" />
<path d="M156.5855 114.8096
L156.7284 114.7620
" />
<path d="M156.7284 114.7620
L156.8236 114.6668
" />
<path d="M156.8236 114.6668
L156.8712 114.5716
" />
<path d="M156.8712 114.5716
L156.9189 114.3811
" />
<path d="M156.9189 114.3811
L156.9189 114.2382
" />
<path d="M156.9189 114.2382
L156.8712 114.0477
" />
<path d="M156.8712 114.0477
L156.8236 113.9525
" />
<path d="M156.8236 113.9525
L156.7284 113.8573
" />
<path d="M156.7284 113.8573
L156.5855 113.8096
" />
<path d="M156.5855 113.8096
L156.3474 113.8096
" />
</g><g transform="rotate(-180.000000 173.7522 114.2645)">
<text x="173.7522" y="114.7645"
textLength="2.9643" font-size="1.3333" lengthAdjust="spacingAndGlyphs"
text-anchor="middle" opacity="0">LED</text>
</g>
<g class="stroked-text"><desc>LED</desc>
<path d="M173.1093 113.8096
L172.6332 113.8096
" />
<path d="M172.6332 113.8096
L172.6332 114.8096
" />
<path d="M173.4427 114.3335
L173.7760 114.3335
" />
<path d="M173.9189 113.8096
L173.4427 113.8096
" />
<path d="M173.4427 113.8096
L173.4427 114.8096
" />
<path d="M173.4427 114.8096
L173.9189 114.8096
" />
<path d="M174.3474 113.8096
L174.3474 114.8096
" />
<path d="M174.3474 114.8096
L174.5855 114.8096
" />
<path d="M174.5855 114.8096
L174.7284 114.7620
" />
<path d="M174.7284 114.7620
L174.8236 114.6668
" />
<path d="M174.8236 114.6668
L174.8712 114.5716
" />
<path d="M174.8712 114.5716
L174.9189 114.3811
" />
<path d="M174.9189 114.3811
L174.9189 114.2382
" />
<path d="M174.9189 114.2382
L174.8712 114.0477
" />
<path d="M174.8712 114.0477
L174.8236 113.9525
" />
<path d="M174.8236 113.9525
L174.7284 113.8573
" />
<path d="M174.7284 113.8573
L174.5855 113.8096
" />
<path d="M174.5855 113.8096
L174.3474 113.8096
" />
</g><g transform="rotate(-180.000000 209.7522 80.2645)">
<text x="209.7522" y="80.7645"
textLength="2.9643" font-size="1.3333" lengthAdjust="spacingAndGlyphs"
text-anchor="middle" opacity="0">LED</text>
</g>
<g class="stroked-text"><desc>LED</desc>
<path d="M209.1093 79.8096
L208.6332 79.8096
" />
<path d="M208.6332 79.8096
L208.6332 80.8096
" />
<path d="M209.4427 80.3335
L209.7760 80.3335
" />
<path d="M209.9189 79.8096
L209.4427 79.8096
" />
<path d="M209.4427 79.8096
L209.4427 80.8096
" />
<path d="M209.4427 80.8096
L209.9189 80.8096
" />
<path d="M210.3474 79.8096
L210.3474 80.8096
" />
<path d="M210.3474 80.8096
L210.5855 80.8096
" />
<path d="M210.5855 80.8096
L210.7284 80.7620
" />
<path d="M210.7284 80.7620
L210.8236 80.6668
" />
<path d="M210.8236 80.6668
L210.8712 80.5716
" />
<path d="M210.8712 80.5716
L210.9189 80.3811
" />
<path d="M210.9189 80.3811
L210.9189 80.2382
" />
<path d="M210.9189 80.2382
L210.8712 80.0477
" />
<path d="M210.8712 80.0477
L210.8236 79.9525
" />
<path d="M210.8236 79.9525
L210.7284 79.8573
" />
<path d="M210.7284 79.8573
L210.5855 79.8096
" />
<path d="M210.5855 79.8096
L210.3474 79.8096
" />
</g><g transform="rotate(-180.000000 155.7522 80.2645)">
<text x="155.7522" y="80.7645"
textLength="2.9643" font-size="1.3333" lengthAdjust="spacingAndGlyphs"
text-anchor="middle" opacity="0">LED</text>
</g>
<g class="stroked-text"><desc>LED</desc>
<path d="M155.1093 79.8096
L154.6332 79.8096
" />
<path d="M154.6332 79.8096
L154.6332 80.8096
" />
<path d="M155.4427 80.3335
L155.7760 80.3335
" />
<path d="M155.9189 79.8096
L155.4427 79.8096
" />
<path d="M155.4427 79.8096
L155.4427 80.8096
" />
<path d="M155.4427 80.8096
L155.9189 80.8096
" />
<path d="M156.3474 79.8096
L156.3474 80.8096
" />
<path d="M156.3474 80.8096
L156.5855 80.8096
" />
<path d="M156.5855 80.8096
L156.7284 80.7620
" />
<path d="M156.7284 80.7620
L156.8236 80.6668
" />
<path d="M156.8236 80.6668
L156.8712 80.5716
" />
<path d="M156.8712 80.5716
L156.9189 80.3811
" />
<path d="M156.9189 80.3811
L156.9189 80.2382
" />
<path d="M156.9189 80.2382
L156.8712 80.0477
" />
<path d="M156.8712 80.0477
L156.8236 79.9525
" />
<path d="M156.8236 79.9525
L156.7284 79.8573
" />
<path d="M156.7284 79.8573
L156.5855 79.8096
" />
<path d="M156.5855 79.8096
L156.3474 79.8096
" />
</g><g transform="rotate(-180.000000 191.7522 131.2645)">
<text x="191.7522" y="131.7645"
textLength="2.9643" font-size="1.3333" lengthAdjust="spacingAndGlyphs"
text-anchor="middle" opacity="0">LED</text>
</g>
<g class="stroked-text"><desc>LED</desc>
<path d="M191.1093 130.8096
L190.6332 130.8096
" />
<path d="M190.6332 130.8096
L190.6332 131.8096
" />
<path d="M191.4427 131.3335
L191.7760 131.3335
" />
<path d="M191.9189 130.8096
L191.4427 130.8096
" />
<path d="M191.4427 130.8096
L191.4427 131.8096
" />
<path d="M191.4427 131.8096
L191.9189 131.8096
" />
<path d="M192.3474 130.8096
L192.3474 131.8096
" />
<path d="M192.3474 131.8096
L192.5855 131.8096
" />
<path d="M192.5855 131.8096
L192.7284 131.7620
" />
<path d="M192.7284 131.7620
L192.8236 131.6668
" />
<path d="M192.8236 131.6668
L192.8712 131.5716
" />
<path d="M192.8712 131.5716
L192.9189 131.3811
" />
<path d="M192.9189 131.3811
L192.9189 131.2382
" />
<path d="M192.9189 131.2382
L192.8712 131.0477
" />
<path d="M192.8712 131.0477
L192.8236 130.9525
" />
<path d="M192.8236 130.9525
L192.7284 130.8573
" />
<path d="M192.7284 130.8573
L192.5855 130.8096
" />
<path d="M192.5855 130.8096
L192.3474 130.8096
" />
</g><g transform="rotate(-180.000000 119.7522 131.2645)">
<text x="119.7522" y="131.7645"
textLength="2.9643" font-size="1.3333" lengthAdjust="spacingAndGlyphs"
text-anchor="middle" opacity="0">LED</text>
</g>
<g class="stroked-text"><desc>LED</desc>
<path d="M119.1093 130.8096
L118.6332 130.8096
" />
<path d="M118.6332 130.8096
L118.6332 131.8096
" />
<path d="M119.4427 131.3335
L119.7760 131.3335
" />
<path d="M119.9189 130.8096
L119.4427 130.8096
" />
<path d="M119.4427 130.8096
L119.4427 131.8096
" />
<path d="M119.4427 131.8096
L119.9189 131.8096
" />
<path d="M120.3474 130.8096
L120.3474 131.8096
" />
<path d="M120.3474 131.8096
L120.5855 131.8096
" />
<path d="M120.5855 131.8096
L120.7284 131.7620
" />
<path d="M120.7284 131.7620
L120.8236 131.6668
" />
<path d="M120.8236 131.6668
L120.8712 131.5716
" />
<path d="M120.8712 131.5716
L120.9189 131.3811
" />
<path d="M120.9189 131.3811
L120.9189 131.2382
" />
<path d="M120.9189 131.2382
L120.8712 131.0477
" />
<path d="M120.8712 131.0477
L120.8236 130.9525
" />
<path d="M120.8236 130.9525
L120.7284 130.8573
" />
<path d="M120.7284 130.8573
L120.5855 130.8096
" />
<path d="M120.5855 130.8096
L120.3474 130.8096
" />
</g><g transform="rotate(-180.000000 101.7522 131.2645)">
<text x="101.7522" y="131.7645"
textLength="2.9643" font-size="1.3333" lengthAdjust="spacingAndGlyphs"
text-anchor="middle" opacity="0">LED</text>
</g>
<g class="stroked-text"><desc>LED</desc>
<path d="M101.1093 130.8096
L100.6332 130.8096
" />
<path d="M100.6332 130.8096
L100.6332 131.8096
" />
<path d="M101.4427 131.3335
L101.7760 131.3335
" />
<path d="M101.9189 130.8096
L101.4427 130.8096
" />
<path d="M101.4427 130.8096
L101.4427 131.8096
" />
<path d="M101.4427 131.8096
L101.9189 131.8096
" />
<path d="M102.3474 130.8096
L102.3474 131.8096
" />
<path d="M102.3474 131.8096
L102.5855 131.8096
" />
<path d="M102.5855 131.8096
L102.7284 131.7620
" />
<path d="M102.7284 131.7620
L102.8236 131.6668
" />
<path d="M102.8236 131.6668
L102.8712 131.5716
" />
<path d="M102.8712 131.5716
L102.9189 131.3811
" />
<path d="M102.9189 131.3811
L102.9189 131.2382
" />
<path d="M102.9189 131.2382
L102.8712 131.0477
" />
<path d="M102.8712 131.0477
L102.8236 130.9525
" />
<path d="M102.8236 130.9525
L102.7284 130.8573
" />
<path d="M102.7284 130.8573
L102.5855 130.8096
" />
<path d="M102.5855 130.8096
L102.3474 130.8096
" />
</g><g transform="rotate(-180.000000 137.7522 131.2645)">
<text x="137.7522" y="131.7645"
textLength="2.9643" font-size="1.3333" lengthAdjust="spacingAndGlyphs"
text-anchor="middle" opacity="0">LED</text>
</g>
<g class="stroked-text"><desc>LED</desc>
<path d="M137.1093 130.8096
L136.6332 130.8096
" />
<path d="M136.6332 130.8096
L136.6332 131.8096
" />
<path d="M137.4427 131.3335
L137.7760 131.3335
" />
<path d="M137.9189 130.8096
L137.4427 130.8096
" />
<path d="M137.4427 130.8096
L137.4427 131.8096
" />
<path d="M137.4427 131.8096
L137.9189 131.8096
" />
<path d="M138.3474 130.8096
L138.3474 131.8096
" />
<path d="M138.3474 131.8096
L138.5855 131.8096
" />
<path d="M138.5855 131.8096
L138.7284 131.7620
" />
<path d="M138.7284 131.7620
L138.8236 131.6668
" />
<path d="M138.8236 131.6668
L138.8712 131.5716
" />
<path d="M138.8712 131.5716
L138.9189 131.3811
" />
<path d="M138.9189 131.3811
L138.9189 131.2382
" />
<path d="M138.9189 131.2382
L138.8712 131.0477
" />
<path d="M138.8712 131.0477
L138.8236 130.9525
" />
<path d="M138.8236 130.9525
L138.7284 130.8573
" />
<path d="M138.7284 130.8573
L138.5855 130.8096
" />
<path d="M138.5855 130.8096
L138.3474 130.8096
" />
</g><g transform="rotate(-180.000000 209.7522 131.2645)">
<text x="209.7522" y="131.7645"
textLength="2.9643" font-size="1.3333" lengthAdjust="spacingAndGlyphs"
text-anchor="middle" opacity="0">LED</text>
</g>
<g class="stroked-text"><desc>LED</desc>
<path d="M209.1093 130.8096
L208.6332 130.8096
" />
<path d="M208.6332 130.8096
L208.6332 131.8096
" />
<path d="M209.4427 131.3335
L209.7760 131.3335
" />
<path d="M209.9189 130.8096
L209.4427 130.8096
" />
<path d="M209.4427 130.8096
L209.4427 131.8096
" />
<path d="M209.4427 131.8096
L209.9189 131.8096
" />
<path d="M210.3474 130.8096
L210.3474 131.8096
" />
<path d="M210.3474 131.8096
L210.5855 131.8096
" />
<path d="M210.5855 131.8096
L210.7284 131.7620
" />
<path d="M210.7284 131.7620
L210.8236 131.6668
" />
<path d="M210.8236 131.6668
L210.8712 131.5716
" />
<path d="M210.8712 131.5716
L210.9189 131.3811
" />
<path d="M210.9189 131.3811
L210.9189 131.2382
" />
<path d="M210.9189 131.2382
L210.8712 131.0477
" />
<path d="M210.8712 131.0477
L210.8236 130.9525
" />
<path d="M210.8236 130.9525
L210.7284 130.8573
" />
<path d="M210.7284 130.8573
L210.5855 130.8096
" />
<path d="M210.5855 130.8096
L210.3474 130.8096
" />
</g><g transform="rotate(-180.000000 227.7522 63.2645)">
<text x="227.7522" y="63.7645"
textLength="2.9643" font-size="1.3333" lengthAdjust="spacingAndGlyphs"
text-anchor="middle" opacity="0">LED</text>
</g>
<g class="stroked-text"><desc>LED</desc>
<path d="M227.1093 62.8096
L226.6332 62.8096
" />
<path d="M226.6332 62.8096
L226.6332 63.8096
" />
<path d="M227.4427 63.3335
L227.7760 63.3335
" />
<path d="M227.9189 62.8096
L227.4427 62.8096
" />
<path d="M227.4427 62.8096
L227.4427 63.8096
" />
<path d="M227.4427 63.8096
L227.9189 63.8096
" />
<path d="M228.3474 62.8096
L228.3474 63.8096
" />
<path d="M228.3474 63.8096
L228.5855 63.8096
" />
<path d="M228.5855 63.8096
L228.7284 63.7620
" />
<path d="M228.7284 63.7620
L228.8236 63.6668
" />
<path d="M228.8236 63.6668
L228.8712 63.5716
" />
<path d="M228.8712 63.5716
L228.9189 63.3811
" />
<path d="M228.9189 63.3811
L228.9189 63.2382
" />
<path d="M228.9189 63.2382
L228.8712 63.0477
" />
<path d="M228.8712 63.0477
L228.8236 62.9525
" />
<path d="M228.8236 62.9525
L228.7284 62.8573
" />
<path d="M228.7284 62.8573
L228.5855 62.8096
" />
<path d="M228.5855 62.8096
L228.3474 62.8096
" />
</g><g transform="rotate(-180.000000 245.7522 63.2645)">
<text x="245.7522" y="63.7645"
textLength="2.9643" font-size="1.3333" lengthAdjust="spacingAndGlyphs"
text-anchor="middle" opacity="0">LED</text>
</g>
<g class="stroked-text"><desc>LED</desc>
<path d="M245.1093 62.8096
L244.6332 62.8096
" />
<path d="M244.6332 62.8096
L244.6332 63.8096
" />
<path d="M245.4427 63.3335
L245.7760 63.3335
" />
<path d="M245.9189 62.8096
L245.4427 62.8096
" />
<path d="M245.4427 62.8096
L245.4427 63.8096
" />
<path d="M245.4427 63.8096
L245.9189 63.8096
" />
<path d="M246.3474 62.8096
L246.3474 63.8096
" />
<path d="M246.3474 63.8096
L246.5855 63.8096
" />
<path d="M246.5855 63.8096
L246.7284 63.7620
" />
<path d="M246.7284 63.7620
L246.8236 63.6668
" />
<path d="M246.8236 63.6668
L246.8712 63.5716
" />
<path d="M246.8712 63.5716
L246.9189 63.3811
" />
<path d="M246.9189 63.3811
L246.9189 63.2382
" />
<path d="M246.9189 63.2382
L246.8712 63.0477
" />
<path d="M246.8712 63.0477
L246.8236 62.9525
" />
<path d="M246.8236 62.9525
L246.7284 62.8573
" />
<path d="M246.7284 62.8573
L246.5855 62.8096
" />
<path d="M246.5855 62.8096
L246.3474 62.8096
" />
</g><g transform="rotate(-180.000000 245.7522 131.2645)">
<text x="245.7522" y="131.7645"
textLength="2.9643" font-size="1.3333" lengthAdjust="spacingAndGlyphs"
text-anchor="middle" opacity="0">LED</text>
</g>
<g class="stroked-text"><desc>LED</desc>
<path d="M245.1093 130.8096
L244.6332 130.8096
" />
<path d="M244.6332 130.8096
L244.6332 131.8096
" />
<path d="M245.4427 131.3335
L245.7760 131.3335
" />
<path d="M245.9189 130.8096
L245.4427 130.8096
" />
<path d="M245.4427 130.8096
L245.4427 131.8096
" />
<path d="M245.4427 131.8096
L245.9189 131.8096
" />
<path d="M246.3474 130.8096
L246.3474 131.8096
" />
<path d="M246.3474 131.8096
L246.5855 131.8096
" />
<path d="M246.5855 131.8096
L246.7284 131.7620
" />
<path d="M246.7284 131.7620
L246.8236 131.6668
" />
<path d="M246.8236 131.6668
L246.8712 131.5716
" />
<path d="M246.8712 131.5716
L246.9189 131.3811
" />
<path d="M246.9189 131.3811
L246.9189 131.2382
" />
<path d="M246.9189 131.2382
L246.8712 131.0477
" />
<path d="M246.8712 131.0477
L246.8236 130.9525
" />
<path d="M246.8236 130.9525
L246.7284 130.8573
" />
<path d="M246.7284 130.8573
L246.5855 130.8096
" />
<path d="M246.5855 130.8096
L246.3474 130.8096
" />
</g><g transform="rotate(-180.000000 227.7522 131.2645)">
<text x="227.7522" y="131.7645"
textLength="2.9643" font-size="1.3333" lengthAdjust="spacingAndGlyphs"
text-anchor="middle" opacity="0">LED</text>
</g>
<g class="stroked-text"><desc>LED</desc>
<path d="M227.1093 130.8096
L226.6332 130.8096
" />
<path d="M226.6332 130.8096
L226.6332 131.8096
" />
<path d="M227.4427 131.3335
L227.7760 131.3335
" />
<path d="M227.9189 130.8096
L227.4427 130.8096
" />
<path d="M227.4427 130.8096
L227.4427 131.8096
" />
<path d="M227.4427 131.8096
L227.9189 131.8096
" />
<path d="M228.3474 130.8096
L228.3474 131.8096
" />
<path d="M228.3474 131.8096
L228.5855 131.8096
" />
<path d="M228.5855 131.8096
L228.7284 131.7620
" />
<path d="M228.7284 131.7620
L228.8236 131.6668
" />
<path d="M228.8236 131.6668
L228.8712 131.5716
" />
<path d="M228.8712 131.5716
L228.9189 131.3811
" />
<path d="M228.9189 131.3811
L228.9189 131.2382
" />
<path d="M228.9189 131.2382
L228.8712 131.0477
" />
<path d="M228.8712 131.0477
L228.8236 130.9525
" />
<path d="M228.8236 130.9525
L228.7284 130.8573
" />
<path d="M228.7284 130.8573
L228.5855 130.8096
" />
<path d="M228.5855 130.8096
L228.3474 130.8096
" />
</g><g transform="rotate(-180.000000 83.7522 63.2645)">
<text x="83.7522" y="63.7645"
textLength="2.9643" font-size="1.3333" lengthAdjust="spacingAndGlyphs"
text-anchor="middle" opacity="0">LED</text>
</g>
<g class="stroked-text"><desc>LED</desc>
<path d="M83.1093 62.8096
L82.6332 62.8096
" />
<path d="M82.6332 62.8096
L82.6332 63.8096
" />
<path d="M83.4427 63.3335
L83.7760 63.3335
" />
<path d="M83.9189 62.8096
L83.4427 62.8096
" />
<path d="M83.4427 62.8096
L83.4427 63.8096
" />
<path d="M83.4427 63.8096
L83.9189 63.8096
" />
<path d="M84.3474 62.8096
L84.3474 63.8096
" />
<path d="M84.3474 63.8096
L84.5855 63.8096
" />
<path d="M84.5855 63.8096
L84.7284 63.7620
" />
<path d="M84.7284 63.7620
L84.8236 63.6668
" />
<path d="M84.8236 63.6668
L84.8712 63.5716
" />
<path d="M84.8712 63.5716
L84.9189 63.3811
" />
<path d="M84.9189 63.3811
L84.9189 63.2382
" />
<path d="M84.9189 63.2382
L84.8712 63.0477
" />
<path d="M84.8712 63.0477
L84.8236 62.9525
" />
<path d="M84.8236 62.9525
L84.7284 62.8573
" />
<path d="M84.7284 62.8573
L84.5855 62.8096
" />
<path d="M84.5855 62.8096
L84.3474 62.8096
" />
</g><g transform="rotate(-180.000000 83.7522 131.2645)">
<text x="83.7522" y="131.7645"
textLength="2.9643" font-size="1.3333" lengthAdjust="spacingAndGlyphs"
text-anchor="middle" opacity="0">LED</text>
</g>
<g class="stroked-text"><desc>LED</desc>
<path d="M83.1093 130.8096
L82.6332 130.8096
" />
<path d="M82.6332 130.8096
L82.6332 131.8096
" />
<path d="M83.4427 131.3335
L83.7760 131.3335
" />
<path d="M83.9189 130.8096
L83.4427 130.8096
" />
<path d="M83.4427 130.8096
L83.4427 131.8096
" />
<path d="M83.4427 131.8096
L83.9189 131.8096
" />
<path d="M84.3474 130.8096
L84.3474 131.8096
" />
<path d="M84.3474 131.8096
L84.5855 131.8096
" />
<path d="M84.5855 131.8096
L84.7284 131.7620
" />
<path d="M84.7284 131.7620
L84.8236 131.6668
" />
<path d="M84.8236 131.6668
L84.8712 131.5716
" />
<path d="M84.8712 131.5716
L84.9189 131.3811
" />
<path d="M84.9189 131.3811
L84.9189 131.2382
" />
<path d="M84.9189 131.2382
L84.8712 131.0477
" />
<path d="M84.8712 131.0477
L84.8236 130.9525
" />
<path d="M84.8236 130.9525
L84.7284 130.8573
" />
<path d="M84.7284 130.8573
L84.5855 130.8096
" />
<path d="M84.5855 130.8096
L84.3474 130.8096
" />
</g><g transform="rotate(-180.000000 47.7522 63.2645)">
<text x="47.7522" y="63.7645"
textLength="2.9643" font-size="1.3333" lengthAdjust="spacingAndGlyphs"
text-anchor="middle" opacity="0">LED</text>
</g>
<g class="stroked-text"><desc>LED</desc>
<path d="M47.1093 62.8096
L46.6332 62.8096
" />
<path d="M46.6332 62.8096
L46.6332 63.8096
" />
<path d="M47.4427 63.3335
L47.7760 63.3335
" />
<path d="M47.9189 62.8096
L47.4427 62.8096
" />
<path d="M47.4427 62.8096
L47.4427 63.8096
" />
<path d="M47.4427 63.8096
L47.9189 63.8096
" />
<path d="M48.3474 62.8096
L48.3474 63.8096
" />
<path d="M48.3474 63.8096
L48.5855 63.8096
" />
<path d="M48.5855 63.8096
L48.7284 63.7620
" />
<path d="M48.7284 63.7620
L48.8236 63.6668
" />
<path d="M48.8236 63.6668
L48.8712 63.5716
" />
<path d="M48.8712 63.5716
L48.9189 63.3811
" />
<path d="M48.9189 63.3811
L48.9189 63.2382
" />
<path d="M48.9189 63.2382
L48.8712 63.0477
" />
<path d="M48.8712 63.0477
L48.8236 62.9525
" />
<path d="M48.8236 62.9525
L48.7284 62.8573
" />
<path d="M48.7284 62.8573
L48.5855 62.8096
" />
<path d="M48.5855 62.8096
L48.3474 62.8096
" />
</g><g transform="rotate(-180.000000 191.7522 63.2645)">
<text x="191.7522" y="63.7645"
textLength="2.9643" font-size="1.3333" lengthAdjust="spacingAndGlyphs"
text-anchor="middle" opacity="0">LED</text>
</g>
<g class="stroked-text"><desc>LED</desc>
<path d="M191.1093 62.8096
L190.6332 62.8096
" />
<path d="M190.6332 62.8096
L190.6332 63.8096
" />
<path d="M191.4427 63.3335
L191.7760 63.3335
" />
<path d="M191.9189 62.8096
L191.4427 62.8096
" />
<path d="M191.4427 62.8096
L191.4427 63.8096
" />
<path d="M191.4427 63.8096
L191.9189 63.8096
" />
<path d="M192.3474 62.8096
L192.3474 63.8096
" />
<path d="M192.3474 63.8096
L192.5855 63.8096
" />
<path d="M192.5855 63.8096
L192.7284 63.7620
" />
<path d="M192.7284 63.7620
L192.8236 63.6668
" />
<path d="M192.8236 63.6668
L192.8712 63.5716
" />
<path d="M192.8712 63.5716
L192.9189 63.3811
" />
<path d="M192.9189 63.3811
L192.9189 63.2382
" />
<path d="M192.9189 63.2382
L192.8712 63.0477
" />
<path d="M192.8712 63.0477
L192.8236 62.9525
" />
<path d="M192.8236 62.9525
L192.7284 62.8573
" />
<path d="M192.7284 62.8573
L192.5855 62.8096
" />
<path d="M192.5855 62.8096
L192.3474 62.8096
" />
</g><g transform="rotate(-180.000000 155.7522 63.2645)">
<text x="155.7522" y="63.7645"
textLength="2.9643" font-size="1.3333" lengthAdjust="spacingAndGlyphs"
text-anchor="middle" opacity="0">LED</text>
</g>
<g class="stroked-text"><desc>LED</desc>
<path d="M155.1093 62.8096
L154.6332 62.8096
" />
<path d="M154.6332 62.8096
L154.6332 63.8096
" />
<path d="M155.4427 63.3335
L155.7760 63.3335
" />
<path d="M155.9189 62.8096
L155.4427 62.8096
" />
<path d="M155.4427 62.8096
L155.4427 63.8096
" />
<path d="M155.4427 63.8096
L155.9189 63.8096
" />
<path d="M156.3474 62.8096
L156.3474 63.8096
" />
<path d="M156.3474 63.8096
L156.5855 63.8096
" />
<path d="M156.5855 63.8096
L156.7284 63.7620
" />
<path d="M156.7284 63.7620
L156.8236 63.6668
" />
<path d="M156.8236 63.6668
L156.8712 63.5716
" />
<path d="M156.8712 63.5716
L156.9189 63.3811
" />
<path d="M156.9189 63.3811
L156.9189 63.2382
" />
<path d="M156.9189 63.2382
L156.8712 63.0477
" />
<path d="M156.8712 63.0477
L156.8236 62.9525
" />
<path d="M156.8236 62.9525
L156.7284 62.8573
" />
<path d="M156.7284 62.8573
L156.5855 62.8096
" />
<path d="M156.5855 62.8096
L156.3474 62.8096
" />
</g><g transform="rotate(-180.000000 119.7522 63.2645)">
<text x="119.7522" y="63.7645"
textLength="2.9643" font-size="1.3333" lengthAdjust="spacingAndGlyphs"
text-anchor="middle" opacity="0">LED</text>
</g>
<g class="stroked-text"><desc>LED</desc>
<path d="M119.1093 62.8096
L118.6332 62.8096
" />
<path d="M118.6332 62.8096
L118.6332 63.8096
" />
<path d="M119.4427 63.3335
L119.7760 63.3335
" />
<path d="M119.9189 62.8096
L119.4427 62.8096
" />
<path d="M119.4427 62.8096
L119.4427 63.8096
" />
<path d="M119.4427 63.8096
L119.9189 63.8096
" />
<path d="M120.3474 62.8096
L120.3474 63.8096
" />
<path d="M120.3474 63.8096
L120.5855 63.8096
" />
<path d="M120.5855 63.8096
L120.7284 63.7620
" />
<path d="M120.7284 63.7620
L120.8236 63.6668
" />
<path d="M120.8236 63.6668
L120.8712 63.5716
" />
<path d="M120.8712 63.5716
L120.9189 63.3811
" />
<path d="M120.9189 63.3811
L120.9189 63.2382
" />
<path d="M120.9189 63.2382
L120.8712 63.0477
" />
<path d="M120.8712 63.0477
L120.8236 62.9525
" />
<path d="M120.8236 62.9525
L120.7284 62.8573
" />
<path d="M120.7284 62.8573
L120.5855 62.8096
" />
<path d="M120.5855 62.8096
L120.3474 62.8096
" />
</g><g transform="rotate(-180.000000 65.7522 63.2645)">
<text x="65.7522" y="63.7645"
textLength="2.9643" font-size="1.3333" lengthAdjust="spacingAndGlyphs"
text-anchor="middle" opacity="0">LED</text>
</g>
<g class="stroked-text"><desc>LED</desc>
<path d="M65.1093 62.8096
L64.6332 62.8096
" />
<path d="M64.6332 62.8096
L64.6332 63.8096
" />
<path d="M65.4427 63.3335
L65.7760 63.3335
" />
<path d="M65.9189 62.8096
L65.4427 62.8096
" />
<path d="M65.4427 62.8096
L65.4427 63.8096
" />
<path d="M65.4427 63.8096
L65.9189 63.8096
" />
<path d="M66.3474 62.8096
L66.3474 63.8096
" />
<path d="M66.3474 63.8096
L66.5855 63.8096
" />
<path d="M66.5855 63.8096
L66.7284 63.7620
" />
<path d="M66.7284 63.7620
L66.8236 63.6668
" />
<path d="M66.8236 63.6668
L66.8712 63.5716
" />
<path d="M66.8712 63.5716
L66.9189 63.3811
" />
<path d="M66.9189 63.3811
L66.9189 63.2382
" />
<path d="M66.9189 63.2382
L66.8712 63.0477
" />
<path d="M66.8712 63.0477
L66.8236 62.9525
" />
<path d="M66.8236 62.9525
L66.7284 62.8573
" />
<path d="M66.7284 62.8573
L66.5855 62.8096
" />
<path d="M66.5855 62.8096
L66.3474 62.8096
" />
</g><g transform="rotate(-180.000000 101.7522 63.2645)">
<text x="101.7522" y="63.7645"
textLength="2.9643" font-size="1.3333" lengthAdjust="spacingAndGlyphs"
text-anchor="middle" opacity="0">LED</text>
</g>
<g class="stroked-text"><desc>LED</desc>
<path d="M101.1093 62.8096
L100.6332 62.8096
" />
<path d="M100.6332 62.8096
L100.6332 63.8096
" />
<path d="M101.4427 63.3335
L101.7760 63.3335
" />
<path d="M101.9189 62.8096
L101.4427 62.8096
" />
<path d="M101.4427 62.8096
L101.4427 63.8096
" />
<path d="M101.4427 63.8096
L101.9189 63.8096
" />
<path d="M102.3474 62.8096
L102.3474 63.8096
" />
<path d="M102.3474 63.8096
L102.5855 63.8096
" />
<path d="M102.5855 63.8096
L102.7284 63.7620
" />
<path d="M102.7284 63.7620
L102.8236 63.6668
" />
<path d="M102.8236 63.6668
L102.8712 63.5716
" />
<path d="M102.8712 63.5716
L102.9189 63.3811
" />
<path d="M102.9189 63.3811
L102.9189 63.2382
" />
<path d="M102.9189 63.2382
L102.8712 63.0477
" />
<path d="M102.8712 63.0477
L102.8236 62.9525
" />
<path d="M102.8236 62.9525
L102.7284 62.8573
" />
<path d="M102.7284 62.8573
L102.5855 62.8096
" />
<path d="M102.5855 62.8096
L102.3474 62.8096
" />
</g><g transform="rotate(-180.000000 209.7522 63.2645)">
<text x="209.7522" y="63.7645"
textLength="2.9643" font-size="1.3333" lengthAdjust="spacingAndGlyphs"
text-anchor="middle" opacity="0">LED</text>
</g>
<g class="stroked-text"><desc>LED</desc>
<path d="M209.1093 62.8096
L208.6332 62.8096
" />
<path d="M208.6332 62.8096
L208.6332 63.8096
" />
<path d="M209.4427 63.3335
L209.7760 63.3335
" />
<path d="M209.9189 62.8096
L209.4427 62.8096
" />
<path d="M209.4427 62.8096
L209.4427 63.8096
" />
<path d="M209.4427 63.8096
L209.9189 63.8096
" />
<path d="M210.3474 62.8096
L210.3474 63.8096
" />
<path d="M210.3474 63.8096
L210.5855 63.8096
" />
<path d="M210.5855 63.8096
L210.7284 63.7620
" />
<path d="M210.7284 63.7620
L210.8236 63.6668
" />
<path d="M210.8236 63.6668
L210.8712 63.5716
" />
<path d="M210.8712 63.5716
L210.9189 63.3811
" />
<path d="M210.9189 63.3811
L210.9189 63.2382
" />
<path d="M210.9189 63.2382
L210.8712 63.0477
" />
<path d="M210.8712 63.0477
L210.8236 62.9525
" />
<path d="M210.8236 62.9525
L210.7284 62.8573
" />
<path d="M210.7284 62.8573
L210.5855 62.8096
" />
<path d="M210.5855 62.8096
L210.3474 62.8096
" />
</g><g transform="rotate(-180.000000 173.7522 63.2645)">
<text x="173.7522" y="63.7645"
textLength="2.9643" font-size="1.3333" lengthAdjust="spacingAndGlyphs"
text-anchor="middle" opacity="0">LED</text>
</g>
<g class="stroked-text"><desc>LED</desc>
<path d="M173.1093 62.8096
L172.6332 62.8096
" />
<path d="M172.6332 62.8096
L172.6332 63.8096
" />
<path d="M173.4427 63.3335
L173.7760 63.3335
" />
<path d="M173.9189 62.8096
L173.4427 62.8096
" />
<path d="M173.4427 62.8096
L173.4427 63.8096
" />
<path d="M173.4427 63.8096
L173.9189 63.8096
" />
<path d="M174.3474 62.8096
L174.3474 63.8096
" />
<path d="M174.3474 63.8096
L174.5855 63.8096
" />
<path d="M174.5855 63.8096
L174.7284 63.7620
" />
<path d="M174.7284 63.7620
L174.8236 63.6668
" />
<path d="M174.8236 63.6668
L174.8712 63.5716
" />
<path d="M174.8712 63.5716
L174.9189 63.3811
" />
<path d="M174.9189 63.3811
L174.9189 63.2382
" />
<path d="M174.9189 63.2382
L174.8712 63.0477
" />
<path d="M174.8712 63.0477
L174.8236 62.9525
" />
<path d="M174.8236 62.9525
L174.7284 62.8573
" />
<path d="M174.7284 62.8573
L174.5855 62.8096
" />
<path d="M174.5855 62.8096
L174.3474 62.8096
" />
</g><g transform="rotate(-180.000000 47.7522 131.2645)">
<text x="47.7522" y="131.7645"
textLength="2.9643" font-size="1.3333" lengthAdjust="spacingAndGlyphs"
text-anchor="middle" opacity="0">LED</text>
</g>
<g class="stroked-text"><desc>LED</desc>
<path d="M47.1093 130.8096
L46.6332 130.8096
" />
<path d="M46.6332 130.8096
L46.6332 131.8096
" />
<path d="M47.4427 131.3335
L47.7760 131.3335
" />
<path d="M47.9189 130.8096
L47.4427 130.8096
" />
<path d="M47.4427 130.8096
L47.4427 131.8096
" />
<path d="M47.4427 131.8096
L47.9189 131.8096
" />
<path d="M48.3474 130.8096
L48.3474 131.8096
" />
<path d="M48.3474 131.8096
L48.5855 131.8096
" />
<path d="M48.5855 131.8096
L48.7284 131.7620
" />
<path d="M48.7284 131.7620
L48.8236 131.6668
" />
<path d="M48.8236 131.6668
L48.8712 131.5716
" />
<path d="M48.8712 131.5716
L48.9189 131.3811
" />
<path d="M48.9189 131.3811
L48.9189 131.2382
" />
<path d="M48.9189 131.2382
L48.8712 131.0477
" />
<path d="M48.8712 131.0477
L48.8236 130.9525
" />
<path d="M48.8236 130.9525
L48.7284 130.8573
" />
<path d="M48.7284 130.8573
L48.5855 130.8096
" />
<path d="M48.5855 130.8096
L48.3474 130.8096
" />
</g><g transform="rotate(-180.000000 155.7522 131.2645)">
<text x="155.7522" y="131.7645"
textLength="2.9643" font-size="1.3333" lengthAdjust="spacingAndGlyphs"
text-anchor="middle" opacity="0">LED</text>
</g>
<g class="stroked-text"><desc>LED</desc>
<path d="M155.1093 130.8096
L154.6332 130.8096
" />
<path d="M154.6332 130.8096
L154.6332 131.8096
" />
<path d="M155.4427 131.3335
L155.7760 131.3335
" />
<path d="M155.9189 130.8096
L155.4427 130.8096
" />
<path d="M155.4427 130.8096
L155.4427 131.8096
" />
<path d="M155.4427 131.8096
L155.9189 131.8096
" />
<path d="M156.3474 130.8096
L156.3474 131.8096
" />
<path d="M156.3474 131.8096
L156.5855 131.8096
" />
<path d="M156.5855 131.8096
L156.7284 131.7620
" />
<path d="M156.7284 131.7620
L156.8236 131.6668
" />
<path d="M156.8236 131.6668
L156.8712 131.5716
" />
<path d="M156.8712 131.5716
L156.9189 131.3811
" />
<path d="M156.9189 131.3811
L156.9189 131.2382
" />
<path d="M156.9189 131.2382
L156.8712 131.0477
" />
<path d="M156.8712 131.0477
L156.8236 130.9525
" />
<path d="M156.8236 130.9525
L156.7284 130.8573
" />
<path d="M156.7284 130.8573
L156.5855 130.8096
" />
<path d="M156.5855 130.8096
L156.3474 130.8096
" />
</g><g transform="rotate(-180.000000 137.7522 63.2645)">
<text x="137.7522" y="63.7645"
textLength="2.9643" font-size="1.3333" lengthAdjust="spacingAndGlyphs"
text-anchor="middle" opacity="0">LED</text>
</g>
<g class="stroked-text"><desc>LED</desc>
<path d="M137.1093 62.8096
L136.6332 62.8096
" />
<path d="M136.6332 62.8096
L136.6332 63.8096
" />
<path d="M137.4427 63.3335
L137.7760 63.3335
" />
<path d="M137.9189 62.8096
L137.4427 62.8096
" />
<path d="M137.4427 62.8096
L137.4427 63.8096
" />
<path d="M137.4427 63.8096
L137.9189 63.8096
" />
<path d="M138.3474 62.8096
L138.3474 63.8096
" />
<path d="M138.3474 63.8096
L138.5855 63.8096
" />
<path d="M138.5855 63.8096
L138.7284 63.7620
" />
<path d="M138.7284 63.7620
L138.8236 63.6668
" />
<path d="M138.8236 63.6668
L138.8712 63.5716
" />
<path d="M138.8712 63.5716
L138.9189 63.3811
" />
<path d="M138.9189 63.3811
L138.9189 63.2382
" />
<path d="M138.9189 63.2382
L138.8712 63.0477
" />
<path d="M138.8712 63.0477
L138.8236 62.9525
" />
<path d="M138.8236 62.9525
L138.7284 62.8573
" />
<path d="M138.7284 62.8573
L138.5855 62.8096
" />
<path d="M138.5855 62.8096
L138.3474 62.8096
" />
</g><g transform="rotate(-180.000000 65.7522 131.2645)">
<text x="65.7522" y="131.7645"
textLength="2.9643" font-size="1.3333" lengthAdjust="spacingAndGlyphs"
text-anchor="middle" opacity="0">LED</text>
</g>
<g class="stroked-text"><desc>LED</desc>
<path d="M65.1093 130.8096
L64.6332 130.8096
" />
<path d="M64.6332 130.8096
L64.6332 131.8096
" />
<path d="M65.4427 131.3335
L65.7760 131.3335
" />
<path d="M65.9189 130.8096
L65.4427 130.8096
" />
<path d="M65.4427 130.8096
L65.4427 131.8096
" />
<path d="M65.4427 131.8096
L65.9189 131.8096
" />
<path d="M66.3474 130.8096
L66.3474 131.8096
" />
<path d="M66.3474 131.8096
L66.5855 131.8096
" />
<path d="M66.5855 131.8096
L66.7284 131.7620
" />
<path d="M66.7284 131.7620
L66.8236 131.6668
" />
<path d="M66.8236 131.6668
L66.8712 131.5716
" />
<path d="M66.8712 131.5716
L66.9189 131.3811
" />
<path d="M66.9189 131.3811
L66.9189 131.2382
" />
<path d="M66.9189 131.2382
L66.8712 131.0477
" />
<path d="M66.8712 131.0477
L66.8236 130.9525
" />
<path d="M66.8236 130.9525
L66.7284 130.8573
" />
<path d="M66.7284 130.8573
L66.5855 130.8096
" />
<path d="M66.5855 130.8096
L66.3474 130.8096
" />
</g><circle cx="56.7522" cy="118.0645" r="3.5000" /> 
<circle cx="182.7522" cy="66.8145" r="3.5000" /> 
<circle cx="56.7522" cy="67.5645" r="3.5000" /> 
<circle cx="128.5022" cy="66.8145" r="3.5000" /> 
<circle cx="236.5022" cy="66.8145" r="3.5000" /> 
<circle cx="128.7522" cy="118.0645" r="3.5000" /> 
<circle cx="182.7522" cy="118.0645" r="3.5000" /> 
</g>
<g style="fill:#000000; fill-opacity:0.0; 
stroke:#000000; stroke-width:0.2000; stroke-opacity:1; 
stroke-linecap:round; stroke-linejoin:round;">
<path d="M113.9922 29.7900
L134.8997 29.7900
" />
<path d="M134.8997 29.7900
L134.8997 47.5700
" />
<path d="M134.8997 47.5700
L113.9922 47.5700
" />
<path d="M113.9922 47.5700
L113.9922 29.7900
" />
</g>
<g style="fill:#000000; fill-opacity:0.0; 
stroke:#000000; stroke-width:0.1000; stroke-opacity:1; 
stroke-linecap:round; stroke-linejoin:round;">
<path d="M112.4359 34.1791
L119.7867 34.1791
" />
<path d="M119.7867 34.1791
L119.7867 43.1809
" />
<path d="M119.7867 43.1809
L112.4359 43.1809
" />
<path d="M112.4359 43.1809
L112.4359 34.1791
" />
</g>
<g style="fill:#000000; fill-opacity:0.0; 
stroke:#000000; stroke-width:0.1500; stroke-opacity:1; 
stroke-linecap:round; stroke-linejoin:round;">
<circle cx="236.7522" cy="118.3145" r="3.5000" /> 
</g>
<g style="fill:#000000; fill-opacity:0.0; 
stroke:#000000; stroke-width:0.1000; stroke-opacity:1; 
stroke-linecap:round; stroke-linejoin:round;">
<path d="M194.2522 115.8395
L189.2522 115.8395
" />
<path d="M189.2522 115.8395
L189.2522 112.6895
" />
<path d="M189.2522 112.6895
L194.2522 112.6895
" />
<path d="M194.2522 112.6895
L194.2522 115.8395
" />
<path d="M212.2522 115.8395
L207.2522 115.8395
" />
<path d="M207.2522 115.8395
L207.2522 112.6895
" />
<path d="M207.2522 112.6895
L212.2522 112.6895
" />
<path d="M212.2522 112.6895
L212.2522 115.8395
" />
<path d="M230.2522 115.8395
L225.2522 115.8395
" />
<path d="M225.2522 115.8395
L225.2522 112.6895
" />
<path d="M225.2522 112.6895
L230.2522 112.6895
" />
<path d="M230.2522 112.6895
L230.2522 115.8395
" />
<path d="M248.2522 115.8395
L243.2522 115.8395
" />
<path d="M243.2522 115.8395
L243.2522 112.6895
" />
<path d="M243.2522 112.6895
L248.2522 112.6895
" />
<path d="M248.2522 112.6895
L248.2522 115.8395
" />
<path d="M50.2522 98.8395
L45.2522 98.8395
" />
<path d="M45.2522 98.8395
L45.2522 95.6895
" />
<path d="M45.2522 95.6895
L50.2522 95.6895
" />
<path d="M50.2522 95.6895
L50.2522 98.8395
" />
<path d="M68.2522 98.8395
L63.2522 98.8395
" />
<path d="M63.2522 98.8395
L63.2522 95.6895
" />
<path d="M63.2522 95.6895
L68.2522 95.6895
" />
<path d="M68.2522 95.6895
L68.2522 98.8395
" />
<path d="M86.2522 98.8395
L81.2522 98.8395
" />
<path d="M81.2522 98.8395
L81.2522 95.6895
" />
<path d="M81.2522 95.6895
L86.2522 95.6895
" />
<path d="M86.2522 95.6895
L86.2522 98.8395
" />
<path d="M122.2522 98.8395
L117.2522 98.8395
" />
<path d="M117.2522 98.8395
L117.2522 95.6895
" />
<path d="M117.2522 95.6895
L122.2522 95.6895
" />
<path d="M122.2522 95.6895
L122.2522 98.8395
" />
<path d="M140.2522 98.8395
L135.2522 98.8395
" />
<path d="M135.2522 98.8395
L135.2522 95.6895
" />
<path d="M135.2522 95.6895
L140.2522 95.6895
" />
<path d="M140.2522 95.6895
L140.2522 98.8395
" />
<path d="M158.2522 98.8395
L153.2522 98.8395
" />
<path d="M153.2522 98.8395
L153.2522 95.6895
" />
<path d="M153.2522 95.6895
L158.2522 95.6895
" />
<path d="M158.2522 95.6895
L158.2522 98.8395
" />
<path d="M140.2522 81.8395
L135.2522 81.8395
" />
<path d="M135.2522 81.8395
L135.2522 78.6895
" />
<path d="M135.2522 78.6895
L140.2522 78.6895
" />
<path d="M140.2522 78.6895
L140.2522 81.8395
" />
<path d="M104.2522 98.8395
L99.2522 98.8395
" />
<path d="M99.2522 98.8395
L99.2522 95.6895
" />
<path d="M99.2522 95.6895
L104.2522 95.6895
" />
<path d="M104.2522 95.6895
L104.2522 98.8395
" />
<path d="M176.2522 98.8395
L171.2522 98.8395
" />
<path d="M171.2522 98.8395
L171.2522 95.6895
" />
<path d="M171.2522 95.6895
L176.2522 95.6895
" />
<path d="M176.2522 95.6895
L176.2522 98.8395
" />
<path d="M194.2522 98.8395
L189.2522 98.8395
" />
<path d="M189.2522 98.8395
L189.2522 95.6895
" />
<path d="M189.2522 95.6895
L194.2522 95.6895
" />
<path d="M194.2522 95.6895
L194.2522 98.8395
" />
<path d="M212.2522 98.8395
L207.2522 98.8395
" />
<path d="M207.2522 98.8395
L207.2522 95.6895
" />
<path d="M207.2522 95.6895
L212.2522 95.6895
" />
<path d="M212.2522 95.6895
L212.2522 98.8395
" />
<path d="M230.2522 98.8395
L225.2522 98.8395
" />
<path d="M225.2522 98.8395
L225.2522 95.6895
" />
<path d="M225.2522 95.6895
L230.2522 95.6895
" />
<path d="M230.2522 95.6895
L230.2522 98.8395
" />
<path d="M248.2522 98.8395
L243.2522 98.8395
" />
<path d="M243.2522 98.8395
L243.2522 95.6895
" />
<path d="M243.2522 95.6895
L248.2522 95.6895
" />
<path d="M248.2522 95.6895
L248.2522 98.8395
" />
<path d="M50.2522 81.8395
L45.2522 81.8395
" />
<path d="M45.2522 81.8395
L45.2522 78.6895
" />
<path d="M45.2522 78.6895
L50.2522 78.6895
" />
<path d="M50.2522 78.6895
L50.2522 81.8395
" />
<path d="M176.2522 132.8395
L171.2522 132.8395
" />
<path d="M171.2522 132.8395
L171.2522 129.6895
" />
<path d="M171.2522 129.6895
L176.2522 129.6895
" />
<path d="M176.2522 129.6895
L176.2522 132.8395
" />
<path d="M68.2522 81.8395
L63.2522 81.8395
" />
<path d="M63.2522 81.8395
L63.2522 78.6895
" />
<path d="M63.2522 78.6895
L68.2522 78.6895
" />
<path d="M68.2522 78.6895
L68.2522 81.8395
" />
<path d="M248.2522 81.8395
L243.2522 81.8395
" />
<path d="M243.2522 81.8395
L243.2522 78.6895
" />
<path d="M243.2522 78.6895
L248.2522 78.6895
" />
<path d="M248.2522 78.6895
L248.2522 81.8395
" />
<path d="M176.2522 81.8395
L171.2522 81.8395
" />
<path d="M171.2522 81.8395
L171.2522 78.6895
" />
<path d="M171.2522 78.6895
L176.2522 78.6895
" />
<path d="M176.2522 78.6895
L176.2522 81.8395
" />
<path d="M194.2522 81.8395
L189.2522 81.8395
" />
<path d="M189.2522 81.8395
L189.2522 78.6895
" />
<path d="M189.2522 78.6895
L194.2522 78.6895
" />
<path d="M194.2522 78.6895
L194.2522 81.8395
" />
<path d="M122.2522 81.8395
L117.2522 81.8395
" />
<path d="M117.2522 81.8395
L117.2522 78.6895
" />
<path d="M117.2522 78.6895
L122.2522 78.6895
" />
<path d="M122.2522 78.6895
L122.2522 81.8395
" />
<path d="M140.2522 115.8395
L135.2522 115.8395
" />
<path d="M135.2522 115.8395
L135.2522 112.6895
" />
<path d="M135.2522 112.6895
L140.2522 112.6895
" />
<path d="M140.2522 112.6895
L140.2522 115.8395
" />
<path d="M230.2522 81.8395
L225.2522 81.8395
" />
<path d="M225.2522 81.8395
L225.2522 78.6895
" />
<path d="M225.2522 78.6895
L230.2522 78.6895
" />
<path d="M230.2522 78.6895
L230.2522 81.8395
" />
<path d="M86.2522 81.8395
L81.2522 81.8395
" />
<path d="M81.2522 81.8395
L81.2522 78.6895
" />
<path d="M81.2522 78.6895
L86.2522 78.6895
" />
<path d="M86.2522 78.6895
L86.2522 81.8395
" />
<path d="M104.2522 81.8395
L99.2522 81.8395
" />
<path d="M99.2522 81.8395
L99.2522 78.6895
" />
<path d="M99.2522 78.6895
L104.2522 78.6895
" />
<path d="M104.2522 78.6895
L104.2522 81.8395
" />
<path d="M50.2522 115.8395
L45.2522 115.8395
" />
<path d="M45.2522 115.8395
L45.2522 112.6895
" />
<path d="M45.2522 112.6895
L50.2522 112.6895
" />
<path d="M50.2522 112.6895
L50.2522 115.8395
" />
<path d="M68.2522 115.8395
L63.2522 115.8395
" />
<path d="M63.2522 115.8395
L63.2522 112.6895
" />
<path d="M63.2522 112.6895
L68.2522 112.6895
" />
<path d="M68.2522 112.6895
L68.2522 115.8395
" />
<path d="M86.2522 115.8395
L81.2522 115.8395
" />
<path d="M81.2522 115.8395
L81.2522 112.6895
" />
<path d="M81.2522 112.6895
L86.2522 112.6895
" />
<path d="M86.2522 112.6895
L86.2522 115.8395
" />
<path d="M104.2522 115.8395
L99.2522 115.8395
" />
<path d="M99.2522 115.8395
L99.2522 112.6895
" />
<path d="M99.2522 112.6895
L104.2522 112.6895
" />
<path d="M104.2522 112.6895
L104.2522 115.8395
" />
<path d="M122.2522 115.8395
L117.2522 115.8395
" />
<path d="M117.2522 115.8395
L117.2522 112.6895
" />
<path d="M117.2522 112.6895
L122.2522 112.6895
" />
<path d="M122.2522 112.6895
L122.2522 115.8395
" />
<path d="M158.2522 115.8395
L153.2522 115.8395
" />
<path d="M153.2522 115.8395
L153.2522 112.6895
" />
<path d="M153.2522 112.6895
L158.2522 112.6895
" />
<path d="M158.2522 112.6895
L158.2522 115.8395
" />
<path d="M176.2522 115.8395
L171.2522 115.8395
" />
<path d="M171.2522 115.8395
L171.2522 112.6895
" />
<path d="M171.2522 112.6895
L176.2522 112.6895
" />
<path d="M176.2522 112.6895
L176.2522 115.8395
" />
<path d="M212.2522 81.8395
L207.2522 81.8395
" />
<path d="M207.2522 81.8395
L207.2522 78.6895
" />
<path d="M207.2522 78.6895
L212.2522 78.6895
" />
<path d="M212.2522 78.6895
L212.2522 81.8395
" />
<path d="M158.2522 81.8395
L153.2522 81.8395
" />
<path d="M153.2522 81.8395
L153.2522 78.6895
" />
<path d="M153.2522 78.6895
L158.2522 78.6895
" />
<path d="M158.2522 78.6895
L158.2522 81.8395
" />
<path d="M194.2522 132.8395
L189.2522 132.8395
" />
<path d="M189.2522 132.8395
L189.2522 129.6895
" />
<path d="M189.2522 129.6895
L194.2522 129.6895
" />
<path d="M194.2522 129.6895
L194.2522 132.8395
" />
<path d="M122.2522 132.8395
L117.2522 132.8395
" />
<path d="M117.2522 132.8395
L117.2522 129.6895
" />
<path d="M117.2522 129.6895
L122.2522 129.6895
" />
<path d="M122.2522 129.6895
L122.2522 132.8395
" />
<path d="M104.2522 132.8395
L99.2522 132.8395
" />
<path d="M99.2522 132.8395
L99.2522 129.6895
" />
<path d="M99.2522 129.6895
L104.2522 129.6895
" />
<path d="M104.2522 129.6895
L104.2522 132.8395
" />
<path d="M140.2522 132.8395
L135.2522 132.8395
" />
<path d="M135.2522 132.8395
L135.2522 129.6895
" />
<path d="M135.2522 129.6895
L140.2522 129.6895
" />
<path d="M140.2522 129.6895
L140.2522 132.8395
" />
<path d="M212.2522 132.8395
L207.2522 132.8395
" />
<path d="M207.2522 132.8395
L207.2522 129.6895
" />
<path d="M207.2522 129.6895
L212.2522 129.6895
" />
<path d="M212.2522 129.6895
L212.2522 132.8395
" />
<path d="M230.2522 64.8395
L225.2522 64.8395
" />
<path d="M225.2522 64.8395
L225.2522 61.6895
" />
<path d="M225.2522 61.6895
L230.2522 61.6895
" />
<path d="M230.2522 61.6895
L230.2522 64.8395
" />
<path d="M248.2522 64.8395
L243.2522 64.8395
" />
<path d="M243.2522 64.8395
L243.2522 61.6895
" />
<path d="M243.2522 61.6895
L248.2522 61.6895
" />
<path d="M248.2522 61.6895
L248.2522 64.8395
" />
<path d="M248.2522 132.8395
L243.2522 132.8395
" />
<path d="M243.2522 132.8395
L243.2522 129.6895
" />
<path d="M243.2522 129.6895
L248.2522 129.6895
" />
<path d="M248.2522 129.6895
L248.2522 132.8395
" />
<path d="M230.2522 132.8395
L225.2522 132.8395
" />
<path d="M225.2522 132.8395
L225.2522 129.6895
" />
<path d="M225.2522 129.6895
L230.2522 129.6895
" />
<path d="M230.2522 129.6895
L230.2522 132.8395
" />
<path d="M86.2522 64.8395
L81.2522 64.8395
" />
<path d="M81.2522 64.8395
L81.2522 61.6895
" />
<path d="M81.2522 61.6895
L86.2522 61.6895
" />
<path d="M86.2522 61.6895
L86.2522 64.8395
" />
<path d="M86.2522 132.8395
L81.2522 132.8395
" />
<path d="M81.2522 132.8395
L81.2522 129.6895
" />
<path d="M81.2522 129.6895
L86.2522 129.6895
" />
<path d="M86.2522 129.6895
L86.2522 132.8395
" />
<path d="M50.2522 64.8395
L45.2522 64.8395
" />
<path d="M45.2522 64.8395
L45.2522 61.6895
" />
<path d="M45.2522 61.6895
L50.2522 61.6895
" />
<path d="M50.2522 61.6895
L50.2522 64.8395
" />
<path d="M194.2522 64.8395
L189.2522 64.8395
" />
<path d="M189.2522 64.8395
L189.2522 61.6895
" />
<path d="M189.2522 61.6895
L194.2522 61.6895
" />
<path d="M194.2522 61.6895
L194.2522 64.8395
" />
<path d="M158.2522 64.8395
L153.2522 64.8395
" />
<path d="M153.2522 64.8395
L153.2522 61.6895
" />
<path d="M153.2522 61.6895
L158.2522 61.6895
" />
<path d="M158.2522 61.6895
L158.2522 64.8395
" />
<path d="M122.2522 64.8395
L117.2522 64.8395
" />
<path d="M117.2522 64.8395
L117.2522 61.6895
" />
<path d="M117.2522 61.6895
L122.2522 61.6895
" />
<path d="M122.2522 61.6895
L122.2522 64.8395
" />
<path d="M68.2522 64.8395
L63.2522 64.8395
" />
<path d="M63.2522 64.8395
L63.2522 61.6895
" />
<path d="M63.2522 61.6895
L68.2522 61.6895
" />
<path d="M68.2522 61.6895
L68.2522 64.8395
" />
<path d="M104.2522 64.8395
L99.2522 64.8395
" />
<path d="M99.2522 64.8395
L99.2522 61.6895
" />
<path d="M99.2522 61.6895
L104.2522 61.6895
" />
<path d="M104.2522 61.6895
L104.2522 64.8395
" />
<path d="M212.2522 64.8395
L207.2522 64.8395
" />
<path d="M207.2522 64.8395
L207.2522 61.6895
" />
<path d="M207.2522 61.6895
L212.2522 61.6895
" />
<path d="M212.2522 61.6895
L212.2522 64.8395
" />
<path d="M176.2522 64.8395
L171.2522 64.8395
" />
<path d="M171.2522 64.8395
L171.2522 61.6895
" />
<path d="M171.2522 61.6895
L176.2522 61.6895
" />
<path d="M176.2522 61.6895
L176.2522 64.8395
" />
<path d="M50.2522 132.8395
L45.2522 132.8395
" />
<path d="M45.2522 132.8395
L45.2522 129.6895
" />
<path d="M45.2522 129.6895
L50.2522 129.6895
" />
<path d="M50.2522 129.6895
L50.2522 132.8395
" />
<path d="M158.2522 132.8395
L153.2522 132.8395
" />
<path d="M153.2522 132.8395
L153.2522 129.6895
" />
<path d="M153.2522 129.6895
L158.2522 129.6895
" />
<path d="M158.2522 129.6895
L158.2522 132.8395
" />
<path d="M140.2522 64.8395
L135.2522 64.8395
" />
<path d="M135.2522 64.8395
L135.2522 61.6895
" />
<path d="M135.2522 61.6895
L140.2522 61.6895
" />
<path d="M140.2522 61.6895
L140.2522 64.8395
" />
<path d="M68.2522 132.8395
L63.2522 132.8395
" />
<path d="M63.2522 132.8395
L63.2522 129.6895
" />
<path d="M63.2522 129.6895
L68.2522 129.6895
" />
<path d="M68.2522 129.6895
L68.2522 132.8395
" />
<g >
</g>
<g >
</g>
<g >
</g>
<g >
</g>
<g >
</g>
<g >
</g>
<g >
</g>
<g >
</g>
<g >
</g>
<g >
</g>
<g >
</g>
<g >
</g>
<g >
</g>
<g >
</g>
<g >
</g>
<g >
</g>
<g >
</g>
<g >
</g>
<g >
</g>
<g >
</g>
<g >
</g>
<g >
</g>
<g >
</g>
<g >
</g>
<g >
</g>
<g >
</g>
<g >
</g>
<g >
</g>
<g >
</g>
<g >
</g>
<g >
</g>
<g >
</g>
<g >
</g>
<g >
</g>
<g >
</g>
<g >
</g>
<g >
</g>
<g >
</g>
<g >
</g>
<g >
</g>
<g >
</g>
<g >
</g>
<g >
</g>
<g >
</g>
<g >
</g>
<g >
</g>
<g >
</g>
<g >
</g>
<g >
</g>
<g >
</g>
<g >
</g>
<g >
</g>
<g >
</g>
<g >
</g>
<g >
</g>
<g >
</g>
<g >
</g>
<g >
</g>
<g >
</g>
<g >
</g>
<g >
</g>
<g >
</g>
<g >
</g>
<g >
</g>
<g >
</g>
<g >
</g>
<g >
</g>
<g >
</g>
<g >
</g>
<g >
</g>
<g >
</g>
<g >
</g>
<g >
</g>
<g >
</g>
<g >
</g>
<g >
</g>
<g >
</g>
<g >
</g>
<g >
</g>
<g >
</g>
<g >
</g>
<g >
</g>
<g >
</g>
<g >
</g>
<g >
</g>
<g >
</g>
<g >
</g>
<g >
</g>
<g >
</g>
<g >
</g>
<g >
</g>
<g >
</g>
<g >
</g>
<g >
</g>
<g >
</g>
<g >
</g>
<g >
</g>
<g >
</g>
<g >
</g>
<g >
</g>
<g >
</g>
<g >
</g>
<g >
</g>
<g >
</g>
<g >
</g>
<g >
</g>
<g >
</g>
<g >
</g>
<g >
</g>
<g >
</g>
<g >
</g>
<g >
</g>
<g >
</g>
<g >
</g>
<g >
</g>
<g >
</g>
<g >
</g>
<g >
</g>
<g >
</g>
<g >
</g>
<g >
</g>
<g >
</g>
<g >
</g>
<g >
</g>
<g >
</g>
<g >
</g>
<g >
</g>
<g >
</g>
<g >
</g>
<g >
</g>
<g >
</g>
<g >
</g>
<g >
</g>
<g >
</g>
<g >
</g>
<g >
</g>
<g >
</g>
<g >
</g>
<g >
</g>
<g >
</g>
<g >
</g>
<g >
</g>
</g> 
</svg>
