<?xml version="1.0" standalone="no"?>
 <!DOCTYPE svg PUBLIC "-//W3C//DTD SVG 1.1//EN" 
 "http://www.w3.org/Graphics/SVG/1.1/DTD/svg11.dtd"> 
<svg
  xmlns:svg="http://www.w3.org/2000/svg"
  xmlns="http://www.w3.org/2000/svg"
  xmlns:xlink="http://www.w3.org/1999/xlink"
  version="1.1"
  width="297.0022mm" height="210.0072mm" viewBox="0.0000 0.0000 297.0022 210.0072">
<title>SVG Image created as basic60-B_Courtyard.svg date 2023/12/21 23:37:25 </title>
  <desc>Image generated by PCBNEW </desc>
<g style="fill:#000000; fill-opacity:1.0000;stroke:#000000; stroke-opacity:1.0000;
stroke-linecap:round; stroke-linejoin:round;"
 transform="translate(0 0) scale(1 1)">
</g>
<g style="fill:#000000; fill-opacity:0.0; 
stroke:#000000; stroke-width:0.0000; stroke-opacity:1; 
stroke-linecap:round; stroke-linejoin:round;">
</g>
<g style="fill:#000000; fill-opacity:0.0; 
stroke:#000000; stroke-width:0.0500; stroke-opacity:1; 
stroke-linecap:round; stroke-linejoin:round;">
<path d="M195.8562 102.6395
L194.0522 102.6395
" />
<path d="M195.8562 104.5895
L195.8562 102.6395
" />
<path d="M195.8562 104.5895
L194.0522 104.5895
" />
<path d="M194.0522 102.0895
L194.0522 102.6395
" />
<path d="M194.0522 102.0895
L193.2522 101.2895
" />
<path d="M194.0522 104.5895
L194.0522 105.1395
" />
<path d="M193.2522 101.2895
L190.1022 101.2895
" />
<path d="M193.2522 105.9395
L194.0522 105.1395
" />
<path d="M193.2522 105.9395
L191.4522 105.9395
" />
<path d="M189.3022 102.0895
L190.1022 101.2895
" />
<path d="M189.3022 102.0895
L189.3022 102.4395
" />
<path d="M188.3022 103.4395
L185.3022 103.4395
" />
<path d="M184.5022 104.2395
L184.5022 104.8395
" />
<path d="M184.5022 104.8395
L182.6482 104.8395
" />
<path d="M184.2482 107.3895
L184.2482 106.7895
" />
<path d="M184.2482 108.0895
L188.3522 108.0895
" />
<path d="M184.2482 108.0895
L184.2482 107.3895
" />
<path d="M182.6482 104.8395
L182.6482 106.7895
" />
<path d="M182.6482 106.7895
L184.2482 106.7895
" />
<path d="M191.4522 105.9395 A2.6255 2.6255 0.0 0 0 189.2968 107.4315" />
<path d="M188.3522 108.0895 A1.0000 1.0000 0.0 0 0 189.2919 107.4315" />
<path d="M188.3022 103.4395 A1.0000 1.0000 0.0 0 0 189.3022 102.4395" />
<path d="M185.3022 103.4395 A0.8000 0.8000 0.0 0 0 184.5022 104.2395" />
<path d="M213.8562 102.6395
L212.0522 102.6395
" />
<path d="M213.8562 104.5895
L213.8562 102.6395
" />
<path d="M213.8562 104.5895
L212.0522 104.5895
" />
<path d="M212.0522 102.0895
L212.0522 102.6395
" />
<path d="M212.0522 102.0895
L211.2522 101.2895
" />
<path d="M212.0522 104.5895
L212.0522 105.1395
" />
<path d="M211.2522 101.2895
L208.1022 101.2895
" />
<path d="M211.2522 105.9395
L212.0522 105.1395
" />
<path d="M211.2522 105.9395
L209.4522 105.9395
" />
<path d="M207.3022 102.0895
L208.1022 101.2895
" />
<path d="M207.3022 102.0895
L207.3022 102.4395
" />
<path d="M206.3022 103.4395
L203.3022 103.4395
" />
<path d="M202.5022 104.2395
L202.5022 104.8395
" />
<path d="M202.5022 104.8395
L200.6482 104.8395
" />
<path d="M202.2482 107.3895
L202.2482 106.7895
" />
<path d="M202.2482 108.0895
L206.3522 108.0895
" />
<path d="M202.2482 108.0895
L202.2482 107.3895
" />
<path d="M200.6482 104.8395
L200.6482 106.7895
" />
<path d="M200.6482 106.7895
L202.2482 106.7895
" />
<path d="M209.4522 105.9395 A2.6255 2.6255 0.0 0 0 207.2968 107.4315" />
<path d="M206.3522 108.0895 A1.0000 1.0000 0.0 0 0 207.2919 107.4315" />
<path d="M206.3022 103.4395 A1.0000 1.0000 0.0 0 0 207.3022 102.4395" />
<path d="M203.3022 103.4395 A0.8000 0.8000 0.0 0 0 202.5022 104.2395" />
<path d="M231.8562 102.6395
L230.0522 102.6395
" />
<path d="M231.8562 104.5895
L231.8562 102.6395
" />
<path d="M231.8562 104.5895
L230.0522 104.5895
" />
<path d="M230.0522 102.0895
L230.0522 102.6395
" />
<path d="M230.0522 102.0895
L229.2522 101.2895
" />
<path d="M230.0522 104.5895
L230.0522 105.1395
" />
<path d="M229.2522 101.2895
L226.1022 101.2895
" />
<path d="M229.2522 105.9395
L230.0522 105.1395
" />
<path d="M229.2522 105.9395
L227.4522 105.9395
" />
<path d="M225.3022 102.0895
L226.1022 101.2895
" />
<path d="M225.3022 102.0895
L225.3022 102.4395
" />
<path d="M224.3022 103.4395
L221.3022 103.4395
" />
<path d="M220.5022 104.2395
L220.5022 104.8395
" />
<path d="M220.5022 104.8395
L218.6482 104.8395
" />
<path d="M220.2482 107.3895
L220.2482 106.7895
" />
<path d="M220.2482 108.0895
L224.3522 108.0895
" />
<path d="M220.2482 108.0895
L220.2482 107.3895
" />
<path d="M218.6482 104.8395
L218.6482 106.7895
" />
<path d="M218.6482 106.7895
L220.2482 106.7895
" />
<path d="M227.4522 105.9395 A2.6255 2.6255 0.0 0 0 225.2968 107.4315" />
<path d="M224.3522 108.0895 A1.0000 1.0000 0.0 0 0 225.2919 107.4315" />
<path d="M224.3022 103.4395 A1.0000 1.0000 0.0 0 0 225.3022 102.4395" />
<path d="M221.3022 103.4395 A0.8000 0.8000 0.0 0 0 220.5022 104.2395" />
<path d="M249.8562 102.6395
L248.0522 102.6395
" />
<path d="M249.8562 104.5895
L249.8562 102.6395
" />
<path d="M249.8562 104.5895
L248.0522 104.5895
" />
<path d="M248.0522 102.0895
L248.0522 102.6395
" />
<path d="M248.0522 102.0895
L247.2522 101.2895
" />
<path d="M248.0522 104.5895
L248.0522 105.1395
" />
<path d="M247.2522 101.2895
L244.1022 101.2895
" />
<path d="M247.2522 105.9395
L248.0522 105.1395
" />
<path d="M247.2522 105.9395
L245.4522 105.9395
" />
<path d="M243.3022 102.0895
L244.1022 101.2895
" />
<path d="M243.3022 102.0895
L243.3022 102.4395
" />
<path d="M242.3022 103.4395
L239.3022 103.4395
" />
<path d="M238.5022 104.2395
L238.5022 104.8395
" />
<path d="M238.5022 104.8395
L236.6482 104.8395
" />
<path d="M238.2482 107.3895
L238.2482 106.7895
" />
<path d="M238.2482 108.0895
L242.3522 108.0895
" />
<path d="M238.2482 108.0895
L238.2482 107.3895
" />
<path d="M236.6482 104.8395
L236.6482 106.7895
" />
<path d="M236.6482 106.7895
L238.2482 106.7895
" />
<path d="M245.4522 105.9395 A2.6255 2.6255 0.0 0 0 243.2968 107.4315" />
<path d="M242.3522 108.0895 A1.0000 1.0000 0.0 0 0 243.2919 107.4315" />
<path d="M242.3022 103.4395 A1.0000 1.0000 0.0 0 0 243.3022 102.4395" />
<path d="M239.3022 103.4395 A0.8000 0.8000 0.0 0 0 238.5022 104.2395" />
<path d="M51.8562 85.6395
L50.0522 85.6395
" />
<path d="M51.8562 87.5895
L51.8562 85.6395
" />
<path d="M51.8562 87.5895
L50.0522 87.5895
" />
<path d="M50.0522 85.0895
L50.0522 85.6395
" />
<path d="M50.0522 85.0895
L49.2522 84.2895
" />
<path d="M50.0522 87.5895
L50.0522 88.1395
" />
<path d="M49.2522 84.2895
L46.1022 84.2895
" />
<path d="M49.2522 88.9395
L50.0522 88.1395
" />
<path d="M49.2522 88.9395
L47.4522 88.9395
" />
<path d="M45.3022 85.0895
L46.1022 84.2895
" />
<path d="M45.3022 85.0895
L45.3022 85.4395
" />
<path d="M44.3022 86.4395
L41.3022 86.4395
" />
<path d="M40.5022 87.2395
L40.5022 87.8395
" />
<path d="M40.5022 87.8395
L38.6482 87.8395
" />
<path d="M40.2482 90.3895
L40.2482 89.7895
" />
<path d="M40.2482 91.0895
L44.3522 91.0895
" />
<path d="M40.2482 91.0895
L40.2482 90.3895
" />
<path d="M38.6482 87.8395
L38.6482 89.7895
" />
<path d="M38.6482 89.7895
L40.2482 89.7895
" />
<path d="M47.4522 88.9395 A2.6255 2.6255 0.0 0 0 45.2968 90.4315" />
<path d="M44.3522 91.0895 A1.0000 1.0000 0.0 0 0 45.2919 90.4315" />
<path d="M44.3022 86.4395 A1.0000 1.0000 0.0 0 0 45.3022 85.4395" />
<path d="M41.3022 86.4395 A0.8000 0.8000 0.0 0 0 40.5022 87.2395" />
<path d="M69.8562 85.6395
L68.0522 85.6395
" />
<path d="M69.8562 87.5895
L69.8562 85.6395
" />
<path d="M69.8562 87.5895
L68.0522 87.5895
" />
<path d="M68.0522 85.0895
L68.0522 85.6395
" />
<path d="M68.0522 85.0895
L67.2522 84.2895
" />
<path d="M68.0522 87.5895
L68.0522 88.1395
" />
<path d="M67.2522 84.2895
L64.1022 84.2895
" />
<path d="M67.2522 88.9395
L68.0522 88.1395
" />
<path d="M67.2522 88.9395
L65.4522 88.9395
" />
<path d="M63.3022 85.0895
L64.1022 84.2895
" />
<path d="M63.3022 85.0895
L63.3022 85.4395
" />
<path d="M62.3022 86.4395
L59.3022 86.4395
" />
<path d="M58.5022 87.2395
L58.5022 87.8395
" />
<path d="M58.5022 87.8395
L56.6482 87.8395
" />
<path d="M58.2482 90.3895
L58.2482 89.7895
" />
<path d="M58.2482 91.0895
L62.3522 91.0895
" />
<path d="M58.2482 91.0895
L58.2482 90.3895
" />
<path d="M56.6482 87.8395
L56.6482 89.7895
" />
<path d="M56.6482 89.7895
L58.2482 89.7895
" />
<path d="M65.4522 88.9395 A2.6255 2.6255 0.0 0 0 63.2968 90.4315" />
<path d="M62.3522 91.0895 A1.0000 1.0000 0.0 0 0 63.2919 90.4315" />
<path d="M62.3022 86.4395 A1.0000 1.0000 0.0 0 0 63.3022 85.4395" />
<path d="M59.3022 86.4395 A0.8000 0.8000 0.0 0 0 58.5022 87.2395" />
<path d="M87.8562 85.6395
L86.0522 85.6395
" />
<path d="M87.8562 87.5895
L87.8562 85.6395
" />
<path d="M87.8562 87.5895
L86.0522 87.5895
" />
<path d="M86.0522 85.0895
L86.0522 85.6395
" />
<path d="M86.0522 85.0895
L85.2522 84.2895
" />
<path d="M86.0522 87.5895
L86.0522 88.1395
" />
<path d="M85.2522 84.2895
L82.1022 84.2895
" />
<path d="M85.2522 88.9395
L86.0522 88.1395
" />
<path d="M85.2522 88.9395
L83.4522 88.9395
" />
<path d="M81.3022 85.0895
L82.1022 84.2895
" />
<path d="M81.3022 85.0895
L81.3022 85.4395
" />
<path d="M80.3022 86.4395
L77.3022 86.4395
" />
<path d="M76.5022 87.2395
L76.5022 87.8395
" />
<path d="M76.5022 87.8395
L74.6482 87.8395
" />
<path d="M76.2482 90.3895
L76.2482 89.7895
" />
<path d="M76.2482 91.0895
L80.3522 91.0895
" />
<path d="M76.2482 91.0895
L76.2482 90.3895
" />
<path d="M74.6482 87.8395
L74.6482 89.7895
" />
<path d="M74.6482 89.7895
L76.2482 89.7895
" />
<path d="M83.4522 88.9395 A2.6255 2.6255 0.0 0 0 81.2968 90.4315" />
<path d="M80.3522 91.0895 A1.0000 1.0000 0.0 0 0 81.2919 90.4315" />
<path d="M80.3022 86.4395 A1.0000 1.0000 0.0 0 0 81.3022 85.4395" />
<path d="M77.3022 86.4395 A0.8000 0.8000 0.0 0 0 76.5022 87.2395" />
<path d="M123.8562 85.6395
L122.0522 85.6395
" />
<path d="M123.8562 87.5895
L123.8562 85.6395
" />
<path d="M123.8562 87.5895
L122.0522 87.5895
" />
<path d="M122.0522 85.0895
L122.0522 85.6395
" />
<path d="M122.0522 85.0895
L121.2522 84.2895
" />
<path d="M122.0522 87.5895
L122.0522 88.1395
" />
<path d="M121.2522 84.2895
L118.1022 84.2895
" />
<path d="M121.2522 88.9395
L122.0522 88.1395
" />
<path d="M121.2522 88.9395
L119.4522 88.9395
" />
<path d="M117.3022 85.0895
L118.1022 84.2895
" />
<path d="M117.3022 85.0895
L117.3022 85.4395
" />
<path d="M116.3022 86.4395
L113.3022 86.4395
" />
<path d="M112.5022 87.2395
L112.5022 87.8395
" />
<path d="M112.5022 87.8395
L110.6482 87.8395
" />
<path d="M112.2482 90.3895
L112.2482 89.7895
" />
<path d="M112.2482 91.0895
L116.3522 91.0895
" />
<path d="M112.2482 91.0895
L112.2482 90.3895
" />
<path d="M110.6482 87.8395
L110.6482 89.7895
" />
<path d="M110.6482 89.7895
L112.2482 89.7895
" />
<path d="M119.4522 88.9395 A2.6255 2.6255 0.0 0 0 117.2968 90.4315" />
<path d="M116.3522 91.0895 A1.0000 1.0000 0.0 0 0 117.2919 90.4315" />
<path d="M116.3022 86.4395 A1.0000 1.0000 0.0 0 0 117.3022 85.4395" />
<path d="M113.3022 86.4395 A0.8000 0.8000 0.0 0 0 112.5022 87.2395" />
<path d="M141.8562 85.6395
L140.0522 85.6395
" />
<path d="M141.8562 87.5895
L141.8562 85.6395
" />
<path d="M141.8562 87.5895
L140.0522 87.5895
" />
<path d="M140.0522 85.0895
L140.0522 85.6395
" />
<path d="M140.0522 85.0895
L139.2522 84.2895
" />
<path d="M140.0522 87.5895
L140.0522 88.1395
" />
<path d="M139.2522 84.2895
L136.1022 84.2895
" />
<path d="M139.2522 88.9395
L140.0522 88.1395
" />
<path d="M139.2522 88.9395
L137.4522 88.9395
" />
<path d="M135.3022 85.0895
L136.1022 84.2895
" />
<path d="M135.3022 85.0895
L135.3022 85.4395
" />
<path d="M134.3022 86.4395
L131.3022 86.4395
" />
<path d="M130.5022 87.2395
L130.5022 87.8395
" />
<path d="M130.5022 87.8395
L128.6482 87.8395
" />
<path d="M130.2482 90.3895
L130.2482 89.7895
" />
<path d="M130.2482 91.0895
L134.3522 91.0895
" />
<path d="M130.2482 91.0895
L130.2482 90.3895
" />
<path d="M128.6482 87.8395
L128.6482 89.7895
" />
<path d="M128.6482 89.7895
L130.2482 89.7895
" />
<path d="M137.4522 88.9395 A2.6255 2.6255 0.0 0 0 135.2968 90.4315" />
<path d="M134.3522 91.0895 A1.0000 1.0000 0.0 0 0 135.2919 90.4315" />
<path d="M134.3022 86.4395 A1.0000 1.0000 0.0 0 0 135.3022 85.4395" />
<path d="M131.3022 86.4395 A0.8000 0.8000 0.0 0 0 130.5022 87.2395" />
<path d="M159.8562 85.6395
L158.0522 85.6395
" />
<path d="M159.8562 87.5895
L159.8562 85.6395
" />
<path d="M159.8562 87.5895
L158.0522 87.5895
" />
<path d="M158.0522 85.0895
L158.0522 85.6395
" />
<path d="M158.0522 85.0895
L157.2522 84.2895
" />
<path d="M158.0522 87.5895
L158.0522 88.1395
" />
<path d="M157.2522 84.2895
L154.1022 84.2895
" />
<path d="M157.2522 88.9395
L158.0522 88.1395
" />
<path d="M157.2522 88.9395
L155.4522 88.9395
" />
<path d="M153.3022 85.0895
L154.1022 84.2895
" />
<path d="M153.3022 85.0895
L153.3022 85.4395
" />
<path d="M152.3022 86.4395
L149.3022 86.4395
" />
<path d="M148.5022 87.2395
L148.5022 87.8395
" />
<path d="M148.5022 87.8395
L146.6482 87.8395
" />
<path d="M148.2482 90.3895
L148.2482 89.7895
" />
<path d="M148.2482 91.0895
L152.3522 91.0895
" />
<path d="M148.2482 91.0895
L148.2482 90.3895
" />
<path d="M146.6482 87.8395
L146.6482 89.7895
" />
<path d="M146.6482 89.7895
L148.2482 89.7895
" />
<path d="M155.4522 88.9395 A2.6255 2.6255 0.0 0 0 153.2968 90.4315" />
<path d="M152.3522 91.0895 A1.0000 1.0000 0.0 0 0 153.2919 90.4315" />
<path d="M152.3022 86.4395 A1.0000 1.0000 0.0 0 0 153.3022 85.4395" />
<path d="M149.3022 86.4395 A0.8000 0.8000 0.0 0 0 148.5022 87.2395" />
<path d="M141.8562 68.6395
L140.0522 68.6395
" />
<path d="M141.8562 70.5895
L141.8562 68.6395
" />
<path d="M141.8562 70.5895
L140.0522 70.5895
" />
<path d="M140.0522 68.0895
L140.0522 68.6395
" />
<path d="M140.0522 68.0895
L139.2522 67.2895
" />
<path d="M140.0522 70.5895
L140.0522 71.1395
" />
<path d="M139.2522 67.2895
L136.1022 67.2895
" />
<path d="M139.2522 71.9395
L140.0522 71.1395
" />
<path d="M139.2522 71.9395
L137.4522 71.9395
" />
<path d="M135.3022 68.0895
L136.1022 67.2895
" />
<path d="M135.3022 68.0895
L135.3022 68.4395
" />
<path d="M134.3022 69.4395
L131.3022 69.4395
" />
<path d="M130.5022 70.2395
L130.5022 70.8395
" />
<path d="M130.5022 70.8395
L128.6482 70.8395
" />
<path d="M130.2482 73.3895
L130.2482 72.7895
" />
<path d="M130.2482 74.0895
L134.3522 74.0895
" />
<path d="M130.2482 74.0895
L130.2482 73.3895
" />
<path d="M128.6482 70.8395
L128.6482 72.7895
" />
<path d="M128.6482 72.7895
L130.2482 72.7895
" />
<path d="M137.4522 71.9395 A2.6255 2.6255 0.0 0 0 135.2968 73.4315" />
<path d="M134.3522 74.0895 A1.0000 1.0000 0.0 0 0 135.2919 73.4315" />
<path d="M134.3022 69.4395 A1.0000 1.0000 0.0 0 0 135.3022 68.4395" />
<path d="M131.3022 69.4395 A0.8000 0.8000 0.0 0 0 130.5022 70.2395" />
<path d="M105.8562 85.6395
L104.0522 85.6395
" />
<path d="M105.8562 87.5895
L105.8562 85.6395
" />
<path d="M105.8562 87.5895
L104.0522 87.5895
" />
<path d="M104.0522 85.0895
L104.0522 85.6395
" />
<path d="M104.0522 85.0895
L103.2522 84.2895
" />
<path d="M104.0522 87.5895
L104.0522 88.1395
" />
<path d="M103.2522 84.2895
L100.1022 84.2895
" />
<path d="M103.2522 88.9395
L104.0522 88.1395
" />
<path d="M103.2522 88.9395
L101.4522 88.9395
" />
<path d="M99.3022 85.0895
L100.1022 84.2895
" />
<path d="M99.3022 85.0895
L99.3022 85.4395
" />
<path d="M98.3022 86.4395
L95.3022 86.4395
" />
<path d="M94.5022 87.2395
L94.5022 87.8395
" />
<path d="M94.5022 87.8395
L92.6482 87.8395
" />
<path d="M94.2482 90.3895
L94.2482 89.7895
" />
<path d="M94.2482 91.0895
L98.3522 91.0895
" />
<path d="M94.2482 91.0895
L94.2482 90.3895
" />
<path d="M92.6482 87.8395
L92.6482 89.7895
" />
<path d="M92.6482 89.7895
L94.2482 89.7895
" />
<path d="M101.4522 88.9395 A2.6255 2.6255 0.0 0 0 99.2968 90.4315" />
<path d="M98.3522 91.0895 A1.0000 1.0000 0.0 0 0 99.2919 90.4315" />
<path d="M98.3022 86.4395 A1.0000 1.0000 0.0 0 0 99.3022 85.4395" />
<path d="M95.3022 86.4395 A0.8000 0.8000 0.0 0 0 94.5022 87.2395" />
<path d="M177.8562 85.6395
L176.0522 85.6395
" />
<path d="M177.8562 87.5895
L177.8562 85.6395
" />
<path d="M177.8562 87.5895
L176.0522 87.5895
" />
<path d="M176.0522 85.0895
L176.0522 85.6395
" />
<path d="M176.0522 85.0895
L175.2522 84.2895
" />
<path d="M176.0522 87.5895
L176.0522 88.1395
" />
<path d="M175.2522 84.2895
L172.1022 84.2895
" />
<path d="M175.2522 88.9395
L176.0522 88.1395
" />
<path d="M175.2522 88.9395
L173.4522 88.9395
" />
<path d="M171.3022 85.0895
L172.1022 84.2895
" />
<path d="M171.3022 85.0895
L171.3022 85.4395
" />
<path d="M170.3022 86.4395
L167.3022 86.4395
" />
<path d="M166.5022 87.2395
L166.5022 87.8395
" />
<path d="M166.5022 87.8395
L164.6482 87.8395
" />
<path d="M166.2482 90.3895
L166.2482 89.7895
" />
<path d="M166.2482 91.0895
L170.3522 91.0895
" />
<path d="M166.2482 91.0895
L166.2482 90.3895
" />
<path d="M164.6482 87.8395
L164.6482 89.7895
" />
<path d="M164.6482 89.7895
L166.2482 89.7895
" />
<path d="M173.4522 88.9395 A2.6255 2.6255 0.0 0 0 171.2968 90.4315" />
<path d="M170.3522 91.0895 A1.0000 1.0000 0.0 0 0 171.2919 90.4315" />
<path d="M170.3022 86.4395 A1.0000 1.0000 0.0 0 0 171.3022 85.4395" />
<path d="M167.3022 86.4395 A0.8000 0.8000 0.0 0 0 166.5022 87.2395" />
<path d="M195.8562 85.6395
L194.0522 85.6395
" />
<path d="M195.8562 87.5895
L195.8562 85.6395
" />
<path d="M195.8562 87.5895
L194.0522 87.5895
" />
<path d="M194.0522 85.0895
L194.0522 85.6395
" />
<path d="M194.0522 85.0895
L193.2522 84.2895
" />
<path d="M194.0522 87.5895
L194.0522 88.1395
" />
<path d="M193.2522 84.2895
L190.1022 84.2895
" />
<path d="M193.2522 88.9395
L194.0522 88.1395
" />
<path d="M193.2522 88.9395
L191.4522 88.9395
" />
<path d="M189.3022 85.0895
L190.1022 84.2895
" />
<path d="M189.3022 85.0895
L189.3022 85.4395
" />
<path d="M188.3022 86.4395
L185.3022 86.4395
" />
<path d="M184.5022 87.2395
L184.5022 87.8395
" />
<path d="M184.5022 87.8395
L182.6482 87.8395
" />
<path d="M184.2482 90.3895
L184.2482 89.7895
" />
<path d="M184.2482 91.0895
L188.3522 91.0895
" />
<path d="M184.2482 91.0895
L184.2482 90.3895
" />
<path d="M182.6482 87.8395
L182.6482 89.7895
" />
<path d="M182.6482 89.7895
L184.2482 89.7895
" />
<path d="M191.4522 88.9395 A2.6255 2.6255 0.0 0 0 189.2968 90.4315" />
<path d="M188.3522 91.0895 A1.0000 1.0000 0.0 0 0 189.2919 90.4315" />
<path d="M188.3022 86.4395 A1.0000 1.0000 0.0 0 0 189.3022 85.4395" />
<path d="M185.3022 86.4395 A0.8000 0.8000 0.0 0 0 184.5022 87.2395" />
<path d="M213.8562 85.6395
L212.0522 85.6395
" />
<path d="M213.8562 87.5895
L213.8562 85.6395
" />
<path d="M213.8562 87.5895
L212.0522 87.5895
" />
<path d="M212.0522 85.0895
L212.0522 85.6395
" />
<path d="M212.0522 85.0895
L211.2522 84.2895
" />
<path d="M212.0522 87.5895
L212.0522 88.1395
" />
<path d="M211.2522 84.2895
L208.1022 84.2895
" />
<path d="M211.2522 88.9395
L212.0522 88.1395
" />
<path d="M211.2522 88.9395
L209.4522 88.9395
" />
<path d="M207.3022 85.0895
L208.1022 84.2895
" />
<path d="M207.3022 85.0895
L207.3022 85.4395
" />
<path d="M206.3022 86.4395
L203.3022 86.4395
" />
<path d="M202.5022 87.2395
L202.5022 87.8395
" />
<path d="M202.5022 87.8395
L200.6482 87.8395
" />
<path d="M202.2482 90.3895
L202.2482 89.7895
" />
<path d="M202.2482 91.0895
L206.3522 91.0895
" />
<path d="M202.2482 91.0895
L202.2482 90.3895
" />
<path d="M200.6482 87.8395
L200.6482 89.7895
" />
<path d="M200.6482 89.7895
L202.2482 89.7895
" />
<path d="M209.4522 88.9395 A2.6255 2.6255 0.0 0 0 207.2968 90.4315" />
<path d="M206.3522 91.0895 A1.0000 1.0000 0.0 0 0 207.2919 90.4315" />
<path d="M206.3022 86.4395 A1.0000 1.0000 0.0 0 0 207.3022 85.4395" />
<path d="M203.3022 86.4395 A0.8000 0.8000 0.0 0 0 202.5022 87.2395" />
<path d="M231.8562 85.6395
L230.0522 85.6395
" />
<path d="M231.8562 87.5895
L231.8562 85.6395
" />
<path d="M231.8562 87.5895
L230.0522 87.5895
" />
<path d="M230.0522 85.0895
L230.0522 85.6395
" />
<path d="M230.0522 85.0895
L229.2522 84.2895
" />
<path d="M230.0522 87.5895
L230.0522 88.1395
" />
<path d="M229.2522 84.2895
L226.1022 84.2895
" />
<path d="M229.2522 88.9395
L230.0522 88.1395
" />
<path d="M229.2522 88.9395
L227.4522 88.9395
" />
<path d="M225.3022 85.0895
L226.1022 84.2895
" />
<path d="M225.3022 85.0895
L225.3022 85.4395
" />
<path d="M224.3022 86.4395
L221.3022 86.4395
" />
<path d="M220.5022 87.2395
L220.5022 87.8395
" />
<path d="M220.5022 87.8395
L218.6482 87.8395
" />
<path d="M220.2482 90.3895
L220.2482 89.7895
" />
<path d="M220.2482 91.0895
L224.3522 91.0895
" />
<path d="M220.2482 91.0895
L220.2482 90.3895
" />
<path d="M218.6482 87.8395
L218.6482 89.7895
" />
<path d="M218.6482 89.7895
L220.2482 89.7895
" />
<path d="M227.4522 88.9395 A2.6255 2.6255 0.0 0 0 225.2968 90.4315" />
<path d="M224.3522 91.0895 A1.0000 1.0000 0.0 0 0 225.2919 90.4315" />
<path d="M224.3022 86.4395 A1.0000 1.0000 0.0 0 0 225.3022 85.4395" />
<path d="M221.3022 86.4395 A0.8000 0.8000 0.0 0 0 220.5022 87.2395" />
<path d="M249.8562 85.6395
L248.0522 85.6395
" />
<path d="M249.8562 87.5895
L249.8562 85.6395
" />
<path d="M249.8562 87.5895
L248.0522 87.5895
" />
<path d="M248.0522 85.0895
L248.0522 85.6395
" />
<path d="M248.0522 85.0895
L247.2522 84.2895
" />
<path d="M248.0522 87.5895
L248.0522 88.1395
" />
<path d="M247.2522 84.2895
L244.1022 84.2895
" />
<path d="M247.2522 88.9395
L248.0522 88.1395
" />
<path d="M247.2522 88.9395
L245.4522 88.9395
" />
<path d="M243.3022 85.0895
L244.1022 84.2895
" />
<path d="M243.3022 85.0895
L243.3022 85.4395
" />
<path d="M242.3022 86.4395
L239.3022 86.4395
" />
<path d="M238.5022 87.2395
L238.5022 87.8395
" />
<path d="M238.5022 87.8395
L236.6482 87.8395
" />
<path d="M238.2482 90.3895
L238.2482 89.7895
" />
<path d="M238.2482 91.0895
L242.3522 91.0895
" />
<path d="M238.2482 91.0895
L238.2482 90.3895
" />
<path d="M236.6482 87.8395
L236.6482 89.7895
" />
<path d="M236.6482 89.7895
L238.2482 89.7895
" />
<path d="M245.4522 88.9395 A2.6255 2.6255 0.0 0 0 243.2968 90.4315" />
<path d="M242.3522 91.0895 A1.0000 1.0000 0.0 0 0 243.2919 90.4315" />
<path d="M242.3022 86.4395 A1.0000 1.0000 0.0 0 0 243.3022 85.4395" />
<path d="M239.3022 86.4395 A0.8000 0.8000 0.0 0 0 238.5022 87.2395" />
<path d="M51.8562 68.6395
L50.0522 68.6395
" />
<path d="M51.8562 70.5895
L51.8562 68.6395
" />
<path d="M51.8562 70.5895
L50.0522 70.5895
" />
<path d="M50.0522 68.0895
L50.0522 68.6395
" />
<path d="M50.0522 68.0895
L49.2522 67.2895
" />
<path d="M50.0522 70.5895
L50.0522 71.1395
" />
<path d="M49.2522 67.2895
L46.1022 67.2895
" />
<path d="M49.2522 71.9395
L50.0522 71.1395
" />
<path d="M49.2522 71.9395
L47.4522 71.9395
" />
<path d="M45.3022 68.0895
L46.1022 67.2895
" />
<path d="M45.3022 68.0895
L45.3022 68.4395
" />
<path d="M44.3022 69.4395
L41.3022 69.4395
" />
<path d="M40.5022 70.2395
L40.5022 70.8395
" />
<path d="M40.5022 70.8395
L38.6482 70.8395
" />
<path d="M40.2482 73.3895
L40.2482 72.7895
" />
<path d="M40.2482 74.0895
L44.3522 74.0895
" />
<path d="M40.2482 74.0895
L40.2482 73.3895
" />
<path d="M38.6482 70.8395
L38.6482 72.7895
" />
<path d="M38.6482 72.7895
L40.2482 72.7895
" />
<path d="M47.4522 71.9395 A2.6255 2.6255 0.0 0 0 45.2968 73.4315" />
<path d="M44.3522 74.0895 A1.0000 1.0000 0.0 0 0 45.2919 73.4315" />
<path d="M44.3022 69.4395 A1.0000 1.0000 0.0 0 0 45.3022 68.4395" />
<path d="M41.3022 69.4395 A0.8000 0.8000 0.0 0 0 40.5022 70.2395" />
<path d="M177.8562 119.6395
L176.0522 119.6395
" />
<path d="M177.8562 121.5895
L177.8562 119.6395
" />
<path d="M177.8562 121.5895
L176.0522 121.5895
" />
<path d="M176.0522 119.0895
L176.0522 119.6395
" />
<path d="M176.0522 119.0895
L175.2522 118.2895
" />
<path d="M176.0522 121.5895
L176.0522 122.1395
" />
<path d="M175.2522 118.2895
L172.1022 118.2895
" />
<path d="M175.2522 122.9395
L176.0522 122.1395
" />
<path d="M175.2522 122.9395
L173.4522 122.9395
" />
<path d="M171.3022 119.0895
L172.1022 118.2895
" />
<path d="M171.3022 119.0895
L171.3022 119.4395
" />
<path d="M170.3022 120.4395
L167.3022 120.4395
" />
<path d="M166.5022 121.2395
L166.5022 121.8395
" />
<path d="M166.5022 121.8395
L164.6482 121.8395
" />
<path d="M166.2482 124.3895
L166.2482 123.7895
" />
<path d="M166.2482 125.0895
L170.3522 125.0895
" />
<path d="M166.2482 125.0895
L166.2482 124.3895
" />
<path d="M164.6482 121.8395
L164.6482 123.7895
" />
<path d="M164.6482 123.7895
L166.2482 123.7895
" />
<path d="M173.4522 122.9395 A2.6255 2.6255 0.0 0 0 171.2968 124.4315" />
<path d="M170.3522 125.0895 A1.0000 1.0000 0.0 0 0 171.2919 124.4315" />
<path d="M170.3022 120.4395 A1.0000 1.0000 0.0 0 0 171.3022 119.4395" />
<path d="M167.3022 120.4395 A0.8000 0.8000 0.0 0 0 166.5022 121.2395" />
<path d="M69.8562 68.6395
L68.0522 68.6395
" />
<path d="M69.8562 70.5895
L69.8562 68.6395
" />
<path d="M69.8562 70.5895
L68.0522 70.5895
" />
<path d="M68.0522 68.0895
L68.0522 68.6395
" />
<path d="M68.0522 68.0895
L67.2522 67.2895
" />
<path d="M68.0522 70.5895
L68.0522 71.1395
" />
<path d="M67.2522 67.2895
L64.1022 67.2895
" />
<path d="M67.2522 71.9395
L68.0522 71.1395
" />
<path d="M67.2522 71.9395
L65.4522 71.9395
" />
<path d="M63.3022 68.0895
L64.1022 67.2895
" />
<path d="M63.3022 68.0895
L63.3022 68.4395
" />
<path d="M62.3022 69.4395
L59.3022 69.4395
" />
<path d="M58.5022 70.2395
L58.5022 70.8395
" />
<path d="M58.5022 70.8395
L56.6482 70.8395
" />
<path d="M58.2482 73.3895
L58.2482 72.7895
" />
<path d="M58.2482 74.0895
L62.3522 74.0895
" />
<path d="M58.2482 74.0895
L58.2482 73.3895
" />
<path d="M56.6482 70.8395
L56.6482 72.7895
" />
<path d="M56.6482 72.7895
L58.2482 72.7895
" />
<path d="M65.4522 71.9395 A2.6255 2.6255 0.0 0 0 63.2968 73.4315" />
<path d="M62.3522 74.0895 A1.0000 1.0000 0.0 0 0 63.2919 73.4315" />
<path d="M62.3022 69.4395 A1.0000 1.0000 0.0 0 0 63.3022 68.4395" />
<path d="M59.3022 69.4395 A0.8000 0.8000 0.0 0 0 58.5022 70.2395" />
<path d="M249.8562 68.6395
L248.0522 68.6395
" />
<path d="M249.8562 70.5895
L249.8562 68.6395
" />
<path d="M249.8562 70.5895
L248.0522 70.5895
" />
<path d="M248.0522 68.0895
L248.0522 68.6395
" />
<path d="M248.0522 68.0895
L247.2522 67.2895
" />
<path d="M248.0522 70.5895
L248.0522 71.1395
" />
<path d="M247.2522 67.2895
L244.1022 67.2895
" />
<path d="M247.2522 71.9395
L248.0522 71.1395
" />
<path d="M247.2522 71.9395
L245.4522 71.9395
" />
<path d="M243.3022 68.0895
L244.1022 67.2895
" />
<path d="M243.3022 68.0895
L243.3022 68.4395
" />
<path d="M242.3022 69.4395
L239.3022 69.4395
" />
<path d="M238.5022 70.2395
L238.5022 70.8395
" />
<path d="M238.5022 70.8395
L236.6482 70.8395
" />
<path d="M238.2482 73.3895
L238.2482 72.7895
" />
<path d="M238.2482 74.0895
L242.3522 74.0895
" />
<path d="M238.2482 74.0895
L238.2482 73.3895
" />
<path d="M236.6482 70.8395
L236.6482 72.7895
" />
<path d="M236.6482 72.7895
L238.2482 72.7895
" />
<path d="M245.4522 71.9395 A2.6255 2.6255 0.0 0 0 243.2968 73.4315" />
<path d="M242.3522 74.0895 A1.0000 1.0000 0.0 0 0 243.2919 73.4315" />
<path d="M242.3022 69.4395 A1.0000 1.0000 0.0 0 0 243.3022 68.4395" />
<path d="M239.3022 69.4395 A0.8000 0.8000 0.0 0 0 238.5022 70.2395" />
<path d="M177.8562 68.6395
L176.0522 68.6395
" />
<path d="M177.8562 70.5895
L177.8562 68.6395
" />
<path d="M177.8562 70.5895
L176.0522 70.5895
" />
<path d="M176.0522 68.0895
L176.0522 68.6395
" />
<path d="M176.0522 68.0895
L175.2522 67.2895
" />
<path d="M176.0522 70.5895
L176.0522 71.1395
" />
<path d="M175.2522 67.2895
L172.1022 67.2895
" />
<path d="M175.2522 71.9395
L176.0522 71.1395
" />
<path d="M175.2522 71.9395
L173.4522 71.9395
" />
<path d="M171.3022 68.0895
L172.1022 67.2895
" />
<path d="M171.3022 68.0895
L171.3022 68.4395
" />
<path d="M170.3022 69.4395
L167.3022 69.4395
" />
<path d="M166.5022 70.2395
L166.5022 70.8395
" />
<path d="M166.5022 70.8395
L164.6482 70.8395
" />
<path d="M166.2482 73.3895
L166.2482 72.7895
" />
<path d="M166.2482 74.0895
L170.3522 74.0895
" />
<path d="M166.2482 74.0895
L166.2482 73.3895
" />
<path d="M164.6482 70.8395
L164.6482 72.7895
" />
<path d="M164.6482 72.7895
L166.2482 72.7895
" />
<path d="M173.4522 71.9395 A2.6255 2.6255 0.0 0 0 171.2968 73.4315" />
<path d="M170.3522 74.0895 A1.0000 1.0000 0.0 0 0 171.2919 73.4315" />
<path d="M170.3022 69.4395 A1.0000 1.0000 0.0 0 0 171.3022 68.4395" />
<path d="M167.3022 69.4395 A0.8000 0.8000 0.0 0 0 166.5022 70.2395" />
<path d="M195.8562 68.6395
L194.0522 68.6395
" />
<path d="M195.8562 70.5895
L195.8562 68.6395
" />
<path d="M195.8562 70.5895
L194.0522 70.5895
" />
<path d="M194.0522 68.0895
L194.0522 68.6395
" />
<path d="M194.0522 68.0895
L193.2522 67.2895
" />
<path d="M194.0522 70.5895
L194.0522 71.1395
" />
<path d="M193.2522 67.2895
L190.1022 67.2895
" />
<path d="M193.2522 71.9395
L194.0522 71.1395
" />
<path d="M193.2522 71.9395
L191.4522 71.9395
" />
<path d="M189.3022 68.0895
L190.1022 67.2895
" />
<path d="M189.3022 68.0895
L189.3022 68.4395
" />
<path d="M188.3022 69.4395
L185.3022 69.4395
" />
<path d="M184.5022 70.2395
L184.5022 70.8395
" />
<path d="M184.5022 70.8395
L182.6482 70.8395
" />
<path d="M184.2482 73.3895
L184.2482 72.7895
" />
<path d="M184.2482 74.0895
L188.3522 74.0895
" />
<path d="M184.2482 74.0895
L184.2482 73.3895
" />
<path d="M182.6482 70.8395
L182.6482 72.7895
" />
<path d="M182.6482 72.7895
L184.2482 72.7895
" />
<path d="M191.4522 71.9395 A2.6255 2.6255 0.0 0 0 189.2968 73.4315" />
<path d="M188.3522 74.0895 A1.0000 1.0000 0.0 0 0 189.2919 73.4315" />
<path d="M188.3022 69.4395 A1.0000 1.0000 0.0 0 0 189.3022 68.4395" />
<path d="M185.3022 69.4395 A0.8000 0.8000 0.0 0 0 184.5022 70.2395" />
<path d="M123.8562 68.6395
L122.0522 68.6395
" />
<path d="M123.8562 70.5895
L123.8562 68.6395
" />
<path d="M123.8562 70.5895
L122.0522 70.5895
" />
<path d="M122.0522 68.0895
L122.0522 68.6395
" />
<path d="M122.0522 68.0895
L121.2522 67.2895
" />
<path d="M122.0522 70.5895
L122.0522 71.1395
" />
<path d="M121.2522 67.2895
L118.1022 67.2895
" />
<path d="M121.2522 71.9395
L122.0522 71.1395
" />
<path d="M121.2522 71.9395
L119.4522 71.9395
" />
<path d="M117.3022 68.0895
L118.1022 67.2895
" />
<path d="M117.3022 68.0895
L117.3022 68.4395
" />
<path d="M116.3022 69.4395
L113.3022 69.4395
" />
<path d="M112.5022 70.2395
L112.5022 70.8395
" />
<path d="M112.5022 70.8395
L110.6482 70.8395
" />
<path d="M112.2482 73.3895
L112.2482 72.7895
" />
<path d="M112.2482 74.0895
L116.3522 74.0895
" />
<path d="M112.2482 74.0895
L112.2482 73.3895
" />
<path d="M110.6482 70.8395
L110.6482 72.7895
" />
<path d="M110.6482 72.7895
L112.2482 72.7895
" />
<path d="M119.4522 71.9395 A2.6255 2.6255 0.0 0 0 117.2968 73.4315" />
<path d="M116.3522 74.0895 A1.0000 1.0000 0.0 0 0 117.2919 73.4315" />
<path d="M116.3022 69.4395 A1.0000 1.0000 0.0 0 0 117.3022 68.4395" />
<path d="M113.3022 69.4395 A0.8000 0.8000 0.0 0 0 112.5022 70.2395" />
<path d="M141.8562 102.6395
L140.0522 102.6395
" />
<path d="M141.8562 104.5895
L141.8562 102.6395
" />
<path d="M141.8562 104.5895
L140.0522 104.5895
" />
<path d="M140.0522 102.0895
L140.0522 102.6395
" />
<path d="M140.0522 102.0895
L139.2522 101.2895
" />
<path d="M140.0522 104.5895
L140.0522 105.1395
" />
<path d="M139.2522 101.2895
L136.1022 101.2895
" />
<path d="M139.2522 105.9395
L140.0522 105.1395
" />
<path d="M139.2522 105.9395
L137.4522 105.9395
" />
<path d="M135.3022 102.0895
L136.1022 101.2895
" />
<path d="M135.3022 102.0895
L135.3022 102.4395
" />
<path d="M134.3022 103.4395
L131.3022 103.4395
" />
<path d="M130.5022 104.2395
L130.5022 104.8395
" />
<path d="M130.5022 104.8395
L128.6482 104.8395
" />
<path d="M130.2482 107.3895
L130.2482 106.7895
" />
<path d="M130.2482 108.0895
L134.3522 108.0895
" />
<path d="M130.2482 108.0895
L130.2482 107.3895
" />
<path d="M128.6482 104.8395
L128.6482 106.7895
" />
<path d="M128.6482 106.7895
L130.2482 106.7895
" />
<path d="M137.4522 105.9395 A2.6255 2.6255 0.0 0 0 135.2968 107.4315" />
<path d="M134.3522 108.0895 A1.0000 1.0000 0.0 0 0 135.2919 107.4315" />
<path d="M134.3022 103.4395 A1.0000 1.0000 0.0 0 0 135.3022 102.4395" />
<path d="M131.3022 103.4395 A0.8000 0.8000 0.0 0 0 130.5022 104.2395" />
<path d="M231.8562 68.6395
L230.0522 68.6395
" />
<path d="M231.8562 70.5895
L231.8562 68.6395
" />
<path d="M231.8562 70.5895
L230.0522 70.5895
" />
<path d="M230.0522 68.0895
L230.0522 68.6395
" />
<path d="M230.0522 68.0895
L229.2522 67.2895
" />
<path d="M230.0522 70.5895
L230.0522 71.1395
" />
<path d="M229.2522 67.2895
L226.1022 67.2895
" />
<path d="M229.2522 71.9395
L230.0522 71.1395
" />
<path d="M229.2522 71.9395
L227.4522 71.9395
" />
<path d="M225.3022 68.0895
L226.1022 67.2895
" />
<path d="M225.3022 68.0895
L225.3022 68.4395
" />
<path d="M224.3022 69.4395
L221.3022 69.4395
" />
<path d="M220.5022 70.2395
L220.5022 70.8395
" />
<path d="M220.5022 70.8395
L218.6482 70.8395
" />
<path d="M220.2482 73.3895
L220.2482 72.7895
" />
<path d="M220.2482 74.0895
L224.3522 74.0895
" />
<path d="M220.2482 74.0895
L220.2482 73.3895
" />
<path d="M218.6482 70.8395
L218.6482 72.7895
" />
<path d="M218.6482 72.7895
L220.2482 72.7895
" />
<path d="M227.4522 71.9395 A2.6255 2.6255 0.0 0 0 225.2968 73.4315" />
<path d="M224.3522 74.0895 A1.0000 1.0000 0.0 0 0 225.2919 73.4315" />
<path d="M224.3022 69.4395 A1.0000 1.0000 0.0 0 0 225.3022 68.4395" />
<path d="M221.3022 69.4395 A0.8000 0.8000 0.0 0 0 220.5022 70.2395" />
<path d="M87.8562 68.6395
L86.0522 68.6395
" />
<path d="M87.8562 70.5895
L87.8562 68.6395
" />
<path d="M87.8562 70.5895
L86.0522 70.5895
" />
<path d="M86.0522 68.0895
L86.0522 68.6395
" />
<path d="M86.0522 68.0895
L85.2522 67.2895
" />
<path d="M86.0522 70.5895
L86.0522 71.1395
" />
<path d="M85.2522 67.2895
L82.1022 67.2895
" />
<path d="M85.2522 71.9395
L86.0522 71.1395
" />
<path d="M85.2522 71.9395
L83.4522 71.9395
" />
<path d="M81.3022 68.0895
L82.1022 67.2895
" />
<path d="M81.3022 68.0895
L81.3022 68.4395
" />
<path d="M80.3022 69.4395
L77.3022 69.4395
" />
<path d="M76.5022 70.2395
L76.5022 70.8395
" />
<path d="M76.5022 70.8395
L74.6482 70.8395
" />
<path d="M76.2482 73.3895
L76.2482 72.7895
" />
<path d="M76.2482 74.0895
L80.3522 74.0895
" />
<path d="M76.2482 74.0895
L76.2482 73.3895
" />
<path d="M74.6482 70.8395
L74.6482 72.7895
" />
<path d="M74.6482 72.7895
L76.2482 72.7895
" />
<path d="M83.4522 71.9395 A2.6255 2.6255 0.0 0 0 81.2968 73.4315" />
<path d="M80.3522 74.0895 A1.0000 1.0000 0.0 0 0 81.2919 73.4315" />
<path d="M80.3022 69.4395 A1.0000 1.0000 0.0 0 0 81.3022 68.4395" />
<path d="M77.3022 69.4395 A0.8000 0.8000 0.0 0 0 76.5022 70.2395" />
<path d="M105.8562 68.6395
L104.0522 68.6395
" />
<path d="M105.8562 70.5895
L105.8562 68.6395
" />
<path d="M105.8562 70.5895
L104.0522 70.5895
" />
<path d="M104.0522 68.0895
L104.0522 68.6395
" />
<path d="M104.0522 68.0895
L103.2522 67.2895
" />
<path d="M104.0522 70.5895
L104.0522 71.1395
" />
<path d="M103.2522 67.2895
L100.1022 67.2895
" />
<path d="M103.2522 71.9395
L104.0522 71.1395
" />
<path d="M103.2522 71.9395
L101.4522 71.9395
" />
<path d="M99.3022 68.0895
L100.1022 67.2895
" />
<path d="M99.3022 68.0895
L99.3022 68.4395
" />
<path d="M98.3022 69.4395
L95.3022 69.4395
" />
<path d="M94.5022 70.2395
L94.5022 70.8395
" />
<path d="M94.5022 70.8395
L92.6482 70.8395
" />
<path d="M94.2482 73.3895
L94.2482 72.7895
" />
<path d="M94.2482 74.0895
L98.3522 74.0895
" />
<path d="M94.2482 74.0895
L94.2482 73.3895
" />
<path d="M92.6482 70.8395
L92.6482 72.7895
" />
<path d="M92.6482 72.7895
L94.2482 72.7895
" />
<path d="M101.4522 71.9395 A2.6255 2.6255 0.0 0 0 99.2968 73.4315" />
<path d="M98.3522 74.0895 A1.0000 1.0000 0.0 0 0 99.2919 73.4315" />
<path d="M98.3022 69.4395 A1.0000 1.0000 0.0 0 0 99.3022 68.4395" />
<path d="M95.3022 69.4395 A0.8000 0.8000 0.0 0 0 94.5022 70.2395" />
<path d="M51.8562 102.6395
L50.0522 102.6395
" />
<path d="M51.8562 104.5895
L51.8562 102.6395
" />
<path d="M51.8562 104.5895
L50.0522 104.5895
" />
<path d="M50.0522 102.0895
L50.0522 102.6395
" />
<path d="M50.0522 102.0895
L49.2522 101.2895
" />
<path d="M50.0522 104.5895
L50.0522 105.1395
" />
<path d="M49.2522 101.2895
L46.1022 101.2895
" />
<path d="M49.2522 105.9395
L50.0522 105.1395
" />
<path d="M49.2522 105.9395
L47.4522 105.9395
" />
<path d="M45.3022 102.0895
L46.1022 101.2895
" />
<path d="M45.3022 102.0895
L45.3022 102.4395
" />
<path d="M44.3022 103.4395
L41.3022 103.4395
" />
<path d="M40.5022 104.2395
L40.5022 104.8395
" />
<path d="M40.5022 104.8395
L38.6482 104.8395
" />
<path d="M40.2482 107.3895
L40.2482 106.7895
" />
<path d="M40.2482 108.0895
L44.3522 108.0895
" />
<path d="M40.2482 108.0895
L40.2482 107.3895
" />
<path d="M38.6482 104.8395
L38.6482 106.7895
" />
<path d="M38.6482 106.7895
L40.2482 106.7895
" />
<path d="M47.4522 105.9395 A2.6255 2.6255 0.0 0 0 45.2968 107.4315" />
<path d="M44.3522 108.0895 A1.0000 1.0000 0.0 0 0 45.2919 107.4315" />
<path d="M44.3022 103.4395 A1.0000 1.0000 0.0 0 0 45.3022 102.4395" />
<path d="M41.3022 103.4395 A0.8000 0.8000 0.0 0 0 40.5022 104.2395" />
<path d="M69.8562 102.6395
L68.0522 102.6395
" />
<path d="M69.8562 104.5895
L69.8562 102.6395
" />
<path d="M69.8562 104.5895
L68.0522 104.5895
" />
<path d="M68.0522 102.0895
L68.0522 102.6395
" />
<path d="M68.0522 102.0895
L67.2522 101.2895
" />
<path d="M68.0522 104.5895
L68.0522 105.1395
" />
<path d="M67.2522 101.2895
L64.1022 101.2895
" />
<path d="M67.2522 105.9395
L68.0522 105.1395
" />
<path d="M67.2522 105.9395
L65.4522 105.9395
" />
<path d="M63.3022 102.0895
L64.1022 101.2895
" />
<path d="M63.3022 102.0895
L63.3022 102.4395
" />
<path d="M62.3022 103.4395
L59.3022 103.4395
" />
<path d="M58.5022 104.2395
L58.5022 104.8395
" />
<path d="M58.5022 104.8395
L56.6482 104.8395
" />
<path d="M58.2482 107.3895
L58.2482 106.7895
" />
<path d="M58.2482 108.0895
L62.3522 108.0895
" />
<path d="M58.2482 108.0895
L58.2482 107.3895
" />
<path d="M56.6482 104.8395
L56.6482 106.7895
" />
<path d="M56.6482 106.7895
L58.2482 106.7895
" />
<path d="M65.4522 105.9395 A2.6255 2.6255 0.0 0 0 63.2968 107.4315" />
<path d="M62.3522 108.0895 A1.0000 1.0000 0.0 0 0 63.2919 107.4315" />
<path d="M62.3022 103.4395 A1.0000 1.0000 0.0 0 0 63.3022 102.4395" />
<path d="M59.3022 103.4395 A0.8000 0.8000 0.0 0 0 58.5022 104.2395" />
<path d="M87.8562 102.6395
L86.0522 102.6395
" />
<path d="M87.8562 104.5895
L87.8562 102.6395
" />
<path d="M87.8562 104.5895
L86.0522 104.5895
" />
<path d="M86.0522 102.0895
L86.0522 102.6395
" />
<path d="M86.0522 102.0895
L85.2522 101.2895
" />
<path d="M86.0522 104.5895
L86.0522 105.1395
" />
<path d="M85.2522 101.2895
L82.1022 101.2895
" />
<path d="M85.2522 105.9395
L86.0522 105.1395
" />
<path d="M85.2522 105.9395
L83.4522 105.9395
" />
<path d="M81.3022 102.0895
L82.1022 101.2895
" />
<path d="M81.3022 102.0895
L81.3022 102.4395
" />
<path d="M80.3022 103.4395
L77.3022 103.4395
" />
<path d="M76.5022 104.2395
L76.5022 104.8395
" />
<path d="M76.5022 104.8395
L74.6482 104.8395
" />
<path d="M76.2482 107.3895
L76.2482 106.7895
" />
<path d="M76.2482 108.0895
L80.3522 108.0895
" />
<path d="M76.2482 108.0895
L76.2482 107.3895
" />
<path d="M74.6482 104.8395
L74.6482 106.7895
" />
<path d="M74.6482 106.7895
L76.2482 106.7895
" />
<path d="M83.4522 105.9395 A2.6255 2.6255 0.0 0 0 81.2968 107.4315" />
<path d="M80.3522 108.0895 A1.0000 1.0000 0.0 0 0 81.2919 107.4315" />
<path d="M80.3022 103.4395 A1.0000 1.0000 0.0 0 0 81.3022 102.4395" />
<path d="M77.3022 103.4395 A0.8000 0.8000 0.0 0 0 76.5022 104.2395" />
<path d="M105.8562 102.6395
L104.0522 102.6395
" />
<path d="M105.8562 104.5895
L105.8562 102.6395
" />
<path d="M105.8562 104.5895
L104.0522 104.5895
" />
<path d="M104.0522 102.0895
L104.0522 102.6395
" />
<path d="M104.0522 102.0895
L103.2522 101.2895
" />
<path d="M104.0522 104.5895
L104.0522 105.1395
" />
<path d="M103.2522 101.2895
L100.1022 101.2895
" />
<path d="M103.2522 105.9395
L104.0522 105.1395
" />
<path d="M103.2522 105.9395
L101.4522 105.9395
" />
<path d="M99.3022 102.0895
L100.1022 101.2895
" />
<path d="M99.3022 102.0895
L99.3022 102.4395
" />
<path d="M98.3022 103.4395
L95.3022 103.4395
" />
<path d="M94.5022 104.2395
L94.5022 104.8395
" />
<path d="M94.5022 104.8395
L92.6482 104.8395
" />
<path d="M94.2482 107.3895
L94.2482 106.7895
" />
<path d="M94.2482 108.0895
L98.3522 108.0895
" />
<path d="M94.2482 108.0895
L94.2482 107.3895
" />
<path d="M92.6482 104.8395
L92.6482 106.7895
" />
<path d="M92.6482 106.7895
L94.2482 106.7895
" />
<path d="M101.4522 105.9395 A2.6255 2.6255 0.0 0 0 99.2968 107.4315" />
<path d="M98.3522 108.0895 A1.0000 1.0000 0.0 0 0 99.2919 107.4315" />
<path d="M98.3022 103.4395 A1.0000 1.0000 0.0 0 0 99.3022 102.4395" />
<path d="M95.3022 103.4395 A0.8000 0.8000 0.0 0 0 94.5022 104.2395" />
<path d="M123.8562 102.6395
L122.0522 102.6395
" />
<path d="M123.8562 104.5895
L123.8562 102.6395
" />
<path d="M123.8562 104.5895
L122.0522 104.5895
" />
<path d="M122.0522 102.0895
L122.0522 102.6395
" />
<path d="M122.0522 102.0895
L121.2522 101.2895
" />
<path d="M122.0522 104.5895
L122.0522 105.1395
" />
<path d="M121.2522 101.2895
L118.1022 101.2895
" />
<path d="M121.2522 105.9395
L122.0522 105.1395
" />
<path d="M121.2522 105.9395
L119.4522 105.9395
" />
<path d="M117.3022 102.0895
L118.1022 101.2895
" />
<path d="M117.3022 102.0895
L117.3022 102.4395
" />
<path d="M116.3022 103.4395
L113.3022 103.4395
" />
<path d="M112.5022 104.2395
L112.5022 104.8395
" />
<path d="M112.5022 104.8395
L110.6482 104.8395
" />
<path d="M112.2482 107.3895
L112.2482 106.7895
" />
<path d="M112.2482 108.0895
L116.3522 108.0895
" />
<path d="M112.2482 108.0895
L112.2482 107.3895
" />
<path d="M110.6482 104.8395
L110.6482 106.7895
" />
<path d="M110.6482 106.7895
L112.2482 106.7895
" />
<path d="M119.4522 105.9395 A2.6255 2.6255 0.0 0 0 117.2968 107.4315" />
<path d="M116.3522 108.0895 A1.0000 1.0000 0.0 0 0 117.2919 107.4315" />
<path d="M116.3022 103.4395 A1.0000 1.0000 0.0 0 0 117.3022 102.4395" />
<path d="M113.3022 103.4395 A0.8000 0.8000 0.0 0 0 112.5022 104.2395" />
<path d="M159.8562 102.6395
L158.0522 102.6395
" />
<path d="M159.8562 104.5895
L159.8562 102.6395
" />
<path d="M159.8562 104.5895
L158.0522 104.5895
" />
<path d="M158.0522 102.0895
L158.0522 102.6395
" />
<path d="M158.0522 102.0895
L157.2522 101.2895
" />
<path d="M158.0522 104.5895
L158.0522 105.1395
" />
<path d="M157.2522 101.2895
L154.1022 101.2895
" />
<path d="M157.2522 105.9395
L158.0522 105.1395
" />
<path d="M157.2522 105.9395
L155.4522 105.9395
" />
<path d="M153.3022 102.0895
L154.1022 101.2895
" />
<path d="M153.3022 102.0895
L153.3022 102.4395
" />
<path d="M152.3022 103.4395
L149.3022 103.4395
" />
<path d="M148.5022 104.2395
L148.5022 104.8395
" />
<path d="M148.5022 104.8395
L146.6482 104.8395
" />
<path d="M148.2482 107.3895
L148.2482 106.7895
" />
<path d="M148.2482 108.0895
L152.3522 108.0895
" />
<path d="M148.2482 108.0895
L148.2482 107.3895
" />
<path d="M146.6482 104.8395
L146.6482 106.7895
" />
<path d="M146.6482 106.7895
L148.2482 106.7895
" />
<path d="M155.4522 105.9395 A2.6255 2.6255 0.0 0 0 153.2968 107.4315" />
<path d="M152.3522 108.0895 A1.0000 1.0000 0.0 0 0 153.2919 107.4315" />
<path d="M152.3022 103.4395 A1.0000 1.0000 0.0 0 0 153.3022 102.4395" />
<path d="M149.3022 103.4395 A0.8000 0.8000 0.0 0 0 148.5022 104.2395" />
<path d="M177.8562 102.6395
L176.0522 102.6395
" />
<path d="M177.8562 104.5895
L177.8562 102.6395
" />
<path d="M177.8562 104.5895
L176.0522 104.5895
" />
<path d="M176.0522 102.0895
L176.0522 102.6395
" />
<path d="M176.0522 102.0895
L175.2522 101.2895
" />
<path d="M176.0522 104.5895
L176.0522 105.1395
" />
<path d="M175.2522 101.2895
L172.1022 101.2895
" />
<path d="M175.2522 105.9395
L176.0522 105.1395
" />
<path d="M175.2522 105.9395
L173.4522 105.9395
" />
<path d="M171.3022 102.0895
L172.1022 101.2895
" />
<path d="M171.3022 102.0895
L171.3022 102.4395
" />
<path d="M170.3022 103.4395
L167.3022 103.4395
" />
<path d="M166.5022 104.2395
L166.5022 104.8395
" />
<path d="M166.5022 104.8395
L164.6482 104.8395
" />
<path d="M166.2482 107.3895
L166.2482 106.7895
" />
<path d="M166.2482 108.0895
L170.3522 108.0895
" />
<path d="M166.2482 108.0895
L166.2482 107.3895
" />
<path d="M164.6482 104.8395
L164.6482 106.7895
" />
<path d="M164.6482 106.7895
L166.2482 106.7895
" />
<path d="M173.4522 105.9395 A2.6255 2.6255 0.0 0 0 171.2968 107.4315" />
<path d="M170.3522 108.0895 A1.0000 1.0000 0.0 0 0 171.2919 107.4315" />
<path d="M170.3022 103.4395 A1.0000 1.0000 0.0 0 0 171.3022 102.4395" />
<path d="M167.3022 103.4395 A0.8000 0.8000 0.0 0 0 166.5022 104.2395" />
<path d="M213.8562 68.6395
L212.0522 68.6395
" />
<path d="M213.8562 70.5895
L213.8562 68.6395
" />
<path d="M213.8562 70.5895
L212.0522 70.5895
" />
<path d="M212.0522 68.0895
L212.0522 68.6395
" />
<path d="M212.0522 68.0895
L211.2522 67.2895
" />
<path d="M212.0522 70.5895
L212.0522 71.1395
" />
<path d="M211.2522 67.2895
L208.1022 67.2895
" />
<path d="M211.2522 71.9395
L212.0522 71.1395
" />
<path d="M211.2522 71.9395
L209.4522 71.9395
" />
<path d="M207.3022 68.0895
L208.1022 67.2895
" />
<path d="M207.3022 68.0895
L207.3022 68.4395
" />
<path d="M206.3022 69.4395
L203.3022 69.4395
" />
<path d="M202.5022 70.2395
L202.5022 70.8395
" />
<path d="M202.5022 70.8395
L200.6482 70.8395
" />
<path d="M202.2482 73.3895
L202.2482 72.7895
" />
<path d="M202.2482 74.0895
L206.3522 74.0895
" />
<path d="M202.2482 74.0895
L202.2482 73.3895
" />
<path d="M200.6482 70.8395
L200.6482 72.7895
" />
<path d="M200.6482 72.7895
L202.2482 72.7895
" />
<path d="M209.4522 71.9395 A2.6255 2.6255 0.0 0 0 207.2968 73.4315" />
<path d="M206.3522 74.0895 A1.0000 1.0000 0.0 0 0 207.2919 73.4315" />
<path d="M206.3022 69.4395 A1.0000 1.0000 0.0 0 0 207.3022 68.4395" />
<path d="M203.3022 69.4395 A0.8000 0.8000 0.0 0 0 202.5022 70.2395" />
<path d="M159.8562 68.6395
L158.0522 68.6395
" />
<path d="M159.8562 70.5895
L159.8562 68.6395
" />
<path d="M159.8562 70.5895
L158.0522 70.5895
" />
<path d="M158.0522 68.0895
L158.0522 68.6395
" />
<path d="M158.0522 68.0895
L157.2522 67.2895
" />
<path d="M158.0522 70.5895
L158.0522 71.1395
" />
<path d="M157.2522 67.2895
L154.1022 67.2895
" />
<path d="M157.2522 71.9395
L158.0522 71.1395
" />
<path d="M157.2522 71.9395
L155.4522 71.9395
" />
<path d="M153.3022 68.0895
L154.1022 67.2895
" />
<path d="M153.3022 68.0895
L153.3022 68.4395
" />
<path d="M152.3022 69.4395
L149.3022 69.4395
" />
<path d="M148.5022 70.2395
L148.5022 70.8395
" />
<path d="M148.5022 70.8395
L146.6482 70.8395
" />
<path d="M148.2482 73.3895
L148.2482 72.7895
" />
<path d="M148.2482 74.0895
L152.3522 74.0895
" />
<path d="M148.2482 74.0895
L148.2482 73.3895
" />
<path d="M146.6482 70.8395
L146.6482 72.7895
" />
<path d="M146.6482 72.7895
L148.2482 72.7895
" />
<path d="M155.4522 71.9395 A2.6255 2.6255 0.0 0 0 153.2968 73.4315" />
<path d="M152.3522 74.0895 A1.0000 1.0000 0.0 0 0 153.2919 73.4315" />
<path d="M152.3022 69.4395 A1.0000 1.0000 0.0 0 0 153.3022 68.4395" />
<path d="M149.3022 69.4395 A0.8000 0.8000 0.0 0 0 148.5022 70.2395" />
<path d="M195.8562 119.6395
L194.0522 119.6395
" />
<path d="M195.8562 121.5895
L195.8562 119.6395
" />
<path d="M195.8562 121.5895
L194.0522 121.5895
" />
<path d="M194.0522 119.0895
L194.0522 119.6395
" />
<path d="M194.0522 119.0895
L193.2522 118.2895
" />
<path d="M194.0522 121.5895
L194.0522 122.1395
" />
<path d="M193.2522 118.2895
L190.1022 118.2895
" />
<path d="M193.2522 122.9395
L194.0522 122.1395
" />
<path d="M193.2522 122.9395
L191.4522 122.9395
" />
<path d="M189.3022 119.0895
L190.1022 118.2895
" />
<path d="M189.3022 119.0895
L189.3022 119.4395
" />
<path d="M188.3022 120.4395
L185.3022 120.4395
" />
<path d="M184.5022 121.2395
L184.5022 121.8395
" />
<path d="M184.5022 121.8395
L182.6482 121.8395
" />
<path d="M184.2482 124.3895
L184.2482 123.7895
" />
<path d="M184.2482 125.0895
L188.3522 125.0895
" />
<path d="M184.2482 125.0895
L184.2482 124.3895
" />
<path d="M182.6482 121.8395
L182.6482 123.7895
" />
<path d="M182.6482 123.7895
L184.2482 123.7895
" />
<path d="M191.4522 122.9395 A2.6255 2.6255 0.0 0 0 189.2968 124.4315" />
<path d="M188.3522 125.0895 A1.0000 1.0000 0.0 0 0 189.2919 124.4315" />
<path d="M188.3022 120.4395 A1.0000 1.0000 0.0 0 0 189.3022 119.4395" />
<path d="M185.3022 120.4395 A0.8000 0.8000 0.0 0 0 184.5022 121.2395" />
<path d="M123.8562 119.6395
L122.0522 119.6395
" />
<path d="M123.8562 121.5895
L123.8562 119.6395
" />
<path d="M123.8562 121.5895
L122.0522 121.5895
" />
<path d="M122.0522 119.0895
L122.0522 119.6395
" />
<path d="M122.0522 119.0895
L121.2522 118.2895
" />
<path d="M122.0522 121.5895
L122.0522 122.1395
" />
<path d="M121.2522 118.2895
L118.1022 118.2895
" />
<path d="M121.2522 122.9395
L122.0522 122.1395
" />
<path d="M121.2522 122.9395
L119.4522 122.9395
" />
<path d="M117.3022 119.0895
L118.1022 118.2895
" />
<path d="M117.3022 119.0895
L117.3022 119.4395
" />
<path d="M116.3022 120.4395
L113.3022 120.4395
" />
<path d="M112.5022 121.2395
L112.5022 121.8395
" />
<path d="M112.5022 121.8395
L110.6482 121.8395
" />
<path d="M112.2482 124.3895
L112.2482 123.7895
" />
<path d="M112.2482 125.0895
L116.3522 125.0895
" />
<path d="M112.2482 125.0895
L112.2482 124.3895
" />
<path d="M110.6482 121.8395
L110.6482 123.7895
" />
<path d="M110.6482 123.7895
L112.2482 123.7895
" />
<path d="M119.4522 122.9395 A2.6255 2.6255 0.0 0 0 117.2968 124.4315" />
<path d="M116.3522 125.0895 A1.0000 1.0000 0.0 0 0 117.2919 124.4315" />
<path d="M116.3022 120.4395 A1.0000 1.0000 0.0 0 0 117.3022 119.4395" />
<path d="M113.3022 120.4395 A0.8000 0.8000 0.0 0 0 112.5022 121.2395" />
<path d="M105.8562 119.6395
L104.0522 119.6395
" />
<path d="M105.8562 121.5895
L105.8562 119.6395
" />
<path d="M105.8562 121.5895
L104.0522 121.5895
" />
<path d="M104.0522 119.0895
L104.0522 119.6395
" />
<path d="M104.0522 119.0895
L103.2522 118.2895
" />
<path d="M104.0522 121.5895
L104.0522 122.1395
" />
<path d="M103.2522 118.2895
L100.1022 118.2895
" />
<path d="M103.2522 122.9395
L104.0522 122.1395
" />
<path d="M103.2522 122.9395
L101.4522 122.9395
" />
<path d="M99.3022 119.0895
L100.1022 118.2895
" />
<path d="M99.3022 119.0895
L99.3022 119.4395
" />
<path d="M98.3022 120.4395
L95.3022 120.4395
" />
<path d="M94.5022 121.2395
L94.5022 121.8395
" />
<path d="M94.5022 121.8395
L92.6482 121.8395
" />
<path d="M94.2482 124.3895
L94.2482 123.7895
" />
<path d="M94.2482 125.0895
L98.3522 125.0895
" />
<path d="M94.2482 125.0895
L94.2482 124.3895
" />
<path d="M92.6482 121.8395
L92.6482 123.7895
" />
<path d="M92.6482 123.7895
L94.2482 123.7895
" />
<path d="M101.4522 122.9395 A2.6255 2.6255 0.0 0 0 99.2968 124.4315" />
<path d="M98.3522 125.0895 A1.0000 1.0000 0.0 0 0 99.2919 124.4315" />
<path d="M98.3022 120.4395 A1.0000 1.0000 0.0 0 0 99.3022 119.4395" />
<path d="M95.3022 120.4395 A0.8000 0.8000 0.0 0 0 94.5022 121.2395" />
<path d="M141.8562 119.6395
L140.0522 119.6395
" />
<path d="M141.8562 121.5895
L141.8562 119.6395
" />
<path d="M141.8562 121.5895
L140.0522 121.5895
" />
<path d="M140.0522 119.0895
L140.0522 119.6395
" />
<path d="M140.0522 119.0895
L139.2522 118.2895
" />
<path d="M140.0522 121.5895
L140.0522 122.1395
" />
<path d="M139.2522 118.2895
L136.1022 118.2895
" />
<path d="M139.2522 122.9395
L140.0522 122.1395
" />
<path d="M139.2522 122.9395
L137.4522 122.9395
" />
<path d="M135.3022 119.0895
L136.1022 118.2895
" />
<path d="M135.3022 119.0895
L135.3022 119.4395
" />
<path d="M134.3022 120.4395
L131.3022 120.4395
" />
<path d="M130.5022 121.2395
L130.5022 121.8395
" />
<path d="M130.5022 121.8395
L128.6482 121.8395
" />
<path d="M130.2482 124.3895
L130.2482 123.7895
" />
<path d="M130.2482 125.0895
L134.3522 125.0895
" />
<path d="M130.2482 125.0895
L130.2482 124.3895
" />
<path d="M128.6482 121.8395
L128.6482 123.7895
" />
<path d="M128.6482 123.7895
L130.2482 123.7895
" />
<path d="M137.4522 122.9395 A2.6255 2.6255 0.0 0 0 135.2968 124.4315" />
<path d="M134.3522 125.0895 A1.0000 1.0000 0.0 0 0 135.2919 124.4315" />
<path d="M134.3022 120.4395 A1.0000 1.0000 0.0 0 0 135.3022 119.4395" />
<path d="M131.3022 120.4395 A0.8000 0.8000 0.0 0 0 130.5022 121.2395" />
<path d="M213.8562 119.6395
L212.0522 119.6395
" />
<path d="M213.8562 121.5895
L213.8562 119.6395
" />
<path d="M213.8562 121.5895
L212.0522 121.5895
" />
<path d="M212.0522 119.0895
L212.0522 119.6395
" />
<path d="M212.0522 119.0895
L211.2522 118.2895
" />
<path d="M212.0522 121.5895
L212.0522 122.1395
" />
<path d="M211.2522 118.2895
L208.1022 118.2895
" />
<path d="M211.2522 122.9395
L212.0522 122.1395
" />
<path d="M211.2522 122.9395
L209.4522 122.9395
" />
<path d="M207.3022 119.0895
L208.1022 118.2895
" />
<path d="M207.3022 119.0895
L207.3022 119.4395
" />
<path d="M206.3022 120.4395
L203.3022 120.4395
" />
<path d="M202.5022 121.2395
L202.5022 121.8395
" />
<path d="M202.5022 121.8395
L200.6482 121.8395
" />
<path d="M202.2482 124.3895
L202.2482 123.7895
" />
<path d="M202.2482 125.0895
L206.3522 125.0895
" />
<path d="M202.2482 125.0895
L202.2482 124.3895
" />
<path d="M200.6482 121.8395
L200.6482 123.7895
" />
<path d="M200.6482 123.7895
L202.2482 123.7895
" />
<path d="M209.4522 122.9395 A2.6255 2.6255 0.0 0 0 207.2968 124.4315" />
<path d="M206.3522 125.0895 A1.0000 1.0000 0.0 0 0 207.2919 124.4315" />
<path d="M206.3022 120.4395 A1.0000 1.0000 0.0 0 0 207.3022 119.4395" />
<path d="M203.3022 120.4395 A0.8000 0.8000 0.0 0 0 202.5022 121.2395" />
<path d="M231.8562 51.6395
L230.0522 51.6395
" />
<path d="M231.8562 53.5895
L231.8562 51.6395
" />
<path d="M231.8562 53.5895
L230.0522 53.5895
" />
<path d="M230.0522 51.0895
L230.0522 51.6395
" />
<path d="M230.0522 51.0895
L229.2522 50.2895
" />
<path d="M230.0522 53.5895
L230.0522 54.1395
" />
<path d="M229.2522 50.2895
L226.1022 50.2895
" />
<path d="M229.2522 54.9395
L230.0522 54.1395
" />
<path d="M229.2522 54.9395
L227.4522 54.9395
" />
<path d="M225.3022 51.0895
L226.1022 50.2895
" />
<path d="M225.3022 51.0895
L225.3022 51.4395
" />
<path d="M224.3022 52.4395
L221.3022 52.4395
" />
<path d="M220.5022 53.2395
L220.5022 53.8395
" />
<path d="M220.5022 53.8395
L218.6482 53.8395
" />
<path d="M220.2482 56.3895
L220.2482 55.7895
" />
<path d="M220.2482 57.0895
L224.3522 57.0895
" />
<path d="M220.2482 57.0895
L220.2482 56.3895
" />
<path d="M218.6482 53.8395
L218.6482 55.7895
" />
<path d="M218.6482 55.7895
L220.2482 55.7895
" />
<path d="M227.4522 54.9395 A2.6255 2.6255 0.0 0 0 225.2968 56.4315" />
<path d="M224.3522 57.0895 A1.0000 1.0000 0.0 0 0 225.2919 56.4315" />
<path d="M224.3022 52.4395 A1.0000 1.0000 0.0 0 0 225.3022 51.4395" />
<path d="M221.3022 52.4395 A0.8000 0.8000 0.0 0 0 220.5022 53.2395" />
<path d="M249.8562 51.6395
L248.0522 51.6395
" />
<path d="M249.8562 53.5895
L249.8562 51.6395
" />
<path d="M249.8562 53.5895
L248.0522 53.5895
" />
<path d="M248.0522 51.0895
L248.0522 51.6395
" />
<path d="M248.0522 51.0895
L247.2522 50.2895
" />
<path d="M248.0522 53.5895
L248.0522 54.1395
" />
<path d="M247.2522 50.2895
L244.1022 50.2895
" />
<path d="M247.2522 54.9395
L248.0522 54.1395
" />
<path d="M247.2522 54.9395
L245.4522 54.9395
" />
<path d="M243.3022 51.0895
L244.1022 50.2895
" />
<path d="M243.3022 51.0895
L243.3022 51.4395
" />
<path d="M242.3022 52.4395
L239.3022 52.4395
" />
<path d="M238.5022 53.2395
L238.5022 53.8395
" />
<path d="M238.5022 53.8395
L236.6482 53.8395
" />
<path d="M238.2482 56.3895
L238.2482 55.7895
" />
<path d="M238.2482 57.0895
L242.3522 57.0895
" />
<path d="M238.2482 57.0895
L238.2482 56.3895
" />
<path d="M236.6482 53.8395
L236.6482 55.7895
" />
<path d="M236.6482 55.7895
L238.2482 55.7895
" />
<path d="M245.4522 54.9395 A2.6255 2.6255 0.0 0 0 243.2968 56.4315" />
<path d="M242.3522 57.0895 A1.0000 1.0000 0.0 0 0 243.2919 56.4315" />
<path d="M242.3022 52.4395 A1.0000 1.0000 0.0 0 0 243.3022 51.4395" />
<path d="M239.3022 52.4395 A0.8000 0.8000 0.0 0 0 238.5022 53.2395" />
<path d="M249.8562 119.6395
L248.0522 119.6395
" />
<path d="M249.8562 121.5895
L249.8562 119.6395
" />
<path d="M249.8562 121.5895
L248.0522 121.5895
" />
<path d="M248.0522 119.0895
L248.0522 119.6395
" />
<path d="M248.0522 119.0895
L247.2522 118.2895
" />
<path d="M248.0522 121.5895
L248.0522 122.1395
" />
<path d="M247.2522 118.2895
L244.1022 118.2895
" />
<path d="M247.2522 122.9395
L248.0522 122.1395
" />
<path d="M247.2522 122.9395
L245.4522 122.9395
" />
<path d="M243.3022 119.0895
L244.1022 118.2895
" />
<path d="M243.3022 119.0895
L243.3022 119.4395
" />
<path d="M242.3022 120.4395
L239.3022 120.4395
" />
<path d="M238.5022 121.2395
L238.5022 121.8395
" />
<path d="M238.5022 121.8395
L236.6482 121.8395
" />
<path d="M238.2482 124.3895
L238.2482 123.7895
" />
<path d="M238.2482 125.0895
L242.3522 125.0895
" />
<path d="M238.2482 125.0895
L238.2482 124.3895
" />
<path d="M236.6482 121.8395
L236.6482 123.7895
" />
<path d="M236.6482 123.7895
L238.2482 123.7895
" />
<path d="M245.4522 122.9395 A2.6255 2.6255 0.0 0 0 243.2968 124.4315" />
<path d="M242.3522 125.0895 A1.0000 1.0000 0.0 0 0 243.2919 124.4315" />
<path d="M242.3022 120.4395 A1.0000 1.0000 0.0 0 0 243.3022 119.4395" />
<path d="M239.3022 120.4395 A0.8000 0.8000 0.0 0 0 238.5022 121.2395" />
<path d="M231.8562 119.6395
L230.0522 119.6395
" />
<path d="M231.8562 121.5895
L231.8562 119.6395
" />
<path d="M231.8562 121.5895
L230.0522 121.5895
" />
<path d="M230.0522 119.0895
L230.0522 119.6395
" />
<path d="M230.0522 119.0895
L229.2522 118.2895
" />
<path d="M230.0522 121.5895
L230.0522 122.1395
" />
<path d="M229.2522 118.2895
L226.1022 118.2895
" />
<path d="M229.2522 122.9395
L230.0522 122.1395
" />
<path d="M229.2522 122.9395
L227.4522 122.9395
" />
<path d="M225.3022 119.0895
L226.1022 118.2895
" />
<path d="M225.3022 119.0895
L225.3022 119.4395
" />
<path d="M224.3022 120.4395
L221.3022 120.4395
" />
<path d="M220.5022 121.2395
L220.5022 121.8395
" />
<path d="M220.5022 121.8395
L218.6482 121.8395
" />
<path d="M220.2482 124.3895
L220.2482 123.7895
" />
<path d="M220.2482 125.0895
L224.3522 125.0895
" />
<path d="M220.2482 125.0895
L220.2482 124.3895
" />
<path d="M218.6482 121.8395
L218.6482 123.7895
" />
<path d="M218.6482 123.7895
L220.2482 123.7895
" />
<path d="M227.4522 122.9395 A2.6255 2.6255 0.0 0 0 225.2968 124.4315" />
<path d="M224.3522 125.0895 A1.0000 1.0000 0.0 0 0 225.2919 124.4315" />
<path d="M224.3022 120.4395 A1.0000 1.0000 0.0 0 0 225.3022 119.4395" />
<path d="M221.3022 120.4395 A0.8000 0.8000 0.0 0 0 220.5022 121.2395" />
<path d="M87.8562 51.6395
L86.0522 51.6395
" />
<path d="M87.8562 53.5895
L87.8562 51.6395
" />
<path d="M87.8562 53.5895
L86.0522 53.5895
" />
<path d="M86.0522 51.0895
L86.0522 51.6395
" />
<path d="M86.0522 51.0895
L85.2522 50.2895
" />
<path d="M86.0522 53.5895
L86.0522 54.1395
" />
<path d="M85.2522 50.2895
L82.1022 50.2895
" />
<path d="M85.2522 54.9395
L86.0522 54.1395
" />
<path d="M85.2522 54.9395
L83.4522 54.9395
" />
<path d="M81.3022 51.0895
L82.1022 50.2895
" />
<path d="M81.3022 51.0895
L81.3022 51.4395
" />
<path d="M80.3022 52.4395
L77.3022 52.4395
" />
<path d="M76.5022 53.2395
L76.5022 53.8395
" />
<path d="M76.5022 53.8395
L74.6482 53.8395
" />
<path d="M76.2482 56.3895
L76.2482 55.7895
" />
<path d="M76.2482 57.0895
L80.3522 57.0895
" />
<path d="M76.2482 57.0895
L76.2482 56.3895
" />
<path d="M74.6482 53.8395
L74.6482 55.7895
" />
<path d="M74.6482 55.7895
L76.2482 55.7895
" />
<path d="M83.4522 54.9395 A2.6255 2.6255 0.0 0 0 81.2968 56.4315" />
<path d="M80.3522 57.0895 A1.0000 1.0000 0.0 0 0 81.2919 56.4315" />
<path d="M80.3022 52.4395 A1.0000 1.0000 0.0 0 0 81.3022 51.4395" />
<path d="M77.3022 52.4395 A0.8000 0.8000 0.0 0 0 76.5022 53.2395" />
<path d="M87.8562 119.6395
L86.0522 119.6395
" />
<path d="M87.8562 121.5895
L87.8562 119.6395
" />
<path d="M87.8562 121.5895
L86.0522 121.5895
" />
<path d="M86.0522 119.0895
L86.0522 119.6395
" />
<path d="M86.0522 119.0895
L85.2522 118.2895
" />
<path d="M86.0522 121.5895
L86.0522 122.1395
" />
<path d="M85.2522 118.2895
L82.1022 118.2895
" />
<path d="M85.2522 122.9395
L86.0522 122.1395
" />
<path d="M85.2522 122.9395
L83.4522 122.9395
" />
<path d="M81.3022 119.0895
L82.1022 118.2895
" />
<path d="M81.3022 119.0895
L81.3022 119.4395
" />
<path d="M80.3022 120.4395
L77.3022 120.4395
" />
<path d="M76.5022 121.2395
L76.5022 121.8395
" />
<path d="M76.5022 121.8395
L74.6482 121.8395
" />
<path d="M76.2482 124.3895
L76.2482 123.7895
" />
<path d="M76.2482 125.0895
L80.3522 125.0895
" />
<path d="M76.2482 125.0895
L76.2482 124.3895
" />
<path d="M74.6482 121.8395
L74.6482 123.7895
" />
<path d="M74.6482 123.7895
L76.2482 123.7895
" />
<path d="M83.4522 122.9395 A2.6255 2.6255 0.0 0 0 81.2968 124.4315" />
<path d="M80.3522 125.0895 A1.0000 1.0000 0.0 0 0 81.2919 124.4315" />
<path d="M80.3022 120.4395 A1.0000 1.0000 0.0 0 0 81.3022 119.4395" />
<path d="M77.3022 120.4395 A0.8000 0.8000 0.0 0 0 76.5022 121.2395" />
<path d="M136.9522 30.3450
L128.3522 30.3450
" />
<path d="M136.9522 37.7450
L136.9522 30.3450
" />
<path d="M128.3522 30.3450
L128.3522 37.7450
" />
<path d="M128.3522 37.7450
L136.9522 37.7450
" />
<path d="M51.8562 51.6395
L50.0522 51.6395
" />
<path d="M51.8562 53.5895
L51.8562 51.6395
" />
<path d="M51.8562 53.5895
L50.0522 53.5895
" />
<path d="M50.0522 51.0895
L50.0522 51.6395
" />
<path d="M50.0522 51.0895
L49.2522 50.2895
" />
<path d="M50.0522 53.5895
L50.0522 54.1395
" />
<path d="M49.2522 50.2895
L46.1022 50.2895
" />
<path d="M49.2522 54.9395
L50.0522 54.1395
" />
<path d="M49.2522 54.9395
L47.4522 54.9395
" />
<path d="M45.3022 51.0895
L46.1022 50.2895
" />
<path d="M45.3022 51.0895
L45.3022 51.4395
" />
<path d="M44.3022 52.4395
L41.3022 52.4395
" />
<path d="M40.5022 53.2395
L40.5022 53.8395
" />
<path d="M40.5022 53.8395
L38.6482 53.8395
" />
<path d="M40.2482 56.3895
L40.2482 55.7895
" />
<path d="M40.2482 57.0895
L44.3522 57.0895
" />
<path d="M40.2482 57.0895
L40.2482 56.3895
" />
<path d="M38.6482 53.8395
L38.6482 55.7895
" />
<path d="M38.6482 55.7895
L40.2482 55.7895
" />
<path d="M47.4522 54.9395 A2.6255 2.6255 0.0 0 0 45.2968 56.4315" />
<path d="M44.3522 57.0895 A1.0000 1.0000 0.0 0 0 45.2919 56.4315" />
<path d="M44.3022 52.4395 A1.0000 1.0000 0.0 0 0 45.3022 51.4395" />
<path d="M41.3022 52.4395 A0.8000 0.8000 0.0 0 0 40.5022 53.2395" />
<path d="M195.8562 51.6395
L194.0522 51.6395
" />
<path d="M195.8562 53.5895
L195.8562 51.6395
" />
<path d="M195.8562 53.5895
L194.0522 53.5895
" />
<path d="M194.0522 51.0895
L194.0522 51.6395
" />
<path d="M194.0522 51.0895
L193.2522 50.2895
" />
<path d="M194.0522 53.5895
L194.0522 54.1395
" />
<path d="M193.2522 50.2895
L190.1022 50.2895
" />
<path d="M193.2522 54.9395
L194.0522 54.1395
" />
<path d="M193.2522 54.9395
L191.4522 54.9395
" />
<path d="M189.3022 51.0895
L190.1022 50.2895
" />
<path d="M189.3022 51.0895
L189.3022 51.4395
" />
<path d="M188.3022 52.4395
L185.3022 52.4395
" />
<path d="M184.5022 53.2395
L184.5022 53.8395
" />
<path d="M184.5022 53.8395
L182.6482 53.8395
" />
<path d="M184.2482 56.3895
L184.2482 55.7895
" />
<path d="M184.2482 57.0895
L188.3522 57.0895
" />
<path d="M184.2482 57.0895
L184.2482 56.3895
" />
<path d="M182.6482 53.8395
L182.6482 55.7895
" />
<path d="M182.6482 55.7895
L184.2482 55.7895
" />
<path d="M191.4522 54.9395 A2.6255 2.6255 0.0 0 0 189.2968 56.4315" />
<path d="M188.3522 57.0895 A1.0000 1.0000 0.0 0 0 189.2919 56.4315" />
<path d="M188.3022 52.4395 A1.0000 1.0000 0.0 0 0 189.3022 51.4395" />
<path d="M185.3022 52.4395 A0.8000 0.8000 0.0 0 0 184.5022 53.2395" />
<path d="M159.8562 51.6395
L158.0522 51.6395
" />
<path d="M159.8562 53.5895
L159.8562 51.6395
" />
<path d="M159.8562 53.5895
L158.0522 53.5895
" />
<path d="M158.0522 51.0895
L158.0522 51.6395
" />
<path d="M158.0522 51.0895
L157.2522 50.2895
" />
<path d="M158.0522 53.5895
L158.0522 54.1395
" />
<path d="M157.2522 50.2895
L154.1022 50.2895
" />
<path d="M157.2522 54.9395
L158.0522 54.1395
" />
<path d="M157.2522 54.9395
L155.4522 54.9395
" />
<path d="M153.3022 51.0895
L154.1022 50.2895
" />
<path d="M153.3022 51.0895
L153.3022 51.4395
" />
<path d="M152.3022 52.4395
L149.3022 52.4395
" />
<path d="M148.5022 53.2395
L148.5022 53.8395
" />
<path d="M148.5022 53.8395
L146.6482 53.8395
" />
<path d="M148.2482 56.3895
L148.2482 55.7895
" />
<path d="M148.2482 57.0895
L152.3522 57.0895
" />
<path d="M148.2482 57.0895
L148.2482 56.3895
" />
<path d="M146.6482 53.8395
L146.6482 55.7895
" />
<path d="M146.6482 55.7895
L148.2482 55.7895
" />
<path d="M155.4522 54.9395 A2.6255 2.6255 0.0 0 0 153.2968 56.4315" />
<path d="M152.3522 57.0895 A1.0000 1.0000 0.0 0 0 153.2919 56.4315" />
<path d="M152.3022 52.4395 A1.0000 1.0000 0.0 0 0 153.3022 51.4395" />
<path d="M149.3022 52.4395 A0.8000 0.8000 0.0 0 0 148.5022 53.2395" />
<path d="M123.8562 51.6395
L122.0522 51.6395
" />
<path d="M123.8562 53.5895
L123.8562 51.6395
" />
<path d="M123.8562 53.5895
L122.0522 53.5895
" />
<path d="M122.0522 51.0895
L122.0522 51.6395
" />
<path d="M122.0522 51.0895
L121.2522 50.2895
" />
<path d="M122.0522 53.5895
L122.0522 54.1395
" />
<path d="M121.2522 50.2895
L118.1022 50.2895
" />
<path d="M121.2522 54.9395
L122.0522 54.1395
" />
<path d="M121.2522 54.9395
L119.4522 54.9395
" />
<path d="M117.3022 51.0895
L118.1022 50.2895
" />
<path d="M117.3022 51.0895
L117.3022 51.4395
" />
<path d="M116.3022 52.4395
L113.3022 52.4395
" />
<path d="M112.5022 53.2395
L112.5022 53.8395
" />
<path d="M112.5022 53.8395
L110.6482 53.8395
" />
<path d="M112.2482 56.3895
L112.2482 55.7895
" />
<path d="M112.2482 57.0895
L116.3522 57.0895
" />
<path d="M112.2482 57.0895
L112.2482 56.3895
" />
<path d="M110.6482 53.8395
L110.6482 55.7895
" />
<path d="M110.6482 55.7895
L112.2482 55.7895
" />
<path d="M119.4522 54.9395 A2.6255 2.6255 0.0 0 0 117.2968 56.4315" />
<path d="M116.3522 57.0895 A1.0000 1.0000 0.0 0 0 117.2919 56.4315" />
<path d="M116.3022 52.4395 A1.0000 1.0000 0.0 0 0 117.3022 51.4395" />
<path d="M113.3022 52.4395 A0.8000 0.8000 0.0 0 0 112.5022 53.2395" />
<path d="M69.8562 51.6395
L68.0522 51.6395
" />
<path d="M69.8562 53.5895
L69.8562 51.6395
" />
<path d="M69.8562 53.5895
L68.0522 53.5895
" />
<path d="M68.0522 51.0895
L68.0522 51.6395
" />
<path d="M68.0522 51.0895
L67.2522 50.2895
" />
<path d="M68.0522 53.5895
L68.0522 54.1395
" />
<path d="M67.2522 50.2895
L64.1022 50.2895
" />
<path d="M67.2522 54.9395
L68.0522 54.1395
" />
<path d="M67.2522 54.9395
L65.4522 54.9395
" />
<path d="M63.3022 51.0895
L64.1022 50.2895
" />
<path d="M63.3022 51.0895
L63.3022 51.4395
" />
<path d="M62.3022 52.4395
L59.3022 52.4395
" />
<path d="M58.5022 53.2395
L58.5022 53.8395
" />
<path d="M58.5022 53.8395
L56.6482 53.8395
" />
<path d="M58.2482 56.3895
L58.2482 55.7895
" />
<path d="M58.2482 57.0895
L62.3522 57.0895
" />
<path d="M58.2482 57.0895
L58.2482 56.3895
" />
<path d="M56.6482 53.8395
L56.6482 55.7895
" />
<path d="M56.6482 55.7895
L58.2482 55.7895
" />
<path d="M65.4522 54.9395 A2.6255 2.6255 0.0 0 0 63.2968 56.4315" />
<path d="M62.3522 57.0895 A1.0000 1.0000 0.0 0 0 63.2919 56.4315" />
<path d="M62.3022 52.4395 A1.0000 1.0000 0.0 0 0 63.3022 51.4395" />
<path d="M59.3022 52.4395 A0.8000 0.8000 0.0 0 0 58.5022 53.2395" />
<path d="M105.8562 51.6395
L104.0522 51.6395
" />
<path d="M105.8562 53.5895
L105.8562 51.6395
" />
<path d="M105.8562 53.5895
L104.0522 53.5895
" />
<path d="M104.0522 51.0895
L104.0522 51.6395
" />
<path d="M104.0522 51.0895
L103.2522 50.2895
" />
<path d="M104.0522 53.5895
L104.0522 54.1395
" />
<path d="M103.2522 50.2895
L100.1022 50.2895
" />
<path d="M103.2522 54.9395
L104.0522 54.1395
" />
<path d="M103.2522 54.9395
L101.4522 54.9395
" />
<path d="M99.3022 51.0895
L100.1022 50.2895
" />
<path d="M99.3022 51.0895
L99.3022 51.4395
" />
<path d="M98.3022 52.4395
L95.3022 52.4395
" />
<path d="M94.5022 53.2395
L94.5022 53.8395
" />
<path d="M94.5022 53.8395
L92.6482 53.8395
" />
<path d="M94.2482 56.3895
L94.2482 55.7895
" />
<path d="M94.2482 57.0895
L98.3522 57.0895
" />
<path d="M94.2482 57.0895
L94.2482 56.3895
" />
<path d="M92.6482 53.8395
L92.6482 55.7895
" />
<path d="M92.6482 55.7895
L94.2482 55.7895
" />
<path d="M101.4522 54.9395 A2.6255 2.6255 0.0 0 0 99.2968 56.4315" />
<path d="M98.3522 57.0895 A1.0000 1.0000 0.0 0 0 99.2919 56.4315" />
<path d="M98.3022 52.4395 A1.0000 1.0000 0.0 0 0 99.3022 51.4395" />
<path d="M95.3022 52.4395 A0.8000 0.8000 0.0 0 0 94.5022 53.2395" />
<path d="M213.8562 51.6395
L212.0522 51.6395
" />
<path d="M213.8562 53.5895
L213.8562 51.6395
" />
<path d="M213.8562 53.5895
L212.0522 53.5895
" />
<path d="M212.0522 51.0895
L212.0522 51.6395
" />
<path d="M212.0522 51.0895
L211.2522 50.2895
" />
<path d="M212.0522 53.5895
L212.0522 54.1395
" />
<path d="M211.2522 50.2895
L208.1022 50.2895
" />
<path d="M211.2522 54.9395
L212.0522 54.1395
" />
<path d="M211.2522 54.9395
L209.4522 54.9395
" />
<path d="M207.3022 51.0895
L208.1022 50.2895
" />
<path d="M207.3022 51.0895
L207.3022 51.4395
" />
<path d="M206.3022 52.4395
L203.3022 52.4395
" />
<path d="M202.5022 53.2395
L202.5022 53.8395
" />
<path d="M202.5022 53.8395
L200.6482 53.8395
" />
<path d="M202.2482 56.3895
L202.2482 55.7895
" />
<path d="M202.2482 57.0895
L206.3522 57.0895
" />
<path d="M202.2482 57.0895
L202.2482 56.3895
" />
<path d="M200.6482 53.8395
L200.6482 55.7895
" />
<path d="M200.6482 55.7895
L202.2482 55.7895
" />
<path d="M209.4522 54.9395 A2.6255 2.6255 0.0 0 0 207.2968 56.4315" />
<path d="M206.3522 57.0895 A1.0000 1.0000 0.0 0 0 207.2919 56.4315" />
<path d="M206.3022 52.4395 A1.0000 1.0000 0.0 0 0 207.3022 51.4395" />
<path d="M203.3022 52.4395 A0.8000 0.8000 0.0 0 0 202.5022 53.2395" />
<path d="M177.8562 51.6395
L176.0522 51.6395
" />
<path d="M177.8562 53.5895
L177.8562 51.6395
" />
<path d="M177.8562 53.5895
L176.0522 53.5895
" />
<path d="M176.0522 51.0895
L176.0522 51.6395
" />
<path d="M176.0522 51.0895
L175.2522 50.2895
" />
<path d="M176.0522 53.5895
L176.0522 54.1395
" />
<path d="M175.2522 50.2895
L172.1022 50.2895
" />
<path d="M175.2522 54.9395
L176.0522 54.1395
" />
<path d="M175.2522 54.9395
L173.4522 54.9395
" />
<path d="M171.3022 51.0895
L172.1022 50.2895
" />
<path d="M171.3022 51.0895
L171.3022 51.4395
" />
<path d="M170.3022 52.4395
L167.3022 52.4395
" />
<path d="M166.5022 53.2395
L166.5022 53.8395
" />
<path d="M166.5022 53.8395
L164.6482 53.8395
" />
<path d="M166.2482 56.3895
L166.2482 55.7895
" />
<path d="M166.2482 57.0895
L170.3522 57.0895
" />
<path d="M166.2482 57.0895
L166.2482 56.3895
" />
<path d="M164.6482 53.8395
L164.6482 55.7895
" />
<path d="M164.6482 55.7895
L166.2482 55.7895
" />
<path d="M173.4522 54.9395 A2.6255 2.6255 0.0 0 0 171.2968 56.4315" />
<path d="M170.3522 57.0895 A1.0000 1.0000 0.0 0 0 171.2919 56.4315" />
<path d="M170.3022 52.4395 A1.0000 1.0000 0.0 0 0 171.3022 51.4395" />
<path d="M167.3022 52.4395 A0.8000 0.8000 0.0 0 0 166.5022 53.2395" />
<path d="M51.8562 119.6395
L50.0522 119.6395
" />
<path d="M51.8562 121.5895
L51.8562 119.6395
" />
<path d="M51.8562 121.5895
L50.0522 121.5895
" />
<path d="M50.0522 119.0895
L50.0522 119.6395
" />
<path d="M50.0522 119.0895
L49.2522 118.2895
" />
<path d="M50.0522 121.5895
L50.0522 122.1395
" />
<path d="M49.2522 118.2895
L46.1022 118.2895
" />
<path d="M49.2522 122.9395
L50.0522 122.1395
" />
<path d="M49.2522 122.9395
L47.4522 122.9395
" />
<path d="M45.3022 119.0895
L46.1022 118.2895
" />
<path d="M45.3022 119.0895
L45.3022 119.4395
" />
<path d="M44.3022 120.4395
L41.3022 120.4395
" />
<path d="M40.5022 121.2395
L40.5022 121.8395
" />
<path d="M40.5022 121.8395
L38.6482 121.8395
" />
<path d="M40.2482 124.3895
L40.2482 123.7895
" />
<path d="M40.2482 125.0895
L44.3522 125.0895
" />
<path d="M40.2482 125.0895
L40.2482 124.3895
" />
<path d="M38.6482 121.8395
L38.6482 123.7895
" />
<path d="M38.6482 123.7895
L40.2482 123.7895
" />
<path d="M47.4522 122.9395 A2.6255 2.6255 0.0 0 0 45.2968 124.4315" />
<path d="M44.3522 125.0895 A1.0000 1.0000 0.0 0 0 45.2919 124.4315" />
<path d="M44.3022 120.4395 A1.0000 1.0000 0.0 0 0 45.3022 119.4395" />
<path d="M41.3022 120.4395 A0.8000 0.8000 0.0 0 0 40.5022 121.2395" />
<path d="M159.8562 119.6395
L158.0522 119.6395
" />
<path d="M159.8562 121.5895
L159.8562 119.6395
" />
<path d="M159.8562 121.5895
L158.0522 121.5895
" />
<path d="M158.0522 119.0895
L158.0522 119.6395
" />
<path d="M158.0522 119.0895
L157.2522 118.2895
" />
<path d="M158.0522 121.5895
L158.0522 122.1395
" />
<path d="M157.2522 118.2895
L154.1022 118.2895
" />
<path d="M157.2522 122.9395
L158.0522 122.1395
" />
<path d="M157.2522 122.9395
L155.4522 122.9395
" />
<path d="M153.3022 119.0895
L154.1022 118.2895
" />
<path d="M153.3022 119.0895
L153.3022 119.4395
" />
<path d="M152.3022 120.4395
L149.3022 120.4395
" />
<path d="M148.5022 121.2395
L148.5022 121.8395
" />
<path d="M148.5022 121.8395
L146.6482 121.8395
" />
<path d="M148.2482 124.3895
L148.2482 123.7895
" />
<path d="M148.2482 125.0895
L152.3522 125.0895
" />
<path d="M148.2482 125.0895
L148.2482 124.3895
" />
<path d="M146.6482 121.8395
L146.6482 123.7895
" />
<path d="M146.6482 123.7895
L148.2482 123.7895
" />
<path d="M155.4522 122.9395 A2.6255 2.6255 0.0 0 0 153.2968 124.4315" />
<path d="M152.3522 125.0895 A1.0000 1.0000 0.0 0 0 153.2919 124.4315" />
<path d="M152.3022 120.4395 A1.0000 1.0000 0.0 0 0 153.3022 119.4395" />
<path d="M149.3022 120.4395 A0.8000 0.8000 0.0 0 0 148.5022 121.2395" />
<path d="M141.8562 51.6395
L140.0522 51.6395
" />
<path d="M141.8562 53.5895
L141.8562 51.6395
" />
<path d="M141.8562 53.5895
L140.0522 53.5895
" />
<path d="M140.0522 51.0895
L140.0522 51.6395
" />
<path d="M140.0522 51.0895
L139.2522 50.2895
" />
<path d="M140.0522 53.5895
L140.0522 54.1395
" />
<path d="M139.2522 50.2895
L136.1022 50.2895
" />
<path d="M139.2522 54.9395
L140.0522 54.1395
" />
<path d="M139.2522 54.9395
L137.4522 54.9395
" />
<path d="M135.3022 51.0895
L136.1022 50.2895
" />
<path d="M135.3022 51.0895
L135.3022 51.4395
" />
<path d="M134.3022 52.4395
L131.3022 52.4395
" />
<path d="M130.5022 53.2395
L130.5022 53.8395
" />
<path d="M130.5022 53.8395
L128.6482 53.8395
" />
<path d="M130.2482 56.3895
L130.2482 55.7895
" />
<path d="M130.2482 57.0895
L134.3522 57.0895
" />
<path d="M130.2482 57.0895
L130.2482 56.3895
" />
<path d="M128.6482 53.8395
L128.6482 55.7895
" />
<path d="M128.6482 55.7895
L130.2482 55.7895
" />
<path d="M137.4522 54.9395 A2.6255 2.6255 0.0 0 0 135.2968 56.4315" />
<path d="M134.3522 57.0895 A1.0000 1.0000 0.0 0 0 135.2919 56.4315" />
<path d="M134.3022 52.4395 A1.0000 1.0000 0.0 0 0 135.3022 51.4395" />
<path d="M131.3022 52.4395 A0.8000 0.8000 0.0 0 0 130.5022 53.2395" />
<path d="M69.8562 119.6395
L68.0522 119.6395
" />
<path d="M69.8562 121.5895
L69.8562 119.6395
" />
<path d="M69.8562 121.5895
L68.0522 121.5895
" />
<path d="M68.0522 119.0895
L68.0522 119.6395
" />
<path d="M68.0522 119.0895
L67.2522 118.2895
" />
<path d="M68.0522 121.5895
L68.0522 122.1395
" />
<path d="M67.2522 118.2895
L64.1022 118.2895
" />
<path d="M67.2522 122.9395
L68.0522 122.1395
" />
<path d="M67.2522 122.9395
L65.4522 122.9395
" />
<path d="M63.3022 119.0895
L64.1022 118.2895
" />
<path d="M63.3022 119.0895
L63.3022 119.4395
" />
<path d="M62.3022 120.4395
L59.3022 120.4395
" />
<path d="M58.5022 121.2395
L58.5022 121.8395
" />
<path d="M58.5022 121.8395
L56.6482 121.8395
" />
<path d="M58.2482 124.3895
L58.2482 123.7895
" />
<path d="M58.2482 125.0895
L62.3522 125.0895
" />
<path d="M58.2482 125.0895
L58.2482 124.3895
" />
<path d="M56.6482 121.8395
L56.6482 123.7895
" />
<path d="M56.6482 123.7895
L58.2482 123.7895
" />
<path d="M65.4522 122.9395 A2.6255 2.6255 0.0 0 0 63.2968 124.4315" />
<path d="M62.3522 125.0895 A1.0000 1.0000 0.0 0 0 63.2919 124.4315" />
<path d="M62.3022 120.4395 A1.0000 1.0000 0.0 0 0 63.3022 119.4395" />
<path d="M59.3022 120.4395 A0.8000 0.8000 0.0 0 0 58.5022 121.2395" />
<path d="M118.6272 37.7500
L127.8272 37.7500
" />
<path d="M118.6272 27.5500
L118.6272 37.7500
" />
<path d="M127.8272 37.7500
L127.8272 27.5500
" />
<path d="M127.8272 27.5500
L118.6272 27.5500
" />
<g >
</g>
<g >
</g>
<g >
</g>
<g >
</g>
<g >
</g>
<g >
</g>
<g >
</g>
<g >
</g>
<g >
</g>
<g >
</g>
<g >
</g>
<g >
</g>
<g >
</g>
<g >
</g>
<g >
</g>
<g >
</g>
<g >
</g>
<g >
</g>
<g >
</g>
<g >
</g>
<g >
</g>
<g >
</g>
<g >
</g>
<g >
</g>
<g >
</g>
<g >
</g>
<g >
</g>
<g >
</g>
<g >
</g>
<g >
</g>
<g >
</g>
<g >
</g>
<g >
</g>
<g >
</g>
<g >
</g>
<g >
</g>
<g >
</g>
<g >
</g>
<g >
</g>
<g >
</g>
<g >
</g>
<g >
</g>
<g >
</g>
<g >
</g>
<g >
</g>
<g >
</g>
<g >
</g>
<g >
</g>
<g >
</g>
<g >
</g>
<g >
</g>
<g >
</g>
<g >
</g>
<g >
</g>
<g >
</g>
<g >
</g>
<g >
</g>
<g >
</g>
<g >
</g>
<g >
</g>
<g >
</g>
<g >
</g>
<g >
</g>
<g >
</g>
<g >
</g>
<g >
</g>
<g >
</g>
<g >
</g>
<g >
</g>
<g >
</g>
<g >
</g>
<g >
</g>
<g >
</g>
<g >
</g>
<g >
</g>
<g >
</g>
<g >
</g>
<g >
</g>
<g >
</g>
<g >
</g>
<g >
</g>
<g >
</g>
<g >
</g>
<g >
</g>
<g >
</g>
<g >
</g>
<g >
</g>
<g >
</g>
<g >
</g>
<g >
</g>
<g >
</g>
<g >
</g>
<g >
</g>
<g >
</g>
<g >
</g>
<g >
</g>
<g >
</g>
<g >
</g>
<g >
</g>
<g >
</g>
<g >
</g>
<g >
</g>
<g >
</g>
<g >
</g>
<g >
</g>
<g >
</g>
<g >
</g>
<g >
</g>
<g >
</g>
<g >
</g>
<g >
</g>
<g >
</g>
<g >
</g>
<g >
</g>
<g >
</g>
<g >
</g>
<g >
</g>
<g >
</g>
<g >
</g>
<g >
</g>
<g >
</g>
<g >
</g>
<g >
</g>
<g >
</g>
<g >
</g>
<g >
</g>
<g >
</g>
<g >
</g>
<g >
</g>
<g >
</g>
<g >
</g>
<g >
</g>
<g >
</g>
<g >
</g>
<g >
</g>
<g >
</g>
<g >
</g>
<g >
</g>
<g >
</g>
<g >
</g>
<g >
</g>
<g >
</g>
</g> 
</svg>
