<?xml version="1.0" standalone="no"?>
 <!DOCTYPE svg PUBLIC "-//W3C//DTD SVG 1.1//EN" 
 "http://www.w3.org/Graphics/SVG/1.1/DTD/svg11.dtd"> 
<svg
  xmlns:svg="http://www.w3.org/2000/svg"
  xmlns="http://www.w3.org/2000/svg"
  xmlns:xlink="http://www.w3.org/1999/xlink"
  version="1.1"
  width="297.0022mm" height="210.0072mm" viewBox="0.0000 0.0000 297.0022 210.0072">
<title>SVG Image created as ergo56-Edge_Cuts.svg date 2023/12/21 16:16:43 </title>
  <desc>Image generated by PCBNEW </desc>
<g style="fill:#000000; fill-opacity:1.0000;stroke:#000000; stroke-opacity:1.0000;
stroke-linecap:round; stroke-linejoin:round;"
 transform="translate(0 0) scale(1 1)">
</g>
<g style="fill:#000000; fill-opacity:0.0; 
stroke:#000000; stroke-width:0.0000; stroke-opacity:1; 
stroke-linecap:round; stroke-linejoin:round;">
</g>
<g style="fill:#000000; fill-opacity:0.0; 
stroke:#000000; stroke-width:0.1890; stroke-opacity:1; 
stroke-linecap:round; stroke-linejoin:round;">
<path d="M72.1430 116.4644 A1.0001 1.0001 0.0 0 0 71.4019 115.4992" />
<path d="M254.2620 112.3860
L245.5945 110.0563
" />
<path d="M171.3884 145.9876
L166.3430 146.7563
" />
<path d="M225.2841 115.4989 A1.0000 1.0000 0.0 0 0 224.5429 116.4641" />
<path d="M23.2850 104.6706 A2.5000 2.5000 0.0 0 0 25.0528 107.7325" />
</g>
<g style="fill:#000000; fill-opacity:0.0; 
stroke:#000000; stroke-width:0.0500; stroke-opacity:1; 
stroke-linecap:round; stroke-linejoin:round;">
<path d="M152.5014 53.8305
L151.9808 53.9941
" />
<path d="M149.8635 70.7885 A2.6790 2.6790 0.0 0 0 147.1082 70.7653" />
<path d="M149.6888 110.1294
L149.8636 70.7885
" />
</g>
<g style="fill:#000000; fill-opacity:0.0; 
stroke:#000000; stroke-width:0.1890; stroke-opacity:1; 
stroke-linecap:round; stroke-linejoin:round;">
<path d="M256.9791 43.3127
L273.4009 104.6703
" />
</g>
<g style="fill:#000000; fill-opacity:0.0; 
stroke:#000000; stroke-width:0.0500; stroke-opacity:1; 
stroke-linecap:round; stroke-linejoin:round;">
<path d="M153.5465 33.3235 A4.5008 4.5008 0.0 0 0 150.3157 37.6415" />
<path d="M176.1352 44.8475 A3.0001 3.0001 0.0 0 0 179.8539 46.9685" />
<path d="M147.0696 61.7715
L147.1546 57.0106
" />
<path d="M153.8394 51.4272
L150.3157 37.6415
" />
<path d="M152.5014 53.8305 A2.0000 2.0000 0.0 0 0 153.8394 51.4272" />
<path d="M146.9425 119.5565
L146.9425 141.7411
" />
</g>
<g style="fill:#000000; fill-opacity:0.0; 
stroke:#000000; stroke-width:0.1890; stroke-opacity:1; 
stroke-linecap:round; stroke-linejoin:round;">
<path d="M147.1546 57.0106 A3.0000 3.0000 0.0 0 0 144.9236 54.0571" />
<path d="M125.2976 145.9876
L72.8841 131.9097
" />
<path d="M223.8019 131.9097 A0.9999 0.9999 0.0 0 0 224.5428 130.9439" />
</g>
<g style="fill:#000000; fill-opacity:0.0; 
stroke:#000000; stroke-width:0.0500; stroke-opacity:1; 
stroke-linecap:round; stroke-linejoin:round;">
<path d="M169.6755 29.2595
L153.5465 33.3235
" />
<path d="M149.6265 141.7429 A4.9999 4.9999 0.0 0 0 154.6264 146.7563" />
</g>
<g style="fill:#000000; fill-opacity:0.0; 
stroke:#000000; stroke-width:0.1890; stroke-opacity:1; 
stroke-linecap:round; stroke-linejoin:round;">
<path d="M72.1432 130.9439
L72.1430 116.4644
" />
<path d="M23.2850 104.6706
L39.7069 43.3130
" />
<path d="M72.1432 130.9439 A1.0000 1.0000 0.0 0 0 72.8841 131.9097" />
<path d="M271.6332 107.7322 A2.4999 2.4999 0.0 0 0 273.4009 104.6703" />
<path d="M179.8539 46.9685
L199.2740 41.4648
" />
</g>
<g style="fill:#000000; fill-opacity:0.0; 
stroke:#000000; stroke-width:0.0500; stroke-opacity:1; 
stroke-linecap:round; stroke-linejoin:round;">
<path d="M172.3554 30.5217 A2.6941 2.6941 0.0 0 0 169.6755 29.2595" />
</g>
<g style="fill:#000000; fill-opacity:0.0; 
stroke:#000000; stroke-width:0.1890; stroke-opacity:1; 
stroke-linecap:round; stroke-linejoin:round;">
<path d="M141.9491 146.7411
L130.3430 146.7563
" />
</g>
<g style="fill:#000000; fill-opacity:0.0; 
stroke:#000000; stroke-width:0.0500; stroke-opacity:1; 
stroke-linecap:round; stroke-linejoin:round;">
<path d="M141.9491 146.7411 A5.0000 5.0000 0.0 0 0 146.9425 141.7411" />
</g>
<g style="fill:#000000; fill-opacity:1.0000; 
stroke:#000000; stroke-width:0.0000; stroke-opacity:1; 
stroke-linecap:round; stroke-linejoin:round;">
<circle cx="97.4119" cy="41.4650" r="0.0945" /> 
</g>
<g style="fill:#000000; fill-opacity:0.0; 
stroke:#000000; stroke-width:0.1890; stroke-opacity:1; 
stroke-linecap:round; stroke-linejoin:round;">
<path d="M42.1237 41.4600 A2.5000 2.5000 0.0 0 0 39.7069 43.3130" />
</g>
<g style="fill:#000000; fill-opacity:0.0; 
stroke:#000000; stroke-width:0.0500; stroke-opacity:1; 
stroke-linecap:round; stroke-linejoin:round;">
<path d="M151.9808 53.9941 A3.0000 3.0000 0.0 0 0 149.8804 56.8788" />
<path d="M149.6265 141.7429
L149.6860 119.5307
" />
<path d="M176.1352 44.8475
L172.3554 30.5217
" />
<path d="M147.0696 110.4125 A1.3678 1.3678 0.0 0 0 149.6888 110.1294" />
</g>
<g style="fill:#000000; fill-opacity:0.0; 
stroke:#000000; stroke-width:0.1890; stroke-opacity:1; 
stroke-linecap:round; stroke-linejoin:round;">
<path d="M97.4119 41.4650
L144.9236 54.0571
" />
<path d="M166.3430 146.7563
L154.6264 146.7563
" />
</g>
<g style="fill:#000000; fill-opacity:0.0; 
stroke:#000000; stroke-width:0.0500; stroke-opacity:1; 
stroke-linecap:round; stroke-linejoin:round;">
<path d="M147.0696 61.7715 A1.8880 1.8880 0.0 0 0 149.9169 61.7102" />
</g>
<g style="fill:#000000; fill-opacity:0.0; 
stroke:#000000; stroke-width:0.1890; stroke-opacity:1; 
stroke-linecap:round; stroke-linejoin:round;">
<path d="M271.6332 107.7322
L254.2620 112.3860
" />
</g>
<g style="fill:#000000; fill-opacity:0.0; 
stroke:#000000; stroke-width:0.0500; stroke-opacity:1; 
stroke-linecap:round; stroke-linejoin:round;">
<path d="M149.9169 61.7102
L149.8804 56.8788
" />
</g>
<g style="fill:#000000; fill-opacity:0.0; 
stroke:#000000; stroke-width:0.1890; stroke-opacity:1; 
stroke-linecap:round; stroke-linejoin:round;">
<path d="M42.1237 41.4600
L97.4119 41.4650
" />
</g>
<g style="fill:#000000; fill-opacity:0.0; 
stroke:#000000; stroke-width:0.0500; stroke-opacity:1; 
stroke-linecap:round; stroke-linejoin:round;">
<path d="M147.0696 110.4125
L147.1082 70.7653
" />
</g>
<g style="fill:#000000; fill-opacity:0.0; 
stroke:#000000; stroke-width:0.1890; stroke-opacity:1; 
stroke-linecap:round; stroke-linejoin:round;">
<path d="M130.3430 146.7563
L125.2976 145.9876
" />
<path d="M71.4019 115.4992
L51.0915 110.0566
" />
<path d="M224.5429 116.4641
L224.5428 130.9439
" />
<path d="M245.5945 110.0563
L225.2841 115.4989
" />
</g>
<g style="fill:#000000; fill-opacity:1.0000; 
stroke:#000000; stroke-width:0.0000; stroke-opacity:1; 
stroke-linecap:round; stroke-linejoin:round;">
<circle cx="181.8904" cy="46.1179" r="0.0945" /> 
</g>
<g style="fill:#000000; fill-opacity:1.0000; 
stroke:#000000; stroke-width:0.1890; stroke-opacity:1; 
stroke-linecap:round; stroke-linejoin:round;">
</g>
<g style="fill:#000000; fill-opacity:0.0; 
stroke:#000000; stroke-width:0.1890; stroke-opacity:1; 
stroke-linecap:round; stroke-linejoin:round;">
<path d="M51.0915 110.0566
L42.4240 112.3863
" />
<path d="M42.4240 112.3863
L25.0528 107.7325
" />
<path d="M256.9791 43.3127 A2.5000 2.5000 0.0 0 0 254.5622 41.4597" />
<path d="M199.2740 41.4648
L254.5622 41.4597
" />
<path d="M223.8019 131.9097
L171.3884 145.9876
" />
</g>
<g style="fill:#000000; fill-opacity:0.0; 
stroke:#000000; stroke-width:0.0500; stroke-opacity:1; 
stroke-linecap:round; stroke-linejoin:round;">
<path d="M149.6860 119.5307 A3.0107 3.0107 0.0 0 0 146.9425 119.5565" />
<g >
</g>
<g >
</g>
<g >
</g>
<g >
</g>
<g >
</g>
<g >
</g>
<g >
</g>
<g >
</g>
<g >
</g>
<g >
</g>
<g >
</g>
<g >
</g>
<g >
</g>
<g >
</g>
<g >
</g>
<g >
</g>
<g >
</g>
<g >
</g>
<g >
</g>
<g >
</g>
<g >
</g>
<g >
</g>
<g >
</g>
<g >
</g>
<g >
</g>
<g >
</g>
<g >
</g>
<g >
</g>
<g >
</g>
<g >
</g>
<g >
</g>
<g >
</g>
<g >
</g>
<g >
</g>
<g >
</g>
<g >
</g>
<g >
</g>
<g >
</g>
<g >
</g>
<g >
</g>
<g >
</g>
<g >
</g>
<g >
</g>
<g >
</g>
<g >
</g>
<g >
</g>
<g >
</g>
<g >
</g>
<g >
</g>
<g >
</g>
<g >
</g>
<g >
</g>
<g >
</g>
<g >
</g>
<g >
</g>
<g >
</g>
<g >
</g>
<g >
</g>
<g >
</g>
<g >
</g>
<g >
</g>
<g >
</g>
<g >
</g>
<g >
</g>
<g >
</g>
<g >
</g>
<g >
</g>
<g >
</g>
<g >
</g>
<g >
</g>
<g >
</g>
<g >
</g>
<g >
</g>
<g >
</g>
<g >
</g>
<g >
</g>
<g >
</g>
<g >
</g>
<g >
</g>
<g >
</g>
<g >
</g>
<g >
</g>
<g >
</g>
<g >
</g>
<g >
</g>
<g >
</g>
<g >
</g>
<g >
</g>
<g >
</g>
<g >
</g>
<g >
</g>
<g >
</g>
<g >
</g>
<g >
</g>
<g >
</g>
<g >
</g>
<g >
</g>
<g >
</g>
<g >
</g>
<g >
</g>
<g >
</g>
<g >
</g>
<g >
</g>
<g >
</g>
<g >
</g>
<g >
</g>
<g >
</g>
<g >
</g>
<g >
</g>
<g >
</g>
<g >
</g>
<g >
</g>
<g >
</g>
<g >
</g>
<g >
</g>
<g >
</g>
<g >
</g>
<g >
</g>
<g >
</g>
<g >
</g>
<g >
</g>
<g >
</g>
<g >
</g>
<g >
</g>
<g >
</g>
<g >
</g>
<g >
</g>
<g >
</g>
<g >
</g>
<g >
</g>
<g >
</g>
<g >
</g>
<g >
</g>
<g >
</g>
</g> 
</svg>
