<?xml version="1.0" standalone="no"?>
 <!DOCTYPE svg PUBLIC "-//W3C//DTD SVG 1.1//EN" 
 "http://www.w3.org/Graphics/SVG/1.1/DTD/svg11.dtd"> 
<svg
  xmlns:svg="http://www.w3.org/2000/svg"
  xmlns="http://www.w3.org/2000/svg"
  xmlns:xlink="http://www.w3.org/1999/xlink"
  version="1.1"
  width="297.0022mm" height="210.0072mm" viewBox="0.0000 0.0000 297.0022 210.0072">
<title>SVG Image created as basic60-User_Eco2.svg date 2023/12/21 23:37:39 </title>
  <desc>Image generated by PCBNEW </desc>
<g style="fill:#000000; fill-opacity:1.0000;stroke:#000000; stroke-opacity:1.0000;
stroke-linecap:round; stroke-linejoin:round;"
 transform="translate(0 0) scale(1 1)">
</g>
<g style="fill:#000000; fill-opacity:0.0; 
stroke:#000000; stroke-width:0.0000; stroke-opacity:1; 
stroke-linecap:round; stroke-linejoin:round;">
</g>
<g style="fill:#000000; fill-opacity:0.0; 
stroke:#000000; stroke-width:0.1500; stroke-opacity:1; 
stroke-linecap:round; stroke-linejoin:round;">
<circle cx="79.5026" cy="111.8740" r="1.1000" /> 
</g>
<g style="fill:#000000; fill-opacity:0.0; 
stroke:#000000; stroke-width:0.0500; stroke-opacity:1; 
stroke-linecap:round; stroke-linejoin:round;">
<path d="M198.7022 116.0145
L198.7022 103.1145
" />
<path d="M198.2022 102.6145
L185.3022 102.6145
" />
<path d="M185.3022 116.5145
L198.2022 116.5145
" />
<path d="M184.8022 103.1145
L184.8022 116.0145
" />
<path d="M198.7022 103.1145 A0.5000 0.5000 0.0 0 0 198.2022 102.6145" />
<path d="M198.2022 116.5145 A0.5000 0.5000 0.0 0 0 198.7022 116.0145" />
<path d="M185.3022 102.6145 A0.5000 0.5000 0.0 0 0 184.8022 103.1145" />
<path d="M184.8022 116.0145 A0.5000 0.5000 0.0 0 0 185.3022 116.5145" />
<path d="M216.7022 116.0145
L216.7022 103.1145
" />
<path d="M216.2022 102.6145
L203.3022 102.6145
" />
<path d="M203.3022 116.5145
L216.2022 116.5145
" />
<path d="M202.8022 103.1145
L202.8022 116.0145
" />
<path d="M216.7022 103.1145 A0.5000 0.5000 0.0 0 0 216.2022 102.6145" />
<path d="M216.2022 116.5145 A0.5000 0.5000 0.0 0 0 216.7022 116.0145" />
<path d="M203.3022 102.6145 A0.5000 0.5000 0.0 0 0 202.8022 103.1145" />
<path d="M202.8022 116.0145 A0.5000 0.5000 0.0 0 0 203.3022 116.5145" />
<path d="M234.7022 116.0145
L234.7022 103.1145
" />
<path d="M234.2022 102.6145
L221.3022 102.6145
" />
<path d="M221.3022 116.5145
L234.2022 116.5145
" />
<path d="M220.8022 103.1145
L220.8022 116.0145
" />
<path d="M234.7022 103.1145 A0.5000 0.5000 0.0 0 0 234.2022 102.6145" />
<path d="M234.2022 116.5145 A0.5000 0.5000 0.0 0 0 234.7022 116.0145" />
<path d="M221.3022 102.6145 A0.5000 0.5000 0.0 0 0 220.8022 103.1145" />
<path d="M220.8022 116.0145 A0.5000 0.5000 0.0 0 0 221.3022 116.5145" />
<path d="M252.7022 116.0145
L252.7022 103.1145
" />
<path d="M252.2022 102.6145
L239.3022 102.6145
" />
<path d="M239.3022 116.5145
L252.2022 116.5145
" />
<path d="M238.8022 103.1145
L238.8022 116.0145
" />
<path d="M252.7022 103.1145 A0.5000 0.5000 0.0 0 0 252.2022 102.6145" />
<path d="M252.2022 116.5145 A0.5000 0.5000 0.0 0 0 252.7022 116.0145" />
<path d="M239.3022 102.6145 A0.5000 0.5000 0.0 0 0 238.8022 103.1145" />
<path d="M238.8022 116.0145 A0.5000 0.5000 0.0 0 0 239.3022 116.5145" />
<path d="M54.7022 99.0145
L54.7022 86.1145
" />
<path d="M54.2022 85.6145
L41.3022 85.6145
" />
<path d="M41.3022 99.5145
L54.2022 99.5145
" />
<path d="M40.8022 86.1145
L40.8022 99.0145
" />
<path d="M54.7022 86.1145 A0.5000 0.5000 0.0 0 0 54.2022 85.6145" />
<path d="M54.2022 99.5145 A0.5000 0.5000 0.0 0 0 54.7022 99.0145" />
<path d="M41.3022 85.6145 A0.5000 0.5000 0.0 0 0 40.8022 86.1145" />
<path d="M40.8022 99.0145 A0.5000 0.5000 0.0 0 0 41.3022 99.5145" />
<path d="M72.7022 99.0145
L72.7022 86.1145
" />
<path d="M72.2022 85.6145
L59.3022 85.6145
" />
<path d="M59.3022 99.5145
L72.2022 99.5145
" />
<path d="M58.8022 86.1145
L58.8022 99.0145
" />
<path d="M72.7022 86.1145 A0.5000 0.5000 0.0 0 0 72.2022 85.6145" />
<path d="M72.2022 99.5145 A0.5000 0.5000 0.0 0 0 72.7022 99.0145" />
<path d="M59.3022 85.6145 A0.5000 0.5000 0.0 0 0 58.8022 86.1145" />
<path d="M58.8022 99.0145 A0.5000 0.5000 0.0 0 0 59.3022 99.5145" />
<path d="M90.7022 99.0145
L90.7022 86.1145
" />
<path d="M90.2022 85.6145
L77.3022 85.6145
" />
<path d="M77.3022 99.5145
L90.2022 99.5145
" />
<path d="M76.8022 86.1145
L76.8022 99.0145
" />
<path d="M90.7022 86.1145 A0.5000 0.5000 0.0 0 0 90.2022 85.6145" />
<path d="M90.2022 99.5145 A0.5000 0.5000 0.0 0 0 90.7022 99.0145" />
<path d="M77.3022 85.6145 A0.5000 0.5000 0.0 0 0 76.8022 86.1145" />
<path d="M76.8022 99.0145 A0.5000 0.5000 0.0 0 0 77.3022 99.5145" />
<path d="M126.7022 99.0145
L126.7022 86.1145
" />
<path d="M126.2022 85.6145
L113.3022 85.6145
" />
<path d="M113.3022 99.5145
L126.2022 99.5145
" />
<path d="M112.8022 86.1145
L112.8022 99.0145
" />
<path d="M126.7022 86.1145 A0.5000 0.5000 0.0 0 0 126.2022 85.6145" />
<path d="M126.2022 99.5145 A0.5000 0.5000 0.0 0 0 126.7022 99.0145" />
<path d="M113.3022 85.6145 A0.5000 0.5000 0.0 0 0 112.8022 86.1145" />
<path d="M112.8022 99.0145 A0.5000 0.5000 0.0 0 0 113.3022 99.5145" />
<path d="M144.7022 99.0145
L144.7022 86.1145
" />
<path d="M144.2022 85.6145
L131.3022 85.6145
" />
<path d="M131.3022 99.5145
L144.2022 99.5145
" />
<path d="M130.8022 86.1145
L130.8022 99.0145
" />
<path d="M144.7022 86.1145 A0.5000 0.5000 0.0 0 0 144.2022 85.6145" />
<path d="M144.2022 99.5145 A0.5000 0.5000 0.0 0 0 144.7022 99.0145" />
<path d="M131.3022 85.6145 A0.5000 0.5000 0.0 0 0 130.8022 86.1145" />
<path d="M130.8022 99.0145 A0.5000 0.5000 0.0 0 0 131.3022 99.5145" />
<path d="M162.7022 99.0145
L162.7022 86.1145
" />
<path d="M162.2022 85.6145
L149.3022 85.6145
" />
<path d="M149.3022 99.5145
L162.2022 99.5145
" />
<path d="M148.8022 86.1145
L148.8022 99.0145
" />
<path d="M162.7022 86.1145 A0.5000 0.5000 0.0 0 0 162.2022 85.6145" />
<path d="M162.2022 99.5145 A0.5000 0.5000 0.0 0 0 162.7022 99.0145" />
<path d="M149.3022 85.6145 A0.5000 0.5000 0.0 0 0 148.8022 86.1145" />
<path d="M148.8022 99.0145 A0.5000 0.5000 0.0 0 0 149.3022 99.5145" />
<path d="M144.7022 82.0145
L144.7022 69.1145
" />
<path d="M144.2022 68.6145
L131.3022 68.6145
" />
<path d="M131.3022 82.5145
L144.2022 82.5145
" />
<path d="M130.8022 69.1145
L130.8022 82.0145
" />
<path d="M144.7022 69.1145 A0.5000 0.5000 0.0 0 0 144.2022 68.6145" />
<path d="M144.2022 82.5145 A0.5000 0.5000 0.0 0 0 144.7022 82.0145" />
<path d="M131.3022 68.6145 A0.5000 0.5000 0.0 0 0 130.8022 69.1145" />
<path d="M130.8022 82.0145 A0.5000 0.5000 0.0 0 0 131.3022 82.5145" />
<path d="M108.7022 99.0145
L108.7022 86.1145
" />
<path d="M108.2022 85.6145
L95.3022 85.6145
" />
<path d="M95.3022 99.5145
L108.2022 99.5145
" />
<path d="M94.8022 86.1145
L94.8022 99.0145
" />
<path d="M108.7022 86.1145 A0.5000 0.5000 0.0 0 0 108.2022 85.6145" />
<path d="M108.2022 99.5145 A0.5000 0.5000 0.0 0 0 108.7022 99.0145" />
<path d="M95.3022 85.6145 A0.5000 0.5000 0.0 0 0 94.8022 86.1145" />
<path d="M94.8022 99.0145 A0.5000 0.5000 0.0 0 0 95.3022 99.5145" />
<path d="M180.7022 99.0145
L180.7022 86.1145
" />
<path d="M180.2022 85.6145
L167.3022 85.6145
" />
<path d="M167.3022 99.5145
L180.2022 99.5145
" />
<path d="M166.8022 86.1145
L166.8022 99.0145
" />
<path d="M180.7022 86.1145 A0.5000 0.5000 0.0 0 0 180.2022 85.6145" />
<path d="M180.2022 99.5145 A0.5000 0.5000 0.0 0 0 180.7022 99.0145" />
<path d="M167.3022 85.6145 A0.5000 0.5000 0.0 0 0 166.8022 86.1145" />
<path d="M166.8022 99.0145 A0.5000 0.5000 0.0 0 0 167.3022 99.5145" />
<path d="M198.7022 99.0145
L198.7022 86.1145
" />
<path d="M198.2022 85.6145
L185.3022 85.6145
" />
<path d="M185.3022 99.5145
L198.2022 99.5145
" />
<path d="M184.8022 86.1145
L184.8022 99.0145
" />
<path d="M198.7022 86.1145 A0.5000 0.5000 0.0 0 0 198.2022 85.6145" />
<path d="M198.2022 99.5145 A0.5000 0.5000 0.0 0 0 198.7022 99.0145" />
<path d="M185.3022 85.6145 A0.5000 0.5000 0.0 0 0 184.8022 86.1145" />
<path d="M184.8022 99.0145 A0.5000 0.5000 0.0 0 0 185.3022 99.5145" />
<path d="M216.7022 99.0145
L216.7022 86.1145
" />
<path d="M216.2022 85.6145
L203.3022 85.6145
" />
<path d="M203.3022 99.5145
L216.2022 99.5145
" />
<path d="M202.8022 86.1145
L202.8022 99.0145
" />
<path d="M216.7022 86.1145 A0.5000 0.5000 0.0 0 0 216.2022 85.6145" />
<path d="M216.2022 99.5145 A0.5000 0.5000 0.0 0 0 216.7022 99.0145" />
<path d="M203.3022 85.6145 A0.5000 0.5000 0.0 0 0 202.8022 86.1145" />
<path d="M202.8022 99.0145 A0.5000 0.5000 0.0 0 0 203.3022 99.5145" />
<path d="M234.7022 99.0145
L234.7022 86.1145
" />
<path d="M234.2022 85.6145
L221.3022 85.6145
" />
<path d="M221.3022 99.5145
L234.2022 99.5145
" />
<path d="M220.8022 86.1145
L220.8022 99.0145
" />
<path d="M234.7022 86.1145 A0.5000 0.5000 0.0 0 0 234.2022 85.6145" />
<path d="M234.2022 99.5145 A0.5000 0.5000 0.0 0 0 234.7022 99.0145" />
<path d="M221.3022 85.6145 A0.5000 0.5000 0.0 0 0 220.8022 86.1145" />
<path d="M220.8022 99.0145 A0.5000 0.5000 0.0 0 0 221.3022 99.5145" />
<path d="M252.7022 99.0145
L252.7022 86.1145
" />
<path d="M252.2022 85.6145
L239.3022 85.6145
" />
<path d="M239.3022 99.5145
L252.2022 99.5145
" />
<path d="M238.8022 86.1145
L238.8022 99.0145
" />
<path d="M252.7022 86.1145 A0.5000 0.5000 0.0 0 0 252.2022 85.6145" />
<path d="M252.2022 99.5145 A0.5000 0.5000 0.0 0 0 252.7022 99.0145" />
<path d="M239.3022 85.6145 A0.5000 0.5000 0.0 0 0 238.8022 86.1145" />
<path d="M238.8022 99.0145 A0.5000 0.5000 0.0 0 0 239.3022 99.5145" />
<path d="M54.7022 82.0145
L54.7022 69.1145
" />
<path d="M54.2022 68.6145
L41.3022 68.6145
" />
<path d="M41.3022 82.5145
L54.2022 82.5145
" />
<path d="M40.8022 69.1145
L40.8022 82.0145
" />
<path d="M54.7022 69.1145 A0.5000 0.5000 0.0 0 0 54.2022 68.6145" />
<path d="M54.2022 82.5145 A0.5000 0.5000 0.0 0 0 54.7022 82.0145" />
<path d="M41.3022 68.6145 A0.5000 0.5000 0.0 0 0 40.8022 69.1145" />
<path d="M40.8022 82.0145 A0.5000 0.5000 0.0 0 0 41.3022 82.5145" />
<path d="M180.7022 133.0145
L180.7022 120.1145
" />
<path d="M180.2022 119.6145
L167.3022 119.6145
" />
<path d="M167.3022 133.5145
L180.2022 133.5145
" />
<path d="M166.8022 120.1145
L166.8022 133.0145
" />
<path d="M180.7022 120.1145 A0.5000 0.5000 0.0 0 0 180.2022 119.6145" />
<path d="M180.2022 133.5145 A0.5000 0.5000 0.0 0 0 180.7022 133.0145" />
<path d="M167.3022 119.6145 A0.5000 0.5000 0.0 0 0 166.8022 120.1145" />
<path d="M166.8022 133.0145 A0.5000 0.5000 0.0 0 0 167.3022 133.5145" />
<path d="M72.7022 82.0145
L72.7022 69.1145
" />
<path d="M72.2022 68.6145
L59.3022 68.6145
" />
<path d="M59.3022 82.5145
L72.2022 82.5145
" />
<path d="M58.8022 69.1145
L58.8022 82.0145
" />
<path d="M72.7022 69.1145 A0.5000 0.5000 0.0 0 0 72.2022 68.6145" />
<path d="M72.2022 82.5145 A0.5000 0.5000 0.0 0 0 72.7022 82.0145" />
<path d="M59.3022 68.6145 A0.5000 0.5000 0.0 0 0 58.8022 69.1145" />
<path d="M58.8022 82.0145 A0.5000 0.5000 0.0 0 0 59.3022 82.5145" />
<path d="M252.7022 82.0145
L252.7022 69.1145
" />
<path d="M252.2022 68.6145
L239.3022 68.6145
" />
<path d="M239.3022 82.5145
L252.2022 82.5145
" />
<path d="M238.8022 69.1145
L238.8022 82.0145
" />
<path d="M252.7022 69.1145 A0.5000 0.5000 0.0 0 0 252.2022 68.6145" />
<path d="M252.2022 82.5145 A0.5000 0.5000 0.0 0 0 252.7022 82.0145" />
<path d="M239.3022 68.6145 A0.5000 0.5000 0.0 0 0 238.8022 69.1145" />
<path d="M238.8022 82.0145 A0.5000 0.5000 0.0 0 0 239.3022 82.5145" />
<path d="M180.7022 82.0145
L180.7022 69.1145
" />
<path d="M180.2022 68.6145
L167.3022 68.6145
" />
<path d="M167.3022 82.5145
L180.2022 82.5145
" />
<path d="M166.8022 69.1145
L166.8022 82.0145
" />
<path d="M180.7022 69.1145 A0.5000 0.5000 0.0 0 0 180.2022 68.6145" />
<path d="M180.2022 82.5145 A0.5000 0.5000 0.0 0 0 180.7022 82.0145" />
<path d="M167.3022 68.6145 A0.5000 0.5000 0.0 0 0 166.8022 69.1145" />
<path d="M166.8022 82.0145 A0.5000 0.5000 0.0 0 0 167.3022 82.5145" />
<path d="M198.7022 82.0145
L198.7022 69.1145
" />
<path d="M198.2022 68.6145
L185.3022 68.6145
" />
<path d="M185.3022 82.5145
L198.2022 82.5145
" />
<path d="M184.8022 69.1145
L184.8022 82.0145
" />
<path d="M198.7022 69.1145 A0.5000 0.5000 0.0 0 0 198.2022 68.6145" />
<path d="M198.2022 82.5145 A0.5000 0.5000 0.0 0 0 198.7022 82.0145" />
<path d="M185.3022 68.6145 A0.5000 0.5000 0.0 0 0 184.8022 69.1145" />
<path d="M184.8022 82.0145 A0.5000 0.5000 0.0 0 0 185.3022 82.5145" />
<path d="M126.7022 82.0145
L126.7022 69.1145
" />
<path d="M126.2022 68.6145
L113.3022 68.6145
" />
<path d="M113.3022 82.5145
L126.2022 82.5145
" />
<path d="M112.8022 69.1145
L112.8022 82.0145
" />
<path d="M126.7022 69.1145 A0.5000 0.5000 0.0 0 0 126.2022 68.6145" />
<path d="M126.2022 82.5145 A0.5000 0.5000 0.0 0 0 126.7022 82.0145" />
<path d="M113.3022 68.6145 A0.5000 0.5000 0.0 0 0 112.8022 69.1145" />
<path d="M112.8022 82.0145 A0.5000 0.5000 0.0 0 0 113.3022 82.5145" />
<path d="M144.7022 116.0145
L144.7022 103.1145
" />
<path d="M144.2022 102.6145
L131.3022 102.6145
" />
<path d="M131.3022 116.5145
L144.2022 116.5145
" />
<path d="M130.8022 103.1145
L130.8022 116.0145
" />
<path d="M144.7022 103.1145 A0.5000 0.5000 0.0 0 0 144.2022 102.6145" />
<path d="M144.2022 116.5145 A0.5000 0.5000 0.0 0 0 144.7022 116.0145" />
<path d="M131.3022 102.6145 A0.5000 0.5000 0.0 0 0 130.8022 103.1145" />
<path d="M130.8022 116.0145 A0.5000 0.5000 0.0 0 0 131.3022 116.5145" />
<path d="M234.7022 82.0145
L234.7022 69.1145
" />
<path d="M234.2022 68.6145
L221.3022 68.6145
" />
<path d="M221.3022 82.5145
L234.2022 82.5145
" />
<path d="M220.8022 69.1145
L220.8022 82.0145
" />
<path d="M234.7022 69.1145 A0.5000 0.5000 0.0 0 0 234.2022 68.6145" />
<path d="M234.2022 82.5145 A0.5000 0.5000 0.0 0 0 234.7022 82.0145" />
<path d="M221.3022 68.6145 A0.5000 0.5000 0.0 0 0 220.8022 69.1145" />
<path d="M220.8022 82.0145 A0.5000 0.5000 0.0 0 0 221.3022 82.5145" />
<path d="M90.7022 82.0145
L90.7022 69.1145
" />
<path d="M90.2022 68.6145
L77.3022 68.6145
" />
<path d="M77.3022 82.5145
L90.2022 82.5145
" />
<path d="M76.8022 69.1145
L76.8022 82.0145
" />
<path d="M90.7022 69.1145 A0.5000 0.5000 0.0 0 0 90.2022 68.6145" />
<path d="M90.2022 82.5145 A0.5000 0.5000 0.0 0 0 90.7022 82.0145" />
<path d="M77.3022 68.6145 A0.5000 0.5000 0.0 0 0 76.8022 69.1145" />
<path d="M76.8022 82.0145 A0.5000 0.5000 0.0 0 0 77.3022 82.5145" />
<path d="M108.7022 82.0145
L108.7022 69.1145
" />
<path d="M108.2022 68.6145
L95.3022 68.6145
" />
<path d="M95.3022 82.5145
L108.2022 82.5145
" />
<path d="M94.8022 69.1145
L94.8022 82.0145
" />
<path d="M108.7022 69.1145 A0.5000 0.5000 0.0 0 0 108.2022 68.6145" />
<path d="M108.2022 82.5145 A0.5000 0.5000 0.0 0 0 108.7022 82.0145" />
<path d="M95.3022 68.6145 A0.5000 0.5000 0.0 0 0 94.8022 69.1145" />
<path d="M94.8022 82.0145 A0.5000 0.5000 0.0 0 0 95.3022 82.5145" />
<path d="M54.7022 116.0145
L54.7022 103.1145
" />
<path d="M54.2022 102.6145
L41.3022 102.6145
" />
<path d="M41.3022 116.5145
L54.2022 116.5145
" />
<path d="M40.8022 103.1145
L40.8022 116.0145
" />
<path d="M54.7022 103.1145 A0.5000 0.5000 0.0 0 0 54.2022 102.6145" />
<path d="M54.2022 116.5145 A0.5000 0.5000 0.0 0 0 54.7022 116.0145" />
<path d="M41.3022 102.6145 A0.5000 0.5000 0.0 0 0 40.8022 103.1145" />
<path d="M40.8022 116.0145 A0.5000 0.5000 0.0 0 0 41.3022 116.5145" />
<path d="M72.7022 116.0145
L72.7022 103.1145
" />
<path d="M72.2022 102.6145
L59.3022 102.6145
" />
<path d="M59.3022 116.5145
L72.2022 116.5145
" />
<path d="M58.8022 103.1145
L58.8022 116.0145
" />
<path d="M72.7022 103.1145 A0.5000 0.5000 0.0 0 0 72.2022 102.6145" />
<path d="M72.2022 116.5145 A0.5000 0.5000 0.0 0 0 72.7022 116.0145" />
<path d="M59.3022 102.6145 A0.5000 0.5000 0.0 0 0 58.8022 103.1145" />
<path d="M58.8022 116.0145 A0.5000 0.5000 0.0 0 0 59.3022 116.5145" />
<path d="M90.7022 116.0145
L90.7022 103.1145
" />
<path d="M90.2022 102.6145
L77.3022 102.6145
" />
<path d="M77.3022 116.5145
L90.2022 116.5145
" />
<path d="M76.8022 103.1145
L76.8022 116.0145
" />
<path d="M90.7022 103.1145 A0.5000 0.5000 0.0 0 0 90.2022 102.6145" />
<path d="M90.2022 116.5145 A0.5000 0.5000 0.0 0 0 90.7022 116.0145" />
<path d="M77.3022 102.6145 A0.5000 0.5000 0.0 0 0 76.8022 103.1145" />
<path d="M76.8022 116.0145 A0.5000 0.5000 0.0 0 0 77.3022 116.5145" />
<path d="M108.7022 116.0145
L108.7022 103.1145
" />
<path d="M108.2022 102.6145
L95.3022 102.6145
" />
<path d="M95.3022 116.5145
L108.2022 116.5145
" />
<path d="M94.8022 103.1145
L94.8022 116.0145
" />
<path d="M108.7022 103.1145 A0.5000 0.5000 0.0 0 0 108.2022 102.6145" />
<path d="M108.2022 116.5145 A0.5000 0.5000 0.0 0 0 108.7022 116.0145" />
<path d="M95.3022 102.6145 A0.5000 0.5000 0.0 0 0 94.8022 103.1145" />
<path d="M94.8022 116.0145 A0.5000 0.5000 0.0 0 0 95.3022 116.5145" />
<path d="M126.7022 116.0145
L126.7022 103.1145
" />
<path d="M126.2022 102.6145
L113.3022 102.6145
" />
<path d="M113.3022 116.5145
L126.2022 116.5145
" />
<path d="M112.8022 103.1145
L112.8022 116.0145
" />
<path d="M126.7022 103.1145 A0.5000 0.5000 0.0 0 0 126.2022 102.6145" />
<path d="M126.2022 116.5145 A0.5000 0.5000 0.0 0 0 126.7022 116.0145" />
<path d="M113.3022 102.6145 A0.5000 0.5000 0.0 0 0 112.8022 103.1145" />
<path d="M112.8022 116.0145 A0.5000 0.5000 0.0 0 0 113.3022 116.5145" />
<path d="M162.7022 116.0145
L162.7022 103.1145
" />
<path d="M162.2022 102.6145
L149.3022 102.6145
" />
<path d="M149.3022 116.5145
L162.2022 116.5145
" />
<path d="M148.8022 103.1145
L148.8022 116.0145
" />
<path d="M162.7022 103.1145 A0.5000 0.5000 0.0 0 0 162.2022 102.6145" />
<path d="M162.2022 116.5145 A0.5000 0.5000 0.0 0 0 162.7022 116.0145" />
<path d="M149.3022 102.6145 A0.5000 0.5000 0.0 0 0 148.8022 103.1145" />
<path d="M148.8022 116.0145 A0.5000 0.5000 0.0 0 0 149.3022 116.5145" />
<path d="M180.7022 116.0145
L180.7022 103.1145
" />
<path d="M180.2022 102.6145
L167.3022 102.6145
" />
<path d="M167.3022 116.5145
L180.2022 116.5145
" />
<path d="M166.8022 103.1145
L166.8022 116.0145
" />
<path d="M180.7022 103.1145 A0.5000 0.5000 0.0 0 0 180.2022 102.6145" />
<path d="M180.2022 116.5145 A0.5000 0.5000 0.0 0 0 180.7022 116.0145" />
<path d="M167.3022 102.6145 A0.5000 0.5000 0.0 0 0 166.8022 103.1145" />
<path d="M166.8022 116.0145 A0.5000 0.5000 0.0 0 0 167.3022 116.5145" />
<path d="M216.7022 82.0145
L216.7022 69.1145
" />
<path d="M216.2022 68.6145
L203.3022 68.6145
" />
<path d="M203.3022 82.5145
L216.2022 82.5145
" />
<path d="M202.8022 69.1145
L202.8022 82.0145
" />
<path d="M216.7022 69.1145 A0.5000 0.5000 0.0 0 0 216.2022 68.6145" />
<path d="M216.2022 82.5145 A0.5000 0.5000 0.0 0 0 216.7022 82.0145" />
<path d="M203.3022 68.6145 A0.5000 0.5000 0.0 0 0 202.8022 69.1145" />
<path d="M202.8022 82.0145 A0.5000 0.5000 0.0 0 0 203.3022 82.5145" />
<path d="M162.7022 82.0145
L162.7022 69.1145
" />
<path d="M162.2022 68.6145
L149.3022 68.6145
" />
<path d="M149.3022 82.5145
L162.2022 82.5145
" />
<path d="M148.8022 69.1145
L148.8022 82.0145
" />
<path d="M162.7022 69.1145 A0.5000 0.5000 0.0 0 0 162.2022 68.6145" />
<path d="M162.2022 82.5145 A0.5000 0.5000 0.0 0 0 162.7022 82.0145" />
<path d="M149.3022 68.6145 A0.5000 0.5000 0.0 0 0 148.8022 69.1145" />
<path d="M148.8022 82.0145 A0.5000 0.5000 0.0 0 0 149.3022 82.5145" />
<path d="M198.7022 133.0145
L198.7022 120.1145
" />
<path d="M198.2022 119.6145
L185.3022 119.6145
" />
<path d="M185.3022 133.5145
L198.2022 133.5145
" />
<path d="M184.8022 120.1145
L184.8022 133.0145
" />
<path d="M198.7022 120.1145 A0.5000 0.5000 0.0 0 0 198.2022 119.6145" />
<path d="M198.2022 133.5145 A0.5000 0.5000 0.0 0 0 198.7022 133.0145" />
<path d="M185.3022 119.6145 A0.5000 0.5000 0.0 0 0 184.8022 120.1145" />
<path d="M184.8022 133.0145 A0.5000 0.5000 0.0 0 0 185.3022 133.5145" />
<path d="M126.7022 133.0145
L126.7022 120.1145
" />
<path d="M126.2022 119.6145
L113.3022 119.6145
" />
<path d="M113.3022 133.5145
L126.2022 133.5145
" />
<path d="M112.8022 120.1145
L112.8022 133.0145
" />
<path d="M126.7022 120.1145 A0.5000 0.5000 0.0 0 0 126.2022 119.6145" />
<path d="M126.2022 133.5145 A0.5000 0.5000 0.0 0 0 126.7022 133.0145" />
<path d="M113.3022 119.6145 A0.5000 0.5000 0.0 0 0 112.8022 120.1145" />
<path d="M112.8022 133.0145 A0.5000 0.5000 0.0 0 0 113.3022 133.5145" />
<path d="M108.7022 133.0145
L108.7022 120.1145
" />
<path d="M108.2022 119.6145
L95.3022 119.6145
" />
<path d="M95.3022 133.5145
L108.2022 133.5145
" />
<path d="M94.8022 120.1145
L94.8022 133.0145
" />
<path d="M108.7022 120.1145 A0.5000 0.5000 0.0 0 0 108.2022 119.6145" />
<path d="M108.2022 133.5145 A0.5000 0.5000 0.0 0 0 108.7022 133.0145" />
<path d="M95.3022 119.6145 A0.5000 0.5000 0.0 0 0 94.8022 120.1145" />
<path d="M94.8022 133.0145 A0.5000 0.5000 0.0 0 0 95.3022 133.5145" />
<path d="M144.7022 133.0145
L144.7022 120.1145
" />
<path d="M144.2022 119.6145
L131.3022 119.6145
" />
<path d="M131.3022 133.5145
L144.2022 133.5145
" />
<path d="M130.8022 120.1145
L130.8022 133.0145
" />
<path d="M144.7022 120.1145 A0.5000 0.5000 0.0 0 0 144.2022 119.6145" />
<path d="M144.2022 133.5145 A0.5000 0.5000 0.0 0 0 144.7022 133.0145" />
<path d="M131.3022 119.6145 A0.5000 0.5000 0.0 0 0 130.8022 120.1145" />
<path d="M130.8022 133.0145 A0.5000 0.5000 0.0 0 0 131.3022 133.5145" />
<path d="M216.7022 133.0145
L216.7022 120.1145
" />
<path d="M216.2022 119.6145
L203.3022 119.6145
" />
<path d="M203.3022 133.5145
L216.2022 133.5145
" />
<path d="M202.8022 120.1145
L202.8022 133.0145
" />
<path d="M216.7022 120.1145 A0.5000 0.5000 0.0 0 0 216.2022 119.6145" />
<path d="M216.2022 133.5145 A0.5000 0.5000 0.0 0 0 216.7022 133.0145" />
<path d="M203.3022 119.6145 A0.5000 0.5000 0.0 0 0 202.8022 120.1145" />
<path d="M202.8022 133.0145 A0.5000 0.5000 0.0 0 0 203.3022 133.5145" />
<path d="M234.7022 65.0145
L234.7022 52.1145
" />
<path d="M234.2022 51.6145
L221.3022 51.6145
" />
<path d="M221.3022 65.5145
L234.2022 65.5145
" />
<path d="M220.8022 52.1145
L220.8022 65.0145
" />
<path d="M234.7022 52.1145 A0.5000 0.5000 0.0 0 0 234.2022 51.6145" />
<path d="M234.2022 65.5145 A0.5000 0.5000 0.0 0 0 234.7022 65.0145" />
<path d="M221.3022 51.6145 A0.5000 0.5000 0.0 0 0 220.8022 52.1145" />
<path d="M220.8022 65.0145 A0.5000 0.5000 0.0 0 0 221.3022 65.5145" />
<path d="M252.7022 65.0145
L252.7022 52.1145
" />
<path d="M252.2022 51.6145
L239.3022 51.6145
" />
<path d="M239.3022 65.5145
L252.2022 65.5145
" />
<path d="M238.8022 52.1145
L238.8022 65.0145
" />
<path d="M252.7022 52.1145 A0.5000 0.5000 0.0 0 0 252.2022 51.6145" />
<path d="M252.2022 65.5145 A0.5000 0.5000 0.0 0 0 252.7022 65.0145" />
<path d="M239.3022 51.6145 A0.5000 0.5000 0.0 0 0 238.8022 52.1145" />
<path d="M238.8022 65.0145 A0.5000 0.5000 0.0 0 0 239.3022 65.5145" />
<path d="M252.7022 133.0145
L252.7022 120.1145
" />
<path d="M252.2022 119.6145
L239.3022 119.6145
" />
<path d="M239.3022 133.5145
L252.2022 133.5145
" />
<path d="M238.8022 120.1145
L238.8022 133.0145
" />
<path d="M252.7022 120.1145 A0.5000 0.5000 0.0 0 0 252.2022 119.6145" />
<path d="M252.2022 133.5145 A0.5000 0.5000 0.0 0 0 252.7022 133.0145" />
<path d="M239.3022 119.6145 A0.5000 0.5000 0.0 0 0 238.8022 120.1145" />
<path d="M238.8022 133.0145 A0.5000 0.5000 0.0 0 0 239.3022 133.5145" />
<path d="M234.7022 133.0145
L234.7022 120.1145
" />
<path d="M234.2022 119.6145
L221.3022 119.6145
" />
<path d="M221.3022 133.5145
L234.2022 133.5145
" />
<path d="M220.8022 120.1145
L220.8022 133.0145
" />
<path d="M234.7022 120.1145 A0.5000 0.5000 0.0 0 0 234.2022 119.6145" />
<path d="M234.2022 133.5145 A0.5000 0.5000 0.0 0 0 234.7022 133.0145" />
<path d="M221.3022 119.6145 A0.5000 0.5000 0.0 0 0 220.8022 120.1145" />
<path d="M220.8022 133.0145 A0.5000 0.5000 0.0 0 0 221.3022 133.5145" />
<path d="M90.7022 65.0145
L90.7022 52.1145
" />
<path d="M90.2022 51.6145
L77.3022 51.6145
" />
<path d="M77.3022 65.5145
L90.2022 65.5145
" />
<path d="M76.8022 52.1145
L76.8022 65.0145
" />
<path d="M90.7022 52.1145 A0.5000 0.5000 0.0 0 0 90.2022 51.6145" />
<path d="M90.2022 65.5145 A0.5000 0.5000 0.0 0 0 90.7022 65.0145" />
<path d="M77.3022 51.6145 A0.5000 0.5000 0.0 0 0 76.8022 52.1145" />
<path d="M76.8022 65.0145 A0.5000 0.5000 0.0 0 0 77.3022 65.5145" />
<path d="M90.7022 133.0145
L90.7022 120.1145
" />
<path d="M90.2022 119.6145
L77.3022 119.6145
" />
<path d="M77.3022 133.5145
L90.2022 133.5145
" />
<path d="M76.8022 120.1145
L76.8022 133.0145
" />
<path d="M90.7022 120.1145 A0.5000 0.5000 0.0 0 0 90.2022 119.6145" />
<path d="M90.2022 133.5145 A0.5000 0.5000 0.0 0 0 90.7022 133.0145" />
<path d="M77.3022 119.6145 A0.5000 0.5000 0.0 0 0 76.8022 120.1145" />
<path d="M76.8022 133.0145 A0.5000 0.5000 0.0 0 0 77.3022 133.5145" />
<path d="M54.7022 65.0145
L54.7022 52.1145
" />
<path d="M54.2022 51.6145
L41.3022 51.6145
" />
<path d="M41.3022 65.5145
L54.2022 65.5145
" />
<path d="M40.8022 52.1145
L40.8022 65.0145
" />
<path d="M54.7022 52.1145 A0.5000 0.5000 0.0 0 0 54.2022 51.6145" />
<path d="M54.2022 65.5145 A0.5000 0.5000 0.0 0 0 54.7022 65.0145" />
<path d="M41.3022 51.6145 A0.5000 0.5000 0.0 0 0 40.8022 52.1145" />
<path d="M40.8022 65.0145 A0.5000 0.5000 0.0 0 0 41.3022 65.5145" />
<path d="M198.7022 65.0145
L198.7022 52.1145
" />
<path d="M198.2022 51.6145
L185.3022 51.6145
" />
<path d="M185.3022 65.5145
L198.2022 65.5145
" />
<path d="M184.8022 52.1145
L184.8022 65.0145
" />
<path d="M198.7022 52.1145 A0.5000 0.5000 0.0 0 0 198.2022 51.6145" />
<path d="M198.2022 65.5145 A0.5000 0.5000 0.0 0 0 198.7022 65.0145" />
<path d="M185.3022 51.6145 A0.5000 0.5000 0.0 0 0 184.8022 52.1145" />
<path d="M184.8022 65.0145 A0.5000 0.5000 0.0 0 0 185.3022 65.5145" />
<path d="M162.7022 65.0145
L162.7022 52.1145
" />
<path d="M162.2022 51.6145
L149.3022 51.6145
" />
<path d="M149.3022 65.5145
L162.2022 65.5145
" />
<path d="M148.8022 52.1145
L148.8022 65.0145
" />
<path d="M162.7022 52.1145 A0.5000 0.5000 0.0 0 0 162.2022 51.6145" />
<path d="M162.2022 65.5145 A0.5000 0.5000 0.0 0 0 162.7022 65.0145" />
<path d="M149.3022 51.6145 A0.5000 0.5000 0.0 0 0 148.8022 52.1145" />
<path d="M148.8022 65.0145 A0.5000 0.5000 0.0 0 0 149.3022 65.5145" />
<path d="M126.7022 65.0145
L126.7022 52.1145
" />
<path d="M126.2022 51.6145
L113.3022 51.6145
" />
<path d="M113.3022 65.5145
L126.2022 65.5145
" />
<path d="M112.8022 52.1145
L112.8022 65.0145
" />
<path d="M126.7022 52.1145 A0.5000 0.5000 0.0 0 0 126.2022 51.6145" />
<path d="M126.2022 65.5145 A0.5000 0.5000 0.0 0 0 126.7022 65.0145" />
<path d="M113.3022 51.6145 A0.5000 0.5000 0.0 0 0 112.8022 52.1145" />
<path d="M112.8022 65.0145 A0.5000 0.5000 0.0 0 0 113.3022 65.5145" />
<path d="M72.7022 65.0145
L72.7022 52.1145
" />
<path d="M72.2022 51.6145
L59.3022 51.6145
" />
<path d="M59.3022 65.5145
L72.2022 65.5145
" />
<path d="M58.8022 52.1145
L58.8022 65.0145
" />
<path d="M72.7022 52.1145 A0.5000 0.5000 0.0 0 0 72.2022 51.6145" />
<path d="M72.2022 65.5145 A0.5000 0.5000 0.0 0 0 72.7022 65.0145" />
<path d="M59.3022 51.6145 A0.5000 0.5000 0.0 0 0 58.8022 52.1145" />
<path d="M58.8022 65.0145 A0.5000 0.5000 0.0 0 0 59.3022 65.5145" />
<path d="M108.7022 65.0145
L108.7022 52.1145
" />
<path d="M108.2022 51.6145
L95.3022 51.6145
" />
<path d="M95.3022 65.5145
L108.2022 65.5145
" />
<path d="M94.8022 52.1145
L94.8022 65.0145
" />
<path d="M108.7022 52.1145 A0.5000 0.5000 0.0 0 0 108.2022 51.6145" />
<path d="M108.2022 65.5145 A0.5000 0.5000 0.0 0 0 108.7022 65.0145" />
<path d="M95.3022 51.6145 A0.5000 0.5000 0.0 0 0 94.8022 52.1145" />
<path d="M94.8022 65.0145 A0.5000 0.5000 0.0 0 0 95.3022 65.5145" />
<path d="M216.7022 65.0145
L216.7022 52.1145
" />
<path d="M216.2022 51.6145
L203.3022 51.6145
" />
<path d="M203.3022 65.5145
L216.2022 65.5145
" />
<path d="M202.8022 52.1145
L202.8022 65.0145
" />
<path d="M216.7022 52.1145 A0.5000 0.5000 0.0 0 0 216.2022 51.6145" />
<path d="M216.2022 65.5145 A0.5000 0.5000 0.0 0 0 216.7022 65.0145" />
<path d="M203.3022 51.6145 A0.5000 0.5000 0.0 0 0 202.8022 52.1145" />
<path d="M202.8022 65.0145 A0.5000 0.5000 0.0 0 0 203.3022 65.5145" />
<path d="M180.7022 65.0145
L180.7022 52.1145
" />
<path d="M180.2022 51.6145
L167.3022 51.6145
" />
<path d="M167.3022 65.5145
L180.2022 65.5145
" />
<path d="M166.8022 52.1145
L166.8022 65.0145
" />
<path d="M180.7022 52.1145 A0.5000 0.5000 0.0 0 0 180.2022 51.6145" />
<path d="M180.2022 65.5145 A0.5000 0.5000 0.0 0 0 180.7022 65.0145" />
<path d="M167.3022 51.6145 A0.5000 0.5000 0.0 0 0 166.8022 52.1145" />
<path d="M166.8022 65.0145 A0.5000 0.5000 0.0 0 0 167.3022 65.5145" />
<path d="M54.7022 133.0145
L54.7022 120.1145
" />
<path d="M54.2022 119.6145
L41.3022 119.6145
" />
<path d="M41.3022 133.5145
L54.2022 133.5145
" />
<path d="M40.8022 120.1145
L40.8022 133.0145
" />
<path d="M54.7022 120.1145 A0.5000 0.5000 0.0 0 0 54.2022 119.6145" />
<path d="M54.2022 133.5145 A0.5000 0.5000 0.0 0 0 54.7022 133.0145" />
<path d="M41.3022 119.6145 A0.5000 0.5000 0.0 0 0 40.8022 120.1145" />
<path d="M40.8022 133.0145 A0.5000 0.5000 0.0 0 0 41.3022 133.5145" />
<path d="M162.7022 133.0145
L162.7022 120.1145
" />
<path d="M162.2022 119.6145
L149.3022 119.6145
" />
<path d="M149.3022 133.5145
L162.2022 133.5145
" />
<path d="M148.8022 120.1145
L148.8022 133.0145
" />
<path d="M162.7022 120.1145 A0.5000 0.5000 0.0 0 0 162.2022 119.6145" />
<path d="M162.2022 133.5145 A0.5000 0.5000 0.0 0 0 162.7022 133.0145" />
<path d="M149.3022 119.6145 A0.5000 0.5000 0.0 0 0 148.8022 120.1145" />
<path d="M148.8022 133.0145 A0.5000 0.5000 0.0 0 0 149.3022 133.5145" />
<path d="M144.7022 65.0145
L144.7022 52.1145
" />
<path d="M144.2022 51.6145
L131.3022 51.6145
" />
<path d="M131.3022 65.5145
L144.2022 65.5145
" />
<path d="M130.8022 52.1145
L130.8022 65.0145
" />
<path d="M144.7022 52.1145 A0.5000 0.5000 0.0 0 0 144.2022 51.6145" />
<path d="M144.2022 65.5145 A0.5000 0.5000 0.0 0 0 144.7022 65.0145" />
<path d="M131.3022 51.6145 A0.5000 0.5000 0.0 0 0 130.8022 52.1145" />
<path d="M130.8022 65.0145 A0.5000 0.5000 0.0 0 0 131.3022 65.5145" />
<path d="M72.7022 133.0145
L72.7022 120.1145
" />
<path d="M72.2022 119.6145
L59.3022 119.6145
" />
<path d="M59.3022 133.5145
L72.2022 133.5145
" />
<path d="M58.8022 120.1145
L58.8022 133.0145
" />
<path d="M72.7022 120.1145 A0.5000 0.5000 0.0 0 0 72.2022 119.6145" />
<path d="M72.2022 133.5145 A0.5000 0.5000 0.0 0 0 72.7022 133.0145" />
<path d="M59.3022 119.6145 A0.5000 0.5000 0.0 0 0 58.8022 120.1145" />
<path d="M58.8022 133.0145 A0.5000 0.5000 0.0 0 0 59.3022 133.5145" />
<g >
</g>
<g >
</g>
<g >
</g>
<g >
</g>
<g >
</g>
<g >
</g>
<g >
</g>
<g >
</g>
<g >
</g>
<g >
</g>
<g >
</g>
<g >
</g>
<g >
</g>
<g >
</g>
<g >
</g>
<g >
</g>
<g >
</g>
<g >
</g>
<g >
</g>
<g >
</g>
<g >
</g>
<g >
</g>
<g >
</g>
<g >
</g>
<g >
</g>
<g >
</g>
<g >
</g>
<g >
</g>
<g >
</g>
<g >
</g>
<g >
</g>
<g >
</g>
<g >
</g>
<g >
</g>
<g >
</g>
<g >
</g>
<g >
</g>
<g >
</g>
<g >
</g>
<g >
</g>
<g >
</g>
<g >
</g>
<g >
</g>
<g >
</g>
<g >
</g>
<g >
</g>
<g >
</g>
<g >
</g>
<g >
</g>
<g >
</g>
<g >
</g>
<g >
</g>
<g >
</g>
<g >
</g>
<g >
</g>
<g >
</g>
<g >
</g>
<g >
</g>
<g >
</g>
<g >
</g>
<g >
</g>
<g >
</g>
<g >
</g>
<g >
</g>
<g >
</g>
<g >
</g>
<g >
</g>
<g >
</g>
<g >
</g>
<g >
</g>
<g >
</g>
<g >
</g>
<g >
</g>
<g >
</g>
<g >
</g>
<g >
</g>
<g >
</g>
<g >
</g>
<g >
</g>
<g >
</g>
<g >
</g>
<g >
</g>
<g >
</g>
<g >
</g>
<g >
</g>
<g >
</g>
<g >
</g>
<g >
</g>
<g >
</g>
<g >
</g>
<g >
</g>
<g >
</g>
<g >
</g>
<g >
</g>
<g >
</g>
<g >
</g>
<g >
</g>
<g >
</g>
<g >
</g>
<g >
</g>
<g >
</g>
<g >
</g>
<g >
</g>
<g >
</g>
<g >
</g>
<g >
</g>
<g >
</g>
<g >
</g>
<g >
</g>
<g >
</g>
<g >
</g>
<g >
</g>
<g >
</g>
<g >
</g>
<g >
</g>
<g >
</g>
<g >
</g>
<g >
</g>
<g >
</g>
<g >
</g>
<g >
</g>
<g >
</g>
<g >
</g>
<g >
</g>
<g >
</g>
<g >
</g>
<g >
</g>
<g >
</g>
<g >
</g>
<g >
</g>
<g >
</g>
<g >
</g>
<g >
</g>
<g >
</g>
<g >
</g>
<g >
</g>
<g >
</g>
<g >
</g>
<g >
</g>
<g >
</g>
<g >
</g>
<g >
</g>
</g> 
</svg>
