<?xml version="1.0" standalone="no"?>
 <!DOCTYPE svg PUBLIC "-//W3C//DTD SVG 1.1//EN" 
 "http://www.w3.org/Graphics/SVG/1.1/DTD/svg11.dtd"> 
<svg
  xmlns:svg="http://www.w3.org/2000/svg"
  xmlns="http://www.w3.org/2000/svg"
  xmlns:xlink="http://www.w3.org/1999/xlink"
  version="1.1"
  width="297.0022mm" height="210.0072mm" viewBox="0.0000 0.0000 297.0022 210.0072">
<title>SVG Image created as basic60-User_Comments.svg date 2023/12/21 23:37:39 </title>
  <desc>Image generated by PCBNEW </desc>
<g style="fill:#000000; fill-opacity:1.0000;stroke:#000000; stroke-opacity:1.0000;
stroke-linecap:round; stroke-linejoin:round;"
 transform="translate(0 0) scale(1 1)">
</g>
<g style="fill:#000000; fill-opacity:0.0; 
stroke:#000000; stroke-width:0.0000; stroke-opacity:1; 
stroke-linecap:round; stroke-linejoin:round;">
</g>
<g style="fill:#000000; fill-opacity:0.0; 
stroke:#000000; stroke-width:0.1500; stroke-opacity:1; 
stroke-linecap:round; stroke-linejoin:round;">
<g transform="rotate(-90.000000 183.2225 38.6800)">
<text x="183.2225" y="38.6800"
textLength="3.2500" font-size="1.3333" lengthAdjust="spacingAndGlyphs"
text-anchor="middle" opacity="0">USB</text>
</g>
<g class="stroked-text"><desc>USB</desc>
<path d="M182.0923 39.9419
L182.9018 39.9419
" />
<path d="M182.9018 39.9419
L182.9971 39.8943
" />
<path d="M182.9971 39.8943
L183.0447 39.8467
" />
<path d="M183.0447 39.8467
L183.0923 39.7514
" />
<path d="M183.0923 39.7514
L183.0923 39.5610
" />
<path d="M183.0923 39.5610
L183.0447 39.4657
" />
<path d="M183.0447 39.4657
L182.9971 39.4181
" />
<path d="M182.9971 39.4181
L182.9018 39.3705
" />
<path d="M182.9018 39.3705
L182.0923 39.3705
" />
<path d="M183.0447 38.9419
L183.0923 38.7990
" />
<path d="M183.0923 38.7990
L183.0923 38.5610
" />
<path d="M183.0923 38.5610
L183.0447 38.4657
" />
<path d="M183.0447 38.4657
L182.9971 38.4181
" />
<path d="M182.9971 38.4181
L182.9018 38.3705
" />
<path d="M182.9018 38.3705
L182.8066 38.3705
" />
<path d="M182.8066 38.3705
L182.7114 38.4181
" />
<path d="M182.7114 38.4181
L182.6637 38.4657
" />
<path d="M182.6637 38.4657
L182.6161 38.5610
" />
<path d="M182.6161 38.5610
L182.5685 38.7514
" />
<path d="M182.5685 38.7514
L182.5209 38.8467
" />
<path d="M182.5209 38.8467
L182.4733 38.8943
" />
<path d="M182.4733 38.8943
L182.3780 38.9419
" />
<path d="M182.3780 38.9419
L182.2828 38.9419
" />
<path d="M182.2828 38.9419
L182.1876 38.8943
" />
<path d="M182.1876 38.8943
L182.1399 38.8467
" />
<path d="M182.1399 38.8467
L182.0923 38.7514
" />
<path d="M182.0923 38.7514
L182.0923 38.5133
" />
<path d="M182.0923 38.5133
L182.1399 38.3705
" />
<path d="M182.5685 37.6086
L182.6161 37.4657
" />
<path d="M182.6161 37.4657
L182.6637 37.4181
" />
<path d="M182.6637 37.4181
L182.7590 37.3705
" />
<path d="M182.7590 37.3705
L182.9018 37.3705
" />
<path d="M182.9018 37.3705
L182.9971 37.4181
" />
<path d="M182.9971 37.4181
L183.0447 37.4657
" />
<path d="M183.0447 37.4657
L183.0923 37.5610
" />
<path d="M183.0923 37.5610
L183.0923 37.9419
" />
<path d="M183.0923 37.9419
L182.0923 37.9419
" />
<path d="M182.0923 37.9419
L182.0923 37.6086
" />
<path d="M182.0923 37.6086
L182.1399 37.5133
" />
<path d="M182.1399 37.5133
L182.1876 37.4657
" />
<path d="M182.1876 37.4657
L182.2828 37.4181
" />
<path d="M182.2828 37.4181
L182.3780 37.4181
" />
<path d="M182.3780 37.4181
L182.4733 37.4657
" />
<path d="M182.4733 37.4657
L182.5209 37.5133
" />
<path d="M182.5209 37.5133
L182.5685 37.6086
" />
<path d="M182.5685 37.6086
L182.5685 37.9419
" />
</g><g transform="rotate(-180.000000 105.2500 114.2645)">
<text x="105.2500" y="114.7645"
textLength="2.9643" font-size="1.3333" lengthAdjust="spacingAndGlyphs"
text-anchor="middle" opacity="0">LED</text>
</g>
<g class="stroked-text"><desc>LED</desc>
<path d="M105.8929 113.8096
L106.3690 113.8096
" />
<path d="M106.3690 113.8096
L106.3690 114.8096
" />
<path d="M105.5595 114.3335
L105.2262 114.3335
" />
<path d="M105.0833 113.8096
L105.5595 113.8096
" />
<path d="M105.5595 113.8096
L105.5595 114.8096
" />
<path d="M105.5595 114.8096
L105.0833 114.8096
" />
<path d="M104.6548 113.8096
L104.6548 114.8096
" />
<path d="M104.6548 114.8096
L104.4167 114.8096
" />
<path d="M104.4167 114.8096
L104.2738 114.7620
" />
<path d="M104.2738 114.7620
L104.1786 114.6668
" />
<path d="M104.1786 114.6668
L104.1310 114.5716
" />
<path d="M104.1310 114.5716
L104.0833 114.3811
" />
<path d="M104.0833 114.3811
L104.0833 114.2382
" />
<path d="M104.0833 114.2382
L104.1310 114.0477
" />
<path d="M104.1310 114.0477
L104.1786 113.9525
" />
<path d="M104.1786 113.9525
L104.2738 113.8573
" />
<path d="M104.2738 113.8573
L104.4167 113.8096
" />
<path d="M104.4167 113.8096
L104.6548 113.8096
" />
</g><g transform="rotate(-180.000000 87.2500 114.2645)">
<text x="87.2500" y="114.7645"
textLength="2.9643" font-size="1.3333" lengthAdjust="spacingAndGlyphs"
text-anchor="middle" opacity="0">LED</text>
</g>
<g class="stroked-text"><desc>LED</desc>
<path d="M87.8929 113.8096
L88.3690 113.8096
" />
<path d="M88.3690 113.8096
L88.3690 114.8096
" />
<path d="M87.5595 114.3335
L87.2262 114.3335
" />
<path d="M87.0833 113.8096
L87.5595 113.8096
" />
<path d="M87.5595 113.8096
L87.5595 114.8096
" />
<path d="M87.5595 114.8096
L87.0833 114.8096
" />
<path d="M86.6548 113.8096
L86.6548 114.8096
" />
<path d="M86.6548 114.8096
L86.4167 114.8096
" />
<path d="M86.4167 114.8096
L86.2738 114.7620
" />
<path d="M86.2738 114.7620
L86.1786 114.6668
" />
<path d="M86.1786 114.6668
L86.1310 114.5716
" />
<path d="M86.1310 114.5716
L86.0833 114.3811
" />
<path d="M86.0833 114.3811
L86.0833 114.2382
" />
<path d="M86.0833 114.2382
L86.1310 114.0477
" />
<path d="M86.1310 114.0477
L86.1786 113.9525
" />
<path d="M86.1786 113.9525
L86.2738 113.8573
" />
<path d="M86.2738 113.8573
L86.4167 113.8096
" />
<path d="M86.4167 113.8096
L86.6548 113.8096
" />
</g><g transform="rotate(-180.000000 69.2500 114.2645)">
<text x="69.2500" y="114.7645"
textLength="2.9643" font-size="1.3333" lengthAdjust="spacingAndGlyphs"
text-anchor="middle" opacity="0">LED</text>
</g>
<g class="stroked-text"><desc>LED</desc>
<path d="M69.8929 113.8096
L70.3690 113.8096
" />
<path d="M70.3690 113.8096
L70.3690 114.8096
" />
<path d="M69.5595 114.3335
L69.2262 114.3335
" />
<path d="M69.0833 113.8096
L69.5595 113.8096
" />
<path d="M69.5595 113.8096
L69.5595 114.8096
" />
<path d="M69.5595 114.8096
L69.0833 114.8096
" />
<path d="M68.6548 113.8096
L68.6548 114.8096
" />
<path d="M68.6548 114.8096
L68.4167 114.8096
" />
<path d="M68.4167 114.8096
L68.2738 114.7620
" />
<path d="M68.2738 114.7620
L68.1786 114.6668
" />
<path d="M68.1786 114.6668
L68.1310 114.5716
" />
<path d="M68.1310 114.5716
L68.0833 114.3811
" />
<path d="M68.0833 114.3811
L68.0833 114.2382
" />
<path d="M68.0833 114.2382
L68.1310 114.0477
" />
<path d="M68.1310 114.0477
L68.1786 113.9525
" />
<path d="M68.1786 113.9525
L68.2738 113.8573
" />
<path d="M68.2738 113.8573
L68.4167 113.8096
" />
<path d="M68.4167 113.8096
L68.6548 113.8096
" />
</g><g transform="rotate(-180.000000 51.2500 114.2645)">
<text x="51.2500" y="114.7645"
textLength="2.9643" font-size="1.3333" lengthAdjust="spacingAndGlyphs"
text-anchor="middle" opacity="0">LED</text>
</g>
<g class="stroked-text"><desc>LED</desc>
<path d="M51.8929 113.8096
L52.3690 113.8096
" />
<path d="M52.3690 113.8096
L52.3690 114.8096
" />
<path d="M51.5595 114.3335
L51.2262 114.3335
" />
<path d="M51.0833 113.8096
L51.5595 113.8096
" />
<path d="M51.5595 113.8096
L51.5595 114.8096
" />
<path d="M51.5595 114.8096
L51.0833 114.8096
" />
<path d="M50.6548 113.8096
L50.6548 114.8096
" />
<path d="M50.6548 114.8096
L50.4167 114.8096
" />
<path d="M50.4167 114.8096
L50.2738 114.7620
" />
<path d="M50.2738 114.7620
L50.1786 114.6668
" />
<path d="M50.1786 114.6668
L50.1310 114.5716
" />
<path d="M50.1310 114.5716
L50.0833 114.3811
" />
<path d="M50.0833 114.3811
L50.0833 114.2382
" />
<path d="M50.0833 114.2382
L50.1310 114.0477
" />
<path d="M50.1310 114.0477
L50.1786 113.9525
" />
<path d="M50.1786 113.9525
L50.2738 113.8573
" />
<path d="M50.2738 113.8573
L50.4167 113.8096
" />
<path d="M50.4167 113.8096
L50.6548 113.8096
" />
</g><g transform="rotate(-180.000000 249.2500 97.2645)">
<text x="249.2500" y="97.7645"
textLength="2.9643" font-size="1.3333" lengthAdjust="spacingAndGlyphs"
text-anchor="middle" opacity="0">LED</text>
</g>
<g class="stroked-text"><desc>LED</desc>
<path d="M249.8929 96.8096
L250.3690 96.8096
" />
<path d="M250.3690 96.8096
L250.3690 97.8096
" />
<path d="M249.5595 97.3335
L249.2262 97.3335
" />
<path d="M249.0833 96.8096
L249.5595 96.8096
" />
<path d="M249.5595 96.8096
L249.5595 97.8096
" />
<path d="M249.5595 97.8096
L249.0833 97.8096
" />
<path d="M248.6548 96.8096
L248.6548 97.8096
" />
<path d="M248.6548 97.8096
L248.4167 97.8096
" />
<path d="M248.4167 97.8096
L248.2738 97.7620
" />
<path d="M248.2738 97.7620
L248.1786 97.6668
" />
<path d="M248.1786 97.6668
L248.1310 97.5716
" />
<path d="M248.1310 97.5716
L248.0833 97.3811
" />
<path d="M248.0833 97.3811
L248.0833 97.2382
" />
<path d="M248.0833 97.2382
L248.1310 97.0477
" />
<path d="M248.1310 97.0477
L248.1786 96.9525
" />
<path d="M248.1786 96.9525
L248.2738 96.8573
" />
<path d="M248.2738 96.8573
L248.4167 96.8096
" />
<path d="M248.4167 96.8096
L248.6548 96.8096
" />
</g><g transform="rotate(-180.000000 231.2500 97.2645)">
<text x="231.2500" y="97.7645"
textLength="2.9643" font-size="1.3333" lengthAdjust="spacingAndGlyphs"
text-anchor="middle" opacity="0">LED</text>
</g>
<g class="stroked-text"><desc>LED</desc>
<path d="M231.8929 96.8096
L232.3690 96.8096
" />
<path d="M232.3690 96.8096
L232.3690 97.8096
" />
<path d="M231.5595 97.3335
L231.2262 97.3335
" />
<path d="M231.0833 96.8096
L231.5595 96.8096
" />
<path d="M231.5595 96.8096
L231.5595 97.8096
" />
<path d="M231.5595 97.8096
L231.0833 97.8096
" />
<path d="M230.6548 96.8096
L230.6548 97.8096
" />
<path d="M230.6548 97.8096
L230.4167 97.8096
" />
<path d="M230.4167 97.8096
L230.2738 97.7620
" />
<path d="M230.2738 97.7620
L230.1786 97.6668
" />
<path d="M230.1786 97.6668
L230.1310 97.5716
" />
<path d="M230.1310 97.5716
L230.0833 97.3811
" />
<path d="M230.0833 97.3811
L230.0833 97.2382
" />
<path d="M230.0833 97.2382
L230.1310 97.0477
" />
<path d="M230.1310 97.0477
L230.1786 96.9525
" />
<path d="M230.1786 96.9525
L230.2738 96.8573
" />
<path d="M230.2738 96.8573
L230.4167 96.8096
" />
<path d="M230.4167 96.8096
L230.6548 96.8096
" />
</g><g transform="rotate(-180.000000 213.2500 97.2645)">
<text x="213.2500" y="97.7645"
textLength="2.9643" font-size="1.3333" lengthAdjust="spacingAndGlyphs"
text-anchor="middle" opacity="0">LED</text>
</g>
<g class="stroked-text"><desc>LED</desc>
<path d="M213.8929 96.8096
L214.3690 96.8096
" />
<path d="M214.3690 96.8096
L214.3690 97.8096
" />
<path d="M213.5595 97.3335
L213.2262 97.3335
" />
<path d="M213.0833 96.8096
L213.5595 96.8096
" />
<path d="M213.5595 96.8096
L213.5595 97.8096
" />
<path d="M213.5595 97.8096
L213.0833 97.8096
" />
<path d="M212.6548 96.8096
L212.6548 97.8096
" />
<path d="M212.6548 97.8096
L212.4167 97.8096
" />
<path d="M212.4167 97.8096
L212.2738 97.7620
" />
<path d="M212.2738 97.7620
L212.1786 97.6668
" />
<path d="M212.1786 97.6668
L212.1310 97.5716
" />
<path d="M212.1310 97.5716
L212.0833 97.3811
" />
<path d="M212.0833 97.3811
L212.0833 97.2382
" />
<path d="M212.0833 97.2382
L212.1310 97.0477
" />
<path d="M212.1310 97.0477
L212.1786 96.9525
" />
<path d="M212.1786 96.9525
L212.2738 96.8573
" />
<path d="M212.2738 96.8573
L212.4167 96.8096
" />
<path d="M212.4167 96.8096
L212.6548 96.8096
" />
</g><g transform="rotate(-180.000000 177.2500 97.2645)">
<text x="177.2500" y="97.7645"
textLength="2.9643" font-size="1.3333" lengthAdjust="spacingAndGlyphs"
text-anchor="middle" opacity="0">LED</text>
</g>
<g class="stroked-text"><desc>LED</desc>
<path d="M177.8929 96.8096
L178.3690 96.8096
" />
<path d="M178.3690 96.8096
L178.3690 97.8096
" />
<path d="M177.5595 97.3335
L177.2262 97.3335
" />
<path d="M177.0833 96.8096
L177.5595 96.8096
" />
<path d="M177.5595 96.8096
L177.5595 97.8096
" />
<path d="M177.5595 97.8096
L177.0833 97.8096
" />
<path d="M176.6548 96.8096
L176.6548 97.8096
" />
<path d="M176.6548 97.8096
L176.4167 97.8096
" />
<path d="M176.4167 97.8096
L176.2738 97.7620
" />
<path d="M176.2738 97.7620
L176.1786 97.6668
" />
<path d="M176.1786 97.6668
L176.1310 97.5716
" />
<path d="M176.1310 97.5716
L176.0833 97.3811
" />
<path d="M176.0833 97.3811
L176.0833 97.2382
" />
<path d="M176.0833 97.2382
L176.1310 97.0477
" />
<path d="M176.1310 97.0477
L176.1786 96.9525
" />
<path d="M176.1786 96.9525
L176.2738 96.8573
" />
<path d="M176.2738 96.8573
L176.4167 96.8096
" />
<path d="M176.4167 96.8096
L176.6548 96.8096
" />
</g><g transform="rotate(-180.000000 159.2500 97.2645)">
<text x="159.2500" y="97.7645"
textLength="2.9643" font-size="1.3333" lengthAdjust="spacingAndGlyphs"
text-anchor="middle" opacity="0">LED</text>
</g>
<g class="stroked-text"><desc>LED</desc>
<path d="M159.8929 96.8096
L160.3690 96.8096
" />
<path d="M160.3690 96.8096
L160.3690 97.8096
" />
<path d="M159.5595 97.3335
L159.2262 97.3335
" />
<path d="M159.0833 96.8096
L159.5595 96.8096
" />
<path d="M159.5595 96.8096
L159.5595 97.8096
" />
<path d="M159.5595 97.8096
L159.0833 97.8096
" />
<path d="M158.6548 96.8096
L158.6548 97.8096
" />
<path d="M158.6548 97.8096
L158.4167 97.8096
" />
<path d="M158.4167 97.8096
L158.2738 97.7620
" />
<path d="M158.2738 97.7620
L158.1786 97.6668
" />
<path d="M158.1786 97.6668
L158.1310 97.5716
" />
<path d="M158.1310 97.5716
L158.0833 97.3811
" />
<path d="M158.0833 97.3811
L158.0833 97.2382
" />
<path d="M158.0833 97.2382
L158.1310 97.0477
" />
<path d="M158.1310 97.0477
L158.1786 96.9525
" />
<path d="M158.1786 96.9525
L158.2738 96.8573
" />
<path d="M158.2738 96.8573
L158.4167 96.8096
" />
<path d="M158.4167 96.8096
L158.6548 96.8096
" />
</g><g transform="rotate(-180.000000 141.2500 97.2645)">
<text x="141.2500" y="97.7645"
textLength="2.9643" font-size="1.3333" lengthAdjust="spacingAndGlyphs"
text-anchor="middle" opacity="0">LED</text>
</g>
<g class="stroked-text"><desc>LED</desc>
<path d="M141.8929 96.8096
L142.3690 96.8096
" />
<path d="M142.3690 96.8096
L142.3690 97.8096
" />
<path d="M141.5595 97.3335
L141.2262 97.3335
" />
<path d="M141.0833 96.8096
L141.5595 96.8096
" />
<path d="M141.5595 96.8096
L141.5595 97.8096
" />
<path d="M141.5595 97.8096
L141.0833 97.8096
" />
<path d="M140.6548 96.8096
L140.6548 97.8096
" />
<path d="M140.6548 97.8096
L140.4167 97.8096
" />
<path d="M140.4167 97.8096
L140.2738 97.7620
" />
<path d="M140.2738 97.7620
L140.1786 97.6668
" />
<path d="M140.1786 97.6668
L140.1310 97.5716
" />
<path d="M140.1310 97.5716
L140.0833 97.3811
" />
<path d="M140.0833 97.3811
L140.0833 97.2382
" />
<path d="M140.0833 97.2382
L140.1310 97.0477
" />
<path d="M140.1310 97.0477
L140.1786 96.9525
" />
<path d="M140.1786 96.9525
L140.2738 96.8573
" />
<path d="M140.2738 96.8573
L140.4167 96.8096
" />
<path d="M140.4167 96.8096
L140.6548 96.8096
" />
</g><g transform="rotate(-180.000000 159.2500 80.2645)">
<text x="159.2500" y="80.7645"
textLength="2.9643" font-size="1.3333" lengthAdjust="spacingAndGlyphs"
text-anchor="middle" opacity="0">LED</text>
</g>
<g class="stroked-text"><desc>LED</desc>
<path d="M159.8929 79.8096
L160.3690 79.8096
" />
<path d="M160.3690 79.8096
L160.3690 80.8096
" />
<path d="M159.5595 80.3335
L159.2262 80.3335
" />
<path d="M159.0833 79.8096
L159.5595 79.8096
" />
<path d="M159.5595 79.8096
L159.5595 80.8096
" />
<path d="M159.5595 80.8096
L159.0833 80.8096
" />
<path d="M158.6548 79.8096
L158.6548 80.8096
" />
<path d="M158.6548 80.8096
L158.4167 80.8096
" />
<path d="M158.4167 80.8096
L158.2738 80.7620
" />
<path d="M158.2738 80.7620
L158.1786 80.6668
" />
<path d="M158.1786 80.6668
L158.1310 80.5716
" />
<path d="M158.1310 80.5716
L158.0833 80.3811
" />
<path d="M158.0833 80.3811
L158.0833 80.2382
" />
<path d="M158.0833 80.2382
L158.1310 80.0477
" />
<path d="M158.1310 80.0477
L158.1786 79.9525
" />
<path d="M158.1786 79.9525
L158.2738 79.8573
" />
<path d="M158.2738 79.8573
L158.4167 79.8096
" />
<path d="M158.4167 79.8096
L158.6548 79.8096
" />
</g><g transform="rotate(-180.000000 195.2500 97.2645)">
<text x="195.2500" y="97.7645"
textLength="2.9643" font-size="1.3333" lengthAdjust="spacingAndGlyphs"
text-anchor="middle" opacity="0">LED</text>
</g>
<g class="stroked-text"><desc>LED</desc>
<path d="M195.8929 96.8096
L196.3690 96.8096
" />
<path d="M196.3690 96.8096
L196.3690 97.8096
" />
<path d="M195.5595 97.3335
L195.2262 97.3335
" />
<path d="M195.0833 96.8096
L195.5595 96.8096
" />
<path d="M195.5595 96.8096
L195.5595 97.8096
" />
<path d="M195.5595 97.8096
L195.0833 97.8096
" />
<path d="M194.6548 96.8096
L194.6548 97.8096
" />
<path d="M194.6548 97.8096
L194.4167 97.8096
" />
<path d="M194.4167 97.8096
L194.2738 97.7620
" />
<path d="M194.2738 97.7620
L194.1786 97.6668
" />
<path d="M194.1786 97.6668
L194.1310 97.5716
" />
<path d="M194.1310 97.5716
L194.0833 97.3811
" />
<path d="M194.0833 97.3811
L194.0833 97.2382
" />
<path d="M194.0833 97.2382
L194.1310 97.0477
" />
<path d="M194.1310 97.0477
L194.1786 96.9525
" />
<path d="M194.1786 96.9525
L194.2738 96.8573
" />
<path d="M194.2738 96.8573
L194.4167 96.8096
" />
<path d="M194.4167 96.8096
L194.6548 96.8096
" />
</g><g transform="rotate(-180.000000 123.2500 97.2645)">
<text x="123.2500" y="97.7645"
textLength="2.9643" font-size="1.3333" lengthAdjust="spacingAndGlyphs"
text-anchor="middle" opacity="0">LED</text>
</g>
<g class="stroked-text"><desc>LED</desc>
<path d="M123.8929 96.8096
L124.3690 96.8096
" />
<path d="M124.3690 96.8096
L124.3690 97.8096
" />
<path d="M123.5595 97.3335
L123.2262 97.3335
" />
<path d="M123.0833 96.8096
L123.5595 96.8096
" />
<path d="M123.5595 96.8096
L123.5595 97.8096
" />
<path d="M123.5595 97.8096
L123.0833 97.8096
" />
<path d="M122.6548 96.8096
L122.6548 97.8096
" />
<path d="M122.6548 97.8096
L122.4167 97.8096
" />
<path d="M122.4167 97.8096
L122.2738 97.7620
" />
<path d="M122.2738 97.7620
L122.1786 97.6668
" />
<path d="M122.1786 97.6668
L122.1310 97.5716
" />
<path d="M122.1310 97.5716
L122.0833 97.3811
" />
<path d="M122.0833 97.3811
L122.0833 97.2382
" />
<path d="M122.0833 97.2382
L122.1310 97.0477
" />
<path d="M122.1310 97.0477
L122.1786 96.9525
" />
<path d="M122.1786 96.9525
L122.2738 96.8573
" />
<path d="M122.2738 96.8573
L122.4167 96.8096
" />
<path d="M122.4167 96.8096
L122.6548 96.8096
" />
</g><g transform="rotate(-180.000000 105.2500 97.2645)">
<text x="105.2500" y="97.7645"
textLength="2.9643" font-size="1.3333" lengthAdjust="spacingAndGlyphs"
text-anchor="middle" opacity="0">LED</text>
</g>
<g class="stroked-text"><desc>LED</desc>
<path d="M105.8929 96.8096
L106.3690 96.8096
" />
<path d="M106.3690 96.8096
L106.3690 97.8096
" />
<path d="M105.5595 97.3335
L105.2262 97.3335
" />
<path d="M105.0833 96.8096
L105.5595 96.8096
" />
<path d="M105.5595 96.8096
L105.5595 97.8096
" />
<path d="M105.5595 97.8096
L105.0833 97.8096
" />
<path d="M104.6548 96.8096
L104.6548 97.8096
" />
<path d="M104.6548 97.8096
L104.4167 97.8096
" />
<path d="M104.4167 97.8096
L104.2738 97.7620
" />
<path d="M104.2738 97.7620
L104.1786 97.6668
" />
<path d="M104.1786 97.6668
L104.1310 97.5716
" />
<path d="M104.1310 97.5716
L104.0833 97.3811
" />
<path d="M104.0833 97.3811
L104.0833 97.2382
" />
<path d="M104.0833 97.2382
L104.1310 97.0477
" />
<path d="M104.1310 97.0477
L104.1786 96.9525
" />
<path d="M104.1786 96.9525
L104.2738 96.8573
" />
<path d="M104.2738 96.8573
L104.4167 96.8096
" />
<path d="M104.4167 96.8096
L104.6548 96.8096
" />
</g><g transform="rotate(-180.000000 87.2500 97.2645)">
<text x="87.2500" y="97.7645"
textLength="2.9643" font-size="1.3333" lengthAdjust="spacingAndGlyphs"
text-anchor="middle" opacity="0">LED</text>
</g>
<g class="stroked-text"><desc>LED</desc>
<path d="M87.8929 96.8096
L88.3690 96.8096
" />
<path d="M88.3690 96.8096
L88.3690 97.8096
" />
<path d="M87.5595 97.3335
L87.2262 97.3335
" />
<path d="M87.0833 96.8096
L87.5595 96.8096
" />
<path d="M87.5595 96.8096
L87.5595 97.8096
" />
<path d="M87.5595 97.8096
L87.0833 97.8096
" />
<path d="M86.6548 96.8096
L86.6548 97.8096
" />
<path d="M86.6548 97.8096
L86.4167 97.8096
" />
<path d="M86.4167 97.8096
L86.2738 97.7620
" />
<path d="M86.2738 97.7620
L86.1786 97.6668
" />
<path d="M86.1786 97.6668
L86.1310 97.5716
" />
<path d="M86.1310 97.5716
L86.0833 97.3811
" />
<path d="M86.0833 97.3811
L86.0833 97.2382
" />
<path d="M86.0833 97.2382
L86.1310 97.0477
" />
<path d="M86.1310 97.0477
L86.1786 96.9525
" />
<path d="M86.1786 96.9525
L86.2738 96.8573
" />
<path d="M86.2738 96.8573
L86.4167 96.8096
" />
<path d="M86.4167 96.8096
L86.6548 96.8096
" />
</g><g transform="rotate(-180.000000 69.2500 97.2645)">
<text x="69.2500" y="97.7645"
textLength="2.9643" font-size="1.3333" lengthAdjust="spacingAndGlyphs"
text-anchor="middle" opacity="0">LED</text>
</g>
<g class="stroked-text"><desc>LED</desc>
<path d="M69.8929 96.8096
L70.3690 96.8096
" />
<path d="M70.3690 96.8096
L70.3690 97.8096
" />
<path d="M69.5595 97.3335
L69.2262 97.3335
" />
<path d="M69.0833 96.8096
L69.5595 96.8096
" />
<path d="M69.5595 96.8096
L69.5595 97.8096
" />
<path d="M69.5595 97.8096
L69.0833 97.8096
" />
<path d="M68.6548 96.8096
L68.6548 97.8096
" />
<path d="M68.6548 97.8096
L68.4167 97.8096
" />
<path d="M68.4167 97.8096
L68.2738 97.7620
" />
<path d="M68.2738 97.7620
L68.1786 97.6668
" />
<path d="M68.1786 97.6668
L68.1310 97.5716
" />
<path d="M68.1310 97.5716
L68.0833 97.3811
" />
<path d="M68.0833 97.3811
L68.0833 97.2382
" />
<path d="M68.0833 97.2382
L68.1310 97.0477
" />
<path d="M68.1310 97.0477
L68.1786 96.9525
" />
<path d="M68.1786 96.9525
L68.2738 96.8573
" />
<path d="M68.2738 96.8573
L68.4167 96.8096
" />
<path d="M68.4167 96.8096
L68.6548 96.8096
" />
</g><g transform="rotate(-180.000000 51.2500 97.2645)">
<text x="51.2500" y="97.7645"
textLength="2.9643" font-size="1.3333" lengthAdjust="spacingAndGlyphs"
text-anchor="middle" opacity="0">LED</text>
</g>
<g class="stroked-text"><desc>LED</desc>
<path d="M51.8929 96.8096
L52.3690 96.8096
" />
<path d="M52.3690 96.8096
L52.3690 97.8096
" />
<path d="M51.5595 97.3335
L51.2262 97.3335
" />
<path d="M51.0833 96.8096
L51.5595 96.8096
" />
<path d="M51.5595 96.8096
L51.5595 97.8096
" />
<path d="M51.5595 97.8096
L51.0833 97.8096
" />
<path d="M50.6548 96.8096
L50.6548 97.8096
" />
<path d="M50.6548 97.8096
L50.4167 97.8096
" />
<path d="M50.4167 97.8096
L50.2738 97.7620
" />
<path d="M50.2738 97.7620
L50.1786 97.6668
" />
<path d="M50.1786 97.6668
L50.1310 97.5716
" />
<path d="M50.1310 97.5716
L50.0833 97.3811
" />
<path d="M50.0833 97.3811
L50.0833 97.2382
" />
<path d="M50.0833 97.2382
L50.1310 97.0477
" />
<path d="M50.1310 97.0477
L50.1786 96.9525
" />
<path d="M50.1786 96.9525
L50.2738 96.8573
" />
<path d="M50.2738 96.8573
L50.4167 96.8096
" />
<path d="M50.4167 96.8096
L50.6548 96.8096
" />
</g><g transform="rotate(-180.000000 249.2500 80.2645)">
<text x="249.2500" y="80.7645"
textLength="2.9643" font-size="1.3333" lengthAdjust="spacingAndGlyphs"
text-anchor="middle" opacity="0">LED</text>
</g>
<g class="stroked-text"><desc>LED</desc>
<path d="M249.8929 79.8096
L250.3690 79.8096
" />
<path d="M250.3690 79.8096
L250.3690 80.8096
" />
<path d="M249.5595 80.3335
L249.2262 80.3335
" />
<path d="M249.0833 79.8096
L249.5595 79.8096
" />
<path d="M249.5595 79.8096
L249.5595 80.8096
" />
<path d="M249.5595 80.8096
L249.0833 80.8096
" />
<path d="M248.6548 79.8096
L248.6548 80.8096
" />
<path d="M248.6548 80.8096
L248.4167 80.8096
" />
<path d="M248.4167 80.8096
L248.2738 80.7620
" />
<path d="M248.2738 80.7620
L248.1786 80.6668
" />
<path d="M248.1786 80.6668
L248.1310 80.5716
" />
<path d="M248.1310 80.5716
L248.0833 80.3811
" />
<path d="M248.0833 80.3811
L248.0833 80.2382
" />
<path d="M248.0833 80.2382
L248.1310 80.0477
" />
<path d="M248.1310 80.0477
L248.1786 79.9525
" />
<path d="M248.1786 79.9525
L248.2738 79.8573
" />
<path d="M248.2738 79.8573
L248.4167 79.8096
" />
<path d="M248.4167 79.8096
L248.6548 79.8096
" />
</g><g transform="rotate(-180.000000 123.2500 131.2645)">
<text x="123.2500" y="131.7645"
textLength="2.9643" font-size="1.3333" lengthAdjust="spacingAndGlyphs"
text-anchor="middle" opacity="0">LED</text>
</g>
<g class="stroked-text"><desc>LED</desc>
<path d="M123.8929 130.8096
L124.3690 130.8096
" />
<path d="M124.3690 130.8096
L124.3690 131.8096
" />
<path d="M123.5595 131.3335
L123.2262 131.3335
" />
<path d="M123.0833 130.8096
L123.5595 130.8096
" />
<path d="M123.5595 130.8096
L123.5595 131.8096
" />
<path d="M123.5595 131.8096
L123.0833 131.8096
" />
<path d="M122.6548 130.8096
L122.6548 131.8096
" />
<path d="M122.6548 131.8096
L122.4167 131.8096
" />
<path d="M122.4167 131.8096
L122.2738 131.7620
" />
<path d="M122.2738 131.7620
L122.1786 131.6668
" />
<path d="M122.1786 131.6668
L122.1310 131.5716
" />
<path d="M122.1310 131.5716
L122.0833 131.3811
" />
<path d="M122.0833 131.3811
L122.0833 131.2382
" />
<path d="M122.0833 131.2382
L122.1310 131.0477
" />
<path d="M122.1310 131.0477
L122.1786 130.9525
" />
<path d="M122.1786 130.9525
L122.2738 130.8573
" />
<path d="M122.2738 130.8573
L122.4167 130.8096
" />
<path d="M122.4167 130.8096
L122.6548 130.8096
" />
</g><g transform="rotate(-180.000000 231.2500 80.2645)">
<text x="231.2500" y="80.7645"
textLength="2.9643" font-size="1.3333" lengthAdjust="spacingAndGlyphs"
text-anchor="middle" opacity="0">LED</text>
</g>
<g class="stroked-text"><desc>LED</desc>
<path d="M231.8929 79.8096
L232.3690 79.8096
" />
<path d="M232.3690 79.8096
L232.3690 80.8096
" />
<path d="M231.5595 80.3335
L231.2262 80.3335
" />
<path d="M231.0833 79.8096
L231.5595 79.8096
" />
<path d="M231.5595 79.8096
L231.5595 80.8096
" />
<path d="M231.5595 80.8096
L231.0833 80.8096
" />
<path d="M230.6548 79.8096
L230.6548 80.8096
" />
<path d="M230.6548 80.8096
L230.4167 80.8096
" />
<path d="M230.4167 80.8096
L230.2738 80.7620
" />
<path d="M230.2738 80.7620
L230.1786 80.6668
" />
<path d="M230.1786 80.6668
L230.1310 80.5716
" />
<path d="M230.1310 80.5716
L230.0833 80.3811
" />
<path d="M230.0833 80.3811
L230.0833 80.2382
" />
<path d="M230.0833 80.2382
L230.1310 80.0477
" />
<path d="M230.1310 80.0477
L230.1786 79.9525
" />
<path d="M230.1786 79.9525
L230.2738 79.8573
" />
<path d="M230.2738 79.8573
L230.4167 79.8096
" />
<path d="M230.4167 79.8096
L230.6548 79.8096
" />
</g><g transform="rotate(-180.000000 51.2500 80.2645)">
<text x="51.2500" y="80.7645"
textLength="2.9643" font-size="1.3333" lengthAdjust="spacingAndGlyphs"
text-anchor="middle" opacity="0">LED</text>
</g>
<g class="stroked-text"><desc>LED</desc>
<path d="M51.8929 79.8096
L52.3690 79.8096
" />
<path d="M52.3690 79.8096
L52.3690 80.8096
" />
<path d="M51.5595 80.3335
L51.2262 80.3335
" />
<path d="M51.0833 79.8096
L51.5595 79.8096
" />
<path d="M51.5595 79.8096
L51.5595 80.8096
" />
<path d="M51.5595 80.8096
L51.0833 80.8096
" />
<path d="M50.6548 79.8096
L50.6548 80.8096
" />
<path d="M50.6548 80.8096
L50.4167 80.8096
" />
<path d="M50.4167 80.8096
L50.2738 80.7620
" />
<path d="M50.2738 80.7620
L50.1786 80.6668
" />
<path d="M50.1786 80.6668
L50.1310 80.5716
" />
<path d="M50.1310 80.5716
L50.0833 80.3811
" />
<path d="M50.0833 80.3811
L50.0833 80.2382
" />
<path d="M50.0833 80.2382
L50.1310 80.0477
" />
<path d="M50.1310 80.0477
L50.1786 79.9525
" />
<path d="M50.1786 79.9525
L50.2738 79.8573
" />
<path d="M50.2738 79.8573
L50.4167 79.8096
" />
<path d="M50.4167 79.8096
L50.6548 79.8096
" />
</g><g transform="rotate(-180.000000 123.2500 80.2645)">
<text x="123.2500" y="80.7645"
textLength="2.9643" font-size="1.3333" lengthAdjust="spacingAndGlyphs"
text-anchor="middle" opacity="0">LED</text>
</g>
<g class="stroked-text"><desc>LED</desc>
<path d="M123.8929 79.8096
L124.3690 79.8096
" />
<path d="M124.3690 79.8096
L124.3690 80.8096
" />
<path d="M123.5595 80.3335
L123.2262 80.3335
" />
<path d="M123.0833 79.8096
L123.5595 79.8096
" />
<path d="M123.5595 79.8096
L123.5595 80.8096
" />
<path d="M123.5595 80.8096
L123.0833 80.8096
" />
<path d="M122.6548 79.8096
L122.6548 80.8096
" />
<path d="M122.6548 80.8096
L122.4167 80.8096
" />
<path d="M122.4167 80.8096
L122.2738 80.7620
" />
<path d="M122.2738 80.7620
L122.1786 80.6668
" />
<path d="M122.1786 80.6668
L122.1310 80.5716
" />
<path d="M122.1310 80.5716
L122.0833 80.3811
" />
<path d="M122.0833 80.3811
L122.0833 80.2382
" />
<path d="M122.0833 80.2382
L122.1310 80.0477
" />
<path d="M122.1310 80.0477
L122.1786 79.9525
" />
<path d="M122.1786 79.9525
L122.2738 79.8573
" />
<path d="M122.2738 79.8573
L122.4167 79.8096
" />
<path d="M122.4167 79.8096
L122.6548 79.8096
" />
</g><g transform="rotate(-180.000000 105.2500 80.2645)">
<text x="105.2500" y="80.7645"
textLength="2.9643" font-size="1.3333" lengthAdjust="spacingAndGlyphs"
text-anchor="middle" opacity="0">LED</text>
</g>
<g class="stroked-text"><desc>LED</desc>
<path d="M105.8929 79.8096
L106.3690 79.8096
" />
<path d="M106.3690 79.8096
L106.3690 80.8096
" />
<path d="M105.5595 80.3335
L105.2262 80.3335
" />
<path d="M105.0833 79.8096
L105.5595 79.8096
" />
<path d="M105.5595 79.8096
L105.5595 80.8096
" />
<path d="M105.5595 80.8096
L105.0833 80.8096
" />
<path d="M104.6548 79.8096
L104.6548 80.8096
" />
<path d="M104.6548 80.8096
L104.4167 80.8096
" />
<path d="M104.4167 80.8096
L104.2738 80.7620
" />
<path d="M104.2738 80.7620
L104.1786 80.6668
" />
<path d="M104.1786 80.6668
L104.1310 80.5716
" />
<path d="M104.1310 80.5716
L104.0833 80.3811
" />
<path d="M104.0833 80.3811
L104.0833 80.2382
" />
<path d="M104.0833 80.2382
L104.1310 80.0477
" />
<path d="M104.1310 80.0477
L104.1786 79.9525
" />
<path d="M104.1786 79.9525
L104.2738 79.8573
" />
<path d="M104.2738 79.8573
L104.4167 79.8096
" />
<path d="M104.4167 79.8096
L104.6548 79.8096
" />
</g><g transform="rotate(-180.000000 177.2500 80.2645)">
<text x="177.2500" y="80.7645"
textLength="2.9643" font-size="1.3333" lengthAdjust="spacingAndGlyphs"
text-anchor="middle" opacity="0">LED</text>
</g>
<g class="stroked-text"><desc>LED</desc>
<path d="M177.8929 79.8096
L178.3690 79.8096
" />
<path d="M178.3690 79.8096
L178.3690 80.8096
" />
<path d="M177.5595 80.3335
L177.2262 80.3335
" />
<path d="M177.0833 79.8096
L177.5595 79.8096
" />
<path d="M177.5595 79.8096
L177.5595 80.8096
" />
<path d="M177.5595 80.8096
L177.0833 80.8096
" />
<path d="M176.6548 79.8096
L176.6548 80.8096
" />
<path d="M176.6548 80.8096
L176.4167 80.8096
" />
<path d="M176.4167 80.8096
L176.2738 80.7620
" />
<path d="M176.2738 80.7620
L176.1786 80.6668
" />
<path d="M176.1786 80.6668
L176.1310 80.5716
" />
<path d="M176.1310 80.5716
L176.0833 80.3811
" />
<path d="M176.0833 80.3811
L176.0833 80.2382
" />
<path d="M176.0833 80.2382
L176.1310 80.0477
" />
<path d="M176.1310 80.0477
L176.1786 79.9525
" />
<path d="M176.1786 79.9525
L176.2738 79.8573
" />
<path d="M176.2738 79.8573
L176.4167 79.8096
" />
<path d="M176.4167 79.8096
L176.6548 79.8096
" />
</g><g transform="rotate(-180.000000 159.3000 114.1145)">
<text x="159.3000" y="114.6145"
textLength="2.9643" font-size="1.3333" lengthAdjust="spacingAndGlyphs"
text-anchor="middle" opacity="0">LED</text>
</g>
<g class="stroked-text"><desc>LED</desc>
<path d="M159.9429 113.6596
L160.4190 113.6596
" />
<path d="M160.4190 113.6596
L160.4190 114.6596
" />
<path d="M159.6095 114.1835
L159.2762 114.1835
" />
<path d="M159.1333 113.6596
L159.6095 113.6596
" />
<path d="M159.6095 113.6596
L159.6095 114.6596
" />
<path d="M159.6095 114.6596
L159.1333 114.6596
" />
<path d="M158.7048 113.6596
L158.7048 114.6596
" />
<path d="M158.7048 114.6596
L158.4667 114.6596
" />
<path d="M158.4667 114.6596
L158.3238 114.6120
" />
<path d="M158.3238 114.6120
L158.2286 114.5168
" />
<path d="M158.2286 114.5168
L158.1810 114.4216
" />
<path d="M158.1810 114.4216
L158.1333 114.2311
" />
<path d="M158.1333 114.2311
L158.1333 114.0882
" />
<path d="M158.1333 114.0882
L158.1810 113.8977
" />
<path d="M158.1810 113.8977
L158.2286 113.8025
" />
<path d="M158.2286 113.8025
L158.3238 113.7073
" />
<path d="M158.3238 113.7073
L158.4667 113.6596
" />
<path d="M158.4667 113.6596
L158.7048 113.6596
" />
</g><g transform="rotate(-180.000000 69.2500 80.2645)">
<text x="69.2500" y="80.7645"
textLength="2.9643" font-size="1.3333" lengthAdjust="spacingAndGlyphs"
text-anchor="middle" opacity="0">LED</text>
</g>
<g class="stroked-text"><desc>LED</desc>
<path d="M69.8929 79.8096
L70.3690 79.8096
" />
<path d="M70.3690 79.8096
L70.3690 80.8096
" />
<path d="M69.5595 80.3335
L69.2262 80.3335
" />
<path d="M69.0833 79.8096
L69.5595 79.8096
" />
<path d="M69.5595 79.8096
L69.5595 80.8096
" />
<path d="M69.5595 80.8096
L69.0833 80.8096
" />
<path d="M68.6548 79.8096
L68.6548 80.8096
" />
<path d="M68.6548 80.8096
L68.4167 80.8096
" />
<path d="M68.4167 80.8096
L68.2738 80.7620
" />
<path d="M68.2738 80.7620
L68.1786 80.6668
" />
<path d="M68.1786 80.6668
L68.1310 80.5716
" />
<path d="M68.1310 80.5716
L68.0833 80.3811
" />
<path d="M68.0833 80.3811
L68.0833 80.2382
" />
<path d="M68.0833 80.2382
L68.1310 80.0477
" />
<path d="M68.1310 80.0477
L68.1786 79.9525
" />
<path d="M68.1786 79.9525
L68.2738 79.8573
" />
<path d="M68.2738 79.8573
L68.4167 79.8096
" />
<path d="M68.4167 79.8096
L68.6548 79.8096
" />
</g><g transform="rotate(-180.000000 213.2500 80.2645)">
<text x="213.2500" y="80.7645"
textLength="2.9643" font-size="1.3333" lengthAdjust="spacingAndGlyphs"
text-anchor="middle" opacity="0">LED</text>
</g>
<g class="stroked-text"><desc>LED</desc>
<path d="M213.8929 79.8096
L214.3690 79.8096
" />
<path d="M214.3690 79.8096
L214.3690 80.8096
" />
<path d="M213.5595 80.3335
L213.2262 80.3335
" />
<path d="M213.0833 79.8096
L213.5595 79.8096
" />
<path d="M213.5595 79.8096
L213.5595 80.8096
" />
<path d="M213.5595 80.8096
L213.0833 80.8096
" />
<path d="M212.6548 79.8096
L212.6548 80.8096
" />
<path d="M212.6548 80.8096
L212.4167 80.8096
" />
<path d="M212.4167 80.8096
L212.2738 80.7620
" />
<path d="M212.2738 80.7620
L212.1786 80.6668
" />
<path d="M212.1786 80.6668
L212.1310 80.5716
" />
<path d="M212.1310 80.5716
L212.0833 80.3811
" />
<path d="M212.0833 80.3811
L212.0833 80.2382
" />
<path d="M212.0833 80.2382
L212.1310 80.0477
" />
<path d="M212.1310 80.0477
L212.1786 79.9525
" />
<path d="M212.1786 79.9525
L212.2738 79.8573
" />
<path d="M212.2738 79.8573
L212.4167 79.8096
" />
<path d="M212.4167 79.8096
L212.6548 79.8096
" />
</g><g transform="rotate(-180.000000 195.2500 80.2645)">
<text x="195.2500" y="80.7645"
textLength="2.9643" font-size="1.3333" lengthAdjust="spacingAndGlyphs"
text-anchor="middle" opacity="0">LED</text>
</g>
<g class="stroked-text"><desc>LED</desc>
<path d="M195.8929 79.8096
L196.3690 79.8096
" />
<path d="M196.3690 79.8096
L196.3690 80.8096
" />
<path d="M195.5595 80.3335
L195.2262 80.3335
" />
<path d="M195.0833 79.8096
L195.5595 79.8096
" />
<path d="M195.5595 79.8096
L195.5595 80.8096
" />
<path d="M195.5595 80.8096
L195.0833 80.8096
" />
<path d="M194.6548 79.8096
L194.6548 80.8096
" />
<path d="M194.6548 80.8096
L194.4167 80.8096
" />
<path d="M194.4167 80.8096
L194.2738 80.7620
" />
<path d="M194.2738 80.7620
L194.1786 80.6668
" />
<path d="M194.1786 80.6668
L194.1310 80.5716
" />
<path d="M194.1310 80.5716
L194.0833 80.3811
" />
<path d="M194.0833 80.3811
L194.0833 80.2382
" />
<path d="M194.0833 80.2382
L194.1310 80.0477
" />
<path d="M194.1310 80.0477
L194.1786 79.9525
" />
<path d="M194.1786 79.9525
L194.2738 79.8573
" />
<path d="M194.2738 79.8573
L194.4167 79.8096
" />
<path d="M194.4167 79.8096
L194.6548 79.8096
" />
</g><g transform="rotate(-180.000000 249.2500 114.2645)">
<text x="249.2500" y="114.7645"
textLength="2.9643" font-size="1.3333" lengthAdjust="spacingAndGlyphs"
text-anchor="middle" opacity="0">LED</text>
</g>
<g class="stroked-text"><desc>LED</desc>
<path d="M249.8929 113.8096
L250.3690 113.8096
" />
<path d="M250.3690 113.8096
L250.3690 114.8096
" />
<path d="M249.5595 114.3335
L249.2262 114.3335
" />
<path d="M249.0833 113.8096
L249.5595 113.8096
" />
<path d="M249.5595 113.8096
L249.5595 114.8096
" />
<path d="M249.5595 114.8096
L249.0833 114.8096
" />
<path d="M248.6548 113.8096
L248.6548 114.8096
" />
<path d="M248.6548 114.8096
L248.4167 114.8096
" />
<path d="M248.4167 114.8096
L248.2738 114.7620
" />
<path d="M248.2738 114.7620
L248.1786 114.6668
" />
<path d="M248.1786 114.6668
L248.1310 114.5716
" />
<path d="M248.1310 114.5716
L248.0833 114.3811
" />
<path d="M248.0833 114.3811
L248.0833 114.2382
" />
<path d="M248.0833 114.2382
L248.1310 114.0477
" />
<path d="M248.1310 114.0477
L248.1786 113.9525
" />
<path d="M248.1786 113.9525
L248.2738 113.8573
" />
<path d="M248.2738 113.8573
L248.4167 113.8096
" />
<path d="M248.4167 113.8096
L248.6548 113.8096
" />
</g><g transform="rotate(-180.000000 231.2500 114.2645)">
<text x="231.2500" y="114.7645"
textLength="2.9643" font-size="1.3333" lengthAdjust="spacingAndGlyphs"
text-anchor="middle" opacity="0">LED</text>
</g>
<g class="stroked-text"><desc>LED</desc>
<path d="M231.8929 113.8096
L232.3690 113.8096
" />
<path d="M232.3690 113.8096
L232.3690 114.8096
" />
<path d="M231.5595 114.3335
L231.2262 114.3335
" />
<path d="M231.0833 113.8096
L231.5595 113.8096
" />
<path d="M231.5595 113.8096
L231.5595 114.8096
" />
<path d="M231.5595 114.8096
L231.0833 114.8096
" />
<path d="M230.6548 113.8096
L230.6548 114.8096
" />
<path d="M230.6548 114.8096
L230.4167 114.8096
" />
<path d="M230.4167 114.8096
L230.2738 114.7620
" />
<path d="M230.2738 114.7620
L230.1786 114.6668
" />
<path d="M230.1786 114.6668
L230.1310 114.5716
" />
<path d="M230.1310 114.5716
L230.0833 114.3811
" />
<path d="M230.0833 114.3811
L230.0833 114.2382
" />
<path d="M230.0833 114.2382
L230.1310 114.0477
" />
<path d="M230.1310 114.0477
L230.1786 113.9525
" />
<path d="M230.1786 113.9525
L230.2738 113.8573
" />
<path d="M230.2738 113.8573
L230.4167 113.8096
" />
<path d="M230.4167 113.8096
L230.6548 113.8096
" />
</g><g transform="rotate(-180.000000 213.2500 114.2645)">
<text x="213.2500" y="114.7645"
textLength="2.9643" font-size="1.3333" lengthAdjust="spacingAndGlyphs"
text-anchor="middle" opacity="0">LED</text>
</g>
<g class="stroked-text"><desc>LED</desc>
<path d="M213.8929 113.8096
L214.3690 113.8096
" />
<path d="M214.3690 113.8096
L214.3690 114.8096
" />
<path d="M213.5595 114.3335
L213.2262 114.3335
" />
<path d="M213.0833 113.8096
L213.5595 113.8096
" />
<path d="M213.5595 113.8096
L213.5595 114.8096
" />
<path d="M213.5595 114.8096
L213.0833 114.8096
" />
<path d="M212.6548 113.8096
L212.6548 114.8096
" />
<path d="M212.6548 114.8096
L212.4167 114.8096
" />
<path d="M212.4167 114.8096
L212.2738 114.7620
" />
<path d="M212.2738 114.7620
L212.1786 114.6668
" />
<path d="M212.1786 114.6668
L212.1310 114.5716
" />
<path d="M212.1310 114.5716
L212.0833 114.3811
" />
<path d="M212.0833 114.3811
L212.0833 114.2382
" />
<path d="M212.0833 114.2382
L212.1310 114.0477
" />
<path d="M212.1310 114.0477
L212.1786 113.9525
" />
<path d="M212.1786 113.9525
L212.2738 113.8573
" />
<path d="M212.2738 113.8573
L212.4167 113.8096
" />
<path d="M212.4167 113.8096
L212.6548 113.8096
" />
</g><g transform="rotate(-180.000000 195.2500 114.2645)">
<text x="195.2500" y="114.7645"
textLength="2.9643" font-size="1.3333" lengthAdjust="spacingAndGlyphs"
text-anchor="middle" opacity="0">LED</text>
</g>
<g class="stroked-text"><desc>LED</desc>
<path d="M195.8929 113.8096
L196.3690 113.8096
" />
<path d="M196.3690 113.8096
L196.3690 114.8096
" />
<path d="M195.5595 114.3335
L195.2262 114.3335
" />
<path d="M195.0833 113.8096
L195.5595 113.8096
" />
<path d="M195.5595 113.8096
L195.5595 114.8096
" />
<path d="M195.5595 114.8096
L195.0833 114.8096
" />
<path d="M194.6548 113.8096
L194.6548 114.8096
" />
<path d="M194.6548 114.8096
L194.4167 114.8096
" />
<path d="M194.4167 114.8096
L194.2738 114.7620
" />
<path d="M194.2738 114.7620
L194.1786 114.6668
" />
<path d="M194.1786 114.6668
L194.1310 114.5716
" />
<path d="M194.1310 114.5716
L194.0833 114.3811
" />
<path d="M194.0833 114.3811
L194.0833 114.2382
" />
<path d="M194.0833 114.2382
L194.1310 114.0477
" />
<path d="M194.1310 114.0477
L194.1786 113.9525
" />
<path d="M194.1786 113.9525
L194.2738 113.8573
" />
<path d="M194.2738 113.8573
L194.4167 113.8096
" />
<path d="M194.4167 113.8096
L194.6548 113.8096
" />
</g><g transform="rotate(-180.000000 177.3000 114.0145)">
<text x="177.3000" y="114.5145"
textLength="2.9643" font-size="1.3333" lengthAdjust="spacingAndGlyphs"
text-anchor="middle" opacity="0">LED</text>
</g>
<g class="stroked-text"><desc>LED</desc>
<path d="M177.9429 113.5596
L178.4190 113.5596
" />
<path d="M178.4190 113.5596
L178.4190 114.5596
" />
<path d="M177.6095 114.0835
L177.2762 114.0835
" />
<path d="M177.1333 113.5596
L177.6095 113.5596
" />
<path d="M177.6095 113.5596
L177.6095 114.5596
" />
<path d="M177.6095 114.5596
L177.1333 114.5596
" />
<path d="M176.7048 113.5596
L176.7048 114.5596
" />
<path d="M176.7048 114.5596
L176.4667 114.5596
" />
<path d="M176.4667 114.5596
L176.3238 114.5120
" />
<path d="M176.3238 114.5120
L176.2286 114.4168
" />
<path d="M176.2286 114.4168
L176.1810 114.3216
" />
<path d="M176.1810 114.3216
L176.1333 114.1311
" />
<path d="M176.1333 114.1311
L176.1333 113.9882
" />
<path d="M176.1333 113.9882
L176.1810 113.7977
" />
<path d="M176.1810 113.7977
L176.2286 113.7025
" />
<path d="M176.2286 113.7025
L176.3238 113.6073
" />
<path d="M176.3238 113.6073
L176.4667 113.5596
" />
<path d="M176.4667 113.5596
L176.7048 113.5596
" />
</g><g transform="rotate(-180.000000 141.2500 114.2645)">
<text x="141.2500" y="114.7645"
textLength="2.9643" font-size="1.3333" lengthAdjust="spacingAndGlyphs"
text-anchor="middle" opacity="0">LED</text>
</g>
<g class="stroked-text"><desc>LED</desc>
<path d="M141.8929 113.8096
L142.3690 113.8096
" />
<path d="M142.3690 113.8096
L142.3690 114.8096
" />
<path d="M141.5595 114.3335
L141.2262 114.3335
" />
<path d="M141.0833 113.8096
L141.5595 113.8096
" />
<path d="M141.5595 113.8096
L141.5595 114.8096
" />
<path d="M141.5595 114.8096
L141.0833 114.8096
" />
<path d="M140.6548 113.8096
L140.6548 114.8096
" />
<path d="M140.6548 114.8096
L140.4167 114.8096
" />
<path d="M140.4167 114.8096
L140.2738 114.7620
" />
<path d="M140.2738 114.7620
L140.1786 114.6668
" />
<path d="M140.1786 114.6668
L140.1310 114.5716
" />
<path d="M140.1310 114.5716
L140.0833 114.3811
" />
<path d="M140.0833 114.3811
L140.0833 114.2382
" />
<path d="M140.0833 114.2382
L140.1310 114.0477
" />
<path d="M140.1310 114.0477
L140.1786 113.9525
" />
<path d="M140.1786 113.9525
L140.2738 113.8573
" />
<path d="M140.2738 113.8573
L140.4167 113.8096
" />
<path d="M140.4167 113.8096
L140.6548 113.8096
" />
</g><g transform="rotate(-180.000000 123.2500 114.2645)">
<text x="123.2500" y="114.7645"
textLength="2.9643" font-size="1.3333" lengthAdjust="spacingAndGlyphs"
text-anchor="middle" opacity="0">LED</text>
</g>
<g class="stroked-text"><desc>LED</desc>
<path d="M123.8929 113.8096
L124.3690 113.8096
" />
<path d="M124.3690 113.8096
L124.3690 114.8096
" />
<path d="M123.5595 114.3335
L123.2262 114.3335
" />
<path d="M123.0833 113.8096
L123.5595 113.8096
" />
<path d="M123.5595 113.8096
L123.5595 114.8096
" />
<path d="M123.5595 114.8096
L123.0833 114.8096
" />
<path d="M122.6548 113.8096
L122.6548 114.8096
" />
<path d="M122.6548 114.8096
L122.4167 114.8096
" />
<path d="M122.4167 114.8096
L122.2738 114.7620
" />
<path d="M122.2738 114.7620
L122.1786 114.6668
" />
<path d="M122.1786 114.6668
L122.1310 114.5716
" />
<path d="M122.1310 114.5716
L122.0833 114.3811
" />
<path d="M122.0833 114.3811
L122.0833 114.2382
" />
<path d="M122.0833 114.2382
L122.1310 114.0477
" />
<path d="M122.1310 114.0477
L122.1786 113.9525
" />
<path d="M122.1786 113.9525
L122.2738 113.8573
" />
<path d="M122.2738 113.8573
L122.4167 113.8096
" />
<path d="M122.4167 113.8096
L122.6548 113.8096
" />
</g><g transform="rotate(-180.000000 87.2500 80.2645)">
<text x="87.2500" y="80.7645"
textLength="2.9643" font-size="1.3333" lengthAdjust="spacingAndGlyphs"
text-anchor="middle" opacity="0">LED</text>
</g>
<g class="stroked-text"><desc>LED</desc>
<path d="M87.8929 79.8096
L88.3690 79.8096
" />
<path d="M88.3690 79.8096
L88.3690 80.8096
" />
<path d="M87.5595 80.3335
L87.2262 80.3335
" />
<path d="M87.0833 79.8096
L87.5595 79.8096
" />
<path d="M87.5595 79.8096
L87.5595 80.8096
" />
<path d="M87.5595 80.8096
L87.0833 80.8096
" />
<path d="M86.6548 79.8096
L86.6548 80.8096
" />
<path d="M86.6548 80.8096
L86.4167 80.8096
" />
<path d="M86.4167 80.8096
L86.2738 80.7620
" />
<path d="M86.2738 80.7620
L86.1786 80.6668
" />
<path d="M86.1786 80.6668
L86.1310 80.5716
" />
<path d="M86.1310 80.5716
L86.0833 80.3811
" />
<path d="M86.0833 80.3811
L86.0833 80.2382
" />
<path d="M86.0833 80.2382
L86.1310 80.0477
" />
<path d="M86.1310 80.0477
L86.1786 79.9525
" />
<path d="M86.1786 79.9525
L86.2738 79.8573
" />
<path d="M86.2738 79.8573
L86.4167 79.8096
" />
<path d="M86.4167 79.8096
L86.6548 79.8096
" />
</g><g transform="rotate(-180.000000 141.2500 80.2645)">
<text x="141.2500" y="80.7645"
textLength="2.9643" font-size="1.3333" lengthAdjust="spacingAndGlyphs"
text-anchor="middle" opacity="0">LED</text>
</g>
<g class="stroked-text"><desc>LED</desc>
<path d="M141.8929 79.8096
L142.3690 79.8096
" />
<path d="M142.3690 79.8096
L142.3690 80.8096
" />
<path d="M141.5595 80.3335
L141.2262 80.3335
" />
<path d="M141.0833 79.8096
L141.5595 79.8096
" />
<path d="M141.5595 79.8096
L141.5595 80.8096
" />
<path d="M141.5595 80.8096
L141.0833 80.8096
" />
<path d="M140.6548 79.8096
L140.6548 80.8096
" />
<path d="M140.6548 80.8096
L140.4167 80.8096
" />
<path d="M140.4167 80.8096
L140.2738 80.7620
" />
<path d="M140.2738 80.7620
L140.1786 80.6668
" />
<path d="M140.1786 80.6668
L140.1310 80.5716
" />
<path d="M140.1310 80.5716
L140.0833 80.3811
" />
<path d="M140.0833 80.3811
L140.0833 80.2382
" />
<path d="M140.0833 80.2382
L140.1310 80.0477
" />
<path d="M140.1310 80.0477
L140.1786 79.9525
" />
<path d="M140.1786 79.9525
L140.2738 79.8573
" />
<path d="M140.2738 79.8573
L140.4167 79.8096
" />
<path d="M140.4167 79.8096
L140.6548 79.8096
" />
</g><g transform="rotate(-180.000000 105.2500 131.2645)">
<text x="105.2500" y="131.7645"
textLength="2.9643" font-size="1.3333" lengthAdjust="spacingAndGlyphs"
text-anchor="middle" opacity="0">LED</text>
</g>
<g class="stroked-text"><desc>LED</desc>
<path d="M105.8929 130.8096
L106.3690 130.8096
" />
<path d="M106.3690 130.8096
L106.3690 131.8096
" />
<path d="M105.5595 131.3335
L105.2262 131.3335
" />
<path d="M105.0833 130.8096
L105.5595 130.8096
" />
<path d="M105.5595 130.8096
L105.5595 131.8096
" />
<path d="M105.5595 131.8096
L105.0833 131.8096
" />
<path d="M104.6548 130.8096
L104.6548 131.8096
" />
<path d="M104.6548 131.8096
L104.4167 131.8096
" />
<path d="M104.4167 131.8096
L104.2738 131.7620
" />
<path d="M104.2738 131.7620
L104.1786 131.6668
" />
<path d="M104.1786 131.6668
L104.1310 131.5716
" />
<path d="M104.1310 131.5716
L104.0833 131.3811
" />
<path d="M104.0833 131.3811
L104.0833 131.2382
" />
<path d="M104.0833 131.2382
L104.1310 131.0477
" />
<path d="M104.1310 131.0477
L104.1786 130.9525
" />
<path d="M104.1786 130.9525
L104.2738 130.8573
" />
<path d="M104.2738 130.8573
L104.4167 130.8096
" />
<path d="M104.4167 130.8096
L104.6548 130.8096
" />
</g><g transform="rotate(-180.000000 177.2500 131.2645)">
<text x="177.2500" y="131.7645"
textLength="2.9643" font-size="1.3333" lengthAdjust="spacingAndGlyphs"
text-anchor="middle" opacity="0">LED</text>
</g>
<g class="stroked-text"><desc>LED</desc>
<path d="M177.8929 130.8096
L178.3690 130.8096
" />
<path d="M178.3690 130.8096
L178.3690 131.8096
" />
<path d="M177.5595 131.3335
L177.2262 131.3335
" />
<path d="M177.0833 130.8096
L177.5595 130.8096
" />
<path d="M177.5595 130.8096
L177.5595 131.8096
" />
<path d="M177.5595 131.8096
L177.0833 131.8096
" />
<path d="M176.6548 130.8096
L176.6548 131.8096
" />
<path d="M176.6548 131.8096
L176.4167 131.8096
" />
<path d="M176.4167 131.8096
L176.2738 131.7620
" />
<path d="M176.2738 131.7620
L176.1786 131.6668
" />
<path d="M176.1786 131.6668
L176.1310 131.5716
" />
<path d="M176.1310 131.5716
L176.0833 131.3811
" />
<path d="M176.0833 131.3811
L176.0833 131.2382
" />
<path d="M176.0833 131.2382
L176.1310 131.0477
" />
<path d="M176.1310 131.0477
L176.1786 130.9525
" />
<path d="M176.1786 130.9525
L176.2738 130.8573
" />
<path d="M176.2738 130.8573
L176.4167 130.8096
" />
<path d="M176.4167 130.8096
L176.6548 130.8096
" />
</g><g transform="rotate(-180.000000 195.2500 131.2645)">
<text x="195.2500" y="131.7645"
textLength="2.9643" font-size="1.3333" lengthAdjust="spacingAndGlyphs"
text-anchor="middle" opacity="0">LED</text>
</g>
<g class="stroked-text"><desc>LED</desc>
<path d="M195.8929 130.8096
L196.3690 130.8096
" />
<path d="M196.3690 130.8096
L196.3690 131.8096
" />
<path d="M195.5595 131.3335
L195.2262 131.3335
" />
<path d="M195.0833 130.8096
L195.5595 130.8096
" />
<path d="M195.5595 130.8096
L195.5595 131.8096
" />
<path d="M195.5595 131.8096
L195.0833 131.8096
" />
<path d="M194.6548 130.8096
L194.6548 131.8096
" />
<path d="M194.6548 131.8096
L194.4167 131.8096
" />
<path d="M194.4167 131.8096
L194.2738 131.7620
" />
<path d="M194.2738 131.7620
L194.1786 131.6668
" />
<path d="M194.1786 131.6668
L194.1310 131.5716
" />
<path d="M194.1310 131.5716
L194.0833 131.3811
" />
<path d="M194.0833 131.3811
L194.0833 131.2382
" />
<path d="M194.0833 131.2382
L194.1310 131.0477
" />
<path d="M194.1310 131.0477
L194.1786 130.9525
" />
<path d="M194.1786 130.9525
L194.2738 130.8573
" />
<path d="M194.2738 130.8573
L194.4167 130.8096
" />
<path d="M194.4167 130.8096
L194.6548 130.8096
" />
</g><g transform="rotate(-180.000000 159.2500 131.2645)">
<text x="159.2500" y="131.7645"
textLength="2.9643" font-size="1.3333" lengthAdjust="spacingAndGlyphs"
text-anchor="middle" opacity="0">LED</text>
</g>
<g class="stroked-text"><desc>LED</desc>
<path d="M159.8929 130.8096
L160.3690 130.8096
" />
<path d="M160.3690 130.8096
L160.3690 131.8096
" />
<path d="M159.5595 131.3335
L159.2262 131.3335
" />
<path d="M159.0833 130.8096
L159.5595 130.8096
" />
<path d="M159.5595 130.8096
L159.5595 131.8096
" />
<path d="M159.5595 131.8096
L159.0833 131.8096
" />
<path d="M158.6548 130.8096
L158.6548 131.8096
" />
<path d="M158.6548 131.8096
L158.4167 131.8096
" />
<path d="M158.4167 131.8096
L158.2738 131.7620
" />
<path d="M158.2738 131.7620
L158.1786 131.6668
" />
<path d="M158.1786 131.6668
L158.1310 131.5716
" />
<path d="M158.1310 131.5716
L158.0833 131.3811
" />
<path d="M158.0833 131.3811
L158.0833 131.2382
" />
<path d="M158.0833 131.2382
L158.1310 131.0477
" />
<path d="M158.1310 131.0477
L158.1786 130.9525
" />
<path d="M158.1786 130.9525
L158.2738 130.8573
" />
<path d="M158.2738 130.8573
L158.4167 130.8096
" />
<path d="M158.4167 130.8096
L158.6548 130.8096
" />
</g><g transform="rotate(-180.000000 87.2500 131.2645)">
<text x="87.2500" y="131.7645"
textLength="2.9643" font-size="1.3333" lengthAdjust="spacingAndGlyphs"
text-anchor="middle" opacity="0">LED</text>
</g>
<g class="stroked-text"><desc>LED</desc>
<path d="M87.8929 130.8096
L88.3690 130.8096
" />
<path d="M88.3690 130.8096
L88.3690 131.8096
" />
<path d="M87.5595 131.3335
L87.2262 131.3335
" />
<path d="M87.0833 130.8096
L87.5595 130.8096
" />
<path d="M87.5595 130.8096
L87.5595 131.8096
" />
<path d="M87.5595 131.8096
L87.0833 131.8096
" />
<path d="M86.6548 130.8096
L86.6548 131.8096
" />
<path d="M86.6548 131.8096
L86.4167 131.8096
" />
<path d="M86.4167 131.8096
L86.2738 131.7620
" />
<path d="M86.2738 131.7620
L86.1786 131.6668
" />
<path d="M86.1786 131.6668
L86.1310 131.5716
" />
<path d="M86.1310 131.5716
L86.0833 131.3811
" />
<path d="M86.0833 131.3811
L86.0833 131.2382
" />
<path d="M86.0833 131.2382
L86.1310 131.0477
" />
<path d="M86.1310 131.0477
L86.1786 130.9525
" />
<path d="M86.1786 130.9525
L86.2738 130.8573
" />
<path d="M86.2738 130.8573
L86.4167 130.8096
" />
<path d="M86.4167 130.8096
L86.6548 130.8096
" />
</g><g transform="rotate(-180.000000 69.2500 63.2645)">
<text x="69.2500" y="63.7645"
textLength="2.9643" font-size="1.3333" lengthAdjust="spacingAndGlyphs"
text-anchor="middle" opacity="0">LED</text>
</g>
<g class="stroked-text"><desc>LED</desc>
<path d="M69.8929 62.8096
L70.3690 62.8096
" />
<path d="M70.3690 62.8096
L70.3690 63.8096
" />
<path d="M69.5595 63.3335
L69.2262 63.3335
" />
<path d="M69.0833 62.8096
L69.5595 62.8096
" />
<path d="M69.5595 62.8096
L69.5595 63.8096
" />
<path d="M69.5595 63.8096
L69.0833 63.8096
" />
<path d="M68.6548 62.8096
L68.6548 63.8096
" />
<path d="M68.6548 63.8096
L68.4167 63.8096
" />
<path d="M68.4167 63.8096
L68.2738 63.7620
" />
<path d="M68.2738 63.7620
L68.1786 63.6668
" />
<path d="M68.1786 63.6668
L68.1310 63.5716
" />
<path d="M68.1310 63.5716
L68.0833 63.3811
" />
<path d="M68.0833 63.3811
L68.0833 63.2382
" />
<path d="M68.0833 63.2382
L68.1310 63.0477
" />
<path d="M68.1310 63.0477
L68.1786 62.9525
" />
<path d="M68.1786 62.9525
L68.2738 62.8573
" />
<path d="M68.2738 62.8573
L68.4167 62.8096
" />
<path d="M68.4167 62.8096
L68.6548 62.8096
" />
</g><g transform="rotate(-180.000000 51.2500 63.2645)">
<text x="51.2500" y="63.7645"
textLength="2.9643" font-size="1.3333" lengthAdjust="spacingAndGlyphs"
text-anchor="middle" opacity="0">LED</text>
</g>
<g class="stroked-text"><desc>LED</desc>
<path d="M51.8929 62.8096
L52.3690 62.8096
" />
<path d="M52.3690 62.8096
L52.3690 63.8096
" />
<path d="M51.5595 63.3335
L51.2262 63.3335
" />
<path d="M51.0833 62.8096
L51.5595 62.8096
" />
<path d="M51.5595 62.8096
L51.5595 63.8096
" />
<path d="M51.5595 63.8096
L51.0833 63.8096
" />
<path d="M50.6548 62.8096
L50.6548 63.8096
" />
<path d="M50.6548 63.8096
L50.4167 63.8096
" />
<path d="M50.4167 63.8096
L50.2738 63.7620
" />
<path d="M50.2738 63.7620
L50.1786 63.6668
" />
<path d="M50.1786 63.6668
L50.1310 63.5716
" />
<path d="M50.1310 63.5716
L50.0833 63.3811
" />
<path d="M50.0833 63.3811
L50.0833 63.2382
" />
<path d="M50.0833 63.2382
L50.1310 63.0477
" />
<path d="M50.1310 63.0477
L50.1786 62.9525
" />
<path d="M50.1786 62.9525
L50.2738 62.8573
" />
<path d="M50.2738 62.8573
L50.4167 62.8096
" />
<path d="M50.4167 62.8096
L50.6548 62.8096
" />
</g><g transform="rotate(-180.000000 51.2500 131.2645)">
<text x="51.2500" y="131.7645"
textLength="2.9643" font-size="1.3333" lengthAdjust="spacingAndGlyphs"
text-anchor="middle" opacity="0">LED</text>
</g>
<g class="stroked-text"><desc>LED</desc>
<path d="M51.8929 130.8096
L52.3690 130.8096
" />
<path d="M52.3690 130.8096
L52.3690 131.8096
" />
<path d="M51.5595 131.3335
L51.2262 131.3335
" />
<path d="M51.0833 130.8096
L51.5595 130.8096
" />
<path d="M51.5595 130.8096
L51.5595 131.8096
" />
<path d="M51.5595 131.8096
L51.0833 131.8096
" />
<path d="M50.6548 130.8096
L50.6548 131.8096
" />
<path d="M50.6548 131.8096
L50.4167 131.8096
" />
<path d="M50.4167 131.8096
L50.2738 131.7620
" />
<path d="M50.2738 131.7620
L50.1786 131.6668
" />
<path d="M50.1786 131.6668
L50.1310 131.5716
" />
<path d="M50.1310 131.5716
L50.0833 131.3811
" />
<path d="M50.0833 131.3811
L50.0833 131.2382
" />
<path d="M50.0833 131.2382
L50.1310 131.0477
" />
<path d="M50.1310 131.0477
L50.1786 130.9525
" />
<path d="M50.1786 130.9525
L50.2738 130.8573
" />
<path d="M50.2738 130.8573
L50.4167 130.8096
" />
<path d="M50.4167 130.8096
L50.6548 130.8096
" />
</g><g transform="rotate(-180.000000 69.2500 131.2645)">
<text x="69.2500" y="131.7645"
textLength="2.9643" font-size="1.3333" lengthAdjust="spacingAndGlyphs"
text-anchor="middle" opacity="0">LED</text>
</g>
<g class="stroked-text"><desc>LED</desc>
<path d="M69.8929 130.8096
L70.3690 130.8096
" />
<path d="M70.3690 130.8096
L70.3690 131.8096
" />
<path d="M69.5595 131.3335
L69.2262 131.3335
" />
<path d="M69.0833 130.8096
L69.5595 130.8096
" />
<path d="M69.5595 130.8096
L69.5595 131.8096
" />
<path d="M69.5595 131.8096
L69.0833 131.8096
" />
<path d="M68.6548 130.8096
L68.6548 131.8096
" />
<path d="M68.6548 131.8096
L68.4167 131.8096
" />
<path d="M68.4167 131.8096
L68.2738 131.7620
" />
<path d="M68.2738 131.7620
L68.1786 131.6668
" />
<path d="M68.1786 131.6668
L68.1310 131.5716
" />
<path d="M68.1310 131.5716
L68.0833 131.3811
" />
<path d="M68.0833 131.3811
L68.0833 131.2382
" />
<path d="M68.0833 131.2382
L68.1310 131.0477
" />
<path d="M68.1310 131.0477
L68.1786 130.9525
" />
<path d="M68.1786 130.9525
L68.2738 130.8573
" />
<path d="M68.2738 130.8573
L68.4167 130.8096
" />
<path d="M68.4167 130.8096
L68.6548 130.8096
" />
</g><g transform="rotate(-180.000000 213.2500 63.2645)">
<text x="213.2500" y="63.7645"
textLength="2.9643" font-size="1.3333" lengthAdjust="spacingAndGlyphs"
text-anchor="middle" opacity="0">LED</text>
</g>
<g class="stroked-text"><desc>LED</desc>
<path d="M213.8929 62.8096
L214.3690 62.8096
" />
<path d="M214.3690 62.8096
L214.3690 63.8096
" />
<path d="M213.5595 63.3335
L213.2262 63.3335
" />
<path d="M213.0833 62.8096
L213.5595 62.8096
" />
<path d="M213.5595 62.8096
L213.5595 63.8096
" />
<path d="M213.5595 63.8096
L213.0833 63.8096
" />
<path d="M212.6548 62.8096
L212.6548 63.8096
" />
<path d="M212.6548 63.8096
L212.4167 63.8096
" />
<path d="M212.4167 63.8096
L212.2738 63.7620
" />
<path d="M212.2738 63.7620
L212.1786 63.6668
" />
<path d="M212.1786 63.6668
L212.1310 63.5716
" />
<path d="M212.1310 63.5716
L212.0833 63.3811
" />
<path d="M212.0833 63.3811
L212.0833 63.2382
" />
<path d="M212.0833 63.2382
L212.1310 63.0477
" />
<path d="M212.1310 63.0477
L212.1786 62.9525
" />
<path d="M212.1786 62.9525
L212.2738 62.8573
" />
<path d="M212.2738 62.8573
L212.4167 62.8096
" />
<path d="M212.4167 62.8096
L212.6548 62.8096
" />
</g><g transform="rotate(-180.000000 213.2500 131.2645)">
<text x="213.2500" y="131.7645"
textLength="2.9643" font-size="1.3333" lengthAdjust="spacingAndGlyphs"
text-anchor="middle" opacity="0">LED</text>
</g>
<g class="stroked-text"><desc>LED</desc>
<path d="M213.8929 130.8096
L214.3690 130.8096
" />
<path d="M214.3690 130.8096
L214.3690 131.8096
" />
<path d="M213.5595 131.3335
L213.2262 131.3335
" />
<path d="M213.0833 130.8096
L213.5595 130.8096
" />
<path d="M213.5595 130.8096
L213.5595 131.8096
" />
<path d="M213.5595 131.8096
L213.0833 131.8096
" />
<path d="M212.6548 130.8096
L212.6548 131.8096
" />
<path d="M212.6548 131.8096
L212.4167 131.8096
" />
<path d="M212.4167 131.8096
L212.2738 131.7620
" />
<path d="M212.2738 131.7620
L212.1786 131.6668
" />
<path d="M212.1786 131.6668
L212.1310 131.5716
" />
<path d="M212.1310 131.5716
L212.0833 131.3811
" />
<path d="M212.0833 131.3811
L212.0833 131.2382
" />
<path d="M212.0833 131.2382
L212.1310 131.0477
" />
<path d="M212.1310 131.0477
L212.1786 130.9525
" />
<path d="M212.1786 130.9525
L212.2738 130.8573
" />
<path d="M212.2738 130.8573
L212.4167 130.8096
" />
<path d="M212.4167 130.8096
L212.6548 130.8096
" />
</g><g transform="rotate(-180.000000 249.2500 63.2645)">
<text x="249.2500" y="63.7645"
textLength="2.9643" font-size="1.3333" lengthAdjust="spacingAndGlyphs"
text-anchor="middle" opacity="0">LED</text>
</g>
<g class="stroked-text"><desc>LED</desc>
<path d="M249.8929 62.8096
L250.3690 62.8096
" />
<path d="M250.3690 62.8096
L250.3690 63.8096
" />
<path d="M249.5595 63.3335
L249.2262 63.3335
" />
<path d="M249.0833 62.8096
L249.5595 62.8096
" />
<path d="M249.5595 62.8096
L249.5595 63.8096
" />
<path d="M249.5595 63.8096
L249.0833 63.8096
" />
<path d="M248.6548 62.8096
L248.6548 63.8096
" />
<path d="M248.6548 63.8096
L248.4167 63.8096
" />
<path d="M248.4167 63.8096
L248.2738 63.7620
" />
<path d="M248.2738 63.7620
L248.1786 63.6668
" />
<path d="M248.1786 63.6668
L248.1310 63.5716
" />
<path d="M248.1310 63.5716
L248.0833 63.3811
" />
<path d="M248.0833 63.3811
L248.0833 63.2382
" />
<path d="M248.0833 63.2382
L248.1310 63.0477
" />
<path d="M248.1310 63.0477
L248.1786 62.9525
" />
<path d="M248.1786 62.9525
L248.2738 62.8573
" />
<path d="M248.2738 62.8573
L248.4167 62.8096
" />
<path d="M248.4167 62.8096
L248.6548 62.8096
" />
</g><g transform="rotate(-180.000000 105.2500 63.2645)">
<text x="105.2500" y="63.7645"
textLength="2.9643" font-size="1.3333" lengthAdjust="spacingAndGlyphs"
text-anchor="middle" opacity="0">LED</text>
</g>
<g class="stroked-text"><desc>LED</desc>
<path d="M105.8929 62.8096
L106.3690 62.8096
" />
<path d="M106.3690 62.8096
L106.3690 63.8096
" />
<path d="M105.5595 63.3335
L105.2262 63.3335
" />
<path d="M105.0833 62.8096
L105.5595 62.8096
" />
<path d="M105.5595 62.8096
L105.5595 63.8096
" />
<path d="M105.5595 63.8096
L105.0833 63.8096
" />
<path d="M104.6548 62.8096
L104.6548 63.8096
" />
<path d="M104.6548 63.8096
L104.4167 63.8096
" />
<path d="M104.4167 63.8096
L104.2738 63.7620
" />
<path d="M104.2738 63.7620
L104.1786 63.6668
" />
<path d="M104.1786 63.6668
L104.1310 63.5716
" />
<path d="M104.1310 63.5716
L104.0833 63.3811
" />
<path d="M104.0833 63.3811
L104.0833 63.2382
" />
<path d="M104.0833 63.2382
L104.1310 63.0477
" />
<path d="M104.1310 63.0477
L104.1786 62.9525
" />
<path d="M104.1786 62.9525
L104.2738 62.8573
" />
<path d="M104.2738 62.8573
L104.4167 62.8096
" />
<path d="M104.4167 62.8096
L104.6548 62.8096
" />
</g><g transform="rotate(-180.000000 141.2500 63.2645)">
<text x="141.2500" y="63.7645"
textLength="2.9643" font-size="1.3333" lengthAdjust="spacingAndGlyphs"
text-anchor="middle" opacity="0">LED</text>
</g>
<g class="stroked-text"><desc>LED</desc>
<path d="M141.8929 62.8096
L142.3690 62.8096
" />
<path d="M142.3690 62.8096
L142.3690 63.8096
" />
<path d="M141.5595 63.3335
L141.2262 63.3335
" />
<path d="M141.0833 62.8096
L141.5595 62.8096
" />
<path d="M141.5595 62.8096
L141.5595 63.8096
" />
<path d="M141.5595 63.8096
L141.0833 63.8096
" />
<path d="M140.6548 62.8096
L140.6548 63.8096
" />
<path d="M140.6548 63.8096
L140.4167 63.8096
" />
<path d="M140.4167 63.8096
L140.2738 63.7620
" />
<path d="M140.2738 63.7620
L140.1786 63.6668
" />
<path d="M140.1786 63.6668
L140.1310 63.5716
" />
<path d="M140.1310 63.5716
L140.0833 63.3811
" />
<path d="M140.0833 63.3811
L140.0833 63.2382
" />
<path d="M140.0833 63.2382
L140.1310 63.0477
" />
<path d="M140.1310 63.0477
L140.1786 62.9525
" />
<path d="M140.1786 62.9525
L140.2738 62.8573
" />
<path d="M140.2738 62.8573
L140.4167 62.8096
" />
<path d="M140.4167 62.8096
L140.6548 62.8096
" />
</g><g transform="rotate(-180.000000 177.2500 63.2645)">
<text x="177.2500" y="63.7645"
textLength="2.9643" font-size="1.3333" lengthAdjust="spacingAndGlyphs"
text-anchor="middle" opacity="0">LED</text>
</g>
<g class="stroked-text"><desc>LED</desc>
<path d="M177.8929 62.8096
L178.3690 62.8096
" />
<path d="M178.3690 62.8096
L178.3690 63.8096
" />
<path d="M177.5595 63.3335
L177.2262 63.3335
" />
<path d="M177.0833 62.8096
L177.5595 62.8096
" />
<path d="M177.5595 62.8096
L177.5595 63.8096
" />
<path d="M177.5595 63.8096
L177.0833 63.8096
" />
<path d="M176.6548 62.8096
L176.6548 63.8096
" />
<path d="M176.6548 63.8096
L176.4167 63.8096
" />
<path d="M176.4167 63.8096
L176.2738 63.7620
" />
<path d="M176.2738 63.7620
L176.1786 63.6668
" />
<path d="M176.1786 63.6668
L176.1310 63.5716
" />
<path d="M176.1310 63.5716
L176.0833 63.3811
" />
<path d="M176.0833 63.3811
L176.0833 63.2382
" />
<path d="M176.0833 63.2382
L176.1310 63.0477
" />
<path d="M176.1310 63.0477
L176.1786 62.9525
" />
<path d="M176.1786 62.9525
L176.2738 62.8573
" />
<path d="M176.2738 62.8573
L176.4167 62.8096
" />
<path d="M176.4167 62.8096
L176.6548 62.8096
" />
</g><g transform="rotate(-180.000000 231.2500 63.2645)">
<text x="231.2500" y="63.7645"
textLength="2.9643" font-size="1.3333" lengthAdjust="spacingAndGlyphs"
text-anchor="middle" opacity="0">LED</text>
</g>
<g class="stroked-text"><desc>LED</desc>
<path d="M231.8929 62.8096
L232.3690 62.8096
" />
<path d="M232.3690 62.8096
L232.3690 63.8096
" />
<path d="M231.5595 63.3335
L231.2262 63.3335
" />
<path d="M231.0833 62.8096
L231.5595 62.8096
" />
<path d="M231.5595 62.8096
L231.5595 63.8096
" />
<path d="M231.5595 63.8096
L231.0833 63.8096
" />
<path d="M230.6548 62.8096
L230.6548 63.8096
" />
<path d="M230.6548 63.8096
L230.4167 63.8096
" />
<path d="M230.4167 63.8096
L230.2738 63.7620
" />
<path d="M230.2738 63.7620
L230.1786 63.6668
" />
<path d="M230.1786 63.6668
L230.1310 63.5716
" />
<path d="M230.1310 63.5716
L230.0833 63.3811
" />
<path d="M230.0833 63.3811
L230.0833 63.2382
" />
<path d="M230.0833 63.2382
L230.1310 63.0477
" />
<path d="M230.1310 63.0477
L230.1786 62.9525
" />
<path d="M230.1786 62.9525
L230.2738 62.8573
" />
<path d="M230.2738 62.8573
L230.4167 62.8096
" />
<path d="M230.4167 62.8096
L230.6548 62.8096
" />
</g><g transform="rotate(-180.000000 195.2500 63.2645)">
<text x="195.2500" y="63.7645"
textLength="2.9643" font-size="1.3333" lengthAdjust="spacingAndGlyphs"
text-anchor="middle" opacity="0">LED</text>
</g>
<g class="stroked-text"><desc>LED</desc>
<path d="M195.8929 62.8096
L196.3690 62.8096
" />
<path d="M196.3690 62.8096
L196.3690 63.8096
" />
<path d="M195.5595 63.3335
L195.2262 63.3335
" />
<path d="M195.0833 62.8096
L195.5595 62.8096
" />
<path d="M195.5595 62.8096
L195.5595 63.8096
" />
<path d="M195.5595 63.8096
L195.0833 63.8096
" />
<path d="M194.6548 62.8096
L194.6548 63.8096
" />
<path d="M194.6548 63.8096
L194.4167 63.8096
" />
<path d="M194.4167 63.8096
L194.2738 63.7620
" />
<path d="M194.2738 63.7620
L194.1786 63.6668
" />
<path d="M194.1786 63.6668
L194.1310 63.5716
" />
<path d="M194.1310 63.5716
L194.0833 63.3811
" />
<path d="M194.0833 63.3811
L194.0833 63.2382
" />
<path d="M194.0833 63.2382
L194.1310 63.0477
" />
<path d="M194.1310 63.0477
L194.1786 62.9525
" />
<path d="M194.1786 62.9525
L194.2738 62.8573
" />
<path d="M194.2738 62.8573
L194.4167 62.8096
" />
<path d="M194.4167 62.8096
L194.6548 62.8096
" />
</g><g transform="rotate(-180.000000 87.2500 63.2645)">
<text x="87.2500" y="63.7645"
textLength="2.9643" font-size="1.3333" lengthAdjust="spacingAndGlyphs"
text-anchor="middle" opacity="0">LED</text>
</g>
<g class="stroked-text"><desc>LED</desc>
<path d="M87.8929 62.8096
L88.3690 62.8096
" />
<path d="M88.3690 62.8096
L88.3690 63.8096
" />
<path d="M87.5595 63.3335
L87.2262 63.3335
" />
<path d="M87.0833 62.8096
L87.5595 62.8096
" />
<path d="M87.5595 62.8096
L87.5595 63.8096
" />
<path d="M87.5595 63.8096
L87.0833 63.8096
" />
<path d="M86.6548 62.8096
L86.6548 63.8096
" />
<path d="M86.6548 63.8096
L86.4167 63.8096
" />
<path d="M86.4167 63.8096
L86.2738 63.7620
" />
<path d="M86.2738 63.7620
L86.1786 63.6668
" />
<path d="M86.1786 63.6668
L86.1310 63.5716
" />
<path d="M86.1310 63.5716
L86.0833 63.3811
" />
<path d="M86.0833 63.3811
L86.0833 63.2382
" />
<path d="M86.0833 63.2382
L86.1310 63.0477
" />
<path d="M86.1310 63.0477
L86.1786 62.9525
" />
<path d="M86.1786 62.9525
L86.2738 62.8573
" />
<path d="M86.2738 62.8573
L86.4167 62.8096
" />
<path d="M86.4167 62.8096
L86.6548 62.8096
" />
</g><g transform="rotate(-180.000000 123.2500 63.2645)">
<text x="123.2500" y="63.7645"
textLength="2.9643" font-size="1.3333" lengthAdjust="spacingAndGlyphs"
text-anchor="middle" opacity="0">LED</text>
</g>
<g class="stroked-text"><desc>LED</desc>
<path d="M123.8929 62.8096
L124.3690 62.8096
" />
<path d="M124.3690 62.8096
L124.3690 63.8096
" />
<path d="M123.5595 63.3335
L123.2262 63.3335
" />
<path d="M123.0833 62.8096
L123.5595 62.8096
" />
<path d="M123.5595 62.8096
L123.5595 63.8096
" />
<path d="M123.5595 63.8096
L123.0833 63.8096
" />
<path d="M122.6548 62.8096
L122.6548 63.8096
" />
<path d="M122.6548 63.8096
L122.4167 63.8096
" />
<path d="M122.4167 63.8096
L122.2738 63.7620
" />
<path d="M122.2738 63.7620
L122.1786 63.6668
" />
<path d="M122.1786 63.6668
L122.1310 63.5716
" />
<path d="M122.1310 63.5716
L122.0833 63.3811
" />
<path d="M122.0833 63.3811
L122.0833 63.2382
" />
<path d="M122.0833 63.2382
L122.1310 63.0477
" />
<path d="M122.1310 63.0477
L122.1786 62.9525
" />
<path d="M122.1786 62.9525
L122.2738 62.8573
" />
<path d="M122.2738 62.8573
L122.4167 62.8096
" />
<path d="M122.4167 62.8096
L122.6548 62.8096
" />
</g><g transform="rotate(-180.000000 249.2500 131.2645)">
<text x="249.2500" y="131.7645"
textLength="2.9643" font-size="1.3333" lengthAdjust="spacingAndGlyphs"
text-anchor="middle" opacity="0">LED</text>
</g>
<g class="stroked-text"><desc>LED</desc>
<path d="M249.8929 130.8096
L250.3690 130.8096
" />
<path d="M250.3690 130.8096
L250.3690 131.8096
" />
<path d="M249.5595 131.3335
L249.2262 131.3335
" />
<path d="M249.0833 130.8096
L249.5595 130.8096
" />
<path d="M249.5595 130.8096
L249.5595 131.8096
" />
<path d="M249.5595 131.8096
L249.0833 131.8096
" />
<path d="M248.6548 130.8096
L248.6548 131.8096
" />
<path d="M248.6548 131.8096
L248.4167 131.8096
" />
<path d="M248.4167 131.8096
L248.2738 131.7620
" />
<path d="M248.2738 131.7620
L248.1786 131.6668
" />
<path d="M248.1786 131.6668
L248.1310 131.5716
" />
<path d="M248.1310 131.5716
L248.0833 131.3811
" />
<path d="M248.0833 131.3811
L248.0833 131.2382
" />
<path d="M248.0833 131.2382
L248.1310 131.0477
" />
<path d="M248.1310 131.0477
L248.1786 130.9525
" />
<path d="M248.1786 130.9525
L248.2738 130.8573
" />
<path d="M248.2738 130.8573
L248.4167 130.8096
" />
<path d="M248.4167 130.8096
L248.6548 130.8096
" />
</g><g transform="rotate(-180.000000 141.2500 131.2645)">
<text x="141.2500" y="131.7645"
textLength="2.9643" font-size="1.3333" lengthAdjust="spacingAndGlyphs"
text-anchor="middle" opacity="0">LED</text>
</g>
<g class="stroked-text"><desc>LED</desc>
<path d="M141.8929 130.8096
L142.3690 130.8096
" />
<path d="M142.3690 130.8096
L142.3690 131.8096
" />
<path d="M141.5595 131.3335
L141.2262 131.3335
" />
<path d="M141.0833 130.8096
L141.5595 130.8096
" />
<path d="M141.5595 130.8096
L141.5595 131.8096
" />
<path d="M141.5595 131.8096
L141.0833 131.8096
" />
<path d="M140.6548 130.8096
L140.6548 131.8096
" />
<path d="M140.6548 131.8096
L140.4167 131.8096
" />
<path d="M140.4167 131.8096
L140.2738 131.7620
" />
<path d="M140.2738 131.7620
L140.1786 131.6668
" />
<path d="M140.1786 131.6668
L140.1310 131.5716
" />
<path d="M140.1310 131.5716
L140.0833 131.3811
" />
<path d="M140.0833 131.3811
L140.0833 131.2382
" />
<path d="M140.0833 131.2382
L140.1310 131.0477
" />
<path d="M140.1310 131.0477
L140.1786 130.9525
" />
<path d="M140.1786 130.9525
L140.2738 130.8573
" />
<path d="M140.2738 130.8573
L140.4167 130.8096
" />
<path d="M140.4167 130.8096
L140.6548 130.8096
" />
</g><g transform="rotate(-180.000000 159.2500 63.2645)">
<text x="159.2500" y="63.7645"
textLength="2.9643" font-size="1.3333" lengthAdjust="spacingAndGlyphs"
text-anchor="middle" opacity="0">LED</text>
</g>
<g class="stroked-text"><desc>LED</desc>
<path d="M159.8929 62.8096
L160.3690 62.8096
" />
<path d="M160.3690 62.8096
L160.3690 63.8096
" />
<path d="M159.5595 63.3335
L159.2262 63.3335
" />
<path d="M159.0833 62.8096
L159.5595 62.8096
" />
<path d="M159.5595 62.8096
L159.5595 63.8096
" />
<path d="M159.5595 63.8096
L159.0833 63.8096
" />
<path d="M158.6548 62.8096
L158.6548 63.8096
" />
<path d="M158.6548 63.8096
L158.4167 63.8096
" />
<path d="M158.4167 63.8096
L158.2738 63.7620
" />
<path d="M158.2738 63.7620
L158.1786 63.6668
" />
<path d="M158.1786 63.6668
L158.1310 63.5716
" />
<path d="M158.1310 63.5716
L158.0833 63.3811
" />
<path d="M158.0833 63.3811
L158.0833 63.2382
" />
<path d="M158.0833 63.2382
L158.1310 63.0477
" />
<path d="M158.1310 63.0477
L158.1786 62.9525
" />
<path d="M158.1786 62.9525
L158.2738 62.8573
" />
<path d="M158.2738 62.8573
L158.4167 62.8096
" />
<path d="M158.4167 62.8096
L158.6548 62.8096
" />
</g><g transform="rotate(-180.000000 231.2500 131.2645)">
<text x="231.2500" y="131.7645"
textLength="2.9643" font-size="1.3333" lengthAdjust="spacingAndGlyphs"
text-anchor="middle" opacity="0">LED</text>
</g>
<g class="stroked-text"><desc>LED</desc>
<path d="M231.8929 130.8096
L232.3690 130.8096
" />
<path d="M232.3690 130.8096
L232.3690 131.8096
" />
<path d="M231.5595 131.3335
L231.2262 131.3335
" />
<path d="M231.0833 130.8096
L231.5595 130.8096
" />
<path d="M231.5595 130.8096
L231.5595 131.8096
" />
<path d="M231.5595 131.8096
L231.0833 131.8096
" />
<path d="M230.6548 130.8096
L230.6548 131.8096
" />
<path d="M230.6548 131.8096
L230.4167 131.8096
" />
<path d="M230.4167 131.8096
L230.2738 131.7620
" />
<path d="M230.2738 131.7620
L230.1786 131.6668
" />
<path d="M230.1786 131.6668
L230.1310 131.5716
" />
<path d="M230.1310 131.5716
L230.0833 131.3811
" />
<path d="M230.0833 131.3811
L230.0833 131.2382
" />
<path d="M230.0833 131.2382
L230.1310 131.0477
" />
<path d="M230.1310 131.0477
L230.1786 130.9525
" />
<path d="M230.1786 130.9525
L230.2738 130.8573
" />
<path d="M230.2738 130.8573
L230.4167 130.8096
" />
<path d="M230.4167 130.8096
L230.6548 130.8096
" />
</g><circle cx="240.2500" cy="118.0645" r="3.5000" /> 
<circle cx="114.2500" cy="66.8145" r="3.5000" /> 
<circle cx="240.2500" cy="67.5645" r="3.5000" /> 
<circle cx="168.5000" cy="66.8145" r="3.5000" /> 
<circle cx="60.5000" cy="66.8145" r="3.5000" /> 
<circle cx="168.2500" cy="118.0645" r="3.5000" /> 
<circle cx="114.2500" cy="118.0645" r="3.5000" /> 
</g>
<g style="fill:#000000; fill-opacity:0.0; 
stroke:#000000; stroke-width:0.2000; stroke-opacity:1; 
stroke-linecap:round; stroke-linejoin:round;">
<path d="M183.0100 29.7900
L162.1025 29.7900
" />
<path d="M162.1025 29.7900
L162.1025 47.5700
" />
<path d="M162.1025 47.5700
L183.0100 47.5700
" />
<path d="M183.0100 47.5700
L183.0100 29.7900
" />
</g>
<g style="fill:#000000; fill-opacity:0.0; 
stroke:#000000; stroke-width:0.1000; stroke-opacity:1; 
stroke-linecap:round; stroke-linejoin:round;">
<path d="M184.5663 34.1791
L177.2155 34.1791
" />
<path d="M177.2155 34.1791
L177.2155 43.1809
" />
<path d="M177.2155 43.1809
L184.5663 43.1809
" />
<path d="M184.5663 43.1809
L184.5663 34.1791
" />
</g>
<g style="fill:#000000; fill-opacity:0.0; 
stroke:#000000; stroke-width:0.1500; stroke-opacity:1; 
stroke-linecap:round; stroke-linejoin:round;">
<circle cx="60.2500" cy="118.3145" r="3.5000" /> 
</g>
<g style="fill:#000000; fill-opacity:0.0; 
stroke:#000000; stroke-width:0.1000; stroke-opacity:1; 
stroke-linecap:round; stroke-linejoin:round;">
<path d="M102.7500 115.8395
L107.7500 115.8395
" />
<path d="M107.7500 115.8395
L107.7500 112.6895
" />
<path d="M107.7500 112.6895
L102.7500 112.6895
" />
<path d="M102.7500 112.6895
L102.7500 115.8395
" />
<path d="M84.7500 115.8395
L89.7500 115.8395
" />
<path d="M89.7500 115.8395
L89.7500 112.6895
" />
<path d="M89.7500 112.6895
L84.7500 112.6895
" />
<path d="M84.7500 112.6895
L84.7500 115.8395
" />
<path d="M66.7500 115.8395
L71.7500 115.8395
" />
<path d="M71.7500 115.8395
L71.7500 112.6895
" />
<path d="M71.7500 112.6895
L66.7500 112.6895
" />
<path d="M66.7500 112.6895
L66.7500 115.8395
" />
<path d="M48.7500 115.8395
L53.7500 115.8395
" />
<path d="M53.7500 115.8395
L53.7500 112.6895
" />
<path d="M53.7500 112.6895
L48.7500 112.6895
" />
<path d="M48.7500 112.6895
L48.7500 115.8395
" />
<path d="M246.7500 98.8395
L251.7500 98.8395
" />
<path d="M251.7500 98.8395
L251.7500 95.6895
" />
<path d="M251.7500 95.6895
L246.7500 95.6895
" />
<path d="M246.7500 95.6895
L246.7500 98.8395
" />
<path d="M228.7500 98.8395
L233.7500 98.8395
" />
<path d="M233.7500 98.8395
L233.7500 95.6895
" />
<path d="M233.7500 95.6895
L228.7500 95.6895
" />
<path d="M228.7500 95.6895
L228.7500 98.8395
" />
<path d="M210.7500 98.8395
L215.7500 98.8395
" />
<path d="M215.7500 98.8395
L215.7500 95.6895
" />
<path d="M215.7500 95.6895
L210.7500 95.6895
" />
<path d="M210.7500 95.6895
L210.7500 98.8395
" />
<path d="M174.7500 98.8395
L179.7500 98.8395
" />
<path d="M179.7500 98.8395
L179.7500 95.6895
" />
<path d="M179.7500 95.6895
L174.7500 95.6895
" />
<path d="M174.7500 95.6895
L174.7500 98.8395
" />
<path d="M156.7500 98.8395
L161.7500 98.8395
" />
<path d="M161.7500 98.8395
L161.7500 95.6895
" />
<path d="M161.7500 95.6895
L156.7500 95.6895
" />
<path d="M156.7500 95.6895
L156.7500 98.8395
" />
<path d="M138.7500 98.8395
L143.7500 98.8395
" />
<path d="M143.7500 98.8395
L143.7500 95.6895
" />
<path d="M143.7500 95.6895
L138.7500 95.6895
" />
<path d="M138.7500 95.6895
L138.7500 98.8395
" />
<path d="M156.7500 81.8395
L161.7500 81.8395
" />
<path d="M161.7500 81.8395
L161.7500 78.6895
" />
<path d="M161.7500 78.6895
L156.7500 78.6895
" />
<path d="M156.7500 78.6895
L156.7500 81.8395
" />
<path d="M192.7500 98.8395
L197.7500 98.8395
" />
<path d="M197.7500 98.8395
L197.7500 95.6895
" />
<path d="M197.7500 95.6895
L192.7500 95.6895
" />
<path d="M192.7500 95.6895
L192.7500 98.8395
" />
<path d="M120.7500 98.8395
L125.7500 98.8395
" />
<path d="M125.7500 98.8395
L125.7500 95.6895
" />
<path d="M125.7500 95.6895
L120.7500 95.6895
" />
<path d="M120.7500 95.6895
L120.7500 98.8395
" />
<path d="M102.7500 98.8395
L107.7500 98.8395
" />
<path d="M107.7500 98.8395
L107.7500 95.6895
" />
<path d="M107.7500 95.6895
L102.7500 95.6895
" />
<path d="M102.7500 95.6895
L102.7500 98.8395
" />
<path d="M84.7500 98.8395
L89.7500 98.8395
" />
<path d="M89.7500 98.8395
L89.7500 95.6895
" />
<path d="M89.7500 95.6895
L84.7500 95.6895
" />
<path d="M84.7500 95.6895
L84.7500 98.8395
" />
<path d="M66.7500 98.8395
L71.7500 98.8395
" />
<path d="M71.7500 98.8395
L71.7500 95.6895
" />
<path d="M71.7500 95.6895
L66.7500 95.6895
" />
<path d="M66.7500 95.6895
L66.7500 98.8395
" />
<path d="M48.7500 98.8395
L53.7500 98.8395
" />
<path d="M53.7500 98.8395
L53.7500 95.6895
" />
<path d="M53.7500 95.6895
L48.7500 95.6895
" />
<path d="M48.7500 95.6895
L48.7500 98.8395
" />
<path d="M246.7500 81.8395
L251.7500 81.8395
" />
<path d="M251.7500 81.8395
L251.7500 78.6895
" />
<path d="M251.7500 78.6895
L246.7500 78.6895
" />
<path d="M246.7500 78.6895
L246.7500 81.8395
" />
<path d="M120.7500 132.8395
L125.7500 132.8395
" />
<path d="M125.7500 132.8395
L125.7500 129.6895
" />
<path d="M125.7500 129.6895
L120.7500 129.6895
" />
<path d="M120.7500 129.6895
L120.7500 132.8395
" />
<path d="M228.7500 81.8395
L233.7500 81.8395
" />
<path d="M233.7500 81.8395
L233.7500 78.6895
" />
<path d="M233.7500 78.6895
L228.7500 78.6895
" />
<path d="M228.7500 78.6895
L228.7500 81.8395
" />
<path d="M48.7500 81.8395
L53.7500 81.8395
" />
<path d="M53.7500 81.8395
L53.7500 78.6895
" />
<path d="M53.7500 78.6895
L48.7500 78.6895
" />
<path d="M48.7500 78.6895
L48.7500 81.8395
" />
<path d="M120.7500 81.8395
L125.7500 81.8395
" />
<path d="M125.7500 81.8395
L125.7500 78.6895
" />
<path d="M125.7500 78.6895
L120.7500 78.6895
" />
<path d="M120.7500 78.6895
L120.7500 81.8395
" />
<path d="M102.7500 81.8395
L107.7500 81.8395
" />
<path d="M107.7500 81.8395
L107.7500 78.6895
" />
<path d="M107.7500 78.6895
L102.7500 78.6895
" />
<path d="M102.7500 78.6895
L102.7500 81.8395
" />
<path d="M174.7500 81.8395
L179.7500 81.8395
" />
<path d="M179.7500 81.8395
L179.7500 78.6895
" />
<path d="M179.7500 78.6895
L174.7500 78.6895
" />
<path d="M174.7500 78.6895
L174.7500 81.8395
" />
<path d="M156.7500 115.8395
L161.7500 115.8395
" />
<path d="M161.7500 115.8395
L161.7500 112.6895
" />
<path d="M161.7500 112.6895
L156.7500 112.6895
" />
<path d="M156.7500 112.6895
L156.7500 115.8395
" />
<path d="M66.7500 81.8395
L71.7500 81.8395
" />
<path d="M71.7500 81.8395
L71.7500 78.6895
" />
<path d="M71.7500 78.6895
L66.7500 78.6895
" />
<path d="M66.7500 78.6895
L66.7500 81.8395
" />
<path d="M210.7500 81.8395
L215.7500 81.8395
" />
<path d="M215.7500 81.8395
L215.7500 78.6895
" />
<path d="M215.7500 78.6895
L210.7500 78.6895
" />
<path d="M210.7500 78.6895
L210.7500 81.8395
" />
<path d="M192.7500 81.8395
L197.7500 81.8395
" />
<path d="M197.7500 81.8395
L197.7500 78.6895
" />
<path d="M197.7500 78.6895
L192.7500 78.6895
" />
<path d="M192.7500 78.6895
L192.7500 81.8395
" />
<path d="M246.7500 115.8395
L251.7500 115.8395
" />
<path d="M251.7500 115.8395
L251.7500 112.6895
" />
<path d="M251.7500 112.6895
L246.7500 112.6895
" />
<path d="M246.7500 112.6895
L246.7500 115.8395
" />
<path d="M228.7500 115.8395
L233.7500 115.8395
" />
<path d="M233.7500 115.8395
L233.7500 112.6895
" />
<path d="M233.7500 112.6895
L228.7500 112.6895
" />
<path d="M228.7500 112.6895
L228.7500 115.8395
" />
<path d="M210.7500 115.8395
L215.7500 115.8395
" />
<path d="M215.7500 115.8395
L215.7500 112.6895
" />
<path d="M215.7500 112.6895
L210.7500 112.6895
" />
<path d="M210.7500 112.6895
L210.7500 115.8395
" />
<path d="M192.7500 115.8395
L197.7500 115.8395
" />
<path d="M197.7500 115.8395
L197.7500 112.6895
" />
<path d="M197.7500 112.6895
L192.7500 112.6895
" />
<path d="M192.7500 112.6895
L192.7500 115.8395
" />
<path d="M174.7500 115.8395
L179.7500 115.8395
" />
<path d="M179.7500 115.8395
L179.7500 112.6895
" />
<path d="M179.7500 112.6895
L174.7500 112.6895
" />
<path d="M174.7500 112.6895
L174.7500 115.8395
" />
<path d="M138.7500 115.8395
L143.7500 115.8395
" />
<path d="M143.7500 115.8395
L143.7500 112.6895
" />
<path d="M143.7500 112.6895
L138.7500 112.6895
" />
<path d="M138.7500 112.6895
L138.7500 115.8395
" />
<path d="M120.7500 115.8395
L125.7500 115.8395
" />
<path d="M125.7500 115.8395
L125.7500 112.6895
" />
<path d="M125.7500 112.6895
L120.7500 112.6895
" />
<path d="M120.7500 112.6895
L120.7500 115.8395
" />
<path d="M84.7500 81.8395
L89.7500 81.8395
" />
<path d="M89.7500 81.8395
L89.7500 78.6895
" />
<path d="M89.7500 78.6895
L84.7500 78.6895
" />
<path d="M84.7500 78.6895
L84.7500 81.8395
" />
<path d="M138.7500 81.8395
L143.7500 81.8395
" />
<path d="M143.7500 81.8395
L143.7500 78.6895
" />
<path d="M143.7500 78.6895
L138.7500 78.6895
" />
<path d="M138.7500 78.6895
L138.7500 81.8395
" />
<path d="M102.7500 132.8395
L107.7500 132.8395
" />
<path d="M107.7500 132.8395
L107.7500 129.6895
" />
<path d="M107.7500 129.6895
L102.7500 129.6895
" />
<path d="M102.7500 129.6895
L102.7500 132.8395
" />
<path d="M174.7500 132.8395
L179.7500 132.8395
" />
<path d="M179.7500 132.8395
L179.7500 129.6895
" />
<path d="M179.7500 129.6895
L174.7500 129.6895
" />
<path d="M174.7500 129.6895
L174.7500 132.8395
" />
<path d="M192.7500 132.8395
L197.7500 132.8395
" />
<path d="M197.7500 132.8395
L197.7500 129.6895
" />
<path d="M197.7500 129.6895
L192.7500 129.6895
" />
<path d="M192.7500 129.6895
L192.7500 132.8395
" />
<path d="M156.7500 132.8395
L161.7500 132.8395
" />
<path d="M161.7500 132.8395
L161.7500 129.6895
" />
<path d="M161.7500 129.6895
L156.7500 129.6895
" />
<path d="M156.7500 129.6895
L156.7500 132.8395
" />
<path d="M84.7500 132.8395
L89.7500 132.8395
" />
<path d="M89.7500 132.8395
L89.7500 129.6895
" />
<path d="M89.7500 129.6895
L84.7500 129.6895
" />
<path d="M84.7500 129.6895
L84.7500 132.8395
" />
<path d="M66.7500 64.8395
L71.7500 64.8395
" />
<path d="M71.7500 64.8395
L71.7500 61.6895
" />
<path d="M71.7500 61.6895
L66.7500 61.6895
" />
<path d="M66.7500 61.6895
L66.7500 64.8395
" />
<path d="M48.7500 64.8395
L53.7500 64.8395
" />
<path d="M53.7500 64.8395
L53.7500 61.6895
" />
<path d="M53.7500 61.6895
L48.7500 61.6895
" />
<path d="M48.7500 61.6895
L48.7500 64.8395
" />
<path d="M48.7500 132.8395
L53.7500 132.8395
" />
<path d="M53.7500 132.8395
L53.7500 129.6895
" />
<path d="M53.7500 129.6895
L48.7500 129.6895
" />
<path d="M48.7500 129.6895
L48.7500 132.8395
" />
<path d="M66.7500 132.8395
L71.7500 132.8395
" />
<path d="M71.7500 132.8395
L71.7500 129.6895
" />
<path d="M71.7500 129.6895
L66.7500 129.6895
" />
<path d="M66.7500 129.6895
L66.7500 132.8395
" />
<path d="M210.7500 64.8395
L215.7500 64.8395
" />
<path d="M215.7500 64.8395
L215.7500 61.6895
" />
<path d="M215.7500 61.6895
L210.7500 61.6895
" />
<path d="M210.7500 61.6895
L210.7500 64.8395
" />
<path d="M210.7500 132.8395
L215.7500 132.8395
" />
<path d="M215.7500 132.8395
L215.7500 129.6895
" />
<path d="M215.7500 129.6895
L210.7500 129.6895
" />
<path d="M210.7500 129.6895
L210.7500 132.8395
" />
<path d="M246.7500 64.8395
L251.7500 64.8395
" />
<path d="M251.7500 64.8395
L251.7500 61.6895
" />
<path d="M251.7500 61.6895
L246.7500 61.6895
" />
<path d="M246.7500 61.6895
L246.7500 64.8395
" />
<path d="M102.7500 64.8395
L107.7500 64.8395
" />
<path d="M107.7500 64.8395
L107.7500 61.6895
" />
<path d="M107.7500 61.6895
L102.7500 61.6895
" />
<path d="M102.7500 61.6895
L102.7500 64.8395
" />
<path d="M138.7500 64.8395
L143.7500 64.8395
" />
<path d="M143.7500 64.8395
L143.7500 61.6895
" />
<path d="M143.7500 61.6895
L138.7500 61.6895
" />
<path d="M138.7500 61.6895
L138.7500 64.8395
" />
<path d="M174.7500 64.8395
L179.7500 64.8395
" />
<path d="M179.7500 64.8395
L179.7500 61.6895
" />
<path d="M179.7500 61.6895
L174.7500 61.6895
" />
<path d="M174.7500 61.6895
L174.7500 64.8395
" />
<path d="M228.7500 64.8395
L233.7500 64.8395
" />
<path d="M233.7500 64.8395
L233.7500 61.6895
" />
<path d="M233.7500 61.6895
L228.7500 61.6895
" />
<path d="M228.7500 61.6895
L228.7500 64.8395
" />
<path d="M192.7500 64.8395
L197.7500 64.8395
" />
<path d="M197.7500 64.8395
L197.7500 61.6895
" />
<path d="M197.7500 61.6895
L192.7500 61.6895
" />
<path d="M192.7500 61.6895
L192.7500 64.8395
" />
<path d="M84.7500 64.8395
L89.7500 64.8395
" />
<path d="M89.7500 64.8395
L89.7500 61.6895
" />
<path d="M89.7500 61.6895
L84.7500 61.6895
" />
<path d="M84.7500 61.6895
L84.7500 64.8395
" />
<path d="M120.7500 64.8395
L125.7500 64.8395
" />
<path d="M125.7500 64.8395
L125.7500 61.6895
" />
<path d="M125.7500 61.6895
L120.7500 61.6895
" />
<path d="M120.7500 61.6895
L120.7500 64.8395
" />
<path d="M246.7500 132.8395
L251.7500 132.8395
" />
<path d="M251.7500 132.8395
L251.7500 129.6895
" />
<path d="M251.7500 129.6895
L246.7500 129.6895
" />
<path d="M246.7500 129.6895
L246.7500 132.8395
" />
<path d="M138.7500 132.8395
L143.7500 132.8395
" />
<path d="M143.7500 132.8395
L143.7500 129.6895
" />
<path d="M143.7500 129.6895
L138.7500 129.6895
" />
<path d="M138.7500 129.6895
L138.7500 132.8395
" />
<path d="M156.7500 64.8395
L161.7500 64.8395
" />
<path d="M161.7500 64.8395
L161.7500 61.6895
" />
<path d="M161.7500 61.6895
L156.7500 61.6895
" />
<path d="M156.7500 61.6895
L156.7500 64.8395
" />
<path d="M228.7500 132.8395
L233.7500 132.8395
" />
<path d="M233.7500 132.8395
L233.7500 129.6895
" />
<path d="M233.7500 129.6895
L228.7500 129.6895
" />
<path d="M228.7500 129.6895
L228.7500 132.8395
" />
<g >
</g>
<g >
</g>
<g >
</g>
<g >
</g>
<g >
</g>
<g >
</g>
<g >
</g>
<g >
</g>
<g >
</g>
<g >
</g>
<g >
</g>
<g >
</g>
<g >
</g>
<g >
</g>
<g >
</g>
<g >
</g>
<g >
</g>
<g >
</g>
<g >
</g>
<g >
</g>
<g >
</g>
<g >
</g>
<g >
</g>
<g >
</g>
<g >
</g>
<g >
</g>
<g >
</g>
<g >
</g>
<g >
</g>
<g >
</g>
<g >
</g>
<g >
</g>
<g >
</g>
<g >
</g>
<g >
</g>
<g >
</g>
<g >
</g>
<g >
</g>
<g >
</g>
<g >
</g>
<g >
</g>
<g >
</g>
<g >
</g>
<g >
</g>
<g >
</g>
<g >
</g>
<g >
</g>
<g >
</g>
<g >
</g>
<g >
</g>
<g >
</g>
<g >
</g>
<g >
</g>
<g >
</g>
<g >
</g>
<g >
</g>
<g >
</g>
<g >
</g>
<g >
</g>
<g >
</g>
<g >
</g>
<g >
</g>
<g >
</g>
<g >
</g>
<g >
</g>
<g >
</g>
<g >
</g>
<g >
</g>
<g >
</g>
<g >
</g>
<g >
</g>
<g >
</g>
<g >
</g>
<g >
</g>
<g >
</g>
<g >
</g>
<g >
</g>
<g >
</g>
<g >
</g>
<g >
</g>
<g >
</g>
<g >
</g>
<g >
</g>
<g >
</g>
<g >
</g>
<g >
</g>
<g >
</g>
<g >
</g>
<g >
</g>
<g >
</g>
<g >
</g>
<g >
</g>
<g >
</g>
<g >
</g>
<g >
</g>
<g >
</g>
<g >
</g>
<g >
</g>
<g >
</g>
<g >
</g>
<g >
</g>
<g >
</g>
<g >
</g>
<g >
</g>
<g >
</g>
<g >
</g>
<g >
</g>
<g >
</g>
<g >
</g>
<g >
</g>
<g >
</g>
<g >
</g>
<g >
</g>
<g >
</g>
<g >
</g>
<g >
</g>
<g >
</g>
<g >
</g>
<g >
</g>
<g >
</g>
<g >
</g>
<g >
</g>
<g >
</g>
<g >
</g>
<g >
</g>
<g >
</g>
<g >
</g>
<g >
</g>
<g >
</g>
<g >
</g>
<g >
</g>
<g >
</g>
<g >
</g>
<g >
</g>
<g >
</g>
<g >
</g>
<g >
</g>
<g >
</g>
<g >
</g>
<g >
</g>
<g >
</g>
<g >
</g>
</g> 
</svg>
