<?xml version="1.0" standalone="no"?>
 <!DOCTYPE svg PUBLIC "-//W3C//DTD SVG 1.1//EN" 
 "http://www.w3.org/Graphics/SVG/1.1/DTD/svg11.dtd"> 
<svg
  xmlns:svg="http://www.w3.org/2000/svg"
  xmlns="http://www.w3.org/2000/svg"
  xmlns:xlink="http://www.w3.org/1999/xlink"
  version="1.1"
  width="297.0022mm" height="210.0072mm" viewBox="0.0000 0.0000 297.0022 210.0072">
<title>SVG Image created as basic60-F_Courtyard.svg date 2023/12/21 23:37:39 </title>
  <desc>Image generated by PCBNEW </desc>
<g style="fill:#000000; fill-opacity:1.0000;stroke:#000000; stroke-opacity:1.0000;
stroke-linecap:round; stroke-linejoin:round;"
 transform="translate(0 0) scale(1 1)">
</g>
<g style="fill:#000000; fill-opacity:0.0; 
stroke:#000000; stroke-width:0.0000; stroke-opacity:1; 
stroke-linecap:round; stroke-linejoin:round;">
</g>
<g style="fill:#000000; fill-opacity:0.0; 
stroke:#000000; stroke-width:0.0500; stroke-opacity:1; 
stroke-linecap:round; stroke-linejoin:round;">
<path d="M143.6000 115.2145
L143.6000 112.9145
" />
<path d="M143.6000 115.2145
L138.9000 115.2145
" />
<path d="M138.9000 115.2145
L138.9000 112.9145
" />
<path d="M138.9000 112.9145
L143.6000 112.9145
" />
<path d="M107.6000 115.2145
L107.6000 112.9145
" />
<path d="M107.6000 115.2145
L102.9000 115.2145
" />
<path d="M102.9000 115.2145
L102.9000 112.9145
" />
<path d="M102.9000 112.9145
L107.6000 112.9145
" />
<path d="M89.6000 115.2145
L89.6000 112.9145
" />
<path d="M89.6000 115.2145
L84.9000 115.2145
" />
<path d="M84.9000 115.2145
L84.9000 112.9145
" />
<path d="M84.9000 112.9145
L89.6000 112.9145
" />
<path d="M71.6000 115.2145
L71.6000 112.9145
" />
<path d="M71.6000 115.2145
L66.9000 115.2145
" />
<path d="M66.9000 115.2145
L66.9000 112.9145
" />
<path d="M66.9000 112.9145
L71.6000 112.9145
" />
<path d="M53.6000 115.2145
L53.6000 112.9145
" />
<path d="M53.6000 115.2145
L48.9000 115.2145
" />
<path d="M48.9000 115.2145
L48.9000 112.9145
" />
<path d="M48.9000 112.9145
L53.6000 112.9145
" />
<path d="M251.6000 98.2145
L251.6000 95.9145
" />
<path d="M251.6000 98.2145
L246.9000 98.2145
" />
<path d="M246.9000 98.2145
L246.9000 95.9145
" />
<path d="M246.9000 95.9145
L251.6000 95.9145
" />
<path d="M233.6000 98.2145
L233.6000 95.9145
" />
<path d="M233.6000 98.2145
L228.9000 98.2145
" />
<path d="M228.9000 98.2145
L228.9000 95.9145
" />
<path d="M228.9000 95.9145
L233.6000 95.9145
" />
<path d="M215.6000 98.2145
L215.6000 95.9145
" />
<path d="M215.6000 98.2145
L210.9000 98.2145
" />
<path d="M210.9000 98.2145
L210.9000 95.9145
" />
<path d="M210.9000 95.9145
L215.6000 95.9145
" />
<path d="M197.6000 98.2145
L197.6000 95.9145
" />
<path d="M197.6000 98.2145
L192.9000 98.2145
" />
<path d="M192.9000 98.2145
L192.9000 95.9145
" />
<path d="M192.9000 95.9145
L197.6000 95.9145
" />
<path d="M179.6000 98.2145
L179.6000 95.9145
" />
<path d="M179.6000 98.2145
L174.9000 98.2145
" />
<path d="M174.9000 98.2145
L174.9000 95.9145
" />
<path d="M174.9000 95.9145
L179.6000 95.9145
" />
<path d="M161.6000 98.2145
L161.6000 95.9145
" />
<path d="M161.6000 98.2145
L156.9000 98.2145
" />
<path d="M156.9000 98.2145
L156.9000 95.9145
" />
<path d="M156.9000 95.9145
L161.6000 95.9145
" />
<path d="M143.6000 98.2145
L143.6000 95.9145
" />
<path d="M143.6000 98.2145
L138.9000 98.2145
" />
<path d="M138.9000 98.2145
L138.9000 95.9145
" />
<path d="M138.9000 95.9145
L143.6000 95.9145
" />
<path d="M125.6000 98.2145
L125.6000 95.9145
" />
<path d="M125.6000 98.2145
L120.9000 98.2145
" />
<path d="M120.9000 98.2145
L120.9000 95.9145
" />
<path d="M120.9000 95.9145
L125.6000 95.9145
" />
<path d="M107.6000 98.2145
L107.6000 95.9145
" />
<path d="M107.6000 98.2145
L102.9000 98.2145
" />
<path d="M102.9000 98.2145
L102.9000 95.9145
" />
<path d="M102.9000 95.9145
L107.6000 95.9145
" />
<path d="M89.6000 98.2145
L89.6000 95.9145
" />
<path d="M89.6000 98.2145
L84.9000 98.2145
" />
<path d="M84.9000 98.2145
L84.9000 95.9145
" />
<path d="M84.9000 95.9145
L89.6000 95.9145
" />
<path d="M71.6000 98.2145
L71.6000 95.9145
" />
<path d="M71.6000 98.2145
L66.9000 98.2145
" />
<path d="M66.9000 98.2145
L66.9000 95.9145
" />
<path d="M66.9000 95.9145
L71.6000 95.9145
" />
<path d="M53.6000 98.2145
L53.6000 95.9145
" />
<path d="M53.6000 98.2145
L48.9000 98.2145
" />
<path d="M48.9000 98.2145
L48.9000 95.9145
" />
<path d="M48.9000 95.9145
L53.6000 95.9145
" />
<path d="M251.6000 81.2145
L251.6000 78.9145
" />
<path d="M251.6000 81.2145
L246.9000 81.2145
" />
<path d="M246.9000 81.2145
L246.9000 78.9145
" />
<path d="M246.9000 78.9145
L251.6000 78.9145
" />
<path d="M233.6000 81.2145
L233.6000 78.9145
" />
<path d="M233.6000 81.2145
L228.9000 81.2145
" />
<path d="M228.9000 81.2145
L228.9000 78.9145
" />
<path d="M228.9000 78.9145
L233.6000 78.9145
" />
<path d="M215.6000 81.2145
L215.6000 78.9145
" />
<path d="M215.6000 81.2145
L210.9000 81.2145
" />
<path d="M210.9000 81.2145
L210.9000 78.9145
" />
<path d="M210.9000 78.9145
L215.6000 78.9145
" />
<path d="M197.6000 81.2145
L197.6000 78.9145
" />
<path d="M197.6000 81.2145
L192.9000 81.2145
" />
<path d="M192.9000 81.2145
L192.9000 78.9145
" />
<path d="M192.9000 78.9145
L197.6000 78.9145
" />
<path d="M179.6000 81.2145
L179.6000 78.9145
" />
<path d="M179.6000 81.2145
L174.9000 81.2145
" />
<path d="M174.9000 81.2145
L174.9000 78.9145
" />
<path d="M174.9000 78.9145
L179.6000 78.9145
" />
<path d="M161.6000 81.2145
L161.6000 78.9145
" />
<path d="M161.6000 81.2145
L156.9000 81.2145
" />
<path d="M156.9000 81.2145
L156.9000 78.9145
" />
<path d="M156.9000 78.9145
L161.6000 78.9145
" />
<path d="M143.6000 81.2145
L143.6000 78.9145
" />
<path d="M143.6000 81.2145
L138.9000 81.2145
" />
<path d="M138.9000 81.2145
L138.9000 78.9145
" />
<path d="M138.9000 78.9145
L143.6000 78.9145
" />
<path d="M125.6000 81.2145
L125.6000 78.9145
" />
<path d="M125.6000 81.2145
L120.9000 81.2145
" />
<path d="M120.9000 81.2145
L120.9000 78.9145
" />
<path d="M120.9000 78.9145
L125.6000 78.9145
" />
<path d="M107.6000 81.2145
L107.6000 78.9145
" />
<path d="M107.6000 81.2145
L102.9000 81.2145
" />
<path d="M102.9000 81.2145
L102.9000 78.9145
" />
<path d="M102.9000 78.9145
L107.6000 78.9145
" />
<path d="M89.6000 81.2145
L89.6000 78.9145
" />
<path d="M89.6000 81.2145
L84.9000 81.2145
" />
<path d="M84.9000 81.2145
L84.9000 78.9145
" />
<path d="M84.9000 78.9145
L89.6000 78.9145
" />
<path d="M71.6000 81.2145
L71.6000 78.9145
" />
<path d="M71.6000 81.2145
L66.9000 81.2145
" />
<path d="M66.9000 81.2145
L66.9000 78.9145
" />
<path d="M66.9000 78.9145
L71.6000 78.9145
" />
<path d="M53.6000 81.2145
L53.6000 78.9145
" />
<path d="M53.6000 81.2145
L48.9000 81.2145
" />
<path d="M48.9000 81.2145
L48.9000 78.9145
" />
<path d="M48.9000 78.9145
L53.6000 78.9145
" />
<path d="M197.6000 132.2145
L197.6000 129.9145
" />
<path d="M197.6000 132.2145
L192.9000 132.2145
" />
<path d="M192.9000 132.2145
L192.9000 129.9145
" />
<path d="M192.9000 129.9145
L197.6000 129.9145
" />
<path d="M179.6000 132.2145
L179.6000 129.9145
" />
<path d="M179.6000 132.2145
L174.9000 132.2145
" />
<path d="M174.9000 132.2145
L174.9000 129.9145
" />
<path d="M174.9000 129.9145
L179.6000 129.9145
" />
<path d="M161.6000 132.2145
L161.6000 129.9145
" />
<path d="M161.6000 132.2145
L156.9000 132.2145
" />
<path d="M156.9000 132.2145
L156.9000 129.9145
" />
<path d="M156.9000 129.9145
L161.6000 129.9145
" />
<path d="M125.6000 132.2145
L125.6000 129.9145
" />
<path d="M125.6000 132.2145
L120.9000 132.2145
" />
<path d="M120.9000 132.2145
L120.9000 129.9145
" />
<path d="M120.9000 129.9145
L125.6000 129.9145
" />
<path d="M107.6000 132.2145
L107.6000 129.9145
" />
<path d="M107.6000 132.2145
L102.9000 132.2145
" />
<path d="M102.9000 132.2145
L102.9000 129.9145
" />
<path d="M102.9000 129.9145
L107.6000 129.9145
" />
<path d="M251.6000 115.2145
L251.6000 112.9145
" />
<path d="M251.6000 115.2145
L246.9000 115.2145
" />
<path d="M246.9000 115.2145
L246.9000 112.9145
" />
<path d="M246.9000 112.9145
L251.6000 112.9145
" />
<path d="M233.6000 115.2145
L233.6000 112.9145
" />
<path d="M233.6000 115.2145
L228.9000 115.2145
" />
<path d="M228.9000 115.2145
L228.9000 112.9145
" />
<path d="M228.9000 112.9145
L233.6000 112.9145
" />
<path d="M215.6000 115.2145
L215.6000 112.9145
" />
<path d="M215.6000 115.2145
L210.9000 115.2145
" />
<path d="M210.9000 115.2145
L210.9000 112.9145
" />
<path d="M210.9000 112.9145
L215.6000 112.9145
" />
<path d="M197.6000 115.2145
L197.6000 112.9145
" />
<path d="M197.6000 115.2145
L192.9000 115.2145
" />
<path d="M192.9000 115.2145
L192.9000 112.9145
" />
<path d="M192.9000 112.9145
L197.6000 112.9145
" />
<path d="M179.6000 115.2145
L179.6000 112.9145
" />
<path d="M179.6000 115.2145
L174.9000 115.2145
" />
<path d="M174.9000 115.2145
L174.9000 112.9145
" />
<path d="M174.9000 112.9145
L179.6000 112.9145
" />
<path d="M161.6000 115.2145
L161.6000 112.9145
" />
<path d="M161.6000 115.2145
L156.9000 115.2145
" />
<path d="M156.9000 115.2145
L156.9000 112.9145
" />
<path d="M156.9000 112.9145
L161.6000 112.9145
" />
<path d="M125.6000 115.2145
L125.6000 112.9145
" />
<path d="M125.6000 115.2145
L120.9000 115.2145
" />
<path d="M120.9000 115.2145
L120.9000 112.9145
" />
<path d="M120.9000 112.9145
L125.6000 112.9145
" />
<path d="M149.1500 31.0450
L149.1500 45.8450
" />
<path d="M139.1500 31.0450
L149.1500 31.0450
" />
<path d="M139.1500 31.0450
L139.1500 45.8450
" />
<path d="M139.1500 45.8450
L149.1500 45.8450
" />
<path d="M233.6000 64.2145
L233.6000 61.9145
" />
<path d="M233.6000 64.2145
L228.9000 64.2145
" />
<path d="M228.9000 64.2145
L228.9000 61.9145
" />
<path d="M228.9000 61.9145
L233.6000 61.9145
" />
<circle cx="240.2500" cy="118.0645" r="3.7500" /> 
<circle cx="114.2500" cy="66.8145" r="3.7500" /> 
<path d="M143.6000 64.2145
L143.6000 61.9145
" />
<path d="M143.6000 64.2145
L138.9000 64.2145
" />
<path d="M138.9000 64.2145
L138.9000 61.9145
" />
<path d="M138.9000 61.9145
L143.6000 61.9145
" />
<circle cx="240.2500" cy="67.5645" r="3.7500" /> 
<path d="M131.0375 35.1872
L127.7375 35.1872
" />
<path d="M131.0375 33.7272
L131.0375 35.1872
" />
<path d="M127.7375 35.1872
L127.7375 33.7272
" />
<path d="M127.7375 33.7272
L131.0375 33.7272
" />
<path d="M71.6000 64.2145
L71.6000 61.9145
" />
<path d="M71.6000 64.2145
L66.9000 64.2145
" />
<path d="M66.9000 64.2145
L66.9000 61.9145
" />
<path d="M66.9000 61.9145
L71.6000 61.9145
" />
<path d="M125.6000 64.2145
L125.6000 61.9145
" />
<path d="M125.6000 64.2145
L120.9000 64.2145
" />
<path d="M120.9000 64.2145
L120.9000 61.9145
" />
<path d="M120.9000 61.9145
L125.6000 61.9145
" />
<circle cx="168.5000" cy="66.8145" r="3.7500" /> 
<path d="M155.0375 45.7700
L158.3375 45.7700
" />
<path d="M155.0375 47.2300
L155.0375 45.7700
" />
<path d="M158.3375 45.7700
L158.3375 47.2300
" />
<path d="M158.3375 47.2300
L155.0375 47.2300
" />
<path d="M53.6000 64.2145
L53.6000 61.9145
" />
<path d="M53.6000 64.2145
L48.9000 64.2145
" />
<path d="M48.9000 64.2145
L48.9000 61.9145
" />
<path d="M48.9000 61.9145
L53.6000 61.9145
" />
<path d="M179.6000 64.2145
L179.6000 61.9145
" />
<path d="M179.6000 64.2145
L174.9000 64.2145
" />
<path d="M174.9000 64.2145
L174.9000 61.9145
" />
<path d="M174.9000 61.9145
L179.6000 61.9145
" />
<path d="M233.6000 132.2145
L233.6000 129.9145
" />
<path d="M233.6000 132.2145
L228.9000 132.2145
" />
<path d="M228.9000 132.2145
L228.9000 129.9145
" />
<path d="M228.9000 129.9145
L233.6000 129.9145
" />
<path d="M89.6000 132.2145
L89.6000 129.9145
" />
<path d="M89.6000 132.2145
L84.9000 132.2145
" />
<path d="M84.9000 132.2145
L84.9000 129.9145
" />
<path d="M84.9000 129.9145
L89.6000 129.9145
" />
<path d="M161.6000 64.2145
L161.6000 61.9145
" />
<path d="M161.6000 64.2145
L156.9000 64.2145
" />
<path d="M156.9000 64.2145
L156.9000 61.9145
" />
<path d="M156.9000 61.9145
L161.6000 61.9145
" />
<path d="M161.4500 30.9450
L161.4500 45.7450
" />
<path d="M151.4500 30.9450
L161.4500 30.9450
" />
<path d="M151.4500 30.9450
L151.4500 45.7450
" />
<path d="M151.4500 45.7450
L161.4500 45.7450
" />
<path d="M123.4625 35.4322
L123.4625 43.7322
" />
<path d="M123.4625 43.7322
L131.1625 43.7322
" />
<path d="M131.1625 35.4322
L123.4625 35.4322
" />
<path d="M131.1625 43.7322
L131.1625 35.4322
" />
<path d="M107.6000 64.2145
L107.6000 61.9145
" />
<path d="M107.6000 64.2145
L102.9000 64.2145
" />
<path d="M102.9000 64.2145
L102.9000 61.9145
" />
<path d="M102.9000 61.9145
L107.6000 61.9145
" />
<path d="M215.6000 64.2145
L215.6000 61.9145
" />
<path d="M215.6000 64.2145
L210.9000 64.2145
" />
<path d="M210.9000 64.2145
L210.9000 61.9145
" />
<path d="M210.9000 61.9145
L215.6000 61.9145
" />
<circle cx="60.5000" cy="66.8145" r="3.7500" /> 
<path d="M215.6000 132.2145
L215.6000 129.9145
" />
<path d="M215.6000 132.2145
L210.9000 132.2145
" />
<path d="M210.9000 132.2145
L210.9000 129.9145
" />
<path d="M210.9000 129.9145
L215.6000 129.9145
" />
<path d="M197.6000 64.2145
L197.6000 61.9145
" />
<path d="M197.6000 64.2145
L192.9000 64.2145
" />
<path d="M192.9000 64.2145
L192.9000 61.9145
" />
<path d="M192.9000 61.9145
L197.6000 61.9145
" />
<path d="M251.6000 64.2145
L251.6000 61.9145
" />
<path d="M251.6000 64.2145
L246.9000 64.2145
" />
<path d="M246.9000 64.2145
L246.9000 61.9145
" />
<path d="M246.9000 61.9145
L251.6000 61.9145
" />
<path d="M155.0375 47.2700
L158.3375 47.2700
" />
<path d="M155.0375 48.7300
L155.0375 47.2700
" />
<path d="M158.3375 47.2700
L158.3375 48.7300
" />
<path d="M158.3375 48.7300
L155.0375 48.7300
" />
<path d="M251.6000 132.2145
L251.6000 129.9145
" />
<path d="M251.6000 132.2145
L246.9000 132.2145
" />
<path d="M246.9000 132.2145
L246.9000 129.9145
" />
<path d="M246.9000 129.9145
L251.6000 129.9145
" />
<path d="M53.6000 132.2145
L53.6000 129.9145
" />
<path d="M53.6000 132.2145
L48.9000 132.2145
" />
<path d="M48.9000 132.2145
L48.9000 129.9145
" />
<path d="M48.9000 129.9145
L53.6000 129.9145
" />
<circle cx="168.2500" cy="118.0645" r="3.7500" /> 
<path d="M89.6000 64.2145
L89.6000 61.9145
" />
<path d="M89.6000 64.2145
L84.9000 64.2145
" />
<path d="M84.9000 64.2145
L84.9000 61.9145
" />
<path d="M84.9000 61.9145
L89.6000 61.9145
" />
<circle cx="114.2500" cy="118.0645" r="3.7500" /> 
<path d="M71.6000 132.2145
L71.6000 129.9145
" />
<path d="M71.6000 132.2145
L66.9000 132.2145
" />
<path d="M66.9000 132.2145
L66.9000 129.9145
" />
<path d="M66.9000 129.9145
L71.6000 129.9145
" />
<path d="M143.6000 132.2145
L143.6000 129.9145
" />
<path d="M143.6000 132.2145
L138.9000 132.2145
" />
<path d="M138.9000 132.2145
L138.9000 129.9145
" />
<path d="M138.9000 129.9145
L143.6000 129.9145
" />
<circle cx="60.2500" cy="118.3145" r="3.7500" /> 
<path d="M98.2500 102.5645
L112.2500 102.5645
" />
<path d="M98.2500 116.5645
L98.2500 102.5645
" />
<path d="M112.2500 102.5645
L112.2500 116.5645
" />
<path d="M112.2500 116.5645
L98.2500 116.5645
" />
<path d="M80.2500 102.5645
L94.2500 102.5645
" />
<path d="M80.2500 116.5645
L80.2500 102.5645
" />
<path d="M94.2500 102.5645
L94.2500 116.5645
" />
<path d="M94.2500 116.5645
L80.2500 116.5645
" />
<path d="M62.2500 102.5645
L76.2500 102.5645
" />
<path d="M62.2500 116.5645
L62.2500 102.5645
" />
<path d="M76.2500 102.5645
L76.2500 116.5645
" />
<path d="M76.2500 116.5645
L62.2500 116.5645
" />
<path d="M44.2500 102.5645
L58.2500 102.5645
" />
<path d="M44.2500 116.5645
L44.2500 102.5645
" />
<path d="M58.2500 102.5645
L58.2500 116.5645
" />
<path d="M58.2500 116.5645
L44.2500 116.5645
" />
<path d="M242.2500 85.5645
L256.2500 85.5645
" />
<path d="M242.2500 99.5645
L242.2500 85.5645
" />
<path d="M256.2500 85.5645
L256.2500 99.5645
" />
<path d="M256.2500 99.5645
L242.2500 99.5645
" />
<path d="M224.2500 85.5645
L238.2500 85.5645
" />
<path d="M224.2500 99.5645
L224.2500 85.5645
" />
<path d="M238.2500 85.5645
L238.2500 99.5645
" />
<path d="M238.2500 99.5645
L224.2500 99.5645
" />
<path d="M206.2500 85.5645
L220.2500 85.5645
" />
<path d="M206.2500 99.5645
L206.2500 85.5645
" />
<path d="M220.2500 85.5645
L220.2500 99.5645
" />
<path d="M220.2500 99.5645
L206.2500 99.5645
" />
<path d="M170.2500 85.5645
L184.2500 85.5645
" />
<path d="M170.2500 99.5645
L170.2500 85.5645
" />
<path d="M184.2500 85.5645
L184.2500 99.5645
" />
<path d="M184.2500 99.5645
L170.2500 99.5645
" />
<path d="M152.2500 85.5645
L166.2500 85.5645
" />
<path d="M152.2500 99.5645
L152.2500 85.5645
" />
<path d="M166.2500 85.5645
L166.2500 99.5645
" />
<path d="M166.2500 99.5645
L152.2500 99.5645
" />
<path d="M134.2500 85.5645
L148.2500 85.5645
" />
<path d="M134.2500 99.5645
L134.2500 85.5645
" />
<path d="M148.2500 85.5645
L148.2500 99.5645
" />
<path d="M148.2500 99.5645
L134.2500 99.5645
" />
<path d="M152.2500 68.5645
L166.2500 68.5645
" />
<path d="M152.2500 82.5645
L152.2500 68.5645
" />
<path d="M166.2500 68.5645
L166.2500 82.5645
" />
<path d="M166.2500 82.5645
L152.2500 82.5645
" />
<path d="M188.2500 85.5645
L202.2500 85.5645
" />
<path d="M188.2500 99.5645
L188.2500 85.5645
" />
<path d="M202.2500 85.5645
L202.2500 99.5645
" />
<path d="M202.2500 99.5645
L188.2500 99.5645
" />
<path d="M116.2500 85.5645
L130.2500 85.5645
" />
<path d="M116.2500 99.5645
L116.2500 85.5645
" />
<path d="M130.2500 85.5645
L130.2500 99.5645
" />
<path d="M130.2500 99.5645
L116.2500 99.5645
" />
<path d="M98.2500 85.5645
L112.2500 85.5645
" />
<path d="M98.2500 99.5645
L98.2500 85.5645
" />
<path d="M112.2500 85.5645
L112.2500 99.5645
" />
<path d="M112.2500 99.5645
L98.2500 99.5645
" />
<path d="M80.2500 85.5645
L94.2500 85.5645
" />
<path d="M80.2500 99.5645
L80.2500 85.5645
" />
<path d="M94.2500 85.5645
L94.2500 99.5645
" />
<path d="M94.2500 99.5645
L80.2500 99.5645
" />
<path d="M62.2500 85.5645
L76.2500 85.5645
" />
<path d="M62.2500 99.5645
L62.2500 85.5645
" />
<path d="M76.2500 85.5645
L76.2500 99.5645
" />
<path d="M76.2500 99.5645
L62.2500 99.5645
" />
<path d="M44.2500 85.5645
L58.2500 85.5645
" />
<path d="M44.2500 99.5645
L44.2500 85.5645
" />
<path d="M58.2500 85.5645
L58.2500 99.5645
" />
<path d="M58.2500 99.5645
L44.2500 99.5645
" />
<path d="M242.2500 68.5645
L256.2500 68.5645
" />
<path d="M242.2500 82.5645
L242.2500 68.5645
" />
<path d="M256.2500 68.5645
L256.2500 82.5645
" />
<path d="M256.2500 82.5645
L242.2500 82.5645
" />
<path d="M116.2500 119.5645
L130.2500 119.5645
" />
<path d="M116.2500 133.5645
L116.2500 119.5645
" />
<path d="M130.2500 119.5645
L130.2500 133.5645
" />
<path d="M130.2500 133.5645
L116.2500 133.5645
" />
<path d="M224.2500 68.5645
L238.2500 68.5645
" />
<path d="M224.2500 82.5645
L224.2500 68.5645
" />
<path d="M238.2500 68.5645
L238.2500 82.5645
" />
<path d="M238.2500 82.5645
L224.2500 82.5645
" />
<path d="M44.2500 68.5645
L58.2500 68.5645
" />
<path d="M44.2500 82.5645
L44.2500 68.5645
" />
<path d="M58.2500 68.5645
L58.2500 82.5645
" />
<path d="M58.2500 82.5645
L44.2500 82.5645
" />
<path d="M116.2500 68.5645
L130.2500 68.5645
" />
<path d="M116.2500 82.5645
L116.2500 68.5645
" />
<path d="M130.2500 68.5645
L130.2500 82.5645
" />
<path d="M130.2500 82.5645
L116.2500 82.5645
" />
<path d="M98.2500 68.5645
L112.2500 68.5645
" />
<path d="M98.2500 82.5645
L98.2500 68.5645
" />
<path d="M112.2500 68.5645
L112.2500 82.5645
" />
<path d="M112.2500 82.5645
L98.2500 82.5645
" />
<path d="M170.2500 68.5645
L184.2500 68.5645
" />
<path d="M170.2500 82.5645
L170.2500 68.5645
" />
<path d="M184.2500 68.5645
L184.2500 82.5645
" />
<path d="M184.2500 82.5645
L170.2500 82.5645
" />
<path d="M152.2500 102.5645
L166.2500 102.5645
" />
<path d="M152.2500 116.5645
L152.2500 102.5645
" />
<path d="M166.2500 102.5645
L166.2500 116.5645
" />
<path d="M166.2500 116.5645
L152.2500 116.5645
" />
<path d="M62.2500 68.5645
L76.2500 68.5645
" />
<path d="M62.2500 82.5645
L62.2500 68.5645
" />
<path d="M76.2500 68.5645
L76.2500 82.5645
" />
<path d="M76.2500 82.5645
L62.2500 82.5645
" />
<path d="M206.2500 68.5645
L220.2500 68.5645
" />
<path d="M206.2500 82.5645
L206.2500 68.5645
" />
<path d="M220.2500 68.5645
L220.2500 82.5645
" />
<path d="M220.2500 82.5645
L206.2500 82.5645
" />
<path d="M188.2500 68.5645
L202.2500 68.5645
" />
<path d="M188.2500 82.5645
L188.2500 68.5645
" />
<path d="M202.2500 68.5645
L202.2500 82.5645
" />
<path d="M202.2500 82.5645
L188.2500 82.5645
" />
<path d="M242.2500 102.5645
L256.2500 102.5645
" />
<path d="M242.2500 116.5645
L242.2500 102.5645
" />
<path d="M256.2500 102.5645
L256.2500 116.5645
" />
<path d="M256.2500 116.5645
L242.2500 116.5645
" />
<path d="M224.2500 102.5645
L238.2500 102.5645
" />
<path d="M224.2500 116.5645
L224.2500 102.5645
" />
<path d="M238.2500 102.5645
L238.2500 116.5645
" />
<path d="M238.2500 116.5645
L224.2500 116.5645
" />
<path d="M206.2500 102.5645
L220.2500 102.5645
" />
<path d="M206.2500 116.5645
L206.2500 102.5645
" />
<path d="M220.2500 102.5645
L220.2500 116.5645
" />
<path d="M220.2500 116.5645
L206.2500 116.5645
" />
<path d="M188.2500 102.5645
L202.2500 102.5645
" />
<path d="M188.2500 116.5645
L188.2500 102.5645
" />
<path d="M202.2500 102.5645
L202.2500 116.5645
" />
<path d="M202.2500 116.5645
L188.2500 116.5645
" />
<path d="M170.2500 102.5645
L184.2500 102.5645
" />
<path d="M170.2500 116.5645
L170.2500 102.5645
" />
<path d="M184.2500 102.5645
L184.2500 116.5645
" />
<path d="M184.2500 116.5645
L170.2500 116.5645
" />
<path d="M134.2500 102.5645
L148.2500 102.5645
" />
<path d="M134.2500 116.5645
L134.2500 102.5645
" />
<path d="M148.2500 102.5645
L148.2500 116.5645
" />
<path d="M148.2500 116.5645
L134.2500 116.5645
" />
<path d="M116.2500 102.5645
L130.2500 102.5645
" />
<path d="M116.2500 116.5645
L116.2500 102.5645
" />
<path d="M130.2500 102.5645
L130.2500 116.5645
" />
<path d="M130.2500 116.5645
L116.2500 116.5645
" />
<path d="M80.2500 68.5645
L94.2500 68.5645
" />
<path d="M80.2500 82.5645
L80.2500 68.5645
" />
<path d="M94.2500 68.5645
L94.2500 82.5645
" />
<path d="M94.2500 82.5645
L80.2500 82.5645
" />
<path d="M134.2500 68.5645
L148.2500 68.5645
" />
<path d="M134.2500 82.5645
L134.2500 68.5645
" />
<path d="M148.2500 68.5645
L148.2500 82.5645
" />
<path d="M148.2500 82.5645
L134.2500 82.5645
" />
<path d="M98.2500 119.5645
L112.2500 119.5645
" />
<path d="M98.2500 133.5645
L98.2500 119.5645
" />
<path d="M112.2500 119.5645
L112.2500 133.5645
" />
<path d="M112.2500 133.5645
L98.2500 133.5645
" />
<path d="M170.2500 119.5645
L184.2500 119.5645
" />
<path d="M170.2500 133.5645
L170.2500 119.5645
" />
<path d="M184.2500 119.5645
L184.2500 133.5645
" />
<path d="M184.2500 133.5645
L170.2500 133.5645
" />
<path d="M188.2500 119.5645
L202.2500 119.5645
" />
<path d="M188.2500 133.5645
L188.2500 119.5645
" />
<path d="M202.2500 119.5645
L202.2500 133.5645
" />
<path d="M202.2500 133.5645
L188.2500 133.5645
" />
<path d="M152.2500 119.5645
L166.2500 119.5645
" />
<path d="M152.2500 133.5645
L152.2500 119.5645
" />
<path d="M166.2500 119.5645
L166.2500 133.5645
" />
<path d="M166.2500 133.5645
L152.2500 133.5645
" />
<path d="M80.2500 119.5645
L94.2500 119.5645
" />
<path d="M80.2500 133.5645
L80.2500 119.5645
" />
<path d="M94.2500 119.5645
L94.2500 133.5645
" />
<path d="M94.2500 133.5645
L80.2500 133.5645
" />
<path d="M62.2500 51.5645
L76.2500 51.5645
" />
<path d="M62.2500 65.5645
L62.2500 51.5645
" />
<path d="M76.2500 51.5645
L76.2500 65.5645
" />
<path d="M76.2500 65.5645
L62.2500 65.5645
" />
<path d="M44.2500 51.5645
L58.2500 51.5645
" />
<path d="M44.2500 65.5645
L44.2500 51.5645
" />
<path d="M58.2500 51.5645
L58.2500 65.5645
" />
<path d="M58.2500 65.5645
L44.2500 65.5645
" />
<path d="M44.2500 119.5645
L58.2500 119.5645
" />
<path d="M44.2500 133.5645
L44.2500 119.5645
" />
<path d="M58.2500 119.5645
L58.2500 133.5645
" />
<path d="M58.2500 133.5645
L44.2500 133.5645
" />
<path d="M62.2500 119.5645
L76.2500 119.5645
" />
<path d="M62.2500 133.5645
L62.2500 119.5645
" />
<path d="M76.2500 119.5645
L76.2500 133.5645
" />
<path d="M76.2500 133.5645
L62.2500 133.5645
" />
<path d="M206.2500 51.5645
L220.2500 51.5645
" />
<path d="M206.2500 65.5645
L206.2500 51.5645
" />
<path d="M220.2500 51.5645
L220.2500 65.5645
" />
<path d="M220.2500 65.5645
L206.2500 65.5645
" />
<path d="M206.2500 119.5645
L220.2500 119.5645
" />
<path d="M206.2500 133.5645
L206.2500 119.5645
" />
<path d="M220.2500 119.5645
L220.2500 133.5645
" />
<path d="M220.2500 133.5645
L206.2500 133.5645
" />
<path d="M242.2500 51.5645
L256.2500 51.5645
" />
<path d="M242.2500 65.5645
L242.2500 51.5645
" />
<path d="M256.2500 51.5645
L256.2500 65.5645
" />
<path d="M256.2500 65.5645
L242.2500 65.5645
" />
<path d="M98.2500 51.5645
L112.2500 51.5645
" />
<path d="M98.2500 65.5645
L98.2500 51.5645
" />
<path d="M112.2500 51.5645
L112.2500 65.5645
" />
<path d="M112.2500 65.5645
L98.2500 65.5645
" />
<path d="M134.2500 51.5645
L148.2500 51.5645
" />
<path d="M134.2500 65.5645
L134.2500 51.5645
" />
<path d="M148.2500 51.5645
L148.2500 65.5645
" />
<path d="M148.2500 65.5645
L134.2500 65.5645
" />
<path d="M170.2500 51.5645
L184.2500 51.5645
" />
<path d="M170.2500 65.5645
L170.2500 51.5645
" />
<path d="M184.2500 51.5645
L184.2500 65.5645
" />
<path d="M184.2500 65.5645
L170.2500 65.5645
" />
<path d="M224.2500 51.5645
L238.2500 51.5645
" />
<path d="M224.2500 65.5645
L224.2500 51.5645
" />
<path d="M238.2500 51.5645
L238.2500 65.5645
" />
<path d="M238.2500 65.5645
L224.2500 65.5645
" />
<path d="M188.2500 51.5645
L202.2500 51.5645
" />
<path d="M188.2500 65.5645
L188.2500 51.5645
" />
<path d="M202.2500 51.5645
L202.2500 65.5645
" />
<path d="M202.2500 65.5645
L188.2500 65.5645
" />
<path d="M80.2500 51.5645
L94.2500 51.5645
" />
<path d="M80.2500 65.5645
L80.2500 51.5645
" />
<path d="M94.2500 51.5645
L94.2500 65.5645
" />
<path d="M94.2500 65.5645
L80.2500 65.5645
" />
<path d="M116.2500 51.5645
L130.2500 51.5645
" />
<path d="M116.2500 65.5645
L116.2500 51.5645
" />
<path d="M130.2500 51.5645
L130.2500 65.5645
" />
<path d="M130.2500 65.5645
L116.2500 65.5645
" />
<path d="M242.2500 119.5645
L256.2500 119.5645
" />
<path d="M242.2500 133.5645
L242.2500 119.5645
" />
<path d="M256.2500 119.5645
L256.2500 133.5645
" />
<path d="M256.2500 133.5645
L242.2500 133.5645
" />
<path d="M134.2500 119.5645
L148.2500 119.5645
" />
<path d="M134.2500 133.5645
L134.2500 119.5645
" />
<path d="M148.2500 119.5645
L148.2500 133.5645
" />
<path d="M148.2500 133.5645
L134.2500 133.5645
" />
<path d="M152.2500 51.5645
L166.2500 51.5645
" />
<path d="M152.2500 65.5645
L152.2500 51.5645
" />
<path d="M166.2500 51.5645
L166.2500 65.5645
" />
<path d="M166.2500 65.5645
L152.2500 65.5645
" />
<path d="M224.2500 119.5645
L238.2500 119.5645
" />
<path d="M224.2500 133.5645
L224.2500 119.5645
" />
<path d="M238.2500 119.5645
L238.2500 133.5645
" />
<path d="M238.2500 133.5645
L224.2500 133.5645
" />
<g >
</g>
<g >
</g>
<g >
</g>
<g >
</g>
<g >
</g>
<g >
</g>
<g >
</g>
<g >
</g>
<g >
</g>
<g >
</g>
<g >
</g>
<g >
</g>
<g >
</g>
<g >
</g>
<g >
</g>
<g >
</g>
<g >
</g>
<g >
</g>
<g >
</g>
<g >
</g>
<g >
</g>
<g >
</g>
<g >
</g>
<g >
</g>
<g >
</g>
<g >
</g>
<g >
</g>
<g >
</g>
<g >
</g>
<g >
</g>
<g >
</g>
<g >
</g>
<g >
</g>
<g >
</g>
<g >
</g>
<g >
</g>
<g >
</g>
<g >
</g>
<g >
</g>
<g >
</g>
<g >
</g>
<g >
</g>
<g >
</g>
<g >
</g>
<g >
</g>
<g >
</g>
<g >
</g>
<g >
</g>
<g >
</g>
<g >
</g>
<g >
</g>
<g >
</g>
<g >
</g>
<g >
</g>
<g >
</g>
<g >
</g>
<g >
</g>
<g >
</g>
<g >
</g>
<g >
</g>
<g >
</g>
<g >
</g>
<g >
</g>
<g >
</g>
<g >
</g>
<g >
</g>
<g >
</g>
<g >
</g>
<g >
</g>
<g >
</g>
<g >
</g>
<g >
</g>
<g >
</g>
<g >
</g>
<g >
</g>
<g >
</g>
<g >
</g>
<g >
</g>
<g >
</g>
<g >
</g>
<g >
</g>
<g >
</g>
<g >
</g>
<g >
</g>
<g >
</g>
<g >
</g>
<g >
</g>
<g >
</g>
<g >
</g>
<g >
</g>
<g >
</g>
<g >
</g>
<g >
</g>
<g >
</g>
<g >
</g>
<g >
</g>
<g >
</g>
<g >
</g>
<g >
</g>
<g >
</g>
<g >
</g>
<g >
</g>
<g >
</g>
<g >
</g>
<g >
</g>
<g >
</g>
<g >
</g>
<g >
</g>
<g >
</g>
<g >
</g>
<g >
</g>
<g >
</g>
<g >
</g>
<g >
</g>
<g >
</g>
<g >
</g>
<g >
</g>
<g >
</g>
<g >
</g>
<g >
</g>
<g >
</g>
<g >
</g>
<g >
</g>
<g >
</g>
<g >
</g>
<g >
</g>
<g >
</g>
<g >
</g>
<g >
</g>
<g >
</g>
<g >
</g>
<g >
</g>
<g >
</g>
<g >
</g>
<g >
</g>
<g >
</g>
<g >
</g>
<g >
</g>
<g >
</g>
<g >
</g>
<g >
</g>
<g >
</g>
</g> 
</svg>
